<svg width="239" height="235" viewBox="0 0 239 235" fill="none" xmlns="http://www.w3.org/2000/svg">
<path d="M119.624 229.506C183.78 229.506 235.788 199.086 235.788 161.562C235.788 124.038 183.78 93.6191 119.624 93.6191C55.4691 93.6191 3.46094 124.038 3.46094 161.562C3.46094 199.086 55.4691 229.506 119.624 229.506Z" fill="#F5F5F5"/>
<path d="M37.136 157.047L117.918 203.352C118.764 203.778 119.699 204 120.648 204C121.596 204 122.531 203.778 123.377 203.352L180.883 170.093C181.171 169.96 181.423 169.759 181.617 169.508C181.811 169.258 181.94 168.964 181.994 168.652C182.053 168.042 181.679 167.422 180.863 166.953L100.086 120.648C99.2398 120.222 98.3047 120 97.3562 120C96.4078 120 95.4727 120.222 94.6268 120.648L37.1164 153.907C36.8186 154.045 36.5603 154.255 36.3653 154.518C36.1703 154.781 36.0447 155.088 36 155.411V155.514C36.0419 155.844 36.1683 156.159 36.3672 156.427C36.566 156.695 36.8307 156.909 37.136 157.047Z" fill="#E6E6E6"/>
<path d="M170.416 163.276C170.475 162.713 170.125 162.136 169.373 161.703L94.5742 118.954C93.7917 118.558 92.9256 118.352 92.0469 118.352C91.1683 118.352 90.3021 118.558 89.5196 118.954L42.0337 146.272C41.7585 146.399 41.5198 146.592 41.3393 146.834C41.1588 147.076 41.0421 147.358 41 147.656V152.164C41 152.705 41.3279 153.255 42.0519 153.67L116.851 196.383C117.633 196.779 118.5 196.985 119.378 196.985C120.257 196.985 121.123 196.779 121.906 196.383L169.387 169.065C169.664 168.94 169.904 168.747 170.085 168.505C170.266 168.263 170.381 167.979 170.421 167.681V163.258L170.416 163.276Z" fill="#455A64"/>
<path d="M92.7827 132.219C92.847 132.241 92.9027 132.283 92.9422 132.338C92.9816 132.393 93.0028 132.458 93.0028 132.526C93.0028 132.593 92.9816 132.659 92.9422 132.714C92.9027 132.769 92.847 132.81 92.7827 132.832L89.6862 134.622C89.5216 134.706 89.3388 134.751 89.1534 134.751C88.968 134.751 88.7852 134.706 88.6206 134.622L79.2628 129.266C78.9668 129.095 78.9622 128.816 79.2628 128.653L82.3593 126.873C82.5251 126.789 82.7084 126.746 82.8943 126.746C83.0803 126.746 83.2636 126.789 83.4294 126.873L92.7827 132.219Z" fill="#263238"/>
<path d="M91.5976 126.021C91.8936 126.192 91.8982 126.472 91.5976 126.63L88.5011 128.433C88.3358 128.515 88.1533 128.558 87.9683 128.558C87.7833 128.558 87.6009 128.515 87.4356 128.433L84.0795 126.508C84.0152 126.486 83.9594 126.444 83.92 126.389C83.8806 126.334 83.8594 126.269 83.8594 126.201C83.8594 126.134 83.8806 126.068 83.92 126.013C83.9594 125.958 84.0152 125.917 84.0795 125.895L87.1805 124.092C87.3459 124.01 87.5283 123.967 87.7133 123.967C87.8983 123.967 88.0808 124.01 88.2461 124.092L91.5976 126.021Z" fill="#263238"/>
<path d="M96.8161 129.002C96.8804 129.024 96.9361 129.065 96.9755 129.12C97.015 129.175 97.0362 129.241 97.0362 129.308C97.0362 129.376 97.015 129.441 96.9755 129.496C96.9361 129.551 96.8804 129.593 96.8161 129.615L93.7196 131.418C93.555 131.503 93.3722 131.547 93.1868 131.547C93.0013 131.547 92.8186 131.503 92.654 131.418L89.2934 129.498C89.2285 129.477 89.172 129.436 89.132 129.381C89.0919 129.327 89.0703 129.261 89.0703 129.193C89.0703 129.126 89.0919 129.06 89.132 129.005C89.172 128.951 89.2285 128.91 89.2934 128.889L92.3899 127.086C92.5552 127.004 92.7377 126.961 92.9227 126.961C93.1077 126.961 93.2901 127.004 93.4554 127.086L96.8161 129.002Z" fill="#263238"/>
<path d="M117.65 140.933C117.946 141.1 117.95 141.384 117.65 141.542L114.553 143.345C114.388 143.427 114.205 143.47 114.02 143.47C113.835 143.47 113.653 143.427 113.488 143.345L110.15 141.384C110.086 141.362 110.03 141.32 109.99 141.265C109.951 141.21 109.93 141.145 109.93 141.077C109.93 141.01 109.951 140.944 109.99 140.889C110.03 140.834 110.086 140.793 110.15 140.771L113.251 138.99C113.415 138.905 113.597 138.861 113.781 138.861C113.966 138.861 114.148 138.905 114.312 138.99L117.65 140.933Z" fill="#263238"/>
<path d="M122.881 143.905C122.946 143.926 123.003 143.967 123.043 144.021C123.083 144.076 123.104 144.142 123.104 144.209C123.104 144.277 123.083 144.342 123.043 144.397C123.003 144.452 122.946 144.493 122.881 144.513L119.78 146.317C119.615 146.399 119.432 146.441 119.247 146.441C119.062 146.441 118.88 146.399 118.715 146.317L115.372 144.378C115.076 144.207 115.072 143.927 115.372 143.765L118.469 141.984C118.634 141.901 118.816 141.857 119.001 141.857C119.187 141.857 119.369 141.901 119.534 141.984L122.881 143.905Z" fill="#263238"/>
<path d="M126.397 141.883C126.461 141.904 126.518 141.945 126.558 142C126.598 142.054 126.62 142.12 126.62 142.188C126.62 142.255 126.598 142.321 126.558 142.376C126.518 142.43 126.461 142.471 126.397 142.492L124.602 143.524C124.438 143.609 124.255 143.653 124.07 143.653C123.884 143.653 123.701 143.609 123.537 143.524L120.176 141.604C120.111 141.583 120.055 141.542 120.015 141.488C119.975 141.433 119.953 141.367 119.953 141.3C119.953 141.232 119.975 141.166 120.015 141.112C120.055 141.057 120.111 141.016 120.176 140.995L121.97 139.963C122.135 139.879 122.318 139.836 122.503 139.836C122.688 139.836 122.871 139.879 123.036 139.963L126.397 141.883Z" fill="#263238"/>
<path d="M121.178 138.905C121.243 138.926 121.299 138.966 121.339 139.021C121.379 139.076 121.401 139.141 121.401 139.209C121.401 139.276 121.379 139.342 121.339 139.397C121.299 139.452 121.243 139.492 121.178 139.513L119.384 140.546C119.219 140.629 119.036 140.673 118.851 140.673C118.666 140.673 118.483 140.629 118.318 140.546L114.957 138.625C114.893 138.604 114.836 138.563 114.796 138.509C114.756 138.454 114.734 138.388 114.734 138.321C114.734 138.253 114.756 138.187 114.796 138.133C114.836 138.078 114.893 138.037 114.957 138.017L116.747 136.984C116.912 136.9 117.094 136.855 117.28 136.855C117.465 136.855 117.648 136.9 117.813 136.984L121.178 138.905Z" fill="#263238"/>
<path d="M115.966 135.924C116.031 135.945 116.087 135.986 116.127 136.04C116.167 136.095 116.189 136.161 116.189 136.228C116.189 136.296 116.167 136.362 116.127 136.416C116.087 136.471 116.031 136.512 115.966 136.533L114.172 137.565C114.007 137.65 113.824 137.694 113.639 137.694C113.453 137.694 113.271 137.65 113.106 137.565L109.745 135.645C109.449 135.473 109.449 135.194 109.745 135.036L111.54 134.004C111.704 133.919 111.887 133.875 112.072 133.875C112.258 133.875 112.441 133.919 112.605 134.004L115.966 135.924Z" fill="#263238"/>
<path d="M106.087 145.347C106.151 145.368 106.208 145.408 106.248 145.463C106.288 145.518 106.31 145.583 106.31 145.651C106.31 145.718 106.288 145.784 106.248 145.839C106.208 145.894 106.151 145.934 106.087 145.955L102.99 147.758C102.825 147.84 102.642 147.883 102.457 147.883C102.272 147.883 102.09 147.84 101.924 147.758L98.5638 145.838C98.4996 145.816 98.4438 145.774 98.4044 145.719C98.3649 145.665 98.3438 145.599 98.3438 145.531C98.3438 145.464 98.3649 145.398 98.4044 145.343C98.4438 145.288 98.4996 145.247 98.5638 145.225L101.665 143.422C101.83 143.337 102.012 143.293 102.198 143.293C102.383 143.293 102.566 143.337 102.73 143.422L106.087 145.347Z" fill="#263238"/>
<path d="M113.395 143.999C113.691 144.165 113.686 144.449 113.395 144.612L110.294 146.392C110.129 146.477 109.946 146.521 109.761 146.521C109.576 146.521 109.393 146.477 109.228 146.392L105.872 144.472C105.576 144.305 105.572 144.021 105.872 143.863L108.969 142.06C109.134 141.977 109.318 141.934 109.504 141.934C109.69 141.934 109.873 141.977 110.039 142.06L113.395 143.999Z" fill="#263238"/>
<path d="M162.9 162.748C162.965 162.769 163.021 162.81 163.061 162.865C163.101 162.919 163.123 162.985 163.123 163.052C163.123 163.12 163.101 163.186 163.061 163.24C163.021 163.295 162.965 163.336 162.9 163.357L161.11 164.376C160.946 164.46 160.763 164.504 160.577 164.504C160.392 164.504 160.209 164.46 160.045 164.376L156.684 162.455C156.619 162.434 156.563 162.394 156.523 162.339C156.483 162.284 156.461 162.218 156.461 162.151C156.461 162.083 156.483 162.018 156.523 161.963C156.563 161.908 156.619 161.868 156.684 161.847L158.478 160.814C158.643 160.73 158.825 160.686 159.011 160.686C159.196 160.686 159.379 160.73 159.544 160.814L162.9 162.748Z" fill="#263238"/>
<path d="M87.5162 146.31C87.5811 146.331 87.6376 146.372 87.6777 146.426C87.7177 146.481 87.7393 146.547 87.7393 146.614C87.7393 146.682 87.7177 146.748 87.6777 146.802C87.6376 146.857 87.5811 146.898 87.5162 146.918L84.4152 148.722C84.2498 148.804 84.0674 148.847 83.8824 148.847C83.6974 148.847 83.515 148.804 83.3496 148.722L79.9935 146.792C79.9292 146.77 79.8735 146.729 79.8341 146.674C79.7946 146.619 79.7734 146.553 79.7734 146.486C79.7734 146.418 79.7946 146.353 79.8341 146.298C79.8735 146.243 79.9292 146.201 79.9935 146.179L83.0901 144.399C83.255 144.315 83.4376 144.271 83.6228 144.271C83.8081 144.271 83.9907 144.315 84.1556 144.399L87.5162 146.31Z" fill="#263238"/>
<path d="M118.8 164.195C118.865 164.216 118.922 164.256 118.962 164.311C119.002 164.366 119.024 164.431 119.024 164.499C119.024 164.567 119.002 164.632 118.962 164.687C118.922 164.742 118.865 164.782 118.8 164.803L115.704 166.584C115.539 166.669 115.357 166.713 115.171 166.713C114.986 166.713 114.803 166.669 114.638 166.584L111.278 164.664C111.213 164.643 111.156 164.602 111.116 164.547C111.076 164.493 111.055 164.427 111.055 164.359C111.055 164.292 111.076 164.226 111.116 164.171C111.156 164.117 111.213 164.076 111.278 164.055L114.379 162.252C114.543 162.167 114.726 162.123 114.912 162.123C115.097 162.123 115.28 162.167 115.444 162.252L118.8 164.195Z" fill="#263238"/>
<path d="M131.611 144.866C131.675 144.888 131.731 144.929 131.77 144.984C131.81 145.039 131.831 145.105 131.831 145.172C131.831 145.239 131.81 145.305 131.77 145.36C131.731 145.415 131.675 145.456 131.611 145.479L129.817 146.506C129.652 146.591 129.469 146.635 129.284 146.635C129.098 146.635 128.916 146.591 128.751 146.506L125.395 144.586C125.33 144.565 125.274 144.524 125.234 144.47C125.193 144.415 125.172 144.349 125.172 144.282C125.172 144.214 125.193 144.148 125.234 144.094C125.274 144.039 125.33 143.998 125.395 143.977L127.185 142.945C127.35 142.863 127.532 142.82 127.717 142.82C127.902 142.82 128.085 142.863 128.25 142.945L131.611 144.866Z" fill="#263238"/>
<path d="M157.675 159.77C157.74 159.791 157.797 159.831 157.837 159.886C157.877 159.941 157.899 160.007 157.899 160.074C157.899 160.142 157.877 160.207 157.837 160.262C157.797 160.317 157.74 160.357 157.675 160.378L155.9 161.411C155.734 161.493 155.552 161.536 155.367 161.536C155.182 161.536 154.999 161.493 154.834 161.411L151.478 159.49C151.414 159.468 151.358 159.427 151.318 159.372C151.279 159.317 151.258 159.251 151.258 159.184C151.258 159.116 151.279 159.051 151.318 158.996C151.358 158.941 151.414 158.899 151.478 158.877L153.272 157.849C153.437 157.765 153.619 157.721 153.805 157.721C153.99 157.721 154.173 157.765 154.338 157.849L157.675 159.77Z" fill="#263238"/>
<path d="M103.082 138.11C103.147 138.132 103.202 138.174 103.242 138.229C103.281 138.284 103.302 138.349 103.302 138.417C103.302 138.484 103.281 138.55 103.242 138.605C103.202 138.66 103.147 138.701 103.082 138.723L99.9813 140.527C99.8168 140.609 99.6351 140.652 99.4508 140.652C99.2664 140.652 99.0847 140.609 98.9203 140.527L95.5596 138.606C95.2637 138.435 95.2591 138.155 95.5596 137.993L98.6561 136.212C98.822 136.129 99.0053 136.086 99.1912 136.086C99.3771 136.086 99.5604 136.129 99.7263 136.212L103.082 138.11Z" fill="#263238"/>
<path d="M108.246 141.055C108.31 141.078 108.366 141.119 108.405 141.174C108.445 141.229 108.466 141.295 108.466 141.362C108.466 141.429 108.445 141.495 108.405 141.55C108.366 141.605 108.31 141.646 108.246 141.669L105.149 143.449C104.985 143.534 104.802 143.578 104.616 143.578C104.431 143.578 104.248 143.534 104.084 143.449L100.723 141.529C100.658 141.508 100.602 141.467 100.562 141.413C100.522 141.358 100.5 141.292 100.5 141.225C100.5 141.157 100.522 141.091 100.562 141.037C100.602 140.982 100.658 140.941 100.723 140.92L103.824 139.117C103.989 139.035 104.172 138.992 104.357 138.992C104.542 138.992 104.724 139.035 104.89 139.117L108.246 141.055Z" fill="#263238"/>
<path d="M101.031 142.453C101.094 142.476 101.149 142.518 101.188 142.573C101.227 142.629 101.248 142.694 101.248 142.762C101.248 142.829 101.227 142.895 101.188 142.95C101.149 143.005 101.094 143.047 101.031 143.07L97.9341 144.851C97.7691 144.935 97.5865 144.978 97.4013 144.978C97.216 144.978 97.0334 144.935 96.8685 144.851L93.517 142.931C93.4527 142.909 93.3969 142.867 93.3575 142.812C93.3181 142.757 93.2969 142.692 93.2969 142.624C93.2969 142.557 93.3181 142.491 93.3575 142.436C93.3969 142.381 93.4527 142.34 93.517 142.318L96.6181 140.537C96.7827 140.452 96.9654 140.408 97.1508 140.408C97.3363 140.408 97.519 140.452 97.6836 140.537L101.031 142.453Z" fill="#263238"/>
<path d="M71.8714 137.366C71.9357 137.388 71.9915 137.43 72.0309 137.485C72.0703 137.539 72.0915 137.605 72.0915 137.673C72.0915 137.74 72.0703 137.806 72.0309 137.861C71.9915 137.916 71.9357 137.957 71.8714 137.979L68.7749 139.782C68.6103 139.867 68.4276 139.911 68.2421 139.911C68.0567 139.911 67.8739 139.867 67.7093 139.782L64.3715 137.839C64.3066 137.818 64.2501 137.778 64.2101 137.723C64.17 137.668 64.1484 137.603 64.1484 137.535C64.1484 137.468 64.17 137.402 64.2101 137.347C64.2501 137.292 64.3066 137.252 64.3715 137.231L67.4726 135.428C67.6379 135.345 67.8203 135.303 68.0053 135.303C68.1903 135.303 68.3728 135.345 68.5381 135.428L71.8714 137.366Z" fill="#263238"/>
<path d="M77.0911 140.352C77.156 140.373 77.2125 140.414 77.2525 140.469C77.2926 140.523 77.3142 140.589 77.3142 140.657C77.3142 140.724 77.2926 140.79 77.2525 140.845C77.2125 140.899 77.156 140.94 77.0911 140.961L73.99 142.764C73.8247 142.846 73.6423 142.889 73.4573 142.889C73.2723 142.889 73.0898 142.846 72.9245 142.764L69.5639 140.844C69.4996 140.822 69.4438 140.78 69.4044 140.725C69.3649 140.67 69.3438 140.605 69.3438 140.537C69.3438 140.47 69.3649 140.404 69.4044 140.349C69.4438 140.294 69.4996 140.253 69.5639 140.231L72.6604 138.428C72.825 138.343 73.0077 138.299 73.1931 138.299C73.3786 138.299 73.5613 138.343 73.7259 138.428L77.0911 140.352Z" fill="#263238"/>
<path d="M90.9105 136.676C90.9753 136.697 91.0318 136.737 91.0719 136.792C91.112 136.847 91.1335 136.912 91.1335 136.98C91.1335 137.047 91.112 137.113 91.0719 137.168C91.0318 137.223 90.9753 137.263 90.9105 137.284L87.8094 139.087C87.6441 139.17 87.4616 139.212 87.2766 139.212C87.0916 139.212 86.9092 139.17 86.7439 139.087L83.3878 137.167C83.0918 136.996 83.0872 136.716 83.3878 136.554L86.4843 134.773C86.6497 134.689 86.8332 134.645 87.0193 134.645C87.2055 134.645 87.389 134.689 87.5544 134.773L90.9105 136.676Z" fill="#263238"/>
<path d="M83.1868 138.046C83.2511 138.068 83.3068 138.109 83.3462 138.164C83.3857 138.219 83.4069 138.285 83.4069 138.352C83.4069 138.42 83.3857 138.485 83.3462 138.54C83.3068 138.595 83.2511 138.637 83.1868 138.659L80.0857 140.439C79.9208 140.523 79.7382 140.566 79.5529 140.566C79.3677 140.566 79.1851 140.523 79.0201 140.439L69.38 134.935C69.084 134.768 69.0794 134.484 69.38 134.327L72.4765 132.523C72.6426 132.441 72.8258 132.398 73.0115 132.398C73.1973 132.398 73.3804 132.441 73.5466 132.523L83.1868 138.046Z" fill="#263238"/>
<path d="M95.9772 139.578C96.042 139.598 96.0985 139.639 96.1386 139.694C96.1787 139.748 96.2002 139.814 96.2002 139.882C96.2002 139.949 96.1787 140.015 96.1386 140.07C96.0985 140.124 96.042 140.165 95.9772 140.186L92.8807 141.989C92.7153 142.071 92.5329 142.114 92.3479 142.114C92.1629 142.114 91.9805 142.071 91.8151 141.989L88.4545 140.028C88.3902 140.006 88.3344 139.965 88.295 139.91C88.2556 139.855 88.2344 139.789 88.2344 139.722C88.2344 139.654 88.2556 139.589 88.295 139.534C88.3344 139.479 88.3902 139.437 88.4545 139.415L91.5556 137.635C91.7202 137.55 91.9029 137.506 92.0883 137.506C92.2738 137.506 92.4565 137.55 92.6211 137.635L95.9772 139.578Z" fill="#263238"/>
<path d="M88.3792 141.011C88.4441 141.032 88.5006 141.072 88.5406 141.127C88.5807 141.182 88.6023 141.247 88.6023 141.315C88.6023 141.382 88.5807 141.448 88.5406 141.503C88.5006 141.558 88.4441 141.598 88.3792 141.619L85.2782 143.422C85.1137 143.505 84.932 143.548 84.7476 143.548C84.5633 143.548 84.3816 143.505 84.2171 143.422L80.8565 141.502C80.5605 141.331 80.556 141.051 80.8565 140.889L83.9576 139.086C84.1222 139.001 84.3049 138.957 84.4904 138.957C84.6758 138.957 84.8585 139.001 85.0232 139.086L88.3792 141.011Z" fill="#263238"/>
<path d="M93.4316 143.896C93.4954 143.919 93.5505 143.962 93.5894 144.017C93.6283 144.072 93.6491 144.138 93.6491 144.205C93.6491 144.272 93.6283 144.338 93.5894 144.393C93.5505 144.448 93.4954 144.491 93.4316 144.514L90.326 146.294C90.1601 146.378 89.9769 146.421 89.7909 146.421C89.605 146.421 89.4217 146.378 89.2559 146.294L85.8998 144.374C85.8355 144.352 85.7798 144.31 85.7403 144.256C85.7009 144.201 85.6797 144.135 85.6797 144.068C85.6797 144 85.7009 143.934 85.7403 143.879C85.7798 143.825 85.8355 143.783 85.8998 143.761L88.9963 141.98C89.1617 141.896 89.3452 141.852 89.5314 141.852C89.7176 141.852 89.901 141.896 90.0664 141.98L93.4316 143.896Z" fill="#263238"/>
<path d="M85.7018 133.689C85.7661 133.711 85.8218 133.753 85.8613 133.808C85.9007 133.863 85.9219 133.928 85.9219 133.996C85.9219 134.063 85.9007 134.129 85.8613 134.184C85.8218 134.239 85.7661 134.28 85.7018 134.302L82.6007 136.106C82.4354 136.188 82.2529 136.23 82.0679 136.23C81.883 136.23 81.7005 136.188 81.5352 136.106L74.4496 132.048C74.3848 132.027 74.3283 131.987 74.2882 131.932C74.2481 131.877 74.2266 131.812 74.2266 131.744C74.2266 131.677 74.2481 131.611 74.2882 131.556C74.3283 131.501 74.3848 131.461 74.4496 131.44L77.5507 129.637C77.716 129.554 77.8985 129.512 78.0835 129.512C78.2685 129.512 78.4509 129.554 78.6162 129.637L85.7018 133.689Z" fill="#263238"/>
<path d="M97.9489 135.173C98.0132 135.195 98.0689 135.236 98.1083 135.291C98.1478 135.346 98.169 135.412 98.169 135.479C98.169 135.547 98.1478 135.612 98.1083 135.667C98.0689 135.722 98.0132 135.764 97.9489 135.786L94.8524 137.566C94.6878 137.651 94.505 137.695 94.3196 137.695C94.1341 137.695 93.9514 137.651 93.7868 137.566L90.4262 135.646C90.3613 135.625 90.3048 135.584 90.2648 135.53C90.2247 135.475 90.2031 135.409 90.2031 135.342C90.2031 135.274 90.2247 135.208 90.2648 135.154C90.3048 135.099 90.3613 135.058 90.4262 135.037L93.5272 133.234C93.6926 133.152 93.875 133.109 94.06 133.109C94.245 133.109 94.4274 133.152 94.5928 133.234L97.9489 135.173Z" fill="#263238"/>
<path d="M124.029 167.176C124.093 167.197 124.15 167.237 124.19 167.292C124.23 167.347 124.252 167.412 124.252 167.48C124.252 167.547 124.23 167.613 124.19 167.668C124.15 167.723 124.093 167.763 124.029 167.784L120.928 169.587C120.762 169.669 120.58 169.712 120.395 169.712C120.21 169.712 120.027 169.669 119.862 169.587L116.501 167.667C116.437 167.645 116.381 167.603 116.342 167.548C116.302 167.494 116.281 167.428 116.281 167.36C116.281 167.293 116.302 167.227 116.342 167.172C116.381 167.117 116.437 167.076 116.501 167.054L119.598 165.273C119.762 165.189 119.945 165.145 120.131 165.145C120.316 165.145 120.499 165.189 120.663 165.273L124.029 167.176Z" fill="#263238"/>
<path d="M127.191 171.588C127.255 171.611 127.311 171.652 127.35 171.707C127.39 171.762 127.411 171.828 127.411 171.895C127.411 171.962 127.39 172.028 127.35 172.083C127.311 172.138 127.255 172.179 127.191 172.201L126.362 172.679C126.197 172.763 126.014 172.806 125.829 172.806C125.644 172.806 125.461 172.763 125.296 172.679L121.653 170.592C121.357 170.425 121.353 170.141 121.653 169.984L122.482 169.506C122.647 169.421 122.829 169.377 123.015 169.377C123.2 169.377 123.383 169.421 123.548 169.506L127.191 171.588Z" fill="#263238"/>
<path d="M133.879 167.021C133.944 167.042 134.001 167.083 134.041 167.138C134.081 167.192 134.102 167.258 134.102 167.326C134.102 167.393 134.081 167.459 134.041 167.514C134.001 167.568 133.944 167.609 133.879 167.63L130.778 169.433C130.614 169.516 130.432 169.558 130.248 169.558C130.063 169.558 129.882 169.516 129.717 169.433L126.357 167.513C126.061 167.341 126.056 167.062 126.357 166.9L129.453 165.119C129.618 165.034 129.802 164.99 129.988 164.99C130.174 164.99 130.358 165.034 130.523 165.119L133.879 167.021Z" fill="#263238"/>
<path d="M149.753 170.307C149.817 170.327 149.874 170.368 149.914 170.423C149.954 170.477 149.976 170.543 149.976 170.611C149.976 170.678 149.954 170.744 149.914 170.799C149.874 170.853 149.817 170.894 149.753 170.915L146.652 172.718C146.486 172.8 146.304 172.843 146.119 172.843C145.934 172.843 145.751 172.8 145.586 172.718L139.001 168.954C138.937 168.932 138.881 168.891 138.842 168.836C138.802 168.781 138.781 168.715 138.781 168.648C138.781 168.58 138.802 168.514 138.842 168.46C138.881 168.405 138.937 168.363 139.001 168.341L142.098 166.56C142.262 166.476 142.445 166.432 142.631 166.432C142.816 166.432 142.999 166.476 143.163 166.56L149.753 170.307Z" fill="#263238"/>
<path d="M144.712 173.211C144.777 173.232 144.834 173.273 144.874 173.327C144.914 173.382 144.935 173.448 144.935 173.515C144.935 173.583 144.914 173.649 144.874 173.703C144.834 173.758 144.777 173.799 144.712 173.819L141.616 175.623C141.45 175.705 141.268 175.748 141.083 175.748C140.898 175.748 140.715 175.705 140.55 175.623L131.415 170.402C131.351 170.38 131.295 170.339 131.256 170.284C131.217 170.229 131.195 170.163 131.195 170.096C131.195 170.028 131.217 169.963 131.256 169.908C131.295 169.853 131.351 169.811 131.415 169.789L134.516 167.986C134.681 167.902 134.864 167.857 135.049 167.857C135.235 167.857 135.417 167.902 135.582 167.986L144.712 173.211Z" fill="#263238"/>
<path d="M141.477 165.573C141.542 165.594 141.599 165.635 141.639 165.689C141.679 165.744 141.7 165.81 141.7 165.877C141.7 165.945 141.679 166.011 141.639 166.065C141.599 166.12 141.542 166.161 141.477 166.182L138.381 167.985C138.215 168.067 138.033 168.11 137.848 168.11C137.663 168.11 137.48 168.067 137.315 167.985L133.954 166.065C133.89 166.042 133.834 166.001 133.795 165.946C133.756 165.891 133.734 165.825 133.734 165.758C133.734 165.691 133.756 165.625 133.795 165.57C133.834 165.515 133.89 165.474 133.954 165.451L137.056 163.648C137.22 163.564 137.403 163.52 137.588 163.52C137.774 163.52 137.957 163.564 138.121 163.648L141.477 165.573Z" fill="#263238"/>
<path d="M128.825 164.126C128.89 164.149 128.946 164.19 128.985 164.245C129.024 164.3 129.046 164.366 129.046 164.433C129.046 164.5 129.024 164.566 128.985 164.621C128.946 164.676 128.89 164.717 128.825 164.739L125.724 166.543C125.559 166.625 125.377 166.668 125.192 166.668C125.007 166.668 124.824 166.625 124.659 166.543L121.298 164.604C121.234 164.582 121.178 164.541 121.139 164.486C121.099 164.431 121.078 164.365 121.078 164.298C121.078 164.23 121.099 164.165 121.139 164.11C121.178 164.055 121.234 164.013 121.298 163.991L124.395 162.211C124.561 162.127 124.744 162.084 124.93 162.084C125.116 162.084 125.299 162.127 125.465 162.211L128.825 164.126Z" fill="#263238"/>
<path d="M136.419 162.681C136.484 162.703 136.539 162.744 136.579 162.799C136.618 162.854 136.639 162.92 136.639 162.987C136.639 163.055 136.618 163.12 136.579 163.175C136.539 163.23 136.484 163.272 136.419 163.294L133.318 165.097C133.153 165.179 132.97 165.222 132.785 165.222C132.6 165.222 132.418 165.179 132.253 165.097L128.892 163.177C128.828 163.154 128.772 163.113 128.733 163.058C128.693 163.003 128.672 162.937 128.672 162.87C128.672 162.803 128.693 162.737 128.733 162.682C128.772 162.627 128.828 162.586 128.892 162.563L131.988 160.783C132.154 160.7 132.338 160.656 132.524 160.656C132.709 160.656 132.893 160.7 133.059 160.783L136.419 162.681Z" fill="#263238"/>
<path d="M123.772 161.242C123.836 161.263 123.893 161.304 123.933 161.358C123.973 161.413 123.995 161.479 123.995 161.546C123.995 161.614 123.973 161.68 123.933 161.734C123.893 161.789 123.836 161.83 123.772 161.851L120.67 163.654C120.505 163.736 120.323 163.779 120.138 163.779C119.953 163.779 119.77 163.736 119.605 163.654L116.249 161.733C115.948 161.562 115.948 161.283 116.249 161.12L119.35 159.34C119.515 159.255 119.699 159.211 119.885 159.211C120.071 159.211 120.255 159.255 120.42 159.34L123.772 161.242Z" fill="#263238"/>
<path d="M131.371 159.795C131.436 159.816 131.493 159.856 131.533 159.911C131.573 159.966 131.594 160.032 131.594 160.099C131.594 160.167 131.573 160.232 131.533 160.287C131.493 160.342 131.436 160.382 131.371 160.403L128.27 162.207C128.105 162.289 127.923 162.331 127.738 162.331C127.553 162.331 127.37 162.289 127.205 162.207L123.849 160.286C123.553 160.115 123.548 159.835 123.849 159.673L126.95 157.892C127.115 157.808 127.299 157.764 127.485 157.764C127.671 157.764 127.854 157.808 128.02 157.892L131.371 159.795Z" fill="#263238"/>
<path d="M98.4928 146.795C98.5577 146.816 98.6142 146.856 98.6542 146.911C98.6943 146.966 98.7159 147.032 98.7159 147.099C98.7159 147.167 98.6943 147.232 98.6542 147.287C98.6142 147.342 98.5577 147.382 98.4928 147.403L95.3963 149.207C95.2309 149.289 95.0485 149.331 94.8635 149.331C94.6785 149.331 94.4961 149.289 94.3307 149.207L90.9701 147.286C90.9058 147.264 90.8501 147.223 90.8106 147.168C90.7712 147.113 90.75 147.047 90.75 146.98C90.75 146.912 90.7712 146.846 90.8106 146.792C90.8501 146.737 90.9058 146.695 90.9701 146.673L94.0712 144.892C94.2358 144.808 94.4185 144.764 94.604 144.764C94.7894 144.764 94.9721 144.808 95.1367 144.892L98.4928 146.795Z" fill="#263238"/>
<path d="M112.457 137.945C112.522 137.966 112.579 138.007 112.619 138.061C112.659 138.116 112.68 138.182 112.68 138.249C112.68 138.317 112.659 138.383 112.619 138.437C112.579 138.492 112.522 138.533 112.457 138.554L109.356 140.357C109.191 140.439 109.008 140.482 108.823 140.482C108.638 140.482 108.456 140.439 108.291 140.357L104.935 138.437C104.639 138.265 104.634 137.986 104.935 137.823L108.031 136.043C108.196 135.958 108.378 135.914 108.564 135.914C108.749 135.914 108.932 135.958 109.097 136.043L112.457 137.945Z" fill="#263238"/>
<path d="M82.3011 143.332C82.3659 143.353 82.4224 143.394 82.4625 143.448C82.5026 143.503 82.5241 143.569 82.5241 143.636C82.5241 143.704 82.5026 143.769 82.4625 143.824C82.4224 143.879 82.3659 143.92 82.3011 143.94L79.2 145.744C79.0347 145.826 78.8522 145.868 78.6672 145.868C78.4823 145.868 78.2998 145.826 78.1345 145.744L74.7784 143.823C74.4824 143.652 74.4778 143.372 74.7784 143.21L77.8749 141.429C78.0395 141.345 78.2222 141.301 78.4077 141.301C78.5931 141.301 78.7759 141.345 78.9405 141.429L82.3011 143.332Z" fill="#263238"/>
<path d="M132.292 174.505C132.588 174.672 132.592 174.956 132.292 175.114L131.463 175.591C131.298 175.676 131.115 175.72 130.93 175.72C130.745 175.72 130.562 175.676 130.397 175.591L126.754 173.504C126.689 173.483 126.633 173.443 126.593 173.388C126.553 173.333 126.531 173.267 126.531 173.2C126.531 173.132 126.553 173.067 126.593 173.012C126.633 172.957 126.689 172.917 126.754 172.896L127.588 172.418C127.752 172.333 127.935 172.289 128.12 172.289C128.306 172.289 128.489 172.333 128.653 172.418L132.292 174.505Z" fill="#263238"/>
<path d="M137.395 177.421C137.46 177.442 137.516 177.483 137.556 177.537C137.596 177.592 137.618 177.658 137.618 177.725C137.618 177.793 137.596 177.859 137.556 177.913C137.516 177.968 137.46 178.009 137.395 178.03L136.561 178.507C136.397 178.592 136.214 178.636 136.029 178.636C135.843 178.636 135.66 178.592 135.496 178.507L131.853 176.42C131.789 176.398 131.733 176.357 131.693 176.302C131.654 176.247 131.633 176.181 131.633 176.114C131.633 176.046 131.654 175.981 131.693 175.926C131.733 175.871 131.789 175.829 131.853 175.807L132.686 175.334C132.851 175.249 133.034 175.205 133.219 175.205C133.404 175.205 133.587 175.249 133.752 175.334L137.395 177.421Z" fill="#263238"/>
<path d="M134.558 173.198C134.622 173.22 134.678 173.261 134.717 173.316C134.757 173.371 134.778 173.437 134.778 173.504C134.778 173.572 134.757 173.637 134.717 173.692C134.678 173.747 134.622 173.789 134.558 173.811L133.729 174.293C133.564 174.375 133.381 174.418 133.196 174.418C133.011 174.418 132.829 174.375 132.664 174.293L129.021 172.206C128.725 172.035 128.72 171.755 129.021 171.593L129.849 171.115C130.015 171.033 130.197 170.99 130.382 170.99C130.567 170.99 130.75 171.033 130.915 171.115L134.558 173.198Z" fill="#263238"/>
<path d="M84.4104 152.949L71.1409 160.586C71.0387 160.644 70.9539 160.727 70.8948 160.828C70.8358 160.929 70.8047 161.044 70.8047 161.16C70.8047 161.277 70.8358 161.392 70.8948 161.493C70.9539 161.593 71.0387 161.677 71.1409 161.735L93.3948 174.457C93.6507 174.604 93.9413 174.682 94.2373 174.682C94.5332 174.682 94.8239 174.604 95.0797 174.457L108.354 166.825C108.456 166.767 108.541 166.683 108.6 166.582C108.659 166.481 108.69 166.367 108.69 166.25C108.69 166.133 108.659 166.019 108.6 165.918C108.541 165.817 108.456 165.733 108.354 165.675L86.0998 152.954C85.8435 152.806 85.5524 152.727 85.2557 152.727C84.9591 152.726 84.6675 152.803 84.4104 152.949Z" fill="#263238"/>
<path d="M116.85 191.921L42.0597 149.171C41.777 149.044 41.5319 148.847 41.3478 148.599C41.1637 148.351 41.0466 148.061 41.0078 147.756V152.147C41.0078 152.688 41.3357 153.238 42.0597 153.652L116.85 196.384C117.566 196.762 118.364 196.965 119.177 196.974V192.493C118.366 192.49 117.568 192.293 116.85 191.921Z" fill="#37474F"/>
<path d="M170.415 163.277C170.364 163.564 170.244 163.834 170.065 164.065C169.885 164.296 169.652 164.48 169.385 164.603L121.904 191.921C121.064 192.359 120.12 192.563 119.172 192.512V196.993C120.12 197.046 121.065 196.841 121.904 196.402L169.385 169.084C169.662 168.959 169.903 168.766 170.084 168.524C170.264 168.282 170.38 167.998 170.419 167.7V163.277H170.415Z" fill="#263238"/>
<path d="M86.8795 174.904V175.486C86.8795 176.275 86.3148 176.595 85.6181 176.198L73.9788 169.544C73.6145 169.309 73.3113 168.992 73.0937 168.62C72.8762 168.247 72.7504 167.828 72.7266 167.399V166.812L86.8795 174.904Z" fill="#263238"/>
<path d="M171.073 97.1337L96.142 54.3077C95.7971 54.1062 95.404 54 95.0035 54C94.6031 54 94.21 54.1062 93.8651 54.3077L92.285 55.34C91.9652 55.5387 91.7017 55.8147 91.5193 56.142C91.3369 56.4692 91.2415 56.837 91.2422 57.2108V113.885C91.2417 114.908 91.5133 115.913 92.0297 116.798C92.5461 117.684 93.2891 118.419 94.1839 118.93L169.11 161.756C169.467 161.962 169.874 162.067 170.287 162.059C170.7 162.051 171.103 161.931 171.451 161.711L173.017 160.688C173.325 160.485 173.577 160.211 173.752 159.888C173.926 159.565 174.016 159.205 174.015 158.839V102.165C174.012 101.145 173.739 100.143 173.223 99.2603C172.706 98.3774 171.965 97.6442 171.073 97.1337Z" fill="#263238"/>
<path d="M96.2467 115.42C95.9714 115.262 95.7425 115.036 95.5827 114.764C95.4229 114.492 95.3379 114.184 95.3359 113.869V60.3184L167.548 101.612C167.824 101.769 168.053 101.995 168.212 102.267C168.372 102.539 168.457 102.848 168.459 103.162V156.713L96.2467 115.42Z" fill="#C51F2C"/>
<path opacity="0.3" d="M96.2467 115.42C95.9714 115.262 95.7425 115.036 95.5827 114.764C95.4229 114.492 95.3379 114.184 95.3359 113.869V60.3184L167.548 101.612C167.824 101.769 168.053 101.995 168.212 102.267C168.372 102.539 168.457 102.848 168.459 103.162V156.713L96.2467 115.42Z" fill="black"/>
<path opacity="0.1" d="M96.2467 115.42C95.9714 115.262 95.7425 115.036 95.5827 114.764C95.4229 114.492 95.3379 114.184 95.3359 113.869V60.3184L167.548 101.612C167.824 101.769 168.053 101.995 168.212 102.267C168.372 102.539 168.457 102.848 168.459 103.162V156.713L96.2467 115.42Z" fill="white"/>
<path d="M171.069 97.1337L96.1382 54.3077C95.7933 54.1062 95.4002 54 94.9998 54C94.5994 54 94.2063 54.1062 93.8614 54.3077L92.2812 55.34C92.6303 55.1073 93.0387 54.9771 93.4593 54.9643C93.8798 54.9516 94.2955 55.0568 94.6583 55.2679L169.562 98.1075C170.649 98.7287 171.509 99.6759 172.016 100.812L173.56 99.9107C173.059 98.7404 172.184 97.765 171.069 97.1337Z" fill="#455A64"/>
<path d="M172.022 100.844C172.342 101.576 172.508 102.364 172.51 103.161V159.818C172.511 160.197 172.415 160.569 172.23 160.901C172.045 161.232 171.778 161.511 171.453 161.711L173.02 160.688C173.327 160.486 173.58 160.211 173.754 159.889C173.928 159.566 174.018 159.206 174.017 158.84V102.165C174.012 101.404 173.857 100.65 173.561 99.9473L172.022 100.844Z" fill="#37474F"/>
<path d="M105.542 129.967C105.607 129.988 105.663 130.029 105.703 130.083C105.743 130.138 105.765 130.204 105.765 130.271C105.765 130.339 105.743 130.405 105.703 130.459C105.663 130.514 105.607 130.555 105.542 130.576L103.748 131.608C103.582 131.69 103.4 131.733 103.215 131.733C103.03 131.733 102.848 131.69 102.682 131.608L99.3217 129.688C99.2574 129.665 99.2016 129.624 99.1622 129.569C99.1228 129.514 99.1016 129.448 99.1016 129.381C99.1016 129.314 99.1228 129.248 99.1622 129.193C99.2016 129.138 99.2574 129.097 99.3217 129.075L101.116 128.047C101.28 127.962 101.463 127.918 101.649 127.918C101.834 127.918 102.017 127.962 102.181 128.047L105.542 129.967Z" fill="#263238"/>
<path d="M102.028 131.979C102.092 132.001 102.148 132.043 102.187 132.098C102.227 132.153 102.248 132.218 102.248 132.286C102.248 132.353 102.227 132.419 102.187 132.474C102.148 132.529 102.092 132.57 102.028 132.592L98.9266 134.373C98.762 134.458 98.5792 134.502 98.3938 134.502C98.2083 134.502 98.0256 134.458 97.861 134.373L94.505 132.453C94.209 132.286 94.2044 132.002 94.505 131.844L97.6015 130.041C97.7668 129.959 97.9493 129.916 98.1342 129.916C98.3192 129.916 98.5017 129.959 98.667 130.041L102.028 131.979Z" fill="#263238"/>
<path d="M110.756 132.94C110.821 132.962 110.876 133.003 110.916 133.058C110.955 133.113 110.976 133.179 110.976 133.246C110.976 133.314 110.955 133.379 110.916 133.434C110.876 133.489 110.821 133.531 110.756 133.553L108.962 134.585C108.798 134.668 108.616 134.711 108.432 134.711C108.247 134.711 108.065 134.668 107.901 134.585L104.54 132.665C104.476 132.643 104.42 132.601 104.381 132.546C104.342 132.491 104.32 132.426 104.32 132.358C104.32 132.291 104.342 132.225 104.381 132.17C104.42 132.115 104.476 132.074 104.54 132.052L106.335 131.019C106.5 130.937 106.682 130.895 106.867 130.895C107.052 130.895 107.235 130.937 107.4 131.019L110.756 132.94Z" fill="#263238"/>
<path d="M107.246 134.96C107.31 134.982 107.366 135.023 107.405 135.078C107.445 135.133 107.466 135.199 107.466 135.266C107.466 135.334 107.445 135.399 107.405 135.454C107.366 135.509 107.31 135.551 107.246 135.573L104.149 137.354C103.985 137.438 103.802 137.482 103.616 137.482C103.431 137.482 103.248 137.438 103.084 137.354L99.7231 135.433C99.6582 135.412 99.6017 135.371 99.5616 135.317C99.5216 135.262 99.5 135.196 99.5 135.129C99.5 135.061 99.5216 134.995 99.5616 134.941C99.6017 134.886 99.6582 134.845 99.7231 134.825L102.82 133.021C102.985 132.939 103.167 132.896 103.352 132.896C103.537 132.896 103.72 132.939 103.885 133.021L107.246 134.96Z" fill="#263238"/>
<path d="M95.1075 124.003C95.4034 124.174 95.408 124.454 95.1075 124.616L93.3133 125.644C93.1487 125.728 92.966 125.772 92.7805 125.772C92.5951 125.772 92.4123 125.728 92.2477 125.644L88.8871 123.723C88.8223 123.702 88.7658 123.662 88.7257 123.607C88.6856 123.552 88.6641 123.487 88.6641 123.419C88.6641 123.351 88.6856 123.286 88.7257 123.231C88.7658 123.176 88.8223 123.136 88.8871 123.115L90.6813 122.082C90.8457 122 91.0275 121.957 91.2118 121.957C91.3961 121.957 91.5778 122 91.7423 122.082L95.1075 124.003Z" fill="#263238"/>
<path d="M100.322 126.983C100.623 127.154 100.623 127.434 100.322 127.596L98.5281 128.628C98.3637 128.711 98.182 128.754 97.9976 128.754C97.8133 128.754 97.6316 128.711 97.4671 128.628L94.1065 126.708C93.8105 126.536 93.806 126.257 94.1065 126.095L95.9007 125.062C96.066 124.98 96.2485 124.938 96.4334 124.938C96.6184 124.937 96.8009 124.98 96.9662 125.062L100.322 126.983Z" fill="#263238"/>
<path d="M128.102 146.883C128.398 147.054 128.403 147.333 128.102 147.491L125.006 149.294C124.84 149.376 124.658 149.419 124.473 149.419C124.288 149.419 124.105 149.376 123.94 149.294L120.579 147.374C120.515 147.352 120.459 147.31 120.42 147.255C120.381 147.201 120.359 147.135 120.359 147.067C120.359 147 120.381 146.934 120.42 146.879C120.459 146.824 120.515 146.783 120.579 146.761L123.681 144.98C123.844 144.896 124.026 144.852 124.211 144.852C124.396 144.852 124.578 144.896 124.742 144.98L128.102 146.883Z" fill="#263238"/>
<path d="M118.563 146.939C118.627 146.961 118.683 147.002 118.723 147.057C118.762 147.112 118.783 147.178 118.783 147.245C118.783 147.313 118.762 147.378 118.723 147.433C118.683 147.488 118.627 147.53 118.563 147.552L115.467 149.355C115.301 149.437 115.119 149.48 114.934 149.48C114.749 149.48 114.566 149.437 114.401 149.355L111.04 147.435C110.976 147.412 110.92 147.371 110.881 147.316C110.842 147.261 110.82 147.195 110.82 147.128C110.82 147.061 110.842 146.995 110.881 146.94C110.92 146.885 110.976 146.844 111.04 146.821L114.141 145.041C114.306 144.956 114.489 144.912 114.674 144.912C114.86 144.912 115.042 144.956 115.207 145.041L118.563 146.939Z" fill="#263238"/>
<path d="M136.826 147.843C136.89 147.865 136.946 147.906 136.985 147.961C137.024 148.016 137.046 148.082 137.046 148.149C137.046 148.217 137.024 148.283 136.985 148.337C136.946 148.392 136.89 148.434 136.826 148.456L135.036 149.497C134.871 149.579 134.688 149.622 134.503 149.622C134.318 149.622 134.136 149.579 133.97 149.497L130.614 147.577C130.318 147.406 130.314 147.126 130.614 146.964L132.408 145.931C132.574 145.849 132.756 145.807 132.941 145.807C133.126 145.807 133.309 145.849 133.474 145.931L136.826 147.843Z" fill="#263238"/>
<path d="M111.145 148.236C111.21 148.257 111.266 148.298 111.306 148.353C111.346 148.407 111.368 148.473 111.368 148.54C111.368 148.608 111.346 148.674 111.306 148.728C111.266 148.783 111.21 148.824 111.145 148.845L108.044 150.648C107.878 150.73 107.696 150.773 107.511 150.773C107.326 150.773 107.144 150.73 106.978 150.648L103.622 148.728C103.326 148.556 103.322 148.277 103.622 148.114L106.719 146.334C106.884 146.249 107.068 146.205 107.254 146.205C107.44 146.205 107.623 146.249 107.789 146.334L111.145 148.236Z" fill="#263238"/>
<path d="M103.536 149.685C103.601 149.705 103.658 149.746 103.698 149.801C103.738 149.855 103.759 149.921 103.759 149.989C103.759 150.056 103.738 150.122 103.698 150.177C103.658 150.231 103.601 150.272 103.536 150.293L100.435 152.096C100.27 152.178 100.088 152.221 99.9026 152.221C99.7176 152.221 99.5352 152.178 99.3698 152.096L96.0092 150.176C95.9449 150.154 95.8891 150.112 95.8497 150.057C95.8103 150.002 95.7891 149.937 95.7891 149.869C95.7891 149.802 95.8103 149.736 95.8497 149.681C95.8891 149.626 95.9449 149.585 96.0092 149.563L99.1057 147.76C99.2711 147.675 99.4546 147.631 99.6407 147.631C99.8269 147.631 100.01 147.675 100.176 147.76L103.536 149.685Z" fill="#263238"/>
<path d="M133.316 149.862C133.38 149.884 133.436 149.926 133.476 149.981C133.515 150.036 133.536 150.101 133.536 150.169C133.536 150.236 133.515 150.302 133.476 150.357C133.436 150.412 133.38 150.453 133.316 150.475L130.22 152.256C130.055 152.339 129.872 152.383 129.687 152.383C129.502 152.383 129.319 152.339 129.154 152.256L125.793 150.335C125.729 150.315 125.672 150.274 125.632 150.219C125.592 150.164 125.57 150.099 125.57 150.031C125.57 149.964 125.592 149.898 125.632 149.843C125.672 149.789 125.729 149.748 125.793 149.727L128.894 147.924C129.06 147.842 129.242 147.799 129.427 147.799C129.612 147.799 129.795 147.842 129.96 147.924L133.316 149.862Z" fill="#263238"/>
<path d="M123.691 149.881C123.755 149.903 123.811 149.945 123.851 150C123.89 150.055 123.911 150.12 123.911 150.188C123.911 150.255 123.89 150.321 123.851 150.376C123.811 150.431 123.755 150.472 123.691 150.494L120.59 152.297C120.425 152.382 120.243 152.426 120.057 152.426C119.872 152.426 119.689 152.382 119.524 152.297L116.168 150.377C116.104 150.356 116.047 150.315 116.007 150.261C115.967 150.206 115.945 150.14 115.945 150.073C115.945 150.005 115.967 149.939 116.007 149.885C116.047 149.83 116.104 149.789 116.168 149.769L119.265 147.988C119.431 147.905 119.614 147.861 119.8 147.861C119.986 147.861 120.169 147.905 120.335 147.988L123.691 149.881Z" fill="#263238"/>
<path d="M142.034 150.825C142.098 150.847 142.154 150.888 142.194 150.943C142.233 150.998 142.254 151.064 142.254 151.131C142.254 151.198 142.233 151.264 142.194 151.319C142.154 151.374 142.098 151.415 142.034 151.438L140.24 152.47C140.075 152.552 139.892 152.595 139.707 152.595C139.522 152.595 139.34 152.552 139.174 152.47L135.814 150.55C135.75 150.527 135.694 150.486 135.654 150.431C135.615 150.376 135.594 150.31 135.594 150.243C135.594 150.176 135.615 150.11 135.654 150.055C135.694 150 135.75 149.959 135.814 149.936L137.603 148.904C137.769 148.822 137.951 148.779 138.136 148.779C138.321 148.779 138.504 148.822 138.669 148.904L142.034 150.825Z" fill="#263238"/>
<path d="M116.192 151.121C116.256 151.144 116.311 151.186 116.349 151.241C116.388 151.297 116.409 151.362 116.409 151.43C116.409 151.497 116.388 151.563 116.349 151.618C116.311 151.673 116.256 151.715 116.192 151.738L113.095 153.519C112.929 153.602 112.746 153.646 112.56 153.646C112.374 153.646 112.191 153.602 112.025 153.519L108.669 151.599C108.373 151.427 108.368 151.148 108.669 150.986L111.766 149.205C111.931 149.12 112.114 149.076 112.301 149.076C112.487 149.076 112.67 149.12 112.836 149.205L116.192 151.121Z" fill="#263238"/>
<path d="M108.598 152.57C108.662 152.593 108.717 152.635 108.756 152.691C108.795 152.746 108.815 152.812 108.815 152.879C108.815 152.946 108.795 153.012 108.756 153.067C108.717 153.122 108.662 153.164 108.598 153.188L105.501 154.968C105.336 155.051 105.152 155.095 104.966 155.095C104.78 155.095 104.597 155.051 104.431 154.968L101.075 153.048C100.779 152.877 100.775 152.597 101.075 152.435L104.172 150.654C104.337 150.57 104.521 150.525 104.707 150.525C104.893 150.525 105.076 150.57 105.242 150.654L108.598 152.57Z" fill="#263238"/>
<path d="M138.527 152.845C138.823 153.017 138.828 153.296 138.527 153.459L135.43 155.262C135.266 155.346 135.083 155.39 134.898 155.39C134.712 155.39 134.53 155.346 134.365 155.262L131.004 153.341C130.939 153.32 130.883 153.28 130.843 153.225C130.803 153.17 130.781 153.105 130.781 153.037C130.781 152.969 130.803 152.904 130.843 152.849C130.883 152.794 130.939 152.754 131.004 152.733L134.105 150.93C134.271 150.847 134.453 150.805 134.638 150.805C134.823 150.805 135.006 150.847 135.171 150.93L138.527 152.845Z" fill="#263238"/>
<path d="M128.839 152.826C128.903 152.849 128.959 152.89 128.999 152.945C129.038 153 129.059 153.066 129.059 153.133C129.059 153.2 129.038 153.266 128.999 153.321C128.959 153.376 128.903 153.417 128.839 153.44L125.743 155.22C125.577 155.303 125.393 155.347 125.208 155.347C125.022 155.347 124.838 155.303 124.673 155.22L121.298 153.3C121.234 153.278 121.178 153.236 121.139 153.181C121.099 153.126 121.078 153.061 121.078 152.993C121.078 152.926 121.099 152.86 121.139 152.805C121.178 152.75 121.234 152.709 121.298 152.687L124.395 150.906C124.56 150.821 124.744 150.777 124.93 150.777C125.116 150.777 125.299 150.821 125.465 150.906L128.839 152.826Z" fill="#263238"/>
<path d="M121.251 154.008C121.315 154.029 121.372 154.069 121.412 154.124C121.452 154.179 121.474 154.244 121.474 154.312C121.474 154.379 121.452 154.445 121.412 154.5C121.372 154.555 121.315 154.595 121.251 154.616L118.154 156.419C117.989 156.502 117.806 156.544 117.621 156.544C117.436 156.544 117.254 156.502 117.089 156.419L113.728 154.499C113.664 154.477 113.608 154.435 113.568 154.381C113.529 154.326 113.508 154.26 113.508 154.192C113.508 154.125 113.529 154.059 113.568 154.004C113.608 153.95 113.664 153.908 113.728 153.886L116.829 152.105C116.994 152.021 117.176 151.977 117.362 151.977C117.547 151.977 117.73 152.021 117.895 152.105L121.251 154.008Z" fill="#263238"/>
<path d="M113.657 155.461C113.722 155.482 113.778 155.522 113.818 155.577C113.858 155.632 113.88 155.698 113.88 155.765C113.88 155.833 113.858 155.898 113.818 155.953C113.778 156.008 113.722 156.048 113.657 156.069L110.556 157.873C110.391 157.955 110.21 157.998 110.025 157.998C109.841 157.998 109.659 157.955 109.495 157.873L106.134 155.952C106.07 155.93 106.014 155.889 105.975 155.834C105.935 155.779 105.914 155.713 105.914 155.646C105.914 155.578 105.935 155.513 105.975 155.458C106.014 155.403 106.07 155.361 106.134 155.339L109.231 153.558C109.396 153.474 109.58 153.43 109.766 153.43C109.952 153.43 110.135 153.474 110.301 153.558L113.657 155.461Z" fill="#263238"/>
<path d="M133.984 155.766C134.048 155.788 134.104 155.83 134.144 155.884C134.183 155.939 134.204 156.005 134.204 156.072C134.204 156.14 134.183 156.206 134.144 156.261C134.104 156.315 134.048 156.357 133.984 156.379L130.883 158.182C130.718 158.266 130.535 158.309 130.35 158.309C130.165 158.309 129.982 158.266 129.817 158.182L126.466 156.262C126.17 156.091 126.165 155.811 126.466 155.649L129.567 153.846C129.732 153.761 129.916 153.717 130.102 153.717C130.288 153.717 130.472 153.761 130.637 153.846L133.984 155.766Z" fill="#263238"/>
<path d="M143.746 155.809C143.81 155.832 143.866 155.873 143.905 155.928C143.945 155.983 143.966 156.049 143.966 156.116C143.966 156.183 143.945 156.249 143.905 156.304C143.866 156.359 143.81 156.4 143.746 156.422L140.649 158.203C140.485 158.288 140.302 158.332 140.116 158.332C139.931 158.332 139.748 158.288 139.584 158.203L136.223 156.283C136.158 156.262 136.102 156.221 136.062 156.166C136.022 156.112 136 156.046 136 155.978C136 155.911 136.022 155.845 136.062 155.79C136.102 155.736 136.158 155.695 136.223 155.674L139.324 153.871C139.489 153.789 139.672 153.746 139.857 153.746C140.042 153.746 140.224 153.789 140.39 153.871L143.746 155.809Z" fill="#263238"/>
<path d="M126.305 156.904C126.37 156.925 126.427 156.966 126.467 157.02C126.507 157.075 126.528 157.141 126.528 157.208C126.528 157.276 126.507 157.342 126.467 157.396C126.427 157.451 126.37 157.492 126.305 157.513L123.209 159.316C123.043 159.398 122.861 159.441 122.676 159.441C122.491 159.441 122.309 159.398 122.143 159.316L118.783 157.395C118.718 157.373 118.663 157.332 118.623 157.277C118.584 157.222 118.562 157.156 118.562 157.089C118.562 157.022 118.584 156.956 118.623 156.901C118.663 156.846 118.718 156.805 118.783 156.782L121.884 155.002C122.048 154.917 122.231 154.873 122.416 154.873C122.602 154.873 122.785 154.917 122.949 155.002L126.305 156.904Z" fill="#263238"/>
<path d="M118.712 158.353C118.776 158.374 118.833 158.415 118.873 158.47C118.913 158.524 118.935 158.59 118.935 158.658C118.935 158.725 118.913 158.791 118.873 158.846C118.833 158.9 118.776 158.941 118.712 158.962L115.615 160.765C115.45 160.847 115.267 160.89 115.082 160.89C114.897 160.89 114.715 160.847 114.549 160.765L111.189 158.845C111.125 158.823 111.069 158.781 111.029 158.726C110.99 158.671 110.969 158.606 110.969 158.538C110.969 158.471 110.99 158.405 111.029 158.35C111.069 158.295 111.125 158.254 111.189 158.232L114.29 156.451C114.455 156.366 114.637 156.322 114.823 156.322C115.008 156.322 115.191 156.366 115.355 156.451L118.712 158.353Z" fill="#263238"/>
<path d="M139.129 158.71C139.194 158.732 139.249 158.773 139.289 158.828C139.328 158.883 139.349 158.949 139.349 159.016C139.349 159.084 139.328 159.149 139.289 159.204C139.249 159.259 139.194 159.301 139.129 159.323L136.028 161.104C135.864 161.188 135.681 161.232 135.495 161.232C135.31 161.232 135.127 161.188 134.963 161.104L131.607 159.183C131.311 159.016 131.306 158.732 131.607 158.575L134.703 156.771C134.869 156.689 135.052 156.646 135.238 156.646C135.424 156.646 135.607 156.689 135.773 156.771L139.129 158.71Z" fill="#263238"/>
<path d="M148.962 158.808C149.027 158.829 149.084 158.87 149.124 158.925C149.164 158.979 149.185 159.045 149.185 159.113C149.185 159.18 149.164 159.246 149.124 159.301C149.084 159.355 149.027 159.396 148.962 159.417L145.888 161.22C145.723 161.302 145.541 161.345 145.356 161.345C145.171 161.345 144.988 161.302 144.823 161.22L141.462 159.3C141.398 159.278 141.342 159.236 141.303 159.181C141.263 159.126 141.242 159.061 141.242 158.993C141.242 158.926 141.263 158.86 141.303 158.805C141.342 158.75 141.398 158.709 141.462 158.687L144.559 156.906C144.723 156.821 144.906 156.777 145.092 156.777C145.277 156.777 145.46 156.821 145.624 156.906L148.962 158.808Z" fill="#263238"/>
<path d="M113.587 161.221C113.652 161.242 113.708 161.283 113.748 161.338C113.788 161.392 113.81 161.458 113.81 161.526C113.81 161.593 113.788 161.659 113.748 161.714C113.708 161.768 113.652 161.809 113.587 161.83L110.49 163.633C110.325 163.715 110.142 163.758 109.957 163.758C109.772 163.758 109.59 163.715 109.425 163.633L85.2081 149.789C84.9121 149.618 84.9075 149.338 85.2081 149.176L88.3046 147.373C88.4692 147.288 88.6519 147.244 88.8374 147.244C89.0228 147.244 89.2055 147.288 89.3701 147.373L113.587 161.221Z" fill="#263238"/>
<path d="M144.275 161.671C144.34 161.692 144.396 161.733 144.436 161.788C144.476 161.842 144.498 161.908 144.498 161.976C144.498 162.043 144.476 162.109 144.436 162.164C144.396 162.218 144.34 162.259 144.275 162.28L141.178 164.083C141.013 164.165 140.83 164.208 140.645 164.208C140.46 164.208 140.278 164.165 140.113 164.083L136.775 162.122C136.711 162.1 136.655 162.059 136.615 162.004C136.576 161.949 136.555 161.883 136.555 161.816C136.555 161.748 136.576 161.682 136.615 161.627C136.655 161.573 136.711 161.531 136.775 161.509L139.876 159.728C140.04 159.644 140.223 159.6 140.409 159.6C140.594 159.6 140.777 159.644 140.941 159.728L144.275 161.671Z" fill="#263238"/>
<path d="M149.427 164.593C149.491 164.615 149.547 164.656 149.587 164.711C149.626 164.766 149.647 164.832 149.647 164.899C149.647 164.967 149.626 165.032 149.587 165.087C149.547 165.142 149.491 165.184 149.427 165.206L146.326 167.009C146.161 167.091 145.978 167.134 145.793 167.134C145.608 167.134 145.426 167.091 145.26 167.009L141.9 165.089C141.835 165.066 141.78 165.025 141.74 164.97C141.701 164.915 141.68 164.849 141.68 164.782C141.68 164.715 141.701 164.649 141.74 164.594C141.78 164.539 141.835 164.498 141.9 164.476L144.996 162.695C145.162 162.612 145.345 162.568 145.531 162.568C145.717 162.568 145.901 162.612 146.066 162.695L149.427 164.593Z" fill="#263238"/>
<path d="M159.389 164.769C159.454 164.79 159.511 164.831 159.551 164.885C159.591 164.94 159.612 165.006 159.612 165.073C159.612 165.141 159.591 165.207 159.551 165.261C159.511 165.316 159.454 165.357 159.389 165.378L156.288 167.181C156.123 167.263 155.941 167.306 155.756 167.306C155.571 167.306 155.388 167.263 155.223 167.181L146.653 162.258C146.588 162.237 146.531 162.197 146.491 162.142C146.451 162.087 146.43 162.021 146.43 161.954C146.43 161.886 146.451 161.821 146.491 161.766C146.531 161.711 146.588 161.671 146.653 161.65L149.754 159.869C149.918 159.784 150.101 159.74 150.287 159.74C150.472 159.74 150.655 159.784 150.819 159.869L159.389 164.769Z" fill="#263238"/>
<path d="M154.574 167.53C154.638 167.552 154.694 167.594 154.733 167.649C154.773 167.704 154.794 167.769 154.794 167.837C154.794 167.904 154.773 167.97 154.733 168.025C154.694 168.08 154.638 168.121 154.574 168.143L151.477 169.924C151.313 170.009 151.13 170.053 150.945 170.053C150.759 170.053 150.576 170.009 150.412 169.924L147.051 168.004C146.986 167.983 146.93 167.942 146.89 167.887C146.85 167.833 146.828 167.767 146.828 167.699C146.828 167.632 146.85 167.566 146.89 167.511C146.93 167.457 146.986 167.416 147.051 167.395L150.152 165.592C150.317 165.508 150.5 165.465 150.685 165.465C150.87 165.465 151.053 165.508 151.218 165.592L154.574 167.53Z" fill="#263238"/>
<path d="M147.252 153.805C147.548 153.976 147.553 154.256 147.252 154.418L145.458 155.45C145.292 155.533 145.11 155.575 144.925 155.575C144.74 155.575 144.558 155.533 144.392 155.45L141.036 153.53C140.74 153.359 140.736 153.079 141.036 152.917L142.83 151.885C142.996 151.803 143.178 151.76 143.363 151.76C143.548 151.76 143.731 151.803 143.896 151.885L147.252 153.805Z" fill="#263238"/>
<path d="M152.469 156.789C152.534 156.81 152.59 156.851 152.63 156.906C152.671 156.96 152.692 157.026 152.692 157.094C152.692 157.161 152.671 157.227 152.63 157.282C152.59 157.336 152.534 157.377 152.469 157.398L150.679 158.43C150.514 158.512 150.332 158.555 150.147 158.555C149.962 158.555 149.779 158.512 149.614 158.43L146.253 156.51C145.957 156.339 145.957 156.059 146.253 155.901L148.047 154.869C148.212 154.784 148.395 154.74 148.58 154.74C148.766 154.74 148.948 154.784 149.113 154.869L152.469 156.789Z" fill="#263238"/>
<path d="M119.434 82.0762L119.32 122.238C119.342 122.632 119.458 123.016 119.657 123.358C119.856 123.701 120.134 123.992 120.468 124.208L177.507 156.805V158.099L178.905 157.225L178.946 157.198C179.05 157.113 179.131 157.005 179.184 156.882C179.236 156.76 179.258 156.627 179.247 156.494L179.365 114.615L177.926 115.517L119.434 82.0762Z" fill="#F5F5F5"/>
<path d="M178.223 110.901L120.605 77.9655C120.474 77.8675 120.314 77.8145 120.15 77.8145C119.985 77.8145 119.825 77.8675 119.694 77.9655L118.328 78.813L119.421 79.4306V82.1083L177.931 115.508L179.37 114.607V112.862C179.35 112.468 179.235 112.086 179.035 111.745C178.836 111.404 178.557 111.115 178.223 110.901Z" fill="#C51F2C"/>
<path d="M177.926 115.509L177.807 157.393C177.807 158.114 177.288 158.407 176.655 158.042L119.019 125.107C118.684 124.892 118.406 124.602 118.205 124.261C118.005 123.919 117.889 123.535 117.867 123.141L117.99 81.2617L177.926 115.509Z" fill="#F5F5F5"/>
<path d="M119.662 80.1042C119.808 80.1985 119.929 80.3256 120.016 80.4753C120.103 80.6249 120.154 80.7928 120.163 80.9653C120.163 81.2808 119.935 81.4161 119.657 81.2493C119.511 81.155 119.389 81.0278 119.302 80.8782C119.215 80.7286 119.165 80.5607 119.156 80.3882C119.156 80.0772 119.384 79.9464 119.662 80.1042Z" fill="#F5F5F5"/>
<path d="M121.123 80.943C121.269 81.037 121.391 81.164 121.478 81.3137C121.565 81.4634 121.615 81.6315 121.624 81.804C121.624 82.115 121.396 82.2548 121.118 82.088C120.972 81.994 120.85 81.8669 120.763 81.7172C120.676 81.5675 120.626 81.3995 120.617 81.227C120.617 80.9114 120.84 80.7807 121.123 80.943Z" fill="#F5F5F5"/>
<path d="M122.584 81.7768C122.73 81.8708 122.852 81.9979 122.939 82.1476C123.026 82.2973 123.076 82.4653 123.084 82.6378C123.084 82.9534 122.861 83.0886 122.579 82.9263C122.434 82.831 122.313 82.7036 122.226 82.5542C122.139 82.4048 122.089 82.2374 122.078 82.0653C122.078 81.7452 122.306 81.619 122.584 81.7768Z" fill="#F5F5F5"/>
<path d="M176.787 111.798C177.121 112.014 177.399 112.305 177.597 112.647C177.796 112.989 177.91 113.374 177.93 113.768V115.508L118.008 81.2471V79.5025C118.008 78.7767 118.527 78.4882 119.164 78.8534L176.787 111.798ZM121.118 82.0856C121.396 82.2434 121.623 82.1127 121.623 81.8016C121.615 81.6291 121.565 81.4611 121.478 81.3114C121.391 81.1617 121.269 81.0346 121.123 80.9406C120.84 80.7783 120.617 80.909 120.617 81.2246C120.626 81.3971 120.676 81.5651 120.763 81.7148C120.85 81.8645 120.972 81.9916 121.118 82.0856ZM122.58 82.9241C122.862 83.0819 123.085 82.9511 123.085 82.6356C123.077 82.4631 123.027 82.295 122.94 82.1453C122.852 81.9957 122.731 81.8686 122.584 81.7746C122.306 81.6168 122.079 81.743 122.079 82.0631C122.089 82.2352 122.14 82.4025 122.227 82.552C122.314 82.7014 122.435 82.8288 122.58 82.9241ZM119.652 81.2471C119.929 81.4094 120.157 81.2787 120.157 80.9631C120.148 80.7907 120.098 80.6228 120.011 80.4731C119.924 80.3235 119.802 80.1964 119.656 80.1021C119.378 79.9443 119.151 80.0705 119.151 80.3861C119.16 80.5585 119.21 80.7264 119.297 80.8761C119.384 81.0257 119.506 81.1528 119.652 81.2471Z" fill="#C51F2C"/>
<g opacity="0.2">
<path d="M176.787 111.798C177.121 112.014 177.399 112.305 177.597 112.647C177.796 112.989 177.91 113.374 177.93 113.768V115.508L118.008 81.2471V79.5025C118.008 78.7767 118.527 78.4882 119.164 78.8534L176.787 111.798ZM121.118 82.0856C121.396 82.2434 121.623 82.1127 121.623 81.8016C121.615 81.6291 121.565 81.4611 121.478 81.3114C121.391 81.1617 121.269 81.0346 121.123 80.9406C120.84 80.7783 120.617 80.909 120.617 81.2246C120.626 81.3971 120.676 81.5651 120.763 81.7148C120.85 81.8645 120.972 81.9916 121.118 82.0856ZM122.58 82.9241C122.862 83.0819 123.085 82.9511 123.085 82.6356C123.077 82.4631 123.027 82.295 122.94 82.1453C122.852 81.9957 122.731 81.8686 122.584 81.7746C122.306 81.6168 122.079 81.743 122.079 82.0631C122.089 82.2352 122.14 82.4025 122.227 82.552C122.314 82.7014 122.435 82.8288 122.58 82.9241ZM119.652 81.2471C119.929 81.4094 120.157 81.2787 120.157 80.9631C120.148 80.7907 120.098 80.6228 120.011 80.4731C119.924 80.3235 119.802 80.1964 119.656 80.1021C119.378 79.9443 119.151 80.0705 119.151 80.3861C119.16 80.5585 119.21 80.7264 119.297 80.8761C119.384 81.0257 119.506 81.1528 119.652 81.2471Z" fill="white"/>
</g>
<path opacity="0.1" d="M177.808 157.393C177.819 157.525 177.798 157.657 177.745 157.779C177.693 157.901 177.611 158.008 177.508 158.092L178.906 157.217L178.947 157.19C179.05 157.105 179.132 156.997 179.184 156.875C179.237 156.752 179.258 156.619 179.247 156.487L179.366 114.607L177.927 115.509L177.808 157.393Z" fill="black"/>
<path opacity="0.5" d="M178.223 110.901L120.605 77.9655C120.474 77.8675 120.314 77.8145 120.15 77.8145C119.985 77.8145 119.825 77.8675 119.694 77.9655L118.328 78.813C118.459 78.7565 118.603 78.7346 118.745 78.7497C118.887 78.7647 119.023 78.816 119.139 78.8986L176.761 111.83C177.095 112.045 177.373 112.336 177.572 112.679C177.77 113.021 177.884 113.405 177.904 113.8V115.54L179.343 114.638V112.894C179.33 112.497 179.222 112.109 179.027 111.763C178.832 111.416 178.557 111.121 178.223 110.901Z" fill="white"/>
<path d="M131.267 106.764L131.222 122.118L127.565 120.026L127.547 126.125L131.203 128.217L127.547 126.125L127.606 104.672L131.267 106.764Z" fill="#C51F2C"/>
<path d="M136.774 102.976L136.715 123.285L133.054 121.193L133.031 129.263L136.692 131.354L133.031 129.263L133.113 100.885L136.774 102.976Z" fill="#C51F2C"/>
<path d="M142.248 111.74L142.203 128.023L138.542 125.931L138.523 132.396L142.185 134.488L138.523 132.396L138.587 109.648L142.248 111.74Z" fill="#C51F2C"/>
<path d="M147.731 117.861L147.69 132.007L144.029 129.916L144.016 135.533L147.672 137.624L144.016 135.533L144.07 115.77L147.731 117.861Z" fill="#C51F2C"/>
<path d="M125.766 107.555L125.73 120.096L122.068 118.004L122.055 122.986L125.716 125.077L122.055 122.986L122.105 105.463L125.766 107.555Z" fill="#C51F2C"/>
<path d="M153.193 127.863L153.166 137.095L149.509 135.003L149.5 138.668L153.157 140.76L149.5 138.668L149.536 125.775L153.193 127.863Z" fill="#C51F2C"/>
<path d="M158.687 128.658L158.655 139.567L154.993 137.476L154.984 141.808L158.641 143.9L154.984 141.808L155.025 126.566L158.687 128.658Z" fill="#C51F2C"/>
<path d="M164.197 126.309L164.151 141.144L160.495 139.053L160.477 144.945L164.138 147.036L160.477 144.945L160.536 124.217L164.197 126.309Z" fill="#C51F2C"/>
<path d="M169.695 124.618L169.64 142.907L165.984 140.816L165.961 148.083L169.622 150.17L165.961 148.083L166.038 122.531L169.695 124.618Z" fill="#C51F2C"/>
<path d="M175.161 134.316L175.12 147.912L171.464 145.82L171.445 151.216L175.106 153.308L171.445 151.216L171.5 132.229L175.161 134.316Z" fill="#C51F2C"/>
<path d="M142.203 128.023L142.185 134.488L138.523 132.396L138.542 125.932L142.203 128.023Z" fill="#C51F2C"/>
<path d="M147.69 132.008L147.672 137.625L144.016 135.533L144.029 129.916L147.69 132.008Z" fill="#C51F2C"/>
<path d="M125.73 120.098L125.716 125.079L122.055 122.987L122.068 118.006L125.73 120.098Z" fill="#C51F2C"/>
<path d="M153.166 137.098L153.157 140.763L149.5 138.671L149.509 135.006L153.166 137.098Z" fill="#C51F2C"/>
<path d="M164.151 141.146L164.138 147.038L160.477 144.947L160.495 139.055L164.151 141.146Z" fill="#C51F2C"/>
<path d="M169.64 142.908L169.622 150.171L165.961 148.083L165.984 140.816L169.64 142.908Z" fill="#C51F2C"/>
<path d="M131.222 122.117L131.203 128.216L127.547 126.125L127.565 120.025L131.222 122.117Z" fill="#C51F2C"/>
<path d="M136.715 123.283L136.692 131.352L133.031 129.261L133.054 121.191L136.715 123.283Z" fill="#C51F2C"/>
<path d="M158.655 139.566L158.641 143.899L154.984 141.807L154.993 137.475L158.655 139.566Z" fill="#C51F2C"/>
<path d="M175.12 147.91L175.106 153.306L171.445 151.214L171.464 145.818L175.12 147.91Z" fill="#C51F2C"/>
<g opacity="0.2">
<path d="M142.203 128.025L142.185 134.49L138.523 132.398L138.542 125.934L142.203 128.025Z" fill="black"/>
</g>
<path opacity="0.2" d="M147.69 132.008L147.672 137.625L144.016 135.533L144.029 129.916L147.69 132.008Z" fill="black"/>
<path opacity="0.2" d="M125.73 120.098L125.716 125.079L122.055 122.987L122.068 118.006L125.73 120.098Z" fill="black"/>
<path opacity="0.2" d="M153.166 137.098L153.157 140.763L149.5 138.671L149.509 135.006L153.166 137.098Z" fill="black"/>
<path opacity="0.2" d="M164.151 141.146L164.138 147.038L160.477 144.947L160.495 139.055L164.151 141.146Z" fill="black"/>
<path opacity="0.2" d="M169.64 142.908L169.622 150.171L165.961 148.083L165.984 140.816L169.64 142.908Z" fill="black"/>
<path opacity="0.2" d="M131.222 122.117L131.203 128.216L127.547 126.125L127.565 120.025L131.222 122.117Z" fill="black"/>
<path opacity="0.2" d="M136.715 123.283L136.692 131.352L133.031 129.261L133.054 121.191L136.715 123.283Z" fill="black"/>
<path opacity="0.2" d="M158.655 139.566L158.641 143.899L154.984 141.807L154.993 137.475L158.655 139.566Z" fill="black"/>
<path opacity="0.2" d="M175.12 147.91L175.106 153.306L171.445 151.214L171.464 145.818L175.12 147.91Z" fill="black"/>
<path d="M136.783 98.8847L136.774 101.878L133.117 99.7863L133.126 96.793L136.783 98.8847Z" fill="#C51F2C"/>
<path d="M125.775 105.033L125.771 106.462L122.109 104.37L122.114 102.941L125.775 105.033Z" fill="#C51F2C"/>
<path d="M153.196 126.006V126.768L149.539 124.676V123.914L153.196 126.006Z" fill="#C51F2C"/>
<path d="M147.731 115.01L147.727 116.763L144.07 114.672L144.075 112.918L147.731 115.01Z" fill="#C51F2C"/>
<path d="M142.252 108.459L142.247 110.645L138.586 108.554L138.59 106.367L142.252 108.459Z" fill="#C51F2C"/>
<path d="M131.275 103.666L131.266 105.663L127.609 103.571L127.614 101.574L131.275 103.666Z" fill="#C51F2C"/>
<path d="M164.205 123.32L164.196 125.214L160.539 123.122L160.544 121.229L164.205 123.32Z" fill="#C51F2C"/>
<path d="M175.174 131.58L175.169 133.221L171.508 131.129L171.512 129.488L175.174 131.58Z" fill="#C51F2C"/>
<path d="M158.692 126.457V127.557L155.031 125.465L155.036 124.365L158.692 126.457Z" fill="#C51F2C"/>
<path d="M169.705 120.937L169.696 123.525L166.039 121.438L166.048 118.846L169.705 120.937Z" fill="#C51F2C"/>
<g opacity="0.5">
<path d="M136.783 98.8847L136.774 101.878L133.117 99.7863L133.126 96.793L136.783 98.8847Z" fill="white"/>
<path d="M125.775 105.033L125.771 106.462L122.109 104.37L122.114 102.941L125.775 105.033Z" fill="white"/>
<path d="M153.196 126.01V126.772L149.539 124.68V123.918L153.196 126.01Z" fill="white"/>
<path d="M147.731 115.01L147.727 116.763L144.07 114.672L144.075 112.918L147.731 115.01Z" fill="white"/>
<path d="M142.252 108.459L142.247 110.645L138.586 108.554L138.59 106.367L142.252 108.459Z" fill="white"/>
<path d="M131.275 103.666L131.266 105.663L127.609 103.571L127.614 101.574L131.275 103.666Z" fill="white"/>
<path d="M164.205 123.322L164.196 125.216L160.539 123.124L160.544 121.23L164.205 123.322Z" fill="white"/>
<path d="M175.174 131.58L175.169 133.221L171.508 131.129L171.512 129.488L175.174 131.58Z" fill="white"/>
<path d="M158.692 126.457V127.557L155.031 125.465L155.036 124.365L158.692 126.457Z" fill="white"/>
<path d="M169.705 120.937L169.696 123.525L166.039 121.438L166.048 118.846L169.705 120.937Z" fill="white"/>
</g>
<path d="M140.678 120.776L140.887 120.902C144.303 122.985 146.862 127.687 148.711 131.554L149.029 132.217C150.851 136.04 152.741 139.989 155.55 142.536C157.506 144.331 160.048 145.373 162.713 145.471C163.66 145.516 164.594 145.471 165.495 145.426C166.844 145.319 168.199 145.34 169.544 145.489C171.008 145.701 172.418 146.189 173.697 146.927C175.014 147.686 176.186 148.671 177.157 149.834C177.948 150.811 178.675 151.836 179.334 152.904C179.758 153.562 180.199 154.257 180.655 154.874C181.186 155.616 181.797 156.299 182.476 156.912C182.505 156.84 182.548 156.774 182.602 156.718C182.657 156.662 182.722 156.618 182.794 156.587C182.866 156.557 182.943 156.54 183.022 156.54C183.1 156.539 183.178 156.554 183.25 156.583C183.342 156.613 183.431 156.652 183.514 156.7C183.791 156.879 184.028 157.111 184.212 157.382C184.397 157.653 184.525 157.957 184.589 158.278C184.73 159.04 184.366 159.513 183.769 159.337C183.676 159.312 183.588 159.274 183.505 159.225C183.228 159.046 182.99 158.814 182.805 158.542C182.62 158.27 182.493 157.964 182.431 157.642C181.653 156.904 180.946 156.097 180.318 155.23C179.862 154.568 179.407 153.878 178.952 153.197C178.327 152.177 177.637 151.199 176.884 150.267C175.988 149.199 174.909 148.296 173.697 147.598C172.48 146.902 171.14 146.443 169.749 146.246C168.428 146.102 167.097 146.081 165.773 146.183C164.862 146.228 163.92 146.273 162.959 146.228C161.064 146.156 159.215 145.628 157.572 144.691C156.784 144.241 156.049 143.706 155.382 143.095C152.385 140.39 150.436 136.301 148.551 132.361L148.237 131.699C146.466 127.998 144.025 123.499 140.86 121.569L140.664 121.452C138.934 120.465 137.13 120.311 135.013 120.974C134.558 121.123 134.07 121.299 133.615 121.465C132.35 122.03 130.986 122.345 129.599 122.394C128.386 122.346 127.205 121.995 126.165 121.375C125.778 121.155 125.409 120.906 125.059 120.632C124.937 120.757 124.772 120.833 124.597 120.844C124.421 120.854 124.248 120.8 124.111 120.69C123.906 120.557 123.725 120.389 123.579 120.194C123.05 119.545 122.864 118.666 123.173 118.233C123.378 117.945 123.756 117.931 124.139 118.152C124.351 118.276 124.538 118.438 124.69 118.63C125.029 119.035 125.224 119.538 125.245 120.064C125.546 120.296 125.862 120.507 126.193 120.695C127.157 121.27 128.255 121.59 129.38 121.623C130.805 121.623 132.062 121.172 133.278 120.722C133.733 120.55 134.216 120.375 134.694 120.221C135.672 119.874 136.714 119.743 137.748 119.839C138.782 119.935 139.783 120.255 140.678 120.776Z" fill="#C51F2C"/>
<g opacity="0.7">
<path d="M140.678 120.776L140.887 120.902C144.303 122.985 146.862 127.687 148.711 131.554L149.029 132.217C150.851 136.04 152.741 139.989 155.55 142.536C157.506 144.331 160.048 145.373 162.713 145.471C163.66 145.516 164.594 145.471 165.495 145.426C166.844 145.319 168.199 145.34 169.544 145.489C171.008 145.701 172.418 146.189 173.697 146.927C175.014 147.686 176.186 148.671 177.157 149.834C177.948 150.811 178.675 151.836 179.334 152.904C179.758 153.562 180.199 154.257 180.655 154.874C181.186 155.616 181.797 156.299 182.476 156.912C182.505 156.84 182.548 156.774 182.602 156.718C182.657 156.662 182.722 156.618 182.794 156.587C182.866 156.557 182.943 156.54 183.022 156.54C183.1 156.539 183.178 156.554 183.25 156.583C183.342 156.613 183.431 156.652 183.514 156.7C183.791 156.879 184.028 157.111 184.212 157.382C184.397 157.653 184.525 157.957 184.589 158.278C184.73 159.04 184.366 159.513 183.769 159.337C183.676 159.312 183.588 159.274 183.505 159.225C183.228 159.046 182.99 158.814 182.805 158.542C182.62 158.27 182.493 157.964 182.431 157.642C181.653 156.904 180.946 156.097 180.318 155.23C179.862 154.568 179.407 153.878 178.952 153.197C178.327 152.177 177.637 151.199 176.884 150.267C175.988 149.199 174.909 148.296 173.697 147.598C172.48 146.902 171.14 146.443 169.749 146.246C168.428 146.102 167.097 146.081 165.773 146.183C164.862 146.228 163.92 146.273 162.959 146.228C161.064 146.156 159.215 145.628 157.572 144.691C156.784 144.241 156.049 143.706 155.382 143.095C152.385 140.39 150.436 136.301 148.551 132.361L148.237 131.699C146.466 127.998 144.025 123.499 140.86 121.569L140.664 121.452C138.934 120.465 137.13 120.311 135.013 120.974C134.558 121.123 134.07 121.299 133.615 121.465C132.35 122.03 130.986 122.345 129.599 122.394C128.386 122.346 127.205 121.995 126.165 121.375C125.778 121.155 125.409 120.906 125.059 120.632C124.937 120.757 124.772 120.833 124.597 120.844C124.421 120.854 124.248 120.8 124.111 120.69C123.906 120.557 123.725 120.389 123.579 120.194C123.05 119.545 122.864 118.666 123.173 118.233C123.378 117.945 123.756 117.931 124.139 118.152C124.351 118.276 124.538 118.438 124.69 118.63C125.029 119.035 125.224 119.538 125.245 120.064C125.546 120.296 125.862 120.507 126.193 120.695C127.157 121.27 128.255 121.59 129.38 121.623C130.805 121.623 132.062 121.172 133.278 120.722C133.733 120.55 134.216 120.375 134.694 120.221C135.672 119.874 136.714 119.743 137.748 119.839C138.782 119.935 139.783 120.255 140.678 120.776Z" fill="white"/>
</g>
<path d="M53.356 65.1543L53.2422 105.276C53.2626 105.67 53.3773 106.053 53.5768 106.395C53.7763 106.737 54.0549 107.027 54.3897 107.241L111.388 139.816V141.11L112.782 140.235L112.818 140.208C112.923 140.125 113.005 140.017 113.058 139.894C113.11 139.771 113.131 139.638 113.119 139.505L113.242 97.6525L111.803 98.5541L53.356 65.1543Z" fill="#F5F5F5"/>
<path d="M112.108 93.9557L54.5268 61.0472C54.3951 60.9506 54.2355 60.8984 54.0715 60.8984C53.9075 60.8984 53.7479 60.9506 53.6161 61.0472L52.25 61.8947L53.3429 62.5123V65.154L111.812 98.5583L113.251 97.6567V95.9166C113.231 95.5237 113.116 95.1411 112.918 94.8003C112.719 94.4595 112.442 94.17 112.108 93.9557Z" fill="#C51F2C"/>
<path d="M111.809 98.5588L111.69 140.411C111.69 141.132 111.171 141.421 110.534 141.06L52.9522 108.152C52.6185 107.936 52.3406 107.646 52.1413 107.305C51.9419 106.963 51.8266 106.58 51.8047 106.186L51.9231 64.334L111.809 98.5588Z" fill="#F5F5F5"/>
<path d="M53.4378 64.3974C53.6325 64.2853 53.6313 63.9237 53.4351 63.5897C53.2389 63.2557 52.9221 63.0757 52.7275 63.1878C52.5328 63.2998 52.534 63.6614 52.7302 63.9954C52.9264 64.3294 53.2432 64.5094 53.4378 64.3974Z" fill="#F5F5F5"/>
<path d="M55.0445 64.0132C55.1902 64.108 55.3113 64.2353 55.3983 64.3848C55.4853 64.5343 55.5357 64.7019 55.5454 64.8742C55.5454 65.1898 55.3177 65.325 55.04 65.1582C54.8944 65.0644 54.7733 64.9379 54.6862 64.7891C54.5992 64.6403 54.5488 64.4734 54.5391 64.3017C54.5391 63.9816 54.7667 63.8464 55.0445 64.0132Z" fill="#F5F5F5"/>
<path d="M56.5055 64.8511C56.6521 64.9449 56.7741 65.0719 56.8612 65.2216C56.9483 65.3714 56.9981 65.5395 57.0064 65.7122C57.0064 66.0277 56.7832 66.163 56.5055 65.9962C56.3582 65.9027 56.2356 65.7758 56.1477 65.6261C56.0598 65.4764 56.0092 65.3081 56 65.1351C56.0046 64.8196 56.2277 64.6933 56.5055 64.8511Z" fill="#F5F5F5"/>
<path d="M110.669 94.8528C111.003 95.0681 111.28 95.3584 111.478 95.7C111.677 96.0415 111.791 96.4247 111.812 96.8183V98.5584L51.9219 64.3336V62.5935C51.9219 61.8722 52.441 61.5792 53.074 61.9443L110.669 94.8528ZM55.0366 65.1586C55.3144 65.3208 55.5421 65.1901 55.5421 64.8746C55.5323 64.7023 55.4819 64.5347 55.3949 64.3851C55.308 64.2356 55.1868 64.1083 55.0412 64.0135C54.7634 63.8557 54.5357 63.982 54.5357 64.302C54.5454 64.4737 54.5959 64.6407 54.6829 64.7895C54.7699 64.9383 54.8911 65.0647 55.0366 65.1586ZM56.5029 65.997C56.7807 66.1548 57.0038 66.0286 57.0038 65.713C56.9955 65.5404 56.9457 65.3723 56.8586 65.2225C56.7715 65.0728 56.6495 64.9458 56.5029 64.852C56.2251 64.6942 56.002 64.8205 55.9974 65.136C56.0066 65.309 56.0572 65.4772 56.1451 65.627C56.233 65.7767 56.3557 65.9035 56.5029 65.997ZM53.5749 64.3246C53.8526 64.4824 54.0758 64.3561 54.0803 64.0406C54.0717 63.868 54.0217 63.7 53.9346 63.5503C53.8476 63.4006 53.7258 63.2736 53.5794 63.1795C53.3016 63.0218 53.074 63.148 53.074 63.4635C53.0823 63.6362 53.132 63.8043 53.2192 63.9541C53.3063 64.1038 53.4282 64.2308 53.5749 64.3246Z" fill="#C51F2C"/>
<path d="M99.6946 103.994C100.225 104.306 100.7 104.702 101.102 105.166C101.813 106.056 102.444 107.006 102.987 108.006C103.583 108.984 104.289 109.98 105.104 110.512C105.373 110.697 105.689 110.803 106.015 110.819L105.951 132.746L57.6094 105.121C58.2952 103.99 59.2687 103.057 60.4327 102.416C60.9604 102.195 61.5347 102.106 62.1054 102.155C62.6761 102.205 63.2259 102.392 63.7068 102.7C64.0141 102.88 64.3037 103.088 64.572 103.322C65.7969 104.381 66.8078 106.076 68.0647 106.928L68.3151 107.086C70.0273 108.064 71.3615 107.019 72.3816 105.973L76.9353 101.257C77.9097 100.252 79.1711 99.2468 80.8241 100.193L80.9516 100.266C83.4561 101.834 84.4989 106.297 86.8714 108.619C87.2066 108.955 87.5847 109.246 87.9962 109.484C88.6708 109.913 89.4765 110.092 90.2713 109.989C91.0661 109.887 91.7989 109.51 92.3404 108.925C93.5699 107.609 94.2165 105.549 95.5052 104.318C96.507 103.381 98.1236 103.097 99.6946 103.994Z" fill="#C51F2C"/>
<g opacity="0.5">
<path d="M99.6946 103.996C100.225 104.308 100.7 104.704 101.102 105.168C101.813 106.058 102.444 107.008 102.987 108.008C103.583 108.986 104.289 109.982 105.104 110.514C105.373 110.699 105.689 110.805 106.015 110.821L105.951 132.748L57.6094 105.123C58.2952 103.992 59.2687 103.059 60.4327 102.418C60.9604 102.197 61.5347 102.108 62.1054 102.157C62.6761 102.207 63.2259 102.394 63.7068 102.702C64.0141 102.882 64.3037 103.09 64.572 103.324C65.7969 104.383 66.8078 106.078 68.0647 106.93L68.3151 107.088C70.0273 108.066 71.3615 107.021 72.3816 105.975L76.9353 101.259C77.9097 100.254 79.1711 99.2487 80.8241 100.195L80.9516 100.268C83.4561 101.836 84.4989 106.299 86.8714 108.621C87.2066 108.957 87.5847 109.248 87.9962 109.486C88.6708 109.915 89.4765 110.094 90.2713 109.991C91.0661 109.889 91.7989 109.512 92.3404 108.927C93.5699 107.611 94.2165 105.551 95.5052 104.32C96.507 103.383 98.1236 103.099 99.6946 103.996Z" fill="white"/>
</g>
<path d="M68.3182 94.5003L68.3137 95.749L58.25 89.9968L58.2546 88.748L68.3182 94.5003Z" fill="#E0E0E0"/>
<path d="M58.2578 86.6406V87.8893L71.1402 95.2554V94.0067L58.2578 86.6406Z" fill="#E0E0E0"/>
<path d="M74.5757 91.027L74.5711 92.2757L58.2734 82.9577V81.709L74.5757 91.027Z" fill="#E0E0E0"/>
<path d="M82.1439 93.2428L82.1393 94.487L58.2734 80.8503L58.278 79.6016L82.1439 93.2428Z" fill="#E0E0E0"/>
<path d="M82.1517 91.1334L82.1472 92.3821L58.2812 78.7454L58.2858 77.4922L82.1517 91.1334Z" fill="#E0E0E0"/>
<path d="M71.1396 81.7517L71.135 83.6947L58.2891 76.3466L58.2936 74.4082L71.1396 81.7517Z" fill="#E0E0E0"/>
<g opacity="0.2">
<path d="M110.669 94.8508C111.003 95.0662 111.28 95.3565 111.478 95.698C111.677 96.0396 111.791 96.4228 111.812 96.8163V98.5564L51.9219 64.3316V62.5916C51.9219 61.8703 52.441 61.5772 53.074 61.9424L110.669 94.8508ZM55.0366 65.1566C55.3144 65.3189 55.5421 65.1882 55.5421 64.8726C55.5323 64.7003 55.4819 64.5327 55.3949 64.3832C55.308 64.2336 55.1868 64.1064 55.0412 64.0116C54.7634 63.8538 54.5357 63.98 54.5357 64.3001C54.5454 64.4718 54.5959 64.6387 54.6829 64.7875C54.7699 64.9363 54.8911 65.0628 55.0366 65.1566ZM56.5029 65.9951C56.7807 66.1529 57.0038 66.0266 57.0038 65.7111C56.9955 65.5385 56.9457 65.3703 56.8586 65.2206C56.7715 65.0708 56.6495 64.9438 56.5029 64.8501C56.2251 64.6923 56.002 64.8185 55.9974 65.1341C56.0066 65.307 56.0572 65.4753 56.1451 65.625C56.233 65.7747 56.3557 65.9016 56.5029 65.9951ZM53.5749 64.3226C53.8526 64.4804 54.0758 64.3542 54.0803 64.0386C54.0717 63.8661 54.0217 63.6981 53.9346 63.5484C53.8476 63.3987 53.7258 63.2716 53.5794 63.1776C53.3016 63.0198 53.074 63.146 53.074 63.4616C53.0823 63.6342 53.132 63.8024 53.2192 63.9521C53.3063 64.1019 53.4282 64.2289 53.5749 64.3226Z" fill="white"/>
</g>
<path opacity="0.1" d="M111.691 140.417C111.701 140.548 111.679 140.681 111.627 140.802C111.575 140.924 111.494 141.031 111.391 141.115L112.784 140.241L112.82 140.214C112.925 140.13 113.008 140.022 113.06 139.9C113.113 139.777 113.133 139.643 113.121 139.511L113.244 97.6582L111.805 98.5598L111.691 140.417Z" fill="black"/>
<path opacity="0.5" d="M112.108 93.9557L54.5268 61.0472C54.3951 60.9506 54.2355 60.8984 54.0715 60.8984C53.9075 60.8984 53.7479 60.9506 53.6161 61.0472L52.25 61.8947C52.3802 61.8382 52.5231 61.8163 52.6645 61.8313C52.8059 61.8464 52.9409 61.8977 53.056 61.9804L110.642 94.8888C110.975 95.1042 111.253 95.3944 111.451 95.736C111.65 96.0776 111.764 96.4607 111.785 96.8543V98.5583L113.224 97.6567V95.9166C113.206 95.5261 113.096 95.1451 112.902 94.8044C112.709 94.4638 112.437 94.173 112.108 93.9557Z" fill="white"/>
</svg>
