<svg width="239" height="235" viewBox="0 0 239 235" fill="none" xmlns="http://www.w3.org/2000/svg">
<path d="M119.624 229.506C183.78 229.506 235.788 199.086 235.788 161.562C235.788 124.038 183.78 93.6191 119.624 93.6191C55.4691 93.6191 3.46094 124.038 3.46094 161.562C3.46094 199.086 55.4691 229.506 119.624 229.506Z" fill="#F5F5F5"/>
<path d="M76.4076 186.687L97.4133 174.807C97.5841 174.752 97.7327 174.645 97.838 174.503C97.9433 174.36 98 174.188 98 174.012C98 173.836 97.9433 173.664 97.838 173.521C97.7327 173.378 97.5841 173.272 97.4133 173.216L76.4076 161.326C75.9707 161.112 75.4887 161 75 161C74.5112 161 74.0293 161.112 73.5924 161.326L52.5866 173.174C52.4159 173.229 52.2673 173.336 52.162 173.479C52.0567 173.622 52 173.793 52 173.969C52 174.146 52.0567 174.317 52.162 174.46C52.2673 174.603 52.4159 174.71 52.5866 174.765L73.5924 186.644C74.0243 186.87 74.5051 186.992 74.9947 187C75.4844 187.007 75.9688 186.9 76.4076 186.687Z" fill="#E0E0E0"/>
<path d="M185.413 206.666L206.413 194.795C206.584 194.74 206.733 194.633 206.838 194.49C206.943 194.348 207 194.176 207 194C207 193.824 206.943 193.652 206.838 193.51C206.733 193.367 206.584 193.26 206.413 193.205L185.413 181.334C184.976 181.114 184.491 181 184 181C183.509 181 183.025 181.114 182.587 181.334L161.587 193.205C161.416 193.26 161.267 193.367 161.162 193.51C161.057 193.652 161 193.824 161 194C161 194.176 161.057 194.348 161.162 194.49C161.267 194.633 161.416 194.74 161.587 194.795L182.587 206.666C183.025 206.886 183.509 207 184 207C184.491 207 184.976 206.886 185.413 206.666Z" fill="#E0E0E0"/>
<path d="M146.019 173.76L176.461 156.633C176.617 156.588 176.753 156.495 176.85 156.369C176.948 156.242 177 156.089 177 155.931C177 155.773 176.948 155.62 176.85 155.493C176.753 155.367 176.617 155.274 176.461 155.229L103.529 114.344C103.14 114.149 102.709 114.047 102.272 114.047C101.834 114.047 101.403 114.149 101.015 114.344L70.509 131.43C70.3598 131.483 70.2309 131.58 70.1399 131.706C70.0488 131.832 70 131.983 70 132.137C70 132.291 70.0488 132.442 70.1399 132.568C70.2309 132.695 70.3598 132.791 70.509 132.844L143.515 173.76C143.903 173.949 144.332 174.047 144.767 174.047C145.201 174.047 145.63 173.949 146.019 173.76Z" fill="#E0E0E0"/>
<path d="M107.984 120.076L111.414 122.028C111.607 122.124 111.821 122.174 112.037 122.174C112.254 122.174 112.468 122.124 112.661 122.028L113.753 121.404C113.925 121.299 114.063 121.146 114.148 120.964C114.233 120.782 114.261 120.58 114.231 120.382L102.797 67.306C102.674 66.8825 102.396 66.5186 102.017 66.2839L98.5867 64.3317C98.3933 64.2356 98.1797 64.1855 97.963 64.1855C97.7463 64.1855 97.5327 64.2356 97.3393 64.3317L96.2479 64.9552C96.0752 65.0609 95.9379 65.2141 95.8529 65.3957C95.7679 65.5774 95.739 65.7796 95.7697 65.9773L107.204 119.054C107.327 119.477 107.605 119.841 107.984 120.076Z" fill="#455A64"/>
<path d="M107.978 120.075L111.409 122.028C111.752 122.222 111.959 122.028 111.887 121.69L100.452 68.6139C100.329 68.1905 100.052 67.8266 99.6729 67.5919L96.2426 65.6397C95.8996 65.4455 95.6917 65.6397 95.7645 65.977L107.199 119.053C107.322 119.477 107.599 119.841 107.978 120.075Z" fill="#263238"/>
<path d="M109.812 116.612L108.794 111.879L106.455 110.551L84.7921 122.857L83.7734 128.744L86.1122 130.072L109.812 116.612Z" fill="#37474F"/>
<path d="M86.1094 130.074L109.809 116.613L108.791 111.881L87.1177 124.176L86.1094 130.074Z" fill="#455A64"/>
<path d="M82.2449 134.69L85.6751 136.632C85.8685 136.728 86.0821 136.778 86.2988 136.778C86.5155 136.778 86.7291 136.728 86.9225 136.632L88.0139 136.019C88.3812 135.778 88.6472 135.415 88.7624 134.996L100.197 68.6536C100.216 68.4536 100.179 68.252 100.089 68.0715C99.9994 67.891 99.8602 67.7387 99.6872 67.6315L96.2569 65.6794C96.0636 65.5833 95.85 65.5332 95.6333 65.5332C95.4166 65.5332 95.203 65.5833 95.0096 65.6794L93.9181 66.3028C93.547 66.5369 93.2824 66.9032 93.1801 67.3249L81.7459 133.668C81.7296 133.866 81.7671 134.066 81.8548 134.245C81.9425 134.425 82.0771 134.578 82.2449 134.69Z" fill="#37474F"/>
<path d="M100.219 68.6243L99.7828 71.1284L88.7644 134.957C88.6566 135.379 88.3888 135.745 88.016 135.979L86.9246 136.603C86.7312 136.699 86.5175 136.749 86.3009 136.749C86.0842 136.749 85.8705 136.699 85.6772 136.603L82.2469 134.661C82.0772 134.55 81.9405 134.397 81.851 134.218C81.7615 134.038 81.7223 133.838 81.7376 133.638L93.1718 67.5205V67.2956C93.2825 66.8749 93.5495 66.5102 93.9202 66.2736L95.0116 65.6501C95.205 65.554 95.4187 65.5039 95.6353 65.5039C95.852 65.5039 96.0656 65.554 96.259 65.6501L99.6997 67.592C99.8714 67.7036 100.01 67.8579 100.101 68.0392C100.193 68.2206 100.233 68.4224 100.219 68.6243Z" fill="#37474F"/>
<path d="M93.203 67.2959L81.7689 133.639C81.7536 133.838 81.7927 134.038 81.8823 134.218C81.9718 134.398 82.1085 134.55 82.2782 134.661L85.7084 136.603C85.7758 136.65 85.8547 136.679 85.937 136.686C86.0194 136.694 86.1023 136.68 86.1774 136.646C86.2524 136.611 86.3168 136.558 86.3641 136.491C86.4114 136.424 86.4398 136.347 86.4465 136.266L97.8807 69.9227C97.8982 69.7229 97.86 69.5222 97.7703 69.3421C97.6805 69.162 97.5426 69.0094 97.3713 68.9006L93.9411 66.9484C93.873 66.9008 93.7932 66.872 93.71 66.865C93.6268 66.8579 93.5432 66.8729 93.4679 66.9084C93.3926 66.9439 93.3283 66.9985 93.2817 67.0667C93.2352 67.1348 93.208 67.2139 93.203 67.2959Z" fill="#455A64"/>
<path opacity="0.15" d="M103.379 69.8503L101.602 70.8724C101.048 71.153 100.413 71.2361 99.8037 71.1075C99.5598 71.0679 99.3244 70.9885 99.1072 70.8724L93.1719 67.4996V67.2747C93.2826 66.854 93.5496 66.4893 93.9203 66.2527L95.0117 65.6292C95.2051 65.5331 95.4187 65.483 95.6354 65.483C95.8521 65.483 96.0657 65.5331 96.2591 65.6292C96.1759 65.251 95.916 65.1181 96.2591 64.9239L97.3505 64.3005C97.5439 64.2044 97.7576 64.1543 97.9742 64.1543C98.1909 64.1543 98.4045 64.2044 98.5979 64.3005L102.039 66.2527C102.412 66.4913 102.685 66.8542 102.808 67.2747L103.379 69.8503Z" fill="black"/>
<path d="M105.458 65.762C105.447 65.6086 105.394 65.4609 105.304 65.3349C105.214 65.2089 105.092 65.1092 104.949 65.0466L98.0777 61.1525C97.6907 60.961 97.2636 60.8613 96.8304 60.8613C96.3972 60.8613 95.97 60.961 95.583 61.1525L92.2463 63.0229C92.1054 63.0867 91.9836 63.1852 91.8926 63.3087C91.8016 63.4322 91.7444 63.5766 91.7266 63.7281V65.2612C91.7406 65.4152 91.7962 65.5626 91.8876 65.6884C91.9789 65.8141 92.1028 65.9136 92.2463 65.9767L99.1068 69.8708C99.4938 70.0622 99.921 70.1619 100.354 70.1619C100.787 70.1619 101.215 70.0622 101.602 69.8708L104.969 67.9595C105.109 67.8976 105.229 67.8009 105.319 67.6789C105.408 67.557 105.463 67.414 105.479 67.2645C105.468 67.009 105.458 65.9869 105.458 65.762Z" fill="#37474F"/>
<path d="M105.453 65.7617C105.442 65.6082 105.389 65.4606 105.299 65.3345C105.209 65.2085 105.086 65.1088 104.943 65.0462L100.328 62.4297V70.1975C100.775 70.1929 101.212 70.0731 101.596 69.85L104.964 67.9387C105.104 67.8768 105.224 67.7801 105.313 67.6581C105.403 67.5361 105.458 67.3932 105.474 67.2437C105.463 67.0086 105.453 65.9865 105.453 65.7617Z" fill="#263238"/>
<path d="M99.0843 68.339L92.2238 64.4449C92.0758 64.3917 91.9479 64.295 91.8575 64.1679C91.7672 64.0409 91.7188 63.8896 91.7188 63.7346C91.7188 63.5796 91.7672 63.4283 91.8575 63.3012C91.9479 63.1742 92.0758 63.0775 92.2238 63.0242L95.5813 61.1232C95.9683 60.9317 96.3955 60.832 96.8287 60.832C97.2619 60.832 97.689 60.9317 98.076 61.1232L104.947 65.0173C105.095 65.0705 105.223 65.1672 105.313 65.2943C105.404 65.4213 105.452 65.5726 105.452 65.7276C105.452 65.8826 105.404 66.0339 105.313 66.161C105.223 66.288 105.095 66.3847 104.947 66.438L101.6 68.339C101.212 68.5387 100.78 68.643 100.342 68.643C99.904 68.643 99.4725 68.5387 99.0843 68.339Z" fill="#455A64"/>
<path d="M94.7773 57.5265L97.0954 56.1773C97.5085 56.0142 97.9584 55.9624 98.3987 56.027C98.839 56.0917 99.2538 56.2706 99.6005 56.5453C100.61 57.2648 101.433 58.2077 102.004 59.2979C102.575 60.388 102.876 61.5948 102.885 62.8208C102.907 63.2586 102.812 63.6944 102.607 64.084C102.403 64.4735 102.097 64.8029 101.721 65.0387L99.403 66.3776C98.9881 66.5405 98.5366 66.5923 98.0947 66.5277C97.6528 66.463 97.2362 66.2843 96.8875 66.0097C95.8788 65.2923 95.0566 64.351 94.4876 63.2624C93.9187 62.1737 93.619 60.9683 93.6131 59.7443C93.5887 59.3062 93.6837 58.8696 93.8884 58.4797C94.0931 58.0898 94.4 57.7607 94.7773 57.5265Z" fill="#455A64"/>
<path d="M99.5156 66.3558L101.792 65.0475C102.165 64.809 102.467 64.4788 102.669 64.0897C102.872 63.7006 102.967 63.2662 102.946 62.8296C102.96 61.7419 102.722 60.6653 102.249 59.6816L99.9314 61.0206C100.408 62.0026 100.643 63.0809 100.617 64.1686C100.641 64.5956 100.552 65.0213 100.359 65.4045C100.166 65.7876 99.8752 66.1153 99.5156 66.3558Z" fill="#263238"/>
<path d="M96.8994 66.0167C95.8907 65.2994 95.0684 64.3581 94.4995 63.2694C93.9305 62.1808 93.6309 60.9754 93.625 59.7514C93.7393 57.5028 95.3817 56.6852 97.3047 57.881C98.3136 58.6005 99.1358 59.5437 99.7047 60.634C100.274 61.7243 100.573 62.9311 100.579 64.1565C100.475 66.3949 98.8224 67.233 96.8994 66.0167Z" fill="#37474F"/>
<path d="M98.4782 65.8653C99.6112 65.8653 99.7983 64.6593 99.8295 64.1176C99.8103 63.019 99.534 61.9396 99.022 60.9629C98.5101 59.9863 97.7762 59.1387 96.8774 58.4859C96.5152 58.2428 96.0974 58.0918 95.6612 58.0464C94.5282 57.9953 94.3411 59.2423 94.3203 59.784C94.3336 60.8825 94.6062 61.9631 95.1167 62.9404C95.6272 63.9177 96.3616 64.765 97.262 65.4156C97.6223 65.6639 98.0407 65.8186 98.4782 65.8653Z" fill="#263238"/>
<path d="M96.9118 58.4851C96.8703 58.3784 96.806 58.2817 96.7232 58.2016C96.6404 58.1215 96.5411 58.0598 96.4319 58.0208C96.3228 57.9817 96.2064 57.9661 96.0906 57.9751C95.9748 57.9841 95.8623 58.0175 95.7608 58.073C95.6592 58.1285 95.571 58.2047 95.502 58.2966C95.4331 58.3885 95.3851 58.4939 95.3611 58.6057C95.3372 58.7175 95.338 58.833 95.3634 58.9444C95.3888 59.0559 95.4384 59.1606 95.5085 59.2516C95.5278 60.3502 95.8041 61.4296 96.316 62.4063C96.828 63.3829 97.5618 64.2305 98.4606 64.8833C98.7712 65.0992 99.1259 65.2456 99.5001 65.3125C99.6886 64.94 99.7948 64.5325 99.8119 64.1167C99.7988 63.0225 99.5305 61.9457 99.0277 60.9694C98.5249 59.9931 97.8011 59.1432 96.9118 58.4851Z" fill="#C51F2C"/>
<path d="M161.805 150.594L165.235 152.536C165.429 152.632 165.642 152.682 165.859 152.682C166.076 152.682 166.289 152.632 166.483 152.536L167.574 151.923C167.747 151.817 167.884 151.664 167.969 151.482C168.054 151.301 168.083 151.099 168.052 150.901L156.618 97.8348C156.496 97.4109 156.218 97.0467 155.838 96.8128L152.408 94.8708C152.216 94.7697 152.002 94.7168 151.784 94.7168C151.567 94.7168 151.353 94.7697 151.161 94.8708L150.121 95.484C149.95 95.5911 149.815 95.7449 149.732 95.9264C149.649 96.108 149.622 96.3095 149.653 96.5061L161.088 149.572C161.197 149.985 161.451 150.347 161.805 150.594Z" fill="#455A64"/>
<path d="M161.808 150.596L165.238 152.538C165.581 152.732 165.789 152.589 165.716 152.201L154.282 99.1348C154.16 98.7109 153.882 98.3467 153.502 98.1127L150.072 96.1708C149.729 95.9664 149.521 96.1197 149.604 96.5081L161.038 149.574C161.161 149.995 161.434 150.358 161.808 150.596Z" fill="#263238"/>
<path d="M163.695 147.243L162.676 142.51L160.338 141.182L138.665 153.487L137.656 159.375L139.985 160.703L163.695 147.243Z" fill="#37474F"/>
<path d="M139.984 160.705L163.695 147.244L162.676 142.512L141.003 154.818L139.984 160.705Z" fill="#455A64"/>
<path d="M136.066 165.242L139.496 167.194C139.69 167.29 139.903 167.34 140.12 167.34C140.337 167.34 140.55 167.29 140.744 167.194L141.783 166.571C142.154 166.334 142.421 165.969 142.532 165.549L153.966 99.2059C153.986 99.0058 153.949 98.8043 153.859 98.6238C153.769 98.4433 153.63 98.291 153.457 98.1838L150.026 96.2419C149.834 96.1408 149.62 96.0879 149.403 96.0879C149.185 96.0879 148.971 96.1408 148.779 96.2419L147.739 96.8551C147.368 97.0892 147.104 97.4555 147.001 97.8772L135.567 164.22C135.549 164.419 135.585 164.619 135.673 164.799C135.761 164.979 135.897 165.132 136.066 165.242Z" fill="#37474F"/>
<path d="M154.043 99.1751L153.607 101.679L142.588 165.518C142.478 165.939 142.211 166.303 141.84 166.54L140.8 167.164C140.607 167.26 140.393 167.31 140.177 167.31C139.96 167.31 139.747 167.26 139.553 167.164L136.123 165.211C135.952 165.103 135.814 164.95 135.724 164.77C135.634 164.59 135.596 164.389 135.614 164.189L147.048 98.0713V97.8464C147.16 97.4266 147.427 97.0625 147.796 96.8244L148.836 96.2009C149.029 96.1048 149.243 96.0547 149.459 96.0547C149.676 96.0547 149.89 96.1048 150.083 96.2009L153.524 98.153C153.696 98.2614 153.835 98.4136 153.927 98.5936C154.018 98.7735 154.059 98.9745 154.043 99.1751Z" fill="#37474F"/>
<path d="M147.024 97.8465L135.59 164.189C135.573 164.389 135.611 164.59 135.7 164.77C135.79 164.95 135.928 165.103 136.099 165.211L139.53 167.164C139.598 167.214 139.679 167.245 139.763 167.253C139.848 167.262 139.933 167.248 140.011 167.212C140.088 167.176 140.153 167.12 140.2 167.051C140.247 166.981 140.274 166.9 140.278 166.816L151.712 100.473C151.73 100.273 151.692 100.073 151.602 99.8926C151.512 99.7125 151.374 99.5599 151.203 99.4511L147.773 97.5091C147.706 97.4554 147.626 97.421 147.541 97.4101C147.456 97.3991 147.369 97.4119 147.291 97.4471C147.213 97.4823 147.146 97.5385 147.099 97.6091C147.052 97.6797 147.026 97.762 147.024 97.8465Z" fill="#455A64"/>
<path opacity="0.15" d="M157.197 100.421L155.399 101.443C154.845 101.723 154.21 101.807 153.601 101.678C153.357 101.638 153.121 101.559 152.904 101.443L146.969 98.07V97.8452C147.081 97.4253 147.348 97.0612 147.717 96.8231L148.757 96.1996C148.95 96.1035 149.164 96.0534 149.38 96.0534C149.597 96.0534 149.811 96.1035 150.004 96.1996C149.921 95.8215 149.661 95.6886 150.004 95.4944L151.043 94.8811C151.236 94.7809 151.45 94.7285 151.667 94.7285C151.885 94.7285 152.099 94.7809 152.291 94.8811L155.731 96.8231C156.105 97.0611 156.379 97.4242 156.501 97.8452L157.197 100.421Z" fill="black"/>
<path d="M159.276 96.2937C159.267 96.1396 159.215 95.991 159.125 95.8646C159.035 95.7382 158.911 95.639 158.766 95.5783L151.895 91.674C151.508 91.4825 151.081 91.3828 150.648 91.3828C150.215 91.3828 149.788 91.4825 149.401 91.674L146.043 93.5852C145.904 93.6482 145.783 93.745 145.692 93.8666C145.601 93.9882 145.543 94.1305 145.523 94.2802V95.8236C145.539 95.9757 145.596 96.121 145.687 96.2448C145.778 96.3687 145.901 96.4666 146.043 96.5288L152.904 100.423C153.289 100.619 153.717 100.722 154.151 100.722C154.585 100.722 155.013 100.619 155.398 100.423L158.766 98.5218C158.906 98.4583 159.027 98.3597 159.117 98.236C159.206 98.1123 159.261 97.9677 159.276 97.8166C159.286 97.5611 159.276 96.5492 159.276 96.2937Z" fill="#37474F"/>
<path d="M159.281 96.289C159.272 96.1349 159.22 95.9863 159.13 95.8599C159.04 95.7335 158.916 95.6343 158.772 95.5736L154.156 92.957V100.715C154.591 100.727 155.022 100.625 155.404 100.418L158.772 98.5171C158.912 98.4536 159.032 98.355 159.122 98.2313C159.211 98.1076 159.266 97.9629 159.281 97.8119C159.291 97.5564 159.281 96.5445 159.281 96.289Z" fill="#263238"/>
<path d="M152.911 98.9L146.05 94.9957C145.901 94.945 145.771 94.8498 145.68 94.7234C145.588 94.597 145.539 94.4457 145.539 94.2905C145.539 94.1352 145.588 93.9839 145.68 93.8575C145.771 93.7311 145.901 93.6359 146.05 93.5852L149.408 91.674C149.795 91.4825 150.222 91.3828 150.655 91.3828C151.088 91.3828 151.515 91.4825 151.902 91.674L158.773 95.5783C158.922 95.629 159.052 95.7241 159.143 95.8505C159.235 95.9769 159.284 96.1283 159.284 96.2835C159.284 96.4387 159.235 96.5901 159.143 96.7165C159.052 96.8429 158.922 96.938 158.773 96.9887L155.405 98.9C155.018 99.0915 154.591 99.1912 154.158 99.1912C153.725 99.1912 153.298 99.0915 152.911 98.9Z" fill="#455A64"/>
<path d="M148.601 88.0719L150.919 86.733C151.334 86.5724 151.784 86.5228 152.224 86.5892C152.664 86.6556 153.078 86.8358 153.425 87.1112C154.427 87.8287 155.245 88.7674 155.812 89.852C156.379 90.9365 156.679 92.1367 156.689 93.356C156.711 93.7952 156.615 94.2324 156.41 94.6235C156.206 95.0147 155.9 95.346 155.524 95.5842L153.206 96.9231C152.79 97.0846 152.339 97.1347 151.897 97.0682C151.455 97.0018 151.039 96.8212 150.691 96.5449C149.681 95.8287 148.858 94.8877 148.289 93.7987C147.72 92.7098 147.421 91.5039 147.416 90.2796C147.397 89.8413 147.497 89.4059 147.705 89.018C147.913 88.63 148.223 88.3035 148.601 88.0719Z" fill="#455A64"/>
<path d="M153.289 96.9157L155.566 95.5973C155.935 95.3533 156.234 95.0182 156.431 94.6254C156.628 94.2326 156.716 93.796 156.688 93.3589C156.702 92.2712 156.464 91.1946 155.992 90.2109L153.674 91.5499C154.146 92.5335 154.384 93.6101 154.37 94.6978C154.397 95.1275 154.312 95.5568 154.123 95.945C153.934 96.3332 153.647 96.6673 153.289 96.9157Z" fill="#263238"/>
<path d="M150.72 96.5681C149.71 95.8519 148.887 94.9109 148.318 93.8219C147.748 92.733 147.45 91.5271 147.445 90.3028C147.56 88.0542 149.202 87.2365 151.125 88.4426C152.134 89.1599 152.956 90.1012 153.525 91.1899C154.094 92.2786 154.393 93.4839 154.399 94.7079C154.295 96.9565 152.643 97.7844 150.72 96.5681Z" fill="#37474F"/>
<path d="M152.33 96.4224C153.463 96.4735 153.65 95.2265 153.681 94.6848C153.662 93.5863 153.386 92.5069 152.874 91.5302C152.362 90.5536 151.628 89.706 150.729 89.0532C150.369 88.8033 149.951 88.6484 149.513 88.6035C148.38 88.6035 148.193 89.8095 148.172 90.341C148.188 91.4405 148.462 92.5214 148.972 93.4999C149.483 94.4783 150.215 95.328 151.114 95.9829C151.477 96.2246 151.894 96.3754 152.33 96.4224Z" fill="#263238"/>
<path d="M150.734 89.0426C150.423 88.8284 150.068 88.682 149.695 88.6133C149.505 88.9818 149.399 89.3862 149.383 89.7989C149.402 90.8975 149.678 91.9769 150.19 92.9535C150.702 93.9302 151.436 94.7777 152.335 95.4305C152.661 95.6534 153.034 95.8002 153.426 95.8598C153.616 95.4913 153.722 95.0869 153.738 94.6742C153.713 93.5713 153.429 92.4891 152.907 91.5122C152.386 90.5352 151.643 89.69 150.734 89.0426Z" fill="#C51F2C"/>
<path d="M156.493 107.78L83.9688 66.6004L85.1434 65.9258L157.678 107.105L156.493 107.78Z" fill="#C51F2C"/>
<path opacity="0.4" d="M156.493 107.78L83.9688 66.6004L85.1434 65.9258L157.678 107.105L156.493 107.78Z" fill="white"/>
<path d="M156.493 107.779L152.98 128.364L80.4453 87.1944L83.9691 66.5996L156.493 107.779Z" fill="#C51F2C"/>
<path d="M157.675 107.107L154.151 127.702L152.977 128.367L156.49 107.782L157.675 107.107Z" fill="#E0E0E0"/>
<path d="M156.939 111.4L154.995 122.786L153.82 123.461L155.764 112.075L156.939 111.4Z" fill="#C51F2C"/>
<path opacity="0.3" d="M156.939 111.4L154.995 122.786L153.82 123.461L155.764 112.075" fill="black"/>
<path d="M149.844 103.998L152.983 128.364L156.496 107.78L149.844 103.998Z" fill="#EBEBEB"/>
<path d="M87.0979 90.9659L83.9691 66.5996L80.4453 87.1944L87.0979 90.9659Z" fill="#EBEBEB"/>
<path d="M140.801 121.455L137.672 97.0781L144.875 101.166L148.004 125.543L140.801 121.455Z" fill="#EBEBEB"/>
<path d="M128.624 114.544L125.484 90.168L132.688 94.2563L135.817 118.623L128.624 114.544Z" fill="#EBEBEB"/>
<path d="M116.444 107.628L113.305 83.2617L120.508 87.3398L123.647 111.716L116.444 107.628Z" fill="#EBEBEB"/>
<path d="M104.256 100.72L101.117 76.3438L108.321 80.432L111.46 104.798L104.256 100.72Z" fill="#EBEBEB"/>
<path d="M92.0741 93.7998L88.9453 69.4336L96.1489 73.5117L99.2777 97.8881L92.0741 93.7998Z" fill="#EBEBEB"/>
<path d="M144.875 101.169L146.05 100.504L138.846 96.416L137.672 97.0804L144.875 101.169Z" fill="#FAFAFA"/>
<path d="M132.688 94.259L133.873 93.5844L126.659 89.4961L125.484 90.1707L132.688 94.259Z" fill="#FAFAFA"/>
<path d="M120.508 87.3386L121.693 86.6742L114.49 82.5859L113.305 83.2605L120.508 87.3386Z" fill="#FAFAFA"/>
<path d="M108.321 80.4308L109.506 79.7563L102.302 75.668L101.117 76.3425L108.321 80.4308Z" fill="#FAFAFA"/>
<path d="M96.1489 73.5105L97.3235 72.8461L90.1199 68.7578L88.9453 69.4324L96.1489 73.5105Z" fill="#FAFAFA"/>
<path d="M156.496 107.778L157.681 107.104L151.029 103.322L149.844 103.997L156.496 107.778Z" fill="#FAFAFA"/>
<path d="M155.767 112.072L153.823 123.458L81.2891 82.2785L83.2329 70.8926L155.767 112.072Z" fill="#C51F2C"/>
<path d="M84.4265 81.7569C84.1982 81.1609 84.1727 80.5082 84.3537 79.8967L85.6218 75.2054C85.6738 74.9908 85.8505 74.9601 86.152 75.1339L86.4534 75.3076C86.7549 75.4711 86.8692 75.6653 86.8172 75.88L85.5803 80.4793C85.5072 80.7298 85.5072 80.9954 85.5803 81.2459C85.6405 81.4679 85.7858 81.6584 85.9857 81.7774C86.0658 81.8297 86.1598 81.8576 86.2559 81.8576C86.3521 81.8576 86.4461 81.8297 86.5262 81.7774C86.7146 81.6413 86.8444 81.4407 86.89 81.2152L88.1166 76.6261C88.1789 76.4115 88.3556 76.391 88.6571 76.5546L88.9585 76.7283C89.2496 76.8918 89.3743 77.086 89.312 77.3007L88.0854 81.992C88.0419 82.2634 87.9372 82.5217 87.7789 82.7481C87.6206 82.9745 87.4128 83.1632 87.1707 83.3002C86.9217 83.3909 86.6539 83.4197 86.391 83.384C86.128 83.3483 85.8781 83.2493 85.6634 83.0958C85.1012 82.8098 84.6622 82.3346 84.4265 81.7569Z" fill="#263238"/>
<path d="M88.3637 84.2095L90.0996 77.75C90.162 77.5354 90.3387 77.5149 90.6297 77.6784L90.8376 77.7909C90.9247 77.842 91.0021 77.9078 91.0663 77.9851C91.1263 78.0803 91.1587 78.1899 91.1598 78.3019L91.6588 82.3902C91.6588 82.6048 91.6588 82.9115 91.7108 83.3203C91.7434 83.0411 91.7955 82.7645 91.8667 82.4924L92.7295 79.2729C92.7814 79.0582 92.9582 79.0276 93.2596 79.2013L93.4467 79.3035C93.7377 79.4671 93.8625 79.6613 93.8001 79.8759L92.0642 86.3354C92.0122 86.5501 91.8355 86.5705 91.5341 86.407L91.3885 86.3252C91.2956 86.2736 91.2143 86.2041 91.1495 86.1208C91.0894 86.0256 91.0571 85.916 91.0559 85.8039L90.505 81.5419C90.4881 81.2866 90.4881 81.0306 90.505 80.7753H90.453C90.4274 81.0196 90.3857 81.262 90.3283 81.501L89.4447 84.8227C89.3824 85.0374 89.2057 85.0578 88.9042 84.8841L88.7275 84.7818C88.426 84.6081 88.3117 84.4241 88.3637 84.2095Z" fill="#263238"/>
<path d="M92.9484 87.0498C92.913 86.9365 92.913 86.8155 92.9484 86.7023L94.6219 80.4472C94.6416 80.3408 94.6964 80.2438 94.7778 80.1712C94.8148 80.1524 94.8558 80.1426 94.8974 80.1426C94.939 80.1426 94.98 80.1524 95.0169 80.1712L96.4826 80.9991C96.8044 81.1771 97.0816 81.4238 97.2938 81.7209C97.5061 82.018 97.648 82.3581 97.7092 82.7162C97.8591 83.6923 97.7772 84.6893 97.4701 85.6291C97.313 86.5204 96.9021 87.3497 96.2851 88.0207C96.0442 88.2133 95.7432 88.3184 95.4327 88.3184C95.1222 88.3184 94.8212 88.2133 94.5803 88.0207L93.1147 87.1929C93.0471 87.1608 92.9896 87.1113 92.9484 87.0498ZM94.913 86.7534C94.9707 86.7915 95.0359 86.8174 95.1044 86.8293C95.1729 86.8412 95.2432 86.8389 95.3107 86.8226C95.3782 86.8062 95.4415 86.7762 95.4966 86.7343C95.5516 86.6925 95.5971 86.6398 95.6302 86.5796C95.9376 86.0853 96.1557 85.5424 96.2747 84.9749C96.4616 84.3895 96.5562 83.7795 96.5553 83.1659C96.555 83.0011 96.5143 82.8388 96.4364 82.6929C96.3586 82.547 96.2461 82.4217 96.1084 82.3278L95.6094 82.0518L94.4244 86.4672L94.913 86.7534Z" fill="#263238"/>
<path d="M97.441 89.5675C97.4051 89.4544 97.4051 89.3332 97.441 89.22L99.125 82.9649C99.1294 82.9132 99.1446 82.8629 99.1696 82.8172C99.1946 82.7714 99.229 82.7313 99.2705 82.6992C99.3065 82.6775 99.3478 82.666 99.39 82.666C99.4322 82.666 99.4736 82.6775 99.5096 82.6992L101.776 83.987C101.816 84.0084 101.85 84.0392 101.875 84.0766C101.901 84.114 101.917 84.1569 101.921 84.2017C101.943 84.3405 101.943 84.4818 101.921 84.6207L101.838 84.9273C101.808 85.0547 101.755 85.1758 101.682 85.2851C101.653 85.3102 101.616 85.3241 101.578 85.3241C101.54 85.3241 101.503 85.3102 101.474 85.2851L100.123 84.5185L99.7279 85.9801L100.934 86.6649C100.971 86.6886 101.002 86.7202 101.026 86.7573C101.049 86.7944 101.064 86.8361 101.069 86.8795C101.095 87.0179 101.095 87.1601 101.069 87.2985L100.986 87.6051C100.956 87.7325 100.903 87.8537 100.83 87.9629C100.816 87.9765 100.8 87.9873 100.782 87.9947C100.764 88.002 100.745 88.0058 100.726 88.0058C100.706 88.0058 100.687 88.002 100.669 87.9947C100.652 87.9873 100.635 87.9765 100.622 87.9629L99.4264 87.2883L98.9898 88.9236L100.352 89.6902C100.389 89.7127 100.42 89.7441 100.442 89.7817C100.464 89.8192 100.476 89.8616 100.476 89.9048C100.509 90.0392 100.509 90.1792 100.476 90.3136L100.393 90.6305C100.37 90.7583 100.321 90.8801 100.248 90.9882C100.221 91.0126 100.185 91.0262 100.149 91.0262C100.112 91.0262 100.077 91.0126 100.05 90.9882L97.7737 89.6902C97.7121 89.7004 97.649 89.6945 97.5905 89.6729C97.5321 89.6514 97.4805 89.615 97.441 89.5675Z" fill="#263238"/>
<path d="M100.859 91.3167L102.564 84.9696C102.58 84.8648 102.636 84.7699 102.72 84.7039C102.759 84.6804 102.804 84.668 102.85 84.668C102.896 84.668 102.941 84.6804 102.98 84.7039L104.269 85.4295C104.731 85.6731 105.097 86.0617 105.308 86.5334C105.509 87.1097 105.509 87.7355 105.308 88.3118C105.1 89.0954 104.705 89.5247 104.123 89.5996C104.223 89.7809 104.29 89.9781 104.321 90.1822C104.347 90.42 104.347 90.6598 104.321 90.8976L104.258 93.0951V93.228C104.206 93.4119 104.019 93.4119 103.708 93.228L103.437 93.0747C103.167 92.9214 103.032 92.7374 103.053 92.533L103.157 90.3866C103.155 90.2506 103.131 90.1159 103.084 89.988C103.029 89.8766 102.937 89.7866 102.824 89.7325L102.647 89.6303L102.034 91.9095C101.972 92.1241 101.795 92.1446 101.483 91.9708L101.223 91.8277C100.922 91.7153 100.797 91.5211 100.859 91.3167ZM103.479 88.4856C103.536 88.5156 103.602 88.5259 103.666 88.5148C103.73 88.5037 103.789 88.4718 103.832 88.4242C103.977 88.2606 104.077 88.0637 104.123 87.8518C104.178 87.6233 104.178 87.3854 104.123 87.1568C104.111 87.0804 104.081 87.0077 104.036 86.944C103.991 86.8804 103.932 86.8274 103.863 86.7889L103.458 86.5538L103.053 88.2505L103.479 88.4856Z" fill="#263238"/>
<path d="M106.34 93.8468C106.185 92.8187 106.273 91.7691 106.6 90.7805C106.76 89.8708 107.191 89.028 107.837 88.3582C108.099 88.165 108.419 88.0605 108.746 88.0605C109.074 88.0605 109.393 88.165 109.656 88.3582C109.887 88.4961 110.099 88.6608 110.29 88.8488C110.361 88.9243 110.411 89.0174 110.432 89.1181C110.454 89.2189 110.448 89.3236 110.415 89.4212C110.36 89.6457 110.261 89.8575 110.124 90.0447C109.999 90.2082 109.895 90.2388 109.802 90.1366C109.669 89.9851 109.511 89.8571 109.334 89.7585C109.201 89.6726 109.039 89.6415 108.884 89.6722C108.728 89.7028 108.591 89.7926 108.502 89.922C108.165 90.3858 107.935 90.9158 107.826 91.4756C107.639 92.0635 107.562 92.6798 107.598 93.2948C107.605 93.4903 107.661 93.6811 107.761 93.8504C107.86 94.0196 108.001 94.1623 108.17 94.2658L108.419 94.3782L108.71 94.4396H108.783C108.887 94.5009 108.939 94.6235 108.939 94.828C108.945 95.0671 108.91 95.3055 108.835 95.5332C108.818 95.6201 108.779 95.7012 108.72 95.7682C108.693 95.7963 108.658 95.8167 108.62 95.8274C108.581 95.8382 108.541 95.8389 108.502 95.8296C108.375 95.8113 108.249 95.7804 108.128 95.7376C107.971 95.6803 107.818 95.612 107.671 95.5332C107.34 95.3614 107.05 95.1221 106.82 94.8313C106.591 94.5404 106.427 94.2048 106.34 93.8468Z" fill="#263238"/>
<path d="M109.91 92.7363C110.565 90.3242 111.553 89.4963 112.894 90.2629C113.218 90.4447 113.498 90.6932 113.715 90.9913C113.932 91.2894 114.081 91.6302 114.151 91.9902C114.332 93.0146 114.257 94.0668 113.933 95.0564C113.774 95.9747 113.34 96.8254 112.686 97.4991C112.438 97.6848 112.135 97.7854 111.823 97.7854C111.511 97.7854 111.208 97.6848 110.96 97.4991C109.63 96.7224 109.287 95.1382 109.91 92.7363ZM111.813 96.2216C112.021 96.088 112.178 95.8903 112.26 95.6594C112.454 95.2279 112.607 94.7797 112.717 94.3205C112.848 93.8543 112.945 93.3795 113.008 92.8998C113.049 92.6153 113.024 92.3253 112.935 92.0515C112.865 91.8618 112.729 91.7025 112.551 91.6018C112.472 91.5606 112.385 91.5391 112.296 91.5391C112.207 91.5391 112.12 91.5606 112.041 91.6018C111.83 91.7278 111.672 91.9234 111.594 92.1537C111.4 92.5816 111.247 93.0265 111.137 93.4824C110.997 93.9495 110.903 94.4286 110.856 94.9133C110.812 95.1971 110.834 95.487 110.919 95.7616C110.994 95.9546 111.133 96.1168 111.314 96.2216C111.393 96.2664 111.482 96.29 111.574 96.29C111.665 96.29 111.754 96.2664 111.833 96.2216H111.813Z" fill="#263238"/>
<path d="M113.781 98.6349L115.517 92.1754C115.572 91.9642 115.749 91.9437 116.047 92.1141L116.245 92.2265C116.338 92.2686 116.417 92.3359 116.473 92.4207C116.533 92.5159 116.566 92.6255 116.567 92.7376L117.066 96.8259C117.099 97.1348 117.116 97.4452 117.118 97.7559C117.118 97.388 117.222 97.112 117.263 96.928L118.136 93.7085C118.188 93.4939 118.365 93.4734 118.667 93.637L118.843 93.7392C119.145 93.9129 119.269 94.1071 119.207 94.3218L117.471 100.781C117.409 100.996 117.243 101.016 116.941 100.843L116.796 100.761C116.701 100.716 116.619 100.649 116.556 100.567C116.489 100.474 116.453 100.363 116.453 100.25L115.912 95.9775C115.899 95.7256 115.899 95.4731 115.912 95.2212C115.887 95.4621 115.845 95.7011 115.787 95.9366L114.893 99.2584C114.841 99.473 114.665 99.4934 114.363 99.3299L114.186 99.2277C113.843 99.0437 113.719 98.8495 113.781 98.6349Z" fill="#263238"/>
<path d="M118.687 101.689C118.489 101.488 118.34 101.247 118.25 100.983C118.219 100.849 118.219 100.709 118.25 100.575C118.302 100.39 118.394 100.219 118.52 100.074C118.645 99.9204 118.759 99.8693 118.853 99.9204C118.924 99.9787 118.981 100.052 119.019 100.135L119.175 100.38C119.293 100.584 119.456 100.759 119.653 100.891C119.789 100.977 119.953 101.006 120.111 100.973C120.256 100.973 120.36 100.799 120.422 100.554C120.463 100.386 120.463 100.211 120.422 100.043C120.401 99.8905 120.355 99.7422 120.287 99.6036C120.211 99.4741 120.107 99.3004 119.975 99.0823C119.7 98.6515 119.499 98.1782 119.383 97.6821C119.292 97.1987 119.321 96.701 119.466 96.2307C119.506 95.9873 119.6 95.7556 119.742 95.5523C119.884 95.349 120.071 95.1793 120.287 95.0554C120.501 94.9716 120.733 94.9417 120.962 94.9685C121.191 94.9953 121.409 95.0778 121.597 95.2087C121.793 95.3227 121.972 95.4638 122.127 95.6277C122.28 95.7786 122.41 95.9508 122.512 96.1387C122.563 96.2773 122.563 96.4295 122.512 96.568C122.462 96.7505 122.381 96.9234 122.273 97.0791C122.158 97.2426 122.065 97.2937 121.971 97.2426C121.898 97.1817 121.832 97.1132 121.774 97.0382C121.65 96.8685 121.495 96.7229 121.316 96.6089C121.109 96.4862 120.953 96.4658 120.849 96.5373C120.736 96.6151 120.658 96.7321 120.63 96.8644C120.563 97.0774 120.563 97.3055 120.63 97.5186C120.725 97.7629 120.847 97.9961 120.994 98.2136L121.129 98.4486C121.382 98.8474 121.561 99.2868 121.659 99.7467C121.729 100.201 121.697 100.665 121.566 101.106C121.486 101.449 121.33 101.77 121.109 102.046C120.916 102.283 120.643 102.443 120.339 102.496C119.975 102.548 119.604 102.464 119.3 102.261C119.069 102.099 118.863 101.906 118.687 101.689Z" fill="#263238"/>
<path d="M122.391 103.58L123.846 98.1426L122.994 97.6622C122.957 97.6379 122.926 97.6062 122.902 97.5692C122.879 97.5322 122.864 97.4907 122.858 97.4476C122.832 97.3091 122.832 97.167 122.858 97.0285L122.942 96.7219C122.967 96.5931 123.02 96.4711 123.097 96.3642C123.124 96.3397 123.16 96.3262 123.196 96.3262C123.233 96.3262 123.268 96.3397 123.295 96.3642L126.216 98.0301C126.257 98.0508 126.291 98.0814 126.317 98.1189C126.342 98.1565 126.358 98.1998 126.361 98.2448C126.376 98.3865 126.358 98.5297 126.309 98.6638L126.226 98.9807C126.206 99.1079 126.152 99.2277 126.07 99.3282C126.042 99.3533 126.005 99.3672 125.966 99.3672C125.928 99.3672 125.891 99.3533 125.862 99.3282L125 98.8376L123.544 104.275C123.482 104.49 123.305 104.52 123.014 104.347L122.692 104.173C122.474 103.938 122.391 103.744 122.391 103.58Z" fill="#263238"/>
<path d="M125.171 105.102L126.876 98.7442C126.891 98.6395 126.947 98.5445 127.031 98.4785C127.094 98.4785 127.187 98.4785 127.291 98.4785L128.57 99.2042C129.033 99.4458 129.4 99.835 129.609 100.308C129.811 100.881 129.811 101.503 129.609 102.076C129.401 102.863 128.996 103.292 128.424 103.374C128.523 103.553 128.59 103.746 128.622 103.947C128.648 104.188 128.648 104.431 128.622 104.672V106.951V107.084C128.622 107.258 128.383 107.268 128.071 107.084L127.801 106.931C127.53 106.778 127.395 106.604 127.416 106.4L127.52 104.243C127.519 104.107 127.494 103.972 127.447 103.844C127.391 103.736 127.299 103.65 127.187 103.599L127 103.487L126.397 105.776C126.335 105.991 126.148 106.011 125.846 105.837L125.587 105.684C125.247 105.507 125.108 105.313 125.171 105.102ZM127.79 102.26C127.845 102.294 127.91 102.306 127.974 102.294C128.037 102.283 128.094 102.249 128.133 102.199C128.288 102.041 128.393 101.842 128.435 101.626C128.489 101.401 128.489 101.167 128.435 100.942C128.423 100.863 128.394 100.789 128.349 100.723C128.304 100.658 128.245 100.603 128.175 100.564L127.769 100.328L127.322 102.015L127.79 102.26Z" fill="#263238"/>
<path d="M129.661 107.425C129.433 106.829 129.407 106.176 129.588 105.565L130.856 100.873C130.908 100.659 131.085 100.628 131.386 100.802L131.688 100.976C131.989 101.139 132.104 101.333 132.052 101.548L130.815 106.137C130.742 106.391 130.742 106.66 130.815 106.914C130.878 107.134 131.022 107.324 131.22 107.445C131.3 107.498 131.394 107.526 131.49 107.526C131.586 107.526 131.68 107.498 131.761 107.445C131.949 107.309 132.079 107.109 132.124 106.883L133.361 102.294C133.413 102.079 133.59 102.059 133.891 102.223L134.193 102.396C134.484 102.56 134.609 102.754 134.546 102.969L133.257 107.67C133.212 107.941 133.106 108.198 132.948 108.424C132.79 108.651 132.583 108.84 132.343 108.978C132.094 109.069 131.826 109.098 131.563 109.062C131.3 109.027 131.05 108.928 130.835 108.774C130.297 108.471 129.882 107.995 129.661 107.425Z" fill="#263238"/>
<path d="M134.083 109.591C133.928 108.563 134.014 107.515 134.332 106.524C134.497 105.619 134.927 104.781 135.569 104.112C135.829 103.914 136.149 103.807 136.479 103.807C136.808 103.807 137.128 103.914 137.388 104.112C137.625 104.241 137.839 104.407 138.022 104.603C138.094 104.678 138.144 104.771 138.166 104.872C138.188 104.973 138.182 105.078 138.147 105.175C138.09 105.399 137.991 105.61 137.856 105.799C137.742 105.962 137.627 105.993 137.544 105.88C137.408 105.732 137.251 105.604 137.076 105.502C136.944 105.416 136.782 105.385 136.626 105.416C136.471 105.447 136.333 105.536 136.245 105.666C135.907 106.134 135.673 106.667 135.559 107.23C135.376 107.818 135.299 108.434 135.33 109.049C135.34 109.245 135.398 109.436 135.5 109.605C135.601 109.774 135.743 109.916 135.912 110.02C135.991 110.066 136.075 110.104 136.162 110.132L136.442 110.194H136.515C136.573 110.238 136.618 110.296 136.647 110.362C136.676 110.428 136.688 110.5 136.681 110.572C136.678 110.814 136.643 111.054 136.577 111.287C136.559 111.37 136.52 111.448 136.463 111.512C136.436 111.542 136.402 111.564 136.364 111.577C136.325 111.589 136.284 111.592 136.245 111.584C136.117 111.568 135.991 111.537 135.871 111.492C135.712 111.438 135.558 111.37 135.413 111.287C135.082 111.113 134.792 110.872 134.562 110.579C134.333 110.287 134.169 109.95 134.083 109.591Z" fill="#263238"/>
<path d="M137.832 112.298L139.298 106.85L138.445 106.37C138.406 106.348 138.374 106.316 138.35 106.279C138.326 106.242 138.313 106.199 138.31 106.155C138.295 106.013 138.313 105.87 138.362 105.736L138.445 105.429C138.466 105.299 138.52 105.176 138.601 105.071C138.614 105.058 138.629 105.048 138.646 105.04C138.663 105.033 138.681 105.029 138.7 105.029C138.718 105.029 138.737 105.033 138.754 105.04C138.771 105.048 138.786 105.058 138.799 105.071L141.72 106.727C141.759 106.75 141.792 106.781 141.817 106.818C141.842 106.855 141.859 106.898 141.865 106.942C141.875 107.084 141.857 107.226 141.813 107.361L141.73 107.678C141.705 107.804 141.652 107.922 141.574 108.025C141.56 108.039 141.544 108.05 141.526 108.057C141.509 108.064 141.489 108.068 141.47 108.068C141.451 108.068 141.432 108.064 141.414 108.057C141.396 108.05 141.38 108.039 141.366 108.025L140.503 107.535L139.017 112.982C138.955 113.187 138.778 113.217 138.476 113.044L138.165 112.87C137.905 112.696 137.78 112.512 137.832 112.298Z" fill="#263238"/>
<path d="M140.586 113.85L142.322 107.391C142.384 107.176 142.561 107.146 142.852 107.319L143.174 107.493C143.465 107.667 143.59 107.861 143.528 108.076L141.792 114.535C141.729 114.76 141.553 114.791 141.262 114.627L140.939 114.443C140.648 114.27 140.524 114.075 140.586 113.85Z" fill="#263238"/>
<path d="M143.361 111.755C144.006 109.343 145.004 108.526 146.345 109.282C146.666 109.466 146.945 109.716 147.161 110.013C147.378 110.311 147.528 110.651 147.602 111.009C147.773 112.035 147.695 113.086 147.374 114.076C147.215 114.994 146.78 115.845 146.126 116.518C145.88 116.709 145.577 116.813 145.263 116.813C144.95 116.813 144.646 116.709 144.401 116.518C143.063 115.721 142.717 114.134 143.361 111.755ZM145.263 115.251C145.464 115.109 145.619 114.914 145.71 114.689C146.081 113.802 146.329 112.871 146.448 111.919C146.487 111.638 146.466 111.353 146.386 111.081C146.314 110.886 146.174 110.723 145.991 110.621C145.915 110.58 145.829 110.558 145.742 110.558C145.654 110.558 145.569 110.58 145.492 110.621C145.285 110.754 145.126 110.947 145.035 111.173C144.842 111.601 144.689 112.046 144.577 112.502C144.444 112.97 144.35 113.449 144.297 113.933C144.256 114.22 144.281 114.514 144.37 114.791C144.442 114.983 144.582 115.143 144.765 115.241C144.843 115.276 144.929 115.291 145.014 115.283C145.1 115.276 145.182 115.247 145.253 115.2L145.263 115.251Z" fill="#263238"/>
<path d="M147.2 117.61L148.936 111.151C148.998 110.936 149.175 110.905 149.466 111.079L149.674 111.192C149.763 111.24 149.841 111.306 149.902 111.386C149.962 111.481 149.995 111.591 149.996 111.703L150.495 115.791C150.495 116.016 150.495 116.322 150.495 116.731C150.529 116.449 150.581 116.169 150.651 115.893L151.514 112.684C151.576 112.459 151.753 112.439 152.044 112.612L152.231 112.715C152.522 112.878 152.647 113.072 152.595 113.287L150.848 119.746C150.848 119.961 150.62 119.981 150.318 119.818L150.173 119.736C150.08 119.685 149.998 119.615 149.934 119.532C149.874 119.437 149.841 119.327 149.84 119.215L149.289 114.953C149.273 114.698 149.273 114.442 149.289 114.186H149.237C149.237 114.524 149.154 114.759 149.123 114.912L148.229 118.223C148.167 118.438 147.99 118.469 147.699 118.295L147.512 118.193C147.262 118.009 147.148 117.825 147.2 117.61Z" fill="#263238"/>
<path d="M55.4626 170.447L73.3727 160.226C73.7405 160.033 74.1515 159.935 74.5681 159.94C74.988 159.935 75.4024 160.033 75.7739 160.226L93.6736 170.447C93.8102 170.508 93.9281 170.604 94.0156 170.724C94.1031 170.844 94.1572 170.984 94.1725 171.131V172.388C94.1593 172.536 94.106 172.677 94.0182 172.798C93.9305 172.918 93.8115 173.013 93.6736 173.073L75.8051 183.253C75.4354 183.45 75.0197 183.549 74.5993 183.539C74.1821 183.549 73.7698 183.45 73.4039 183.253L55.4938 173.094C55.3568 173.029 55.2401 172.93 55.156 172.806C55.0718 172.682 55.0233 172.537 55.0156 172.388V171.111C55.0291 170.973 55.077 170.84 55.1549 170.724C55.2328 170.608 55.3385 170.513 55.4626 170.447Z" fill="#C51F2C"/>
<path opacity="0.1" d="M55.0156 171.13V172.387C55.0289 172.535 55.0821 172.676 55.1699 172.797C55.2577 172.917 55.3767 173.012 55.5146 173.072L73.4247 183.231C73.7906 183.429 74.2029 183.527 74.62 183.518V160.01C74.2035 160.005 73.7924 160.104 73.4247 160.296L55.5146 170.517C55.3873 170.572 55.2755 170.656 55.1886 170.763C55.1017 170.87 55.0424 170.996 55.0156 171.13Z" fill="black"/>
<path opacity="0.3" d="M74.5703 159.989V183.497C74.9907 183.506 75.4064 183.407 75.7761 183.21L93.6758 173.051C93.8137 172.991 93.9327 172.896 94.0205 172.776C94.1082 172.655 94.1615 172.514 94.1748 172.366V171.089C94.1594 170.942 94.1053 170.801 94.0178 170.681C93.9303 170.561 93.8124 170.465 93.6758 170.404L75.7761 160.183C75.3964 160.022 74.9823 159.956 74.5703 159.989Z" fill="black"/>
<path d="M75.8051 181.977L93.7048 171.817C93.8491 171.767 93.9741 171.675 94.0626 171.552C94.1511 171.429 94.1986 171.283 94.1986 171.132C94.1986 170.982 94.1511 170.835 94.0626 170.713C93.9741 170.59 93.8491 170.497 93.7048 170.448L75.8051 160.227C75.4299 160.045 75.0174 159.951 74.5993 159.951C74.1812 159.951 73.7687 160.045 73.3935 160.227L55.4938 170.448C55.3495 170.497 55.2244 170.59 55.136 170.713C55.0475 170.835 55 170.982 55 171.132C55 171.283 55.0475 171.429 55.136 171.552C55.2244 171.675 55.3495 171.767 55.4938 171.817L73.3935 181.977C73.7671 182.163 74.1802 182.261 74.5993 182.261C75.0183 182.261 75.4315 182.163 75.8051 181.977Z" fill="#C51F2C"/>
<path opacity="0.5" d="M75.8051 181.977L93.7048 171.817C93.8491 171.767 93.9741 171.675 94.0626 171.552C94.1511 171.429 94.1986 171.283 94.1986 171.132C94.1986 170.982 94.1511 170.835 94.0626 170.713C93.9741 170.59 93.8491 170.497 93.7048 170.448L75.8051 160.227C75.4299 160.045 75.0174 159.951 74.5993 159.951C74.1812 159.951 73.7687 160.045 73.3935 160.227L55.4938 170.448C55.3495 170.497 55.2244 170.59 55.136 170.713C55.0475 170.835 55 170.982 55 171.132C55 171.283 55.0475 171.429 55.136 171.552C55.2244 171.675 55.3495 171.767 55.4938 171.817L73.3935 181.977C73.7671 182.163 74.1802 182.261 74.5993 182.261C75.0183 182.261 75.4315 182.163 75.8051 181.977Z" fill="white"/>
<path opacity="0.05" d="M74.5703 159.999C74.9893 159.99 75.4038 160.085 75.7761 160.274L93.6758 170.495C93.8201 170.545 93.9452 170.638 94.0336 170.76C94.1221 170.883 94.1696 171.03 94.1696 171.18C94.1696 171.33 94.1221 171.477 94.0336 171.6C93.9452 171.722 93.8201 171.815 93.6758 171.865L75.8073 181.973C75.4376 182.17 75.0219 182.269 74.6015 182.259L74.5703 159.999Z" fill="black"/>
<path d="M63.5165 169.855L71.4373 146.449C71.6085 146.059 71.914 145.741 72.3001 145.55C72.998 145.197 73.7712 145.014 74.5557 145.014C75.3403 145.014 76.1135 145.197 76.8114 145.55C77.1975 145.741 77.5029 146.059 77.6741 146.449L85.5949 169.865C86.333 171.909 85.3039 174.096 82.5285 175.67C80.0539 176.903 77.3191 177.545 74.5454 177.545C71.7716 177.545 69.0368 176.903 66.5622 175.67C63.8076 174.086 62.7889 171.889 63.5165 169.855Z" fill="#C51F2C"/>
<path d="M69.1608 153.154L70.2834 149.822C70.1945 150.118 70.1932 150.433 70.2797 150.73C70.3662 151.027 70.537 151.294 70.772 151.498C70.9837 151.704 71.2212 151.883 71.4788 152.03C72.433 152.503 73.4868 152.75 74.5556 152.75C75.6244 152.75 76.6783 152.503 77.6325 152.03C77.8901 151.883 78.1276 151.704 78.3393 151.498C78.5743 151.294 78.7451 151.027 78.8316 150.73C78.9181 150.433 78.9168 150.118 78.8279 149.822L79.9609 153.154C80.0531 153.434 80.0786 153.73 80.0354 154.021C79.9921 154.312 79.8812 154.589 79.7114 154.83C79.386 155.299 78.9512 155.685 78.4433 155.955C78.0115 156.188 77.5548 156.373 77.0816 156.507C75.4301 156.966 73.6812 156.966 72.0297 156.507C71.5565 156.373 71.0998 156.188 70.668 155.955C70.1601 155.685 69.7253 155.299 69.3999 154.83C69.2318 154.588 69.1228 154.31 69.0813 154.02C69.0399 153.729 69.067 153.433 69.1608 153.154Z" fill="#FAFAFA"/>
<path d="M64.6226 166.564L65.7452 163.232C65.5664 163.775 65.5448 164.355 65.6828 164.909C65.85 165.542 66.1792 166.122 66.6391 166.595C67.1026 167.071 67.6351 167.478 68.2192 167.801C70.1848 168.779 72.3569 169.289 74.5599 169.289C76.7629 169.289 78.935 168.779 80.9007 167.801C81.4848 167.478 82.0172 167.071 82.4807 166.595C82.9406 166.122 83.2698 165.542 83.437 164.909C83.5776 164.359 83.5559 163.781 83.3746 163.243L84.4973 166.564C84.6834 167.104 84.7263 167.681 84.622 168.241C84.4244 168.992 84.0613 169.692 83.5583 170.291C83.0554 170.89 82.425 171.373 81.7115 171.705C79.4925 172.814 77.0386 173.392 74.5495 173.392C72.0605 173.392 69.6066 172.814 67.3876 171.705C66.6741 171.373 66.0436 170.89 65.5407 170.291C65.0378 169.692 64.6747 168.992 64.4771 168.241C64.3812 167.679 64.4313 167.102 64.6226 166.564Z" fill="#FAFAFA"/>
<path d="M66.8946 159.86L68.0276 156.528C67.8429 157.08 67.8802 157.679 68.1316 158.204C68.5006 158.919 69.0851 159.505 69.8051 159.881C71.2641 160.61 72.8774 160.99 74.5139 160.99C76.1504 160.99 77.7638 160.61 79.2227 159.881H79.2747C80.0171 159.508 80.621 158.914 81.0002 158.184C81.2516 157.659 81.2888 157.059 81.1042 156.508L82.2372 159.84C82.419 160.388 82.419 160.978 82.2372 161.526C81.9928 162.185 81.564 162.763 81.0002 163.192C80.7187 163.427 80.416 163.635 80.0959 163.816C79.1575 164.314 78.1429 164.659 77.0918 164.838C75.4223 165.144 73.7095 165.144 72.04 164.838C70.9889 164.659 69.9742 164.314 69.0359 163.816C68.7157 163.635 68.413 163.427 68.1316 163.192C67.5678 162.763 67.139 162.185 66.8946 161.526C66.7122 160.985 66.7122 160.401 66.8946 159.86Z" fill="#FAFAFA"/>
<path opacity="0.1" d="M74.5651 144.978C75.351 144.96 76.1282 145.144 76.8208 145.509C77.2068 145.7 77.5123 146.018 77.6835 146.409L85.6043 169.824C86.3423 171.868 85.3132 174.056 82.5379 175.63C80.0824 176.913 77.335 177.56 74.5547 177.51H74.6275C76.3476 177.214 77.8824 176.27 78.9054 174.879C79.9285 173.487 80.359 171.758 80.1055 170.059L76.8415 146.838L74.5651 144.978Z" fill="black"/>
<path d="M76.8409 148.062C77.1125 147.972 77.3483 147.8 77.5153 147.57C77.6823 147.341 77.7721 147.066 77.7721 146.785C77.7721 146.503 77.6823 146.228 77.5153 145.999C77.3483 145.769 77.1125 145.598 76.8409 145.507C76.1431 145.155 75.3698 144.971 74.5853 144.971C73.8007 144.971 73.0275 145.155 72.3296 145.507C72.0581 145.598 71.8223 145.769 71.6553 145.999C71.4882 146.228 71.3984 146.503 71.3984 146.785C71.3984 147.066 71.4882 147.341 71.6553 147.57C71.8223 147.8 72.0581 147.972 72.3296 148.062C73.0275 148.415 73.8007 148.598 74.5853 148.598C75.3698 148.598 76.1431 148.415 76.8409 148.062Z" fill="#C51F2C"/>
<path opacity="0.5" d="M76.8409 148.062C77.1125 147.972 77.3483 147.8 77.5153 147.57C77.6823 147.341 77.7721 147.066 77.7721 146.785C77.7721 146.503 77.6823 146.228 77.5153 145.999C77.3483 145.769 77.1125 145.598 76.8409 145.507C76.1431 145.155 75.3698 144.971 74.5853 144.971C73.8007 144.971 73.0275 145.155 72.3296 145.507C72.0581 145.598 71.8223 145.769 71.6553 145.999C71.4882 146.228 71.3984 146.503 71.3984 146.785C71.3984 147.066 71.4882 147.341 71.6553 147.57C71.8223 147.8 72.0581 147.972 72.3296 148.062C73.0275 148.415 73.8007 148.598 74.5853 148.598C75.3698 148.598 76.1431 148.415 76.8409 148.062Z" fill="white"/>
<path d="M164.285 191.142L182.196 180.921C182.568 180.732 182.982 180.637 183.401 180.645C183.82 180.639 184.234 180.734 184.607 180.921L202.507 191.142C202.643 191.203 202.76 191.299 202.846 191.419C202.931 191.539 202.983 191.68 202.995 191.827V193.114C202.983 193.26 202.932 193.399 202.846 193.518C202.76 193.637 202.643 193.73 202.507 193.789L184.607 203.959C184.234 204.146 183.82 204.24 183.401 204.235C182.982 204.243 182.568 204.148 182.196 203.959L164.285 193.789C164.15 193.73 164.033 193.637 163.947 193.518C163.86 193.399 163.809 193.26 163.797 193.114V191.806C163.813 191.663 163.866 191.527 163.952 191.41C164.037 191.294 164.152 191.201 164.285 191.142Z" fill="#C51F2C"/>
<path opacity="0.1" d="M163.797 191.807V193.095C163.809 193.24 163.86 193.38 163.947 193.499C164.033 193.617 164.15 193.711 164.285 193.77L182.196 203.939C182.568 204.129 182.982 204.223 183.401 204.215V180.708C182.982 180.699 182.568 180.794 182.196 180.983L164.285 191.204C164.16 191.258 164.051 191.341 163.965 191.446C163.88 191.551 163.822 191.675 163.797 191.807Z" fill="black"/>
<path opacity="0.3" d="M183.398 180.697V204.205C183.817 204.211 184.231 204.116 184.604 203.929L202.504 193.76C202.64 193.701 202.757 193.607 202.843 193.489C202.929 193.37 202.981 193.23 202.992 193.085V191.807C202.98 191.661 202.928 191.52 202.843 191.4C202.757 191.279 202.64 191.184 202.504 191.123L184.604 180.902C184.225 180.74 183.811 180.669 183.398 180.697Z" fill="black"/>
<path d="M184.594 202.674L202.504 192.514C202.649 192.464 202.774 192.372 202.862 192.249C202.951 192.126 202.998 191.98 202.998 191.829C202.998 191.679 202.951 191.532 202.862 191.41C202.774 191.287 202.649 191.194 202.504 191.145L184.594 180.985C184.222 180.798 183.811 180.701 183.394 180.701C182.976 180.701 182.565 180.798 182.193 180.985L164.283 191.145C164.139 191.194 164.013 191.287 163.925 191.41C163.837 191.532 163.789 191.679 163.789 191.829C163.789 191.98 163.837 192.126 163.925 192.249C164.013 192.372 164.139 192.464 164.283 192.514L182.193 202.674C182.565 202.86 182.976 202.957 183.394 202.957C183.811 202.957 184.222 202.86 184.594 202.674Z" fill="#C51F2C"/>
<path opacity="0.5" d="M184.594 202.674L202.504 192.514C202.649 192.464 202.774 192.372 202.862 192.249C202.951 192.126 202.998 191.98 202.998 191.829C202.998 191.679 202.951 191.532 202.862 191.41C202.774 191.287 202.649 191.194 202.504 191.145L184.594 180.985C184.222 180.798 183.811 180.701 183.394 180.701C182.976 180.701 182.565 180.798 182.193 180.985L164.283 191.145C164.139 191.194 164.013 191.287 163.925 191.41C163.837 191.532 163.789 191.679 163.789 191.829C163.789 191.98 163.837 192.126 163.925 192.249C164.013 192.372 164.139 192.464 164.283 192.514L182.193 202.674C182.565 202.86 182.976 202.957 183.394 202.957C183.811 202.957 184.222 202.86 184.594 202.674Z" fill="white"/>
<path opacity="0.05" d="M183.398 180.702C183.815 180.693 184.228 180.792 184.594 180.988L202.504 191.147C202.648 191.197 202.773 191.29 202.862 191.412C202.95 191.535 202.998 191.682 202.998 191.832C202.998 191.982 202.95 192.129 202.862 192.252C202.773 192.375 202.648 192.467 202.504 192.517L184.594 202.676C184.228 202.873 183.815 202.971 183.398 202.962V180.702Z" fill="black"/>
<path d="M172.337 190.549L180.258 167.144C180.421 166.749 180.724 166.426 181.11 166.234C181.812 165.886 182.586 165.705 183.371 165.705C184.157 165.705 184.931 165.886 185.632 166.234C186.019 166.429 186.324 166.751 186.495 167.144L194.416 190.549C195.143 192.593 194.125 194.78 191.297 196.354C188.824 197.585 186.091 198.226 183.319 198.226C180.547 198.226 177.815 197.585 175.341 196.354C172.628 194.78 171.61 192.583 172.337 190.549Z" fill="#C51F2C"/>
<path d="M177.98 173.859L179.113 170.538C179.025 170.832 179.024 171.145 179.111 171.44C179.197 171.736 179.368 172 179.602 172.204C179.809 172.414 180.048 172.593 180.309 172.735C181.259 173.214 182.312 173.464 183.38 173.464C184.449 173.464 185.501 173.214 186.452 172.735C186.713 172.593 186.951 172.414 187.159 172.204C187.398 172.002 187.572 171.735 187.659 171.437C187.746 171.14 187.742 170.823 187.647 170.527L188.78 173.859C188.87 174.139 188.895 174.435 188.851 174.726C188.808 175.016 188.699 175.293 188.531 175.536C188.206 176.004 187.771 176.39 187.263 176.66C186.833 176.897 186.376 177.082 185.901 177.212C184.25 177.671 182.501 177.671 180.849 177.212C180.372 177.08 179.911 176.895 179.477 176.66C178.969 176.39 178.534 176.004 178.209 175.536C178.045 175.291 177.94 175.013 177.9 174.723C177.861 174.433 177.888 174.138 177.98 173.859Z" fill="#FAFAFA"/>
<path d="M173.451 187.258L174.584 183.926C174.405 184.468 174.384 185.048 174.522 185.602C174.689 186.235 175.018 186.816 175.478 187.288C175.938 187.764 176.467 188.171 177.048 188.494C179.014 189.477 181.188 189.99 183.394 189.99C185.599 189.99 187.774 189.477 189.74 188.494C190.321 188.171 190.85 187.764 191.309 187.288C191.773 186.818 192.103 186.237 192.266 185.602C192.412 185.053 192.39 184.473 192.203 183.936L193.336 187.258C193.512 187.799 193.555 188.373 193.461 188.934C193.26 189.686 192.896 190.385 192.394 190.985C191.891 191.585 191.262 192.071 190.551 192.409C188.33 193.513 185.877 194.088 183.389 194.088C180.9 194.088 178.447 193.513 176.227 192.409C175.512 192.074 174.882 191.59 174.379 190.989C173.876 190.389 173.513 189.687 173.316 188.934C173.217 188.373 173.264 187.796 173.451 187.258Z" fill="#FAFAFA"/>
<path d="M175.717 180.566L176.839 177.245C176.653 177.793 176.694 178.392 176.953 178.911C177.319 179.628 177.905 180.214 178.627 180.587H178.679C180.138 181.316 181.751 181.696 183.388 181.696C185.024 181.696 186.638 181.316 188.097 180.587C188.814 180.208 189.398 179.623 189.77 178.911C190.022 178.385 190.059 177.786 189.874 177.234L190.997 180.566C191.184 181.11 191.184 181.699 190.997 182.243C190.748 182.902 190.316 183.479 189.749 183.909C189.47 184.145 189.167 184.354 188.845 184.532C187.907 185.032 186.893 185.378 185.841 185.554C184.176 185.871 182.465 185.871 180.8 185.554C179.748 185.378 178.733 185.032 177.795 184.532C177.474 184.354 177.171 184.145 176.891 183.909C176.328 183.476 175.896 182.9 175.644 182.243C175.483 181.691 175.508 181.103 175.717 180.566Z" fill="#FAFAFA"/>
<path opacity="0.1" d="M183.396 165.673C184.182 165.657 184.958 165.84 185.651 166.204C186.038 166.399 186.343 166.721 186.514 167.114L194.435 190.519C195.163 192.564 194.144 194.751 191.317 196.325C188.866 197.612 186.121 198.26 183.344 198.205H183.406C185.128 197.912 186.666 196.969 187.691 195.577C188.716 194.185 189.148 192.455 188.895 190.755L185.599 167.461L183.396 165.673Z" fill="black"/>
<path d="M185.657 168.77C185.928 168.677 186.162 168.503 186.328 168.273C186.493 168.044 186.582 167.769 186.582 167.487C186.582 167.206 186.493 166.931 186.328 166.701C186.162 166.471 185.928 166.298 185.657 166.205C184.956 165.857 184.182 165.676 183.397 165.676C182.611 165.676 181.837 165.857 181.136 166.205C180.865 166.298 180.631 166.471 180.466 166.701C180.3 166.931 180.211 167.206 180.211 167.487C180.211 167.769 180.3 168.044 180.466 168.273C180.631 168.503 180.865 168.677 181.136 168.77C181.837 169.118 182.611 169.299 183.397 169.299C184.182 169.299 184.956 169.118 185.657 168.77Z" fill="#C51F2C"/>
<path opacity="0.5" d="M185.657 168.77C185.928 168.677 186.162 168.503 186.328 168.273C186.493 168.044 186.582 167.769 186.582 167.487C186.582 167.206 186.493 166.931 186.328 166.701C186.162 166.471 185.928 166.298 185.657 166.205C184.956 165.857 184.182 165.676 183.397 165.676C182.611 165.676 181.837 165.857 181.136 166.205C180.865 166.298 180.631 166.471 180.466 166.701C180.3 166.931 180.211 167.206 180.211 167.487C180.211 167.769 180.3 168.044 180.466 168.273C180.631 168.503 180.865 168.677 181.136 168.77C181.837 169.118 182.611 169.299 183.397 169.299C184.182 169.299 184.956 169.118 185.657 168.77Z" fill="white"/>
</svg>
