<svg width="239" height="235" viewBox="0 0 239 235" fill="none" xmlns="http://www.w3.org/2000/svg">
<path d="M119.624 229.506C183.78 229.506 235.788 199.086 235.788 161.562C235.788 124.038 183.78 93.6191 119.624 93.6191C55.4691 93.6191 3.46094 124.038 3.46094 161.562C3.46094 199.086 55.4691 229.506 119.624 229.506Z" fill="#F5F5F5"/>
<path opacity="0.15" d="M105 222.893L139.839 203.015L138.469 202.229L106.37 183.902L105 222.893ZM112.268 196.266L124.087 203.015L112.268 209.765V196.266Z" fill="black"/>
<path d="M138.491 199.965V202.215L105 221.328V219.078L138.491 199.965Z" fill="#C51F2C"/>
<g opacity="0.3">
<path d="M138.491 199.965V202.215L105 221.328V219.078L138.491 199.965Z" fill="white"/>
</g>
<path opacity="0.15" d="M138.491 199.965V202.215L105 221.328V219.078L138.491 199.965Z" fill="black"/>
<path d="M105 219.074L138.491 199.961L105 180.848V219.074ZM112.887 207.824V192.184L126.672 200.048L112.887 207.824Z" fill="#C51F2C"/>
<g opacity="0.4">
<path d="M105 219.074L138.491 199.961L105 180.848V219.074ZM112.887 207.824V192.184L126.672 200.048L112.887 207.824Z" fill="white"/>
</g>
<path opacity="0.3" d="M105 219.074L135.155 200.354L105 180.848L138.491 199.961L105 219.074Z" fill="white"/>
<path d="M112.883 194.346V192.096L126.668 199.959L124.702 201.073L112.883 194.346Z" fill="#C51F2C"/>
<g opacity="0.4">
<path d="M112.883 194.348V192.098L126.668 199.961L124.702 201.075L112.883 194.348Z" fill="white"/>
</g>
<path opacity="0.3" d="M112.883 194.346V192.096L126.668 199.959L124.702 201.073L112.883 194.346Z" fill="black"/>
<path opacity="0.15" d="M110.586 176.603L147.369 197.616L193.96 171.054L192.612 170.246L111.867 175.86L110.586 176.603ZM130.955 180.054L166.301 177.87L146.618 189.097L130.955 180.054Z" fill="black"/>
<path d="M147.301 196.106L111.844 175.857V173.607L147.301 193.856V196.106Z" fill="#C51F2C"/>
<g opacity="0.4">
<path d="M147.301 196.104L111.844 175.855V173.605L147.301 193.854V196.104Z" fill="white"/>
</g>
<path opacity="0.3" d="M147.301 196.106L111.844 175.857V173.607L147.301 193.856V196.106Z" fill="black"/>
<path d="M192.593 170.25V168L147.305 193.863V196.113L192.593 170.25Z" fill="#C51F2C"/>
<g opacity="0.3">
<path d="M192.593 170.25V168L147.305 193.863V196.113L192.593 170.25Z" fill="white"/>
</g>
<path opacity="0.15" d="M192.593 170.25V168L147.305 193.863V196.113L192.593 170.25Z" fill="black"/>
<path d="M111.844 173.614L147.301 193.863L192.589 168L111.844 173.614ZM129.517 177L168.907 174.815L147.257 187.179L129.517 177Z" fill="#C51F2C"/>
<g opacity="0.4">
<path d="M111.844 173.614L147.301 193.863L192.589 168L111.844 173.614ZM129.517 177L168.907 174.815L147.257 187.179L129.517 177Z" fill="white"/>
</g>
<path opacity="0.3" d="M147.301 193.863L186.823 169.573L111.844 173.614L192.589 168L147.301 193.863Z" fill="white"/>
<path d="M129.562 177.006L168.952 174.756L165.97 176.46L132.324 178.578L129.562 177.006Z" fill="#C51F2C"/>
<g opacity="0.4">
<path d="M129.562 177.006L168.952 174.756L165.97 176.46L132.324 178.578L129.562 177.006Z" fill="white"/>
</g>
<path opacity="0.3" d="M129.562 177.006L168.952 174.756L165.97 176.46L132.324 178.578L129.562 177.006Z" fill="black"/>
<path opacity="0.15" d="M76.4942 181.319C82.1055 184.399 82.1055 189.357 76.4942 192.437C73.3279 193.947 69.8581 194.731 66.343 194.731C62.828 194.731 59.3582 193.947 56.1919 192.437C50.6027 189.357 50.6027 184.399 56.1919 181.319C59.3582 179.809 62.828 179.025 66.343 179.025C69.8581 179.025 73.3279 179.809 76.4942 181.319Z" fill="black"/>
<path d="M78.7244 162.137H53.9375L56.699 184.657C56.8434 185.433 57.1735 186.162 57.6616 186.786C58.1497 187.409 58.7817 187.907 59.5046 188.24C61.6139 189.295 63.9448 189.845 66.3089 189.845C68.6729 189.845 71.0038 189.295 73.1131 188.24C73.8361 187.907 74.468 187.409 74.9561 186.786C75.4442 186.162 75.7743 185.433 75.9188 184.657L78.7244 162.137Z" fill="#C51F2C"/>
<path opacity="0.65" d="M78.7244 162.137H53.9375L56.699 184.657C56.8434 185.433 57.1735 186.162 57.6616 186.786C58.1497 187.409 58.7817 187.907 59.5046 188.24C61.6139 189.295 63.9448 189.845 66.3089 189.845C68.6729 189.845 71.0038 189.295 73.1131 188.24C73.8361 187.907 74.468 187.409 74.9561 186.786C75.4442 186.162 75.7743 185.433 75.9188 184.657L78.7244 162.137Z" fill="white"/>
<path d="M57.6051 157.139C60.3179 155.771 63.3195 155.059 66.3645 155.059C69.4094 155.059 72.4111 155.771 75.1238 157.139C79.9398 159.891 79.9398 164.369 75.1238 167.143C72.408 168.5 69.4075 169.208 66.3645 169.208C63.3214 169.208 60.321 168.5 57.6051 167.143C52.767 164.369 52.767 159.891 57.6051 157.139Z" fill="#C51F2C"/>
<path opacity="0.8" d="M57.6051 157.139C60.3179 155.771 63.3195 155.059 66.3645 155.059C69.4094 155.059 72.4111 155.771 75.1238 157.139C79.9398 159.891 79.9398 164.369 75.1238 167.143C72.408 168.5 69.4075 169.208 66.3645 169.208C63.3214 169.208 60.321 168.5 57.6051 167.143C52.767 164.369 52.767 159.891 57.6051 157.139Z" fill="white"/>
<path d="M66.3539 167.774C63.5547 167.842 60.785 167.195 58.3125 165.896C57.4792 165.668 56.7445 165.175 56.221 164.495C55.6975 163.814 55.4141 162.983 55.4141 162.128C55.4141 161.273 55.6975 160.441 56.221 159.761C56.7445 159.08 57.4792 158.588 58.3125 158.36C60.8088 157.124 63.5621 156.48 66.3539 156.48C69.1457 156.48 71.899 157.124 74.3953 158.36C75.2286 158.588 75.9633 159.08 76.4868 159.761C77.0103 160.441 77.2937 161.273 77.2937 162.128C77.2937 162.983 77.0103 163.814 76.4868 164.495C75.9633 165.175 75.2286 165.668 74.3953 165.896C71.9239 167.198 69.1535 167.845 66.3539 167.774Z" fill="#263238"/>
<mask id="mask0_538_4021" style="mask-type:luminance" maskUnits="userSpaceOnUse" x="53" y="125" width="28" height="43">
<path d="M66.0257 167.77C63.337 167.793 60.6855 167.147 58.3157 165.891C57.5992 165.494 56.9727 164.955 56.475 164.309C55.9772 163.663 55.6187 162.923 55.4217 162.134C55.4217 160.998 53.3672 132.449 53.3672 132.449L62.5132 125L80.6946 131.553C80.6946 131.553 77.3146 161.02 77.3146 162.134C77.3146 163.248 75.1054 165.476 73.4706 166.372C71.1271 167.386 68.5822 167.864 66.0257 167.77Z" fill="white"/>
</mask>
<g mask="url(#mask0_538_4021)">
<path d="M59.84 174.633V173.891L59.7074 173.017L55.2891 141.104C56.0848 141.617 57.0511 141.805 57.9843 141.628C58.5435 141.623 59.0951 141.499 59.602 141.266C60.1088 141.032 60.5591 140.694 60.9225 140.273L65.3408 171.947L65.5838 173.65C65.2303 172.558 59.6411 173.541 59.84 174.633Z" fill="#455A64"/>
<path d="M57.3913 134.877C56.5739 135.095 56.2867 134.877 56.2867 134.877L55.0938 141.124C55.5598 141.575 56.1476 141.883 56.7865 142.011C57.4254 142.139 58.0881 142.081 58.6947 141.845V141.539L57.3913 134.877Z" fill="#FFA8A7"/>
<path d="M60.7273 140.273L57.7891 134.506L60.7273 140.273Z" fill="#FAFAFA"/>
<path d="M57.7851 134.513L57.0781 133.115L57.7851 134.513Z" fill="#E0E0E0"/>
<path d="M56.6204 133.176L56.2891 134.858C56.2891 134.858 56.5763 135.054 57.3936 134.858L57.0844 133.154C57.0703 133.125 57.0504 133.099 57.026 133.078C57.0015 133.056 56.973 133.04 56.9421 133.03C56.9112 133.02 56.8785 133.016 56.846 133.018C56.8135 133.021 56.7819 133.03 56.753 133.045C56.7225 133.056 56.6949 133.073 56.672 133.096C56.6491 133.118 56.6315 133.146 56.6204 133.176Z" fill="#455A64"/>
<path opacity="0.1" d="M65.2086 172.013L60.7902 140.34C60.5884 140.731 60.3014 141.073 59.95 141.341C59.5986 141.609 59.1914 141.797 58.7578 141.891L62.9552 173.324C64.2145 173.149 65.4074 173.214 65.5179 173.717L65.2086 172.013Z" fill="black"/>
<path d="M60.7265 140.273L57.7883 134.506C57.6982 134.653 57.5567 134.762 57.3906 134.812L58.6499 141.518V141.823C59.0914 141.735 59.5074 141.55 59.8668 141.282C60.2263 141.013 60.5201 140.668 60.7265 140.273Z" fill="#F28F8F"/>
<path d="M57.3874 134.883C57.4735 134.867 57.5544 134.831 57.6236 134.778C57.6927 134.725 57.7481 134.656 57.7851 134.578L57.0781 133.18L57.3874 134.883Z" fill="#37474F"/>
<path d="M64.5499 138.21C63.8767 143.917 63.508 149.655 63.4453 155.401C63.5378 161.828 64.1734 168.236 65.3452 174.558C65.3717 174.651 65.4193 174.736 65.4844 174.808C65.5495 174.88 65.6303 174.936 65.7208 174.973C65.7972 175.008 65.8803 175.028 65.9648 175.031C66.0494 175.034 66.1336 175.019 66.2123 174.989C66.291 174.958 66.3624 174.912 66.4223 174.853C66.4821 174.793 66.5291 174.723 66.5602 174.645C66.5733 174.595 66.5733 174.542 66.5602 174.492C67.7951 168.158 68.5337 161.739 68.7694 155.292C68.7111 149.561 68.3498 143.838 67.6869 138.145C67.6555 138.025 67.5975 137.914 67.5173 137.82C67.437 137.725 67.3365 137.65 67.223 137.599C66.881 137.426 66.5024 137.336 66.1184 137.336C65.7344 137.336 65.3559 137.426 65.0138 137.599C64.8903 137.653 64.7828 137.738 64.7016 137.845C64.6204 137.952 64.5682 138.078 64.5499 138.21Z" fill="#C51F2C"/>
<path opacity="0.3" d="M64.5499 138.21C63.8767 143.917 63.508 149.655 63.4453 155.401C63.5378 161.828 64.1734 168.236 65.3452 174.558C65.3717 174.651 65.4193 174.736 65.4844 174.808C65.5495 174.88 65.6303 174.936 65.7208 174.973C65.7972 175.008 65.8803 175.028 65.9648 175.031C66.0494 175.034 66.1336 175.019 66.2123 174.989C66.291 174.958 66.3624 174.912 66.4223 174.853C66.4821 174.793 66.5291 174.723 66.5602 174.645C66.5733 174.595 66.5733 174.542 66.5602 174.492C67.7951 168.158 68.5337 161.739 68.7694 155.292C68.7111 149.561 68.3498 143.838 67.6869 138.145C67.6555 138.025 67.5975 137.914 67.5173 137.82C67.437 137.725 67.3365 137.65 67.223 137.599C66.881 137.426 66.5024 137.336 66.1184 137.336C65.7344 137.336 65.3559 137.426 65.0138 137.599C64.8903 137.653 64.7828 137.738 64.7016 137.845C64.6204 137.952 64.5682 138.078 64.5499 138.21Z" fill="black"/>
<path opacity="0.1" d="M66.5596 174.701C66.5727 174.651 66.5727 174.599 66.5596 174.548C67.7944 168.214 68.533 161.795 68.7688 155.348C68.7688 149.734 68.2827 143.924 67.9514 140.713L65.9852 141.041C65.9852 141.041 66.2945 175.007 65.7422 175.029C65.8175 175.061 65.8986 175.078 65.9807 175.079C66.0628 175.08 66.1443 175.065 66.2203 175.035C66.2964 175.004 66.3656 174.959 66.4238 174.902C66.4821 174.844 66.5282 174.776 66.5596 174.701Z" fill="black"/>
<path d="M66.099 137.384C67.0877 135.739 67.5354 133.831 67.3803 131.924C67.0841 131.906 66.7929 131.839 66.5187 131.727C65.4362 131.29 65.5688 130.351 64.7956 129.936C64.0224 129.521 63.1166 130.81 63.0945 130.81C62.5363 132.042 62.3768 133.415 62.6378 134.74C62.8988 136.066 63.5675 137.279 64.5526 138.215H67.6675L66.099 137.384Z" fill="#F0F0F0"/>
<path d="M69.5921 132.403C68.9293 131.617 68.2445 131.944 67.3829 131.923C67.538 133.83 67.0903 135.738 66.1016 137.383L67.6701 138.192L68.2886 137.274L68.4433 137.012C68.5594 136.838 68.6628 136.655 68.7526 136.466C68.9189 136.173 69.0593 135.866 69.1723 135.549C69.2591 135.32 69.3328 135.086 69.3932 134.85C69.5345 134.314 69.616 133.765 69.6362 133.211C69.6362 132.927 69.6141 132.687 69.5921 132.403Z" fill="#F0F0F0"/>
<path opacity="0.1" d="M69.5921 132.403C68.9293 131.617 68.2445 131.944 67.3829 131.923C67.538 133.83 67.0903 135.738 66.1016 137.383L67.6701 138.192L68.2886 137.274L68.4433 137.012C68.5594 136.838 68.6628 136.655 68.7526 136.466C68.9189 136.173 69.0593 135.866 69.1723 135.549C69.2591 135.32 69.3328 135.086 69.3932 134.85C69.5345 134.314 69.616 133.765 69.6362 133.211C69.6362 132.927 69.6141 132.687 69.5921 132.403Z" fill="black"/>
<path d="M69.5933 132.401C69.5933 132.248 69.5933 132.117 69.5933 131.986V131.68C69.5905 131.629 69.5905 131.578 69.5933 131.527V131.353C69.5282 131.217 69.4544 131.086 69.3724 130.959C69.3043 130.828 69.2229 130.703 69.1294 130.588C69.0531 130.463 68.9642 130.346 68.8643 130.239C68.2935 129.56 67.5959 128.996 66.8098 128.579H66.633H66.4342C66.0321 128.398 65.6093 128.266 65.175 128.185L64.6227 128.076H64.1367H62.7891C63.0457 128.374 63.234 128.724 63.3407 129.101C63.4475 129.478 63.4704 129.874 63.4076 130.261C63.3553 130.58 63.274 130.895 63.1646 131.2C63.1646 131.2 64.0925 129.933 64.8657 130.326C65.6389 130.719 65.5063 131.68 66.5888 132.117C66.863 132.23 67.1542 132.296 67.4504 132.314C68.312 132.314 68.9968 132.008 69.6596 132.794L69.5933 132.401Z" fill="#C51F2C"/>
<path opacity="0.1" d="M62.7891 127.623C64.5541 128.118 66.0627 129.258 67.0086 130.812C67.2233 131.154 67.3731 131.531 67.4504 131.926C68.312 131.926 68.9968 131.62 69.6596 132.407C69.6596 132.254 69.6596 132.123 69.6596 131.992V131.686C69.6568 131.635 69.6568 131.584 69.6596 131.533V131.358C69.5945 131.223 69.5207 131.091 69.4387 130.965C69.3706 130.834 69.2892 130.709 69.1957 130.594C69.1193 130.469 69.0305 130.352 68.9306 130.244C68.3597 129.566 67.6622 129.002 66.876 128.584H66.6993H66.5005C66.0984 128.403 65.6755 128.271 65.2412 128.191L64.689 128.082H64.2029H62.7891V127.623Z" fill="black"/>
<path d="M67.6675 138.191C67.6361 138.072 67.5781 137.961 67.4979 137.867C67.4176 137.772 67.3171 137.697 67.2036 137.645C66.8615 137.473 66.483 137.383 66.099 137.383C65.715 137.383 65.3364 137.473 64.9944 137.645C64.8805 137.699 64.7811 137.778 64.7043 137.877C64.6274 137.975 64.5754 138.091 64.5526 138.213C64.3979 139.415 64.2654 140.725 64.1328 142.101C64.1639 141.942 64.232 141.792 64.3316 141.663C64.4313 141.534 64.5599 141.43 64.7072 141.359C65.1389 141.144 65.6156 141.032 66.099 141.032C66.5824 141.032 67.0591 141.144 67.4907 141.359C67.6467 141.424 67.7822 141.529 67.8832 141.664C67.9842 141.798 68.047 141.957 68.0651 142.123C67.9326 140.594 67.7779 139.24 67.6675 138.191Z" fill="#455A64"/>
<path d="M65.9688 141.031C66.4977 140.999 67.0253 141.113 67.4931 141.359C67.649 141.424 67.7845 141.529 67.8855 141.664C67.9865 141.798 68.0493 141.957 68.0675 142.124C67.9349 140.594 67.7803 139.175 67.6698 138.192C67.6384 138.072 67.5804 137.961 67.5002 137.867C67.4199 137.772 67.3194 137.697 67.2059 137.646C66.8671 137.464 66.4863 137.374 66.1013 137.383V141.009L65.9688 141.031Z" fill="#37474F"/>
<path d="M76.9194 141.813V142.512L76.7869 143.342L72.5011 173.77C71.8201 174.306 70.9613 174.571 70.0931 174.513C69.5171 174.537 68.9443 174.417 68.4271 174.165C67.9099 173.914 67.4649 173.537 67.1328 173.071L71.4186 142.665L71.6395 141.049C71.4628 142.119 76.8311 142.862 76.9194 141.813Z" fill="#455A64"/>
<path d="M76.5663 144.479L76.3233 146.052C76.3233 146.489 75.2629 146.664 74.1141 146.598C72.5898 146.598 70.8887 145.877 70.955 145.266L71.1317 144.108V143.715C71.1317 144.305 72.7886 144.96 74.313 145.025C75.3954 145.025 76.3896 145.026 76.5221 144.523C76.5221 144.523 76.5663 144.501 76.5663 144.479Z" fill="#EBEBEB"/>
<path d="M76.5027 144.872C76.5027 145.921 71.024 145.156 71.1345 144.086L71.3554 142.535C71.3554 143.584 76.6132 144.348 76.7237 143.3L76.5027 144.872Z" fill="#C51F2C"/>
<path d="M76.9173 141.817L76.6964 143.346C76.6964 144.394 71.4165 143.695 71.3281 142.668L71.549 141.096C71.4607 142.122 76.829 142.865 76.9173 141.817Z" fill="#EBEBEB"/>
<path opacity="0.15" d="M68.7053 180.729L68.4844 180.532L69.2355 174.372L73.6538 142.197C73.6538 142.197 73.6538 142.197 73.6538 142.087C75.1119 142.371 76.835 142.35 76.8792 141.76V142.459L76.7467 143.289L72.4609 173.717L68.9262 180.729C68.892 180.746 68.8542 180.755 68.8158 180.755C68.7774 180.755 68.7395 180.746 68.7053 180.729Z" fill="black"/>
<path d="M77.8503 135.237L76.9225 141.79C76.9225 142.227 75.8842 142.402 74.7133 142.336C73.189 142.336 71.4879 141.637 71.5321 141.026L72.4599 134.473C72.6367 133.162 75.376 133.206 76.8783 133.992C77.1496 134.077 77.3882 134.241 77.5619 134.464C77.7357 134.687 77.8364 134.956 77.8503 135.237Z" fill="#F28F8F"/>
<path opacity="0.1" d="M76.3045 136.218C75.665 136.313 75.012 136.262 74.3956 136.069C73.7791 135.876 73.2155 135.546 72.7477 135.104C72.6494 134.987 72.5785 134.85 72.5403 134.703C72.5021 134.556 72.4975 134.402 72.5268 134.252C72.9687 133.16 75.4871 133.226 76.9452 133.968C77.2048 134.059 77.4316 134.223 77.5967 134.441C77.7619 134.659 77.858 134.92 77.873 135.192C77.7626 135.694 77.2103 136.087 76.3045 136.218Z" fill="black"/>
</g>
<path opacity="0.2" d="M125.129 162.03L169.975 136.429C170.082 136.391 170.174 136.321 170.239 136.229C170.304 136.137 170.339 136.028 170.339 135.916C170.339 135.803 170.304 135.694 170.239 135.602C170.174 135.51 170.082 135.441 169.975 135.402L116.756 105.236C116.479 105.096 116.173 105.023 115.862 105.023C115.551 105.023 115.244 105.096 114.967 105.236L70.3639 130.75C70.2572 130.788 70.1651 130.858 70.1 130.95C70.0349 131.041 70 131.151 70 131.263C70 131.375 70.0349 131.484 70.1 131.576C70.1651 131.668 70.2572 131.738 70.3639 131.776L123.384 162.03C123.655 162.162 123.954 162.231 124.257 162.231C124.559 162.231 124.858 162.162 125.129 162.03Z" fill="black"/>
<path d="M130.011 155.742L128.773 155.043C129.113 154.952 129.472 154.952 129.812 155.043C130.187 155.13 130.011 155.742 130.011 155.742Z" fill="black"/>
<path d="M130.914 154.983C130.774 154.832 130.603 154.711 130.413 154.629C130.223 154.547 130.017 154.504 129.81 154.504C129.602 154.504 129.397 154.547 129.207 154.629C129.017 154.711 128.846 154.832 128.705 154.983C127.49 156.075 127.424 157.167 126.916 157.167C126.408 157.167 126.43 148.43 126.43 148.43L131.202 152.798L130.914 154.983Z" fill="black"/>
<path d="M80.9453 123.131L81.7185 122.694L114.635 103.908L162.574 134.598C163.37 135.057 163.524 135.712 162.906 136.062L161.779 136.695L131.005 154.17L130.784 153.995L80.9453 123.131Z" fill="#455A64"/>
<path d="M126.806 144.207L129.192 143.727V153.163C127.756 153.753 126.85 154.321 126.695 155.522L126.806 144.207Z" fill="#C51F2C"/>
<path d="M130.255 153.301L160.741 135.826C161.013 135.641 161.24 135.398 161.405 135.114C161.569 134.83 161.667 134.514 161.691 134.188V124.883L130.917 142.598C130.807 142.969 130.621 143.314 130.37 143.611C130.119 143.908 129.809 144.15 129.459 144.324C128.377 144.739 129.194 145.175 129.194 145.175V153.105C130.144 153.083 130.255 153.301 130.255 153.301Z" fill="#EBEBEB"/>
<path d="M127.447 143.894C127.757 143.719 128 143.698 128 143.894V144.2C128 144.528 128.508 144.506 129.126 144.2C129.745 143.894 130.253 143.283 130.253 142.955V142.671C130.253 142.496 130.695 142.125 131.203 141.819L81.6293 113.619L80.856 114.056C80.7444 114.168 80.6743 114.315 80.6572 114.471V114.755C80.6572 115.083 80.1712 115.629 79.5526 116C78.9341 116.371 78.4259 116.371 78.4259 116V115.803C78.4259 115.629 78.1608 115.651 77.8516 115.803L127.447 143.894Z" fill="#37474F"/>
<path d="M80.9453 114.144L81.7185 113.707L114.635 94.9219L162.486 122.357C163.281 122.816 163.436 123.471 162.817 123.821L161.691 124.454L130.917 142.781L80.9453 114.144Z" fill="#455A64"/>
<path d="M78.4045 115.51L127.956 143.797L126.233 145.13L76.8359 116.951C76.9591 116.587 77.19 116.267 77.4987 116.034L78.4045 115.51Z" fill="#455A64"/>
<path d="M76.9941 129.588C76.979 129.546 76.979 129.5 76.9941 129.457C76.9854 129.37 76.9854 129.282 76.9941 129.195C76.9475 129.089 76.9105 128.98 76.8837 128.867V128.496C76.8728 128.424 76.8728 128.35 76.8837 128.278V128.081C76.8721 127.943 76.8721 127.804 76.8837 127.666V119.562C76.876 118.717 77.0335 117.879 77.3476 117.094L126.745 145.294L126.944 157.985L76.9941 129.61V129.588Z" fill="#455A64"/>
<path opacity="0.1" d="M126.237 145.13L83.7984 125.471C81.4567 124.379 80.3079 126.651 80.8602 129.032C81.3743 130.621 82.2425 132.077 83.4007 133.291L76.9941 129.621C76.979 129.579 76.979 129.533 76.9941 129.49C76.9854 129.403 76.9854 129.315 76.9941 129.228C76.9475 129.123 76.9105 129.013 76.8837 128.901V128.529C76.8728 128.457 76.8728 128.383 76.8837 128.311V128.114C76.8721 127.976 76.8721 127.837 76.8837 127.699V119.595C76.876 118.751 77.0335 117.912 77.3476 117.127L126.237 145.13Z" fill="black"/>
<path d="M125.768 147.59H126.872C126.851 146.765 127.033 145.948 127.403 145.209C127.666 145.397 127.984 145.496 128.308 145.493C128.794 145.475 129.266 145.332 129.678 145.078C130.179 144.799 130.615 144.419 130.959 143.964C131.16 143.689 131.275 143.363 131.291 143.025L160.496 126.358L161.468 125.79L162.749 125.069C162.857 125.016 162.948 124.935 163.014 124.835C163.08 124.735 163.118 124.62 163.125 124.501V123.234C163.118 123.353 163.08 123.468 163.014 123.568C162.948 123.668 162.857 123.749 162.749 123.802L159.391 125.703L131.18 141.823C130.65 142.129 130.208 142.5 130.208 142.675V142.959C130.185 143.159 130.091 143.345 129.943 143.483C129.696 143.766 129.405 144.01 129.082 144.204C128.463 144.554 127.955 144.575 127.955 144.204V143.898C127.955 143.724 127.712 143.745 127.403 143.898L126.85 144.226C126.443 144.681 126.137 145.216 125.95 145.795C125.764 146.374 125.702 146.986 125.768 147.59Z" fill="#37474F"/>
<path d="M126.872 147.592V156.023V156.307C126.978 155.866 127.181 155.452 127.468 155.097C127.754 154.742 128.116 154.454 128.528 154.254C128.934 154.004 129.398 153.861 129.876 153.839C130.244 153.828 130.602 153.962 130.87 154.21H130.981L131.179 154.101L159.391 137.981L161.025 137.063L161.489 136.779L162.837 136.015C162.932 135.958 163.01 135.878 163.065 135.782C163.119 135.686 163.147 135.578 163.146 135.469V136.736C163.142 136.836 163.114 136.934 163.064 137.021C163.014 137.108 162.944 137.183 162.859 137.238L162.351 137.522L162.042 137.719C161.85 137.807 161.666 137.91 161.489 138.024L161.158 138.221L160.915 138.352L160.517 138.592L138.094 151.393L130.914 155.477C130.406 155.761 130.009 155.871 129.964 155.718V155.39C129.964 155.019 129.456 155.019 128.838 155.39C128.609 155.49 128.409 155.644 128.255 155.838C128.101 156.032 127.998 156.261 127.954 156.504V156.854C127.958 156.929 127.946 157.005 127.919 157.077C127.893 157.148 127.852 157.213 127.799 157.269H127.623L127.269 157.465L126.85 157.727C126.768 157.791 126.667 157.826 126.562 157.826C126.458 157.826 126.357 157.791 126.275 157.727L126.165 157.596L126.032 157.312C126.032 157.312 126.032 157.116 126.032 157.006V156.635C126.032 156.635 126.032 156.482 126.032 156.417V156.22C126.021 156.082 126.021 155.943 126.032 155.805V147.701L126.872 147.592Z" fill="#37474F"/>
<path opacity="0.1" d="M76.8359 116.932L123.781 143.734L159.26 123.485C159.38 123.451 159.486 123.38 159.561 123.281C159.636 123.183 159.677 123.063 159.677 122.939C159.677 122.816 159.636 122.696 159.561 122.597C159.486 122.499 159.38 122.427 159.26 122.393L112.868 95.875L81.6299 113.634L80.8566 114.071C80.745 114.183 80.6749 114.329 80.6578 114.486V114.77C80.6578 115.097 80.1718 115.643 79.5532 116.015L78.5149 115.425L78.0289 115.709L77.6754 115.927C77.2793 116.148 76.9801 116.506 76.8359 116.932Z" fill="black"/>
<path d="M156.523 123.67L155.109 122.927L156.413 122.621C156.528 122.769 156.599 122.945 156.618 123.13C156.638 123.315 156.605 123.502 156.523 123.67Z" fill="#C51F2C"/>
<path opacity="0.5" d="M156.523 123.67L155.109 122.927L156.413 122.621C156.528 122.769 156.599 122.945 156.618 123.13C156.638 123.315 156.605 123.502 156.523 123.67Z" fill="black"/>
<path d="M119.208 142.306C119.652 142.532 120.144 142.65 120.644 142.65C121.143 142.65 121.635 142.532 122.079 142.306L154.311 123.892L106.041 96.7839L104.914 96.1504L72.6824 114.106C71.8871 114.564 71.8871 115.307 72.6824 115.744L119.208 142.306Z" fill="#C51F2C"/>
<path d="M131.315 107.996L142.56 114.396L149.828 110.224L158.289 115.073V120.665C158.289 121.386 157.472 122.435 157.162 122.26C156.606 122.391 156.065 122.582 155.55 122.828C154.706 123.305 153.92 123.877 153.208 124.532L127.383 110.224L131.315 107.996Z" fill="#C51F2C"/>
<path opacity="0.15" d="M131.315 107.996L142.56 114.396L149.828 110.224L158.289 115.073V120.665C158.289 121.386 157.472 122.435 157.162 122.26C156.606 122.391 156.065 122.582 155.55 122.828C154.706 123.305 153.92 123.877 153.208 124.532L127.383 110.224L131.315 107.996Z" fill="black"/>
<path d="M153.648 115.818V121.869H153.759C154.171 121.615 154.643 121.472 155.129 121.454C155.447 121.42 155.768 121.497 156.034 121.672V114.508L153.648 115.818Z" fill="#37474F"/>
<path d="M152.102 123.9C152.117 123.518 152.257 123.15 152.499 122.852C152.614 122.691 152.747 122.544 152.897 122.415L153.029 122.284L153.206 122.131L153.361 122.022L153.67 121.803V115.818L152.102 116.714V123.9Z" fill="#E0E0E0"/>
<path opacity="0.4" d="M158.292 120.665C158.292 121.386 157.475 122.435 157.166 122.26L156.039 121.539V116.93L157.166 114.986L157.784 114.768L158.292 115.073V120.665Z" fill="black"/>
<path d="M120.648 134.569V141.493C120.979 141.501 121.306 141.426 121.598 141.275L125.133 139.265L152.085 123.975V116.723L120.648 134.569Z" fill="#EBEBEB"/>
<path d="M73.4766 108.578V113.821C73.5034 114.148 73.6048 114.466 73.7731 114.75C73.9414 115.033 74.1723 115.276 74.4486 115.459L116.158 139.268L119.67 141.278C119.97 141.432 120.305 141.507 120.642 141.496V135.467L73.4766 108.578Z" fill="#F5F5F5"/>
<path d="M106.039 87.816L154.309 115.361V115.994C154.309 116.365 154.818 116.497 155.436 116.125C156.055 115.754 156.563 115.339 156.563 114.727V114.116L107.387 86.0467L107.188 85.9375C107.159 86.03 107.159 86.129 107.188 86.2215V86.5273C107.166 86.8767 106.658 87.4228 106.039 87.816Z" fill="#C51F2C"/>
<path opacity="0.1" d="M106.039 87.816L154.309 115.361V115.994C154.309 116.365 154.818 116.497 155.436 116.125C156.055 115.754 156.563 115.339 156.563 114.727V114.116L107.387 86.0467L107.188 85.9375C107.159 86.03 107.159 86.129 107.188 86.2215V86.5273C107.166 86.8767 106.658 87.4228 106.039 87.816Z" fill="black"/>
<path d="M122.083 133.764L153.607 115.808C154.005 115.59 154.381 115.437 154.535 115.502H154.314L106.044 87.9578L105.492 87.6302C105.237 87.5536 104.968 87.5335 104.705 87.5713C104.441 87.609 104.19 87.7037 103.967 87.8486L72.6855 105.717C72.5164 105.779 72.3706 105.89 72.2676 106.037C72.1646 106.183 72.1094 106.357 72.1094 106.536C72.1094 106.714 72.1646 106.888 72.2676 107.035C72.3706 107.181 72.5164 107.293 72.6855 107.355L119.211 133.917C119.667 134.119 120.166 134.211 120.665 134.185C121.165 134.158 121.651 134.014 122.083 133.764Z" fill="#C51F2C"/>
<path d="M107.26 85.9296L107.459 86.0388L156.635 114.108C156.625 114.065 156.625 114.02 156.635 113.977H156.79L157.143 113.78L157.585 113.518C157.665 113.459 157.762 113.428 157.861 113.428C157.96 113.428 158.057 113.459 158.137 113.518L158.27 113.715C158.331 113.792 158.376 113.881 158.402 113.977V114.304V114.676C158.413 114.748 158.413 114.822 158.402 114.894V115.069C158.402 115.222 158.402 115.353 158.402 115.506V114.13C158.345 113.682 158.186 113.253 157.937 112.875C157.689 112.496 157.357 112.179 156.966 111.945L110.441 85.3835C110.055 85.1659 109.624 85.0372 109.18 85.0069C108.736 84.9767 108.292 85.0457 107.879 85.2087L107.282 85.5582L107.039 85.7111C107.089 85.8042 107.166 85.8804 107.26 85.9296Z" fill="#C51F2C"/>
<path d="M122.078 142.302L124.022 141.188L153.205 124.543C153.231 124.17 153.37 123.812 153.603 123.517C153.953 123.067 154.388 122.688 154.884 122.403C155.296 122.144 155.767 121.994 156.254 121.966C156.583 121.961 156.903 122.069 157.16 122.272C157.547 121.538 157.737 120.718 157.712 119.891H158.816C158.877 120.498 158.808 121.111 158.614 121.691C158.419 122.27 158.105 122.803 157.69 123.255L157.137 123.582C156.806 123.757 156.563 123.779 156.563 123.582V123.276C156.563 122.949 156.055 122.971 155.436 123.276C154.818 123.582 154.31 124.194 154.31 124.521V124.805C154.31 124.98 153.89 125.352 153.36 125.657L125.127 141.778L122.078 143.525C121.641 143.749 121.156 143.861 120.664 143.853V142.586C121.152 142.605 121.636 142.507 122.078 142.302Z" fill="#C51F2C"/>
<path opacity="0.3" d="M122.078 142.302L124.022 141.188L153.205 124.543C153.231 124.17 153.37 123.812 153.603 123.517C153.953 123.067 154.388 122.688 154.884 122.403C155.296 122.144 155.767 121.994 156.254 121.966C156.583 121.961 156.903 122.069 157.16 122.272C157.547 121.538 157.737 120.718 157.712 119.891H158.816C158.877 120.498 158.808 121.111 158.614 121.691C158.419 122.27 158.105 122.803 157.69 123.255L157.137 123.582C156.806 123.757 156.563 123.779 156.563 123.582V123.276C156.563 122.949 156.055 122.971 155.436 123.276C154.818 123.582 154.31 124.194 154.31 124.521V124.805C154.31 124.98 153.89 125.352 153.36 125.657L125.127 141.778L122.078 143.525C121.641 143.749 121.156 143.861 120.664 143.853V142.586C121.152 142.605 121.636 142.507 122.078 142.302Z" fill="black"/>
<path d="M122.057 133.76L124.001 132.646L146.424 119.845L153.582 115.761C154.09 115.455 154.51 115.367 154.532 115.52V115.804C154.532 116.154 155.04 116.154 155.659 115.804C156.277 115.455 156.542 115.04 156.542 114.69V114.341C156.542 114.166 156.542 113.97 156.719 113.926H156.874L157.227 113.729L157.669 113.467C157.749 113.409 157.846 113.377 157.945 113.377C158.045 113.377 158.141 113.409 158.221 113.467C158.23 113.51 158.23 113.555 158.221 113.598C158.283 113.676 158.328 113.765 158.354 113.86V114.188V114.559C158.365 114.632 158.365 114.705 158.354 114.778V114.952C158.354 115.105 158.354 115.236 158.354 115.389V119.758H157.249V115.389C157.249 115.28 157.249 115.149 157.249 115.04V114.778C157.131 115.218 156.921 115.628 156.631 115.982C156.342 116.335 155.981 116.625 155.57 116.831C155.16 117.072 154.699 117.215 154.223 117.246C153.857 117.244 153.504 117.112 153.229 116.875L153.03 116.984L125.128 133.279L122.079 135.027C121.651 135.252 121.172 135.365 120.688 135.354V134.087C121.165 134.096 121.637 133.983 122.057 133.76Z" fill="#C51F2C"/>
<path opacity="0.3" d="M122.057 133.76L124.001 132.646L146.424 119.845L153.582 115.761C154.09 115.455 154.51 115.367 154.532 115.52V115.804C154.532 116.154 155.04 116.154 155.659 115.804C156.277 115.455 156.542 115.04 156.542 114.69V114.341C156.542 114.166 156.542 113.97 156.719 113.926H156.874L157.227 113.729L157.669 113.467C157.749 113.409 157.846 113.377 157.945 113.377C158.045 113.377 158.141 113.409 158.221 113.467C158.23 113.51 158.23 113.555 158.221 113.598C158.283 113.676 158.328 113.765 158.354 113.86V114.188V114.559C158.365 114.632 158.365 114.705 158.354 114.778V114.952C158.354 115.105 158.354 115.236 158.354 115.389V119.758H157.249V115.389C157.249 115.28 157.249 115.149 157.249 115.04V114.778C157.131 115.218 156.921 115.628 156.631 115.982C156.342 116.335 155.981 116.625 155.57 116.831C155.16 117.072 154.699 117.215 154.223 117.246C153.857 117.244 153.504 117.112 153.229 116.875L153.03 116.984L125.128 133.279L122.079 135.027C121.651 135.252 121.172 135.365 120.688 135.354V134.087C121.165 134.096 121.637 133.983 122.057 133.76Z" fill="black"/>
<path d="M72.0859 106.381V107.648C72.101 107.821 72.1621 107.986 72.263 108.128C72.3639 108.27 72.501 108.383 72.6603 108.456L116.159 133.292L119.208 135.04C119.651 135.265 120.145 135.378 120.644 135.367V134.1C120.145 134.111 119.651 133.998 119.208 133.773L117.263 132.659L72.6824 107.211C72.5158 107.14 72.3721 107.025 72.267 106.878C72.1618 106.732 72.0992 106.56 72.0859 106.381Z" fill="#C51F2C"/>
<path opacity="0.2" d="M72.0859 106.381V107.648C72.101 107.821 72.1621 107.986 72.263 108.128C72.3639 108.27 72.501 108.383 72.6603 108.456L116.159 133.292L119.208 135.04C119.651 135.265 120.145 135.378 120.644 135.367V134.1C120.145 134.111 119.651 133.998 119.208 133.773L117.263 132.659L72.6824 107.211C72.5158 107.14 72.3721 107.025 72.267 106.878C72.1618 106.732 72.0992 106.56 72.0859 106.381Z" fill="black"/>
<path d="M72.0859 114.912V116.179C72.1016 116.355 72.1627 116.523 72.2633 116.668C72.3639 116.814 72.5006 116.931 72.6603 117.009L116.137 141.823L119.185 143.571C119.629 143.796 120.123 143.909 120.621 143.898V142.632C120.123 142.642 119.629 142.529 119.185 142.304L117.241 141.19L72.6824 115.808C72.506 115.732 72.3557 115.606 72.2498 115.447C72.1439 115.288 72.087 115.102 72.0859 114.912Z" fill="#C51F2C"/>
<path opacity="0.2" d="M72.0859 114.912V116.179C72.1016 116.355 72.1627 116.523 72.2633 116.668C72.3639 116.814 72.5006 116.931 72.6603 117.009L116.137 141.823L119.185 143.571C119.629 143.796 120.123 143.909 120.621 143.898V142.632C120.123 142.642 119.629 142.529 119.185 142.304L117.241 141.19L72.6824 115.808C72.506 115.732 72.3557 115.606 72.2498 115.447C72.1439 115.288 72.087 115.102 72.0859 114.912Z" fill="black"/>
</svg>
