<svg width="239" height="235" viewBox="0 0 239 235" fill="none" xmlns="http://www.w3.org/2000/svg">
<path d="M119.624 229.506C183.78 229.506 235.788 199.086 235.788 161.562C235.788 124.038 183.78 93.6191 119.624 93.6191C55.4691 93.6191 3.46094 124.038 3.46094 161.562C3.46094 199.086 55.4691 229.506 119.624 229.506Z" fill="#F5F5F5"/>
<path d="M181.491 158.356L117.121 194.986C116.559 195.268 115.937 195.415 115.307 195.415C114.677 195.415 114.055 195.268 113.494 194.986L67.8213 168.993C67.293 168.655 66.8533 168.199 66.5381 167.662C66.2229 167.125 66.0412 166.522 66.0078 165.902V142.279C66.0429 141.662 66.2255 141.061 66.5406 140.525C66.8557 139.99 67.2945 139.536 67.8213 139.199L132.192 102.564C132.754 102.282 133.375 102.135 134.006 102.135C134.636 102.135 135.257 102.282 135.819 102.564L181.491 128.557C182.019 128.895 182.458 129.351 182.773 129.888C183.089 130.426 183.271 131.028 183.305 131.648V155.259C183.27 155.879 183.087 156.483 182.772 157.02C182.457 157.558 182.019 158.016 181.491 158.356Z" fill="#C51F2C"/>
<path opacity="0.4" d="M115.307 167.668V195.41C114.676 195.426 114.05 195.28 113.494 194.986L67.8157 168.993C67.2887 168.653 66.8503 168.196 66.5362 167.658C66.2221 167.12 66.0411 166.516 66.0078 165.897V142.28C66.0383 141.727 66.1856 141.186 66.4403 140.693C66.6949 140.2 67.0513 139.764 67.4865 139.414C66.8281 139.964 66.9285 140.751 67.8102 141.251L113.488 167.25C114.048 167.539 114.675 167.683 115.307 167.668Z" fill="black"/>
<path opacity="0.2" d="M183.303 131.636V155.258C183.268 155.878 183.086 156.48 182.771 157.018C182.456 157.555 182.017 158.011 181.489 158.349L117.113 194.985C116.557 195.276 115.934 195.422 115.305 195.408V167.666C115.933 167.678 116.553 167.53 117.107 167.237L181.483 130.607C182.415 130.057 182.477 129.238 181.673 128.66C182.15 129.008 182.543 129.454 182.825 129.969C183.106 130.483 183.269 131.052 183.303 131.636Z" fill="black"/>
<path d="M67.8158 139.199L132.187 102.564C132.748 102.282 133.37 102.135 134 102.135C134.631 102.135 135.252 102.282 135.814 102.564L181.486 128.557C182.49 129.107 182.49 130.047 181.486 130.619L117.115 167.249C116.553 167.529 115.931 167.674 115.302 167.674C114.672 167.674 114.051 167.529 113.488 167.249L67.8158 141.251C66.8114 140.679 66.8114 139.749 67.8158 139.199Z" fill="#C51F2C"/>
<path opacity="0.3" d="M67.8158 139.199L132.187 102.564C132.748 102.282 133.37 102.135 134 102.135C134.631 102.135 135.252 102.282 135.814 102.564L181.486 128.557C182.49 129.107 182.49 130.047 181.486 130.619L117.115 167.249C116.553 167.529 115.931 167.674 115.302 167.674C114.672 167.674 114.051 167.529 113.488 167.249L67.8158 141.251C66.8114 140.679 66.8114 139.749 67.8158 139.199Z" fill="black"/>
<path opacity="0.1" d="M66.0078 152.475L114.347 179.975C114.641 180.14 114.972 180.227 115.31 180.227C115.647 180.227 115.979 180.14 116.272 179.975L183.311 141.838V144.417L116.272 182.565C115.979 182.73 115.647 182.817 115.31 182.817C114.972 182.817 114.641 182.73 114.347 182.565L66.0078 155.065V152.475Z" fill="black"/>
<path d="M106.703 163.367C106.703 163.339 106.703 163.317 106.703 163.29C109.428 162.15 112.358 161.562 115.319 161.563C118.279 161.562 121.209 162.15 123.934 163.29C123.934 163.317 123.934 163.339 123.934 163.367L117.132 167.217C116.579 167.509 115.958 167.657 115.33 167.646C114.696 167.658 114.07 167.51 113.511 167.217L106.725 163.367" fill="#455A64"/>
<path d="M181.483 128.556L175.685 125.256C171.55 127.643 171.561 131.482 175.73 133.858H175.769L181.483 130.613C182.487 130.046 182.487 129.122 181.483 128.556Z" fill="#455A64"/>
<path d="M67.8351 139.198L73.6327 135.898C77.773 138.285 77.7563 142.124 73.588 144.5H73.549L67.8351 141.255C66.8362 140.667 66.8362 139.748 67.8351 139.198Z" fill="#455A64"/>
<path d="M142.132 106.149L135.815 102.552C135.254 102.27 134.632 102.123 134.002 102.123C133.371 102.123 132.75 102.27 132.188 102.552L125.961 106.094C126.139 106.21 126.312 106.331 126.519 106.441C130.704 108.822 137.495 108.822 141.68 106.441C141.836 106.347 141.981 106.248 142.132 106.149Z" fill="#455A64"/>
<path d="M123.94 163.365C123.31 168.535 119.822 173.095 115.336 176.186V167.666C115.964 167.678 116.585 167.53 117.138 167.237L123.94 163.365Z" fill="#37474F"/>
<path d="M181.49 130.607L175.742 133.88C175.742 138.615 179.14 139.979 183.314 137.603V131.63C183.28 131.011 183.098 130.408 182.783 129.871C182.468 129.334 182.028 128.878 181.501 128.539L181.093 128.303L181.501 128.534C182.488 129.111 182.488 130.035 181.49 130.607Z" fill="#37474F"/>
<path d="M183.306 155.258V148.598C179.127 150.985 175.734 156.771 175.734 161.534C175.734 161.561 175.734 161.594 175.734 161.622L181.699 158.206C182.168 157.859 182.554 157.415 182.832 156.906C183.109 156.397 183.271 155.835 183.306 155.258Z" fill="#37474F"/>
<path d="M122.888 191.696C122.888 186.955 119.484 185.041 115.305 187.417V195.414C115.933 195.426 116.553 195.278 117.107 194.985L122.888 191.696Z" fill="#37474F"/>
<path d="M115.307 167.666V176.186C110.81 173.073 107.334 168.524 106.703 163.365L113.505 167.215C114.057 167.516 114.677 167.671 115.307 167.666Z" fill="#263238"/>
<path d="M107.758 191.696L113.533 194.996C114.087 195.289 114.707 195.437 115.335 195.425V187.417C111.134 185.041 107.758 186.955 107.758 191.696Z" fill="#263238"/>
<path d="M66.2254 159.462C66.1529 159.418 66.0804 159.39 66.0078 159.352V165.913C66.0382 166.487 66.1947 167.048 66.4663 167.557C66.738 168.066 67.1184 168.511 67.5814 168.861L73.7808 172.409C73.8031 167.64 70.4104 161.843 66.2254 159.462Z" fill="#263238"/>
<path d="M67.8325 141.229L73.5855 144.501C73.5855 149.237 70.1817 151.156 66.0078 148.786V142.252C66.0457 141.633 66.2311 141.031 66.5491 140.496C66.8672 139.961 67.3087 139.507 67.8381 139.172C66.8392 139.749 66.8337 140.657 67.8325 141.229Z" fill="#263238"/>
<path d="M132.965 167.909L129.394 169.938C129.253 170.029 129.137 170.15 129.053 170.294C128.97 170.437 128.922 170.598 128.914 170.763V177.402C128.924 177.567 128.972 177.727 129.056 177.87C129.139 178.013 129.255 178.135 129.394 178.227L129.718 178.408C129.867 178.484 130.032 178.524 130.2 178.524C130.368 178.524 130.534 178.484 130.683 178.408L134.249 176.379C134.39 176.289 134.508 176.168 134.593 176.024C134.677 175.881 134.726 175.72 134.734 175.554V168.899C134.724 168.734 134.676 168.574 134.592 168.431C134.509 168.288 134.393 168.165 134.254 168.074L133.93 167.892C133.78 167.819 133.614 167.782 133.446 167.785C133.278 167.788 133.113 167.831 132.965 167.909Z" fill="#C51F2C"/>
<path opacity="0.5" d="M132.965 167.909L129.394 169.938C129.253 170.029 129.137 170.15 129.053 170.294C128.97 170.437 128.922 170.598 128.914 170.763V177.402C128.924 177.567 128.972 177.727 129.056 177.87C129.139 178.013 129.255 178.135 129.394 178.227L129.718 178.408C129.867 178.484 130.032 178.524 130.2 178.524C130.368 178.524 130.534 178.484 130.683 178.408L134.249 176.379C134.39 176.289 134.508 176.168 134.593 176.024C134.677 175.881 134.726 175.72 134.734 175.554V168.899C134.724 168.734 134.676 168.574 134.592 168.431C134.509 168.288 134.393 168.165 134.254 168.074L133.93 167.892C133.78 167.819 133.614 167.782 133.446 167.785C133.278 167.788 133.113 167.831 132.965 167.909Z" fill="white"/>
<path opacity="0.1" d="M130.569 178.458C130.431 178.509 130.284 178.531 130.137 178.522C129.99 178.514 129.846 178.475 129.715 178.408L129.392 178.227C129.251 178.136 129.133 178.015 129.049 177.871C128.965 177.728 128.916 177.567 128.906 177.402V170.763C128.914 170.592 128.966 170.425 129.057 170.279L130.34 171.022C130.251 171.164 130.201 171.327 130.195 171.495V178.133C130.195 178.397 130.351 178.524 130.569 178.458Z" fill="black"/>
<path opacity="0.1" d="M130.569 178.458C130.431 178.509 130.284 178.531 130.137 178.522C129.99 178.514 129.846 178.475 129.715 178.408L129.392 178.227C129.251 178.136 129.133 178.015 129.049 177.871C128.965 177.728 128.916 177.567 128.906 177.402V170.763C128.914 170.592 128.966 170.425 129.057 170.279L130.34 171.022C130.251 171.164 130.201 171.327 130.195 171.495V178.133C130.195 178.397 130.351 178.524 130.569 178.458Z" fill="#C51F2C"/>
<path d="M130.203 171.495V178.133C130.203 178.441 130.421 178.562 130.683 178.408L134.249 176.379C134.39 176.29 134.509 176.168 134.593 176.025C134.677 175.881 134.726 175.72 134.734 175.554V168.899C134.734 168.596 134.516 168.475 134.254 168.624L130.683 170.653C130.541 170.746 130.423 170.87 130.339 171.017C130.256 171.163 130.209 171.327 130.203 171.495Z" fill="#C51F2C"/>
<path opacity="0.2" d="M130.203 171.495V178.133C130.203 178.441 130.421 178.562 130.683 178.408L134.249 176.379C134.39 176.29 134.509 176.168 134.593 176.025C134.677 175.881 134.726 175.72 134.734 175.554V168.899C134.734 168.596 134.516 168.475 134.254 168.624L130.683 170.653C130.541 170.746 130.423 170.87 130.339 171.017C130.256 171.163 130.209 171.327 130.203 171.495Z" fill="white"/>
<path d="M169.223 147.268L165.652 149.297C165.512 149.389 165.397 149.511 165.313 149.654C165.23 149.797 165.182 149.957 165.172 150.122V156.761C165.181 156.926 165.23 157.087 165.314 157.231C165.399 157.374 165.516 157.496 165.657 157.586L165.975 157.773C166.127 157.845 166.293 157.882 166.461 157.882C166.629 157.882 166.795 157.845 166.946 157.773L170.512 155.743C170.651 155.652 170.767 155.529 170.85 155.386C170.934 155.243 170.982 155.083 170.992 154.918V148.274C170.983 148.109 170.935 147.948 170.852 147.805C170.769 147.662 170.652 147.54 170.512 147.449L170.188 147.268C170.039 147.192 169.874 147.152 169.706 147.152C169.538 147.152 169.372 147.192 169.223 147.268Z" fill="#C51F2C"/>
<path opacity="0.5" d="M169.223 147.268L165.652 149.297C165.512 149.389 165.397 149.511 165.313 149.654C165.23 149.797 165.182 149.957 165.172 150.122V156.761C165.181 156.926 165.23 157.087 165.314 157.231C165.399 157.374 165.516 157.496 165.657 157.586L165.975 157.773C166.127 157.845 166.293 157.882 166.461 157.882C166.629 157.882 166.795 157.845 166.946 157.773L170.512 155.743C170.651 155.652 170.767 155.529 170.85 155.386C170.934 155.243 170.982 155.083 170.992 154.918V148.274C170.983 148.109 170.935 147.948 170.852 147.805C170.769 147.662 170.652 147.54 170.512 147.449L170.188 147.268C170.039 147.192 169.874 147.152 169.706 147.152C169.538 147.152 169.372 147.192 169.223 147.268Z" fill="white"/>
<path opacity="0.1" d="M166.829 157.816C166.691 157.867 166.544 157.889 166.397 157.88C166.25 157.872 166.106 157.833 165.975 157.766L165.652 157.585C165.512 157.494 165.395 157.372 165.312 157.229C165.228 157.086 165.18 156.925 165.172 156.76V150.121C165.173 149.954 165.221 149.79 165.311 149.648L166.6 150.38C166.513 150.521 166.465 150.682 166.461 150.847V157.486C166.461 157.755 166.617 157.898 166.829 157.816Z" fill="black"/>
<path opacity="0.1" d="M166.829 157.816C166.691 157.867 166.544 157.889 166.397 157.88C166.25 157.872 166.106 157.833 165.975 157.766L165.652 157.585C165.512 157.494 165.395 157.372 165.312 157.229C165.228 157.086 165.18 156.925 165.172 156.76V150.121C165.173 149.954 165.221 149.79 165.311 149.648L166.6 150.38C166.513 150.521 166.465 150.682 166.461 150.847V157.486C166.461 157.755 166.617 157.898 166.829 157.816Z" fill="#C51F2C"/>
<path d="M166.461 150.853V157.497C166.461 157.8 166.679 157.921 166.946 157.772L170.512 155.743C170.652 155.652 170.769 155.53 170.852 155.387C170.935 155.244 170.983 155.083 170.992 154.918V148.274C170.992 147.971 170.78 147.85 170.512 147.999L166.941 150.028C166.802 150.12 166.686 150.242 166.602 150.385C166.519 150.528 166.471 150.689 166.461 150.853Z" fill="#C51F2C"/>
<path opacity="0.2" d="M166.461 150.853V157.497C166.461 157.8 166.679 157.921 166.946 157.772L170.512 155.743C170.652 155.652 170.769 155.53 170.852 155.387C170.935 155.244 170.983 155.083 170.992 154.918V148.274C170.992 147.971 170.78 147.85 170.512 147.999L166.941 150.028C166.802 150.12 166.686 150.242 166.602 150.385C166.519 150.528 166.471 150.689 166.461 150.853Z" fill="white"/>
<path d="M143.333 171.099V173.789C143.328 173.898 143.296 174.005 143.241 174.101C143.185 174.196 143.108 174.278 143.015 174.339L139.154 176.539C139.055 176.59 138.945 176.617 138.833 176.617C138.721 176.617 138.611 176.59 138.512 176.539L138.3 176.418C138.205 176.358 138.126 176.278 138.07 176.182C138.014 176.086 137.982 175.978 137.977 175.868V173.184C137.983 173.073 138.016 172.966 138.072 172.871C138.128 172.775 138.206 172.694 138.3 172.634L142.162 170.434C142.26 170.385 142.369 170.359 142.48 170.359C142.59 170.359 142.699 170.385 142.798 170.434L143.015 170.555C143.107 170.615 143.184 170.696 143.239 170.79C143.295 170.885 143.327 170.99 143.333 171.099Z" fill="#263238"/>
<path d="M143.013 174.337L139.152 176.537C138.973 176.642 138.828 176.537 138.828 176.356V173.672C138.833 173.561 138.865 173.454 138.922 173.358C138.978 173.262 139.057 173.181 139.152 173.122L143.013 170.922C143.186 170.823 143.331 170.922 143.331 171.103V173.793C143.325 173.902 143.292 174.008 143.237 174.102C143.182 174.197 143.105 174.277 143.013 174.337Z" fill="#37474F"/>
<path d="M162.911 159.939V162.623C162.906 162.733 162.874 162.841 162.818 162.937C162.762 163.033 162.683 163.114 162.588 163.173L158.726 165.373C158.628 165.422 158.519 165.447 158.408 165.447C158.298 165.447 158.189 165.422 158.09 165.373L157.878 165.252C157.784 165.192 157.706 165.11 157.65 165.015C157.594 164.919 157.561 164.812 157.555 164.702V162.018C157.56 161.907 157.592 161.799 157.648 161.704C157.704 161.608 157.783 161.527 157.878 161.468L161.734 159.268C161.834 159.219 161.944 159.193 162.055 159.193C162.166 159.193 162.276 159.219 162.376 159.268L162.588 159.389C162.682 159.449 162.76 159.53 162.816 159.626C162.872 159.721 162.905 159.828 162.911 159.939Z" fill="#263238"/>
<path d="M162.586 163.2L158.724 165.4C158.551 165.499 158.406 165.4 158.406 165.219V162.529C158.412 162.42 158.444 162.313 158.499 162.217C158.554 162.122 158.631 162.04 158.724 161.979L162.586 159.779C162.764 159.68 162.909 159.779 162.909 159.961V162.65C162.904 162.761 162.872 162.868 162.815 162.964C162.759 163.06 162.68 163.141 162.586 163.2Z" fill="#37474F"/>
<path d="M161.78 161.826L159.498 163.124V164.224L160.764 164.945V166.221C160.738 166.717 160.593 167.2 160.342 167.631C160.091 168.062 159.74 168.428 159.319 168.701L144.811 176.951C144.69 177.019 144.561 177.071 144.426 177.105C144.389 176.976 144.37 176.843 144.37 176.709V174.289L143.36 173.712L142.099 172.997L139.828 174.284V175.384L141.1 176.104V178.304C141.086 178.538 141.129 178.772 141.226 178.985C141.323 179.199 141.472 179.386 141.658 179.531C141.859 179.674 142.629 180.081 142.774 180.191C143.617 180.686 145.157 180.46 146.931 179.454L159.207 172.458C161.875 170.94 164.04 168.217 164.04 166.408V163.108L161.78 161.826Z" fill="#263238"/>
<path d="M142.095 178.948C142.095 180.779 144.254 181.032 146.927 179.498L159.203 172.502C161.87 170.984 164.035 168.261 164.035 166.452V163.152L161.803 161.854L159.521 163.152L161.803 164.45V166.853C161.777 167.348 161.632 167.831 161.381 168.261C161.13 168.691 160.779 169.056 160.358 169.328L145.85 177.578C145.047 178.035 144.399 177.666 144.399 176.753V174.333L142.123 173.041L139.852 174.328L142.134 175.626L142.095 178.948Z" fill="#37474F"/>
<path d="M161.777 161.826L159.5 163.13L161.782 164.422L164.031 163.124L161.777 161.826Z" fill="#455A64"/>
<path d="M142.084 173.041L139.812 174.328L142.095 175.626L144.36 174.334L142.084 173.041Z" fill="#455A64"/>
<path opacity="0.15" d="M112.489 166.66L66.0078 140.145V165.896C66.0429 166.465 66.2015 167.02 66.473 167.524C66.7444 168.028 67.1224 168.469 67.5814 168.816L104.13 189.485L112.489 166.66Z" fill="black"/>
<path opacity="0.15" d="M176.821 127.99L132.153 102.574L67.8158 139.199C66.8114 139.749 66.8114 140.689 67.8158 141.261L112.484 166.677L176.821 130.063C177.82 129.486 177.82 128.562 176.821 127.99Z" fill="black"/>
<path d="M171.484 130.228L107.113 166.864C106.55 167.143 105.929 167.289 105.299 167.289C104.669 167.289 104.048 167.143 103.486 166.864L57.8135 140.849C57.2863 140.508 56.8476 140.051 56.5326 139.513C56.2176 138.975 56.0352 138.372 56 137.752V114.157C56.0343 113.537 56.2164 112.933 56.5314 112.395C56.8465 111.857 57.2857 111.4 57.8135 111.061L122.184 74.4251C122.747 74.1456 123.368 74 123.998 74C124.628 74 125.249 74.1456 125.811 74.4251L171.484 100.418C172.012 100.757 172.451 101.214 172.766 101.752C173.081 102.29 173.263 102.894 173.297 103.515V127.137C173.264 127.757 173.082 128.36 172.767 128.897C172.452 129.434 172.012 129.89 171.484 130.228Z" fill="#C51F2C"/>
<path opacity="0.45" d="M105.307 139.545V167.287C104.676 167.303 104.05 167.157 103.494 166.863L57.8157 140.848C57.2887 140.508 56.8503 140.051 56.5362 139.513C56.2221 138.975 56.0411 138.371 56.0078 137.752V114.157C56.0383 113.604 56.1856 113.063 56.4403 112.57C56.6949 112.076 57.0513 111.641 57.4865 111.291C56.8281 111.841 56.9285 112.628 57.8102 113.128L103.488 139.116C104.047 139.409 104.674 139.557 105.307 139.545Z" fill="white"/>
<path opacity="0.1" d="M105.307 139.545V167.287C104.676 167.303 104.05 167.157 103.494 166.863L57.8157 140.848C57.2887 140.508 56.8503 140.051 56.5362 139.513C56.2221 138.975 56.0411 138.371 56.0078 137.752V114.157C56.0383 113.604 56.1856 113.063 56.4403 112.57C56.6949 112.076 57.0513 111.641 57.4865 111.291C56.8281 111.841 56.9285 112.628 57.8102 113.128L103.488 139.116C104.047 139.409 104.674 139.557 105.307 139.545Z" fill="black"/>
<path opacity="0.55" d="M173.303 103.515V127.137C173.268 127.757 173.086 128.359 172.771 128.896C172.456 129.434 172.017 129.89 171.489 130.228L107.113 166.864C106.557 167.155 105.934 167.301 105.305 167.287V139.545C105.933 139.557 106.553 139.409 107.107 139.116L171.483 102.486C172.415 101.936 172.477 101.117 171.673 100.539C172.15 100.887 172.543 101.333 172.825 101.848C173.106 102.362 173.269 102.931 173.303 103.515Z" fill="white"/>
<path d="M57.8116 111.06L122.188 74.425C122.75 74.1456 123.37 74 123.999 74C124.628 74 125.248 74.1456 125.809 74.425L171.487 100.418C172.486 100.968 172.486 101.914 171.487 102.48L107.111 139.116C106.55 139.398 105.93 139.545 105.3 139.545C104.671 139.545 104.05 139.398 103.489 139.116L57.8116 113.123C56.8128 112.556 56.8128 111.632 57.8116 111.06Z" fill="#C51F2C"/>
<path opacity="0.65" d="M57.8116 111.06L122.188 74.425C122.75 74.1456 123.37 74 123.999 74C124.628 74 125.248 74.1456 125.809 74.425L171.487 100.418C172.486 100.968 172.486 101.914 171.487 102.48L107.111 139.116C106.55 139.398 105.93 139.545 105.3 139.545C104.671 139.545 104.05 139.398 103.489 139.116L57.8116 113.123C56.8128 112.556 56.8128 111.632 57.8116 111.06Z" fill="white"/>
<path d="M62.299 112.799C62.2502 112.796 62.2025 112.783 62.1595 112.76L61.0156 112.111L62.1595 111.457C62.2239 111.42 62.3003 111.41 62.372 111.429C62.4437 111.449 62.5048 111.495 62.5418 111.558C62.5788 111.622 62.5887 111.697 62.5693 111.768C62.5499 111.838 62.5029 111.899 62.4385 111.935L62.1316 112.111L62.4385 112.282C62.5023 112.319 62.5484 112.38 62.5672 112.451C62.586 112.522 62.5758 112.597 62.539 112.661C62.5146 112.703 62.4797 112.737 62.4376 112.761C62.3955 112.785 62.3477 112.798 62.299 112.799Z" fill="white"/>
<path d="M63.7371 111.149C63.6762 111.148 63.6172 111.128 63.5691 111.091C63.5209 111.054 63.4863 111.003 63.4705 110.945C63.4547 110.887 63.4586 110.826 63.4815 110.77C63.5045 110.715 63.5452 110.668 63.5976 110.637L65.0316 109.823C65.0632 109.801 65.0993 109.785 65.1374 109.777C65.1756 109.769 65.2151 109.769 65.2533 109.777C65.2915 109.785 65.3276 109.8 65.3592 109.823C65.3908 109.845 65.4173 109.874 65.4369 109.908C65.4566 109.941 65.4689 109.978 65.4731 110.016C65.4773 110.054 65.4734 110.093 65.4615 110.13C65.4496 110.166 65.43 110.2 65.404 110.229C65.378 110.257 65.3462 110.28 65.3106 110.296L63.8766 111.116C63.8332 111.137 63.7855 111.148 63.7371 111.149ZM66.5996 109.499C66.5387 109.498 66.4797 109.478 66.4316 109.441C66.3835 109.404 66.3489 109.353 66.333 109.295C66.3172 109.237 66.3211 109.176 66.344 109.12C66.367 109.065 66.4078 109.018 66.4601 108.987L67.8942 108.168C67.9586 108.131 68.035 108.122 68.1067 108.141C68.1784 108.16 68.2394 108.206 68.2764 108.27C68.3134 108.333 68.3233 108.408 68.304 108.479C68.2846 108.55 68.2376 108.61 68.1732 108.646L66.7391 109.499C66.6937 109.512 66.6451 109.512 66.5996 109.499ZM69.4677 107.849C69.4069 107.848 69.3478 107.828 69.2997 107.791C69.2516 107.754 69.217 107.703 69.2012 107.645C69.1854 107.587 69.1892 107.526 69.2122 107.47C69.2351 107.415 69.2759 107.368 69.3282 107.337L70.7623 106.523C70.7939 106.501 70.8299 106.485 70.8681 106.477C70.9063 106.469 70.9457 106.469 70.9839 106.477C71.0221 106.485 71.0582 106.5 71.0899 106.523C71.1215 106.545 71.148 106.574 71.1676 106.608C71.1872 106.641 71.1995 106.678 71.2038 106.716C71.208 106.754 71.204 106.793 71.1921 106.83C71.1802 106.866 71.1606 106.9 71.1347 106.929C71.1087 106.957 71.0769 106.98 71.0413 106.996L69.6072 107.849C69.5635 107.868 69.5158 107.878 69.4677 107.876V107.849ZM72.3303 106.199C72.2694 106.198 72.2104 106.178 72.1623 106.141C72.1141 106.104 72.0795 106.053 72.0637 105.995C72.0479 105.937 72.0518 105.876 72.0747 105.82C72.0977 105.765 72.1384 105.718 72.1908 105.687L73.6248 104.868C73.6892 104.831 73.7657 104.822 73.8373 104.841C73.909 104.86 73.9701 104.906 74.0071 104.97C74.0441 105.033 74.054 105.108 74.0346 105.179C74.0153 105.25 73.9682 105.31 73.9038 105.346L72.4698 106.199C72.4298 106.229 72.3809 106.247 72.3303 106.248V106.199ZM75.1984 104.549C75.1375 104.548 75.0785 104.528 75.0304 104.491C74.9822 104.454 74.9476 104.403 74.9318 104.345C74.916 104.287 74.9199 104.226 74.9428 104.17C74.9658 104.115 75.0065 104.068 75.0589 104.037L76.5153 103.289C76.5469 103.267 76.5829 103.251 76.6211 103.243C76.6593 103.235 76.6987 103.235 76.7369 103.243C76.7751 103.251 76.8112 103.266 76.8428 103.289C76.8745 103.311 76.901 103.34 76.9206 103.374C76.9402 103.407 76.9525 103.444 76.9567 103.482C76.961 103.52 76.957 103.559 76.9451 103.596C76.9332 103.632 76.9136 103.666 76.8876 103.695C76.8617 103.723 76.8299 103.746 76.7943 103.762L75.3602 104.582C75.3102 104.607 75.2544 104.618 75.1984 104.615V104.549ZM78.0609 102.899C78.0123 102.899 77.9645 102.886 77.9224 102.862C77.8803 102.837 77.8454 102.803 77.821 102.761C77.7844 102.699 77.7744 102.624 77.7932 102.554C77.812 102.484 77.8581 102.424 77.9214 102.387L79.3555 101.568C79.3874 101.55 79.4226 101.538 79.459 101.533C79.4955 101.529 79.5325 101.531 79.568 101.541C79.6035 101.55 79.6368 101.566 79.6659 101.589C79.695 101.611 79.7194 101.638 79.7377 101.67C79.7561 101.701 79.7679 101.736 79.7726 101.772C79.7774 101.808 79.7749 101.844 79.7653 101.879C79.7557 101.914 79.7392 101.947 79.7168 101.976C79.6943 102.004 79.6664 102.028 79.6345 102.046L78.1893 102.948C78.1511 102.973 78.1066 102.986 78.0609 102.987V102.899ZM80.9291 101.249C80.8804 101.249 80.8326 101.236 80.7905 101.212C80.7484 101.187 80.7135 101.153 80.6891 101.111C80.6522 101.048 80.6421 100.972 80.6609 100.901C80.6796 100.83 80.7258 100.77 80.7896 100.732L82.2236 99.9178C82.255 99.8992 82.2898 99.887 82.3261 99.8819C82.3623 99.8768 82.3992 99.879 82.4346 99.8882C82.47 99.8974 82.5031 99.9136 82.5321 99.9357C82.561 99.9578 82.5852 99.9854 82.6031 100.017C82.64 100.08 82.6501 100.156 82.6313 100.227C82.6125 100.298 82.5664 100.359 82.5026 100.396L81.0686 101.21C81.0393 101.273 80.9904 101.325 80.9291 101.359V101.249ZM165.561 100.385C165.512 100.386 165.465 100.374 165.421 100.352L163.987 99.5328C163.952 99.517 163.92 99.494 163.894 99.4652C163.868 99.4365 163.848 99.4027 163.837 99.3661C163.825 99.3294 163.821 99.2907 163.825 99.2525C163.829 99.2142 163.841 99.1773 163.861 99.144C163.881 99.1108 163.907 99.0819 163.939 99.0594C163.97 99.0368 164.007 99.0211 164.045 99.0132C164.083 99.0052 164.122 99.0053 164.161 99.0133C164.199 99.0214 164.235 99.0372 164.266 99.0598L165.7 99.8738C165.753 99.9045 165.794 99.9511 165.816 100.007C165.839 100.062 165.843 100.124 165.827 100.182C165.812 100.24 165.777 100.291 165.729 100.328C165.681 100.364 165.622 100.385 165.561 100.385ZM83.7693 99.7253C83.7206 99.725 83.6728 99.7122 83.6307 99.6881C83.5886 99.664 83.5537 99.6294 83.5293 99.5878C83.4927 99.525 83.4828 99.4505 83.5016 99.3805C83.5204 99.3105 83.5664 99.2506 83.6298 99.2138L85.0638 98.3998C85.1268 98.3718 85.198 98.3678 85.2638 98.3885C85.3296 98.4093 85.3852 98.4534 85.4199 98.5122C85.4547 98.5711 85.466 98.6405 85.4518 98.7071C85.4375 98.7738 85.3987 98.8328 85.3428 98.8728L83.9088 99.6868C83.8674 99.7135 83.8187 99.727 83.7693 99.7253ZM162.67 98.8673C162.621 98.8677 162.573 98.8543 162.531 98.8288L161.097 98.0148C161.065 97.9972 161.037 97.9734 161.015 97.9449C160.992 97.9163 160.976 97.8837 160.966 97.8488C160.957 97.8139 160.955 97.7775 160.96 97.7418C160.965 97.7061 160.978 97.6718 160.996 97.6408C161.034 97.5785 161.094 97.5329 161.165 97.5134C161.236 97.4939 161.311 97.5021 161.376 97.5363L162.81 98.3558C162.862 98.3865 162.903 98.4331 162.926 98.4887C162.949 98.5443 162.953 98.6058 162.937 98.6637C162.921 98.7217 162.887 98.773 162.839 98.8097C162.79 98.8465 162.731 98.8667 162.67 98.8673ZM86.6374 98.0973C86.5887 98.0971 86.541 98.0842 86.4989 98.0601C86.4568 98.036 86.4218 98.0014 86.3975 97.9598C86.3606 97.8962 86.3504 97.8208 86.3692 97.7499C86.388 97.679 86.4342 97.6181 86.4979 97.5803L87.932 96.7663C87.9633 96.7477 87.9982 96.7355 88.0344 96.7304C88.0706 96.7253 88.1075 96.7275 88.1429 96.7367C88.1783 96.7459 88.2115 96.7621 88.2404 96.7842C88.2693 96.8063 88.2935 96.8339 88.3114 96.8653C88.3483 96.929 88.3584 97.0043 88.3397 97.0753C88.3209 97.1462 88.2747 97.2071 88.211 97.2448L86.7769 98.0588C86.7407 98.0788 86.7009 98.0919 86.6597 98.0973H86.6374ZM159.808 97.2338C159.759 97.2348 159.711 97.2234 159.668 97.2008L158.234 96.3868C158.171 96.3491 158.124 96.2882 158.106 96.2173C158.087 96.1463 158.097 96.071 158.134 96.0073C158.152 95.9759 158.176 95.9483 158.205 95.9262C158.234 95.9041 158.267 95.8879 158.302 95.8787C158.338 95.8695 158.375 95.8673 158.411 95.8724C158.447 95.8775 158.482 95.8897 158.513 95.9083L159.947 96.7223C160.011 96.7591 160.057 96.819 160.076 96.889C160.094 96.959 160.084 97.0335 160.048 97.0963C160.026 97.1355 159.995 97.1686 159.957 97.1927C159.919 97.2167 159.875 97.2309 159.83 97.2338H159.808ZM89.4999 96.4638C89.4391 96.4632 89.38 96.443 89.3319 96.4062C89.2838 96.3695 89.2492 96.3182 89.2334 96.2602C89.2176 96.2023 89.2214 96.1408 89.2444 96.0852C89.2673 96.0296 89.3081 95.983 89.3604 95.9523L90.7889 95.1383C90.8205 95.1157 90.8565 95.0999 90.8947 95.0918C90.9329 95.0838 90.9724 95.0837 91.0106 95.0917C91.0488 95.0996 91.0848 95.1153 91.1165 95.1379C91.1481 95.1604 91.1746 95.1893 91.1942 95.2225C91.2138 95.2558 91.2262 95.2927 91.2304 95.331C91.2346 95.3692 91.2306 95.4079 91.2187 95.4446C91.2068 95.4812 91.1873 95.515 91.1613 95.5437C91.1353 95.5725 91.1035 95.5955 91.0679 95.6113L89.6394 96.4253C89.6057 96.4464 89.5675 96.4595 89.5278 96.4638H89.4999ZM156.934 95.6058C156.885 95.6062 156.837 95.5928 156.795 95.5673L155.361 94.7533C155.329 94.7357 155.301 94.7119 155.278 94.6834C155.256 94.6548 155.24 94.6222 155.23 94.5873C155.221 94.5524 155.219 94.516 155.224 94.4803C155.229 94.4446 155.241 94.4102 155.26 94.3793C155.298 94.317 155.358 94.2714 155.429 94.2519C155.499 94.2324 155.575 94.2407 155.64 94.2748L157.074 95.0943C157.126 95.125 157.167 95.1716 157.19 95.2272C157.213 95.2828 157.217 95.3443 157.201 95.4022C157.185 95.4602 157.15 95.5115 157.102 95.5482C157.054 95.585 156.995 95.6052 156.934 95.6058ZM92.3625 94.8358C92.3138 94.8355 92.266 94.8227 92.2239 94.7986C92.1818 94.7745 92.1469 94.7399 92.1225 94.6983C92.0857 94.6347 92.0755 94.5593 92.0943 94.4884C92.1131 94.4175 92.1593 94.3566 92.223 94.3188L93.657 93.5048C93.6884 93.4862 93.7232 93.474 93.7595 93.4689C93.7957 93.4638 93.8326 93.466 93.868 93.4752C93.9034 93.4844 93.9366 93.5006 93.9655 93.5227C93.9944 93.5448 94.0186 93.5724 94.0365 93.6038C94.0734 93.6675 94.0835 93.7428 94.0647 93.8138C94.046 93.8847 93.9998 93.9456 93.936 93.9833L92.502 94.7973C92.4677 94.8172 92.4298 94.8303 92.3904 94.8358H92.3625ZM154.077 93.9778C154.028 93.9762 153.98 93.963 153.938 93.9393L152.504 93.1253C152.44 93.0876 152.394 93.0267 152.375 92.9558C152.356 92.8848 152.366 92.8095 152.403 92.7458C152.421 92.7144 152.445 92.6868 152.474 92.6647C152.503 92.6426 152.536 92.6264 152.572 92.6172C152.607 92.608 152.644 92.6058 152.68 92.6109C152.717 92.616 152.751 92.6282 152.783 92.6468L154.217 93.4608C154.281 93.4986 154.327 93.5595 154.345 93.6304C154.364 93.7013 154.354 93.7767 154.317 93.8403C154.293 93.8819 154.258 93.9165 154.216 93.9406C154.174 93.9647 154.126 93.9775 154.077 93.9778ZM95.2529 93.2023C95.2042 93.202 95.1565 93.1892 95.1144 93.1651C95.0723 93.141 95.0373 93.1064 95.013 93.0648C94.9764 93.002 94.9664 92.9275 94.9852 92.8575C95.004 92.7875 95.0501 92.7276 95.1134 92.6908L96.5475 91.8988C96.5791 91.8762 96.6151 91.8604 96.6533 91.8523C96.6914 91.8443 96.7309 91.8442 96.7691 91.8522C96.8073 91.8601 96.8434 91.8758 96.875 91.8984C96.9067 91.9209 96.9332 91.9498 96.9528 91.983C96.9724 92.0163 96.9847 92.0532 96.9889 92.0915C96.9932 92.1297 96.9892 92.1684 96.9773 92.2051C96.9654 92.2417 96.9458 92.2755 96.9198 92.3042C96.8939 92.333 96.8621 92.356 96.8265 92.3718L95.3924 93.1858C95.3486 93.2049 95.3001 93.2107 95.2529 93.2023ZM151.231 92.3443C151.182 92.3447 151.134 92.3313 151.092 92.3058L149.658 91.4918C149.622 91.476 149.591 91.453 149.565 91.4242C149.539 91.3955 149.519 91.3617 149.507 91.3251C149.495 91.2885 149.491 91.2498 149.495 91.2115C149.5 91.1732 149.512 91.1363 149.532 91.103C149.551 91.0698 149.578 91.0409 149.609 91.0184C149.641 90.9958 149.677 90.9801 149.715 90.9721C149.753 90.9642 149.793 90.9643 149.831 90.9723C149.869 90.9804 149.905 90.9962 149.937 91.0188L151.371 91.8328C151.423 91.8635 151.464 91.9101 151.487 91.9657C151.51 92.0213 151.514 92.0828 151.498 92.1407C151.482 92.1987 151.448 92.25 151.4 92.2867C151.351 92.3235 151.292 92.3437 151.231 92.3443ZM98.121 91.5743C98.0724 91.5741 98.0246 91.5612 97.9825 91.5371C97.9404 91.513 97.9054 91.4784 97.8811 91.4368C97.8442 91.3732 97.8341 91.2978 97.8529 91.2269C97.8716 91.156 97.9178 91.0951 97.9815 91.0573L99.3933 90.2488C99.4246 90.2302 99.4595 90.218 99.4957 90.2129C99.532 90.2078 99.5689 90.21 99.6043 90.2192C99.6396 90.2284 99.6728 90.2446 99.7017 90.2667C99.7307 90.2888 99.7548 90.3164 99.7727 90.3478C99.8096 90.4115 99.8198 90.4868 99.801 90.5578C99.7822 90.6287 99.736 90.6896 99.6723 90.7273L98.2773 91.5358C98.2306 91.5645 98.1759 91.578 98.121 91.5743ZM148.369 90.7163C148.32 90.7153 148.272 90.7021 148.229 90.6778L146.823 89.8638C146.76 89.8261 146.713 89.7652 146.695 89.6943C146.676 89.6233 146.686 89.548 146.723 89.4843C146.741 89.4529 146.765 89.4253 146.794 89.4032C146.823 89.3811 146.856 89.3649 146.891 89.3557C146.927 89.3465 146.964 89.3443 147 89.3494C147.036 89.3545 147.071 89.3667 147.102 89.3853L148.536 90.1993C148.6 90.2371 148.646 90.298 148.665 90.3689C148.684 90.4398 148.674 90.5152 148.637 90.5788C148.61 90.6247 148.571 90.662 148.523 90.6864C148.476 90.7108 148.422 90.7212 148.369 90.7163ZM100.989 89.9408C100.928 89.9402 100.869 89.92 100.821 89.8832C100.773 89.8465 100.738 89.7952 100.723 89.7372C100.707 89.6793 100.711 89.6178 100.734 89.5622C100.757 89.5066 100.797 89.46 100.85 89.4293L102.278 88.6153C102.31 88.5927 102.346 88.5769 102.384 88.5688C102.422 88.5608 102.462 88.5607 102.5 88.5687C102.538 88.5766 102.574 88.5923 102.606 88.6149C102.637 88.6374 102.664 88.6663 102.683 88.6995C102.703 88.7328 102.715 88.7697 102.72 88.808C102.724 88.8462 102.72 88.8849 102.708 88.9216C102.696 88.9582 102.676 88.992 102.65 89.0207C102.625 89.0495 102.593 89.0725 102.557 89.0883L101.129 89.9023C101.087 89.9278 101.038 89.9412 100.989 89.9408ZM145.501 89.0828C145.452 89.0832 145.403 89.0698 145.361 89.0443L143.927 88.2303C143.871 88.1903 143.833 88.1313 143.818 88.0646C143.804 87.998 143.815 87.9286 143.85 87.8697C143.885 87.8109 143.941 87.7668 144.006 87.746C144.072 87.7253 144.143 87.7293 144.206 87.7573L145.64 88.5713C145.693 88.602 145.733 88.6486 145.756 88.7042C145.779 88.7598 145.783 88.8213 145.767 88.8792C145.752 88.9372 145.717 88.9885 145.669 89.0252C145.621 89.062 145.562 89.0822 145.501 89.0828ZM103.857 88.3128C103.809 88.3125 103.761 88.2997 103.719 88.2756C103.677 88.2515 103.642 88.2169 103.617 88.1753C103.58 88.1117 103.57 88.0363 103.589 87.9654C103.608 87.8945 103.654 87.8336 103.718 87.7958L105.152 86.9818C105.183 86.9632 105.218 86.951 105.254 86.9459C105.291 86.9408 105.327 86.943 105.363 86.9522C105.398 86.9614 105.431 86.9776 105.46 86.9997C105.489 87.0218 105.513 87.0494 105.531 87.0808C105.568 87.1445 105.578 87.2198 105.56 87.2908C105.541 87.3617 105.495 87.4226 105.431 87.4603L103.997 88.2743C103.955 88.3004 103.907 88.3138 103.857 88.3128ZM142.644 87.4548C142.595 87.4558 142.546 87.4424 142.504 87.4163L141.07 86.6023C141.038 86.5843 141.01 86.5602 140.988 86.5315C140.966 86.5028 140.949 86.47 140.94 86.435C140.93 86.4001 140.927 86.3635 140.932 86.3276C140.937 86.2917 140.949 86.257 140.967 86.2256C140.985 86.1942 141.01 86.1666 141.039 86.1445C141.068 86.1224 141.101 86.1061 141.137 86.0967C141.172 86.0872 141.209 86.0848 141.246 86.0894C141.282 86.0941 141.317 86.1058 141.349 86.1238L142.783 86.9378C142.847 86.9756 142.893 87.0365 142.912 87.1074C142.931 87.1783 142.921 87.2537 142.884 87.3173C142.859 87.3597 142.823 87.3948 142.78 87.419C142.737 87.4431 142.688 87.4555 142.638 87.4548H142.644ZM106.72 86.6793C106.671 86.679 106.623 86.6662 106.581 86.6421C106.539 86.618 106.504 86.5834 106.48 86.5418C106.443 86.479 106.433 86.4045 106.452 86.3345C106.471 86.2645 106.517 86.2046 106.58 86.1678L108.014 85.3538C108.077 85.3258 108.149 85.3218 108.214 85.3425C108.28 85.3633 108.336 85.4074 108.37 85.4662C108.405 85.5251 108.417 85.5945 108.402 85.6611C108.388 85.7278 108.349 85.7868 108.293 85.8268L106.859 86.6463C106.815 86.6698 106.765 86.6812 106.714 86.6793H106.72ZM139.77 85.8488C139.721 85.8492 139.673 85.8358 139.631 85.8103L138.197 84.9963C138.161 84.9805 138.129 84.9575 138.103 84.9287C138.077 84.9 138.058 84.8662 138.046 84.8296C138.034 84.793 138.03 84.7542 138.034 84.716C138.038 84.6777 138.051 84.6408 138.07 84.6075C138.09 84.5743 138.116 84.5454 138.148 84.5229C138.18 84.5003 138.216 84.4846 138.254 84.4766C138.292 84.4687 138.332 84.4688 138.37 84.4768C138.408 84.4849 138.444 84.5007 138.476 84.5233L139.91 85.3373C139.962 85.368 140.003 85.4146 140.026 85.4702C140.049 85.5258 140.053 85.5873 140.037 85.6452C140.021 85.7032 139.986 85.7545 139.938 85.7912C139.89 85.828 139.831 85.8482 139.77 85.8488ZM109.582 85.0788C109.521 85.0782 109.462 85.058 109.414 85.0212C109.366 84.9845 109.332 84.9332 109.316 84.8752C109.3 84.8173 109.304 84.7558 109.327 84.7002C109.35 84.6446 109.39 84.598 109.443 84.5673L110.877 83.7478C110.941 83.7114 111.018 83.7016 111.089 83.7207C111.161 83.7398 111.222 83.7861 111.259 83.8496C111.296 83.913 111.306 83.9884 111.287 84.059C111.267 84.1297 111.22 84.1899 111.156 84.2263L109.722 85.0403C109.677 85.0564 109.629 85.0602 109.582 85.0513V85.0788ZM136.924 84.2208C136.875 84.2225 136.826 84.209 136.785 84.1823L135.351 83.3683C135.287 83.3306 135.241 83.2697 135.222 83.1988C135.203 83.1278 135.213 83.0525 135.25 82.9888C135.288 82.9264 135.348 82.881 135.419 82.8625C135.49 82.8439 135.566 82.8538 135.63 82.8898L137.064 83.7038C137.128 83.7416 137.174 83.8025 137.193 83.8734C137.211 83.9443 137.201 84.0197 137.164 84.0833C137.136 84.1233 137.097 84.1551 137.052 84.1754C137.007 84.1957 136.957 84.2038 136.908 84.1988L136.924 84.2208ZM112.467 83.4453C112.406 83.4447 112.347 83.4245 112.299 83.3877C112.251 83.351 112.216 83.2997 112.201 83.2417C112.185 83.1838 112.189 83.1223 112.212 83.0667C112.235 83.0111 112.275 82.9645 112.328 82.9338L113.756 82.1198C113.788 82.0972 113.824 82.0814 113.862 82.0733C113.9 82.0653 113.94 82.0652 113.978 82.0732C114.016 82.0811 114.052 82.0968 114.084 82.1194C114.115 82.1419 114.142 82.1708 114.161 82.204C114.181 82.2373 114.193 82.2742 114.198 82.3125C114.202 82.3507 114.198 82.3894 114.186 82.4261C114.174 82.4627 114.155 82.4965 114.129 82.5252C114.103 82.554 114.071 82.577 114.035 82.5928L112.607 83.4123C112.556 83.427 112.502 83.4288 112.45 83.4178L112.467 83.4453ZM134.039 82.5488C133.99 82.5492 133.942 82.5358 133.9 82.5103L132.466 81.6963C132.43 81.6805 132.399 81.6575 132.373 81.6287C132.347 81.6 132.327 81.5662 132.315 81.5296C132.303 81.493 132.299 81.4542 132.303 81.416C132.308 81.3777 132.32 81.3408 132.34 81.3075C132.359 81.2743 132.386 81.2454 132.417 81.2229C132.449 81.2003 132.485 81.1846 132.523 81.1766C132.562 81.1687 132.601 81.1688 132.639 81.1768C132.677 81.1849 132.713 81.2007 132.745 81.2233L134.179 82.0373C134.231 82.068 134.272 82.1146 134.295 82.1702C134.318 82.2258 134.322 82.2873 134.306 82.3452C134.29 82.4032 134.256 82.4545 134.208 82.4912C134.159 82.528 134.1 82.5482 134.039 82.5488ZM115.313 81.7788C115.252 81.7782 115.193 81.758 115.145 81.7212C115.097 81.6845 115.062 81.6332 115.046 81.5752C115.031 81.5173 115.034 81.4558 115.057 81.4002C115.08 81.3446 115.121 81.298 115.174 81.2673L116.608 80.4478C116.672 80.4136 116.748 80.4054 116.819 80.4249C116.889 80.4444 116.95 80.49 116.987 80.5523C117.006 80.5832 117.018 80.6176 117.023 80.6533C117.029 80.689 117.026 80.7254 117.017 80.7603C117.008 80.7952 116.991 80.8278 116.969 80.8564C116.947 80.8849 116.919 80.9087 116.887 80.9263L115.453 81.7403C115.412 81.7703 115.364 81.7876 115.313 81.7898V81.7788ZM131.199 80.9318C131.15 80.9328 131.101 80.9194 131.06 80.8933L129.626 80.0793C129.594 80.0613 129.566 80.0372 129.543 80.0085C129.521 79.9798 129.505 79.947 129.495 79.912C129.485 79.877 129.483 79.8405 129.488 79.8046C129.492 79.7687 129.504 79.734 129.522 79.7026C129.541 79.6712 129.565 79.6436 129.594 79.6215C129.623 79.5994 129.657 79.5831 129.692 79.5737C129.728 79.5642 129.765 79.5618 129.801 79.5664C129.838 79.5711 129.873 79.5828 129.905 79.6008L131.339 80.4148C131.403 80.4526 131.449 80.5135 131.467 80.5844C131.486 80.6553 131.476 80.7307 131.439 80.7943C131.415 80.8359 131.38 80.8705 131.338 80.8946C131.296 80.9187 131.248 80.9315 131.199 80.9318ZM118.198 80.1563C118.149 80.156 118.101 80.1432 118.059 80.1191C118.017 80.095 117.982 80.0604 117.958 80.0188C117.921 79.956 117.911 79.8815 117.93 79.8115C117.949 79.7415 117.995 79.6816 118.058 79.6448L119.492 78.8308C119.555 78.8028 119.627 78.7988 119.692 78.8195C119.758 78.8403 119.814 78.8844 119.849 78.9432C119.883 79.0021 119.895 79.0715 119.88 79.1381C119.866 79.2048 119.827 79.2638 119.771 79.3038L118.337 80.1233C118.288 80.1499 118.232 80.1614 118.176 80.1563H118.198ZM128.331 79.2983C128.283 79.298 128.235 79.2867 128.192 79.2653L126.735 78.4458C126.679 78.4058 126.641 78.3468 126.626 78.2801C126.612 78.2135 126.623 78.1441 126.658 78.0852C126.693 78.0264 126.749 77.9823 126.814 77.9615C126.88 77.9408 126.951 77.9448 127.014 77.9728L128.448 78.7868C128.501 78.8175 128.541 78.8641 128.564 78.9197C128.587 78.9753 128.591 79.0368 128.575 79.0947C128.56 79.1527 128.525 79.204 128.477 79.2407C128.429 79.2775 128.37 79.2977 128.309 79.2983H128.331ZM121.077 78.5283C121.016 78.5277 120.957 78.5075 120.909 78.4707C120.861 78.434 120.826 78.3827 120.811 78.3247C120.795 78.2668 120.799 78.2053 120.822 78.1497C120.845 78.0941 120.885 78.0475 120.938 78.0168L122.372 77.1973C122.436 77.1609 122.513 77.1511 122.584 77.1702C122.656 77.1893 122.717 77.2356 122.754 77.2991C122.791 77.3625 122.801 77.4379 122.781 77.5085C122.762 77.5792 122.715 77.6394 122.651 77.6758L121.217 78.4898C121.166 78.523 121.104 78.5367 121.044 78.5283H121.077ZM125.48 77.6703C125.43 77.672 125.382 77.6585 125.34 77.6318L124.286 77.0488C124.286 77.0488 124.168 77.0488 123.995 77.0488C123.921 77.049 123.849 77.0214 123.794 76.9714C123.739 76.9214 123.705 76.8528 123.7 76.7793C123.697 76.7449 123.701 76.7103 123.711 76.6774C123.722 76.6446 123.74 76.6142 123.762 76.588C123.785 76.5619 123.813 76.5405 123.845 76.5252C123.876 76.5099 123.91 76.5009 123.945 76.4988H123.995C124.186 76.4927 124.375 76.5226 124.553 76.5868L125.591 77.1808C125.644 77.2115 125.685 77.2581 125.707 77.3137C125.73 77.3693 125.734 77.4308 125.718 77.4887C125.703 77.5467 125.668 77.598 125.62 77.6347C125.572 77.6715 125.513 77.6917 125.452 77.6923L125.48 77.6703Z" fill="white"/>
<path d="M166.994 102.139C166.945 102.14 166.896 102.127 166.853 102.103C166.809 102.079 166.774 102.044 166.749 102.002C166.73 101.97 166.718 101.936 166.713 101.9C166.708 101.864 166.711 101.827 166.721 101.792C166.731 101.757 166.748 101.725 166.771 101.697C166.794 101.668 166.822 101.645 166.855 101.628L167.156 101.452L166.855 101.276C166.79 101.24 166.743 101.18 166.723 101.11C166.703 101.04 166.713 100.965 166.749 100.902C166.787 100.839 166.849 100.793 166.921 100.775C166.993 100.756 167.069 100.766 167.134 100.803L168.25 101.452L167.134 102.101C167.092 102.126 167.043 102.139 166.994 102.139Z" fill="white"/>
<path d="M105.291 137.071C105.1 137.076 104.911 137.045 104.733 136.977L103.695 136.389C103.663 136.371 103.635 136.347 103.613 136.318C103.59 136.289 103.574 136.256 103.564 136.221C103.555 136.186 103.552 136.15 103.557 136.114C103.562 136.078 103.573 136.043 103.592 136.012C103.61 135.98 103.634 135.953 103.664 135.931C103.693 135.909 103.726 135.892 103.761 135.883C103.797 135.874 103.834 135.871 103.87 135.876C103.907 135.88 103.942 135.892 103.974 135.91L104.995 136.493C104.995 136.493 105.107 136.521 105.28 136.521C105.356 136.518 105.43 136.544 105.486 136.595C105.543 136.645 105.577 136.715 105.581 136.79C105.584 136.825 105.58 136.859 105.569 136.892C105.558 136.925 105.541 136.955 105.518 136.981C105.495 137.008 105.467 137.029 105.436 137.044C105.405 137.06 105.37 137.069 105.335 137.071H105.291ZM106.814 136.383C106.765 136.383 106.718 136.37 106.676 136.346C106.634 136.322 106.599 136.287 106.574 136.246C106.537 136.182 106.527 136.107 106.546 136.036C106.565 135.965 106.611 135.904 106.675 135.866L108.109 135.052C108.173 135.016 108.25 135.006 108.321 135.025C108.393 135.044 108.454 135.09 108.491 135.154C108.528 135.217 108.538 135.293 108.518 135.363C108.499 135.434 108.452 135.494 108.388 135.531L106.954 136.345C106.912 136.37 106.863 136.383 106.814 136.383ZM102.412 135.608C102.363 135.607 102.315 135.596 102.272 135.575L100.844 134.755C100.808 134.739 100.776 134.716 100.75 134.688C100.724 134.659 100.705 134.625 100.693 134.588C100.681 134.552 100.677 134.513 100.681 134.475C100.685 134.437 100.698 134.4 100.717 134.366C100.737 134.333 100.763 134.304 100.795 134.282C100.827 134.259 100.863 134.243 100.901 134.235C100.939 134.228 100.979 134.228 101.017 134.236C101.055 134.244 101.091 134.26 101.123 134.282L102.551 135.096C102.603 135.127 102.644 135.173 102.667 135.229C102.69 135.285 102.694 135.346 102.678 135.404C102.662 135.462 102.628 135.513 102.58 135.55C102.531 135.587 102.472 135.607 102.412 135.608ZM109.666 134.75C109.605 134.749 109.546 134.729 109.497 134.692C109.449 134.655 109.415 134.604 109.399 134.546C109.383 134.488 109.387 134.427 109.41 134.371C109.433 134.315 109.474 134.269 109.526 134.238L110.96 133.424C110.992 133.402 111.028 133.386 111.066 133.378C111.104 133.37 111.144 133.37 111.182 133.377C111.22 133.385 111.256 133.401 111.288 133.424C111.319 133.446 111.346 133.475 111.365 133.508C111.385 133.542 111.397 133.579 111.402 133.617C111.406 133.655 111.402 133.694 111.39 133.73C111.378 133.767 111.358 133.801 111.332 133.83C111.306 133.858 111.275 133.881 111.239 133.897L109.805 134.711C109.767 134.736 109.722 134.749 109.677 134.75H109.666ZM99.5378 133.98C99.4885 133.981 99.44 133.967 99.3983 133.941L97.9754 133.149C97.9435 133.131 97.9155 133.108 97.8931 133.079C97.8707 133.051 97.8543 133.018 97.8449 132.983C97.8356 132.948 97.8334 132.912 97.8386 132.876C97.8437 132.84 97.8561 132.806 97.875 132.775C97.9123 132.713 97.9727 132.667 98.0434 132.648C98.1141 132.628 98.1897 132.636 98.2544 132.671L99.6885 133.49C99.7409 133.521 99.7816 133.567 99.8046 133.623C99.8275 133.679 99.8314 133.74 99.8156 133.798C99.7998 133.856 99.7652 133.907 99.717 133.944C99.6689 133.981 99.6099 134.001 99.549 134.002L99.5378 133.98ZM112.545 133.149C112.484 133.149 112.425 133.128 112.377 133.092C112.329 133.055 112.294 133.004 112.278 132.946C112.262 132.888 112.266 132.826 112.289 132.771C112.312 132.715 112.353 132.668 112.405 132.638L113.839 131.818C113.904 131.782 113.98 131.772 114.052 131.791C114.124 131.81 114.185 131.856 114.222 131.92C114.259 131.983 114.269 132.059 114.249 132.129C114.23 132.2 114.183 132.26 114.118 132.297L112.684 133.111C112.642 133.136 112.594 133.149 112.545 133.149ZM96.6864 132.374C96.6378 132.375 96.5898 132.363 96.5469 132.341L95.1129 131.499C95.0773 131.483 95.0455 131.46 95.0195 131.432C94.9935 131.403 94.974 131.369 94.9621 131.332C94.9502 131.296 94.9462 131.257 94.9504 131.219C94.9546 131.181 94.967 131.144 94.9866 131.11C95.0062 131.077 95.0327 131.048 95.0643 131.026C95.096 131.003 95.1321 130.987 95.1703 130.979C95.2085 130.972 95.2479 130.972 95.2861 130.98C95.3243 130.988 95.3603 131.004 95.3919 131.026L96.8259 131.84C96.8893 131.877 96.9354 131.937 96.9542 132.007C96.973 132.077 96.963 132.151 96.9264 132.214C96.9013 132.255 96.8661 132.288 96.824 132.311C96.782 132.334 96.7346 132.346 96.6864 132.346V132.374ZM115.407 131.499C115.359 131.499 115.311 131.486 115.269 131.462C115.227 131.438 115.192 131.403 115.167 131.362C115.131 131.299 115.121 131.224 115.14 131.154C115.158 131.084 115.204 131.024 115.268 130.988L116.702 130.174C116.733 130.151 116.77 130.135 116.808 130.127C116.846 130.119 116.885 130.119 116.924 130.127C116.962 130.135 116.998 130.151 117.029 130.173C117.061 130.196 117.088 130.225 117.107 130.258C117.127 130.291 117.139 130.328 117.143 130.366C117.148 130.405 117.144 130.443 117.132 130.48C117.12 130.517 117.1 130.55 117.074 130.579C117.048 130.608 117.016 130.631 116.981 130.647L115.569 131.455C115.521 131.486 115.465 131.501 115.407 131.499ZM93.8072 130.718C93.7578 130.719 93.7093 130.706 93.6677 130.68L92.2448 129.849C92.2128 129.831 92.1848 129.808 92.1624 129.779C92.14 129.751 92.1236 129.718 92.1143 129.683C92.1049 129.648 92.1027 129.612 92.1079 129.576C92.1131 129.54 92.1254 129.506 92.1443 129.475C92.1817 129.413 92.242 129.367 92.3127 129.348C92.3834 129.328 92.4591 129.336 92.5238 129.371L93.9578 130.19C94.0102 130.221 94.051 130.267 94.0739 130.323C94.0969 130.379 94.1007 130.44 94.0849 130.498C94.0691 130.556 94.0345 130.607 93.9864 130.644C93.9382 130.681 93.8792 130.701 93.8183 130.702L93.8072 130.718ZM118.275 129.849C118.215 129.849 118.156 129.828 118.107 129.792C118.059 129.755 118.025 129.704 118.009 129.646C117.993 129.588 117.997 129.526 118.02 129.471C118.043 129.415 118.084 129.368 118.136 129.338L119.57 128.518C119.634 128.482 119.711 128.472 119.783 128.491C119.854 128.51 119.915 128.556 119.952 128.62C119.989 128.683 119.999 128.759 119.98 128.829C119.96 128.9 119.913 128.96 119.849 128.997L118.415 129.849C118.369 129.862 118.321 129.862 118.275 129.849ZM90.9335 129.074C90.885 129.073 90.8373 129.062 90.794 129.041L89.3655 128.221C89.3299 128.205 89.2981 128.182 89.2721 128.154C89.2462 128.125 89.2266 128.091 89.2147 128.054C89.2028 128.018 89.1988 127.979 89.203 127.941C89.2072 127.903 89.2196 127.866 89.2392 127.832C89.2588 127.799 89.2853 127.77 89.3169 127.748C89.3486 127.725 89.3847 127.709 89.4229 127.701C89.4611 127.694 89.5005 127.694 89.5387 127.702C89.5769 127.71 89.6129 127.726 89.6445 127.748L91.073 128.562C91.1253 128.593 91.1661 128.639 91.189 128.695C91.212 128.751 91.2159 128.812 91.2 128.87C91.1842 128.928 91.1496 128.979 91.1015 129.016C91.0534 129.053 90.9944 129.073 90.9335 129.074ZM121.149 128.227C121.088 128.226 121.029 128.206 120.981 128.169C120.933 128.132 120.898 128.081 120.883 128.023C120.867 127.965 120.871 127.904 120.894 127.848C120.917 127.792 120.957 127.746 121.01 127.715L122.438 126.901C122.47 126.879 122.506 126.863 122.544 126.855C122.582 126.847 122.622 126.847 122.66 126.854C122.698 126.862 122.734 126.878 122.766 126.901C122.797 126.923 122.824 126.952 122.843 126.985C122.863 127.019 122.875 127.056 122.88 127.094C122.884 127.132 122.88 127.171 122.868 127.207C122.856 127.244 122.836 127.278 122.811 127.307C122.785 127.335 122.753 127.358 122.717 127.374L121.283 128.199C121.241 128.218 121.195 128.227 121.149 128.227ZM88.0932 127.457C88.0439 127.458 87.9954 127.444 87.9537 127.418L86.5197 126.604C86.4878 126.586 86.4598 126.563 86.4373 126.534C86.4149 126.506 86.3986 126.473 86.3892 126.438C86.3798 126.403 86.3777 126.367 86.3828 126.331C86.388 126.295 86.4004 126.261 86.4192 126.23C86.4566 126.168 86.5169 126.122 86.5877 126.103C86.6584 126.083 86.734 126.091 86.7987 126.126L88.2272 126.945C88.2795 126.976 88.3203 127.022 88.3432 127.078C88.3662 127.134 88.3701 127.195 88.3542 127.253C88.3384 127.311 88.3038 127.362 88.2557 127.399C88.2076 127.436 88.1486 127.456 88.0877 127.457H88.0932ZM124.012 126.599C123.951 126.598 123.892 126.578 123.844 126.541C123.796 126.504 123.761 126.453 123.745 126.395C123.729 126.337 123.733 126.276 123.756 126.22C123.779 126.164 123.82 126.118 123.872 126.087L125.306 125.268C125.371 125.231 125.447 125.221 125.519 125.24C125.59 125.26 125.651 125.306 125.688 125.369C125.725 125.433 125.735 125.508 125.716 125.579C125.697 125.649 125.65 125.71 125.585 125.746L124.146 126.549C124.105 126.579 124.056 126.596 124.006 126.599H124.012ZM85.2251 125.823C85.1767 125.823 85.129 125.811 85.0856 125.79L83.6571 124.971C83.6216 124.955 83.5898 124.932 83.5638 124.903C83.5378 124.874 83.5182 124.841 83.5063 124.804C83.4944 124.767 83.4905 124.729 83.4947 124.69C83.4989 124.652 83.5112 124.615 83.5308 124.582C83.5505 124.549 83.577 124.52 83.6086 124.497C83.6402 124.475 83.6763 124.459 83.7145 124.451C83.7527 124.443 83.7922 124.443 83.8304 124.451C83.8685 124.459 83.9046 124.475 83.9361 124.498L85.3646 125.312C85.4289 125.347 85.4762 125.407 85.4961 125.477C85.5159 125.547 85.5068 125.622 85.4706 125.686C85.4449 125.728 85.4081 125.764 85.364 125.788C85.3199 125.812 85.27 125.824 85.2195 125.823H85.2251ZM126.874 124.965C126.826 124.965 126.778 124.952 126.736 124.928C126.694 124.904 126.659 124.869 126.634 124.828C126.598 124.765 126.588 124.69 126.607 124.62C126.625 124.55 126.671 124.49 126.735 124.454L128.169 123.64C128.232 123.612 128.303 123.608 128.369 123.628C128.435 123.649 128.49 123.693 128.525 123.752C128.56 123.811 128.571 123.88 128.557 123.947C128.542 124.014 128.504 124.073 128.448 124.113L127.014 124.932C126.969 124.956 126.919 124.967 126.869 124.965H126.874ZM82.3626 124.195C82.3133 124.196 82.2647 124.183 82.2231 124.157L80.789 123.343C80.7571 123.325 80.7291 123.301 80.7067 123.273C80.6843 123.244 80.6679 123.211 80.6585 123.177C80.6492 123.142 80.647 123.105 80.6522 123.07C80.6573 123.034 80.6697 123 80.6886 122.969C80.7259 122.906 80.7863 122.861 80.857 122.841C80.9277 122.822 81.0033 122.83 81.068 122.864L82.5021 123.684C82.5545 123.714 82.5952 123.761 82.6182 123.817C82.6411 123.872 82.645 123.934 82.6292 123.992C82.6134 124.05 82.5788 124.101 82.5306 124.138C82.4825 124.174 82.4235 124.195 82.3626 124.195ZM129.742 123.337C129.681 123.337 129.622 123.316 129.574 123.28C129.526 123.243 129.492 123.192 129.476 123.134C129.46 123.076 129.464 123.014 129.487 122.959C129.51 122.903 129.55 122.856 129.603 122.826L131.037 122.006C131.101 121.97 131.178 121.96 131.249 121.979C131.321 121.998 131.382 122.044 131.419 122.108C131.456 122.171 131.466 122.247 131.447 122.317C131.427 122.388 131.38 122.448 131.316 122.485L129.882 123.299C129.838 123.325 129.788 123.339 129.737 123.337H129.742ZM79.5224 122.562C79.4739 122.561 79.4262 122.55 79.3829 122.529L77.9544 121.715C77.8908 121.677 77.8443 121.616 77.8246 121.546C77.8049 121.475 77.8134 121.4 77.8484 121.335C77.8867 121.272 77.9484 121.227 78.0204 121.208C78.0924 121.19 78.1688 121.2 78.2334 121.236L79.6619 122.05C79.7142 122.081 79.755 122.127 79.7779 122.183C79.8009 122.239 79.8048 122.3 79.789 122.358C79.7731 122.416 79.7385 122.467 79.6904 122.504C79.6423 122.541 79.5833 122.561 79.5224 122.562ZM132.638 121.704C132.577 121.703 132.518 121.683 132.47 121.646C132.422 121.609 132.388 121.558 132.372 121.5C132.356 121.442 132.36 121.381 132.383 121.325C132.406 121.269 132.447 121.223 132.499 121.192L133.927 120.378C133.992 120.342 134.068 120.332 134.14 120.35C134.212 120.369 134.274 120.414 134.312 120.477C134.347 120.542 134.356 120.617 134.336 120.688C134.316 120.758 134.27 120.819 134.206 120.857L132.778 121.671C132.725 121.697 132.665 121.709 132.605 121.704H132.638ZM76.6598 120.934C76.6105 120.935 76.562 120.921 76.5203 120.895L75.0863 120.081C75.0304 120.041 74.9916 119.982 74.9774 119.915C74.9631 119.849 74.9744 119.779 75.0092 119.721C75.0439 119.662 75.0995 119.618 75.1653 119.597C75.2311 119.576 75.3023 119.58 75.3653 119.608L76.7993 120.422C76.8517 120.453 76.8925 120.499 76.9154 120.555C76.9384 120.611 76.9422 120.672 76.9264 120.73C76.9106 120.788 76.876 120.839 76.8279 120.876C76.7797 120.913 76.7207 120.933 76.6598 120.934ZM135.501 120.076C135.44 120.075 135.381 120.055 135.333 120.018C135.285 119.981 135.25 119.93 135.234 119.872C135.219 119.814 135.222 119.753 135.245 119.697C135.268 119.641 135.309 119.595 135.361 119.564L136.795 118.75C136.858 118.722 136.93 118.718 136.995 118.739C137.061 118.76 137.117 118.804 137.152 118.863C137.186 118.921 137.198 118.991 137.183 119.057C137.169 119.124 137.13 119.183 137.074 119.223L135.64 120.037C135.589 120.069 135.528 120.083 135.467 120.076H135.501ZM73.7917 119.306C73.7429 119.303 73.6952 119.29 73.6522 119.267L72.2237 118.453C72.1918 118.435 72.1639 118.411 72.1415 118.382C72.119 118.354 72.1025 118.321 72.0929 118.286C72.0834 118.251 72.0809 118.214 72.0856 118.178C72.0903 118.142 72.1022 118.108 72.1205 118.076C72.1388 118.045 72.1632 118.017 72.1924 117.995C72.2215 117.973 72.2547 117.957 72.2902 117.947C72.3257 117.938 72.3628 117.936 72.3992 117.94C72.4357 117.945 72.4708 117.957 72.5027 117.975L73.9312 118.789C73.9864 118.818 74.03 118.865 74.0549 118.922C74.0798 118.978 74.0846 119.042 74.0685 119.101C74.0524 119.161 74.0163 119.214 73.9661 119.251C73.9158 119.288 73.8544 119.307 73.7917 119.306ZM138.363 118.448C138.315 118.447 138.267 118.435 138.225 118.41C138.183 118.386 138.148 118.352 138.124 118.31C138.087 118.246 138.076 118.171 138.095 118.1C138.114 118.029 138.16 117.968 138.224 117.931L139.658 117.117C139.689 117.098 139.724 117.086 139.76 117.081C139.797 117.076 139.834 117.078 139.869 117.087C139.904 117.096 139.938 117.112 139.966 117.134C139.995 117.157 140.02 117.184 140.037 117.216C140.074 117.279 140.084 117.355 140.066 117.426C140.047 117.496 140.001 117.557 139.937 117.595L138.447 118.409C138.411 118.43 138.371 118.443 138.33 118.448H138.363ZM70.8957 117.672C70.8464 117.673 70.7978 117.66 70.7562 117.634L69.3221 116.82C69.2663 116.78 69.2275 116.721 69.2132 116.654C69.199 116.587 69.2103 116.518 69.245 116.459C69.2797 116.4 69.3354 116.356 69.4012 116.335C69.4669 116.315 69.5382 116.319 69.6011 116.347L71.0352 117.161C71.0876 117.191 71.1283 117.238 71.1513 117.294C71.1742 117.349 71.1781 117.411 71.1623 117.469C71.1465 117.527 71.1119 117.578 71.0637 117.615C71.0156 117.651 70.9566 117.672 70.8957 117.672ZM141.204 116.814C141.143 116.814 141.084 116.793 141.036 116.757C140.988 116.72 140.953 116.669 140.937 116.611C140.921 116.553 140.925 116.491 140.948 116.436C140.971 116.38 141.012 116.333 141.064 116.303L142.498 115.489C142.561 115.461 142.632 115.457 142.698 115.477C142.764 115.498 142.82 115.542 142.854 115.601C142.889 115.66 142.9 115.729 142.886 115.796C142.872 115.863 142.833 115.922 142.777 115.962L141.343 116.776C141.3 116.803 141.249 116.816 141.198 116.814H141.204ZM68.0276 116.044C67.9787 116.042 67.9311 116.029 67.8881 116.006L66.4652 115.192C66.4016 115.154 66.3551 115.093 66.3354 115.023C66.3157 114.952 66.3242 114.877 66.3591 114.812C66.3975 114.749 66.4592 114.704 66.5312 114.685C66.6031 114.667 66.6796 114.677 66.7442 114.713L68.1671 115.549C68.2317 115.586 68.2791 115.646 68.2989 115.717C68.3188 115.788 68.3095 115.864 68.2731 115.929C68.2456 115.967 68.2086 115.998 68.1656 116.018C68.1226 116.038 68.0751 116.047 68.0276 116.044ZM144.066 115.186C144.017 115.187 143.968 115.174 143.925 115.15C143.881 115.126 143.846 115.091 143.821 115.049C143.784 114.984 143.775 114.908 143.795 114.837C143.815 114.766 143.862 114.706 143.927 114.669L145.355 113.855C145.42 113.819 145.496 113.809 145.568 113.827C145.64 113.846 145.702 113.891 145.74 113.954C145.775 114.019 145.784 114.094 145.764 114.165C145.744 114.235 145.698 114.296 145.634 114.334L144.206 115.148C144.163 115.171 144.115 115.184 144.066 115.186ZM65.165 114.411C65.1157 114.412 65.0672 114.398 65.0255 114.372L63.5915 113.558C63.5356 113.518 63.4968 113.459 63.4826 113.392C63.4683 113.326 63.4796 113.256 63.5144 113.198C63.5491 113.139 63.6047 113.095 63.6705 113.074C63.7363 113.053 63.8075 113.057 63.8705 113.085L65.3045 113.899C65.3569 113.93 65.3977 113.976 65.4206 114.032C65.4436 114.088 65.4474 114.149 65.4316 114.207C65.4158 114.265 65.3812 114.316 65.3331 114.353C65.2849 114.39 65.2259 114.41 65.165 114.411ZM146.929 113.553C146.868 113.552 146.809 113.532 146.761 113.495C146.713 113.458 146.678 113.407 146.662 113.349C146.646 113.291 146.65 113.23 146.673 113.174C146.696 113.118 146.737 113.072 146.789 113.041L148.223 112.227C148.255 112.205 148.291 112.189 148.329 112.181C148.367 112.173 148.407 112.173 148.445 112.18C148.483 112.188 148.519 112.204 148.551 112.227C148.583 112.249 148.609 112.278 148.629 112.311C148.648 112.345 148.661 112.382 148.665 112.42C148.669 112.458 148.665 112.497 148.653 112.533C148.641 112.57 148.622 112.604 148.596 112.633C148.57 112.661 148.538 112.684 148.502 112.7L147.068 113.514C147.027 113.54 146.978 113.554 146.929 113.553ZM149.791 111.903C149.743 111.902 149.695 111.89 149.653 111.865C149.611 111.841 149.576 111.807 149.551 111.765C149.514 111.701 149.504 111.626 149.523 111.555C149.542 111.484 149.588 111.423 149.652 111.386L151.086 110.572C151.15 110.535 151.227 110.525 151.299 110.544C151.371 110.562 151.433 110.608 151.471 110.671C151.506 110.735 151.514 110.811 151.495 110.881C151.475 110.952 151.428 111.012 151.365 111.05L149.931 111.864C149.891 111.896 149.842 111.917 149.791 111.925V111.903ZM152.659 110.253C152.599 110.252 152.54 110.232 152.491 110.195C152.443 110.158 152.409 110.107 152.393 110.049C152.377 109.991 152.381 109.93 152.404 109.874C152.427 109.818 152.468 109.772 152.52 109.741L153.954 108.927C154.017 108.899 154.088 108.895 154.154 108.916C154.22 108.937 154.275 108.981 154.31 109.04C154.345 109.098 154.356 109.168 154.342 109.234C154.328 109.301 154.289 109.36 154.233 109.4L152.799 110.214C152.762 110.254 152.713 110.281 152.659 110.291V110.253ZM155.528 108.603C155.478 108.603 155.429 108.591 155.386 108.567C155.343 108.543 155.307 108.508 155.282 108.465C155.246 108.401 155.236 108.325 155.256 108.254C155.276 108.183 155.323 108.123 155.388 108.086L156.817 107.272C156.848 107.254 156.884 107.242 156.92 107.237C156.956 107.233 156.994 107.235 157.029 107.244C157.065 107.254 157.098 107.27 157.127 107.292C157.156 107.314 157.18 107.342 157.199 107.373C157.217 107.405 157.229 107.439 157.234 107.475C157.238 107.511 157.236 107.548 157.226 107.583C157.217 107.618 157.2 107.651 157.178 107.679C157.155 107.708 157.127 107.732 157.096 107.75L155.667 108.564C155.633 108.612 155.584 108.647 155.528 108.663V108.603ZM158.39 106.953C158.329 106.952 158.27 106.932 158.222 106.895C158.174 106.858 158.139 106.807 158.123 106.749C158.108 106.691 158.112 106.63 158.134 106.574C158.157 106.518 158.198 106.472 158.251 106.441L159.685 105.627C159.716 105.605 159.752 105.589 159.79 105.581C159.829 105.573 159.868 105.573 159.906 105.58C159.944 105.588 159.981 105.604 160.012 105.627C160.044 105.649 160.07 105.678 160.09 105.711C160.11 105.745 160.122 105.782 160.126 105.82C160.13 105.858 160.126 105.897 160.114 105.933C160.103 105.97 160.083 106.004 160.057 106.033C160.031 106.061 159.999 106.084 159.964 106.1L158.535 106.997C158.49 107.019 158.44 107.031 158.39 107.03V106.953ZM161.258 105.303C161.209 105.303 161.16 105.29 161.117 105.266C161.074 105.242 161.038 105.207 161.013 105.165C160.994 105.134 160.982 105.099 160.977 105.063C160.972 105.027 160.975 104.991 160.985 104.956C160.995 104.921 161.012 104.888 161.035 104.86C161.058 104.832 161.086 104.808 161.119 104.791L162.547 103.972C162.579 103.954 162.614 103.942 162.651 103.937C162.687 103.933 162.724 103.935 162.76 103.944C162.795 103.954 162.828 103.97 162.858 103.992C162.887 104.014 162.911 104.042 162.929 104.073C162.948 104.105 162.96 104.139 162.964 104.175C162.969 104.211 162.967 104.248 162.957 104.283C162.947 104.318 162.931 104.351 162.908 104.379C162.886 104.408 162.858 104.432 162.826 104.45L161.398 105.264C161.371 105.326 161.321 105.375 161.258 105.402V105.303ZM164.121 103.653C164.06 103.652 164.001 103.632 163.953 103.595C163.905 103.558 163.87 103.507 163.854 103.449C163.838 103.391 163.842 103.33 163.865 103.274C163.888 103.218 163.929 103.172 163.981 103.141L165.415 102.327C165.478 102.299 165.549 102.295 165.615 102.316C165.681 102.337 165.737 102.381 165.771 102.44C165.806 102.498 165.817 102.568 165.803 102.634C165.789 102.701 165.75 102.76 165.694 102.8L164.26 103.62C164.231 103.685 164.18 103.737 164.115 103.768L164.121 103.653Z" fill="white"/>
<path opacity="0.1" d="M56 124.348L104.34 151.848C104.632 152.015 104.964 152.104 105.302 152.104C105.64 152.104 105.972 152.015 106.265 151.848L173.308 113.705V116.285L106.265 154.438C105.972 154.606 105.64 154.694 105.302 154.694C104.964 154.694 104.632 154.606 104.34 154.438L56 126.938V124.348Z" fill="black"/>
<path d="M96.7031 135.243C96.7031 135.216 96.7031 135.194 96.7031 135.166C99.4283 134.027 102.358 133.439 105.319 133.439C108.279 133.439 111.209 134.027 113.934 135.166C113.934 135.194 113.934 135.216 113.934 135.243L107.132 139.093C106.579 139.386 105.958 139.534 105.33 139.522C104.696 139.535 104.07 139.387 103.511 139.093L96.7254 135.243" fill="#C51F2C"/>
<path d="M171.487 100.429L165.689 97.1289C161.549 99.5104 161.56 103.355 165.734 105.725H165.767L171.487 102.475C172.491 101.925 172.491 101.001 171.487 100.429Z" fill="#C51F2C"/>
<path d="M57.8272 111.05L63.6249 107.75C67.7652 110.132 67.7541 113.976 63.5802 116.347H63.5467L57.8272 113.096C56.8284 112.546 56.8284 111.622 57.8272 111.05Z" fill="#C51F2C"/>
<path d="M132.126 78.022L125.81 74.425C125.248 74.1456 124.628 74 123.999 74C123.37 74 122.75 74.1456 122.188 74.425L115.961 77.9725C116.134 78.088 116.312 78.2035 116.519 78.3135C120.71 80.695 127.495 80.695 131.685 78.3135C131.83 78.22 131.976 78.1485 132.126 78.022Z" fill="#C51F2C"/>
<path d="M113.901 135.244C113.271 140.414 109.783 144.968 105.297 148.059V139.545C105.925 139.557 106.546 139.409 107.099 139.116L113.901 135.244Z" fill="#C51F2C"/>
<path d="M171.487 102.486L165.734 105.753C165.734 110.494 169.133 111.853 173.312 109.482V103.509C173.278 102.89 173.096 102.287 172.781 101.75C172.465 101.213 172.026 100.756 171.499 100.418L171.091 100.182L171.499 100.413C172.492 100.99 172.492 101.914 171.487 102.486Z" fill="#C51F2C"/>
<path d="M173.295 127.137V120.498C169.116 122.885 165.729 128.671 165.729 133.434C165.726 133.465 165.726 133.496 165.729 133.528L171.694 130.112C172.165 129.762 172.553 129.314 172.83 128.8C173.106 128.286 173.265 127.718 173.295 127.137Z" fill="#C51F2C"/>
<path d="M112.882 163.575C112.882 158.834 109.479 156.915 105.305 159.291V167.288C105.933 167.299 106.553 167.152 107.107 166.859L112.882 163.575Z" fill="#C51F2C"/>
<g opacity="0.15">
<path d="M113.901 135.244C113.271 140.414 109.783 144.968 105.297 148.059V139.545C105.925 139.557 106.546 139.409 107.099 139.116L113.901 135.244Z" fill="black"/>
<path d="M171.487 102.486L165.734 105.753C165.734 110.494 169.133 111.853 173.312 109.482V103.509C173.278 102.89 173.096 102.287 172.781 101.75C172.465 101.213 172.026 100.756 171.499 100.418L171.091 100.182L171.499 100.413C172.492 100.99 172.492 101.914 171.487 102.486Z" fill="black"/>
<path d="M173.303 127.137V120.498C169.123 122.885 165.736 128.671 165.736 133.434C165.734 133.465 165.734 133.496 165.736 133.528L171.701 130.112C172.173 129.762 172.561 129.314 172.838 128.8C173.114 128.286 173.273 127.718 173.303 127.137Z" fill="black"/>
<path d="M112.882 163.575C112.882 158.834 109.479 156.915 105.305 159.291V167.288C105.933 167.299 106.553 167.152 107.107 166.859L112.882 163.575Z" fill="black"/>
</g>
<path d="M105.307 139.545V148.059C100.81 144.946 97.3337 140.403 96.7031 135.244L103.505 139.094C104.057 139.395 104.677 139.55 105.307 139.545Z" fill="#C51F2C"/>
<path d="M97.7188 163.575L103.5 166.875C104.053 167.168 104.674 167.316 105.302 167.304V159.291C101.128 156.915 97.7188 158.834 97.7188 163.575Z" fill="#C51F2C"/>
<path d="M56.2176 131.333L56 131.223V137.784C56.0345 138.361 56.1956 138.923 56.4721 139.432C56.7486 139.941 57.1339 140.384 57.6015 140.732L63.8008 144.285C63.8008 139.511 60.4026 133.698 56.2176 131.333Z" fill="#C51F2C"/>
<path d="M57.8247 113.107L63.5776 116.374C63.5776 121.115 60.1794 123.035 56 120.659V114.13C56.0389 113.51 56.2254 112.908 56.5443 112.372C56.8632 111.836 57.3057 111.381 57.8358 111.045C56.837 111.611 56.8258 112.535 57.8247 113.107Z" fill="#C51F2C"/>
<g opacity="0.3">
<path d="M105.307 139.545V148.059C100.81 144.946 97.3337 140.403 96.7031 135.244L103.505 139.094C104.057 139.395 104.677 139.55 105.307 139.545Z" fill="black"/>
<path d="M97.7188 163.575L103.5 166.875C104.053 167.168 104.674 167.316 105.302 167.304V159.291C101.128 156.915 97.7188 158.834 97.7188 163.575Z" fill="black"/>
<path d="M56.2176 131.335L56 131.225V137.786C56.0345 138.362 56.1956 138.925 56.4721 139.434C56.7486 139.943 57.1339 140.386 57.6015 140.734L63.8008 144.287C63.8008 139.513 60.4026 133.7 56.2176 131.335Z" fill="black"/>
<path d="M57.8247 113.107L63.5776 116.374C63.5776 121.115 60.1794 123.035 56 120.659V114.13C56.0389 113.51 56.2254 112.908 56.5443 112.372C56.8632 111.836 57.3057 111.381 57.8358 111.045C56.837 111.611 56.8258 112.535 57.8247 113.107Z" fill="black"/>
</g>
<path d="M122.957 139.782L119.392 141.812C119.251 141.902 119.133 142.024 119.049 142.167C118.965 142.31 118.916 142.471 118.906 142.637V149.275C118.914 149.441 118.963 149.602 119.047 149.746C119.132 149.889 119.25 150.011 119.392 150.1L119.71 150.287C119.861 150.359 120.027 150.397 120.195 150.397C120.363 150.397 120.529 150.359 120.681 150.287L124.246 148.258C124.386 148.167 124.503 148.045 124.586 147.902C124.67 147.758 124.718 147.598 124.726 147.433V140.794C124.719 140.629 124.672 140.467 124.588 140.324C124.505 140.18 124.387 140.059 124.246 139.969L123.923 139.782C123.772 139.711 123.607 139.674 123.44 139.674C123.273 139.674 123.108 139.711 122.957 139.782Z" fill="#C51F2C"/>
<path opacity="0.3" d="M122.957 139.782L119.392 141.812C119.251 141.902 119.133 142.024 119.049 142.167C118.965 142.31 118.916 142.471 118.906 142.637V149.275C118.914 149.441 118.963 149.602 119.047 149.746C119.132 149.889 119.25 150.011 119.392 150.1L119.71 150.287C119.861 150.359 120.027 150.397 120.195 150.397C120.363 150.397 120.529 150.359 120.681 150.287L124.246 148.258C124.386 148.167 124.503 148.045 124.586 147.902C124.67 147.758 124.718 147.598 124.726 147.433V140.794C124.719 140.629 124.672 140.467 124.588 140.324C124.505 140.18 124.387 140.059 124.246 139.969L123.923 139.782C123.772 139.711 123.607 139.674 123.44 139.674C123.273 139.674 123.108 139.711 122.957 139.782Z" fill="black"/>
<path opacity="0.1" d="M120.593 150.337C120.455 150.388 120.307 150.41 120.16 150.401C120.013 150.393 119.87 150.354 119.739 150.287L119.415 150.106C119.274 150.015 119.157 149.894 119.073 149.75C118.988 149.607 118.939 149.446 118.93 149.281V142.642C118.937 142.471 118.989 142.304 119.08 142.158L120.364 142.901C120.274 143.043 120.224 143.206 120.219 143.374V150.012C120.191 150.276 120.347 150.403 120.593 150.337Z" fill="black"/>
<path d="M120.195 143.372V150.011C120.195 150.313 120.413 150.434 120.681 150.286L124.246 148.256C124.387 148.166 124.503 148.044 124.586 147.901C124.67 147.757 124.718 147.596 124.726 147.431V140.793C124.726 140.485 124.514 140.364 124.246 140.518L120.681 142.547C120.539 142.637 120.421 142.758 120.336 142.902C120.252 143.045 120.204 143.207 120.195 143.372Z" fill="#C51F2C"/>
<path opacity="0.2" d="M120.195 143.372V150.011C120.195 150.313 120.413 150.434 120.681 150.286L124.246 148.256C124.387 148.166 124.503 148.044 124.586 147.901C124.67 147.757 124.718 147.596 124.726 147.431V140.793C124.726 140.485 124.514 140.364 124.246 140.518L120.681 142.547C120.539 142.637 120.421 142.758 120.336 142.902C120.252 143.045 120.204 143.207 120.195 143.372Z" fill="black"/>
<path d="M159.215 119.139L155.65 121.169C155.509 121.259 155.391 121.381 155.307 121.524C155.223 121.668 155.174 121.829 155.164 121.994V128.638C155.174 128.803 155.223 128.964 155.307 129.108C155.391 129.251 155.509 129.373 155.65 129.463L155.973 129.644C156.122 129.72 156.288 129.76 156.456 129.76C156.624 129.76 156.789 129.72 156.938 129.644L160.504 127.615C160.645 127.525 160.762 127.403 160.847 127.26C160.931 127.116 160.98 126.955 160.99 126.79V120.151C160.98 119.986 160.932 119.825 160.847 119.682C160.763 119.538 160.645 119.416 160.504 119.326L160.18 119.139C160.03 119.068 159.865 119.031 159.698 119.031C159.531 119.031 159.366 119.068 159.215 119.139Z" fill="#C51F2C"/>
<path opacity="0.3" d="M159.215 119.139L155.65 121.169C155.509 121.259 155.391 121.381 155.307 121.524C155.223 121.668 155.174 121.829 155.164 121.994V128.638C155.174 128.803 155.223 128.964 155.307 129.108C155.391 129.251 155.509 129.373 155.65 129.463L155.973 129.644C156.122 129.72 156.288 129.76 156.456 129.76C156.624 129.76 156.789 129.72 156.938 129.644L160.504 127.615C160.645 127.525 160.762 127.403 160.847 127.26C160.931 127.116 160.98 126.955 160.99 126.79V120.151C160.98 119.986 160.932 119.825 160.847 119.682C160.763 119.538 160.645 119.416 160.504 119.326L160.18 119.139C160.03 119.068 159.865 119.031 159.698 119.031C159.531 119.031 159.366 119.068 159.215 119.139Z" fill="black"/>
<path opacity="0.1" d="M156.829 129.695C156.691 129.746 156.544 129.768 156.397 129.759C156.25 129.751 156.106 129.712 155.975 129.645L155.652 129.464C155.512 129.373 155.395 129.251 155.312 129.108C155.228 128.965 155.18 128.804 155.172 128.639V122C155.173 121.833 155.221 121.669 155.311 121.527L156.6 122.259C156.513 122.4 156.465 122.561 156.461 122.726V129.365C156.461 129.634 156.617 129.761 156.829 129.695Z" fill="black"/>
<path d="M156.453 122.731V129.369C156.453 129.672 156.671 129.798 156.939 129.644L160.504 127.615C160.645 127.524 160.762 127.403 160.847 127.259C160.931 127.116 160.98 126.955 160.99 126.79V120.151C160.99 119.849 160.772 119.722 160.504 119.876L156.939 121.906C156.797 121.996 156.68 122.117 156.595 122.261C156.511 122.404 156.462 122.565 156.453 122.731Z" fill="#C51F2C"/>
<path opacity="0.2" d="M156.453 122.731V129.369C156.453 129.672 156.671 129.798 156.939 129.644L160.504 127.615C160.645 127.524 160.762 127.403 160.847 127.259C160.931 127.116 160.98 126.955 160.99 126.79V120.151C160.99 119.849 160.772 119.722 160.504 119.876L156.939 121.906C156.797 121.996 156.68 122.117 156.595 122.261C156.511 122.404 156.462 122.565 156.453 122.731Z" fill="black"/>
<path d="M133.32 142.95V145.634C133.316 145.744 133.285 145.852 133.23 145.948C133.174 146.043 133.096 146.125 133.002 146.184L129.141 148.384C129.041 148.433 128.931 148.458 128.82 148.458C128.708 148.458 128.599 148.433 128.499 148.384L128.287 148.263C128.193 148.203 128.115 148.122 128.06 148.026C128.004 147.931 127.973 147.823 127.969 147.713V145.024C127.975 144.914 128.006 144.807 128.062 144.711C128.117 144.616 128.194 144.534 128.287 144.474L132.148 142.274C132.248 142.225 132.358 142.199 132.469 142.199C132.58 142.199 132.69 142.225 132.79 142.274L133.002 142.395C133.096 142.456 133.174 142.538 133.229 142.634C133.284 142.731 133.316 142.839 133.32 142.95Z" fill="#263238"/>
<path d="M133.008 146.212L129.146 148.412C128.968 148.511 128.828 148.412 128.828 148.231V145.541C128.833 145.431 128.864 145.323 128.919 145.228C128.974 145.132 129.052 145.051 129.146 144.991L133.008 142.791C133.186 142.692 133.326 142.791 133.326 142.978V145.662C133.322 145.772 133.291 145.88 133.235 145.976C133.18 146.071 133.102 146.153 133.008 146.212Z" fill="#37474F"/>
<path d="M152.906 131.812V134.496C152.899 134.605 152.867 134.712 152.812 134.807C152.757 134.903 152.68 134.984 152.588 135.046L148.726 137.246C148.627 137.295 148.517 137.32 148.406 137.32C148.294 137.32 148.184 137.295 148.085 137.246L147.873 137.125C147.779 137.065 147.701 136.984 147.646 136.888C147.59 136.792 147.559 136.685 147.555 136.575V133.885C147.559 133.775 147.59 133.668 147.646 133.572C147.701 133.476 147.779 133.395 147.873 133.335L151.734 131.135C151.832 131.084 151.941 131.057 152.052 131.057C152.163 131.057 152.272 131.084 152.37 131.135L152.588 131.256C152.682 131.317 152.76 131.399 152.816 131.496C152.871 131.592 152.902 131.701 152.906 131.812Z" fill="#263238"/>
<path d="M152.583 135.078L148.722 137.278C148.544 137.377 148.398 137.278 148.398 137.097V134.413C148.404 134.303 148.435 134.196 148.491 134.1C148.546 134.005 148.623 133.923 148.716 133.863L152.578 131.663C152.751 131.558 152.896 131.663 152.896 131.844V134.528C152.89 134.637 152.859 134.744 152.804 134.839C152.75 134.934 152.675 135.016 152.583 135.078Z" fill="#37474F"/>
<path d="M151.774 133.699L149.492 134.997L150.764 135.723L149.498 135.003V136.103L150.764 136.823V138.099C150.736 138.595 150.59 139.077 150.338 139.507C150.086 139.937 149.735 140.303 149.313 140.574L134.805 148.824C134.685 148.892 134.555 148.944 134.42 148.978C134.384 148.849 134.365 148.716 134.365 148.582V146.162L133.355 145.585L132.099 144.87L129.828 146.157V147.257L131.095 147.977V150.177C131.079 150.411 131.121 150.645 131.218 150.859C131.316 151.073 131.465 151.26 131.653 151.404C131.848 151.552 132.618 151.954 132.769 152.064C133.611 152.564 135.157 152.339 136.926 151.327L149.202 144.331C151.875 142.813 154.034 140.096 154.034 138.281V134.981L151.774 133.699Z" fill="#C51F2C"/>
<path opacity="0.4" d="M151.774 133.699L149.492 134.997L150.764 135.723L149.498 135.003V136.103L150.764 136.823V138.099C150.736 138.595 150.59 139.077 150.338 139.507C150.086 139.937 149.735 140.303 149.313 140.574L134.805 148.824C134.685 148.892 134.555 148.944 134.42 148.978C134.384 148.849 134.365 148.716 134.365 148.582V146.162L133.355 145.585L132.099 144.87L129.828 146.157V147.257L131.095 147.977V150.177C131.079 150.411 131.121 150.645 131.218 150.859C131.316 151.073 131.465 151.26 131.653 151.404C131.848 151.552 132.618 151.954 132.769 152.064C133.611 152.564 135.157 152.339 136.926 151.327L149.202 144.331C151.875 142.813 154.034 140.096 154.034 138.281V134.981L151.774 133.699Z" fill="black"/>
<path d="M132.087 150.821C132.087 152.652 134.252 152.911 136.919 151.371L149.195 144.375C151.862 142.857 154.027 140.14 154.027 138.325V135.025L151.795 133.727L149.513 135.025L151.795 136.328V138.732C151.768 139.228 151.623 139.71 151.371 140.14C151.118 140.57 150.767 140.936 150.345 141.207L135.837 149.457C135.039 149.913 134.386 149.545 134.386 148.637V146.217L132.115 144.919L129.844 146.206L132.12 147.504L132.087 150.821Z" fill="#C51F2C"/>
<path opacity="0.2" d="M132.087 150.821C132.087 152.652 134.252 152.911 136.919 151.371L149.195 144.375C151.862 142.857 154.027 140.14 154.027 138.325V135.025L151.795 133.727L149.513 135.025L151.795 136.328V138.732C151.768 139.228 151.623 139.71 151.371 140.14C151.118 140.57 150.767 140.936 150.345 141.207L135.837 149.457C135.039 149.913 134.386 149.545 134.386 148.637V146.217L132.115 144.919L129.844 146.206L132.12 147.504L132.087 150.821Z" fill="black"/>
<path d="M151.777 133.699L149.5 135.003L151.777 136.301L154.025 134.997L151.777 133.699Z" fill="#C51F2C"/>
<path opacity="0.3" d="M151.777 133.699L149.5 135.003L151.777 136.301L154.025 134.997L151.777 133.699Z" fill="black"/>
<path d="M132.076 144.912L129.805 146.199L132.081 147.497L134.347 146.21L132.076 144.912Z" fill="#C51F2C"/>
<path opacity="0.3" d="M132.076 144.912L129.805 146.199L132.081 147.497L134.347 146.21L132.076 144.912Z" fill="black"/>
</svg>
