<svg width="239" height="235" viewBox="0 0 239 235" fill="none" xmlns="http://www.w3.org/2000/svg">
<path d="M119.624 229.506C183.78 229.506 235.788 199.086 235.788 161.562C235.788 124.038 183.78 93.6191 119.624 93.6191C55.4691 93.6191 3.46094 124.038 3.46094 161.562C3.46094 199.086 55.4691 229.506 119.624 229.506Z" fill="#F5F5F5"/>
<path opacity="0.1" d="M71.8569 143.164C69.1935 144.686 60.8475 148.003 49.6832 149.565C45.0417 150.22 40.3536 150.498 35.6662 150.394C31.7095 150.308 27.7656 149.917 23.8705 149.224C17.235 136.257 30.041 124.391 34.5239 121.835L97.2506 86L133.252 106.567C133.386 106.645 133.498 106.757 133.575 106.891C133.653 107.025 133.694 107.177 133.694 107.331C133.694 107.486 133.653 107.637 133.575 107.771C133.498 107.905 133.386 108.017 133.252 108.095L71.8569 143.164Z" fill="black"/>
<path opacity="0.1" d="M139.6 208.306C135.438 210.675 122.408 215.855 104.976 218.298C97.7304 219.321 90.4122 219.754 83.0951 219.593C76.9163 219.457 70.7576 218.844 64.6754 217.758C54.3434 197.549 74.3071 178.992 81.3214 175.005L179.246 119.057L235.452 151.166C235.663 151.287 235.838 151.461 235.959 151.671C236.081 151.88 236.145 152.117 236.145 152.358C236.145 152.6 236.081 152.837 235.959 153.046C235.838 153.256 235.663 153.43 235.452 153.551L139.6 208.306Z" fill="black"/>
<path d="M213.776 131.745L114.067 188.715V178.059C109.905 180.433 96.8756 185.608 79.4432 188.05C72.1986 189.084 64.8802 189.525 57.5624 189.368C51.3856 189.234 45.2289 188.623 39.1484 187.539L47.018 192.918C59.0671 201.199 73.2664 205.882 87.927 206.408C108.511 207.112 121.839 202.898 130.403 198.013L222.432 145.428C223.379 144.886 224.2 144.156 224.845 143.282C225.489 142.409 225.942 141.412 226.175 140.355L230.124 122.418L213.776 131.745Z" fill="#37474F"/>
<path d="M216.409 139.254C216.857 137.203 218.539 134.778 220.169 133.847C221.799 132.915 222.746 133.847 222.293 135.88C221.839 137.913 220.163 140.356 218.539 141.287C216.915 142.219 215.956 141.31 216.409 139.254Z" fill="#E0E0E0"/>
<path d="M217.396 140.804C217.31 140.804 217.293 140.804 217.281 140.764C217.184 140.65 217.075 140.241 217.247 139.435C217.649 137.617 219.181 135.396 220.599 134.584C220.81 134.441 221.056 134.355 221.311 134.334C221.391 134.334 221.408 134.334 221.42 134.368C221.517 134.487 221.632 134.896 221.454 135.703C221.058 137.515 219.52 139.736 218.102 140.548C217.892 140.69 217.649 140.778 217.396 140.804Z" fill="#455A64"/>
<path d="M207.081 144.461C207.529 142.405 209.217 139.985 210.841 139.054C212.465 138.122 213.418 139.054 212.971 141.087C212.523 143.121 210.835 145.563 209.211 146.494C207.586 147.426 206.628 146.511 207.081 144.461Z" fill="#E0E0E0"/>
<path d="M208.068 146.007C207.982 146.007 207.965 146.007 207.953 145.973C207.778 145.547 207.766 145.072 207.919 144.638C208.321 142.826 209.853 140.605 211.271 139.793C211.483 139.651 211.728 139.563 211.983 139.537C212.069 139.537 212.08 139.537 212.098 139.577C212.264 140.005 212.264 140.478 212.098 140.906C211.702 142.724 210.163 144.944 208.751 145.757C208.548 145.894 208.313 145.98 208.068 146.007Z" fill="#455A64"/>
<path d="M197.751 149.664C198.205 147.608 199.886 145.188 201.511 144.257C203.135 143.325 204.088 144.257 203.64 146.29C203.193 148.324 201.505 150.766 199.881 151.698C198.256 152.629 197.303 151.72 197.751 149.664Z" fill="#E0E0E0"/>
<path d="M198.739 151.21C198.653 151.21 198.641 151.21 198.624 151.176C198.448 150.752 198.438 150.278 198.595 149.847C198.991 148.029 200.524 145.808 201.942 144.996C202.153 144.854 202.398 144.768 202.653 144.746C202.739 144.746 202.757 144.746 202.768 144.78C202.934 145.208 202.934 145.682 202.768 146.109C202.372 147.927 200.839 150.148 199.422 150.96C199.218 151.097 198.984 151.183 198.739 151.21Z" fill="#455A64"/>
<path d="M114.063 178.058C109.901 180.433 96.8713 185.607 79.439 188.05C72.1943 189.083 64.8759 189.524 57.5581 189.367C51.3813 189.233 45.2246 188.622 39.1442 187.538C28.8122 167.329 48.7759 148.772 55.7902 144.779L81.4365 159.428L99.5577 169.783L114.063 178.058Z" fill="#FAFAFA"/>
<path d="M111.054 178.009C110.049 178.475 108.809 179.003 107.351 179.571L55.7891 150.114V146.439L111.054 178.009Z" fill="#263238"/>
<path d="M99.5404 169.761L81.4192 159.407L55.7729 144.758C48.7758 148.734 28.7949 167.307 39.1269 187.517C45.2124 188.609 51.3749 189.228 57.558 189.369C64.8752 189.533 72.1937 189.099 79.4389 188.073C96.8713 185.631 109.901 180.457 114.063 178.082L99.5404 169.761ZM79.238 186.642C73.0776 187.512 66.8631 187.952 60.6404 187.96C59.6302 187.96 58.6142 187.949 57.5925 187.926C51.7317 187.788 45.8895 187.218 40.1142 186.222C35.2868 176.168 38.5472 166.853 42.1863 160.753C46.3019 153.863 52.3002 148.597 55.7901 146.388L80.7017 160.588L111.055 178.009C105.9 180.354 94.6557 184.484 79.238 186.642Z" fill="#FAFAFA"/>
<path d="M99.5404 169.761L81.4192 159.407L55.7729 144.758C48.7758 148.734 28.7949 167.307 39.1269 187.517C45.2124 188.609 51.3749 189.228 57.558 189.369C64.8752 189.533 72.1937 189.099 79.4389 188.073C96.8713 185.631 109.901 180.457 114.063 178.082L99.5404 169.761ZM79.238 186.642C73.0776 187.512 66.8631 187.952 60.6404 187.96C59.6302 187.96 58.6142 187.949 57.5925 187.926C51.7317 187.788 45.8895 187.218 40.1142 186.222C35.2868 176.168 38.5472 166.853 42.1863 160.753C46.3019 153.863 52.3002 148.597 55.7901 146.388L80.7017 160.588L111.055 178.009C105.9 180.354 94.6557 184.484 79.238 186.642Z" fill="#455A64"/>
<path d="M107.356 179.541C98.2874 182.97 88.8497 185.352 79.2296 186.641C73.0694 187.512 66.8549 187.954 60.632 187.964C59.6218 187.964 58.6058 187.964 57.5841 187.925C51.7232 187.789 45.8807 187.22 40.1058 186.221C38.79 183.517 37.9921 180.595 37.7524 177.604C37.2301 170.964 39.6064 165.057 42.1779 160.757C46.2935 153.862 52.2918 148.596 55.7817 146.387V150.062L107.356 179.541Z" fill="#37474F"/>
<path d="M107.353 179.542C98.285 182.971 88.8473 185.353 79.2272 186.642C73.067 187.513 66.8525 187.955 60.6296 187.965C59.6194 187.965 58.6034 187.965 57.5817 187.925C51.7208 187.79 45.8783 187.221 40.1034 186.221C38.7876 183.518 37.9897 180.596 37.75 177.605C38.1886 172.937 39.7026 168.431 42.1755 164.433C46.2911 157.537 52.2894 152.278 55.7793 150.062L80.6909 164.291L107.353 179.542Z" fill="#9A4A4D"/>
<path d="M55.7942 152.846C52.3042 155.061 46.3059 160.321 42.1904 167.216C39.9814 170.813 38.5271 174.814 37.9141 178.979C38.2681 181.5 39.0155 183.951 40.1297 186.244C45.9046 187.243 51.7471 187.813 57.608 187.948C58.6297 187.948 59.6457 187.988 60.6559 187.988C66.8788 187.978 73.0933 187.536 79.2535 186.664C87.8235 185.484 96.2533 183.462 104.418 180.627L80.6943 167.074L55.7942 152.846Z" fill="#B16668"/>
<path d="M50.6562 163.887V163.319C50.6661 163.149 50.7164 162.982 50.8032 162.834C50.89 162.686 51.0107 162.561 51.1556 162.467L54.8235 160.372C54.9784 160.298 55.1481 160.26 55.32 160.26C55.4919 160.26 55.6615 160.298 55.8165 160.372L68.8233 167.784C68.9693 167.876 69.0907 168.002 69.1776 168.15C69.2645 168.298 69.3142 168.465 69.3227 168.636V169.204C69.3129 169.375 69.2625 169.541 69.1758 169.689C69.089 169.837 68.9683 169.963 68.8233 170.056L65.1555 172.152C65.0019 172.23 64.8317 172.271 64.659 172.271C64.4863 172.271 64.316 172.23 64.1625 172.152L51.1671 164.728C51.0215 164.637 50.8995 164.514 50.8108 164.368C50.7221 164.222 50.6691 164.057 50.6562 163.887Z" fill="#EBEBEB"/>
<path d="M64.6446 170.578V172.282C64.4724 172.285 64.3024 172.244 64.151 172.163L51.1556 164.739C51.0104 164.646 50.8894 164.52 50.8026 164.372C50.7158 164.224 50.6657 164.058 50.6562 163.887V163.319C50.6672 163.167 50.709 163.019 50.779 162.883C50.849 162.747 50.9458 162.627 51.0638 162.529C50.8858 162.688 50.9145 162.899 51.1556 163.035L64.151 170.459C64.3021 170.541 64.4724 170.582 64.6446 170.578Z" fill="#E0E0E0"/>
<path d="M51.1598 163.036L64.1551 170.466C64.3101 170.539 64.4798 170.578 64.6516 170.578C64.8235 170.578 64.9932 170.539 65.1481 170.466L68.8275 168.353C69.103 168.194 69.103 167.938 68.8275 167.785L55.8206 160.401C55.6657 160.327 55.496 160.289 55.3241 160.289C55.1523 160.289 54.9826 160.327 54.8276 160.401L51.1598 162.497C50.8842 162.627 50.8842 162.883 51.1598 163.036Z" fill="#FAFAFA"/>
<path d="M69.3125 174.555V173.987C69.3224 173.817 69.3727 173.65 69.4595 173.502C69.5462 173.354 69.6669 173.229 69.8119 173.135L73.4797 171.039C73.6347 170.966 73.8044 170.928 73.9762 170.928C74.1481 170.928 74.3178 170.966 74.4728 171.039L87.4681 178.469C87.614 178.561 87.7355 178.687 87.8224 178.835C87.9093 178.983 87.959 179.15 87.9675 179.321V179.889C87.9576 180.06 87.9073 180.226 87.8205 180.374C87.7338 180.522 87.6131 180.648 87.4681 180.741L83.8003 182.837C83.6467 182.915 83.4765 182.956 83.3037 182.956C83.131 182.956 82.9608 182.915 82.8072 182.837L69.8119 175.413C69.6662 175.319 69.545 175.193 69.4582 175.044C69.3714 174.894 69.3215 174.727 69.3125 174.555Z" fill="#EBEBEB"/>
<path d="M83.3009 181.246V182.95C83.1287 182.953 82.9586 182.912 82.8072 182.831L69.8119 175.407C69.6666 175.314 69.5456 175.188 69.4588 175.04C69.3721 174.892 69.3219 174.726 69.3125 174.555V173.987C69.3235 173.835 69.3652 173.687 69.4352 173.551C69.5052 173.415 69.6021 173.295 69.72 173.197C69.5421 173.356 69.5708 173.566 69.8119 173.703L82.8072 181.127C82.9584 181.208 83.1286 181.25 83.3009 181.246Z" fill="#E0E0E0"/>
<path d="M69.816 173.703L82.8114 181.133C82.9663 181.206 83.136 181.245 83.3079 181.245C83.4798 181.245 83.6494 181.206 83.8044 181.133L87.4722 179.037C87.7478 178.878 87.7478 178.622 87.4722 178.469L74.4769 171.039C74.3219 170.966 74.1523 170.928 73.9804 170.928C73.8085 170.928 73.6388 170.966 73.4839 171.039L69.816 173.135C69.5405 173.294 69.5405 173.55 69.816 173.703Z" fill="#FAFAFA"/>
<path d="M65.1016 150.084L114.064 178.058V188.714L230.092 122.417L171.797 89.1152L65.1016 150.084Z" fill="#FAFAFA"/>
<path d="M114.064 186.05L225.426 122.417L171.802 91.7792L67.432 151.413L65.1016 150.084L171.797 89.1152L230.092 122.417L114.064 188.714V186.05Z" fill="#455A64"/>
<path d="M171.803 91.7793L171.797 97.1071L220.765 125.081L225.426 122.417L171.803 91.7793Z" fill="#263238"/>
<path d="M67.4297 151.414L72.0906 154.078L171.794 97.1071L171.8 91.7793L67.4297 151.414Z" fill="#37474F"/>
<path d="M72.0938 154.078L171.798 97.1074L220.766 125.081L114.065 186.051V178.059L72.0938 154.078Z" fill="#9A4A4D"/>
<path d="M75.1953 155.851L114.067 178.059V186.051L217.668 126.854L171.8 100.652L75.1953 155.851Z" fill="#B16668"/>
<path d="M161.102 113.433L196.254 133.529C196.484 133.646 196.739 133.708 196.997 133.708C197.256 133.708 197.511 133.646 197.74 133.529L205.518 129.03C205.748 128.914 206.003 128.853 206.262 128.853C206.52 128.853 206.775 128.914 207.005 129.03L207.889 129.536C208.12 129.652 208.376 129.712 208.635 129.712C208.894 129.712 209.15 129.652 209.381 129.536L217.234 125.065C217.647 124.833 217.647 124.452 217.234 124.213L176.738 101.073C176.507 100.958 176.253 100.898 175.994 100.898C175.736 100.898 175.482 100.958 175.251 101.073L165.091 106.889C164.678 107.122 164.678 107.503 165.091 107.741L166.572 108.599C166.986 108.832 166.986 109.213 166.572 109.451L161.091 112.581C160.666 112.819 160.666 113.2 161.102 113.433Z" fill="#9A4A4D"/>
<path d="M85.1715 154.596L124.605 177.128C124.835 177.246 125.09 177.307 125.349 177.307C125.607 177.307 125.862 177.246 126.092 177.128L151.486 162.61C151.576 162.58 151.655 162.523 151.711 162.447C151.767 162.37 151.797 162.278 151.797 162.184C151.797 162.09 151.767 161.998 151.711 161.921C151.655 161.845 151.576 161.788 151.486 161.758L112.052 139.226C111.82 139.111 111.565 139.051 111.306 139.051C111.047 139.051 110.791 139.111 110.56 139.226L85.1543 153.744C84.7582 153.982 84.7582 154.363 85.1715 154.596Z" fill="#9A4A4D"/>
<path d="M115.474 137.282L154.925 159.832C155.157 159.946 155.412 160.006 155.671 160.006C155.93 160.006 156.186 159.946 156.417 159.832L181.823 145.313C182.236 145.075 182.236 144.694 181.823 144.461L142.389 121.929C142.158 121.811 141.902 121.75 141.643 121.75C141.383 121.75 141.127 121.811 140.896 121.929L115.474 136.43C115.061 136.663 115.061 137.043 115.474 137.282Z" fill="#9A4A4D"/>
<path d="M127.198 143.002L116.533 136.913C116.388 136.82 116.269 136.694 116.183 136.546C116.097 136.398 116.048 136.232 116.039 136.061V126.536C116.048 126.366 116.097 126.2 116.183 126.052C116.269 125.904 116.388 125.778 116.533 125.684L141.186 111.603C141.34 111.525 141.51 111.484 141.683 111.484C141.855 111.484 142.025 111.525 142.179 111.603L152.844 117.692C152.989 117.786 153.11 117.911 153.196 118.059C153.283 118.207 153.333 118.374 153.343 118.544V128.064C153.335 128.235 153.285 128.402 153.198 128.55C153.111 128.698 152.99 128.824 152.844 128.916L128.191 143.002C128.037 143.081 127.867 143.121 127.694 143.121C127.521 143.121 127.351 143.081 127.198 143.002Z" fill="#37474F"/>
<path d="M116.78 126.394L126.951 132.205C127.182 132.32 127.436 132.379 127.694 132.379C127.953 132.379 128.207 132.32 128.438 132.205L152.597 118.402C153.011 118.169 153.011 117.789 152.597 117.55L142.432 111.745C142.201 111.628 141.945 111.566 141.686 111.566C141.426 111.566 141.17 111.628 140.939 111.745L116.78 125.542C116.689 125.572 116.61 125.629 116.555 125.705C116.499 125.782 116.469 125.874 116.469 125.968C116.469 126.062 116.499 126.154 116.555 126.231C116.61 126.307 116.689 126.364 116.78 126.394Z" fill="#455A64"/>
<path d="M127.697 132.381V143.122C127.523 143.125 127.351 143.084 127.198 143.002L116.533 136.913C116.388 136.82 116.269 136.694 116.183 136.546C116.097 136.398 116.048 136.232 116.039 136.061V126.542C116.046 126.371 116.095 126.204 116.181 126.056C116.267 125.908 116.388 125.782 116.533 125.69L116.739 125.57C116.372 125.803 116.383 126.167 116.78 126.394L126.951 132.205C127.18 132.327 127.437 132.387 127.697 132.381Z" fill="#263238"/>
<path d="M128.391 133.017L128.747 132.812V141.935L128.391 142.139V133.017Z" fill="#263238"/>
<path d="M129.695 132.267L130.051 132.062V141.19L129.695 141.389V132.267Z" fill="#263238"/>
<path d="M131.016 131.517L131.372 131.312V140.44L131.016 140.639V131.517Z" fill="#263238"/>
<path d="M132.32 130.767L132.676 130.562V139.69L132.32 139.889V130.767Z" fill="#263238"/>
<path d="M133.633 130.017L133.989 129.812V138.94L133.633 139.139V130.017Z" fill="#263238"/>
<path d="M134.945 129.267L135.301 129.062V138.19L134.945 138.395V129.267Z" fill="#263238"/>
<path d="M136.258 128.519L136.614 128.32V137.442L136.258 137.647V128.519Z" fill="#263238"/>
<path d="M137.562 127.775L137.918 127.57V136.692L137.562 136.897V127.775Z" fill="#263238"/>
<path d="M138.875 127.025L139.231 126.82V135.942L138.875 136.147V127.025Z" fill="#263238"/>
<path d="M140.188 126.275L140.543 126.07V135.192L140.188 135.397V126.275Z" fill="#263238"/>
<path d="M141.492 125.525L141.848 125.32V134.442L141.492 134.647V125.525Z" fill="#263238"/>
<path d="M142.812 124.775L143.168 124.57V133.692L142.812 133.897V124.775Z" fill="#263238"/>
<path d="M144.117 124.025L144.473 123.82V132.942L144.117 133.147V124.025Z" fill="#263238"/>
<path d="M145.43 123.275L145.786 123.07V132.192L145.43 132.397V123.275Z" fill="#263238"/>
<path d="M146.742 122.525L147.098 122.32V131.442L146.742 131.647V122.525Z" fill="#263238"/>
<path d="M148.047 121.777L148.403 121.572V130.694L148.047 130.899V121.777Z" fill="#263238"/>
<path d="M149.359 121.027L149.715 120.822V129.944L149.359 130.149V121.027Z" fill="#263238"/>
<path d="M150.672 120.277L151.028 120.072V129.2L150.672 129.399V120.277Z" fill="#263238"/>
<path d="M151.984 119.527L152.34 119.322V128.45L151.984 128.655V119.527Z" fill="#263238"/>
<path opacity="0.3" d="M121.762 130.251L121.406 130.047V139.175L121.762 139.373V130.251Z" fill="black"/>
<path opacity="0.3" d="M122.492 131.262L126.809 133.733V133.488L122.492 131.018V131.262Z" fill="black"/>
<path opacity="0.3" d="M122.492 139.424L126.809 141.895V141.65L122.492 139.18V139.424Z" fill="black"/>
<path opacity="0.3" d="M122.492 134.539L126.809 137.004V136.76L122.492 134.295V134.539Z" fill="black"/>
<path opacity="0.3" d="M122.492 135.317L126.809 137.782V137.537L122.492 135.072V135.317Z" fill="black"/>
<path opacity="0.3" d="M122.492 136.096L126.809 138.561V138.317L122.492 135.852V136.096Z" fill="black"/>
<path opacity="0.3" d="M116.531 127.871L120.848 130.336V130.092L116.531 127.627V127.871Z" fill="black"/>
<path opacity="0.3" d="M116.531 136.033L120.848 138.498V138.254L116.531 135.789V136.033Z" fill="black"/>
<path opacity="0.3" d="M116.531 131.143L120.848 133.608V133.364L116.531 130.898V131.143Z" fill="black"/>
<path opacity="0.3" d="M116.531 131.92L120.848 134.391V134.141L116.531 131.676V131.92Z" fill="black"/>
<path opacity="0.3" d="M116.531 132.705L120.848 135.17V134.926L116.531 132.461V132.705Z" fill="black"/>
<path d="M141.151 151.022L130.486 144.927C130.341 144.834 130.221 144.708 130.135 144.56C130.05 144.412 130 144.246 129.992 144.075V134.555C130.002 134.385 130.052 134.22 130.138 134.072C130.223 133.924 130.343 133.798 130.486 133.703L155.139 119.617C155.295 119.543 155.466 119.504 155.639 119.504C155.811 119.504 155.982 119.543 156.138 119.617L166.797 125.712C166.942 125.805 167.063 125.93 167.15 126.078C167.237 126.226 167.287 126.393 167.296 126.564V136.083C167.287 136.254 167.236 136.42 167.149 136.568C167.063 136.716 166.942 136.842 166.797 136.935L142.144 151.022C141.989 151.095 141.819 151.133 141.647 151.133C141.475 151.133 141.306 151.095 141.151 151.022Z" fill="#C51F2C"/>
<path opacity="0.3" d="M130.756 134.413L140.922 140.224C141.153 140.339 141.409 140.399 141.668 140.399C141.927 140.399 142.183 140.339 142.414 140.224L166.568 126.421C166.981 126.183 166.981 125.802 166.568 125.569L156.403 119.759C156.171 119.644 155.916 119.584 155.656 119.584C155.397 119.584 155.142 119.644 154.91 119.759L130.756 133.561C130.666 133.591 130.587 133.648 130.531 133.724C130.475 133.801 130.445 133.893 130.445 133.987C130.445 134.082 130.475 134.173 130.531 134.25C130.587 134.326 130.666 134.384 130.756 134.413Z" fill="white"/>
<path opacity="0.1" d="M141.666 140.394V151.135C141.491 151.142 141.319 151.101 141.166 151.016L130.501 144.933C130.358 144.839 130.239 144.712 130.153 144.565C130.067 144.417 130.017 144.251 130.008 144.081V134.561C130.015 134.39 130.063 134.224 130.149 134.075C130.235 133.927 130.356 133.801 130.501 133.709L130.708 133.59C130.341 133.823 130.352 134.186 130.748 134.408L140.92 140.224C141.149 140.344 141.406 140.403 141.666 140.394Z" fill="black"/>
<path opacity="0.1" d="M142.555 140.947L142.911 140.742V149.864L142.555 150.069V140.947Z" fill="black"/>
<path opacity="0.1" d="M143.875 140.197L144.231 139.992V149.114L143.875 149.319V140.197Z" fill="black"/>
<path opacity="0.1" d="M145.18 139.447L145.536 139.242V148.37L145.18 148.569V139.447Z" fill="black"/>
<path opacity="0.1" d="M146.492 138.697L146.848 138.492V147.62L146.492 147.824V138.697Z" fill="black"/>
<path opacity="0.1" d="M147.805 137.947L148.161 137.742V146.87L147.805 147.074V137.947Z" fill="black"/>
<path opacity="0.1" d="M149.109 137.197L149.465 136.998V146.12L149.109 146.325V137.197Z" fill="black"/>
<path opacity="0.1" d="M150.422 136.447L150.778 136.248V145.37L150.422 145.575V136.447Z" fill="black"/>
<path opacity="0.1" d="M151.734 135.697L152.09 135.498V144.62L151.734 144.825V135.697Z" fill="black"/>
<path opacity="0.1" d="M153.047 134.954L153.403 134.75V143.872L153.047 144.077V134.954Z" fill="black"/>
<path opacity="0.1" d="M154.352 134.204L154.707 134V143.122L154.352 143.327V134.204Z" fill="black"/>
<path opacity="0.1" d="M155.664 133.454L156.02 133.25V142.372L155.664 142.577V133.454Z" fill="black"/>
<path opacity="0.1" d="M156.977 132.704L157.332 132.5V141.622L156.977 141.827V132.704Z" fill="black"/>
<path opacity="0.1" d="M158.281 131.954L158.637 131.75V140.872L158.281 141.077V131.954Z" fill="black"/>
<path opacity="0.1" d="M159.602 131.204L159.957 131V140.122L159.602 140.327V131.204Z" fill="black"/>
<path opacity="0.1" d="M160.906 130.454L161.262 130.25V139.372L160.906 139.577V130.454Z" fill="black"/>
<path opacity="0.1" d="M162.219 129.704L162.575 129.5V138.628L162.219 138.827V129.704Z" fill="black"/>
<path opacity="0.1" d="M163.531 128.956L163.887 128.752V137.88L163.531 138.079V128.956Z" fill="black"/>
<path opacity="0.1" d="M164.836 128.206L165.192 128.002V137.13L164.836 137.329V128.206Z" fill="black"/>
<path opacity="0.1" d="M166.148 127.456L166.504 127.252V136.38L166.148 136.579V127.456Z" fill="black"/>
<path opacity="0.1" d="M135.926 138.179L135.57 137.975V147.102L135.926 147.301V138.179Z" fill="black"/>
<path opacity="0.1" d="M136.656 139.192L140.973 141.662V141.412L136.656 138.947V139.192Z" fill="black"/>
<path opacity="0.1" d="M136.656 147.359L140.973 149.825V149.58L136.656 147.115V147.359Z" fill="black"/>
<path opacity="0.1" d="M136.656 142.469L140.973 144.934V144.69L136.656 142.225V142.469Z" fill="black"/>
<path opacity="0.1" d="M136.656 143.246L140.973 145.711V145.467L136.656 143.002V143.246Z" fill="black"/>
<path opacity="0.1" d="M136.656 144.026L140.973 146.491V146.246L136.656 143.781V144.026Z" fill="black"/>
<path opacity="0.1" d="M130.695 135.801L135.012 138.266V138.022L130.695 135.557V135.801Z" fill="black"/>
<path opacity="0.1" d="M130.695 143.963L135.012 146.428V146.184L130.695 143.719V143.963Z" fill="black"/>
<path opacity="0.1" d="M130.695 139.072L135.012 141.537V141.293L130.695 138.828V139.072Z" fill="black"/>
<path opacity="0.1" d="M130.695 139.85L135.012 142.321V142.076L130.695 139.605V139.85Z" fill="black"/>
<path opacity="0.1" d="M130.695 140.633L135.012 143.098V142.854L130.695 140.389V140.633Z" fill="black"/>
<path d="M155.159 158.997L144.499 152.908C144.354 152.814 144.234 152.689 144.147 152.541C144.06 152.393 144.01 152.226 144 152.056V142.536C144.008 142.365 144.058 142.198 144.145 142.05C144.232 141.902 144.353 141.776 144.499 141.684L169.153 127.598C169.306 127.519 169.476 127.479 169.649 127.479C169.822 127.479 169.992 127.519 170.146 127.598L180.811 133.704C180.954 133.798 181.073 133.924 181.159 134.072C181.244 134.22 181.294 134.385 181.304 134.556V144.081C181.296 144.251 181.246 144.417 181.16 144.565C181.075 144.713 180.955 144.839 180.811 144.933L156.157 159.014C156.001 159.089 155.83 159.127 155.656 159.124C155.482 159.121 155.312 159.078 155.159 158.997Z" fill="#37474F"/>
<path d="M144.747 142.394L154.93 148.199C155.161 148.316 155.417 148.378 155.676 148.378C155.936 148.378 156.192 148.316 156.423 148.199L180.577 134.396C180.99 134.164 180.99 133.783 180.577 133.544L170.394 127.739C170.163 127.622 169.907 127.561 169.648 127.561C169.388 127.561 169.132 127.622 168.901 127.739L144.747 141.542C144.334 141.775 144.334 142.155 144.747 142.394Z" fill="#455A64"/>
<path d="M155.658 148.375V159.116C155.484 159.119 155.312 159.078 155.159 158.996L144.494 152.907C144.349 152.814 144.23 152.688 144.144 152.54C144.058 152.392 144.009 152.226 144 152.055V142.536C144.007 142.365 144.056 142.198 144.142 142.05C144.228 141.902 144.348 141.776 144.494 141.684L144.7 141.564C144.333 141.797 144.344 142.161 144.74 142.388L154.929 148.199C155.153 148.318 155.404 148.378 155.658 148.375Z" fill="#263238"/>
<path d="M156.352 149.011L156.707 148.807V157.929L156.352 158.133V149.011Z" fill="#263238"/>
<path d="M157.664 148.261L158.02 148.057V157.184L157.664 157.383V148.261Z" fill="#263238"/>
<path d="M158.977 147.511L159.332 147.307V156.434L158.977 156.639V147.511Z" fill="#263238"/>
<path d="M160.281 146.763L160.637 146.559V155.686L160.281 155.891V146.763Z" fill="#263238"/>
<path d="M161.594 146.013L161.95 145.809V154.936L161.594 155.141V146.013Z" fill="#263238"/>
<path d="M162.906 145.263L163.262 145.064V154.187L162.906 154.391V145.263Z" fill="#263238"/>
<path d="M164.211 144.519L164.573 144.314L164.567 153.437L164.211 153.641V144.519Z" fill="#263238"/>
<path d="M165.531 143.769L165.887 143.564V152.687L165.531 152.891V143.769Z" fill="#263238"/>
<path d="M166.836 143.019L167.192 142.814V151.937L166.836 152.141V143.019Z" fill="#263238"/>
<path d="M168.148 142.269L168.504 142.064V151.187L168.148 151.391V142.269Z" fill="#263238"/>
<path d="M169.461 141.519L169.817 141.314V150.437L169.461 150.641V141.519Z" fill="#263238"/>
<path d="M170.766 140.771L171.122 140.566V149.689L170.766 149.893V140.771Z" fill="#263238"/>
<path d="M172.078 140.021L172.434 139.816V148.938L172.078 149.143V140.021Z" fill="#263238"/>
<path d="M173.391 139.271L173.747 139.066V148.188L173.391 148.393V139.271Z" fill="#263238"/>
<path d="M174.703 138.521L175.059 138.316V147.444L174.703 147.643V138.521Z" fill="#263238"/>
<path d="M176.008 137.771L176.364 137.566V146.694L176.008 146.893V137.771Z" fill="#263238"/>
<path d="M177.32 137.021L177.676 136.816V145.944L177.32 146.143V137.021Z" fill="#263238"/>
<path d="M178.633 136.271L178.989 136.066V145.194L178.633 145.393V136.271Z" fill="#263238"/>
<path d="M179.938 135.521L180.293 135.322V144.444L179.938 144.649V135.521Z" fill="#263238"/>
<path opacity="0.3" d="M149.723 146.245L149.367 146.041V155.169L149.723 155.368V146.245Z" fill="black"/>
<path opacity="0.3" d="M150.453 147.262L154.77 149.727V149.483L150.453 147.018V147.262Z" fill="black"/>
<path opacity="0.3" d="M150.453 155.424L154.77 157.889V157.645L150.453 155.18V155.424Z" fill="black"/>
<path opacity="0.3" d="M150.453 150.533L154.77 152.998V152.754L150.453 150.289V150.533Z" fill="black"/>
<path opacity="0.3" d="M150.453 151.313L154.77 153.778V153.533L150.453 151.068V151.313Z" fill="black"/>
<path opacity="0.3" d="M150.453 152.09L154.77 154.555V154.311L150.453 151.846V152.09Z" fill="black"/>
<path opacity="0.3" d="M144.492 143.865L148.809 146.33V146.086L144.492 143.621V143.865Z" fill="black"/>
<path opacity="0.3" d="M144.492 152.027L148.809 154.493V154.248L144.492 151.783V152.027Z" fill="black"/>
<path opacity="0.3" d="M144.492 147.137L148.809 149.608V149.358L144.492 146.893V147.137Z" fill="black"/>
<path opacity="0.3" d="M144.492 147.916L148.809 150.387V150.143L144.492 147.678V147.916Z" fill="black"/>
<path opacity="0.3" d="M144.492 148.699L148.809 151.164V150.92L144.492 148.455V148.699Z" fill="black"/>
<path d="M96.8695 160.321L86.2103 154.227C86.0644 154.134 85.9429 154.009 85.8561 153.861C85.7692 153.712 85.7194 153.546 85.7109 153.375V143.855C85.7208 143.684 85.7711 143.518 85.8579 143.37C85.9446 143.222 86.0654 143.096 86.2103 143.003L110.864 128.916C111.019 128.843 111.188 128.805 111.36 128.805C111.532 128.805 111.702 128.843 111.857 128.916L122.522 135.011C122.665 135.106 122.784 135.232 122.87 135.38C122.955 135.527 123.005 135.693 123.015 135.863V145.383C123.007 145.553 122.958 145.719 122.872 145.868C122.786 146.016 122.666 146.142 122.522 146.235L97.8396 160.321C97.6887 160.395 97.5227 160.433 97.3545 160.433C97.1863 160.433 97.0204 160.395 96.8695 160.321Z" fill="#C51F2C"/>
<path opacity="0.3" d="M86.4541 143.712L96.6196 149.523C96.8512 149.638 97.1067 149.697 97.3658 149.697C97.6249 149.697 97.8804 149.638 98.112 149.523L122.266 135.72C122.356 135.691 122.435 135.633 122.491 135.557C122.547 135.481 122.577 135.389 122.577 135.294C122.577 135.2 122.547 135.108 122.491 135.031C122.435 134.955 122.356 134.898 122.266 134.868L112.1 129.058C111.869 128.943 111.613 128.883 111.354 128.883C111.095 128.883 110.84 128.943 110.608 129.058L86.4541 142.86C86.0466 143.099 86.0466 143.479 86.4541 143.712Z" fill="white"/>
<path opacity="0.1" d="M97.3689 149.699V160.44C97.1948 160.444 97.0227 160.402 96.8695 160.321L86.2046 154.232C86.0604 154.138 85.9405 154.012 85.8548 153.864C85.769 153.716 85.7197 153.55 85.7109 153.38V143.86C85.7183 143.689 85.767 143.523 85.8529 143.374C85.9388 143.226 86.0594 143.101 86.2046 143.008L86.4112 142.889C86.0439 143.122 86.0553 143.485 86.4514 143.712L96.6227 149.523C96.8517 149.645 97.1089 149.706 97.3689 149.699Z" fill="black"/>
<path opacity="0.1" d="M98.2578 150.244L98.6137 150.039V159.167L98.2578 159.371V150.244Z" fill="black"/>
<path opacity="0.1" d="M99.5703 149.494L99.9262 149.289V158.417L99.5703 158.621V149.494Z" fill="black"/>
<path opacity="0.1" d="M100.875 148.744L101.231 148.545V157.667L100.875 157.871V148.744Z" fill="black"/>
<path opacity="0.1" d="M102.195 148.001L102.551 147.797V156.919L102.195 157.123V148.001Z" fill="black"/>
<path opacity="0.1" d="M103.5 147.251L103.856 147.047V156.169L103.5 156.373V147.251Z" fill="black"/>
<path opacity="0.1" d="M104.812 146.501L105.168 146.297V155.419L104.812 155.623V146.501Z" fill="black"/>
<path opacity="0.1" d="M106.125 145.751L106.481 145.547V154.669L106.125 154.873V145.751Z" fill="black"/>
<path opacity="0.1" d="M107.438 145.001L107.793 144.797V153.919L107.438 154.123V145.001Z" fill="black"/>
<path opacity="0.1" d="M108.742 144.251L109.098 144.047V153.169L108.742 153.373V144.251Z" fill="black"/>
<path opacity="0.1" d="M110.055 143.501L110.411 143.297V152.419L110.055 152.623V143.501Z" fill="black"/>
<path opacity="0.1" d="M111.367 142.751L111.723 142.547V151.669L111.367 151.873V142.751Z" fill="black"/>
<path opacity="0.1" d="M112.672 142.003L113.028 141.799V150.921L112.672 151.125V142.003Z" fill="black"/>
<path opacity="0.1" d="M113.992 141.253L114.348 141.049V150.177L113.992 150.375V141.253Z" fill="black"/>
<path opacity="0.1" d="M115.297 140.503L115.653 140.299V149.427L115.297 149.625V140.503Z" fill="black"/>
<path opacity="0.1" d="M116.609 139.753L116.965 139.549V148.677L116.609 148.875V139.753Z" fill="black"/>
<path opacity="0.1" d="M117.922 139.003L118.278 138.805V147.927L117.922 148.126V139.003Z" fill="black"/>
<path opacity="0.1" d="M119.227 138.253L119.582 138.049V147.177L119.227 147.381V138.253Z" fill="black"/>
<path opacity="0.1" d="M120.539 137.503L120.895 137.305V146.427L120.539 146.631V137.503Z" fill="black"/>
<path opacity="0.1" d="M121.852 136.759L122.207 136.555V145.677L121.852 145.881V136.759Z" fill="black"/>
<path opacity="0.1" d="M91.6293 147.478L91.2734 147.279V156.401L91.6293 156.606V147.478Z" fill="black"/>
<path opacity="0.1" d="M92.3516 148.494L96.668 150.959V150.715L92.3516 148.25V148.494Z" fill="black"/>
<path opacity="0.1" d="M92.3516 156.656L96.668 159.121V158.877L92.3516 156.412V156.656Z" fill="black"/>
<path opacity="0.1" d="M92.3516 151.766L96.668 154.231V153.987L92.3516 151.521V151.766Z" fill="black"/>
<path opacity="0.1" d="M92.3516 152.545L96.668 155.01V154.766L92.3516 152.301V152.545Z" fill="black"/>
<path opacity="0.1" d="M92.3516 153.322L96.668 155.787V155.543L92.3516 153.078V153.322Z" fill="black"/>
<path opacity="0.1" d="M86.3984 145.098L90.7149 147.563V147.319L86.3984 144.854V145.098Z" fill="black"/>
<path opacity="0.1" d="M86.3984 153.26L90.7149 155.731V155.486L86.3984 153.016V153.26Z" fill="black"/>
<path opacity="0.1" d="M86.3984 148.369L90.7149 150.84V150.596L86.3984 148.125V148.369Z" fill="black"/>
<path opacity="0.1" d="M86.3984 149.154L90.7149 151.62V151.375L86.3984 148.91V149.154Z" fill="black"/>
<path opacity="0.1" d="M86.3984 149.932L90.7149 152.397V152.153L86.3984 149.688V149.932Z" fill="black"/>
<path d="M110.86 168.318L100.195 162.223C100.049 162.131 99.9273 162.005 99.8404 161.857C99.7536 161.709 99.7038 161.542 99.6953 161.371V151.88C99.7052 151.709 99.7555 151.543 99.8423 151.395C99.929 151.247 100.05 151.121 100.195 151.028L124.877 136.947C125.03 136.869 125.2 136.828 125.373 136.828C125.546 136.828 125.716 136.869 125.87 136.947L136.535 143.036C136.679 143.13 136.799 143.256 136.884 143.404C136.97 143.552 137.02 143.718 137.028 143.888V153.408C137.021 153.579 136.972 153.745 136.886 153.893C136.8 154.042 136.68 154.167 136.535 154.26L111.853 168.346C111.697 168.42 111.525 168.456 111.353 168.451C111.18 168.446 111.011 168.4 110.86 168.318Z" fill="#37474F"/>
<path d="M100.443 151.71L110.608 157.521C110.84 157.636 111.095 157.696 111.355 157.696C111.614 157.696 111.869 157.636 112.101 157.521L136.255 143.719C136.668 143.486 136.668 143.105 136.255 142.867L126.089 137.062C125.859 136.944 125.604 136.883 125.346 136.883C125.087 136.883 124.832 136.944 124.602 137.062L100.443 150.858C100.029 151.097 100.029 151.478 100.443 151.71Z" fill="#455A64"/>
<path d="M111.361 157.696V168.437C111.187 168.44 111.015 168.399 110.862 168.317L100.197 162.228C100.053 162.135 99.9327 162.009 99.8469 161.861C99.7612 161.713 99.7119 161.547 99.7031 161.376V151.879C99.7105 151.709 99.7592 151.542 99.8451 151.394C99.931 151.246 100.052 151.12 100.197 151.027L100.403 150.908C100.036 151.141 100.048 151.505 100.444 151.732L110.615 157.542C110.846 157.657 111.103 157.709 111.361 157.696Z" fill="#263238"/>
<path d="M112.055 158.333L112.411 158.129V167.251L112.055 167.455V158.333Z" fill="#263238"/>
<path d="M113.359 157.583L113.715 157.379V166.501L113.359 166.705V157.583Z" fill="#263238"/>
<path d="M114.672 156.833L115.028 156.629V165.751L114.672 165.955V156.833Z" fill="#263238"/>
<path d="M115.984 156.083L116.34 155.879L116.335 165.007L115.984 165.205V156.083Z" fill="#263238"/>
<path d="M117.297 155.333L117.653 155.129V164.257L117.297 164.455V155.333Z" fill="#263238"/>
<path d="M118.602 154.583L118.957 154.379V163.507L118.602 163.705V154.583Z" fill="#263238"/>
<path d="M119.914 153.833L120.276 153.629V162.757L119.92 162.955L119.914 153.833Z" fill="#263238"/>
<path d="M121.227 153.083L121.582 152.879V162.007L121.227 162.211V153.083Z" fill="#263238"/>
<path d="M122.539 152.334L122.895 152.135V161.257L122.539 161.461V152.334Z" fill="#263238"/>
<path d="M123.852 151.591L124.207 151.387V160.509L123.852 160.713V151.591Z" fill="#263238"/>
<path d="M125.156 150.841L125.512 150.637V159.759L125.156 159.963V150.841Z" fill="#263238"/>
<path d="M126.469 150.091L126.825 149.887V159.009L126.469 159.213V150.091Z" fill="#263238"/>
<path d="M127.781 149.341L128.137 149.137V158.259L127.781 158.463V149.341Z" fill="#263238"/>
<path d="M129.094 148.591L129.45 148.387V157.509L129.094 157.713V148.591Z" fill="#263238"/>
<path d="M130.398 147.841L130.754 147.637V156.759L130.398 156.963V147.841Z" fill="#263238"/>
<path d="M131.711 147.091L132.067 146.887V156.009L131.711 156.213V147.091Z" fill="#263238"/>
<path d="M133.023 146.341L133.379 146.137V155.259L133.023 155.463V146.341Z" fill="#263238"/>
<path d="M134.328 145.593L134.684 145.389V154.511L134.328 154.715V145.593Z" fill="#263238"/>
<path d="M135.648 144.843L136.004 144.639L135.999 153.761L135.648 153.965V144.843Z" fill="#263238"/>
<path opacity="0.3" d="M105.418 155.566L105.062 155.361V164.483L105.418 164.688V155.566Z" fill="black"/>
<path opacity="0.3" d="M106.148 156.578L110.465 159.043V158.799L106.148 156.334V156.578Z" fill="black"/>
<path opacity="0.3" d="M106.148 164.74L110.465 167.211V166.967L106.148 164.496V164.74Z" fill="black"/>
<path opacity="0.3" d="M106.148 159.855L110.465 162.321V162.076L106.148 159.605V159.855Z" fill="black"/>
<path opacity="0.3" d="M106.148 160.633L110.465 163.098V162.854L106.148 160.389V160.633Z" fill="black"/>
<path opacity="0.3" d="M106.148 161.41L110.465 163.875V163.631L106.148 161.166V161.41Z" fill="black"/>
<path opacity="0.3" d="M100.195 153.186L104.512 155.651V155.407L100.195 152.941V153.186Z" fill="black"/>
<path opacity="0.3" d="M100.195 161.348L104.512 163.813V163.569L100.195 161.104V161.348Z" fill="black"/>
<path opacity="0.3" d="M100.195 156.457L104.512 158.922V158.678L100.195 156.213V156.457Z" fill="black"/>
<path opacity="0.3" d="M100.195 157.236L104.512 159.702V159.457L100.195 156.992V157.236Z" fill="black"/>
<path opacity="0.3" d="M100.195 158.019L104.512 160.485V160.24L100.195 157.77V158.019Z" fill="black"/>
<path d="M124.848 176.303L114.171 170.22C114.026 170.126 113.906 170.001 113.819 169.853C113.732 169.705 113.682 169.539 113.672 169.368V159.831C113.682 159.66 113.732 159.494 113.819 159.346C113.906 159.198 114.026 159.072 114.171 158.979L138.853 144.898C139.007 144.82 139.177 144.779 139.35 144.779C139.522 144.779 139.693 144.82 139.846 144.898L150.511 150.987C150.656 151.081 150.777 151.206 150.864 151.354C150.95 151.502 151.001 151.668 151.011 151.839V161.359C151.002 161.53 150.952 161.697 150.865 161.845C150.779 161.993 150.657 162.119 150.511 162.211L125.841 176.303C125.687 176.381 125.517 176.422 125.344 176.422C125.171 176.422 125.001 176.381 124.848 176.303Z" fill="#C51F2C"/>
<path opacity="0.3" d="M114.428 159.701L124.599 165.512C124.829 165.627 125.084 165.686 125.342 165.686C125.6 165.686 125.855 165.627 126.085 165.512L150.245 151.709C150.336 151.68 150.414 151.623 150.47 151.546C150.526 151.47 150.556 151.378 150.556 151.283C150.556 151.189 150.526 151.097 150.47 151.021C150.414 150.944 150.336 150.887 150.245 150.857L140.08 145.064C139.849 144.946 139.593 144.885 139.333 144.885C139.074 144.885 138.818 144.946 138.587 145.064L114.428 158.86C114.341 158.892 114.266 158.95 114.214 159.025C114.161 159.1 114.133 159.189 114.133 159.281C114.133 159.372 114.161 159.461 114.214 159.537C114.266 159.612 114.341 159.669 114.428 159.701Z" fill="white"/>
<path opacity="0.1" d="M125.349 165.689V176.43C125.175 176.433 125.003 176.392 124.85 176.31L114.173 170.221C114.029 170.128 113.909 170.002 113.824 169.854C113.738 169.706 113.688 169.54 113.68 169.369V159.833C113.687 159.662 113.736 159.495 113.822 159.347C113.908 159.199 114.028 159.073 114.173 158.981L114.38 158.861C114.013 159.094 114.024 159.458 114.42 159.685L124.603 165.513C124.832 165.635 125.089 165.695 125.349 165.689Z" fill="black"/>
<path opacity="0.1" d="M126.234 166.234L126.59 166.035V175.157L126.234 175.362V166.234Z" fill="black"/>
<path opacity="0.1" d="M127.547 165.484L127.903 165.285V174.407L127.547 174.612V165.484Z" fill="black"/>
<path opacity="0.1" d="M128.859 164.74L129.215 164.535V173.657L128.859 173.862V164.74Z" fill="black"/>
<path opacity="0.1" d="M130.172 163.99L130.528 163.785V172.907L130.172 173.112V163.99Z" fill="black"/>
<path opacity="0.1" d="M131.477 163.24L131.832 163.035V172.157L131.477 172.362V163.24Z" fill="black"/>
<path opacity="0.1" d="M132.797 162.49L133.153 162.285V171.407L132.797 171.612V162.49Z" fill="black"/>
<path opacity="0.1" d="M134.102 161.74L134.457 161.535V170.657L134.102 170.862V161.74Z" fill="black"/>
<path opacity="0.1" d="M135.414 160.992L135.77 160.787V169.909L135.414 170.114V160.992Z" fill="black"/>
<path opacity="0.1" d="M136.727 160.242L137.082 160.037V169.159L136.727 169.364V160.242Z" fill="black"/>
<path opacity="0.1" d="M138.031 159.492L138.387 159.287V168.415L138.031 168.614V159.492Z" fill="black"/>
<path opacity="0.1" d="M139.344 158.742L139.7 158.537V167.665L139.344 167.864V158.742Z" fill="black"/>
<path opacity="0.1" d="M140.656 157.992L141.012 157.787V166.915L140.656 167.114V157.992Z" fill="black"/>
<path opacity="0.1" d="M141.969 157.242L142.325 157.037V166.165L141.969 166.364V157.242Z" fill="black"/>
<path opacity="0.1" d="M143.273 156.492L143.629 156.287V165.415L143.273 165.619V156.492Z" fill="black"/>
<path opacity="0.1" d="M144.586 155.742L144.942 155.543V164.665L144.586 164.87V155.742Z" fill="black"/>
<path opacity="0.1" d="M145.898 154.997L146.254 154.793V163.915L145.898 164.12V154.997Z" fill="black"/>
<path opacity="0.1" d="M147.203 154.249L147.559 154.045V163.167L147.203 163.371V154.249Z" fill="black"/>
<path opacity="0.1" d="M148.523 153.499L148.879 153.295V162.417L148.523 162.621V153.499Z" fill="black"/>
<path opacity="0.1" d="M149.828 152.749L150.184 152.545V161.667L149.828 161.871V152.749Z" fill="black"/>
<path opacity="0.1" d="M119.606 163.472L119.25 163.268V172.39L119.606 172.594V163.472Z" fill="black"/>
<path opacity="0.1" d="M120.336 164.484L124.652 166.95V166.705L120.336 164.24V164.484Z" fill="black"/>
<path opacity="0.1" d="M120.336 172.647L124.652 175.112V174.867L120.336 172.402V172.647Z" fill="black"/>
<path opacity="0.1" d="M120.336 167.756L124.652 170.221V169.977L120.336 167.512V167.756Z" fill="black"/>
<path opacity="0.1" d="M120.336 168.533L124.652 170.998V170.754L120.336 168.289V168.533Z" fill="black"/>
<path opacity="0.1" d="M120.336 169.313L124.652 171.783V171.539L120.336 169.068V169.313Z" fill="black"/>
<path opacity="0.1" d="M114.383 161.088L118.699 163.559V163.315L114.383 160.844V161.088Z" fill="black"/>
<path opacity="0.1" d="M114.383 169.256L118.699 171.721V171.477L114.383 169.012V169.256Z" fill="black"/>
<path opacity="0.1" d="M114.383 164.365L118.699 166.83V166.586L114.383 164.121V164.365Z" fill="black"/>
<path opacity="0.1" d="M114.383 165.143L118.699 167.608V167.364L114.383 164.898V165.143Z" fill="black"/>
<path opacity="0.1" d="M114.383 165.92L118.699 168.385V168.141L114.383 165.676V165.92Z" fill="black"/>
<path d="M208.661 128.996L164.359 103.686V86.3672L208.661 111.677V128.996Z" fill="#E6E6E6"/>
<path d="M215.653 124.996V107.678L208.656 111.676V128.995L215.653 124.996Z" fill="#E0E0E0"/>
<path d="M215.658 107.677L171.356 82.3672L164.359 86.3659L208.661 111.676L215.658 107.677Z" fill="#F5F5F5"/>
<path d="M170.266 94.3594L174.927 97.0233V99.6872L170.266 97.0233V94.3594Z" fill="#C51F2C"/>
<path opacity="0.1" d="M170.266 94.3594L170.535 94.5127V96.8699L170.266 97.0233V94.3594Z" fill="black"/>
<path opacity="0.2" d="M174.927 99.6864L170.266 97.0225L170.535 96.8691L174.927 99.3797V99.6864Z" fill="black"/>
<path d="M177.258 98.3574L181.924 101.021V103.685L177.258 101.021V98.3574Z" fill="#C51F2C"/>
<path opacity="0.1" d="M177.258 98.3574L177.528 98.5108V100.868L177.258 101.021V98.3574Z" fill="black"/>
<path opacity="0.2" d="M181.924 103.684L177.258 101.021L177.528 100.867L181.924 103.378V103.684Z" fill="black"/>
<path d="M184.25 102.35L188.917 105.014V107.677L184.25 105.014V102.35Z" fill="#C51F2C"/>
<path opacity="0.1" d="M184.25 102.35L184.52 102.503V104.86L184.25 105.014V102.35Z" fill="black"/>
<path opacity="0.2" d="M188.917 107.679L184.25 105.015L184.52 104.861L188.917 107.372V107.679Z" fill="black"/>
<path d="M191.25 106.35L195.911 109.014V111.677L191.25 109.014V106.35Z" fill="#C51F2C"/>
<path opacity="0.1" d="M191.25 106.35L191.52 106.503V108.86L191.25 109.014V106.35Z" fill="black"/>
<path opacity="0.2" d="M195.911 111.677L191.25 109.013L191.52 108.859L195.911 111.37V111.677Z" fill="black"/>
<path d="M198.242 110.342L202.909 113.006V115.67L198.242 113.006V110.342Z" fill="#C51F2C"/>
<path opacity="0.1" d="M198.242 110.342L198.512 110.495V112.852L198.242 113.006V110.342Z" fill="black"/>
<path opacity="0.2" d="M202.909 115.671L198.242 113.007L198.512 112.854L202.909 115.364V115.671Z" fill="black"/>
<path d="M196.997 132.988V124.996L162.023 105.014V113.005L196.997 132.988Z" fill="#F0F0F0"/>
<path d="M197 132.989L203.997 128.995V120.998L197 124.997V132.989Z" fill="#E0E0E0"/>
<path d="M203.994 120.998L169.02 101.021L162.023 105.015L196.997 124.997L203.994 120.998Z" fill="#FAFAFA"/>
<path d="M166.688 110.342L171.348 113.006V115.67L166.688 113.006V110.342Z" fill="#C51F2C"/>
<path opacity="0.1" d="M166.688 110.342L166.957 110.495V112.852L166.688 113.006V110.342Z" fill="black"/>
<path opacity="0.2" d="M171.348 115.671L166.688 113.007L166.957 112.854L171.348 115.364V115.671Z" fill="black"/>
<path d="M173.688 114.342L178.348 117.006V119.67L173.688 117.006V114.342Z" fill="#C51F2C"/>
<path opacity="0.1" d="M173.688 114.342L173.952 114.495V116.852L173.688 117.006V114.342Z" fill="black"/>
<path opacity="0.2" d="M178.348 119.669L173.688 117.005L173.952 116.852L178.348 119.362V119.669Z" fill="black"/>
<path d="M180.68 118.334L185.346 120.998V123.662L180.68 120.998V118.334Z" fill="#C51F2C"/>
<path opacity="0.1" d="M180.68 118.334L180.949 118.487V120.845L180.68 120.998V118.334Z" fill="black"/>
<path opacity="0.2" d="M185.346 123.661L180.68 120.997L180.949 120.844L185.346 123.36V123.661Z" fill="black"/>
<path d="M187.672 122.332L192.338 124.996V127.66L187.672 124.996V122.332Z" fill="#C51F2C"/>
<path opacity="0.1" d="M187.672 122.332L187.942 122.485V124.843L187.672 124.996V122.332Z" fill="black"/>
<path opacity="0.2" d="M192.338 127.661L187.672 124.997L187.942 124.844L192.338 127.354V127.661Z" fill="black"/>
<path d="M208.656 111.678V101.022L215.653 97.0234V107.679L208.656 111.678Z" fill="#E0E0E0"/>
<path d="M208.656 101.021L199.328 95.6875V106.349L208.656 111.677V101.021Z" fill="#E6E6E6"/>
<path d="M215.653 97.0232L206.325 91.6953L199.328 95.6884L208.656 101.022L215.653 97.0232Z" fill="#F5F5F5"/>
<path d="M201.664 99.6855L206.331 102.349V105.013L201.664 102.349V99.6855Z" fill="#C51F2C"/>
<path opacity="0.1" d="M201.664 99.6855L201.934 99.8389V102.196L201.664 102.349V99.6855Z" fill="black"/>
<path opacity="0.2" d="M206.331 105.015L201.664 102.351L201.934 102.197L206.331 104.708V105.015Z" fill="black"/>
<path d="M213.32 96.3247V89.9062H210.031V96.3247C210.044 96.4679 210.096 96.6051 210.181 96.7219C210.266 96.8388 210.38 96.9311 210.513 96.9892C210.874 97.1712 211.274 97.2661 211.679 97.2661C212.084 97.2661 212.483 97.1712 212.844 96.9892C212.976 96.9303 213.089 96.8376 213.173 96.7208C213.257 96.604 213.308 96.4673 213.32 96.3247Z" fill="#37474F"/>
<path d="M210.508 89.2357C210.869 89.0563 211.268 88.9629 211.673 88.9629C212.078 88.9629 212.477 89.0563 212.838 89.2357C212.979 89.2828 213.102 89.3725 213.189 89.4923C213.276 89.612 213.323 89.7557 213.323 89.9031C213.323 90.0505 213.276 90.1942 213.189 90.3139C213.102 90.4337 212.979 90.5234 212.838 90.5705C212.477 90.7525 212.078 90.8474 211.673 90.8474C211.268 90.8474 210.869 90.7525 210.508 90.5705C210.367 90.5234 210.244 90.4337 210.157 90.3139C210.07 90.1942 210.023 90.0505 210.023 89.9031C210.023 89.7557 210.07 89.612 210.157 89.4923C210.244 89.3725 210.367 89.2828 210.508 89.2357Z" fill="#455A64"/>
<path d="M116.73 92.5927L52.8671 129.087V122.271C50.198 123.793 41.8521 127.11 30.6878 128.672C26.0466 129.331 21.3582 129.608 16.6707 129.501C12.714 129.416 8.77014 129.024 4.875 128.331L9.92046 131.79C17.6331 137.092 26.7215 140.093 36.1063 140.435C49.3083 140.89 57.8265 138.163 63.3025 135.056L122.252 101.374C122.858 101.028 123.384 100.56 123.796 100C124.209 99.4405 124.498 98.8018 124.646 98.125L127.166 86.623L116.73 92.5927Z" fill="#F0F0F0"/>
<path d="M117.907 97.4096C118.256 96.0037 119.111 94.7719 120.312 93.9448C121.357 93.3484 121.965 93.9448 121.678 95.2455C121.329 96.653 120.471 97.8854 119.267 98.7103C118.228 99.3067 117.62 98.7217 117.907 97.4096Z" fill="#263238"/>
<path d="M118.537 98.3973C118.48 98.3973 118.474 98.3973 118.462 98.3973C118.356 98.123 118.356 97.8196 118.462 97.5453C118.777 96.2878 119.539 95.1847 120.609 94.4383C120.743 94.3464 120.9 94.2915 121.063 94.2793C121.114 94.2793 121.126 94.2793 121.131 94.2793C121.137 94.2793 121.269 94.6144 121.131 95.1313C120.813 96.3871 120.052 97.489 118.985 98.2383C118.851 98.3264 118.697 98.381 118.537 98.3973Z" fill="#455A64"/>
<path d="M111.93 100.759C112.28 99.3518 113.137 98.1194 114.341 97.2944C115.38 96.698 115.989 97.2944 115.702 98.5952C115.352 100.001 114.497 101.233 113.297 102.06C112.252 102.639 111.643 102.054 111.93 100.759Z" fill="#263238"/>
<path d="M112.561 101.731C112.509 101.731 112.498 101.731 112.492 101.731C112.486 101.731 112.354 101.396 112.492 100.879C112.809 99.6227 113.57 98.5202 114.639 97.7723C114.773 97.6804 114.93 97.6255 115.092 97.6133C115.15 97.6133 115.156 97.6133 115.167 97.6133C115.273 97.8876 115.273 98.191 115.167 98.4653C114.851 99.7206 114.092 100.823 113.026 101.572C112.886 101.662 112.727 101.716 112.561 101.731Z" fill="#455A64"/>
<path d="M105.954 104.078C106.305 102.671 107.162 101.439 108.365 100.613C109.404 100.016 110.018 100.613 109.725 101.914C109.376 103.319 108.521 104.551 107.32 105.378C106.275 105.975 105.667 105.39 105.954 104.078Z" fill="#263238"/>
<path d="M106.582 105.065C106.53 105.065 106.519 105.065 106.513 105.065C106.507 105.065 106.381 104.73 106.513 104.213C106.832 102.958 107.593 101.856 108.66 101.106C108.794 101.014 108.951 100.959 109.113 100.947C109.171 100.947 109.182 100.947 109.188 100.947C109.194 100.947 109.32 101.282 109.188 101.799C108.868 103.054 108.107 104.156 107.041 104.906C106.904 104.996 106.746 105.051 106.582 105.065Z" fill="#455A64"/>
<path d="M52.8692 122.258C50.2001 123.78 41.8541 127.097 30.6898 128.659C26.0486 129.318 21.3602 129.596 16.6728 129.489C12.7161 129.403 8.7722 129.012 4.87706 128.319C-1.7756 115.374 11.0476 103.486 15.5305 100.93L31.9584 110.313L43.5704 116.947L52.8692 122.258Z" fill="#FAFAFA"/>
<path d="M43.5694 116.947L31.9631 110.313L15.5295 100.93C11.0466 103.486 -1.75362 115.374 4.87608 128.319C8.77122 129.012 12.7151 129.403 16.6718 129.489C21.3593 129.596 26.0476 129.318 30.6889 128.659C41.8532 127.097 50.2049 123.78 52.8682 122.258L43.5694 116.947ZM30.5683 127.739C26.6192 128.297 22.6355 128.582 18.6463 128.591C17.9977 128.591 17.3491 128.591 16.6947 128.591C12.9401 128.509 9.19679 128.15 5.496 127.518C2.40788 121.077 4.49724 115.107 6.82768 111.205C9.03582 107.556 12.0066 104.417 15.541 101.998L31.5154 111.103L50.9568 122.213C47.6391 123.729 40.4296 126.376 30.5626 127.762L30.5683 127.739Z" fill="#FAFAFA"/>
<path d="M43.5694 116.947L31.9631 110.313L15.5295 100.93C11.0466 103.486 -1.75362 115.374 4.87608 128.319C8.77122 129.012 12.7151 129.403 16.6718 129.489C21.3593 129.596 26.0476 129.318 30.6889 128.659C41.8532 127.097 50.2049 123.78 52.8682 122.258L43.5694 116.947ZM30.5683 127.739C26.6192 128.297 22.6355 128.582 18.6463 128.591C17.9977 128.591 17.3491 128.591 16.6947 128.591C12.9401 128.509 9.19679 128.15 5.496 127.518C2.40788 121.077 4.49724 115.107 6.82768 111.205C9.03582 107.556 12.0066 104.417 15.541 101.998L31.5154 111.103L50.9568 122.213C47.6391 123.729 40.4296 126.376 30.5626 127.762L30.5683 127.739Z" fill="#FAFAFA"/>
<path d="M48.5683 123.213C42.762 125.405 36.7202 126.93 30.5619 127.757C26.6146 128.312 22.6327 128.591 18.6457 128.592C17.9971 128.592 17.3485 128.592 16.6941 128.592C12.9413 128.51 9.19993 128.151 5.50111 127.518C4.65655 125.786 4.14465 123.914 3.99148 121.997C3.65856 117.743 5.17966 113.96 6.82704 111.205C9.03362 107.556 12.0047 104.416 15.5404 101.998V104.355L48.5683 123.213Z" fill="#EBEBEB"/>
<path d="M48.569 123.213C42.7627 125.405 36.7209 126.93 30.5626 127.757C26.6153 128.312 22.6334 128.591 18.6464 128.592C17.9978 128.592 17.3492 128.592 16.6948 128.592C12.942 128.51 9.20063 128.151 5.50181 127.518C4.65726 125.786 4.14535 123.914 3.99219 121.997C4.27312 119.002 5.24519 116.11 6.83349 113.545C9.04158 109.898 12.0125 106.761 15.5468 104.344L31.504 113.432L48.569 123.213Z" fill="#9A4A4D"/>
<path d="M15.5393 106.111C12.0071 108.529 9.03816 111.667 6.83173 115.313C5.41663 117.62 4.48547 120.185 4.09375 122.856C4.31502 124.47 4.79153 126.04 5.50579 127.508C9.20243 128.144 12.9419 128.507 16.6931 128.593C17.3474 128.593 17.996 128.593 18.6447 128.593C22.632 128.586 26.614 128.301 30.5609 127.741C36.0534 126.991 41.4567 125.701 46.6903 123.89L31.5137 115.222L15.5393 106.111Z" fill="#B16668"/>
<path d="M12.25 113.182V112.825C12.2515 112.711 12.2816 112.599 12.3378 112.5C12.3939 112.401 12.4742 112.317 12.5714 112.257L14.9191 110.91C15.0184 110.863 15.1273 110.838 15.2377 110.838C15.348 110.838 15.457 110.863 15.5562 110.91L23.885 115.665C23.9794 115.728 24.0573 115.812 24.1122 115.911C24.1671 116.01 24.1974 116.12 24.2007 116.233V116.59C24.1988 116.703 24.1691 116.814 24.1141 116.913C24.0591 117.012 23.9804 117.096 23.885 117.158L21.5316 118.505C21.4323 118.552 21.3234 118.577 21.213 118.577C21.1026 118.577 20.9937 118.552 20.8944 118.505L12.5714 113.728C12.4774 113.669 12.3991 113.589 12.3431 113.494C12.2871 113.399 12.2552 113.292 12.25 113.182Z" fill="#EBEBEB"/>
<path d="M21.2101 117.471V118.562C21.0998 118.562 20.9913 118.534 20.8944 118.482L12.5714 113.728C12.4749 113.667 12.3952 113.583 12.3391 113.484C12.2831 113.385 12.2525 113.274 12.25 113.16V112.802C12.256 112.704 12.2825 112.607 12.3279 112.519C12.3734 112.431 12.4368 112.354 12.514 112.291C12.3992 112.393 12.4165 112.53 12.5714 112.615L20.8944 117.375C20.9894 117.433 21.0982 117.467 21.2101 117.471Z" fill="#E0E0E0"/>
<path d="M12.571 112.642L20.894 117.396C20.9924 117.446 21.1017 117.472 21.2125 117.472C21.3234 117.472 21.4326 117.446 21.5311 117.396L23.8845 116.055C23.9218 116.041 23.9538 116.015 23.9763 115.982C23.9988 115.949 24.0108 115.911 24.0108 115.871C24.0108 115.831 23.9988 115.792 23.9763 115.759C23.9538 115.726 23.9218 115.701 23.8845 115.686L15.5558 110.932C15.4573 110.882 15.348 110.855 15.2372 110.855C15.1263 110.855 15.0171 110.882 14.9186 110.932L12.571 112.278C12.393 112.375 12.393 112.539 12.571 112.642Z" fill="#FAFAFA"/>
<path d="M24.2031 120.015V119.657C24.2046 119.543 24.2347 119.432 24.2909 119.332C24.347 119.233 24.4274 119.149 24.5246 119.089L26.8722 117.743C26.9707 117.692 27.0799 117.666 27.1908 117.666C27.3016 117.666 27.4109 117.692 27.5094 117.743L35.8324 122.497C35.9285 122.558 36.008 122.642 36.064 122.741C36.12 122.84 36.1508 122.951 36.1538 123.065V123.423C36.1508 123.536 36.12 123.647 36.064 123.746C36.008 123.845 35.9285 123.929 35.8324 123.991L33.4847 125.337C33.3854 125.384 33.2765 125.409 33.1661 125.409C33.0558 125.409 32.9468 125.384 32.8476 125.337L24.5246 120.577C24.4282 120.517 24.3483 120.434 24.2922 120.336C24.2361 120.238 24.2055 120.127 24.2031 120.015Z" fill="#EBEBEB"/>
<path d="M33.1633 124.303V125.394C33.0528 125.395 32.944 125.368 32.8476 125.314L24.5246 120.56C24.4281 120.499 24.3483 120.415 24.2922 120.316C24.2362 120.217 24.2056 120.106 24.2031 119.992V119.629C24.2101 119.532 24.2366 119.437 24.2809 119.35C24.3253 119.263 24.3866 119.186 24.4614 119.123C24.3524 119.225 24.3696 119.362 24.5246 119.447L32.8476 124.207C32.9419 124.267 33.0511 124.3 33.1633 124.303Z" fill="#E0E0E0"/>
<path d="M24.5255 119.504L32.8485 124.258C32.947 124.309 33.0563 124.335 33.1671 124.335C33.278 124.335 33.3872 124.309 33.4857 124.258L35.8333 122.912C36.0113 122.816 36.0113 122.651 35.8333 122.549L27.4989 117.766C27.4004 117.716 27.2911 117.689 27.1803 117.689C27.0695 117.689 26.9602 117.716 26.8617 117.766L24.5141 119.112C24.3476 119.209 24.3476 119.373 24.5255 119.504Z" fill="#FAFAFA"/>
<path d="M21.5078 104.345L52.8712 122.265V129.087L127.193 86.6231L89.854 65.2891L21.5078 104.345Z" fill="#FAFAFA"/>
<path d="M50.9376 122.213C50.2948 122.508 49.5026 122.849 48.567 123.212L15.5391 104.344V101.986L50.9376 122.213Z" fill="#E0E0E0"/>
<path d="M52.8712 127.383L124.202 86.6231L89.854 66.9987L23.0002 105.197L21.5078 104.345L89.854 65.2891L127.193 86.6231L52.8712 129.087V127.383Z" fill="#FAFAFA"/>
<path d="M89.8516 66.998V70.4117L121.215 88.3264L124.2 86.6224L89.8516 66.998Z" fill="#E0E0E0"/>
<path d="M23 105.196L25.9848 106.9L89.8538 70.4117V66.998L23 105.196Z" fill="#E6E6E6"/>
<path d="M25.9844 106.9L89.8533 70.4121L121.217 88.3268L52.8705 127.383V122.265L25.9844 106.9Z" fill="#9A4A4D"/>
<path d="M27.9688 108.036L52.8689 122.264V127.382L119.229 89.4621L89.8517 72.6777L27.9688 108.036Z" fill="#B16668"/>
<path d="M82.6016 80.6241L105.533 93.7392C105.68 93.8135 105.844 93.8523 106.009 93.8523C106.175 93.8523 106.338 93.8135 106.486 93.7392L111.468 90.8595C111.616 90.7851 111.779 90.7464 111.944 90.7464C112.11 90.7464 112.273 90.7851 112.421 90.8595L112.995 91.1832C113.142 91.2589 113.305 91.2984 113.471 91.2984C113.637 91.2984 113.801 91.2589 113.948 91.1832L118.976 88.3432C119.042 88.33 119.102 88.2945 119.145 88.2428C119.188 88.191 119.211 88.1261 119.211 88.0592C119.211 87.9923 119.188 87.9274 119.145 87.8757C119.102 87.8239 119.042 87.7884 118.976 87.7752L93.0197 72.9277C92.8725 72.852 92.7091 72.8125 92.5433 72.8125C92.3774 72.8125 92.214 72.852 92.0668 72.9277L85.5577 76.6481C85.4914 76.6613 85.4317 76.6968 85.3889 76.7485C85.346 76.8003 85.3226 76.8652 85.3226 76.9321C85.3226 76.999 85.346 77.0639 85.3889 77.1156C85.4317 77.1674 85.4914 77.2029 85.5577 77.2161L86.0972 77.5285C86.3613 77.6762 86.3613 77.9204 86.0972 78.0965L82.6016 80.0788C82.3203 80.2322 82.3203 80.4764 82.6016 80.6241Z" fill="#9A4A4D"/>
<path d="M34.3836 107.234L59.6396 121.667C59.7887 121.74 59.9527 121.778 60.1189 121.778C60.2851 121.778 60.4491 121.74 60.5982 121.667L76.8596 112.363C77.1237 112.216 77.1237 111.971 76.8596 111.795L51.6036 97.3624C51.4545 97.2897 51.2905 97.252 51.1243 97.252C50.9581 97.252 50.7941 97.2897 50.645 97.3624L34.3836 106.689C34.0909 106.837 34.0909 107.081 34.3836 107.234Z" fill="#9A4A4D"/>
<path d="M53.7691 96.1415L79.0251 110.574C79.173 110.647 79.3361 110.685 79.5015 110.685C79.6668 110.685 79.8299 110.647 79.9779 110.574L96.2508 101.276C96.5148 101.123 96.5148 100.879 96.2508 100.708L70.9948 86.2753C70.8476 86.1997 70.6842 86.1602 70.5184 86.1602C70.3525 86.1602 70.1891 86.1997 70.042 86.2753L53.7633 95.5735C53.505 95.7439 53.505 95.9881 53.7691 96.1415Z" fill="#9A4A4D"/>
<path d="M61.2817 99.8059L54.4798 95.9037C54.3854 95.8406 54.3075 95.7562 54.2526 95.6574C54.1977 95.5587 54.1673 95.4484 54.1641 95.3357V89.2581C54.1673 89.1454 54.1977 89.0351 54.2526 88.9364C54.3075 88.8376 54.3854 88.7532 54.4798 88.6901L70.2762 79.6703C70.3737 79.62 70.482 79.5938 70.5919 79.5938C70.7019 79.5938 70.8102 79.62 70.9076 79.6703L77.7382 83.5724C77.8344 83.6342 77.9139 83.7182 77.9699 83.8171C78.0259 83.9161 78.0567 84.0271 78.0597 84.1404V90.2408C78.0564 90.3534 78.0261 90.4637 77.9712 90.5625C77.9163 90.6613 77.8384 90.7457 77.744 90.8088L61.9418 99.8059C61.8404 99.8601 61.727 99.8884 61.6117 99.8884C61.4965 99.8884 61.3831 99.8601 61.2817 99.8059Z" fill="#37474F"/>
<path d="M54.6121 89.1677L61.127 92.8881C61.2742 92.9638 61.4376 93.0033 61.6034 93.0033C61.7693 93.0033 61.9327 92.9638 62.0798 92.8881L77.5778 84.0501C77.8419 83.9024 77.8419 83.6582 77.5778 83.4821L71.0629 79.7617C70.9158 79.686 70.7524 79.6465 70.5865 79.6465C70.4207 79.6465 70.2573 79.686 70.1101 79.7617L54.6121 88.5997C54.3481 88.7758 54.3481 89.0201 54.6121 89.1677Z" fill="#455A64"/>
<path d="M61.6031 93.0002V99.8844C61.4909 99.8851 61.3803 99.8577 61.2817 99.8048L54.4798 95.9027C54.384 95.841 54.3051 95.7569 54.25 95.6578C54.1949 95.5587 54.1654 95.4477 54.1641 95.3347V89.2628C54.1644 89.1495 54.1935 89.0381 54.2486 88.9389C54.3038 88.8396 54.3833 88.7557 54.4798 88.6948L54.6118 88.6152C54.3764 88.7629 54.3879 88.9958 54.6118 89.1435L61.1267 92.8639C61.2699 92.9517 61.4347 92.9988 61.6031 93.0002Z" fill="#263238"/>
<path d="M62.0469 93.4099L62.2707 93.2793V99.124L62.0469 99.2547V93.4099Z" fill="#263238"/>
<path d="M62.8828 92.9334L63.1124 92.8027L63.1067 98.6418L62.8828 98.7724V92.9334Z" fill="#263238"/>
<path d="M63.7266 92.451L63.9562 92.3203V98.165L63.7266 98.2957V92.451Z" fill="#263238"/>
<path d="M64.5625 91.9723L64.7921 91.8359V97.6807L64.5625 97.8113V91.9723Z" fill="#263238"/>
<path d="M65.4062 91.49L65.6301 91.3594V97.2041L65.4062 97.3347V91.49Z" fill="#263238"/>
<path d="M66.2422 91.0133L66.4718 90.877V96.7217L66.2422 96.8523V91.0133Z" fill="#263238"/>
<path d="M67.0781 90.531L67.3077 90.4004V96.2451L67.0781 96.3758V90.531Z" fill="#263238"/>
<path d="M67.9219 90.0523L68.1515 89.916V95.7607L67.9219 95.8914V90.0523Z" fill="#263238"/>
<path d="M68.7656 89.5701L68.9895 89.4395V95.2842L68.7656 95.4148V89.5701Z" fill="#263238"/>
<path d="M69.6016 89.0877L69.8312 88.957V94.8017L69.6016 94.9324V89.0877Z" fill="#263238"/>
<path d="M70.4375 88.6111L70.6671 88.4805V94.3252L70.4375 94.4558V88.6111Z" fill="#263238"/>
<path d="M71.2812 88.1267L71.5108 87.9961V93.8408L71.2812 93.9715V88.1267Z" fill="#263238"/>
<path d="M72.125 87.6502L72.3489 87.5195V93.3642L72.125 93.4949V87.6502Z" fill="#263238"/>
<path d="M72.9609 87.1678L73.1905 87.0371V92.8818L72.9609 93.0125V87.1678Z" fill="#263238"/>
<path d="M73.7969 86.6912L74.0265 86.5605V92.4053L73.7969 92.5359V86.6912Z" fill="#263238"/>
<path d="M74.6328 86.2088L74.8624 86.0781V91.9229L74.6328 92.0535V86.2088Z" fill="#263238"/>
<path d="M75.4766 85.7302L75.7004 85.5996V91.4443L75.4766 91.575V85.7302Z" fill="#263238"/>
<path d="M76.3203 85.2478L76.5499 85.1172V90.9619L76.3203 91.0925V85.2478Z" fill="#263238"/>
<path d="M77.1562 84.7713L77.3859 84.6406V90.4854L77.1562 90.616V84.7713Z" fill="#263238"/>
<path opacity="0.3" d="M57.7999 91.6385L57.5703 91.5078V97.3525L57.7999 97.4832V91.6385Z" fill="black"/>
<path opacity="0.3" d="M58.2656 92.2862L61.0323 93.8652V93.7119L58.2656 92.1328V92.2862Z" fill="black"/>
<path opacity="0.3" d="M58.2656 97.5165L61.0323 99.0955V98.9365L58.2656 97.3574V97.5165Z" fill="black"/>
<path opacity="0.3" d="M58.2656 94.3819L61.0323 95.9666V95.8076L58.2656 94.2285V94.3819Z" fill="black"/>
<path opacity="0.3" d="M58.2656 94.8819L61.0323 96.4609V96.3076L58.2656 94.7285V94.8819Z" fill="black"/>
<path opacity="0.3" d="M58.2656 95.3819L61.0323 96.9609V96.8076L58.2656 95.2285V95.3819Z" fill="black"/>
<path opacity="0.3" d="M54.4453 90.1161L57.212 91.6951V91.5361L54.4453 89.957V90.1161Z" fill="black"/>
<path opacity="0.3" d="M54.4453 95.3409L57.212 96.9199V96.7665L54.4453 95.1875V95.3409Z" fill="black"/>
<path opacity="0.3" d="M54.4453 92.2118L57.212 93.7908V93.6318L54.4453 92.0527V92.2118Z" fill="black"/>
<path opacity="0.3" d="M54.4453 92.7118L57.212 94.2908V94.1318L54.4453 92.5527V92.7118Z" fill="black"/>
<path opacity="0.3" d="M54.4453 93.2118L57.212 94.7908V94.6318L54.4453 93.0527V93.2118Z" fill="black"/>
<path d="M70.2244 104.94L63.3938 101.038C63.2984 100.976 63.2197 100.892 63.1647 100.793C63.1097 100.694 63.08 100.583 63.0781 100.47V94.3983C63.0796 94.2846 63.1097 94.173 63.1659 94.0738C63.222 93.9746 63.3024 93.8909 63.3996 93.8303L79.1903 84.8559C79.2888 84.8056 79.398 84.7793 79.5089 84.7793C79.6197 84.7793 79.7289 84.8056 79.8274 84.8559L86.658 88.758C86.7525 88.8211 86.8303 88.9055 86.8852 89.0043C86.9401 89.1031 86.9705 89.2133 86.9737 89.326V95.4263C86.9705 95.539 86.9401 95.6493 86.8852 95.7481C86.8303 95.8469 86.7525 95.9313 86.658 95.9943L70.8616 105.014C70.7572 105.053 70.6448 105.067 70.5339 105.054C70.4229 105.042 70.3168 105.002 70.2244 104.94Z" fill="#C51F2C"/>
<path opacity="0.3" d="M63.5574 94.3079L70.0723 98.0283C70.2203 98.1014 70.3834 98.1394 70.5487 98.1394C70.7141 98.1394 70.8772 98.1014 71.0251 98.0283L86.5231 89.1846C86.7872 89.0369 86.7872 88.7927 86.5231 88.6166L80.0082 84.8962C79.8603 84.8232 79.6972 84.7852 79.5318 84.7852C79.3665 84.7852 79.2034 84.8232 79.0554 84.8962L63.5574 93.7399C63.2934 93.9103 63.2934 94.1546 63.5574 94.3079Z" fill="white"/>
<path opacity="0.1" d="M70.5459 98.135V105.019C70.4354 105.02 70.3266 104.993 70.2302 104.94L63.3938 101.043C63.2994 100.98 63.2215 100.896 63.1666 100.797C63.1117 100.698 63.0814 100.588 63.0781 100.475V94.3975C63.08 94.2845 63.1097 94.1737 63.1647 94.0747C63.2197 93.9757 63.2984 93.8916 63.3938 93.8295L63.5258 93.75C63.2905 93.9034 63.302 94.1362 63.5258 94.2782L70.0407 98.0043C70.1942 98.0919 70.3687 98.1371 70.5459 98.135Z" fill="black"/>
<path opacity="0.1" d="M71.125 98.4881L71.3489 98.3574V104.202L71.125 104.333V98.4881Z" fill="black"/>
<path opacity="0.1" d="M71.9609 98.0115L72.1905 97.8809V103.726L71.9609 103.856V98.0115Z" fill="black"/>
<path opacity="0.1" d="M72.7969 97.5271L73.0265 97.3965V103.241L72.7969 103.372V97.5271Z" fill="black"/>
<path opacity="0.1" d="M73.6328 97.0506L73.8624 96.9199V102.765L73.6328 102.895V97.0506Z" fill="black"/>
<path opacity="0.1" d="M74.4766 96.5681L74.7004 96.4375V102.282L74.4766 102.413V96.5681Z" fill="black"/>
<path opacity="0.1" d="M75.3203 96.0916L75.5499 95.9609V101.806L75.3203 101.936V96.0916Z" fill="black"/>
<path opacity="0.1" d="M76.1562 95.6092L76.3858 95.4785V101.323L76.1562 101.454V95.6092Z" fill="black"/>
<path opacity="0.1" d="M77 95.1306L77.2239 95V100.845L77 100.975V95.1306Z" fill="black"/>
<path opacity="0.1" d="M77.8359 94.6482L78.0598 94.5176V100.362L77.8359 100.493V94.6482Z" fill="black"/>
<path opacity="0.1" d="M78.6797 94.1717L78.9093 94.041V99.8857L78.6797 100.016V94.1717Z" fill="black"/>
<path opacity="0.1" d="M79.5156 93.6892L79.7452 93.5586V99.4033L79.5156 99.5339V93.6892Z" fill="black"/>
<path opacity="0.1" d="M80.3594 93.2107L80.5832 93.0801V98.9248L80.3594 99.0554V93.2107Z" fill="black"/>
<path opacity="0.1" d="M81.1953 92.7283L81.4192 92.5977V98.4424L81.1953 98.573V92.7283Z" fill="black"/>
<path opacity="0.1" d="M82.0312 92.2517L82.2609 92.1211V97.9658L82.0312 98.0965V92.2517Z" fill="black"/>
<path opacity="0.1" d="M82.875 91.7693L83.1046 91.6387V97.4834L82.875 97.614V91.7693Z" fill="black"/>
<path opacity="0.1" d="M83.7188 91.2908L83.9426 91.1602V97.0049L83.7188 97.1355V91.2908Z" fill="black"/>
<path opacity="0.1" d="M84.5547 90.8084L84.7785 90.6777V96.5225L84.5547 96.6531V90.8084Z" fill="black"/>
<path opacity="0.1" d="M85.3906 90.3318L85.6202 90.2012V96.0402L85.3906 96.1765V90.3318Z" fill="black"/>
<path opacity="0.1" d="M86.2266 89.8494L86.4562 89.7188V95.5635L86.2266 95.6941V89.8494Z" fill="black"/>
<path opacity="0.1" d="M66.878 96.7166L66.6484 96.5859V102.431L66.878 102.561V96.7166Z" fill="black"/>
<path opacity="0.1" d="M67.3359 97.37L70.1026 98.949V98.79L67.3359 97.2109V97.37Z" fill="black"/>
<path opacity="0.1" d="M67.3359 102.595L70.1026 104.174V104.02L67.3359 102.441V102.595Z" fill="black"/>
<path opacity="0.1" d="M67.3359 99.4657L70.1026 101.045V100.886L67.3359 99.3066V99.4657Z" fill="black"/>
<path opacity="0.1" d="M67.3359 99.96L70.1026 101.545V101.386L67.3359 99.8066V99.96Z" fill="black"/>
<path opacity="0.1" d="M67.3359 100.458L70.1026 102.037V101.884L67.3359 100.305V100.458Z" fill="black"/>
<path opacity="0.1" d="M63.5234 95.1942L66.2901 96.7732V96.6142L63.5234 95.0352V95.1942Z" fill="black"/>
<path opacity="0.1" d="M63.5234 100.425L66.2901 102.004V101.845L63.5234 100.266V100.425Z" fill="black"/>
<path opacity="0.1" d="M63.5234 97.2899L66.2901 98.8689V98.7156L63.5234 97.1309V97.2899Z" fill="black"/>
<path opacity="0.1" d="M63.5234 97.7899L66.2901 99.3689V99.2099L63.5234 97.6309V97.7899Z" fill="black"/>
<path opacity="0.1" d="M63.5234 98.2899L66.2901 99.8689V99.7099L63.5234 98.1309V98.2899Z" fill="black"/>
<path d="M79.1911 110.052L72.3605 106.15C72.2644 106.088 72.1848 106.004 72.1288 105.905C72.0728 105.806 72.042 105.695 72.0391 105.582V99.5039C72.042 99.3905 72.0728 99.2796 72.1288 99.1806C72.1848 99.0816 72.2644 98.9977 72.3605 98.9359L88.1512 89.9672C88.2497 89.9169 88.359 89.8906 88.4698 89.8906C88.5807 89.8906 88.6899 89.9169 88.7884 89.9672L95.619 93.8693C95.7134 93.9324 95.7913 94.0168 95.8462 94.1156C95.9011 94.2144 95.9314 94.3247 95.9347 94.4373V100.538C95.9314 100.65 95.9011 100.761 95.8462 100.859C95.7913 100.958 95.7134 101.043 95.619 101.106L79.8282 110.126C79.7239 110.165 79.6114 110.179 79.5005 110.166C79.3896 110.153 79.2835 110.114 79.1911 110.052Z" fill="#37474F"/>
<path d="M72.5211 99.4139L79.036 103.134C79.1831 103.21 79.3465 103.249 79.5124 103.249C79.6782 103.249 79.8416 103.21 79.9888 103.134L95.4868 94.2962C95.7508 94.1428 95.7508 93.8986 95.4868 93.7282L88.9776 90.0078C88.8295 89.9321 88.6651 89.8926 88.4984 89.8926C88.3316 89.8926 88.1672 89.9321 88.0191 90.0078L72.5211 98.8459C72.2742 99.022 72.2742 99.2662 72.5211 99.4139Z" fill="#455A64"/>
<path d="M79.5068 103.248V110.127C79.3968 110.13 79.2879 110.105 79.1911 110.053L72.3605 106.151C72.2644 106.089 72.1848 106.005 72.1288 105.906C72.0728 105.807 72.042 105.696 72.0391 105.583V99.5108C72.0405 99.3971 72.0707 99.2856 72.1268 99.1864C72.183 99.0872 72.2633 99.0034 72.3605 98.9428L72.4925 98.8633C72.2572 99.011 72.2629 99.2438 72.4925 99.3915L79.0074 103.112C79.1575 103.203 79.3307 103.251 79.5068 103.248Z" fill="#263238"/>
<path d="M79.9531 103.656L80.1827 103.525V109.37L79.9531 109.501V103.656Z" fill="#263238"/>
<path d="M80.7969 103.174L81.0265 103.043V108.888L80.7969 109.018V103.174Z" fill="#263238"/>
<path d="M81.6328 102.697L81.8624 102.566V108.411L81.6328 108.542V102.697Z" fill="#263238"/>
<path d="M82.4766 102.215L82.7004 102.084V107.929L82.4766 108.059V102.215Z" fill="#263238"/>
<path d="M83.3125 101.736L83.5421 101.605V107.45L83.3125 107.581V101.736Z" fill="#263238"/>
<path d="M84.1484 101.254L84.378 101.123V106.968L84.1484 107.098V101.254Z" fill="#263238"/>
<path d="M84.9922 100.777L85.2218 100.646V106.491L84.9922 106.622V100.777Z" fill="#263238"/>
<path d="M85.8359 100.295L86.0655 100.164L86.0598 106.009L85.8359 106.139V100.295Z" fill="#263238"/>
<path d="M86.6719 99.8162L86.9015 99.6855V105.53L86.6719 105.661V99.8162Z" fill="#263238"/>
<path d="M87.5078 99.3338L87.7374 99.2031V105.048L87.5078 105.178V99.3338Z" fill="#263238"/>
<path d="M88.3516 98.8572L88.5812 98.7266V104.571L88.3516 104.702V98.8572Z" fill="#263238"/>
<path d="M89.1953 98.3748L89.4249 98.2441V104.089L89.1953 104.219V98.3748Z" fill="#263238"/>
<path d="M90.0312 97.8982L90.2608 97.7676V103.612L90.0312 103.743V97.8982Z" fill="#263238"/>
<path d="M90.8672 97.4138L91.0968 97.2832V103.128L90.8672 103.259V97.4138Z" fill="#263238"/>
<path d="M91.7109 96.9373L91.9348 96.8066V102.651L91.7109 102.782V96.9373Z" fill="#263238"/>
<path d="M92.5469 96.4549L92.7707 96.3242V102.169L92.5469 102.3V96.4549Z" fill="#263238"/>
<path d="M93.3906 95.9783L93.6202 95.8477V101.692L93.3906 101.823V95.9783Z" fill="#263238"/>
<path d="M94.2266 95.4939L94.4562 95.3633V101.208L94.2266 101.339V95.4939Z" fill="#263238"/>
<path d="M95.0703 95.0174L95.2942 94.8867V100.731L95.0703 100.862V95.0174Z" fill="#263238"/>
<path opacity="0.3" d="M75.7062 101.885L75.4766 101.754V107.599L75.7062 107.729V101.885Z" fill="black"/>
<path opacity="0.3" d="M76.1719 102.532L78.9386 104.111V103.958L76.1719 102.379V102.532Z" fill="black"/>
<path opacity="0.3" d="M76.1719 107.763L78.9386 109.342V109.183L76.1719 107.604V107.763Z" fill="black"/>
<path opacity="0.3" d="M76.1719 104.628L78.9386 106.207V106.054L76.1719 104.475V104.628Z" fill="black"/>
<path opacity="0.3" d="M76.1719 105.128L78.9386 106.707V106.554L76.1719 104.975V105.128Z" fill="black"/>
<path opacity="0.3" d="M76.1719 105.628L78.9386 107.207V107.053L76.1719 105.469V105.628Z" fill="black"/>
<path opacity="0.3" d="M72.3594 100.362L75.1203 101.941V101.782L72.3594 100.203V100.362Z" fill="black"/>
<path opacity="0.3" d="M72.3594 105.589L75.1203 107.168V107.014L72.3594 105.43V105.589Z" fill="black"/>
<path opacity="0.3" d="M72.3594 102.458L75.1203 104.037V103.878L72.3594 102.299V102.458Z" fill="black"/>
<path opacity="0.3" d="M72.3594 102.958L75.1203 104.537V104.378L72.3594 102.799V102.958Z" fill="black"/>
<path opacity="0.3" d="M72.3594 103.452L75.1203 105.037V104.878L72.3594 103.299V103.452Z" fill="black"/>
<path d="M41.8494 110.9L35.0246 107.009C34.9284 106.947 34.8489 106.863 34.7929 106.764C34.7369 106.665 34.7061 106.554 34.7031 106.441V100.352C34.7061 100.239 34.7369 100.128 34.7929 100.029C34.8489 99.9296 34.9284 99.8456 35.0246 99.7839L50.8153 90.7641C50.9138 90.7137 51.023 90.6875 51.1339 90.6875C51.2447 90.6875 51.3539 90.7137 51.4524 90.7641L58.283 94.6662C58.3785 94.7283 58.4571 94.8124 58.5121 94.9114C58.5672 95.0104 58.5969 95.1213 58.5987 95.2342V101.329C58.5958 101.442 58.565 101.553 58.509 101.652C58.453 101.751 58.3734 101.835 58.2773 101.897L42.4866 110.917C42.3867 110.964 42.2768 110.988 42.1659 110.985C42.0551 110.982 41.9465 110.953 41.8494 110.9Z" fill="#C51F2C"/>
<path opacity="0.3" d="M35.1831 100.26L41.6923 103.981C41.8405 104.056 42.0048 104.096 42.1716 104.096C42.3383 104.096 42.5027 104.056 42.6509 103.981L58.1202 95.1426C58.3842 94.9893 58.3842 94.745 58.1202 94.5746L51.6053 90.8769C51.4571 90.8012 51.2927 90.7617 51.126 90.7617C50.9592 90.7617 50.7949 90.8012 50.6467 90.8769L35.1774 99.715C34.9191 99.8684 34.9191 100.113 35.1831 100.26Z" fill="white"/>
<path opacity="0.1" d="M42.1787 104.094V110.984C42.0668 110.988 41.9559 110.962 41.8572 110.91L35.0266 107.008C34.9312 106.946 34.8526 106.862 34.7975 106.763C34.7425 106.664 34.7128 106.553 34.7109 106.44V100.357C34.7112 100.243 34.7403 100.132 34.7955 100.033C34.8507 99.9334 34.9301 99.8494 35.0266 99.7885L35.1587 99.709C34.9233 99.8567 34.9291 100.09 35.1587 100.237L41.6736 103.958C41.8254 104.05 42.0006 104.097 42.1787 104.094Z" fill="black"/>
<path opacity="0.1" d="M42.7422 104.447L42.9718 104.316V110.161L42.7422 110.292V104.447Z" fill="black"/>
<path opacity="0.1" d="M43.5781 103.968L43.8077 103.832V109.677L43.5781 109.807V103.968Z" fill="black"/>
<path opacity="0.1" d="M44.4219 103.486L44.6457 103.355V109.2L44.4219 109.331V103.486Z" fill="black"/>
<path opacity="0.1" d="M45.2656 103.004L45.4952 102.873V108.718L45.2656 108.848V103.004Z" fill="black"/>
<path opacity="0.1" d="M46.1016 102.527L46.3312 102.396V108.241L46.1016 108.372V102.527Z" fill="black"/>
<path opacity="0.1" d="M46.9375 102.043L47.1671 101.912V107.757L46.9375 107.887V102.043Z" fill="black"/>
<path opacity="0.1" d="M47.7812 101.566L48.0051 101.436V107.28L47.7812 107.411V101.566Z" fill="black"/>
<path opacity="0.1" d="M48.625 101.084L48.8546 100.953V106.798L48.625 106.928V101.084Z" fill="black"/>
<path opacity="0.1" d="M49.4609 100.607L49.6905 100.477V106.321L49.4609 106.452V100.607Z" fill="black"/>
<path opacity="0.1" d="M50.2969 100.125L50.5265 99.9941V105.839L50.2969 105.97V100.125Z" fill="black"/>
<path opacity="0.1" d="M51.1406 99.6463L51.3645 99.5156V105.36L51.1406 105.491V99.6463Z" fill="black"/>
<path opacity="0.1" d="M51.9766 99.1638L52.2062 99.0332V104.878L51.9766 105.009V99.1638Z" fill="black"/>
<path opacity="0.1" d="M52.8203 98.6873L53.0499 98.5566V104.401L52.8203 104.532V98.6873Z" fill="black"/>
<path opacity="0.1" d="M53.6562 98.2049L53.8858 98.0742V103.919L53.6562 104.05V98.2049Z" fill="black"/>
<path opacity="0.1" d="M54.5 97.7263L54.7239 97.5957V103.44L54.5 103.571V97.7263Z" fill="black"/>
<path opacity="0.1" d="M55.3359 97.2439L55.5655 97.1133V102.958L55.3359 103.089V97.2439Z" fill="black"/>
<path opacity="0.1" d="M56.1719 96.7674L56.4015 96.6367V102.481L56.1719 102.612V96.7674Z" fill="black"/>
<path opacity="0.1" d="M57.0156 96.2849L57.2395 96.1543V101.999L57.0156 102.13V96.2849Z" fill="black"/>
<path opacity="0.1" d="M57.8594 95.8064L58.0832 95.6758V101.52L57.8594 101.651V95.8064Z" fill="black"/>
<path opacity="0.1" d="M38.4952 102.674L38.2656 102.543L38.2714 108.388L38.4952 108.518V102.674Z" fill="black"/>
<path opacity="0.1" d="M38.9609 103.321L41.7276 104.9V104.747L38.9609 103.168V103.321Z" fill="black"/>
<path opacity="0.1" d="M38.9609 108.554L41.7276 110.133V109.974L38.9609 108.395V108.554Z" fill="black"/>
<path opacity="0.1" d="M38.9609 105.417L41.7276 107.002V106.843L38.9609 105.264V105.417Z" fill="black"/>
<path opacity="0.1" d="M38.9609 105.917L41.7276 107.496V107.343L38.9609 105.764V105.917Z" fill="black"/>
<path opacity="0.1" d="M38.9609 106.417L41.7276 107.996V107.843L38.9609 106.264V106.417Z" fill="black"/>
<path opacity="0.1" d="M35.1484 101.151L37.9094 102.73V102.571L35.1484 100.992V101.151Z" fill="black"/>
<path opacity="0.1" d="M35.1484 106.378L37.9094 107.957V107.804L35.1484 106.225V106.378Z" fill="black"/>
<path opacity="0.1" d="M35.1484 103.247L37.9094 104.826V104.667L35.1484 103.088V103.247Z" fill="black"/>
<path opacity="0.1" d="M35.1484 103.747L37.9094 105.326V105.167L35.1484 103.588V103.747Z" fill="black"/>
<path opacity="0.1" d="M35.1484 104.241L37.9094 105.826V105.667L35.1484 104.088V104.241Z" fill="black"/>
<path d="M50.8182 116.023L43.9876 112.121C43.8921 112.059 43.8135 111.974 43.7585 111.875C43.7034 111.776 43.6737 111.666 43.6719 111.553V105.475C43.6737 105.362 43.7034 105.251 43.7585 105.152C43.8135 105.053 43.8921 104.969 43.9876 104.907L59.7783 95.8871C59.8768 95.8368 59.986 95.8105 60.0969 95.8105C60.2077 95.8105 60.317 95.8368 60.4155 95.8871L67.2461 99.7893C67.3422 99.851 67.4217 99.935 67.4777 100.034C67.5337 100.133 67.5645 100.244 67.5675 100.357V106.441C67.5645 106.554 67.5337 106.665 67.4777 106.764C67.4217 106.863 67.3422 106.947 67.2461 107.009L51.4553 116.028C51.3564 116.078 51.2469 116.103 51.136 116.102C51.0252 116.101 50.9162 116.074 50.8182 116.023Z" fill="#37474F"/>
<path d="M44.1433 105.383L50.6525 109.103C50.8007 109.179 50.965 109.218 51.1318 109.218C51.2986 109.218 51.4629 109.179 51.6111 109.103L67.1091 100.265C67.3731 100.112 67.3731 99.8673 67.1091 99.6969L60.5999 95.9765C60.4517 95.9008 60.2874 95.8613 60.1206 95.8613C59.9539 95.8613 59.7895 95.9008 59.6413 95.9765L44.1433 104.837C43.8793 104.991 43.8793 105.235 44.1433 105.383Z" fill="#455A64"/>
<path d="M51.1396 109.217V116.095C51.0277 116.099 50.9168 116.074 50.8182 116.022L43.9876 112.119C43.8921 112.057 43.8135 111.973 43.7585 111.874C43.7034 111.775 43.6737 111.664 43.6719 111.551V105.48C43.6722 105.366 43.7013 105.255 43.7564 105.156C43.8116 105.056 43.8911 104.972 43.9876 104.912L44.1196 104.832C43.8843 104.98 43.89 105.213 44.1196 105.36L50.6402 109.081C50.79 109.173 50.9634 109.22 51.1396 109.217Z" fill="#263238"/>
<path d="M51.5781 109.627L51.8077 109.496V115.341L51.5781 115.471V109.627Z" fill="#263238"/>
<path d="M52.4141 109.144L52.6437 109.014V114.858L52.4198 114.989L52.4141 109.144Z" fill="#263238"/>
<path d="M53.2578 108.666L53.4874 108.535V114.38L53.2578 114.511V108.666Z" fill="#263238"/>
<path d="M54.0938 108.183L54.3234 108.053V113.897L54.0938 114.028V108.183Z" fill="#263238"/>
<path d="M54.9375 107.707L55.1671 107.576V113.421L54.9375 113.552V107.707Z" fill="#263238"/>
<path d="M55.7812 107.224L56.0051 107.094V112.938L55.7812 113.069V107.224Z" fill="#263238"/>
<path d="M56.6172 106.746L56.8468 106.615V112.46L56.6172 112.591V106.746Z" fill="#263238"/>
<path d="M57.4531 106.263L57.6827 106.133V111.978L57.4531 112.108V106.263Z" fill="#263238"/>
<path d="M58.2969 105.787L58.5265 105.656V111.501L58.2969 111.632V105.787Z" fill="#263238"/>
<path d="M59.1406 105.304L59.3645 105.174V111.019L59.1406 111.149V105.304Z" fill="#263238"/>
<path d="M59.9766 104.826L60.2062 104.695V110.54L59.9766 110.671V104.826Z" fill="#263238"/>
<path d="M60.8125 104.344L61.0421 104.213V110.058L60.8125 110.188V104.344Z" fill="#263238"/>
<path d="M61.6484 103.867L61.878 103.736V109.581L61.6484 109.712V103.867Z" fill="#263238"/>
<path d="M62.4922 103.385L62.716 103.254V109.099L62.4922 109.229V103.385Z" fill="#263238"/>
<path d="M63.3359 102.908L63.5655 102.777V108.622L63.3359 108.753V102.908Z" fill="#263238"/>
<path d="M64.1719 102.424L64.4015 102.293V108.138L64.1719 108.268V102.424Z" fill="#263238"/>
<path d="M65.0078 101.947L65.2374 101.816V107.661L65.0078 107.792V101.947Z" fill="#263238"/>
<path d="M65.8516 101.465L66.0754 101.334V107.179L65.8516 107.309V101.465Z" fill="#263238"/>
<path d="M66.6875 100.988L66.9171 100.857V106.702L66.6875 106.833V100.988Z" fill="#263238"/>
<path opacity="0.3" d="M47.3332 107.855L47.1094 107.725V113.569L47.3332 113.7V107.855Z" fill="black"/>
<path opacity="0.3" d="M47.8047 108.501L50.5656 110.08V109.927L47.8047 108.348V108.501Z" fill="black"/>
<path opacity="0.3" d="M47.8047 113.733L50.5656 115.312V115.153L47.8047 113.574V113.733Z" fill="black"/>
<path opacity="0.3" d="M47.8047 110.599L50.5656 112.178V112.024L47.8047 110.445V110.599Z" fill="black"/>
<path opacity="0.3" d="M47.8047 111.097L50.5656 112.676V112.522L47.8047 110.943V111.097Z" fill="black"/>
<path opacity="0.3" d="M47.8047 111.597L50.5656 113.176V113.022L47.8047 111.443V111.597Z" fill="black"/>
<path opacity="0.3" d="M43.9844 106.333L46.7511 107.912V107.753L43.9844 106.174V106.333Z" fill="black"/>
<path opacity="0.3" d="M43.9844 111.558L46.7511 113.137V112.983L43.9844 111.404V111.558Z" fill="black"/>
<path opacity="0.3" d="M43.9844 108.429L46.7511 110.008V109.849L43.9844 108.27V108.429Z" fill="black"/>
<path opacity="0.3" d="M43.9844 108.929L46.7511 110.508V110.349L43.9844 108.77V108.929Z" fill="black"/>
<path opacity="0.3" d="M43.9844 109.423L46.7511 111.002V110.849L43.9844 109.27V109.423Z" fill="black"/>
<path d="M59.7713 121.14L52.9407 117.232C52.8453 117.17 52.7666 117.086 52.7116 116.987C52.6566 116.888 52.6268 116.777 52.625 116.664V110.598C52.6268 110.485 52.6566 110.374 52.7116 110.275C52.7666 110.176 52.8453 110.092 52.9407 110.03L68.7314 101.004C68.8299 100.954 68.9392 100.928 69.05 100.928C69.1609 100.928 69.2701 100.954 69.3686 101.004L76.1992 104.906C76.2953 104.968 76.3748 105.052 76.4308 105.151C76.4868 105.25 76.5177 105.361 76.5206 105.474V111.552C76.5177 111.665 76.4868 111.776 76.4308 111.875C76.3748 111.974 76.2953 112.058 76.1992 112.12L60.4084 121.14C60.3099 121.19 60.2007 121.216 60.0899 121.216C59.979 121.216 59.8698 121.19 59.7713 121.14Z" fill="#C51F2C"/>
<path opacity="0.3" d="M53.1008 110.507L59.6387 114.228C59.7878 114.3 59.9518 114.338 60.118 114.338C60.2842 114.338 60.4482 114.3 60.5973 114.228L76.0953 105.384C76.3593 105.236 76.3593 104.992 76.0953 104.816L69.5804 101.095C69.4324 101.022 69.2693 100.984 69.104 100.984C68.9386 100.984 68.7755 101.022 68.6275 101.095L53.1295 109.939C52.8368 110.11 52.8368 110.354 53.1008 110.507Z" fill="white"/>
<path opacity="0.1" d="M60.0927 114.336V121.209C59.9805 121.21 59.87 121.182 59.7713 121.129L52.9407 117.233C52.8453 117.171 52.7666 117.087 52.7116 116.988C52.6566 116.889 52.6268 116.778 52.625 116.665V110.599C52.6253 110.485 52.6544 110.374 52.7095 110.275C52.7647 110.176 52.8442 110.092 52.9407 110.031L53.0727 109.951C53.0201 109.975 52.976 110.014 52.9461 110.062C52.9161 110.111 52.9017 110.168 52.9048 110.225C52.9079 110.282 52.9284 110.337 52.9634 110.382C52.9985 110.428 53.0466 110.461 53.1014 110.479L59.6393 114.228C59.7794 114.3 59.935 114.337 60.0927 114.336Z" fill="black"/>
<path opacity="0.1" d="M60.6641 114.687L60.8937 114.557V120.401L60.6641 120.532V114.687Z" fill="black"/>
<path opacity="0.1" d="M61.5078 114.211L61.7317 114.08V119.925L61.5078 120.055V114.211Z" fill="black"/>
<path opacity="0.1" d="M62.3438 113.728L62.5733 113.598V119.442L62.3438 119.573V113.728Z" fill="black"/>
<path opacity="0.1" d="M63.1875 113.25L63.4171 113.119V118.964L63.1875 119.095V113.25Z" fill="black"/>
<path opacity="0.1" d="M64.0234 112.767L64.253 112.637V118.481L64.0234 118.612V112.767Z" fill="black"/>
<path opacity="0.1" d="M64.8672 112.291L65.091 112.16V118.005L64.8672 118.136V112.291Z" fill="black"/>
<path opacity="0.1" d="M65.7031 111.808L65.9327 111.678V117.522L65.7031 117.653V111.808Z" fill="black"/>
<path opacity="0.1" d="M66.5391 111.33L66.7687 111.199V117.044L66.5391 117.175V111.33Z" fill="black"/>
<path opacity="0.1" d="M67.3828 110.847L67.6067 110.717V116.562L67.3828 116.692V110.847Z" fill="black"/>
<path opacity="0.1" d="M68.2266 110.371L68.4504 110.24V116.085L68.2266 116.216V110.371Z" fill="black"/>
<path opacity="0.1" d="M69.0625 109.888L69.2921 109.758V115.603L69.0625 115.733V109.888Z" fill="black"/>
<path opacity="0.1" d="M69.8984 109.41L70.128 109.279V115.124L69.8984 115.249V109.41Z" fill="black"/>
<path opacity="0.1" d="M70.7422 108.928L70.966 108.797V114.642L70.7422 114.772V108.928Z" fill="black"/>
<path opacity="0.1" d="M71.5781 108.451L71.802 108.32V114.165L71.5781 114.29V108.451Z" fill="black"/>
<path opacity="0.1" d="M72.4219 107.969L72.6515 107.838V113.683L72.4219 113.813V107.969Z" fill="black"/>
<path opacity="0.1" d="M73.2578 107.49L73.4874 107.359V113.204L73.2578 113.329V107.49Z" fill="black"/>
<path opacity="0.1" d="M74.1016 107.008L74.3254 106.877V112.722L74.1016 112.852V107.008Z" fill="black"/>
<path opacity="0.1" d="M74.9375 106.531L75.1614 106.4V112.245L74.9375 112.37V106.531Z" fill="black"/>
<path opacity="0.1" d="M75.7812 106.049L76.0108 105.918V111.763L75.7812 111.893V106.049Z" fill="black"/>
<path opacity="0.1" d="M56.4192 112.916L56.1953 112.785V118.63L56.4192 118.761V112.916Z" fill="black"/>
<path opacity="0.1" d="M56.8906 113.569L59.6516 115.148V114.989L56.8906 113.41V113.569Z" fill="black"/>
<path opacity="0.1" d="M56.8906 118.794L59.6516 120.373V120.219L56.8906 118.635V118.794Z" fill="black"/>
<path opacity="0.1" d="M56.8906 115.665L59.6516 117.244V117.085L56.8906 115.506V115.665Z" fill="black"/>
<path opacity="0.1" d="M56.8906 116.165L59.6516 117.744V117.585L56.8906 116.006V116.165Z" fill="black"/>
<path opacity="0.1" d="M56.8906 116.659L59.6516 118.244V118.085L56.8906 116.506V116.659Z" fill="black"/>
<path opacity="0.1" d="M53.0703 111.393L55.837 112.972V112.813L53.0703 111.234V111.393Z" fill="black"/>
<path opacity="0.1" d="M53.0703 116.624L55.837 118.203V118.044L53.0703 116.465V116.624Z" fill="black"/>
<path opacity="0.1" d="M53.0703 113.489L55.837 115.068V114.909L53.0703 113.33V113.489Z" fill="black"/>
<path opacity="0.1" d="M53.0703 113.989L55.837 115.568V115.409L53.0703 113.83V113.989Z" fill="black"/>
<path opacity="0.1" d="M53.0703 114.489L55.837 116.068V115.909L53.0703 114.33V114.489Z" fill="black"/>
<path d="M113.464 90.8604L85.0859 74.6497V63.5566L113.464 79.7674V90.8604Z" fill="#E6E6E6"/>
<path d="M117.938 88.304V77.2109L113.461 79.7669V90.86L117.938 88.304Z" fill="#E0E0E0"/>
<path d="M117.942 77.2107L89.5689 61L85.0859 63.556L113.464 79.7667L117.942 77.2107Z" fill="#F5F5F5"/>
<path d="M88.8672 68.6797L91.8577 70.3837V72.0934L88.8672 70.3837V68.6797Z" fill="#C51F2C"/>
<path opacity="0.1" d="M88.8672 68.6797L89.0394 68.7762V70.2871L88.8672 70.3837V68.6797Z" fill="black"/>
<path opacity="0.2" d="M91.8577 72.0933L88.8672 70.3837L89.0394 70.2871L91.8577 71.8945V72.0933Z" fill="black"/>
<path d="M93.3516 71.2363L96.3364 72.946V74.65L93.3516 72.946V71.2363Z" fill="#C51F2C"/>
<path opacity="0.1" d="M93.3516 71.2363L93.5238 71.3329V72.8438L93.3516 72.946V71.2363Z" fill="black"/>
<path opacity="0.2" d="M96.3364 74.65L93.3516 72.946L93.5238 72.8438L96.3364 74.4569V74.65Z" fill="black"/>
<path d="M97.8281 73.7969L100.813 75.5009V77.2106L97.8281 75.5009V73.7969Z" fill="#C51F2C"/>
<path opacity="0.1" d="M97.8281 73.7969L97.9946 73.8934V75.4043L97.8281 75.5009V73.7969Z" fill="black"/>
<path opacity="0.2" d="M100.813 77.2105L97.8281 75.5009L97.9946 75.4043L100.813 77.0117V77.2105Z" fill="black"/>
<path d="M102.305 76.3535L105.289 78.0632V79.7672L102.305 78.0632V76.3535Z" fill="#C51F2C"/>
<path opacity="0.1" d="M102.305 76.3535L102.477 76.4558V77.9666L102.305 78.0632V76.3535Z" fill="black"/>
<path opacity="0.2" d="M105.289 79.7674L102.305 78.0634L102.477 77.9668L105.289 79.5742V79.7674Z" fill="black"/>
<path d="M106.789 78.9141L109.774 80.6237V82.3277L106.789 80.6237V78.9141Z" fill="#C51F2C"/>
<path opacity="0.1" d="M106.789 78.9141L106.961 79.0163V80.5215L106.789 80.6237V78.9141Z" fill="black"/>
<path opacity="0.2" d="M109.774 82.3277L106.789 80.6237L106.961 80.5215L109.774 82.1346V82.3277Z" fill="black"/>
<path d="M113.461 79.7662V72.9445L117.938 70.3828V77.2102L113.461 79.7662Z" fill="#E0E0E0"/>
<path d="M113.46 72.9449L107.484 69.5312V76.3529L113.46 79.7666V72.9449Z" fill="#E6E6E6"/>
<path d="M117.937 70.3824L111.967 66.9688L107.484 69.5304L113.46 72.9441L117.937 70.3824Z" fill="#F5F5F5"/>
<path d="M108.977 72.0879L111.967 73.7976V75.5016L108.977 73.7976V72.0879Z" fill="#C51F2C"/>
<path opacity="0.1" d="M108.977 72.0879L109.149 72.1901V73.701L108.977 73.7976V72.0879Z" fill="black"/>
<path opacity="0.2" d="M111.967 75.5017L108.977 73.7977L109.149 73.7012L111.967 75.3086V75.5017Z" fill="black"/>
<path d="M116.472 69.9346V65.8223H114.359V69.9346C114.368 70.0263 114.402 70.1141 114.456 70.1889C114.511 70.2637 114.584 70.3229 114.669 70.3606C114.9 70.4782 115.156 70.5395 115.416 70.5395C115.675 70.5395 115.931 70.4782 116.162 70.3606C116.247 70.3229 116.32 70.2637 116.375 70.1889C116.429 70.1141 116.463 70.0263 116.472 69.9346Z" fill="#37474F"/>
<path d="M114.647 65.3955C114.879 65.2806 115.134 65.2207 115.393 65.2207C115.652 65.2207 115.908 65.2806 116.139 65.3955C116.23 65.4251 116.309 65.4822 116.364 65.5587C116.42 65.6352 116.45 65.7271 116.45 65.8215C116.45 65.9158 116.42 66.0078 116.364 66.0842C116.309 66.1607 116.23 66.2178 116.139 66.2475C115.909 66.3651 115.653 66.4264 115.393 66.4264C115.134 66.4264 114.878 66.3651 114.647 66.2475C114.556 66.2178 114.478 66.1607 114.422 66.0842C114.366 66.0078 114.336 65.9158 114.336 65.8215C114.336 65.7271 114.366 65.6352 114.422 65.5587C114.478 65.4822 114.556 65.4251 114.647 65.3955Z" fill="#455A64"/>
<path d="M105.989 93.3931V88.2754L83.5859 75.4727V80.596L105.989 93.3931Z" fill="#F0F0F0"/>
<path d="M105.992 93.3923L110.475 90.8306V85.7129L105.992 88.2746V93.3923Z" fill="#E0E0E0"/>
<path d="M110.472 85.7131L88.0689 72.916L83.5859 75.472L105.989 88.2747L110.472 85.7131Z" fill="#FAFAFA"/>
<path d="M86.5781 78.8867L89.5687 80.5964V82.3004L86.5781 80.5964V78.8867Z" fill="#C51F2C"/>
<path opacity="0.1" d="M86.5781 78.8867L86.7503 78.9833V80.4942L86.5781 80.5964V78.8867Z" fill="black"/>
<path opacity="0.2" d="M89.5687 82.3004L86.5781 80.5964L86.7503 80.4941L89.5687 82.1016V82.3004Z" fill="black"/>
<path d="M91.0547 81.4473L94.0395 83.1513V84.8609L91.0547 83.1513V81.4473Z" fill="#C51F2C"/>
<path opacity="0.1" d="M91.0547 81.4473L91.2269 81.5438V83.0547L91.0547 83.1513V81.4473Z" fill="black"/>
<path opacity="0.2" d="M94.0395 84.8609L91.0547 83.1512L91.2269 83.0547L94.0395 84.6621V84.8609Z" fill="black"/>
<path d="M95.5312 84.0039L98.5218 85.7136V87.4176L95.5312 85.7136V84.0039Z" fill="#C51F2C"/>
<path opacity="0.1" d="M95.5312 84.0039L95.7035 84.1061V85.617L95.5312 85.7136V84.0039Z" fill="black"/>
<path opacity="0.2" d="M98.5218 87.4177L95.5312 85.7137L95.7035 85.6172L98.5218 87.2246V87.4177Z" fill="black"/>
<path d="M100.016 86.5664L103.006 88.2761V89.9801L100.016 88.2761V86.5664Z" fill="#C51F2C"/>
<path opacity="0.1" d="M100.016 86.5664L100.188 86.663V88.1738L100.016 88.2761V86.5664Z" fill="black"/>
<path opacity="0.2" d="M103.006 89.9801L100.016 88.2761L100.188 88.1738L103.006 89.7869V89.9801Z" fill="black"/>
</svg>
