<svg width="239" height="235" viewBox="0 0 239 235" fill="none" xmlns="http://www.w3.org/2000/svg">
<path d="M119.624 229.506C183.78 229.506 235.788 199.086 235.788 161.562C235.788 124.038 183.78 93.6191 119.624 93.6191C55.4691 93.6191 3.46094 124.038 3.46094 161.562C3.46094 199.086 55.4691 229.506 119.624 229.506Z" fill="#F5F5F5"/>
<path d="M82.3377 133.385L81.2969 168.22C81.2969 168.22 90.5911 165.942 98.9176 167.35C107.244 168.757 109.238 170.674 109.238 170.674L103.862 119.426L84.6421 120.003C84.6421 120.003 82.3377 123.125 82.3377 133.385Z" fill="#E0E0E0"/>
<path d="M107.109 212.055C107.186 213.859 107.475 214.809 108.205 215.787C108.6 216.287 109.139 216.658 109.751 216.851C110.362 217.044 111.019 217.05 111.634 216.869C112.931 216.508 114.282 215.426 114.581 213.921C114.804 212.522 114.706 211.091 114.296 209.734L107.109 212.055Z" fill="#263238"/>
<path d="M110.708 181.854C109.722 176.678 108.626 174.361 108.418 173.192C108.418 173.192 106.957 160.968 106.315 150.56C106.001 145.554 106.114 142.184 103.094 136.373L85.5202 141.065C85.3048 143.728 83.6541 161.885 84.4648 177.537C85.1331 190.389 86.0023 196.441 86.0936 198.589C86.1411 199.805 86.1192 200.613 86.068 202.302C86.0498 202.988 85.5714 203.465 85.2938 203.959C84.889 204.557 84.3721 205.073 83.771 205.478C82.4416 206.511 81.6455 207.196 80.0788 207.799C79.7707 207.899 79.4782 208.041 79.2096 208.221C79.0749 208.314 78.9629 208.435 78.882 208.576C78.801 208.718 78.7533 208.875 78.7422 209.037C78.7708 209.263 78.8576 209.479 78.9944 209.663C79.1313 209.846 79.3135 209.993 79.5237 210.087C80.937 210.895 82.7046 210.74 84.253 210.246C85.8015 209.751 87.2367 208.939 88.7924 208.47C89.8697 208.145 91.0128 207.979 91.9988 207.438C92.3333 207.282 92.6048 207.018 92.7694 206.691C92.8681 206.398 92.8945 206.086 92.8461 205.782C92.6984 204.75 92.6252 203.709 92.627 202.667C92.6562 201.386 92.8388 199.011 92.9374 197.73C93.0177 196.647 94.285 187.047 94.0914 182.258C94.0408 180.795 94.0883 179.33 94.2339 177.873L95.7932 160.867C96.5236 163.711 99.1567 171.94 99.9857 175.7C100.994 180.298 102.695 186.123 104.803 194.532C105.394 196.9 106.475 199.834 106.749 201.263C107.023 202.692 107.381 207.138 108.184 209.141C109.408 212.18 112.874 212.169 113.188 209.531C113.458 207.29 112.004 201.148 111.946 199.675C111.887 198.203 111.855 187.884 110.708 181.854Z" fill="#C8856A"/>
<path d="M112.496 201.577C112.784 203.381 113.032 204.749 113.226 205.792C113.767 207.575 113.978 208.438 114.281 209.592C114.778 211.487 114.683 213.183 114.146 214.194C113.35 215.703 110.129 217.258 108.435 215.316C107.051 213.736 107.109 212.981 107.113 210.625V208.593C107.072 206.489 107.04 206.066 106.718 204.746C106.536 203.984 106.718 202.822 106.561 202.014C106.4 201.137 106.335 200.754 106.609 200.613C106.609 200.613 106.751 201.739 106.926 202.551C107.091 203.298 107.219 204.053 107.372 204.8C107.558 205.72 107.719 206.644 107.982 207.55C108.011 207.647 108.058 207.766 108.161 207.781C108.263 207.795 108.365 207.64 108.373 207.514C108.365 207.439 108.373 207.364 108.396 207.293C108.418 207.222 108.455 207.156 108.504 207.099C108.64 206.98 108.795 206.886 108.964 206.821C109.292 206.691 109.634 206.6 109.983 206.55C110.478 206.444 110.989 206.423 111.491 206.489C111.642 206.508 111.785 206.568 111.904 206.662C111.991 206.764 112.071 206.873 112.141 206.987C112.214 207.063 112.346 207.106 112.423 207.034C112.463 206.99 112.486 206.934 112.488 206.875C112.518 206.664 112.524 206.451 112.507 206.24C112.466 205.06 112.386 203.905 112.233 202.735C112.071 201.815 111.986 200.883 111.977 199.949C112.281 200.442 112.459 201.001 112.496 201.577Z" fill="#37474F"/>
<path d="M93.8353 207.049L75.9407 210.95C75.8631 211.155 75.8356 211.376 75.8604 211.593C75.8851 211.811 75.9614 212.019 76.0831 212.202C76.7368 213.029 78.9426 214.144 81.6706 213.809C84.3986 213.473 85.8813 212.275 86.8893 211.517C87.4031 211.102 87.9704 210.756 88.5765 210.488C89.2265 210.199 90.1834 210.185 90.8736 210.088C91.4885 209.963 92.0929 209.791 92.6813 209.575C93.1185 209.434 93.5258 209.215 93.8828 208.929C93.9458 208.594 93.974 208.253 93.9668 207.911C93.9303 207.659 93.8901 207.298 93.8353 207.049Z" fill="#263238"/>
<path d="M89.7236 205.302C90.3035 204.707 91.0094 204.248 91.7906 203.955C92.4297 203.66 92.6087 203.382 92.6269 202.645C92.6269 202.58 93.1492 202.62 93.2332 202.71C93.3901 202.887 93.4747 203.114 93.4705 203.349C93.5144 203.901 93.5801 204.161 93.6677 204.735C93.8686 206.009 94.1535 206.413 93.9635 207.911C93.1601 208.976 90.6768 209.488 89.3548 209.661C87.2804 209.939 85.6078 211.755 84.0411 212.296C81.1707 213.288 78.3587 212.754 77.2667 212.18C76.0068 211.52 75.2983 210.423 76.3355 209.632C76.9673 209.149 80.5608 207.218 81.2072 206.853C81.7185 206.561 82.2078 206.218 82.7118 205.908C82.7926 205.849 82.8845 205.806 82.9821 205.782C83.0978 205.769 83.215 205.781 83.3253 205.818C83.9554 205.975 84.5673 206.197 85.1513 206.478C85.2592 206.518 85.3578 206.578 85.4413 206.656C85.5248 206.735 85.5914 206.829 85.637 206.933C85.7466 207.312 85.0199 207.983 85.4581 208.106C85.8963 208.229 86.5318 207.68 86.8458 207.503C87.9214 206.963 88.8851 206.228 89.6871 205.338C89.6987 205.325 89.7108 205.313 89.7236 205.302Z" fill="#37474F"/>
<path d="M85.5537 135.424L85.3674 137.358C83.6729 148.059 83.5195 162.235 83.6984 166.544C84.228 179.244 84.4508 204.598 84.4508 204.598C84.4508 204.598 86.3133 206.085 89.5453 205.944C91.0123 205.896 92.4617 205.612 93.8363 205.103C93.8363 205.103 94.7785 187.271 94.9684 183.6C95.0302 182.036 94.9985 180.469 94.8735 178.909C94.722 176.955 94.744 174.991 94.9392 173.041L95.8376 162.195C95.8376 162.195 99.1609 177.22 99.4896 179.046C101.096 188.191 105.625 204.793 105.625 204.793C107.154 205.105 108.73 205.124 110.267 204.85C112.71 204.385 113.261 203.125 113.261 203.125C113.261 203.125 111.618 184.979 111.234 181.273C110.723 176.318 110.252 174.015 109.905 171.983C109.496 169.598 109.299 160.6 109.021 155.382C108.831 151.809 108.7 149.098 108.291 146.475C107.455 140.996 105.004 137.694 104.062 135.676L103.919 134.594C101.173 136.99 90.7175 138.484 85.5537 135.424Z" fill="#455A64"/>
<path d="M95.8545 162.184L93.2507 151.949C93.2507 151.949 89.8726 151.249 88.2109 149.268C88.2109 149.268 88.5761 151.769 92.0857 153.046L94.5471 161.989L95.0073 172.499L95.8545 162.184Z" fill="#37474F"/>
<path d="M108.378 104.375C109.228 102.751 109.908 100.596 108.378 99.142C109.05 97.3375 109.517 95.0314 107.647 93.8115C107.691 91.4548 106.442 89.9499 104.627 89.3219C102.911 88.7264 101.041 88.9141 99.7188 90.4371L100.993 91.029C101.183 92.635 101.742 94.1941 103.243 94.9989C102.64 96.8575 102.976 98.4058 104.875 99.2611C103.827 101.116 103.725 103.231 105.142 104.924C104.503 106.483 104.755 107.789 105.807 109.099C104.711 110.402 105.357 112.236 106.595 113.235C106.252 113.572 105.989 113.98 105.823 114.429C105.658 114.878 105.595 115.358 105.639 115.834C105.657 116.379 105.879 116.899 106.262 117.292C106.645 117.685 107.162 117.924 107.713 117.963C107.125 117.497 107.067 117.18 107.373 116.296C107.68 115.411 108.213 114.354 107.373 113.376C108.202 111.976 108.995 110.384 108.005 108.897C108.746 107.443 109.302 105.869 108.378 104.375Z" fill="#263238"/>
<path d="M100.503 90.8191C100.956 90.054 101.963 90.3608 102.792 91.0501C103.621 91.7394 104.385 92.9196 103.928 93.5764C103.154 94.6447 100.068 91.5662 100.503 90.8191Z" fill="#C51F2C"/>
<path d="M69.9867 118.538C71.5534 119.884 76.9985 123.768 76.9985 123.768C76.9985 123.768 81.5379 117.925 82.4765 116.672C85.1899 113.092 87.2642 110.584 90.5656 110.674L91.8803 119.931C89.3933 123.129 82.9403 128.82 80.2451 131.614C78.8318 133.079 77.1227 132.83 75.6546 131.928C72.5869 130.033 65.8125 121.887 65.8125 121.887L69.9867 118.538Z" fill="#C8856A"/>
<path d="M90.0811 110.539C88.1419 110.629 86.7541 111.517 85.5161 112.78C84.2781 114.043 76.9157 123.64 76.9157 123.64L74.2644 121.734C74.1202 123.308 73.5653 124.817 72.6539 126.116C71.1931 128.057 70.0391 127.335 70.0391 127.335C70.0391 127.335 72.873 130.457 74.1621 131.479C75.4513 132.5 77.0509 133.283 78.3656 133.056C79.6803 132.828 80.1003 132.464 83.2044 129.356C86.3086 126.249 92.1372 120.446 92.1372 120.446L90.0811 110.539Z" fill="#F0F0F0"/>
<path d="M76.9141 123.642C78.1483 124.53 79.1142 125.734 79.7078 127.125C79.4373 125.541 78.5953 124.107 77.3377 123.09L76.9141 123.642Z" fill="#E0E0E0"/>
<path d="M71.7014 119.891C69.6964 118.311 68.4913 117.004 68.4803 115.07C68.4694 113.135 68.736 112.139 68.5753 111.706C68.4146 111.273 66.9027 109.422 66.479 108.519C66.0554 107.617 65.6245 107.7 64.8357 107.375C63.8825 106.986 60.0625 106.112 60.037 106.404C59.9635 106.736 60.0002 107.081 60.1417 107.39C60.2832 107.699 60.5218 107.955 60.8221 108.119C61.516 108.53 63.5794 109.097 63.5794 109.097C63.5794 109.097 62.9184 109.891 62.6007 110.226C62.2829 110.562 62.345 110.836 62.8052 111.926C62.8052 111.926 62.2866 112.15 62.2135 112.551C62.1813 112.952 62.2542 113.355 62.4254 113.72C62.2141 113.83 62.0448 114.004 61.9433 114.218C61.7899 114.579 62.1003 115.481 62.4801 116.253C62.5374 117.246 62.7165 118.227 63.0133 119.177C63.3566 120.151 63.992 120.534 64.7078 120.981C65.1899 121.27 66.5156 122.692 67.0415 123.233C67.0415 123.23 73.5346 121.339 71.7014 119.891Z" fill="#C8856A"/>
<path d="M67.4771 112.088C66.8102 111.636 66.3144 110.977 66.0675 110.215C65.8484 109.457 65.6585 108.602 65.4065 108.595C64.9792 108.595 64.1721 109.407 64.4168 110.67C64.6505 111.875 65.2421 113.287 65.2859 113.637C65.3298 113.987 65.034 114.817 64.7783 115.441C64.5685 116.093 64.5664 116.792 64.7721 117.445C64.9779 118.097 65.3816 118.672 65.9287 119.09C65.2035 118.749 64.6386 118.145 64.351 117.404C63.7521 116.069 64.5555 114.712 64.7162 114.066C64.8769 113.42 64.9061 113.29 64.4971 112.186C64.0881 111.081 63.6389 109.898 64.4971 108.808C65.3553 107.718 65.7607 108.241 65.9141 108.598C66.0675 108.956 66.3487 111.273 67.4771 112.088Z" fill="#AF6152"/>
<path d="M63.5785 109.096L64.371 109.478L64.119 109.684C63.9478 109.593 63.754 109.552 63.5602 109.565C63.3663 109.579 63.1802 109.646 63.0234 109.76L63.5785 109.096Z" fill="#AF6152"/>
<path d="M62.7891 111.926C62.9278 112.287 63.4282 113.391 63.5195 113.615C63.6108 113.839 64.0527 113.763 64.301 113.333C64.5297 112.992 64.6185 112.578 64.5493 112.175C64.6846 112.583 64.6625 113.027 64.4872 113.42C64.1878 113.983 63.7787 114.055 63.5304 113.983C63.2821 113.911 63.1031 112.698 62.7891 111.926Z" fill="#AF6152"/>
<path d="M62.4219 113.718C62.5205 113.993 62.7213 114.343 63.0171 115.097C63.1851 115.534 63.2764 115.819 63.5503 115.779C63.8242 115.739 64.2807 115.169 64.226 114.639C64.1882 114.33 64.1134 114.027 64.0032 113.736L64.2187 113.643C64.4126 114.098 64.4927 114.593 64.4524 115.086C64.3428 115.725 63.722 116.23 63.4408 116.064C63.1596 115.898 63.0756 115.653 62.8528 115.021C62.63 114.39 62.4219 113.718 62.4219 113.718Z" fill="#AF6152"/>
<path d="M63.3494 115.846C63.3932 116.03 63.2983 116.448 62.9842 116.463C62.8894 116.465 62.7952 116.448 62.7077 116.412C62.6202 116.376 62.5414 116.322 62.4766 116.254C62.5186 116.362 62.5935 116.454 62.6909 116.519C62.7883 116.584 62.9034 116.617 63.0207 116.614C63.3859 116.593 63.5721 116.21 63.6306 115.893L63.3494 115.846Z" fill="#AF6152"/>
<path d="M100.229 110.046L105.254 111.37C106.255 111.706 105.126 117.538 105.404 124.215C105.692 131.072 105.941 142.137 105.941 142.137C105.941 142.137 102.957 143.718 94.5283 143.942C89.2549 144.082 84.3978 141.195 84.3978 141.195L85.3655 133.255V126.214C85.3655 126.214 82.4074 122.656 84.0691 118.585C85.7307 114.514 91.4826 109.227 91.4826 109.227L94.0645 109.349L100.229 110.046Z" fill="#C51F2C"/>
<path opacity="0.7" d="M100.229 110.046L105.254 111.37C106.255 111.706 105.126 117.538 105.404 124.215C105.692 131.072 105.941 142.137 105.941 142.137C105.941 142.137 102.957 143.718 94.5283 143.942C89.2549 144.082 84.3978 141.195 84.3978 141.195L85.3655 133.255V126.214C85.3655 126.214 82.4074 122.656 84.0691 118.585C85.7307 114.514 91.4826 109.227 91.4826 109.227L94.0645 109.349L100.229 110.046Z" fill="white"/>
<path opacity="0.3" d="M100.845 125.059C100.302 125.842 99.5632 126.474 98.701 126.894C97.8388 127.314 96.8817 127.507 95.922 127.455C95.0205 127.405 94.1452 127.137 93.3729 126.674C92.6005 126.212 91.9548 125.569 91.4922 124.803C91.4922 124.803 92.0692 128.239 96.2398 128.314C100.41 128.39 100.845 125.059 100.845 125.059Z" fill="#C51F2C"/>
<path d="M94.2596 109.56C92.1852 111.271 88.9532 113.573 87.036 116.056C83.1649 121.058 82.6536 125.595 82.3432 131.416C82.2811 122.726 80.8824 117.893 91.4731 108.907C93.3648 107.301 94.1135 106.943 94.1135 106.943L94.2596 109.56Z" fill="#FAFAFA"/>
<path d="M87.8745 97.6055C84.0071 89.9796 91.6726 88.3736 96.4713 89.1929C101.518 90.0518 106.28 93.4334 104.758 99.9585C104.097 102.777 102.446 104.852 101.142 107.274L87.8745 97.6055Z" fill="#263238"/>
<path d="M102.821 98.5367C101.156 97.8907 100.396 99.6195 100.396 99.6195C99.3588 100.316 98.8621 98.9554 98.6503 98.3094C97.8761 95.9238 98.2559 94.2059 96.2181 93.5166C95.2832 93.199 94.4213 93.9569 93.5923 94.491C93.3729 94.6669 93.1179 94.7942 92.8445 94.8646C92.5712 94.9349 92.2857 94.9466 92.0074 94.8989C91.4961 94.7798 90.5466 94.0255 90.0718 93.8162C88.7206 93.1413 88.2824 94.7689 87.9902 96.5229C87.8166 97.9419 87.7824 99.3741 87.8879 100.8C88.1691 105.491 88.9288 107.137 90.7657 108.018C91.5874 108.418 92.5917 108.498 94.1766 108.306L94.3045 110.327C92.8243 112.536 91.944 115.084 91.7481 117.726C91.7481 117.726 95.4877 116.109 97.5912 114.373C101.243 111.356 101.313 109.501 101.313 109.501L100.911 103.413C101.221 103.802 102.485 103.849 103.208 102.907C104.483 101.262 104.424 99.1539 102.821 98.5367Z" fill="#C8856A"/>
<path d="M94.1953 108.327C95.7255 108.035 98.5083 107.082 98.9429 105.801C98.9429 105.801 99.0524 106.815 97.8948 107.757C96.9306 108.547 94.2428 109.117 94.2428 109.117L94.1953 108.327Z" fill="#AF6152"/>
<path d="M94.3594 103.838L92.7891 104.35C92.8183 104.454 92.8684 104.552 92.9366 104.636C93.0047 104.72 93.0895 104.79 93.1857 104.842C93.2819 104.893 93.3875 104.924 93.4964 104.934C93.6052 104.944 93.7149 104.932 93.8189 104.899C94.0305 104.826 94.2051 104.674 94.3059 104.476C94.4068 104.278 94.4259 104.049 94.3594 103.838Z" fill="#AF6152"/>
<path d="M88.959 97.0636L90.5403 96.5836C90.5135 96.4802 90.4657 96.3833 90.3998 96.2988C90.3339 96.2143 90.2513 96.1439 90.1571 96.0919C90.0628 96.0399 89.9588 96.0074 89.8514 95.9964C89.744 95.9854 89.6355 95.9961 89.5324 96.0278C89.3204 96.0945 89.1426 96.2394 89.0359 96.4322C88.9291 96.6251 88.9016 96.8512 88.959 97.0636Z" fill="#263238"/>
<path d="M96.3905 97.3291L94.9297 96.5856C94.9751 96.4885 95.0401 96.4017 95.1207 96.3304C95.2013 96.2591 95.2959 96.2049 95.3985 96.171C95.5012 96.1372 95.6097 96.1246 95.7175 96.1338C95.8253 96.143 95.93 96.174 96.0253 96.2247C96.215 96.3301 96.3579 96.5021 96.4255 96.7066C96.4931 96.9111 96.4806 97.1332 96.3905 97.3291Z" fill="#263238"/>
<path d="M89.0859 99.7502C89.0861 99.8803 89.1248 100.008 89.1975 100.116C89.2701 100.224 89.3734 100.31 89.4945 100.361C89.6155 100.412 89.7491 100.426 89.8786 100.403C90.0081 100.379 90.1278 100.319 90.2228 100.229C90.3179 100.139 90.3841 100.023 90.4132 99.8966C90.4423 99.7697 90.4331 99.6372 90.3867 99.5155C90.3403 99.3938 90.2587 99.2882 90.1521 99.2119C90.0455 99.1355 89.9186 99.0918 89.7871 99.0862C89.6968 99.0838 89.6069 99.0991 89.5227 99.1313C89.4384 99.1634 89.3615 99.2118 89.2963 99.2736C89.231 99.3353 89.1789 99.4093 89.1428 99.4911C89.1067 99.5729 89.0874 99.661 89.0859 99.7502Z" fill="#263238"/>
<path d="M94.2969 99.9767C94.297 100.107 94.3358 100.234 94.4084 100.342C94.481 100.451 94.5843 100.536 94.7054 100.587C94.8265 100.638 94.9601 100.653 95.0896 100.629C95.219 100.606 95.3387 100.546 95.4338 100.456C95.5288 100.366 95.595 100.25 95.6241 100.123C95.6533 99.9962 95.6441 99.8637 95.5977 99.742C95.5512 99.6202 95.4697 99.5147 95.3631 99.4383C95.2565 99.362 95.1296 99.3183 94.9981 99.3127C94.9079 99.3107 94.8182 99.3264 94.7342 99.3587C94.6501 99.3911 94.5734 99.4395 94.5083 99.5011C94.4431 99.5628 94.391 99.6365 94.3547 99.7181C94.3184 99.7997 94.2988 99.8876 94.2969 99.9767Z" fill="#263238"/>
<path d="M86.5547 97.8478C86.5574 98.0905 86.6366 98.3264 86.7811 98.5227C86.8334 98.5938 86.8661 98.6771 86.8761 98.7645C86.9026 99.3867 86.9796 100.006 87.1061 100.616C87.2126 101.02 87.4559 101.375 87.7954 101.624C88.135 101.872 88.5503 101.998 88.9723 101.98C89.2022 101.991 89.4327 101.976 89.6589 101.933H89.7136C89.9144 101.891 90.1077 101.819 90.287 101.72L90.3235 101.702L90.371 101.67L90.4367 101.63L90.4952 101.59L90.5572 101.54L90.6193 101.489C90.6617 101.457 90.7009 101.421 90.7362 101.381C90.9409 101.167 91.112 100.923 91.2438 100.659C91.5835 100.017 91.5834 99.1145 92.0619 99.0207H92.1203H92.1824C92.8178 99.0207 92.6717 100.02 92.9749 100.731C93.278 101.442 93.8294 102.175 95.2354 102.2H95.418H95.5641C95.6792 102.192 95.7938 102.178 95.9074 102.157L96.0133 102.132L96.1192 102.103H96.1813C96.3185 102.059 96.4507 102.001 96.5757 101.93L96.7072 101.843C96.7896 101.786 96.8666 101.722 96.9372 101.652C97.1274 101.46 97.2831 101.238 97.3974 100.995C97.6384 100.508 97.7407 99.6234 97.8685 99.1687C97.8926 99.0745 97.9334 98.9853 97.989 98.9052C98.1631 98.7269 98.281 98.5025 98.3286 98.2592C98.343 98.1367 98.3146 98.0131 98.2482 97.9088C98.1818 97.8045 98.0813 97.7256 97.9634 97.6854L97.6275 97.6384C96.5538 97.4905 95.1441 97.4111 94.2859 97.6384C93.1903 97.9091 92.8251 98.2411 92.2189 98.2231C91.6127 98.2051 91.3388 97.8622 90.3637 97.5013C89.5858 97.2342 88.2711 97.2198 87.2559 97.2956L86.9381 97.3245C86.7775 97.3028 86.5656 97.559 86.5547 97.8478ZM93.4934 98.6165C93.5839 98.5163 93.693 98.4342 93.8148 98.3747L93.8696 98.3458H93.9025L94.0558 98.2772L94.1983 98.2231C94.3501 98.1696 94.5049 98.125 94.6621 98.0896L94.8447 98.0499C95.0005 98.021 95.1575 97.9993 95.3158 97.9849H95.4253C96.4552 97.9199 97.0797 98.169 97.2988 98.3783C97.5179 98.5876 97.3718 99.544 97.2477 100.028V100.064C97.246 100.076 97.246 100.088 97.2477 100.1C97.2477 100.161 97.2148 100.226 97.1929 100.298C97.1773 100.337 97.1639 100.377 97.1527 100.417C97.1295 100.486 97.1026 100.554 97.0724 100.619L97.0395 100.688C97.035 100.703 97.0289 100.718 97.0212 100.731C97.0212 100.731 97.003 100.76 96.9957 100.778L96.9628 100.836C96.9527 100.858 96.9405 100.878 96.9263 100.897C96.9126 100.922 96.8967 100.945 96.8788 100.966C96.8651 100.99 96.8492 101.013 96.8313 101.035C96.6599 101.263 96.4325 101.444 96.1706 101.562C95.9086 101.679 95.6207 101.729 95.334 101.706C95.0537 101.72 94.7738 101.671 94.5147 101.565C94.2557 101.458 94.024 101.295 93.8367 101.089C93.605 100.801 93.4561 100.457 93.4058 100.093C93.2853 99.5332 93.2597 98.9052 93.4679 98.6165H93.4934ZM87.5188 98.0246C87.5995 97.9611 87.6893 97.91 87.7854 97.873L87.9023 97.8297H87.9717H88.0264H88.0666H88.125L88.3624 97.7936H88.4902H88.9066C89.0619 97.8027 89.2167 97.8196 89.3704 97.8442C90.1008 97.9596 90.8311 98.3097 90.9918 98.6093C91.1525 98.9088 91.0685 99.5368 90.9261 100.071C90.8929 100.194 90.8514 100.314 90.8019 100.432C90.8019 100.432 90.8019 100.432 90.8019 100.461C90.8025 100.473 90.8025 100.485 90.8019 100.497V100.522L90.78 100.565L90.7325 100.656L90.6851 100.731C90.6811 100.741 90.6749 100.75 90.6668 100.757L90.6339 100.811L90.6011 100.854C90.4172 101.098 90.1715 101.29 89.8888 101.41C89.6061 101.531 89.2963 101.575 88.9905 101.54C88.7247 101.533 88.4644 101.464 88.2309 101.338C87.5334 100.952 87.4348 100.118 87.3873 99.7353C87.307 99.1795 87.2595 98.2303 87.5078 98.0246H87.5188Z" fill="#37474F"/>
<path d="M97.8516 97.7559L101.091 98.7447C100.85 98.9504 100.645 99.1943 100.485 99.4665L97.8698 98.7086L97.8516 97.7559Z" fill="#37474F"/>
<path d="M92.4154 99.0847L92.0502 103.268L89.7422 102.546L92.1525 98.998C92.2465 99.0028 92.3374 99.0327 92.4154 99.0847Z" fill="#AF6152"/>
<path d="M101.238 108.41C101.085 110.576 100.256 113.668 100.048 119.537C99.8397 125.405 101.651 170.655 101.651 170.655C101.651 170.655 107.94 171.441 112.571 168.832C112.571 168.832 110.927 150.163 107.363 134.792C106.439 130.822 108.126 125.863 108.458 120.493C108.648 117.572 108.262 114.643 107.323 111.868C107.323 111.868 103.956 110.756 102.94 110.164C102.244 109.717 101.661 109.117 101.238 108.41Z" fill="#FAFAFA"/>
<path d="M101.532 109.515C101.869 109.914 102.272 110.255 102.722 110.525C103.642 111.056 106.265 111.951 107.002 112.2C107.863 114.872 108.217 117.679 108.047 120.479C107.926 122.413 107.623 124.311 107.342 126.116C106.838 129.277 106.36 132.269 106.977 134.871C110.263 149.055 111.936 166.27 112.152 168.594C109.442 170.038 106.192 170.348 103.916 170.348C103.091 170.348 102.437 170.305 102.061 170.272C101.893 166.021 100.275 125.059 100.473 119.54C100.576 116.686 100.861 113.842 101.327 111.023C101.411 110.471 101.491 109.962 101.554 109.493M101.254 108.41C101.101 110.576 100.272 113.668 100.064 119.537C99.8554 125.405 101.667 170.655 101.667 170.655C102.414 170.734 103.165 170.772 103.916 170.767C106.166 170.767 109.697 170.46 112.586 168.832C112.586 168.832 110.943 150.163 107.378 134.792C106.454 130.822 108.142 125.863 108.474 120.493C108.664 117.572 108.278 114.643 107.338 111.868C107.338 111.868 103.971 110.756 102.956 110.164C102.261 109.716 101.68 109.116 101.258 108.41H101.254Z" fill="#EBEBEB"/>
<path d="M86.1669 139.725C86.4217 139.71 86.6774 139.719 86.9302 139.754C87.2114 139.79 87.4707 139.841 87.7555 139.852C88.0404 139.862 88.3508 139.852 88.6503 139.852C89.0666 139.852 89.4902 139.852 89.9066 139.852C90.6984 139.798 91.4801 139.645 92.2329 139.397C92.4739 139.317 92.7113 139.227 92.9633 139.13C93.0692 139.083 93.197 138.993 93.1641 138.881C93.149 138.851 93.1279 138.825 93.1021 138.804C93.0764 138.783 93.0465 138.767 93.0144 138.758C92.6748 138.61 92.3096 138.523 91.9553 138.397C91.5971 138.29 91.2727 138.093 91.0131 137.827C90.8415 137.632 90.5493 137.047 90.794 136.806C90.9802 136.625 91.455 136.806 91.6668 136.838C92.1174 136.948 92.5768 137.02 93.04 137.051C93.5366 137.076 94.0369 137.018 94.5336 137.051C95.1807 137.073 95.8177 137.216 96.4107 137.473C96.9695 137.715 97.5063 138.047 98.0687 138.242C99.1643 138.603 100.757 138.199 102.163 137.729C105.04 136.766 110 134.294 110 134.294L106.983 123.467C105.749 120.579 105.27 113.361 106.746 112.105C107.509 112.203 110.033 111.903 112.085 114.112C113.21 115.314 113.962 118.262 115.507 123.737C116.602 127.635 117.49 131.298 118.14 134.886C118.87 138.873 117.41 140.234 113.783 141.039C107.714 142.378 102.966 143.619 100.545 143.8H100.421C99.23 143.897 98.0432 144.063 96.8526 144.161C96.2427 144.215 95.6182 144.208 95.0266 144.298C94.2545 144.449 93.4541 144.367 92.7295 144.063C91.8385 143.637 91.1811 142.717 90.1987 142.573C89.9021 142.562 89.6067 142.53 89.3149 142.475C88.8183 142.327 88.5115 141.873 88.0952 141.595C87.823 141.447 87.5367 141.326 87.2406 141.234L86.2911 140.837C86.0586 140.748 85.8339 140.641 85.6191 140.516C85.5513 140.478 85.4917 140.428 85.4438 140.368C85.1407 139.963 85.9223 139.743 86.1669 139.725Z" fill="#C8856A"/>
<path d="M106.362 111.572C110.923 112.493 111.475 112.72 112.691 114.633C114.181 116.942 115.247 121.898 116.946 128.239C117.723 131.032 118.278 133.881 118.607 136.76C118.677 137.81 118.242 140.156 115.686 140.787C113.129 141.419 109.707 142.137 109.707 142.137C109.707 142.137 110.438 137.265 108.104 135.089L109.835 134.222L106.147 123.168C106.147 123.168 103.798 114.727 106.362 111.572Z" fill="#F0F0F0"/>
<path d="M109.836 134.223C111.325 133.87 112.883 133.92 114.346 134.367C114.346 134.367 113.166 133.021 109.555 133.284L109.836 134.223Z" fill="#E0E0E0"/>
<path d="M104.313 110.768C103.484 110.407 102.191 109.469 101.841 108.808C101.49 108.148 101.516 107.83 101.195 107.834L101.235 108.448C101.235 108.448 99.7739 113.746 99.8031 118.914C99.7447 122.458 100.117 127.02 100.117 127.02C101.195 124.511 102.334 121.029 102.334 121.029L100.964 117.78C101.837 114.568 103.711 112.479 104.313 110.768Z" fill="#F0F0F0"/>
<path d="M97.5906 113.126L97.3203 112.819C100.085 110.437 102.119 106.709 102.331 106.225C102.331 106.225 102.846 104.781 102.415 102.414L102.82 102.342C103.273 104.832 102.736 106.312 102.714 106.377C102.451 106.99 100.406 110.689 97.5906 113.126Z" fill="#455A64"/>
<path d="M92.1268 108.4L91.7324 109.122C91.6282 109.034 91.5021 108.976 91.3672 108.952C91.4877 108.718 91.6046 108.509 91.7068 108.328C91.845 108.361 91.9853 108.386 92.1268 108.4Z" fill="#455A64"/>
<path d="M102.845 101.146C102.774 101.002 102.667 100.879 102.535 100.788C102.402 100.697 102.248 100.641 102.087 100.625C101.926 100.61 101.764 100.636 101.616 100.701C101.468 100.765 101.34 100.866 101.243 100.994C101.146 101.122 101.084 101.272 101.063 101.43C101.042 101.589 101.062 101.75 101.122 101.898C101.182 102.046 101.28 102.177 101.405 102.277C101.531 102.377 101.681 102.444 101.84 102.47C101.84 102.47 102.206 102.47 102.326 103.008C102.412 103.344 102.447 103.691 102.432 104.037C102.543 104.09 102.669 104.104 102.79 104.078C102.91 104.052 103.018 103.986 103.097 103.892C103.243 103.174 103.126 101.615 102.845 101.146Z" fill="#37474F"/>
<path d="M77.3304 131.68C75.4991 131.684 73.6866 131.315 72.0058 130.597C68.7482 129.197 63.2812 125.093 63.2812 113.371H64.1029C64.1029 121.715 67.0245 127.569 72.3345 129.85C77.261 131.968 82.7682 130.485 85.4524 128.013C87.9722 125.696 88.5712 123.04 89.1044 120.694C89.3892 119.423 89.6595 118.225 90.1999 117.251L90.9303 117.648C90.4373 118.521 90.1999 119.607 89.9041 120.871C89.3746 123.231 88.7172 126.118 86.0148 128.616C84.0975 130.38 80.8399 131.68 77.3304 131.68Z" fill="#C51F2C"/>
<path opacity="0.3" d="M77.3304 131.68C75.4991 131.684 73.6866 131.315 72.0058 130.597C68.7482 129.197 63.2812 125.093 63.2812 113.371H64.1029C64.1029 121.715 67.0245 127.569 72.3345 129.85C77.261 131.968 82.7682 130.485 85.4524 128.013C87.9722 125.696 88.5712 123.04 89.1044 120.694C89.3892 119.423 89.6595 118.225 90.1999 117.251L90.9303 117.648C90.4373 118.521 90.1999 119.607 89.9041 120.871C89.3746 123.231 88.7172 126.118 86.0148 128.616C84.0975 130.38 80.8399 131.68 77.3304 131.68Z" fill="white"/>
<path d="M99.9921 110.905C98.9209 112.18 97.7682 113.385 96.541 114.514C95.6937 115.193 93.382 116.979 91.7605 117.636C91.4442 117.78 91.1037 117.864 90.7562 117.885C90.6636 117.887 90.5713 117.875 90.4823 117.849C90.1975 117.755 89.3356 117.488 89.5949 112.71C89.6424 111.872 90.8658 109.505 91.1141 109.043C91.1418 109.009 91.1791 108.983 91.2213 108.97C91.2635 108.956 91.3088 108.955 91.3515 108.967C91.4864 108.99 91.6125 109.049 91.7167 109.137C91.8189 109.227 91.8774 109.328 91.8263 109.418C91.2931 110.432 90.4349 112.237 90.4056 112.753C90.2742 115.189 90.475 116.867 90.7453 117.084C90.9169 117.142 91.3186 116.997 91.8409 116.723C93.301 115.902 94.6866 114.958 95.9822 113.901C97.169 112.804 98.2862 111.636 99.3274 110.404C99.5721 110.176 100.149 110.703 99.9921 110.905Z" fill="#C51F2C"/>
<path opacity="0.3" d="M99.9921 110.905C98.9209 112.18 97.7682 113.385 96.541 114.514C95.6937 115.193 93.382 116.979 91.7605 117.636C91.4442 117.78 91.1037 117.864 90.7562 117.885C90.6636 117.887 90.5713 117.875 90.4823 117.849C90.1975 117.755 89.3356 117.488 89.5949 112.71C89.6424 111.872 90.8658 109.505 91.1141 109.043C91.1418 109.009 91.1791 108.983 91.2213 108.97C91.2635 108.956 91.3088 108.955 91.3515 108.967C91.4864 108.99 91.6125 109.049 91.7167 109.137C91.8189 109.227 91.8774 109.328 91.8263 109.418C91.2931 110.432 90.4349 112.237 90.4056 112.753C90.2742 115.189 90.475 116.867 90.7453 117.084C90.9169 117.142 91.3186 116.997 91.8409 116.723C93.301 115.902 94.6866 114.958 95.9822 113.901C97.169 112.804 98.2862 111.636 99.3274 110.404C99.5721 110.176 100.149 110.703 99.9921 110.905Z" fill="white"/>
<path d="M65.7545 111.977C65.7458 111.552 65.6369 111.135 65.4366 110.759C65.2363 110.383 64.95 110.059 64.6005 109.811C64.4919 109.734 64.364 109.688 64.2307 109.678C64.0974 109.668 63.9638 109.694 63.8446 109.754L62.9279 110.277C62.7867 110.384 62.6758 110.525 62.606 110.687C62.5363 110.849 62.5101 111.026 62.5298 111.201C62.5393 111.626 62.6488 112.043 62.8498 112.419C63.0507 112.795 63.3376 113.119 63.6875 113.366C63.7957 113.443 63.923 113.488 64.0555 113.499C64.1881 113.509 64.321 113.483 64.4398 113.424L65.3565 112.901C65.4985 112.794 65.61 112.653 65.6798 112.491C65.7497 112.329 65.7754 112.152 65.7545 111.977Z" fill="#263238"/>
<path d="M64.2821 113.625C64.7923 113.411 64.8967 112.517 64.5152 111.627C64.1337 110.738 63.4108 110.19 62.9005 110.404C62.3902 110.618 62.2858 111.512 62.6673 112.401C63.0488 113.291 63.7718 113.838 64.2821 113.625Z" fill="#263238"/>
<path d="M65.2154 113.142C65.2154 111.605 64.2659 109.815 63.1009 109.151C62.9017 109.011 62.668 108.927 62.4244 108.907C62.1808 108.887 61.9364 108.933 61.7168 109.039L61.1288 109.374C60.6833 109.631 60.3984 110.223 60.3984 111.064C60.3984 112.601 61.3443 114.387 62.5129 115.055C62.7113 115.196 62.9446 115.28 63.1879 115.299C63.4312 115.318 63.6751 115.271 63.8934 115.163L64.4813 114.831C64.9305 114.568 65.2154 113.983 65.2154 113.142Z" fill="#37474F"/>
<path d="M64.6196 113.485C64.6196 115.026 63.6701 115.733 62.5051 115.065C61.3401 114.398 60.3906 112.611 60.3906 111.074C60.3906 109.536 61.3365 108.826 62.5051 109.493C63.6737 110.161 64.6196 111.936 64.6196 113.485Z" fill="#455A64"/>
<path d="M64.1576 113.208C64.1576 114.406 63.4272 114.954 62.5142 114.435C61.6012 113.915 60.8672 112.529 60.8672 111.331C60.8672 110.133 61.5976 109.584 62.5142 110.1C63.4309 110.616 64.1576 112.009 64.1576 113.208Z" fill="#E0E0E0"/>
<path d="M66.0788 110.216C65.8596 109.458 65.6697 108.603 65.4178 108.596C64.9905 108.596 64.1834 109.408 64.4281 110.671C64.6618 111.876 65.2534 113.287 65.2972 113.637L67.4884 112.089C66.8215 111.636 66.3257 110.978 66.0788 110.216Z" fill="#C8856A"/>
<path d="M131.484 118.147L120 102.14L130.44 86.0828L141.884 79.5519L144.397 83.0578L153.864 77.6387L173.569 88.8775V107.509L185.56 104.474L196 132.451L184.516 138.991L196 154.998L185.56 171.055L174.126 177.576L171.613 174.09L162.135 179.489L142.431 168.25V149.629L130.44 152.654L120 124.677L131.484 118.147Z" fill="#C51F2C"/>
<path opacity="0.8" d="M131.484 118.147L120 102.14L130.44 86.0828L141.884 79.5519L144.397 83.0578L153.864 77.6387L173.569 88.8775V107.509L185.56 104.474L196 132.451L184.516 138.991L196 154.998L185.56 171.055L174.126 177.576L171.613 174.09L162.135 179.489L142.431 168.25V149.629L130.44 152.654L120 124.677L131.484 118.147Z" fill="white"/>
<path opacity="0.5" d="M144.395 83.0606L142.428 84.1624V102.794L130.438 86.0856L141.881 79.5547L144.395 83.0606Z" fill="#C51F2C"/>
<path opacity="0.3" d="M185.557 104.475L174.124 110.996L162.133 114.031L173.566 107.51L185.557 104.475Z" fill="#C51F2C"/>
<path opacity="0.5" d="M173.566 88.877L162.133 95.4079V114.029L173.566 107.508V88.877Z" fill="#C51F2C"/>
<path opacity="0.5" d="M185.558 104.475L174.125 110.996L184.565 138.972L195.999 132.451L185.558 104.475Z" fill="#C51F2C"/>
<path opacity="0.5" d="M170.875 142.437L184.569 138.971L196.002 154.998L184.569 161.518L170.875 142.437Z" fill="#C51F2C"/>
<path opacity="0.65" d="M195.999 155L184.565 161.521L174.125 177.578L185.558 171.057L195.999 155Z" fill="#C51F2C"/>
<path opacity="0.65" d="M162.133 179.49L171.61 174.091L162.133 160.869V179.49Z" fill="#C51F2C"/>
<path opacity="0.5" d="M120 124.677L133.694 121.222L131.484 118.146L120 124.677Z" fill="#C51F2C"/>
<path d="M138.516 121.804L124.031 101.62L131.562 90.0411L143.979 107.35L145.885 106.258V88.168L160.582 96.562V116.826L173.627 113.53L182.222 136.559L169.856 139.684L167.951 140.776L182.435 160.95L174.904 172.529L162.487 155.23L160.582 156.312V174.402L145.885 166.008V145.744L132.839 149.05L124.244 126.011L136.61 122.886L138.516 121.804Z" fill="#FAFAFA"/>
<path d="M160.581 156.31L173.626 174.49L174.903 172.487L162.487 155.188L160.581 156.31ZM124.243 126.009L122.125 126.54L130.933 150.11L143.978 146.814V167.138L160.581 176.614V174.44L145.884 166.046V145.742L132.839 149.048L124.243 126.009ZM138.515 121.802L124.031 101.618L131.562 90.0089L130.933 89.1374L122.125 102.68L136.609 122.854L138.515 121.802ZM143.978 107.348L145.884 106.256V88.1658L143.978 87.084V107.348ZM167.95 140.774L182.434 137.088L182.222 136.537L169.856 139.662L167.95 140.774Z" fill="#C51F2C"/>
<path opacity="0.7" d="M160.581 156.31L173.626 174.49L174.903 172.487L162.487 155.188L160.581 156.31ZM124.243 126.009L122.125 126.54L130.933 150.11L143.978 146.814V167.138L160.581 176.614V174.44L145.884 166.046V145.742L132.839 149.048L124.243 126.009ZM138.515 121.802L124.031 101.618L131.562 90.0089L130.933 89.1374L122.125 102.68L136.609 122.854L138.515 121.802ZM143.978 107.348L145.884 106.256V88.1658L143.978 87.084V107.348ZM167.95 140.774L182.434 137.088L182.222 136.537L169.856 139.662L167.95 140.774Z" fill="white"/>
<path opacity="0.35" d="M145.89 166.01L143.984 167.102V146.838L145.89 145.746V166.01Z" fill="#C51F2C"/>
<path opacity="0.35" d="M132.844 149.05L130.939 150.132L122.141 126.543L124.249 126.012L132.844 149.05Z" fill="#C51F2C"/>
<path opacity="0.35" d="M160.586 156.31L162.492 155.229L174.908 172.528L173.631 174.491L160.586 156.31Z" fill="#C51F2C"/>
<path opacity="0.35" d="M124.036 101.619L122.141 102.711L130.939 89.168L131.567 90.0394L124.036 101.619Z" fill="#C51F2C"/>
<path opacity="0.35" d="M143.984 107.348L145.89 106.256V88.1658L143.984 87.084V107.348Z" fill="#C51F2C"/>
<path opacity="0.35" d="M167.953 140.774L169.859 139.682L182.225 136.557L182.438 137.108L167.953 140.774Z" fill="#C51F2C"/>
<path d="M152.523 162.344L152.635 162.454L152.574 167.122L152.523 162.344Z" fill="#455A64"/>
<path d="M152.792 148.557L152.742 153.244V156.029L152.681 160.727L152.539 160.517V156.109V153.244V148.016L152.792 148.557Z" fill="#455A64"/>
<path d="M153.016 128.625L152.935 135.317L152.824 145.514C152.662 145.293 152.499 145.063 152.337 144.852L152.276 138.842V135.367L152.195 127.834L152.824 128.445L153.016 128.625Z" fill="#455A64"/>
<path d="M154.445 106.148C154.445 107.149 153.959 107.771 153.269 107.73L153.198 114.602V117.557L153.117 124.879L152.175 123.878L152.104 117.407L152.043 112.398V106.999C151.315 106.191 150.899 105.156 150.867 104.074C150.867 102.752 151.688 102.141 152.692 102.712C153.232 103.113 153.671 103.631 153.975 104.227C154.279 104.823 154.44 105.48 154.445 106.148Z" fill="#455A64"/>
<path d="M158.272 116.827C156.993 115.391 155.398 114.263 153.609 113.531V117.137C155.058 117.712 156.421 118.477 157.664 119.411C157.556 119.971 157.657 120.551 157.947 121.044C158.434 121.815 160.522 124.369 161.505 124.59C162.488 124.81 161.769 120.894 158.272 116.827ZM159.387 120.834C159.263 120.744 159.161 120.629 159.089 120.495C159.017 120.361 158.977 120.213 158.971 120.062C158.971 119.762 159.164 119.622 159.387 119.752C159.509 119.842 159.608 119.958 159.678 120.092C159.749 120.225 159.788 120.373 159.792 120.523C159.792 120.793 159.61 120.924 159.387 120.803V120.834ZM153.477 125.982C153.325 125.832 153.183 125.672 153.042 125.521C152.727 125.171 152.413 124.84 152.119 124.52L151.673 124.019C150.386 122.506 149.443 121.014 149.443 119.652C149.443 117.588 150.345 116.837 151.592 116.807V112.95C148.835 112.46 146.453 113.481 146.453 117.318C146.453 121.154 149.088 124.169 151.744 126.814L152.18 127.244L153.052 128.086L153.488 128.506C155.515 130.51 157.167 132.213 157.167 133.895C157.167 135.809 155.383 135.899 153.406 135.989V138.183C155.93 138.123 158.829 138.183 158.829 134.817C158.829 131.451 155.991 128.647 153.477 125.952V125.982ZM153.244 146.787C153.102 146.587 152.96 146.396 152.808 146.206C152.656 146.016 152.504 145.775 152.342 145.565C152.18 145.355 152.048 145.164 151.906 144.954C150.67 143.221 149.646 141.518 149.646 140.036C149.646 138.764 150.568 138.383 151.835 138.243V136.019C149.93 136.129 148.247 136.59 148.247 138.934C148.247 141.809 150.163 144.473 151.957 146.807C152.099 147.007 152.251 147.198 152.393 147.378L152.829 147.939L153.254 148.51C154.268 149.882 155.028 151.114 155.028 152.166C155.028 153.508 154.177 153.739 153.194 153.869V155.381C154.592 155.241 156.234 155.241 156.234 152.537C156.153 150.814 154.755 148.8 153.244 146.757V146.787ZM153.072 161.952C152.93 161.782 152.778 161.602 152.646 161.422L152.514 161.251C152.358 161.039 152.212 160.818 152.079 160.59C151.433 159.59 151.082 158.431 151.065 157.245C151.014 156.91 151.075 156.567 151.24 156.271C151.405 155.974 151.664 155.739 151.977 155.602V154.039C151.024 154.24 150.224 154.71 150.224 156.373C150.304 158.135 150.942 159.827 152.048 161.211C152.19 161.402 152.342 161.572 152.494 161.742L152.606 161.872C152.743 162.026 152.889 162.174 153.042 162.313C153.435 162.698 153.874 163.034 154.349 163.315C153.897 162.875 153.471 162.41 153.072 161.922V161.952Z" fill="#455A64"/>
<path opacity="0.2" d="M162.134 95.4085L142.43 84.1596L153.863 77.6387L173.568 88.8775L162.134 95.4085Z" fill="#C51F2C"/>
</svg>
