<svg width="239" height="235" viewBox="0 0 239 235" fill="none" xmlns="http://www.w3.org/2000/svg">
<path d="M119.624 229.506C183.78 229.506 235.788 199.086 235.788 161.562C235.788 124.038 183.78 93.6191 119.624 93.6191C55.4691 93.6191 3.46094 124.038 3.46094 161.562C3.46094 199.086 55.4691 229.506 119.624 229.506Z" fill="#F5F5F5"/>
<path d="M114.748 203L85 186.183L124.284 164L154 180.797L114.748 203Z" fill="#E0E0E0"/>
<path d="M161.374 163.675C161.377 163.485 161.36 163.295 161.322 163.109C160.978 160.998 158.678 159.505 156.981 158.908H151.448C149.803 159.423 147.451 160.998 147.112 163.109C147.07 163.295 147.051 163.485 147.055 163.675C147.055 163.706 147.055 163.773 147.055 163.773C147.123 164.767 147.815 165.745 149.137 166.507C151.937 168.102 156.471 168.102 159.271 166.507C160.598 165.75 161.291 164.767 161.353 163.773C161.364 163.741 161.371 163.708 161.374 163.675Z" fill="#37474F"/>
<path d="M150.776 159.232C148.877 160.319 148.877 162.079 150.776 163.165C151.843 163.701 153.023 163.98 154.219 163.98C155.416 163.98 156.595 163.701 157.662 163.165C159.567 162.079 159.567 160.319 157.662 159.232C156.595 158.697 155.416 158.418 154.219 158.418C153.023 158.418 151.843 158.697 150.776 159.232Z" fill="#455A64"/>
<path d="M154.731 95.7826C154.57 95.6996 154.392 95.6563 154.21 95.6562C154.029 95.6563 153.851 95.6996 153.69 95.7826C153.631 95.8086 153.581 95.8494 153.543 95.9009C153.506 95.9525 153.483 96.0129 153.477 96.076V161.027C153.482 161.091 153.505 161.152 153.543 161.205C153.58 161.257 153.631 161.299 153.69 161.326C153.851 161.406 154.03 161.448 154.21 161.448C154.391 161.448 154.57 161.406 154.731 161.326C154.79 161.299 154.841 161.257 154.878 161.205C154.916 161.152 154.938 161.091 154.944 161.027V96.076C154.938 96.0129 154.915 95.9525 154.878 95.9009C154.84 95.8494 154.789 95.8086 154.731 95.7826Z" fill="#263238"/>
<path opacity="0.25" d="M154.731 95.9974C154.57 95.9144 154.392 95.8711 154.21 95.8711C154.029 95.8711 153.851 95.9144 153.69 95.9974L153.581 96.0746H153.477V97.2895C153.949 97.4465 154.461 97.4465 154.934 97.2895V96.0952H154.83L154.731 95.9974Z" fill="black"/>
<path d="M155.379 90.2581C155.317 90.2003 155.249 90.1502 155.176 90.1088C154.87 89.9539 154.532 89.873 154.189 89.873C153.846 89.873 153.508 89.9539 153.203 90.1088C153.129 90.1502 153.061 90.2003 153 90.2581H152.812V96.1267C152.823 96.2475 152.867 96.3633 152.938 96.462C153.01 96.5607 153.106 96.6386 153.218 96.6878C153.524 96.8427 153.862 96.9235 154.205 96.9235C154.548 96.9235 154.886 96.8427 155.191 96.6878C155.303 96.6386 155.4 96.5607 155.471 96.462C155.543 96.3633 155.586 96.2475 155.597 96.1267V90.2581H155.379Z" fill="#37474F"/>
<path opacity="0.25" d="M153.609 89.9512C153.467 89.9864 153.33 90.0401 153.203 90.1108C153.129 90.1522 153.061 90.2023 153 90.26H152.812V96.1286C152.823 96.2495 152.867 96.3653 152.938 96.464C153.01 96.5626 153.106 96.6406 153.218 96.6898C153.345 96.7626 153.482 96.8164 153.624 96.8493L153.609 89.9512Z" fill="black"/>
<path d="M153.201 90.8197C153.507 90.9718 153.845 91.051 154.188 91.051C154.53 91.051 154.868 90.9718 155.174 90.8197C155.292 90.7788 155.395 90.7026 155.467 90.6016C155.54 90.5006 155.579 90.3798 155.579 90.256C155.579 90.1321 155.54 90.0114 155.467 89.9104C155.395 89.8094 155.292 89.7332 155.174 89.6923C154.868 89.5402 154.53 89.4609 154.188 89.4609C153.845 89.4609 153.507 89.5402 153.201 89.6923C153.083 89.7332 152.981 89.8094 152.908 89.9104C152.836 90.0114 152.797 90.1321 152.797 90.256C152.797 90.3798 152.836 90.5006 152.908 90.6016C152.981 90.7026 153.083 90.7788 153.201 90.8197Z" fill="#455A64"/>
<path d="M155.078 91.3986C155.141 91.3533 155.216 91.3256 155.293 91.3183C155.371 91.3111 155.449 91.3246 155.52 91.3574L155.812 91.5222C155.876 91.5665 155.927 91.6272 155.959 91.698C155.991 91.7687 156.003 91.8467 155.994 91.9237C155.982 92.1388 155.919 92.3482 155.811 92.535C155.702 92.7219 155.551 92.881 155.369 92.9996C155.305 93.0454 155.23 93.0734 155.151 93.0806C155.072 93.0879 154.993 93.0741 154.922 93.0408L154.635 92.8761C154.57 92.8324 154.518 92.7719 154.485 92.7011C154.452 92.6304 154.439 92.552 154.448 92.4745C154.46 92.2589 154.523 92.0491 154.633 91.8621C154.742 91.6752 154.895 91.5164 155.078 91.3986Z" fill="#C51F2C"/>
<path d="M155.078 91.3986C155.141 91.3533 155.216 91.3256 155.293 91.3183C155.371 91.3111 155.449 91.3246 155.52 91.3574L155.812 91.5222C155.876 91.5665 155.927 91.6272 155.959 91.698C155.991 91.7687 156.003 91.8467 155.994 91.9237C155.982 92.1388 155.919 92.3482 155.811 92.535C155.702 92.7219 155.551 92.881 155.369 92.9996C155.305 93.0454 155.23 93.0734 155.151 93.0806C155.072 93.0879 154.993 93.0741 154.922 93.0408L154.635 92.8761C154.57 92.8324 154.518 92.7719 154.485 92.7011C154.452 92.6304 154.439 92.552 154.448 92.4745C154.46 92.2589 154.523 92.0491 154.633 91.8621C154.742 91.6752 154.895 91.5164 155.078 91.3986Z" fill="#C51F2C"/>
<path opacity="0.15" d="M155.372 91.562C155.189 91.6798 155.036 91.8385 154.927 92.0255C154.818 92.2124 154.754 92.4222 154.742 92.6379C154.742 93.0343 155.023 93.1938 155.372 92.9982C155.554 92.8796 155.705 92.7205 155.813 92.5336C155.922 92.3468 155.985 92.1374 155.997 91.9223C155.997 91.5259 155.715 91.3664 155.372 91.562Z" fill="black"/>
<path d="M154.84 70.5161L154.731 70.4389C154.57 70.3584 154.391 70.3164 154.21 70.3164C154.03 70.3164 153.851 70.3584 153.69 70.4389L153.581 70.5161H153.477V90.1862C153.482 90.2496 153.505 90.3102 153.543 90.3618C153.58 90.4134 153.631 90.4541 153.69 90.4797C153.851 90.5627 154.029 90.606 154.21 90.606C154.392 90.606 154.57 90.5627 154.731 90.4797C154.79 90.4541 154.841 90.4134 154.878 90.3618C154.916 90.3102 154.939 90.2496 154.944 90.1862V70.5161H154.84Z" fill="#263238"/>
<path d="M153.699 70.8109C153.86 70.8939 154.038 70.9373 154.22 70.9373C154.401 70.9373 154.579 70.8939 154.74 70.8109C155.026 70.6513 155.026 70.3888 154.74 70.2241C154.579 70.1435 154.4 70.1016 154.22 70.1016C154.039 70.1016 153.86 70.1435 153.699 70.2241C153.413 70.3888 153.413 70.6513 153.699 70.8109Z" fill="#455A64"/>
<path d="M155.28 69.2446C155.222 69.1935 155.159 69.1486 155.092 69.1107C154.82 68.9737 154.518 68.9023 154.213 68.9023C153.907 68.9023 153.606 68.9737 153.333 69.1107C153.266 69.1486 153.203 69.1935 153.146 69.2446H152.969V70.3771C152.976 70.4878 153.013 70.5944 153.078 70.6852C153.142 70.7761 153.23 70.8476 153.333 70.8919C153.606 71.0289 153.907 71.1003 154.213 71.1003C154.518 71.1003 154.82 71.0289 155.092 70.8919C155.195 70.8476 155.283 70.7761 155.348 70.6852C155.412 70.5944 155.45 70.4878 155.457 70.3771V69.2446H155.28Z" fill="#C51F2C"/>
<path opacity="0.25" d="M153.692 68.9727C153.566 69.0009 153.445 69.0478 153.333 69.1117C153.266 69.1496 153.203 69.1944 153.146 69.2455H152.969V70.378C152.976 70.4887 153.013 70.5953 153.078 70.6861C153.142 70.777 153.23 70.8485 153.333 70.8928C153.446 70.9562 153.567 71.0047 153.692 71.037V68.9727Z" fill="black"/>
<path d="M153.333 69.7517C153.606 69.8886 153.907 69.96 154.213 69.96C154.518 69.96 154.82 69.8886 155.092 69.7517C155.23 69.7517 155.363 69.6974 155.46 69.6009C155.558 69.5043 155.613 69.3734 155.613 69.2369C155.613 69.1003 155.558 68.9694 155.46 68.8729C155.363 68.7763 155.23 68.7221 155.092 68.7221C154.82 68.5851 154.518 68.5137 154.213 68.5137C153.907 68.5137 153.606 68.5851 153.333 68.7221C153.195 68.7221 153.063 68.7763 152.965 68.8729C152.867 68.9694 152.812 69.1003 152.812 69.2369C152.812 69.3734 152.867 69.5043 152.965 69.6009C153.063 69.6974 153.195 69.7517 153.333 69.7517Z" fill="#C51F2C"/>
<path opacity="0.3" d="M153.333 69.7517C153.606 69.8886 153.907 69.96 154.213 69.96C154.518 69.96 154.82 69.8886 155.092 69.7517C155.23 69.7517 155.363 69.6974 155.46 69.6009C155.558 69.5043 155.613 69.3734 155.613 69.2369C155.613 69.1003 155.558 68.9694 155.46 68.8729C155.363 68.7763 155.23 68.7221 155.092 68.7221C154.82 68.5851 154.518 68.5137 154.213 68.5137C153.907 68.5137 153.606 68.5851 153.333 68.7221C153.195 68.7221 153.063 68.7763 152.965 68.8729C152.867 68.9694 152.812 69.1003 152.812 69.2369C152.812 69.3734 152.867 69.5043 152.965 69.6009C153.063 69.6974 153.195 69.7517 153.333 69.7517Z" fill="white"/>
<path d="M143.551 35.0379C142.76 33.9716 141.574 33.2594 140.253 33.0581C138.932 32.8568 137.584 33.1829 136.506 33.9645C135.428 34.7462 134.708 35.9194 134.504 37.2261C134.301 38.5328 134.63 39.8659 135.421 40.9322L138.715 45.38C139.505 46.4463 140.692 47.1584 142.013 47.3597C143.334 47.561 144.682 47.235 145.76 46.4533C146.838 45.6717 147.558 44.4985 147.762 43.1918C147.965 41.8851 147.636 40.5519 146.845 39.4856L143.551 35.0379Z" fill="#455A64"/>
<path d="M145.757 46.4314C146.566 45.8457 147.179 45.0347 147.52 44.1021C147.86 43.1695 147.911 42.1576 147.667 41.196C146.824 41.6696 142.566 44.0994 141.942 44.4341C141.317 44.7687 139.537 43.1213 137.674 40.4547C135.81 37.7881 134.67 36.5475 135.732 34.6582C134.967 35.5101 134.52 36.5956 134.466 37.7337C134.412 38.8718 134.754 39.9939 135.435 40.9129L138.73 45.3607C139.519 46.4229 140.702 47.1322 142.02 47.333C143.337 47.5337 144.681 47.2095 145.757 46.4314Z" fill="#263238"/>
<path d="M143.663 44.4785L147.816 50.0846L145.677 54.3522L141.523 48.7461L143.663 44.4785Z" fill="#C51F2C"/>
<path opacity="0.2" d="M143.663 44.4785L147.816 50.0846L145.677 54.3522L141.523 48.7461L143.663 44.4785Z" fill="black"/>
<path d="M147.818 50.0844L153.095 47.0729L148.942 41.4668L143.664 44.4783L147.818 50.0844Z" fill="#C51F2C"/>
<path d="M145.68 54.3514L150.957 51.3347L153.097 47.0723L147.819 50.0838L145.68 54.3514Z" fill="#C51F2C"/>
<path opacity="0.35" d="M145.68 54.3514L150.957 51.3347L153.097 47.0723L147.819 50.0838L145.68 54.3514Z" fill="black"/>
<path d="M155.04 69.3356C155.04 69.8504 153.406 69.8504 153.406 69.3356C153.406 63.2559 153.406 56.3629 149.07 51.1841C148.716 50.7568 149.976 49.7272 150.329 50.1545C155.04 55.7812 155.04 63.2971 155.04 69.3356Z" fill="#263238"/>
<path d="M154.889 67.8368C154.923 67.8183 154.96 67.8086 154.999 67.8086C155.037 67.8086 155.074 67.8183 155.108 67.8368L155.259 67.9192C155.29 67.943 155.315 67.9745 155.331 68.0105C155.346 68.0466 155.352 68.0861 155.347 68.1251C155.34 68.2328 155.309 68.3375 155.255 68.4313C155.201 68.525 155.125 68.6051 155.035 68.6656C155.001 68.6841 154.962 68.6937 154.923 68.6937C154.884 68.6937 154.845 68.6841 154.811 68.6656L154.665 68.5832C154.633 68.5604 154.607 68.5292 154.59 68.493C154.574 68.4567 154.567 68.4168 154.572 68.3773C154.578 68.269 154.61 68.1636 154.666 68.0698C154.721 67.9759 154.797 67.8961 154.889 67.8368Z" fill="#C51F2C"/>
<path d="M154.889 67.8368C154.923 67.8183 154.96 67.8086 154.999 67.8086C155.037 67.8086 155.074 67.8183 155.108 67.8368L155.259 67.9192C155.29 67.943 155.315 67.9745 155.331 68.0105C155.346 68.0466 155.352 68.0861 155.347 68.1251C155.34 68.2328 155.309 68.3375 155.255 68.4313C155.201 68.525 155.125 68.6051 155.035 68.6656C155.001 68.6841 154.962 68.6937 154.923 68.6937C154.884 68.6937 154.845 68.6841 154.811 68.6656L154.665 68.5832C154.633 68.5604 154.607 68.5292 154.59 68.493C154.574 68.4567 154.567 68.4168 154.572 68.3773C154.578 68.269 154.61 68.1636 154.666 68.0698C154.721 67.9759 154.797 67.8961 154.889 67.8368Z" fill="#C51F2C"/>
<path opacity="0.15" d="M155.021 67.9234C154.928 67.9817 154.851 68.0613 154.795 68.1554C154.74 68.2494 154.708 68.3552 154.703 68.4639C154.703 68.6595 154.844 68.7419 155.021 68.6441C155.111 68.5836 155.186 68.5034 155.24 68.4097C155.294 68.316 155.326 68.2113 155.333 68.1035C155.333 67.9028 155.192 67.8204 155.021 67.9234Z" fill="black"/>
<path d="M113.5 198.256V191.456L147.831 171.848V178.653L113.5 198.256Z" fill="#EBEBEB"/>
<path d="M113.498 191.457L83.6016 174.387V181.187L113.498 198.258V191.457Z" fill="#E0E0E0"/>
<path opacity="0.1" d="M113.498 191.457L83.6016 174.387V181.187L113.498 198.258V191.457Z" fill="black"/>
<path d="M113.498 191.457L83.6016 174.387L120.395 156.184L147.83 171.849L113.498 191.457Z" fill="#F5F5F5"/>
<path d="M113.5 188.655L142.928 171.847L146.249 84.1992L113.5 102.896V188.655Z" fill="#EBEBEB"/>
<path d="M113.497 188.658L88.503 174.388L85.1875 86.7344L113.497 102.899V188.658Z" fill="#E0E0E0"/>
<path opacity="0.1" d="M113.497 188.658L88.503 174.388L85.1875 86.7344L113.497 102.899V188.658Z" fill="black"/>
<path opacity="0.2" d="M145.856 94.459L146.246 84.1992L113.497 102.896L85.1875 86.732L85.5727 96.9917L113.497 112.935L145.856 94.459Z" fill="black"/>
<path d="M119.453 111.517L140.288 99.6152L138.326 167.65L119.453 178.455V111.517Z" fill="#E0E0E0"/>
<path d="M137.273 104.69L135.421 165.95L122.382 173.43V113.2L137.273 104.695M138.091 103.388L121.648 112.778V174.691L136.154 166.377L138.117 103.367L138.091 103.388Z" fill="#F5F5F5"/>
<path d="M111.195 109.732V100.332L157.186 74.0723V83.4672L111.195 109.732Z" fill="#EBEBEB"/>
<path d="M111.197 100.33L79 86.3633V91.3464L111.197 109.73V100.33Z" fill="#E0E0E0"/>
<path d="M111.197 100.33L79 86.3642L124.996 60.0996L157.188 74.071L111.197 100.33Z" fill="#FAFAFA"/>
<path d="M123.329 126.459L151.54 110.32C151.371 109.822 151.282 109.301 151.274 108.776V84.3231C151.275 82.9048 150.859 81.517 150.076 80.3288C149.293 79.1405 148.178 78.2031 146.866 77.6308L118.463 65.2758C117.93 65.0427 117.478 64.6618 117.16 64.1794C116.842 63.6969 116.673 63.1336 116.672 62.5578C116.672 62.3849 116.69 62.2125 116.724 62.043L90.6114 76.9719H89.3206C88.6393 76.9801 87.9811 77.2177 87.4546 77.6454C86.928 78.0732 86.5645 78.6655 86.4239 79.3249C86.2833 79.9843 86.374 80.6714 86.681 81.273C86.9881 81.8746 87.4932 82.3548 88.1131 82.6346L116.516 94.9895C117.829 95.561 118.946 96.4981 119.729 97.6864C120.513 98.8748 120.93 100.263 120.93 101.682V126.134C120.93 127.576 121.679 129.166 122.601 129.697C123.522 130.227 124.266 129.825 124.266 128.811C124.266 127.797 123.855 126.742 123.329 126.459Z" fill="#C51F2C"/>
<path opacity="0.8" d="M123.329 126.459L151.54 110.32C151.371 109.822 151.282 109.301 151.274 108.776V84.3231C151.275 82.9048 150.859 81.517 150.076 80.3288C149.293 79.1405 148.178 78.2031 146.866 77.6308L118.463 65.2758C117.93 65.0427 117.478 64.6618 117.16 64.1794C116.842 63.6969 116.673 63.1336 116.672 62.5578C116.672 62.3849 116.69 62.2125 116.724 62.043L90.6114 76.9719H89.3206C88.6393 76.9801 87.9811 77.2177 87.4546 77.6454C86.928 78.0732 86.5645 78.6655 86.4239 79.3249C86.2833 79.9843 86.374 80.6714 86.681 81.273C86.9881 81.8746 87.4932 82.3548 88.1131 82.6346L116.516 94.9895C117.829 95.561 118.946 96.4981 119.729 97.6864C120.513 98.8748 120.93 100.263 120.93 101.682V126.134C120.93 127.576 121.679 129.166 122.601 129.697C123.522 130.227 124.266 129.825 124.266 128.811C124.266 127.797 123.855 126.742 123.329 126.459Z" fill="white"/>
<path d="M119.679 59.5989C119.147 59.5985 118.624 59.7389 118.165 60.0056L87.9141 77.3077C88.3515 77.0714 88.8418 76.9475 89.3402 76.9473H90.6414L116.754 62.0184L120.986 59.5938L119.679 59.5989Z" fill="#C51F2C"/>
<path opacity="0.9" d="M119.679 59.5989C119.147 59.5985 118.624 59.7389 118.165 60.0056L87.9141 77.3077C88.3515 77.0714 88.8418 76.9475 89.3402 76.9473H90.6414L116.754 62.0184L120.986 59.5938L119.679 59.5989Z" fill="white"/>
<path d="M154.622 111.466C154.622 110.436 154.196 109.407 153.67 109.113L151.536 110.323L123.305 126.462C123.825 126.74 124.262 127.795 124.262 128.814C124.281 129.005 124.25 129.198 124.17 129.373C124.091 129.548 123.966 129.7 123.81 129.813L154.138 112.485H154.17C154.33 112.37 154.456 112.215 154.536 112.036C154.615 111.857 154.645 111.66 154.622 111.466Z" fill="#C51F2C"/>
<path opacity="0.5" d="M154.622 111.466C154.622 110.436 154.196 109.407 153.67 109.113L151.536 110.323L123.305 126.462C123.825 126.74 124.262 127.795 124.262 128.814C124.281 129.005 124.25 129.198 124.17 129.373C124.091 129.548 123.966 129.7 123.81 129.813L154.138 112.485H154.17C154.33 112.37 154.456 112.215 154.536 112.036C154.615 111.857 154.645 111.66 154.622 111.466Z" fill="white"/>
<path opacity="0.2" d="M122.613 129.699C123.534 130.214 124.278 129.828 124.278 128.814C124.278 127.8 123.852 126.755 123.326 126.461L151.536 110.323C151.368 109.825 151.278 109.304 151.271 108.778V84.3258C151.275 83.0062 150.915 81.7104 150.23 80.5781L119.875 97.9111C120.563 99.0479 120.923 100.349 120.916 101.674V126.127C120.942 127.578 121.692 129.169 122.613 129.699Z" fill="#C51F2C"/>
</svg>
