<svg width="239" height="235" viewBox="0 0 239 235" fill="none" xmlns="http://www.w3.org/2000/svg">
<path d="M119.624 229.506C183.78 229.506 235.788 199.086 235.788 161.562C235.788 124.038 183.78 93.6191 119.624 93.6191C55.4691 93.6191 3.46094 124.038 3.46094 161.562C3.46094 199.086 55.4691 229.506 119.624 229.506Z" fill="#F5F5F5"/>
<path d="M57 81.1183V189.653L142.902 140.553V32.0234L57 81.1183Z" fill="#455A64"/>
<path d="M114.642 53.916L62.0234 83.9916V154.487L114.642 124.398V53.916Z" fill="#C51F2C"/>
<path d="M114.642 124.398L62.0234 154.488V181.038L114.642 150.962L137.88 137.636L114.642 124.398Z" fill="#C51F2C"/>
<path d="M137.879 137.638V40.6387L114.641 53.9182V124.4L137.879 137.638Z" fill="#C51F2C"/>
<path opacity="0.3" d="M114.642 53.916L62.0234 83.9916V154.487L114.642 124.398V53.916Z" fill="white"/>
<path opacity="0.2" d="M114.642 124.398L62.0234 154.488V181.038L114.642 150.962L137.88 137.636L114.642 124.398Z" fill="white"/>
<path opacity="0.4" d="M137.879 137.638V40.6387L114.641 53.9182V124.4L137.879 137.638Z" fill="white"/>
<path d="M97.1016 58.1925L107.64 69.2534L113.368 65.9788L102.829 54.918L97.1016 58.1925Z" fill="white"/>
<path d="M108.555 51.6476L119.093 62.7038L124.826 59.4293L114.282 48.373L108.555 51.6476Z" fill="white"/>
<path d="M102.828 54.9164L113.367 65.9773L119.094 62.7027L108.556 51.6465L102.828 54.9164Z" fill="#C51F2C"/>
<path d="M114.281 48.3722L124.825 59.4284L130.552 56.1539L120.013 45.0977L114.281 48.3722Z" fill="#C51F2C"/>
<path d="M120.016 45.0988L130.554 56.155L136.282 52.8804L125.743 41.8242L120.016 45.0988Z" fill="white"/>
<path d="M85.6484 64.7413L96.1871 75.8022L101.915 72.5277L91.3759 61.4668L85.6484 64.7413Z" fill="white"/>
<path d="M91.375 61.4659L101.914 72.5268L107.641 69.2523L97.1024 58.1914L91.375 61.4659Z" fill="#C51F2C"/>
<g opacity="0.3">
<path d="M97.1016 58.1925L107.64 69.2534L113.368 65.9788L102.829 54.918L97.1016 58.1925Z" fill="white"/>
<path d="M108.562 51.6476L119.101 62.7038L124.833 59.4293L114.29 48.373L108.562 51.6476Z" fill="white"/>
<path d="M102.828 54.9164L113.367 65.9773L119.094 62.7027L108.556 51.6465L102.828 54.9164Z" fill="white"/>
<path d="M114.289 48.3722L124.832 59.4284L130.56 56.1539L120.021 45.0977L114.289 48.3722Z" fill="white"/>
<path d="M120.016 45.0988L130.554 56.155L136.282 52.8804L125.743 41.8242L120.016 45.0988Z" fill="white"/>
<path d="M137.203 35.2745L147.742 46.3354L153.469 43.0609L142.931 32L137.203 35.2745Z" fill="white"/>
<path d="M131.477 38.5499L142.015 49.6108L147.743 46.3363L137.204 35.2754L131.477 38.5499Z" fill="white"/>
<path d="M125.75 41.8234L136.289 52.8796L142.016 49.6097L131.477 38.5488L125.75 41.8234Z" fill="white"/>
<path d="M85.6484 64.7413L96.1871 75.8022L101.915 72.5277L91.3759 61.4668L85.6484 64.7413Z" fill="white"/>
<path d="M79.9141 68.0167L90.4575 79.0776L96.1849 75.8031L85.6462 64.7422L79.9141 68.0167Z" fill="white"/>
<path d="M74.1875 71.2902L84.7262 82.3464L90.4583 79.0765L79.9149 68.0156L74.1875 71.2902Z" fill="white"/>
<path d="M68.4609 74.5656L78.9996 85.6218L84.7271 82.3472L74.1884 71.291L68.4609 74.5656Z" fill="white"/>
<path d="M62.7344 77.8409L73.2731 88.8972L79.0005 85.6226L68.4618 74.5664L62.7344 77.8409Z" fill="white"/>
<path d="M57.0078 81.1144L67.5465 92.1706L73.2739 88.8961L62.7353 77.8398L57.0078 81.1144Z" fill="white"/>
<path d="M91.375 61.4659L101.914 72.5268L107.641 69.2523L97.1024 58.1914L91.375 61.4659Z" fill="white"/>
</g>
<path d="M73.2743 88.8984C72.7667 90.3955 71.7591 91.6767 70.4176 92.5311C69.1678 93.2474 68.0684 93.0567 67.5469 92.173L73.2743 88.8984Z" fill="#C51F2C"/>
<path d="M79.0056 85.623C78.4934 87.1202 77.485 88.402 76.1442 89.2604C74.8944 89.972 73.795 89.7813 73.2734 88.8976L79.0056 85.623Z" fill="white"/>
<path d="M107.642 69.2559C107.132 70.7518 106.125 72.0325 104.785 72.8886C103.53 73.6049 102.436 73.4142 101.914 72.5304L107.642 69.2559Z" fill="#C51F2C"/>
<path d="M101.915 72.5312C101.404 74.0279 100.395 75.3087 99.0536 76.1639C97.8038 76.8803 96.7043 76.6849 96.1875 75.8058L101.915 72.5312Z" fill="white"/>
<path d="M96.1884 75.8066C95.6775 77.3033 94.6687 78.5841 93.327 79.4393C92.0772 80.1556 90.9778 79.9603 90.4609 79.0812L96.1884 75.8066Z" fill="#C51F2C"/>
<path d="M90.4618 79.0801C89.951 80.5768 88.9422 81.8575 87.6004 82.7128C86.3507 83.4291 85.2512 83.2337 84.7344 82.3546L90.4618 79.0801Z" fill="white"/>
<path d="M84.7353 82.3555C84.2214 83.8506 83.2133 85.1304 81.8739 85.9882C80.6241 86.7045 79.5246 86.5091 79.0078 85.6254L84.7353 82.3555Z" fill="#C51F2C"/>
<path d="M124.829 59.4375C124.319 60.9335 123.312 62.2141 121.972 63.0702C120.718 63.7865 119.623 63.5911 119.102 62.712L124.829 59.4375Z" fill="white"/>
<path d="M119.102 62.7129C118.589 64.2068 117.583 65.4863 116.246 66.3456C114.991 67.0619 113.897 66.8665 113.375 65.9828L119.102 62.7129Z" fill="#C51F2C"/>
<path d="M113.376 65.9824C112.864 67.4784 111.857 68.7598 110.519 69.6198C109.265 70.3314 108.17 70.1407 107.648 69.257L113.376 65.9824Z" fill="white"/>
<path d="M130.556 56.1641C130.046 57.66 129.039 58.9407 127.699 59.7968C126.444 60.5131 125.35 60.3177 124.828 59.4386L130.556 56.1641Z" fill="#C51F2C"/>
<path d="M153.462 43.0703C152.952 44.5663 151.945 45.8469 150.605 46.703C149.355 47.4193 148.256 47.224 147.734 46.3402L153.462 43.0703Z" fill="#C51F2C"/>
<path d="M147.735 46.3398C147.227 47.8375 146.219 49.12 144.879 49.9772C143.629 50.6888 142.529 50.4981 142.008 49.6144L147.735 46.3398Z" fill="white"/>
<path d="M142.009 49.6152C141.5 51.1129 140.493 52.3953 139.152 53.2526C137.902 53.9642 136.803 53.7735 136.281 52.8898L142.009 49.6152Z" fill="#C51F2C"/>
<path d="M136.274 52.8887C135.765 54.3847 134.758 55.6653 133.418 56.5214C132.168 57.2377 131.068 57.0423 130.547 56.1632L136.274 52.8887Z" fill="white"/>
<g opacity="0.1">
<path d="M73.2743 88.8984C72.7667 90.3955 71.7591 91.6767 70.4176 92.5311C69.1678 93.2474 68.0684 93.0567 67.5469 92.173L73.2743 88.8984Z" fill="black"/>
<path d="M79.0056 85.623C78.4934 87.1202 77.485 88.402 76.1442 89.2604C74.8944 89.972 73.795 89.7813 73.2734 88.8976L79.0056 85.623Z" fill="black"/>
<path d="M107.642 69.2559C107.132 70.7518 106.125 72.0325 104.785 72.8886C103.53 73.6049 102.436 73.4142 101.914 72.5304L107.642 69.2559Z" fill="black"/>
<path d="M101.915 72.5312C101.404 74.0279 100.395 75.3087 99.0536 76.1639C97.8038 76.8803 96.7043 76.6849 96.1875 75.8058L101.915 72.5312Z" fill="black"/>
<path d="M96.1884 75.8066C95.6775 77.3033 94.6687 78.5841 93.327 79.4393C92.0772 80.1556 90.9778 79.9603 90.4609 79.0812L96.1884 75.8066Z" fill="black"/>
<path d="M90.4618 79.0801C89.951 80.5768 88.9422 81.8575 87.6004 82.7128C86.3507 83.4291 85.2512 83.2337 84.7344 82.3546L90.4618 79.0801Z" fill="black"/>
<path d="M84.7353 82.3555C84.2214 83.8506 83.2133 85.1304 81.8739 85.9882C80.6241 86.7045 79.5246 86.5091 79.0078 85.6254L84.7353 82.3555Z" fill="black"/>
<path d="M124.829 59.4375C124.319 60.9335 123.312 62.2141 121.972 63.0702C120.718 63.7865 119.623 63.5911 119.102 62.712L124.829 59.4375Z" fill="black"/>
<path d="M119.102 62.7129C118.589 64.2068 117.583 65.4863 116.246 66.3456C114.991 67.0619 113.897 66.8665 113.375 65.9828L119.102 62.7129Z" fill="black"/>
<path d="M113.368 65.9824C112.856 67.4784 111.85 68.7598 110.511 69.6198C109.257 70.3314 108.162 70.1407 107.641 69.257L113.368 65.9824Z" fill="black"/>
<path d="M130.556 56.1641C130.046 57.66 129.039 58.9407 127.699 59.7968C126.444 60.5131 125.35 60.3177 124.828 59.4386L130.556 56.1641Z" fill="black"/>
<path d="M153.462 43.0703C152.952 44.5663 151.945 45.8469 150.605 46.703C149.355 47.4193 148.256 47.224 147.734 46.3402L153.462 43.0703Z" fill="black"/>
<path d="M147.735 46.3398C147.227 47.8375 146.219 49.12 144.879 49.9772C143.629 50.6888 142.529 50.4981 142.008 49.6144L147.735 46.3398Z" fill="black"/>
<path d="M142.009 49.6152C141.5 51.1129 140.493 52.3953 139.152 53.2526C137.902 53.9642 136.803 53.7735 136.281 52.8898L142.009 49.6152Z" fill="black"/>
<path d="M136.274 52.8906C135.765 54.3866 134.758 55.6673 133.418 56.5233C132.168 57.2396 131.068 57.0443 130.547 56.1652L136.274 52.8906Z" fill="black"/>
</g>
<path d="M81.25 94.8255C84.9007 94.0487 87.203 96.9884 87.2453 99.9885C87.2875 102.989 87.2453 112.705 87.9641 118.338C86.5311 120.338 84.5906 119.65 84.5906 119.65C84.9665 104.998 81.25 94.8255 81.25 94.8255Z" fill="#C51F2C"/>
<path opacity="0.3" d="M81.25 94.8255C84.9007 94.0487 87.203 96.9884 87.2453 99.9885C87.2875 102.989 87.2453 112.705 87.9641 118.338C86.5311 120.338 84.5906 119.65 84.5906 119.65C84.9665 104.998 81.25 94.8255 81.25 94.8255Z" fill="black"/>
<path d="M88.3087 153.465H87.9845C87.4659 152.499 86.6651 151.712 85.687 151.204C82.2054 149.213 76.5813 149.213 73.1185 151.204C72.1404 151.714 71.3448 152.51 70.8398 153.483H70.5391V154.804C70.5391 156.111 71.4177 157.414 73.1608 158.409C76.6424 160.4 82.2712 160.4 85.7292 158.409C87.4583 157.414 88.3181 156.111 88.3087 154.804V153.465Z" fill="#C51F2C"/>
<path opacity="0.2" d="M88.3087 153.465H87.9845C87.4659 152.499 86.6651 151.712 85.687 151.204C82.2054 149.213 76.5813 149.213 73.1185 151.204C72.1404 151.714 71.3448 152.51 70.8398 153.483H70.5391V154.804C70.5391 156.111 71.4177 157.414 73.1608 158.409C76.6424 160.4 82.2712 160.4 85.7292 158.409C87.4583 157.414 88.3181 156.111 88.3087 154.804V153.465Z" fill="black"/>
<path d="M85.6905 149.884C82.209 147.893 76.5849 147.893 73.1221 149.884C69.6593 151.874 69.6828 155.102 73.1644 157.089C76.646 159.075 82.2747 159.079 85.7328 157.089C89.1909 155.098 89.1721 151.87 85.6905 149.884Z" fill="#C51F2C"/>
<path opacity="0.3" d="M85.6905 149.884C82.209 147.893 76.5849 147.893 73.1221 149.884C69.6593 151.874 69.6828 155.102 73.1644 157.089C76.646 159.075 82.2747 159.079 85.7328 157.089C89.1909 155.098 89.1721 151.87 85.6905 149.884Z" fill="white"/>
<path d="M80.7625 129.326H78.2066L78.0703 153.485C78.0817 153.604 78.1247 153.717 78.1949 153.813C78.265 153.91 78.3599 153.986 78.4697 154.034C78.7669 154.185 79.0963 154.264 79.4305 154.264C79.7648 154.264 80.0942 154.185 80.3914 154.034C80.5005 153.986 80.5947 153.909 80.6641 153.813C80.7335 153.716 80.7756 153.603 80.786 153.485L80.7625 129.326Z" fill="#C51F2C"/>
<path opacity="0.2" d="M80.7625 129.326H78.2066L78.0703 153.485C78.0817 153.604 78.1247 153.717 78.1949 153.813C78.265 153.91 78.3599 153.986 78.4697 154.034C78.7669 154.185 79.0963 154.264 79.4305 154.264C79.7648 154.264 80.0942 154.185 80.3914 154.034C80.5005 153.986 80.5947 153.909 80.6641 153.813C80.7335 153.716 80.7756 153.603 80.786 153.485L80.7625 129.326Z" fill="black"/>
<path opacity="0.2" d="M80.767 136.443V129.326H78.211L78.1641 137.62C78.6527 137.527 79.1268 137.371 79.5736 137.154C79.9919 136.953 80.3912 136.714 80.767 136.443Z" fill="black"/>
<path d="M74.207 98.0316C68.1648 100.869 68.2729 105.474 70.749 109.195C73.2251 112.916 73.4224 113.962 73.4224 115.511C73.4224 117.06 71.6792 120.544 71.6792 124.865V131.042C75.0528 134.931 81.1138 133.126 87.2406 128.158C87.2406 120.093 85.676 118.749 85.676 115.6C85.676 110.297 86.9164 108.037 86.9164 103.325C86.9164 98.613 83.994 94.1012 80.5641 95.1013C78.3235 95.7956 76.1859 96.7809 74.207 98.0316Z" fill="#455A64"/>
<path d="M87.3749 121.277C86.8534 118.021 85.6882 114.839 86.299 111.481C87.6098 105.202 87.0507 101.225 86.6889 99.9969C86.3271 98.7689 84.8095 94.2199 81.2481 94.8246C77.6866 95.4293 71.8511 98.9736 70.8691 100.346C70.8691 100.346 68.7313 102.964 68.6656 105.178C68.5998 107.392 70.7188 109.611 71.1792 112.225C71.6397 114.839 70.8175 118.737 71.339 130.133C74.8817 132.877 79.2935 131.84 82.9959 129.807L83.3342 121.774L84.1658 129.124C85.4033 128.34 86.574 127.458 87.6662 126.486C87.7868 124.744 87.689 122.995 87.3749 121.277Z" fill="#F0F0F0"/>
<path d="M87.3749 121.277C86.8534 118.021 85.6882 114.839 86.299 111.481C87.6098 105.202 87.0507 101.225 86.6889 99.9969C86.3271 98.7689 84.8095 94.2199 81.2481 94.8246C77.6866 95.4293 71.8511 98.9736 70.8691 100.346C70.8691 100.346 68.7313 102.964 68.6656 105.178C68.5998 107.392 70.7188 109.611 71.1792 112.225C71.6397 114.839 70.8175 118.737 71.339 130.133C74.8817 132.877 79.2935 131.84 82.9959 129.807L83.3342 121.774L84.1658 129.124C85.4033 128.34 86.574 127.458 87.6662 126.486C87.7868 124.744 87.689 122.995 87.3749 121.277Z" fill="#C51F2C"/>
<path opacity="0.2" d="M87.3749 121.277C86.8534 118.021 85.6882 114.839 86.299 111.481C87.6098 105.202 87.0507 101.225 86.6889 99.9969C86.3271 98.7689 84.8095 94.2199 81.2481 94.8246C77.6866 95.4293 71.8511 98.9736 70.8691 100.346C70.8691 100.346 68.7313 102.964 68.6656 105.178C68.5998 107.392 70.7188 109.611 71.1792 112.225C71.6397 114.839 70.8175 118.737 71.339 130.133C74.8817 132.877 79.2935 131.84 82.9959 129.807L83.3342 121.774L84.1658 129.124C85.4033 128.34 86.574 127.458 87.6662 126.486C87.7868 124.744 87.689 122.995 87.3749 121.277Z" fill="black"/>
<path d="M82.3651 111.193C82.6047 111.058 82.7973 111.165 82.7973 111.435C82.79 111.582 82.7474 111.726 82.6731 111.853C82.5987 111.981 82.4948 112.09 82.3698 112.17C82.1301 112.305 81.9375 112.198 81.9375 111.928C81.9448 111.781 81.9874 111.637 82.0618 111.509C82.1361 111.382 82.2401 111.273 82.3651 111.193Z" fill="#E0E0E0"/>
<path d="M82.5963 114.534C82.8312 114.399 83.0239 114.511 83.0239 114.78C83.0166 114.928 82.974 115.071 82.8996 115.199C82.8253 115.327 82.7213 115.435 82.5963 115.515C82.3614 115.65 82.1688 115.515 82.1641 115.269C82.1719 115.121 82.2152 114.977 82.2904 114.85C82.3656 114.722 82.4704 114.614 82.5963 114.534Z" fill="#E0E0E0"/>
<path d="M82.8182 117.849C83.0578 117.714 83.2504 117.821 83.2504 118.091C83.2431 118.238 83.2005 118.382 83.1262 118.51C83.0518 118.637 82.9479 118.746 82.8229 118.826C82.5833 118.961 82.3906 118.854 82.3906 118.584C82.398 118.437 82.4405 118.293 82.5149 118.166C82.5892 118.038 82.6932 117.929 82.8182 117.849Z" fill="#E0E0E0"/>
<path d="M74.1762 99.0594C74.1573 98.8956 74.1573 98.7302 74.1762 98.5664C73.7695 98.9493 73.4546 99.4175 73.2546 99.9367C73.0546 100.456 72.9745 101.013 73.0204 101.567C73.1274 102.445 73.4204 103.291 73.8802 104.05C74.3782 103.999 75.4542 103.79 75.9522 103.743C75.675 104.12 74.8152 104.674 74.5427 105.041C76.2711 107.406 78.8453 109.029 81.7407 109.581C81.7407 109.581 74.4487 102.506 74.1762 99.0594Z" fill="#C51F2C"/>
<path d="M82.7962 103.09C82.7588 102.258 82.636 101.432 82.4297 100.625C81.9568 100.767 81.4728 100.87 80.9826 100.932L82.0679 99.5363C82.0162 99.406 81.9599 99.2804 81.9035 99.1549C81.3256 97.9315 80.461 96.2617 79.0844 96.2617C79.0199 96.5268 78.9868 96.7984 78.9857 97.0711C78.9728 97.4038 79.0525 97.7336 79.2159 98.0246C81.0343 100.699 81.7625 107.667 81.7249 109.569L81.8424 109.378C82.5769 107.365 82.901 105.228 82.7962 103.09Z" fill="#C51F2C"/>
<path opacity="0.4" d="M74.1762 99.0594C74.1573 98.8956 74.1573 98.7302 74.1762 98.5664C73.7695 98.9493 73.4546 99.4175 73.2546 99.9367C73.0546 100.456 72.9745 101.013 73.0204 101.567C73.1274 102.445 73.4204 103.291 73.8802 104.05C74.3782 103.999 75.4542 103.79 75.9522 103.743C75.675 104.12 74.8152 104.674 74.5427 105.041C76.2711 107.406 78.8453 109.029 81.7407 109.581C81.7407 109.581 74.4487 102.506 74.1762 99.0594Z" fill="black"/>
<path opacity="0.4" d="M82.7962 103.09C82.7588 102.258 82.636 101.432 82.4297 100.625C81.9568 100.767 81.4728 100.87 80.9826 100.932L82.0679 99.5363C82.0162 99.406 81.9599 99.2804 81.9035 99.1549C81.3256 97.9315 80.461 96.2617 79.0844 96.2617C79.0199 96.5268 78.9868 96.7984 78.9857 97.0711C78.9728 97.4038 79.0525 97.7336 79.2159 98.0246C81.0343 100.699 81.7625 107.667 81.7249 109.569L81.8424 109.378C82.5769 107.365 82.901 105.228 82.7962 103.09Z" fill="black"/>
<path d="M79.2321 98.0343C79.0687 97.7433 78.989 97.4135 79.0019 97.0808L77.3715 96.8203L74.3739 98.7739C74.2946 98.8595 74.2267 98.9549 74.1719 99.0576C74.4444 102.504 81.7411 109.579 81.7411 109.579C81.7693 107.677 81.0504 100.709 79.2321 98.0343Z" fill="#455A64"/>
<path d="M79.3423 98.5658C79.2202 98.217 79.0698 97.1704 79.0698 94.4727H74.4559C74.4724 95.8485 74.3782 97.2234 74.174 98.5844C74.0284 99.0496 74.268 99.5612 74.907 99.924C75.4831 100.215 76.1207 100.367 76.7676 100.367C77.4144 100.367 78.0521 100.215 78.6282 99.924C79.2625 99.5426 79.4974 99.0356 79.3423 98.5658Z" fill="#455A64"/>
<path d="M78.3899 93.5181C77.881 93.2598 77.3173 93.125 76.7455 93.125C76.1736 93.125 75.6099 93.2598 75.101 93.5181C74.2036 94.0344 74.2083 94.8716 75.101 95.3786C75.606 95.6331 76.1647 95.7657 76.7314 95.7657C77.298 95.7657 77.8567 95.6331 78.3617 95.3786C79.2967 94.8716 79.292 94.0344 78.3899 93.5181Z" fill="#455A64"/>
<path opacity="0.3" d="M78.3899 93.5181C77.881 93.2598 77.3173 93.125 76.7455 93.125C76.1736 93.125 75.6099 93.2598 75.101 93.5181C74.2036 94.0344 74.2083 94.8716 75.101 95.3786C75.606 95.6331 76.1647 95.7657 76.7314 95.7657C77.298 95.7657 77.8567 95.6331 78.3617 95.3786C79.2967 94.8716 79.292 94.0344 78.3899 93.5181Z" fill="white"/>
<path d="M70.3806 101.006C66.8098 103.662 65.372 106.025 66.3117 128.793C67.773 130.137 71.0102 128.793 71.0102 128.793C70.6484 115.099 72.7205 110.188 71.4801 104.378C70.7048 101.155 70.3806 101.006 70.3806 101.006Z" fill="#C51F2C"/>
<path opacity="0.3" d="M70.3806 101.006C66.8098 103.662 65.372 106.025 66.3117 128.793C67.773 130.137 71.0102 128.793 71.0102 128.793C70.6484 115.099 72.7205 110.188 71.4801 104.378C70.7048 101.155 70.3806 101.006 70.3806 101.006Z" fill="black"/>
<path d="M115.126 139.152H114.797C114.281 138.185 113.48 137.396 112.499 136.892C109.018 134.901 103.394 134.901 99.9357 136.892C98.9547 137.397 98.1579 138.194 97.657 139.171H97.3516V140.492C97.3516 141.799 98.2349 143.101 99.9733 144.096C103.455 146.087 109.084 146.087 112.542 144.096C114.271 143.101 115.131 141.799 115.126 140.492V139.152Z" fill="#C51F2C"/>
<path opacity="0.2" d="M115.126 139.152H114.797C114.281 138.185 113.48 137.396 112.499 136.892C109.018 134.901 103.394 134.901 99.9357 136.892C98.9547 137.397 98.1579 138.194 97.657 139.171H97.3516V140.492C97.3516 141.799 98.2349 143.101 99.9733 144.096C103.455 146.087 109.084 146.087 112.542 144.096C114.271 143.101 115.131 141.799 115.126 140.492V139.152Z" fill="black"/>
<path d="M112.483 135.567C109.002 133.577 103.378 133.577 99.9195 135.567C96.4615 137.558 96.4756 140.786 99.9571 142.772C103.439 144.758 109.067 144.763 112.526 142.772C115.984 140.781 115.965 137.558 112.483 135.567Z" fill="#C51F2C"/>
<path opacity="0.3" d="M112.483 135.567C109.002 133.577 103.378 133.577 99.9195 135.567C96.4615 137.558 96.4756 140.786 99.9571 142.772C103.439 144.758 109.067 144.763 112.526 142.772C115.984 140.781 115.965 137.558 112.483 135.567Z" fill="white"/>
<path d="M107.559 114.998H105.003L104.867 139.185C104.879 139.303 104.922 139.416 104.992 139.513C105.062 139.609 105.157 139.685 105.267 139.734C105.564 139.885 105.893 139.964 106.227 139.964C106.562 139.964 106.891 139.885 107.188 139.734C107.298 139.687 107.393 139.611 107.463 139.514C107.532 139.417 107.574 139.303 107.583 139.185L107.559 114.998Z" fill="#C51F2C"/>
<path opacity="0.2" d="M107.559 114.998H105.003L104.867 139.185C104.879 139.303 104.922 139.416 104.992 139.513C105.062 139.609 105.157 139.685 105.267 139.734C105.564 139.885 105.893 139.964 106.227 139.964C106.562 139.964 106.891 139.885 107.188 139.734C107.298 139.687 107.393 139.611 107.463 139.514C107.532 139.417 107.574 139.303 107.583 139.185L107.559 114.998Z" fill="black"/>
<path opacity="0.2" d="M107.564 122.128V115.012H105.008L104.961 123.3C105.45 123.211 105.925 123.055 106.37 122.835C106.788 122.634 107.187 122.397 107.564 122.128Z" fill="black"/>
<path d="M102.336 116.357C102.336 116.357 101.669 118.757 99.7897 118.934C100.114 115.352 97.6941 105.724 100.523 100.328C100.937 99.5268 101.147 98.6366 101.132 97.7362C101.117 96.8358 100.879 95.9529 100.438 95.1652C100.039 94.4489 99.6299 93.914 99.3386 93.8535C97.0974 93.1047 95.2509 89.1464 97.3981 87.4998C100.217 85.0718 103.877 82.681 107.265 81.7461C108.205 81.5647 110.413 82.4019 110.201 85.4672C113.805 89.9697 112.833 91.9093 111.442 93.2302L111.296 95.8164C111.241 96.8197 111.46 97.8192 111.931 98.7095C114.787 104.166 112.978 113.654 114.045 118.171C107.848 121.394 101.669 121.045 102.336 116.357Z" fill="#455A64"/>
<path d="M111.903 98.7199C111.731 98.3821 111.592 98.0285 111.489 97.6641C109.996 98.7617 108.251 99.4752 106.411 99.7407C104.571 100.006 102.693 99.8152 100.946 99.1851C100.847 99.5765 100.703 99.9557 100.518 100.315C97.6991 105.72 100.109 115.348 99.7852 118.921C101.665 118.744 102.332 116.344 102.332 116.344C101.665 121.018 107.843 121.381 114.017 118.144C112.95 113.641 114.759 104.153 111.903 98.7199Z" fill="#C51F2C"/>
<path d="M106.728 99.6832C108.455 99.3769 110.088 98.6779 111.497 97.6413C111.329 97.0658 111.254 96.4677 111.276 95.8691C109.839 96.9281 108.167 97.631 106.4 97.9191C104.633 98.2072 102.821 98.0721 101.118 97.525C101.15 98.0851 101.094 98.6469 100.953 99.1902C102.803 99.8445 104.792 100.014 106.728 99.6832Z" fill="#C51F2C"/>
<path d="M106.524 97.8968C108.242 97.5903 109.866 96.8963 111.269 95.8688C111.272 95.8472 111.272 95.8253 111.269 95.8037L111.415 93.2176C112.825 91.8966 113.764 89.9616 110.175 85.4545C109.072 84.2078 107.899 83.0244 106.66 81.9102C106.247 82.045 105.824 82.2032 105.401 82.3753C106.26 83.0586 106.995 83.883 107.572 84.8126C107.836 85.1969 108.008 85.6361 108.075 86.0964C108.1 86.7074 107.888 87.305 107.483 87.7662C106.907 88.4718 106.076 88.9276 105.166 89.0371C104.257 89.1465 103.34 88.9008 102.61 88.3523C101.562 87.5662 100.975 86.2173 99.8945 85.5242C99.5656 85.7615 99.2414 85.9894 98.9219 86.2452C100.093 87.157 100.986 88.3727 101.501 89.757C101.785 90.5246 101.89 91.3457 101.809 92.1591C101.727 92.9725 101.462 93.7572 101.031 94.4548C100.868 94.7029 100.659 94.9189 100.416 95.092L100.454 95.1572C100.859 95.8847 101.09 96.6947 101.13 97.5247C102.872 98.0741 104.722 98.2017 106.524 97.8968Z" fill="#C51F2C"/>
<path opacity="0.3" d="M111.903 98.7199C111.731 98.3821 111.592 98.0285 111.489 97.6641C109.996 98.7617 108.251 99.4752 106.411 99.7407C104.571 100.006 102.693 99.8152 100.946 99.1851C100.847 99.5765 100.703 99.9557 100.518 100.315C97.6991 105.72 100.109 115.348 99.7852 118.921C101.665 118.744 102.332 116.344 102.332 116.344C101.665 121.018 107.843 121.381 114.017 118.144C112.95 113.641 114.759 104.153 111.903 98.7199Z" fill="black"/>
<path opacity="0.4" d="M106.728 99.6832C108.455 99.3769 110.088 98.6779 111.497 97.6413C111.329 97.0658 111.254 96.4677 111.276 95.8691C109.839 96.9281 108.167 97.631 106.4 97.9191C104.633 98.2072 102.821 98.0721 101.118 97.525C101.15 98.0851 101.094 98.6469 100.953 99.1902C102.803 99.8445 104.792 100.014 106.728 99.6832Z" fill="black"/>
<path opacity="0.3" d="M106.524 97.8968C108.242 97.5903 109.866 96.8963 111.269 95.8688C111.272 95.8472 111.272 95.8253 111.269 95.8037L111.415 93.2176C112.825 91.8966 113.764 89.9616 110.175 85.4545C109.072 84.2078 107.899 83.0244 106.66 81.9102C106.247 82.045 105.824 82.2032 105.401 82.3753C106.26 83.0586 106.995 83.883 107.572 84.8126C107.836 85.1969 108.008 85.6361 108.075 86.0964C108.1 86.7074 107.888 87.305 107.483 87.7662C106.907 88.4718 106.076 88.9276 105.166 89.0371C104.257 89.1465 103.34 88.9008 102.61 88.3523C101.562 87.5662 100.975 86.2173 99.8945 85.5242C99.5656 85.7615 99.2414 85.9894 98.9219 86.2452C100.093 87.157 100.986 88.3727 101.501 89.757C101.785 90.5246 101.89 91.3457 101.809 92.1591C101.727 92.9725 101.462 93.7572 101.031 94.4548C100.868 94.7029 100.659 94.9189 100.416 95.092L100.454 95.1572C100.859 95.8847 101.09 96.6947 101.13 97.5247C102.872 98.0741 104.722 98.2017 106.524 97.8968Z" fill="black"/>
<path d="M106.672 85.851C106.55 85.5021 106.4 84.4556 106.4 81.7578H101.781C101.797 83.1335 101.705 84.5083 101.504 85.8696C101.354 86.3347 101.598 86.8464 102.237 87.2092C102.813 87.5003 103.451 87.6521 104.097 87.6521C104.744 87.6521 105.382 87.5003 105.958 87.2092C106.606 86.8278 106.846 86.3208 106.672 85.851Z" fill="#455A64"/>
<path d="M105.734 80.8032C105.228 80.5487 104.668 80.416 104.101 80.416C103.533 80.416 102.974 80.5487 102.468 80.8032C101.571 81.3195 101.575 82.1567 102.468 82.6637C102.974 82.9182 103.533 83.0509 104.101 83.0509C104.668 83.0509 105.228 82.9182 105.734 82.6637C106.645 82.1567 106.64 81.3195 105.734 80.8032Z" fill="#455A64"/>
<path opacity="0.3" d="M105.734 80.8032C105.228 80.5487 104.668 80.416 104.101 80.416C103.533 80.416 102.974 80.5487 102.468 80.8032C101.571 81.3195 101.575 82.1567 102.468 82.6637C102.974 82.9182 103.533 83.0509 104.101 83.0509C104.668 83.0509 105.228 82.9182 105.734 82.6637C106.645 82.1567 106.64 81.3195 105.734 80.8032Z" fill="white"/>
<path d="M137.195 35.2745L147.734 46.3354L153.461 43.0609L142.923 32L137.195 35.2745Z" fill="#C51F2C"/>
<path d="M131.469 38.5499L142.007 49.6108L147.735 46.3363L137.196 35.2754L131.469 38.5499Z" fill="white"/>
<path d="M125.742 41.8234L136.281 52.8796L142.008 49.6097L131.47 38.5488L125.742 41.8234Z" fill="#C51F2C"/>
<path d="M79.9141 68.0167L90.4575 79.0776L96.1849 75.8031L85.6462 64.7422L79.9141 68.0167Z" fill="#C51F2C"/>
<path d="M74.1875 71.2902L84.7262 82.3464L90.4583 79.0765L79.9149 68.0156L74.1875 71.2902Z" fill="white"/>
<path d="M68.4609 74.5656L78.9996 85.6218L84.7271 82.3472L74.1884 71.291L68.4609 74.5656Z" fill="#C51F2C"/>
<path d="M62.7344 77.8409L73.2731 88.8972L79.0005 85.6226L68.4618 74.5664L62.7344 77.8409Z" fill="white"/>
<path d="M57.0078 81.1124L67.5465 92.1687L73.2739 88.8941L62.7353 77.8379L57.0078 81.1124Z" fill="#C51F2C"/>
<path d="M143.028 143.202L142.979 143.17C142.961 143.152 142.947 143.13 142.937 143.107C142.927 143.084 142.922 143.058 142.922 143.033C142.922 143.008 142.927 142.982 142.937 142.959C142.947 142.936 142.961 142.914 142.979 142.896L146.173 139.649C147.045 138.732 148.041 137.698 149.421 137.602C149.655 137.598 149.885 137.662 150.083 137.786C150.281 137.91 150.438 138.088 150.536 138.298C150.62 138.442 150.657 138.607 150.643 138.772C150.628 138.937 150.563 139.093 150.455 139.22L147.25 142.736C147.233 142.754 147.211 142.769 147.187 142.779C147.164 142.789 147.138 142.795 147.112 142.795C147.086 142.795 147.061 142.789 147.037 142.779C147.013 142.769 146.992 142.754 146.974 142.736C146.939 142.7 146.92 142.652 146.92 142.602C146.92 142.552 146.939 142.504 146.974 142.468L150.179 138.947C150.228 138.873 150.254 138.786 150.254 138.698C150.254 138.609 150.228 138.523 150.179 138.448C150.114 138.307 150.009 138.187 149.878 138.101C149.747 138.016 149.594 137.969 149.437 137.966C148.187 138.052 147.272 138.99 146.422 139.895L146.168 140.158L143.277 143.17C143.247 143.204 143.204 143.226 143.159 143.232C143.113 143.238 143.066 143.227 143.028 143.202Z" fill="#455A64"/>
<path d="M151.91 142.537L152.349 140.945L139.075 141.728L128 156.063L131.876 161.288L146.643 160.355L152.89 143.014L151.91 142.537Z" fill="#455A64"/>
<path opacity="0.3" d="M151.91 142.537L152.349 140.945L139.075 141.728L128 156.063L131.876 161.288L146.643 160.355L152.89 143.014L151.91 142.537Z" fill="white"/>
<path opacity="0.2" d="M141.274 142.633L131.633 157.172L131.876 161.287L141.274 142.633Z" fill="black"/>
<path opacity="0.1" d="M128 156.062L131.632 157.172L131.876 161.287L128 156.062Z" fill="black"/>
<path opacity="0.3" d="M139.078 141.728L152.351 140.945L151.166 142.167L152.893 143.014L140.632 143.909L141.276 142.633L139.078 141.728Z" fill="black"/>
<path opacity="0.2" d="M151.166 142.166L150.836 143.163L152.893 143.013L151.166 142.166Z" fill="black"/>
<path d="M144.474 145.052C144.451 145.041 144.431 145.026 144.415 145.007C144.398 144.988 144.385 144.967 144.377 144.943C144.369 144.92 144.366 144.895 144.368 144.871C144.369 144.846 144.376 144.822 144.387 144.8L146.628 140.325C146.961 139.66 147.464 139.093 148.087 138.68C148.71 138.267 149.431 138.023 150.179 137.972C150.376 137.949 150.575 137.98 150.755 138.061C150.936 138.142 151.09 138.27 151.201 138.432C151.313 138.594 151.378 138.783 151.388 138.979C151.399 139.175 151.355 139.37 151.262 139.543L148.755 144.548C148.732 144.592 148.693 144.625 148.645 144.641C148.598 144.657 148.546 144.654 148.501 144.634C148.478 144.623 148.457 144.607 148.44 144.588C148.423 144.569 148.41 144.547 148.402 144.523C148.394 144.499 148.391 144.474 148.393 144.449C148.395 144.423 148.402 144.399 148.414 144.376L150.915 139.371C150.972 139.26 150.999 139.136 150.991 139.011C150.984 138.887 150.943 138.766 150.873 138.663C150.803 138.559 150.706 138.476 150.593 138.421C150.479 138.367 150.353 138.343 150.228 138.353C149.545 138.399 148.885 138.621 148.316 138.997C147.746 139.373 147.285 139.89 146.98 140.496L144.744 144.966C144.733 144.99 144.717 145.012 144.698 145.03C144.678 145.048 144.654 145.061 144.628 145.069C144.603 145.077 144.576 145.08 144.549 145.077C144.522 145.074 144.497 145.065 144.474 145.052Z" fill="#455A64"/>
<path d="M155.368 103.895C151.005 104.998 149.544 108.718 148.943 112.469C148.554 115.086 148.297 117.72 148.174 120.363C146.956 124.301 146.767 131.616 146.123 133.567C145.478 135.518 144.553 137.318 145.673 138.722C146.034 139.282 146.526 139.747 147.108 140.078C147.41 140.197 147.734 140.255 148.059 140.247C148.385 140.24 148.706 140.168 149.002 140.035C149.458 139.788 149.847 139.436 150.135 139.007C150.422 138.579 150.6 138.087 150.653 137.575C150.75 136.554 150.675 135.524 150.431 134.526C150.186 133.529 150.105 132.499 150.193 131.477C150.957 126.064 152.489 118.321 153.474 112.946L155.368 103.895Z" fill="#FFA8A7"/>
<path d="M144.648 144.835H144.588C144.564 144.827 144.541 144.815 144.521 144.799C144.502 144.783 144.486 144.763 144.474 144.74C144.462 144.718 144.455 144.693 144.454 144.668C144.452 144.643 144.455 144.617 144.464 144.594L145.866 140.28C146.239 139.074 146.667 137.713 147.874 137.011C148.082 136.905 148.316 136.861 148.549 136.885C148.782 136.909 149.002 136.999 149.184 137.145C149.323 137.237 149.431 137.369 149.492 137.523C149.553 137.677 149.564 137.846 149.525 138.007L148.231 142.568C148.227 142.595 148.217 142.62 148.202 142.643C148.187 142.666 148.167 142.685 148.144 142.7C148.121 142.714 148.095 142.724 148.068 142.728C148.041 142.732 148.013 142.731 147.987 142.723C147.961 142.716 147.936 142.703 147.915 142.686C147.894 142.669 147.877 142.648 147.864 142.623C147.852 142.599 147.845 142.572 147.844 142.545C147.843 142.518 147.848 142.491 147.858 142.466L149.151 137.9C149.167 137.813 149.156 137.722 149.119 137.641C149.083 137.56 149.022 137.492 148.946 137.445C148.825 137.345 148.678 137.283 148.523 137.265C148.367 137.246 148.209 137.274 148.069 137.343C146.986 137.965 146.602 139.197 146.234 140.392L146.12 140.74L144.832 144.711C144.817 144.748 144.792 144.78 144.759 144.802C144.726 144.824 144.687 144.835 144.648 144.835Z" fill="#455A64"/>
<path d="M142.814 146.524L142.766 165.939L155.579 158.619L153.397 140.334L142.814 146.524Z" fill="#C51F2C"/>
<path d="M142.813 146.525V145.094L140.442 145.255L136.945 162.966L142.765 165.94L142.813 146.525Z" fill="#C51F2C"/>
<path d="M142.82 145.094L140.703 162.36L142.771 165.94L142.82 145.094Z" fill="#C51F2C"/>
<path opacity="0.2" d="M142.82 145.094L140.703 162.36L142.771 165.94L142.82 145.094Z" fill="black"/>
<path d="M136.945 162.965L140.697 162.359L142.765 165.939L136.945 162.965Z" fill="#C51F2C"/>
<path opacity="0.1" d="M136.945 162.965L140.697 162.359L142.765 165.939L136.945 162.965Z" fill="black"/>
<path d="M140.445 145.253L151.986 138.715L151.472 140.333H153.399L142.816 146.523V145.092L140.445 145.253Z" fill="#C51F2C"/>
<path opacity="0.3" d="M140.445 145.253L151.986 138.715L151.472 140.333H153.399L142.816 146.523V145.092L140.445 145.253Z" fill="black"/>
<path d="M151.469 140.334L151.62 141.368L153.396 140.334H151.469Z" fill="#C51F2C"/>
<path opacity="0.2" d="M151.469 140.334L151.62 141.368L153.396 140.334H151.469Z" fill="black"/>
<path d="M151.983 138.715L152.302 140.333H151.469L151.983 138.715Z" fill="#C51F2C"/>
<path d="M146.773 145.85C146.722 145.85 146.673 145.831 146.637 145.796C146.601 145.761 146.58 145.713 146.578 145.663V140.668C146.582 139.926 146.779 139.198 147.152 138.555C147.525 137.911 148.06 137.375 148.706 136.997C148.872 136.894 149.063 136.838 149.26 136.834C149.456 136.831 149.65 136.88 149.82 136.977C149.99 137.074 150.13 137.214 150.226 137.384C150.321 137.554 150.368 137.746 150.362 137.94V143.524C150.354 143.569 150.331 143.61 150.296 143.64C150.26 143.669 150.216 143.685 150.17 143.685C150.124 143.685 150.079 143.669 150.044 143.64C150.009 143.61 149.985 143.569 149.978 143.524V137.946C149.978 137.82 149.945 137.697 149.881 137.589C149.817 137.48 149.726 137.391 149.615 137.33C149.507 137.265 149.384 137.231 149.258 137.231C149.132 137.231 149.008 137.265 148.9 137.33C148.312 137.671 147.823 138.158 147.484 138.744C147.144 139.33 146.964 139.993 146.962 140.668V145.663C146.962 145.712 146.943 145.76 146.907 145.795C146.871 145.83 146.823 145.85 146.773 145.85Z" fill="#455A64"/>
<path d="M167.161 123.729C171.92 135.379 167.616 143.969 162.62 155.416C165.651 158.026 170.62 163.701 175.216 173.636C175.216 173.636 175.216 176.058 171.855 175.903C171.259 174.997 159.22 163.653 159.22 163.653L151.782 182.441C151.782 182.441 149.92 183.625 147.625 181.015C147.625 181.015 151.414 159.044 152.822 153.728C150.656 148.503 147.609 139.398 152.14 123.82L167.161 123.729Z" fill="#FFA8A7"/>
<path opacity="0.2" d="M153.231 152.328C155.061 143.786 156.842 138.047 156.842 138.047C153.68 136.059 152.766 134.156 152.766 134.156C153.027 136.03 153.993 137.738 155.472 138.936C154.065 143.808 153.231 152.328 153.231 152.328Z" fill="black"/>
<path opacity="0.2" d="M159.219 163.669C159.922 161.702 160.756 159.96 160.756 159.96L162.618 155.416C162.618 155.416 160.55 163.535 160.123 164.526L159.219 163.669Z" fill="black"/>
<path d="M142.974 190.072C145.248 190.184 147.765 187.928 148.885 187.119C150.006 186.31 150.747 186.363 151.283 183.866L151.781 182.457L147.608 181.031L147.126 183.459C147.027 183.947 146.77 184.391 146.395 184.724L142.931 187.784C142.401 188.265 141.818 188.686 141.193 189.037L141.079 189.096C141.052 189.541 141.437 190.002 142.974 190.072Z" fill="#FFA8A7"/>
<path d="M151.283 183.867C150.742 186.364 150.011 186.338 148.885 187.12C147.759 187.902 145.247 190.185 142.974 190.073C141.437 190.003 141.052 189.537 141.095 189.098L139.472 189.998C139.257 190.114 139.073 190.278 138.934 190.477C138.795 190.676 138.705 190.904 138.671 191.144C138.637 191.384 138.661 191.628 138.74 191.857C138.819 192.086 138.951 192.293 139.125 192.463C139.714 192.939 140.444 193.212 141.204 193.24C142.652 193.358 144.098 192.998 145.318 192.216C146.281 191.589 147.088 190.7 148.149 190.255C148.735 190.055 149.331 189.887 149.935 189.751C150.543 189.614 151.094 189.294 151.511 188.835C151.927 188.227 152.106 187.49 152.014 186.761C151.965 185.758 151.717 184.775 151.283 183.867Z" fill="#37474F"/>
<path d="M172.904 184.156C173.092 184.246 173.299 184.292 173.508 184.292C173.717 184.292 173.923 184.246 174.111 184.156C174.49 183.979 174.829 183.728 175.108 183.419C175.387 183.109 175.6 182.748 175.735 182.355C176.018 181.488 176.184 180.587 176.228 179.676C176.287 179.06 176.352 178.443 176.412 177.827C176.504 177.242 176.52 176.648 176.46 176.059C176.399 175.573 176.149 175.131 175.762 174.826L174.728 172.586L171.312 175.324L172.309 176.353C172.681 176.734 172.887 177.244 172.882 177.773L172.855 182.173C172.854 182.653 172.729 183.126 172.493 183.545C172.511 183.671 172.557 183.791 172.628 183.897C172.7 184.002 172.794 184.091 172.904 184.156Z" fill="#FFA8A7"/>
<path d="M177.842 176.395C177.713 175.945 177.438 175.548 177.06 175.266C176.681 174.985 176.22 174.833 175.747 174.836C176.133 175.141 176.384 175.583 176.445 176.069C176.51 176.554 176.51 177.046 176.445 177.532L176.201 179.954C176.156 180.776 176 181.589 175.736 182.371C175.601 182.763 175.387 183.125 175.108 183.434C174.829 183.743 174.491 183.994 174.112 184.171C173.924 184.261 173.717 184.308 173.508 184.308C173.299 184.308 173.093 184.261 172.905 184.171C172.793 184.105 172.698 184.015 172.627 183.907C172.556 183.799 172.51 183.677 172.493 183.55C172.34 183.832 172.143 184.089 171.909 184.311C171.769 184.438 171.637 184.574 171.514 184.718C171.338 184.9 171.22 185.129 171.176 185.377C171.132 185.625 171.162 185.881 171.265 186.111C171.423 186.329 171.63 186.507 171.869 186.632C172.109 186.758 172.374 186.827 172.645 186.835C173.435 186.982 174.248 186.966 175.032 186.786C175.423 186.695 175.791 186.528 176.116 186.295C176.441 186.063 176.717 185.769 176.927 185.431C177.218 184.818 177.377 184.152 177.392 183.475L177.825 178.764C177.869 178.282 177.907 177.799 177.917 177.312C177.933 177.004 177.907 176.696 177.842 176.395Z" fill="#37474F"/>
<path d="M167.744 104.628C165.579 103.958 160.961 103.454 155.369 103.894C155.12 105.228 153.891 106.573 152.89 107.473C151.827 108.329 150.811 109.241 149.848 110.206C148.949 111.225 148.289 112.564 148.478 113.904C148.558 114.388 148.743 114.848 149.02 115.255C149.74 116.381 150.214 117.644 150.411 118.963C150.817 121.353 151.418 123.684 151.418 123.684C149.063 131.015 147.953 145.066 147.953 145.066C154.238 150.779 163.11 149.798 166.423 144.622C168.047 147.671 170.532 148.239 172.194 148.684C172.351 141.283 171.652 133.036 169.427 127.344C167.842 123.296 167.218 118.942 167.603 114.617C167.909 111.296 167.956 107.956 167.744 104.628Z" fill="#455A64"/>
<path opacity="0.2" d="M163.173 114.451C162.784 115.047 162.28 115.56 161.689 115.961C161.098 116.362 160.433 116.643 159.731 116.788C159.03 116.932 158.306 116.938 157.603 116.803C156.899 116.669 156.23 116.398 155.633 116.005C156.084 116.706 156.729 117.264 157.491 117.612C158.253 117.961 159.099 118.086 159.931 117.972C161.598 117.688 162.767 116.075 163.173 114.451Z" fill="black"/>
<path d="M152.862 95.8721C152.035 95.044 151.523 93.959 151.41 92.8003C151.298 91.6415 151.593 90.4797 152.245 89.5111C151.9 89.3677 151.609 89.12 151.415 88.8033C151.22 88.4867 151.132 88.1173 151.162 87.748C151.202 87.381 151.36 87.0364 151.613 86.7645C151.865 86.4927 152.198 86.3077 152.564 86.2367C153.196 86.2031 153.828 86.2904 154.426 86.494C155.486 86.6815 156.571 86.6815 157.631 86.494C158.714 86.3439 159.747 86.1135 160.819 86.0385C161.892 85.9214 162.977 86.0725 163.975 86.4779C164.471 86.6855 164.913 87.0025 165.267 87.4046C165.62 87.8067 165.877 88.2833 166.016 88.7983C166.458 88.7349 166.909 88.7917 167.321 88.9625C167.733 89.1334 168.09 89.4119 168.355 89.7683C168.854 90.4613 169.123 91.2911 169.123 92.1423C169.156 92.989 169.037 93.8303 168.993 94.6771C168.912 95.523 169.023 96.3762 169.318 97.1743C169.702 98.0853 170.466 98.8302 170.709 99.7895C170.822 100.233 170.816 100.697 170.692 101.137C170.569 101.578 170.331 101.978 170.003 102.3C169.676 102.622 169.269 102.854 168.823 102.973C168.377 103.091 167.908 103.093 167.461 102.978C167.645 102.31 167.727 101.618 167.705 100.926C167.624 101.853 166.687 102.581 165.799 102.892C164.891 103.149 163.941 103.232 163.001 103.139L159.683 103.005L155.817 102.855C155.128 102.872 154.442 102.755 153.798 102.512C153.262 102.223 152.813 101.798 152.496 101.282C152.179 100.765 152.007 100.174 151.996 99.5698C152.012 98.2899 152.308 97.0286 152.862 95.8721Z" fill="#263238"/>
<path d="M157.798 101.621L157.966 104.413C157.514 104.745 157.144 105.174 156.883 105.667C156.758 105.907 156.72 106.183 156.774 106.448C156.828 106.713 156.972 106.951 157.181 107.125C157.486 107.291 157.838 107.353 158.183 107.302C160.003 107.169 161.713 106.391 163 105.11C163.286 104.824 163.449 104.44 163.455 104.038L163.558 98.8184L157.798 101.621Z" fill="#FFA8A7"/>
<path opacity="0.2" d="M163.167 99.0156L157.797 101.62L157.889 103.046C159.045 102.881 160.139 102.424 161.063 101.718C161.988 101.012 162.713 100.081 163.167 99.0156Z" fill="black"/>
<path d="M162.465 94.8915C162.388 95.3266 162.368 95.7697 162.405 96.2098C162.452 96.5418 162.606 96.85 162.844 97.0887C162.96 97.2016 163.102 97.2846 163.257 97.3304C163.413 97.3762 163.578 97.3834 163.737 97.3513C163.67 96.9258 163.766 96.4907 164.008 96.1325C164.249 95.7743 164.618 95.5192 165.041 95.4179C165.464 95.3166 165.91 95.3766 166.29 95.5858C166.67 95.7951 166.957 96.1384 167.093 96.5474C167.167 96.8532 167.172 97.171 167.11 97.479C167.047 97.7871 166.918 98.0781 166.731 98.3319C166.347 98.8357 165.85 99.2447 165.28 99.527C164.954 99.6329 164.601 99.6229 164.282 99.4986C163.963 99.3744 163.697 99.1437 163.531 98.8464C161.848 100.963 158.909 102.549 156.153 102.319C155.399 102.281 154.671 102.028 154.058 101.59C153.019 100.792 152.943 99.5859 152.808 98.4016C152.615 96.8956 152.627 95.3706 152.846 93.868C153.117 91.763 154.139 89.823 155.726 88.3965C156.695 92.9033 160.868 94.5593 162.465 94.8915Z" fill="#FFA8A7"/>
<path d="M156.733 94.3828L154.844 96.6818L156.598 97.2766L156.733 94.3828Z" fill="#F28F8F"/>
<path d="M158.215 98.4004L156.742 98.8559C156.837 99.0269 156.986 99.1627 157.165 99.2429C157.345 99.3231 157.546 99.3434 157.738 99.3007C157.91 99.2271 158.05 99.0976 158.137 98.9338C158.224 98.77 158.251 98.5818 158.215 98.4004Z" fill="#F28F8F"/>
<path opacity="0.3" d="M158.215 98.4004L156.742 98.8559C156.837 99.0269 156.986 99.1627 157.165 99.2429C157.345 99.3231 157.546 99.3434 157.738 99.3007C157.91 99.2271 158.05 99.0976 158.137 98.9338C158.224 98.77 158.251 98.5818 158.215 98.4004Z" fill="black"/>
<path d="M157.25 99.2793C157.407 99.3244 157.574 99.3244 157.732 99.2793C157.869 99.2291 157.987 99.1394 158.072 99.022C158.157 98.9045 158.204 98.7646 158.208 98.6202C157.996 98.5862 157.78 98.6332 157.602 98.7516C157.424 98.87 157.298 99.051 157.25 99.2579V99.2793Z" fill="#F28F8F"/>
<path d="M159.326 94.8577C159.29 94.9701 159.217 95.0676 159.119 95.1351C159.022 95.2025 158.904 95.2361 158.785 95.2306C158.666 95.2251 158.552 95.1808 158.461 95.1047C158.37 95.0285 158.307 94.9247 158.281 94.8094C158.292 94.6749 158.354 94.5493 158.454 94.4579C158.555 94.3665 158.686 94.316 158.823 94.3164C158.96 94.326 159.089 94.3874 159.183 94.488C159.277 94.5886 159.328 94.7209 159.326 94.8577Z" fill="#263238"/>
<path d="M154.949 94.4946C154.914 94.6096 154.842 94.7098 154.743 94.7793C154.645 94.8487 154.525 94.8835 154.404 94.8779C154.283 94.8724 154.168 94.8268 154.076 94.7486C153.984 94.6704 153.922 94.564 153.898 94.4464C153.933 94.3315 154.005 94.2312 154.104 94.1618C154.202 94.0923 154.322 94.0575 154.443 94.0631C154.564 94.0686 154.679 94.1142 154.771 94.1924C154.863 94.2706 154.925 94.377 154.949 94.4946Z" fill="#263238"/>
<path d="M154.532 92.4092L153.336 93.1541C153.292 93.0093 153.295 92.8549 153.342 92.7113C153.389 92.5678 153.48 92.4419 153.601 92.3503C153.747 92.2742 153.911 92.2394 154.075 92.2498C154.239 92.2603 154.397 92.3154 154.532 92.4092Z" fill="#263238"/>
<path d="M159.016 92.5478L160.136 93.3945C160.194 93.2543 160.206 93.1 160.172 92.9524C160.139 92.8048 160.06 92.6711 159.947 92.5693C159.809 92.4807 159.649 92.4318 159.484 92.428C159.32 92.4242 159.158 92.4657 159.016 92.5478Z" fill="#263238"/>
<path d="M166.599 145.765C166.58 145.77 166.559 145.77 166.54 145.765C166.516 145.758 166.494 145.746 166.474 145.73C166.455 145.714 166.439 145.695 166.428 145.673C166.416 145.651 166.409 145.627 166.407 145.602C166.405 145.578 166.408 145.553 166.415 145.529L167.817 141.21C168.191 140.01 168.618 138.643 169.825 137.946C170.033 137.839 170.267 137.793 170.5 137.816C170.733 137.839 170.954 137.929 171.135 138.075C171.274 138.168 171.381 138.3 171.442 138.454C171.503 138.608 171.515 138.777 171.476 138.938L170.183 143.498C170.169 143.547 170.137 143.588 170.092 143.612C170.048 143.637 169.996 143.643 169.947 143.63C169.898 143.616 169.857 143.584 169.832 143.54C169.807 143.497 169.801 143.445 169.815 143.396L171.103 138.836C171.123 138.742 171.112 138.644 171.072 138.557C171.032 138.469 170.965 138.396 170.881 138.348C170.759 138.251 170.613 138.19 170.457 138.172C170.302 138.154 170.145 138.18 170.004 138.247C168.921 138.874 168.543 140.106 168.169 141.296L168.061 141.644L166.767 145.62C166.758 145.659 166.737 145.694 166.707 145.72C166.677 145.746 166.639 145.762 166.599 145.765Z" fill="#455A64"/>
<path d="M164.775 147.451L164.727 166.872L177.54 159.546L175.358 141.262L164.775 147.451Z" fill="#C51F2C"/>
<path d="M164.774 147.453V146.027L162.403 146.183L158.906 163.894L164.725 166.874L164.774 147.453Z" fill="#C51F2C"/>
<path d="M164.773 146.027L162.656 163.294L164.724 166.874L164.773 146.027Z" fill="#C51F2C"/>
<path opacity="0.2" d="M164.773 146.027L162.656 163.294L164.724 166.874L164.773 146.027Z" fill="black"/>
<path d="M158.906 163.893L162.658 163.293L164.725 166.873L158.906 163.893Z" fill="#C51F2C"/>
<path opacity="0.1" d="M158.906 163.893L162.658 163.293L164.725 166.873L158.906 163.893Z" fill="black"/>
<path d="M162.398 146.182L173.939 139.645L173.431 141.263H175.352L164.769 147.452V146.027L162.398 146.182Z" fill="#C51F2C"/>
<path opacity="0.3" d="M162.398 146.182L173.939 139.645L173.431 141.263H175.352L164.769 147.452V146.027L162.398 146.182Z" fill="black"/>
<path d="M173.43 141.262L173.576 142.301L175.351 141.262H173.43Z" fill="#C51F2C"/>
<path opacity="0.2" d="M173.43 141.262L173.576 142.301L175.351 141.262H173.43Z" fill="black"/>
<path d="M173.939 139.645L174.263 141.263H173.43L173.939 139.645Z" fill="#C51F2C"/>
<path d="M168.718 146.788C168.693 146.788 168.667 146.783 168.644 146.773C168.62 146.763 168.599 146.749 168.581 146.731C168.562 146.713 168.548 146.692 168.538 146.669C168.528 146.645 168.523 146.62 168.523 146.595V141.606C168.527 140.864 168.725 140.136 169.098 139.492C169.471 138.849 170.006 138.312 170.651 137.935C170.817 137.832 171.008 137.776 171.204 137.772C171.399 137.768 171.593 137.817 171.763 137.913C171.932 138.009 172.073 138.149 172.169 138.318C172.265 138.487 172.313 138.679 172.307 138.872V144.456C172.312 144.484 172.311 144.512 172.303 144.54C172.296 144.567 172.282 144.592 172.264 144.613C172.246 144.634 172.223 144.652 172.197 144.663C172.171 144.675 172.143 144.681 172.115 144.681C172.087 144.681 172.059 144.675 172.033 144.663C172.007 144.652 171.985 144.634 171.966 144.613C171.948 144.592 171.935 144.567 171.927 144.54C171.92 144.512 171.918 144.484 171.923 144.456V138.883C171.924 138.758 171.891 138.636 171.828 138.527C171.765 138.419 171.675 138.329 171.566 138.267C171.456 138.205 171.332 138.172 171.206 138.172C171.079 138.172 170.955 138.205 170.846 138.267C170.257 138.609 169.768 139.098 169.428 139.684C169.088 140.271 168.909 140.935 168.908 141.611V146.6C168.906 146.649 168.886 146.696 168.851 146.731C168.816 146.766 168.768 146.786 168.718 146.788Z" fill="#455A64"/>
<path d="M168.835 147.608H168.776C168.725 147.609 168.676 147.591 168.638 147.557C168.601 147.523 168.578 147.476 168.576 147.425L168.337 142.902C168.256 141.643 168.17 140.223 169.047 139.151C169.202 138.978 169.406 138.854 169.632 138.794C169.858 138.735 170.096 138.741 170.319 138.814C170.482 138.851 170.629 138.936 170.742 139.059C170.854 139.182 170.925 139.335 170.947 139.499L171.374 144.221C171.377 144.271 171.36 144.321 171.327 144.359C171.294 144.397 171.246 144.42 171.196 144.424C171.171 144.427 171.145 144.425 171.121 144.418C171.097 144.411 171.074 144.399 171.055 144.383C171.036 144.367 171.02 144.347 171.009 144.325C170.998 144.302 170.991 144.278 170.99 144.253L170.562 139.532C170.562 139.307 170.308 139.21 170.205 139.178C170.056 139.129 169.896 139.122 169.743 139.16C169.59 139.198 169.452 139.279 169.344 139.392C168.559 140.357 168.646 141.643 168.722 142.886L168.749 143.251L168.96 147.42C168.962 147.46 168.952 147.5 168.929 147.534C168.907 147.568 168.874 147.594 168.835 147.608Z" fill="#455A64"/>
<path d="M167.734 149.826L174.647 167.998L184.001 156.653L175.41 140.324L167.734 149.826Z" fill="#E0E0E0"/>
<path d="M167.731 149.827L167.222 148.492L165.062 149.473L168.143 167.259L174.644 167.999L167.731 149.827Z" fill="#E0E0E0"/>
<path d="M167.227 148.492L171.438 165.378L174.648 167.999L167.227 148.492Z" fill="#E0E0E0"/>
<path opacity="0.2" d="M167.227 148.492L171.438 165.378L174.648 167.999L167.227 148.492Z" fill="black"/>
<path d="M168.148 167.258L171.44 165.377L174.65 167.997L168.148 167.258Z" fill="#E0E0E0"/>
<path opacity="0.1" d="M168.148 167.258L171.44 165.377L174.65 167.997L168.148 167.258Z" fill="black"/>
<path d="M165.062 149.471L173.507 139.305L173.61 140.998L175.407 140.323L167.731 149.824L167.222 148.49L165.062 149.471Z" fill="#E0E0E0"/>
<path opacity="0.3" d="M165.062 149.471L173.507 139.305L173.61 140.998L175.407 140.323L167.731 149.824L167.222 148.49L165.062 149.471Z" fill="black"/>
<path d="M173.609 140.999L174.118 141.916L175.407 140.324L173.609 140.999Z" fill="#E0E0E0"/>
<path opacity="0.2" d="M173.609 140.999L174.118 141.916L175.407 140.324L173.609 140.999Z" fill="black"/>
<path d="M173.508 139.305L174.39 140.703L173.611 140.998L173.508 139.305Z" fill="#E0E0E0"/>
<path d="M171.194 147.817C171.146 147.835 171.092 147.833 171.046 147.811C170.999 147.79 170.963 147.752 170.945 147.705L169.158 143.037C168.895 142.342 168.819 141.592 168.937 140.859C169.054 140.127 169.362 139.437 169.83 138.857C169.948 138.703 170.107 138.584 170.289 138.512C170.471 138.44 170.669 138.418 170.862 138.449C171.055 138.48 171.237 138.562 171.387 138.687C171.536 138.811 171.649 138.974 171.713 139.157L173.716 144.377C173.734 144.424 173.733 144.476 173.713 144.522C173.692 144.568 173.655 144.604 173.608 144.623C173.584 144.633 173.559 144.637 173.533 144.636C173.508 144.636 173.482 144.63 173.459 144.62C173.436 144.609 173.415 144.594 173.398 144.575C173.381 144.557 173.367 144.535 173.359 144.511L171.356 139.291C171.313 139.176 171.241 139.073 171.146 138.994C171.051 138.915 170.937 138.863 170.815 138.841C170.69 138.823 170.563 138.837 170.445 138.882C170.327 138.927 170.223 139.002 170.143 139.098C169.718 139.626 169.437 140.254 169.33 140.921C169.223 141.588 169.292 142.271 169.532 142.903L171.324 147.571C171.333 147.595 171.337 147.621 171.335 147.648C171.333 147.674 171.326 147.699 171.314 147.722C171.302 147.746 171.285 147.766 171.264 147.782C171.243 147.799 171.219 147.811 171.194 147.817Z" fill="#455A64"/>
<path d="M171.249 141.91C171.957 141.911 172.647 141.687 173.217 141.272C173.787 140.856 174.207 140.27 174.416 139.6C174.893 137.954 175.201 136.265 175.336 134.557C175.655 131.213 176.115 127.055 176.37 124.82C176.487 123.762 176.426 122.692 176.191 121.653C175.011 116.482 173.593 111.825 172.629 108.883C172.308 107.901 171.744 107.015 170.987 106.305C170.23 105.596 169.306 105.085 168.299 104.821L167.357 104.574C166.187 106.97 166.566 110.314 166.566 110.314L170.843 123.341C170.729 126.76 171.861 133.041 171.238 134.665C171.028 135.075 170.738 135.44 170.383 135.736C169.9 136.189 169.495 136.716 169.181 137.296C168.915 137.79 168.611 138.263 168.272 138.711C168.225 138.774 168.192 138.845 168.174 138.921C168.157 138.997 168.155 139.076 168.169 139.153C168.183 139.23 168.213 139.303 168.257 139.368C168.3 139.433 168.357 139.488 168.423 139.531C168.516 139.591 168.626 139.623 168.737 139.623C168.849 139.623 168.958 139.591 169.051 139.531C169.529 139.213 169.943 138.812 170.274 138.346C170.053 139.681 169.251 139.954 168.753 139.954C168.625 139.961 168.501 140 168.393 140.069C168.284 140.137 168.196 140.233 168.136 140.345C168.04 140.535 168.003 140.749 168.03 140.96C168.057 141.171 168.147 141.369 168.288 141.529C168.389 141.644 168.514 141.735 168.654 141.798C168.794 141.861 168.946 141.894 169.1 141.894L171.249 141.91Z" fill="#FFA8A7"/>
<path d="M169.1 139.504C169.013 139.65 168.937 139.802 168.872 139.959C168.647 140.479 168.531 141.039 168.531 141.604V141.744C168.648 141.818 168.779 141.867 168.916 141.888V141.604C168.918 140.978 169.076 140.361 169.376 139.809C169.579 139.419 169.85 139.067 170.177 138.77C170.22 138.633 170.253 138.493 170.274 138.352C169.955 138.802 169.557 139.192 169.1 139.504Z" fill="#455A64"/>
</svg>
