<svg width="328" height="328" viewBox="0 0 328 328" fill="none" xmlns="http://www.w3.org/2000/svg">
<path d="M164.37 321.1C251.434 321.1 322.013 284.575 322.013 239.52C322.013 194.464 251.434 157.939 164.37 157.939C77.3059 157.939 6.72656 194.464 6.72656 239.52C6.72656 284.575 77.3059 321.1 164.37 321.1Z" fill="#F5F5F5"/>
<path d="M82.9087 282.992L54.2152 266.422C52.5949 265.49 52.5949 263.975 54.2152 263.043L214.778 170.449C215.686 169.989 216.689 169.75 217.707 169.75C218.724 169.75 219.728 169.989 220.636 170.449L249.336 187.019C250.95 187.951 250.95 189.466 249.336 190.398L88.7668 282.992C87.8587 283.452 86.8554 283.691 85.8377 283.691C84.8201 283.691 83.8167 283.452 82.9087 282.992Z" fill="#E0E0E0"/>
<path d="M237.007 223.952L233.471 221.892C225.369 217.215 212.577 216.985 204.961 221.381L191.605 229.075C191.379 229.206 191.214 229.421 191.146 229.673C191.078 229.925 191.114 230.194 191.244 230.42C191.375 230.646 191.59 230.811 191.842 230.879C192.094 230.947 192.363 230.911 192.589 230.781L205.919 223.086C212.99 218.999 224.903 219.229 232.461 223.591L236.029 225.658C239.506 227.665 241.421 230.25 241.421 233.005C241.421 235.76 239.506 238.345 236.029 240.352L187.164 268.56C179.6 272.929 167.3 272.922 159.736 268.56L145.501 260.353C137.4 255.676 124.214 255.676 116.112 260.353L112.544 262.4C108.26 264.873 105.898 268.166 105.898 271.663C105.898 274.89 107.945 277.849 111.665 279.994L124.404 287.354L119.156 290.444C116.762 291.855 116.775 294.144 119.156 295.535L128.767 301.104C128.852 301.133 128.927 301.188 128.979 301.262C129.032 301.336 129.06 301.424 129.06 301.514C129.06 301.605 129.032 301.693 128.979 301.766C128.927 301.84 128.852 301.895 128.767 301.924L127.966 302.377C127.573 302.6 127.573 302.967 127.966 303.197L129.206 303.912C129.426 304.025 129.67 304.084 129.918 304.084C130.165 304.084 130.41 304.025 130.63 303.912L134.972 301.419C135.194 301.309 135.437 301.252 135.684 301.252C135.931 301.252 136.175 301.309 136.396 301.419L144.268 306.011C144.488 306.121 144.73 306.179 144.976 306.179C145.222 306.179 145.465 306.121 145.685 306.011L146.931 305.289C147.325 305.066 147.325 304.699 146.931 304.469L139.059 299.877C138.666 299.648 138.666 299.281 139.059 299.057L142.09 297.306C142.309 297.193 142.552 297.134 142.798 297.134C143.045 297.134 143.288 297.193 143.507 297.306L151.418 301.865C151.637 301.978 151.88 302.038 152.127 302.038C152.373 302.038 152.616 301.978 152.835 301.865L154.095 301.104C154.18 301.075 154.255 301.02 154.308 300.946C154.36 300.873 154.389 300.785 154.389 300.694C154.389 300.604 154.36 300.516 154.308 300.442C154.255 300.368 154.18 300.313 154.095 300.284L146.223 295.692C146.137 295.663 146.063 295.608 146.01 295.534C145.957 295.461 145.929 295.373 145.929 295.282C145.929 295.192 145.957 295.104 146.01 295.03C146.063 294.956 146.137 294.901 146.223 294.872L150.159 292.616C150.244 292.586 150.319 292.531 150.372 292.458C150.424 292.384 150.453 292.296 150.453 292.206C150.453 292.115 150.424 292.027 150.372 291.953C150.319 291.88 150.244 291.825 150.159 291.796L148.912 291.081C148.692 290.967 148.448 290.908 148.201 290.908C147.953 290.908 147.709 290.967 147.489 291.081L146.249 291.796C146.028 291.905 145.784 291.963 145.537 291.963C145.29 291.963 145.047 291.905 144.825 291.796L132.67 284.776C132.066 284.468 131.397 284.307 130.718 284.307C130.04 284.307 129.371 284.468 128.767 284.776L126.346 286.2C126.263 286.092 126.161 286.001 126.044 285.931L112.721 278.243C109.638 276.458 107.939 274.11 107.939 271.61C107.939 268.881 110.005 266.126 113.6 264.053L117.169 261.987C124.732 257.625 137.032 257.625 144.589 261.987L158.746 270.272C166.854 274.949 180.033 274.949 188.141 270.272L237.007 242.064C241.12 239.689 243.383 236.475 243.383 233.011C243.383 229.548 241.12 226.32 237.007 223.952Z" fill="#E0E0E0"/>
<path d="M125.48 284.778C125.307 284.777 125.138 284.732 124.988 284.647L111.665 276.952C107.945 274.807 105.898 271.848 105.898 268.62C105.898 265.117 108.26 261.831 112.544 259.358L116.112 257.291C124.214 252.614 137.4 252.614 145.501 257.291L159.73 265.511C167.293 269.873 179.593 269.873 187.157 265.511L236.023 237.303C239.499 235.296 241.415 232.711 241.415 229.949C241.415 227.187 239.499 224.609 236.023 222.602L232.454 220.542C224.89 216.18 212.984 215.95 205.912 220.037L192.589 227.725C192.363 227.856 192.094 227.891 191.842 227.824C191.59 227.756 191.375 227.591 191.244 227.365C191.114 227.138 191.078 226.87 191.146 226.617C191.214 226.365 191.379 226.15 191.605 226.02L204.928 218.331C212.544 213.93 225.336 214.159 233.438 218.837L237.007 220.903C241.12 223.271 243.383 226.486 243.383 229.949C243.383 233.413 241.12 236.634 237.007 239.002L188.141 267.21C180.033 271.894 166.854 271.894 158.746 267.21L144.517 258.997C136.96 254.635 124.66 254.635 117.096 258.997L113.528 261.09C109.933 263.169 107.866 265.924 107.866 268.653C107.866 271.146 109.565 273.501 112.649 275.279L125.972 282.974C126.16 283.082 126.307 283.249 126.39 283.449C126.473 283.65 126.488 283.872 126.432 284.081C126.376 284.291 126.252 284.476 126.08 284.607C125.908 284.739 125.697 284.811 125.48 284.811V284.778Z" fill="#37474F"/>
<path d="M117.203 286.91V288.045C117.257 289.03 117.543 289.989 118.036 290.844C118.53 291.699 119.217 292.425 120.044 292.965L130.54 299.013L141.193 292.86V283.63L130.841 278.854C129.908 278.484 128.907 278.315 127.904 278.361C126.901 278.406 125.919 278.664 125.023 279.117L120.044 281.99C119.217 282.53 118.529 283.256 118.036 284.111C117.542 284.966 117.257 285.925 117.203 286.91Z" fill="#37474F"/>
<path d="M130.839 278.854C129.906 278.484 128.905 278.315 127.902 278.361C126.899 278.406 125.917 278.664 125.021 279.117L120.042 281.99C118.474 282.895 118.539 284.247 120.179 285.008L130.524 289.783L141.191 283.63L130.839 278.854Z" fill="#455A64"/>
<path opacity="0.1" d="M129.519 287.559C129.105 287.828 128.762 288.192 128.516 288.619C128.269 289.047 128.128 289.526 128.102 290.019V297.615L130.529 299.012L141.182 292.859V283.629L138.479 282.383L129.519 287.559Z" fill="black"/>
<path d="M142.094 282.042C141.934 281.97 141.757 281.941 141.582 281.958C141.407 281.975 141.24 282.038 141.097 282.14L130.601 288.195C130.187 288.464 129.842 288.827 129.594 289.255C129.347 289.682 129.204 290.162 129.177 290.655V299.682C129.159 299.859 129.188 300.037 129.262 300.199C129.335 300.36 129.451 300.499 129.597 300.6L130.909 301.368C131.07 301.444 131.248 301.474 131.425 301.457C131.601 301.44 131.77 301.375 131.913 301.269L142.409 295.221C142.821 294.951 143.164 294.587 143.41 294.16C143.657 293.733 143.799 293.253 143.826 292.761V283.728C143.843 283.552 143.814 283.375 143.742 283.214C143.669 283.052 143.556 282.913 143.413 282.81L142.094 282.042Z" fill="#37474F"/>
<path d="M131.947 288.964L142.443 282.909C143.224 282.456 143.86 282.823 143.86 283.729V292.762C143.833 293.254 143.691 293.733 143.444 294.16C143.198 294.588 142.855 294.951 142.443 295.222L131.947 301.27C131.16 301.723 130.523 301.355 130.523 300.45V291.424C130.55 290.93 130.693 290.45 130.94 290.023C131.188 289.595 131.533 289.232 131.947 288.964Z" fill="#455A64"/>
<path d="M142.806 295.785L134.133 290.779L133.195 291.324V297.477L141.861 302.482C142.063 302.627 142.301 302.716 142.549 302.739C142.796 302.762 143.046 302.719 143.271 302.614L144.216 302.069C144.423 301.924 144.587 301.725 144.689 301.494C144.791 301.263 144.827 301.008 144.793 300.757V299.196C144.752 298.511 144.55 297.846 144.205 297.254C143.86 296.662 143.38 296.158 142.806 295.785ZM141.212 297.431C141.596 297.685 141.915 298.026 142.143 298.426C142.371 298.826 142.501 299.274 142.524 299.734C142.523 299.858 142.508 299.981 142.478 300.101C142.359 300.068 142.245 300.022 142.137 299.963C141.753 299.707 141.435 299.365 141.207 298.964C140.979 298.563 140.848 298.115 140.825 297.654C140.825 297.528 140.841 297.403 140.871 297.28C140.99 297.315 141.105 297.366 141.212 297.431Z" fill="#FD747C" fill-opacity="0.54"/>
<path opacity="0.85" d="M142.806 295.785L134.133 290.779L133.195 291.324L141.861 296.329C142.436 296.708 142.914 297.218 143.256 297.816C143.598 298.414 143.794 299.085 143.829 299.773V301.334C143.858 301.589 143.816 301.848 143.705 302.08C143.595 302.312 143.422 302.508 143.206 302.646H143.252L144.196 302.095C144.404 301.951 144.568 301.752 144.67 301.521C144.772 301.289 144.808 301.034 144.774 300.783V299.222C144.737 298.535 144.539 297.867 144.198 297.27C143.856 296.673 143.379 296.164 142.806 295.785Z" fill="black"/>
<path d="M144.796 299.23V300.791C144.83 301.041 144.794 301.297 144.692 301.528C144.59 301.76 144.426 301.959 144.218 302.103L143.274 302.654H143.234C143.449 302.515 143.621 302.318 143.73 302.086C143.839 301.854 143.881 301.596 143.851 301.342V299.794C143.828 299.099 143.627 298.421 143.267 297.826L144.212 297.281C144.569 297.871 144.77 298.541 144.796 299.23Z" fill="#FD747C" fill-opacity="0.54"/>
<path opacity="0.6" d="M144.796 299.23V300.791C144.83 301.041 144.794 301.297 144.692 301.528C144.59 301.76 144.426 301.959 144.218 302.103L143.274 302.654H143.234C143.449 302.515 143.621 302.318 143.73 302.086C143.839 301.854 143.881 301.596 143.851 301.342V299.794C143.828 299.099 143.627 298.421 143.267 297.826L144.212 297.281C144.569 297.871 144.77 298.541 144.796 299.23Z" fill="black"/>
<path opacity="0.05" d="M144.796 299.23V300.791C144.83 301.041 144.794 301.297 144.692 301.528C144.59 301.76 144.426 301.959 144.218 302.103L143.274 302.654H143.234C143.449 302.515 143.621 302.318 143.73 302.086C143.839 301.854 143.881 301.596 143.851 301.342V299.794C143.828 299.099 143.627 298.421 143.267 297.826L144.212 297.281C144.569 297.871 144.77 298.541 144.796 299.23Z" fill="black"/>
<path opacity="0.6" d="M140.827 297.655C140.828 297.528 140.843 297.403 140.873 297.281C140.303 297.123 139.883 297.484 139.883 298.199C139.905 298.66 140.036 299.109 140.264 299.51C140.492 299.911 140.811 300.253 141.195 300.508C141.811 300.869 142.336 300.679 142.507 300.101C142.386 300.074 142.271 300.028 142.166 299.964C141.777 299.711 141.453 299.371 141.22 298.969C140.987 298.568 140.853 298.118 140.827 297.655Z" fill="black"/>
<path opacity="0.1" d="M140.827 297.655C140.828 297.528 140.843 297.403 140.873 297.281C140.303 297.123 139.883 297.484 139.883 298.199C139.905 298.66 140.036 299.109 140.264 299.51C140.492 299.911 140.811 300.253 141.195 300.508C141.811 300.869 142.336 300.679 142.507 300.101C142.386 300.074 142.271 300.028 142.166 299.964C141.777 299.711 141.453 299.371 141.22 298.969C140.987 298.568 140.853 298.118 140.827 297.655Z" fill="black"/>
<path opacity="0.7" d="M141.861 296.33L133.195 291.324V297.478L141.861 302.483C142.963 303.139 143.829 302.601 143.829 301.335V299.793C143.799 299.101 143.605 298.426 143.263 297.824C142.921 297.222 142.44 296.71 141.861 296.33ZM141.205 300.508C140.822 300.252 140.503 299.91 140.275 299.509C140.048 299.108 139.917 298.66 139.893 298.199C139.893 297.346 140.49 297.005 141.205 297.432C141.589 297.685 141.908 298.026 142.136 298.426C142.364 298.826 142.495 299.274 142.517 299.734C142.543 300.587 141.946 300.928 141.212 300.508H141.205Z" fill="black"/>
<path d="M149.86 291.712L141.195 286.707L140.25 287.252V293.405L148.916 298.41C149.117 298.557 149.354 298.648 149.602 298.672C149.85 298.696 150.1 298.653 150.326 298.548L151.271 297.997C151.473 297.855 151.634 297.662 151.736 297.437C151.837 297.211 151.876 296.963 151.848 296.718V295.156C151.811 294.466 151.612 293.795 151.267 293.196C150.921 292.598 150.439 292.089 149.86 291.712ZM148.266 293.359C148.651 293.613 148.971 293.955 149.199 294.356C149.427 294.758 149.557 295.207 149.578 295.668C149.578 295.79 149.563 295.911 149.532 296.029C149.412 296.002 149.297 295.955 149.191 295.891C148.807 295.636 148.488 295.294 148.26 294.893C148.032 294.492 147.902 294.043 147.879 293.582C147.88 293.458 147.895 293.335 147.925 293.215C148.045 293.247 148.16 293.295 148.266 293.359Z" fill="#FD747C" fill-opacity="0.54"/>
<path opacity="0.85" d="M149.86 291.712L141.188 286.707L140.25 287.252L148.916 292.257C149.491 292.636 149.969 293.145 150.311 293.744C150.653 294.342 150.849 295.013 150.884 295.701V297.262C150.913 297.517 150.87 297.775 150.76 298.007C150.65 298.239 150.477 298.436 150.261 298.574H150.306L151.251 298.023C151.454 297.882 151.614 297.688 151.716 297.463C151.817 297.238 151.856 296.989 151.828 296.744V295.183C151.796 294.49 151.601 293.815 151.259 293.212C150.917 292.609 150.438 292.095 149.86 291.712Z" fill="black"/>
<path d="M151.843 295.156V296.718C151.87 296.963 151.832 297.212 151.73 297.437C151.628 297.662 151.468 297.855 151.265 297.997L150.321 298.548H150.281C150.496 298.409 150.668 298.212 150.777 297.98C150.886 297.748 150.928 297.49 150.898 297.236V295.675C150.874 294.979 150.673 294.302 150.314 293.707L151.259 293.162C151.623 293.765 151.824 294.452 151.843 295.156Z" fill="#FD747C" fill-opacity="0.54"/>
<path opacity="0.6" d="M151.843 295.156V296.718C151.87 296.963 151.832 297.212 151.73 297.437C151.628 297.662 151.468 297.855 151.265 297.997L150.321 298.548H150.281C150.496 298.409 150.668 298.212 150.777 297.98C150.886 297.748 150.928 297.49 150.898 297.236V295.675C150.874 294.979 150.673 294.302 150.314 293.707L151.259 293.162C151.623 293.765 151.824 294.452 151.843 295.156Z" fill="black"/>
<path opacity="0.05" d="M151.843 295.156V296.718C151.87 296.963 151.832 297.212 151.73 297.437C151.628 297.662 151.468 297.855 151.265 297.997L150.321 298.548H150.281C150.496 298.409 150.668 298.212 150.777 297.98C150.886 297.748 150.928 297.49 150.898 297.236V295.675C150.874 294.979 150.673 294.302 150.314 293.707L151.259 293.162C151.623 293.765 151.824 294.452 151.843 295.156Z" fill="black"/>
<path opacity="0.6" d="M147.874 293.582C147.875 293.458 147.89 293.335 147.92 293.215C147.356 293.057 146.93 293.411 146.93 294.126C146.952 294.587 147.083 295.036 147.311 295.437C147.539 295.838 147.857 296.18 148.242 296.436C148.858 296.796 149.383 296.606 149.554 296.029C149.433 296.002 149.318 295.955 149.213 295.891C148.823 295.639 148.499 295.298 148.267 294.897C148.034 294.496 147.9 294.045 147.874 293.582Z" fill="black"/>
<path opacity="0.1" d="M147.874 293.582C147.875 293.458 147.89 293.335 147.92 293.215C147.356 293.057 146.93 293.411 146.93 294.126C146.952 294.587 147.083 295.036 147.311 295.437C147.539 295.838 147.857 296.18 148.242 296.436C148.858 296.796 149.383 296.606 149.554 296.029C149.433 296.002 149.318 295.955 149.213 295.891C148.823 295.639 148.499 295.298 148.267 294.897C148.034 294.496 147.9 294.045 147.874 293.582Z" fill="black"/>
<path opacity="0.7" d="M148.922 292.255L140.25 287.25V293.403L148.916 298.409C150.018 299.065 150.884 298.533 150.884 297.261V295.699C150.848 295.012 150.653 294.342 150.312 293.744C149.971 293.146 149.495 292.636 148.922 292.255ZM148.266 296.434C147.882 296.179 147.563 295.837 147.335 295.436C147.107 295.035 146.977 294.586 146.954 294.125C146.954 293.279 147.551 292.931 148.266 293.357C148.651 293.612 148.971 293.954 149.199 294.355C149.427 294.756 149.557 295.205 149.578 295.666C149.598 296.513 149.001 296.86 148.266 296.434Z" fill="black"/>
<path d="M179.709 257.245L204.375 242.977C206.92 241.514 208.193 239.585 208.193 237.663C208.193 235.741 208.193 234.232 208.193 234.232L182.609 219.8C181.893 219.334 181.297 218.705 180.87 217.966C180.443 217.226 180.195 216.396 180.149 215.543V185.131L137.062 210.059V240.478C137.108 241.329 137.353 242.158 137.78 242.897C138.206 243.636 138.801 244.263 139.516 244.728L161.308 257.245C166.379 260.177 174.625 260.177 179.709 257.245Z" fill="#FD747C" fill-opacity="0.54"/>
<g opacity="0.6">
<path d="M179.709 257.245L204.375 242.977C206.92 241.514 208.193 239.585 208.193 237.663C208.193 235.741 208.193 234.232 208.193 234.232L182.609 219.8C181.893 219.334 181.297 218.705 180.87 217.966C180.443 217.226 180.195 216.396 180.149 215.543V185.131L137.062 210.059V240.478C137.108 241.329 137.353 242.158 137.78 242.897C138.206 243.636 138.801 244.263 139.516 244.728L161.308 257.245C166.379 260.177 174.625 260.177 179.709 257.245Z" fill="black"/>
</g>
<path opacity="0.3" d="M147.411 245.83V249.28L139.539 244.727C138.826 244.26 138.233 243.633 137.807 242.894C137.38 242.156 137.134 241.328 137.086 240.477V210.032L145.273 205.328C145.437 207.408 145.627 209.566 145.798 211.665L140.038 214.998V238.758C140.08 239.61 140.324 240.441 140.751 241.18C141.178 241.919 141.774 242.546 142.491 243.009L147.411 245.83Z" fill="black"/>
<path d="M140.039 238.733C140.084 239.585 140.33 240.414 140.756 241.153C141.183 241.891 141.778 242.519 142.492 242.984L161.313 253.815C166.397 256.747 174.643 256.753 179.734 253.815L204.412 239.553C209.496 236.621 209.496 231.858 204.412 228.919L185.585 218.089C184.87 217.622 184.276 216.993 183.849 216.253C183.423 215.514 183.177 214.684 183.132 213.831V190.064L140.046 214.992L140.039 238.733Z" fill="#FD747C" fill-opacity="0.54"/>
<path opacity="0.3" d="M140.039 238.733C140.084 239.585 140.33 240.414 140.756 241.153C141.183 241.891 141.778 242.519 142.492 242.984L161.313 253.815C166.397 256.747 174.643 256.753 179.734 253.815L204.412 239.553C209.496 236.621 209.496 231.858 204.412 228.919L185.585 218.089C184.87 217.622 184.276 216.993 183.849 216.253C183.423 215.514 183.177 214.684 183.132 213.831V190.064L140.046 214.992L140.039 238.733Z" fill="black"/>
<path opacity="0.5" d="M190.585 220.975L185.586 218.089C184.872 217.622 184.277 216.993 183.851 216.253C183.424 215.514 183.179 214.684 183.133 213.831V190.064L140.047 214.992V238.759C140.092 239.611 140.338 240.44 140.764 241.179C141.19 241.918 141.785 242.545 142.5 243.01L147.42 245.851L190.585 220.975Z" fill="black"/>
<path d="M208.202 234.232V237.663C208.202 239.592 206.89 241.507 204.384 242.983L179.712 257.238C177.009 258.684 173.988 259.435 170.922 259.423V256.005C173.988 256.017 177.009 255.267 179.712 253.821L204.384 239.553C206.923 238.09 208.202 236.161 208.202 234.232Z" fill="#FD747C" fill-opacity="0.54"/>
<path opacity="0.5" d="M208.202 234.232V237.663C208.202 239.592 206.89 241.507 204.384 242.983L179.712 257.238C177.009 258.684 173.988 259.435 170.922 259.423V256.005C173.988 256.017 177.009 255.267 179.712 253.821L204.384 239.553C206.923 238.09 208.202 236.161 208.202 234.232Z" fill="black"/>
<path d="M70.8498 268.305C71.7802 268.756 72.8041 268.982 73.8382 268.962C74.8722 268.943 75.887 268.679 76.7998 268.193L243.424 171.984C245.116 171.007 246.487 168.625 246.487 169.295V17.5289C246.487 12.9369 245.175 10.6147 243.607 9.69629C242.678 9.24563 241.655 9.02084 240.622 9.04022C239.59 9.0596 238.576 9.3226 237.664 9.80781L71.0466 106.017C70.1526 106.598 69.4085 107.382 68.8749 108.306C68.3414 109.229 68.0336 110.265 67.9766 111.33V263.057C68.0051 264.097 68.2805 265.115 68.7801 266.027C69.2797 266.94 69.9891 267.72 70.8498 268.305Z" fill="#FD747C" fill-opacity="0.54"/>
<path d="M76.7966 268.161L243.421 171.952C245.113 170.974 246.491 168.593 246.491 169.256V17.5227C246.491 12.9307 245.113 12.1501 243.421 13.1275L76.7966 109.336C75.9026 109.918 75.1585 110.702 74.6249 111.625C74.0914 112.549 73.7836 113.585 73.7266 114.65V266.383C73.7266 268.344 75.1042 269.138 76.7966 268.161Z" fill="#FD747C" fill-opacity="0.54"/>
<path opacity="0.5" d="M76.7966 268.161L243.421 171.952C245.113 170.974 246.491 168.593 246.491 169.256V17.5227C246.491 12.9307 245.113 12.1501 243.421 13.1275L76.7966 109.336C75.9026 109.918 75.1585 110.702 74.6249 111.625C74.0914 112.549 73.7836 113.585 73.7266 114.65V266.383C73.7266 268.344 75.1042 269.138 76.7966 268.161Z" fill="black"/>
<path d="M76.3459 271.663C75.4746 272.038 74.5329 272.222 73.5844 272.202C72.6359 272.181 71.7029 271.957 70.8486 271.545C69.9919 270.965 69.2845 270.191 68.784 269.286C68.2835 268.381 68.0041 267.37 67.9688 266.336V256.68L73.7284 260.012V269.662C73.7284 271.446 74.8633 272.24 76.3459 271.663Z" fill="#FD747C" fill-opacity="0.54"/>
<path opacity="0.5" d="M76.3459 271.663C75.4746 272.038 74.5329 272.222 73.5844 272.202C72.6359 272.181 71.7029 271.957 70.8486 271.545C69.9919 270.965 69.2845 270.191 68.784 269.286C68.2835 268.381 68.0041 267.37 67.9688 266.336V256.68L73.7284 260.012V269.662C73.7284 271.446 74.8633 272.24 76.3459 271.663Z" fill="black"/>
<path d="M73.7266 260.012V269.655C73.7266 271.623 75.1042 272.41 76.7966 271.426L243.421 175.224C244.315 174.641 245.058 173.855 245.592 172.931C246.125 172.007 246.433 170.969 246.491 169.904V160.234L73.7266 260.012Z" fill="#FD747C" fill-opacity="0.54"/>
<path opacity="0.3" d="M73.7266 259.986V269.655C73.7266 271.623 75.1042 272.41 76.7966 271.426L243.421 175.224C244.315 174.641 245.058 173.855 245.592 172.931C246.125 172.007 246.433 170.969 246.491 169.904V160.234L73.7266 259.986Z" fill="black"/>
<path d="M79.4844 247.89V116.565C79.5197 115.926 79.705 115.303 80.0252 114.748C80.3454 114.193 80.7916 113.721 81.3277 113.371L238.899 22.3966C239.916 21.8128 240.742 22.2851 240.742 23.4593V154.817C240.707 155.456 240.522 156.077 240.201 156.631C239.881 157.185 239.435 157.656 238.899 158.005L81.3277 248.959C80.3109 249.543 79.4844 249.064 79.4844 247.89Z" fill="#FD747C" fill-opacity="0.54"/>
<path d="M79.4844 247.89V116.565C79.5197 115.926 79.705 115.303 80.0252 114.748C80.3454 114.193 80.7916 113.721 81.3277 113.371L238.899 22.3966C239.916 21.8128 240.742 22.2851 240.742 23.4593V154.817C240.707 155.456 240.522 156.077 240.201 156.631C239.881 157.185 239.435 157.656 238.899 158.005L81.3277 248.959C80.3109 249.543 79.4844 249.064 79.4844 247.89Z" fill="#263238"/>
<path opacity="0.7" d="M74.6337 111.612C74.0882 112.535 73.7774 113.578 73.7284 114.649V260.012L67.9688 256.679V111.33C68.0083 110.26 68.3175 109.217 68.8675 108.299L74.6337 111.612Z" fill="black"/>
<path opacity="0.3" d="M246.482 14.3934C246.265 12.8124 244.986 12.2417 243.438 13.1273L76.8139 109.336C75.9065 109.899 75.1588 110.685 74.6425 111.619L68.8828 108.293C69.4029 107.362 70.1497 106.576 71.0542 106.01L237.685 9.84072C238.597 9.35444 239.612 9.09085 240.646 9.07146C241.68 9.05208 242.704 9.27746 243.635 9.7292C244.414 10.2595 245.07 10.9498 245.561 11.7541C246.052 12.5584 246.366 13.4582 246.482 14.3934Z" fill="black"/>
<path d="M95.3105 255.893C94.9454 256.108 94.5335 256.232 94.11 256.253C93.5063 256.332 92.8928 256.225 92.352 255.945C91.9228 255.652 91.5694 255.262 91.3207 254.805C91.0721 254.349 90.9354 253.84 90.9219 253.321V134.191L93.8017 135.851V255.007C93.8017 255.702 94.1494 256.102 94.648 256.102C94.8818 256.083 95.1083 256.012 95.3105 255.893Z" fill="#F0F0F0"/>
<path d="M253.689 162.688C253.657 163.214 253.502 163.726 253.237 164.181C252.971 164.637 252.603 165.024 252.161 165.312L95.311 255.892C94.4713 256.378 93.7891 255.984 93.7891 255.007V125.952L97.994 123.524C98.8337 123.039 100.205 115.652 101.051 115.134L137.525 94.0766C138.371 93.5912 140.359 99.0688 141.198 98.5768L253.689 33.6328V162.688Z" fill="#FAFAFA"/>
<path d="M252.981 34.8334V162.688C252.951 163.094 252.831 163.487 252.627 163.84C252.424 164.192 252.143 164.493 251.806 164.721L94.9567 255.282C94.8597 255.344 94.7496 255.382 94.6353 255.394C94.491 255.394 94.491 255.026 94.491 255.007V126.352L98.3483 124.122C98.9583 123.767 99.3388 122.58 100.198 119.53C100.505 118.222 100.926 116.945 101.458 115.712L137.603 94.8443C138.032 95.4243 138.416 96.0362 138.751 96.6745C139.735 98.4064 140.286 99.2986 141.087 99.2986C141.251 99.2986 141.412 99.2532 141.552 99.1674L252.981 34.8334ZM253.689 33.6133L141.198 98.5573C141.165 98.5779 141.126 98.5892 141.087 98.5901C140.234 98.5901 138.463 93.9981 137.636 93.9981C137.6 93.9883 137.561 93.9883 137.525 93.9981L101.051 115.056C100.205 115.548 98.8337 122.928 97.994 123.446L93.7891 125.952V255.007C93.7891 255.702 94.1302 256.102 94.6353 256.102C94.8688 256.092 95.0952 256.019 95.2913 255.892L252.161 165.312C252.603 165.024 252.971 164.637 253.237 164.182C253.502 163.726 253.657 163.214 253.689 162.688V33.6133Z" fill="#E0E0E0"/>
<path d="M92.3507 130.642C91.9203 130.35 91.5656 129.96 91.3158 129.504C91.066 129.047 90.9283 128.538 90.9141 128.018V116.112C90.9442 115.587 91.0962 115.077 91.3582 114.622C91.6201 114.166 91.9846 113.778 92.4229 113.488L249.272 22.96C249.714 22.6803 250.223 22.5268 250.746 22.5162C251.268 22.5056 251.783 22.6384 252.236 22.9C252.688 23.1617 253.06 23.5422 253.311 24.0003C253.563 24.4584 253.684 24.9767 253.661 25.4987V37.392C253.63 37.9187 253.476 38.4307 253.21 38.8866C252.945 39.3425 252.576 39.7294 252.133 40.016L95.3093 130.59C94.8547 130.83 94.3501 130.96 93.8362 130.969C93.3223 130.978 92.8135 130.866 92.3507 130.642Z" fill="#FD747C" fill-opacity="0.54"/>
<path opacity="0.4" d="M253.667 25.1971C253.562 24.4033 252.919 24.1147 252.158 24.5411L95.3085 115.122C94.8608 115.412 94.4896 115.806 94.2261 116.27L91.3594 114.61C91.6163 114.154 91.9812 113.769 92.4221 113.488L249.272 22.9601C249.694 22.6908 250.18 22.5377 250.681 22.5163C251.181 22.4949 251.678 22.6059 252.122 22.8381C252.566 23.0704 252.941 23.4156 253.209 23.839C253.476 24.2624 253.628 24.749 253.647 25.2496L253.667 25.1971Z" fill="black"/>
<path opacity="0.1" d="M94.2281 116.27C93.9553 116.725 93.804 117.242 93.7885 117.772V135.884L90.9087 134.224V116.112C90.9054 116.051 90.9054 115.99 90.9087 115.929C90.9205 115.801 90.9402 115.674 90.9677 115.548C91.0499 115.217 91.1779 114.899 91.3482 114.604L94.2281 116.27Z" fill="black"/>
<path d="M253.683 25.4407V33.6144L141.192 98.5584C140.352 99.0504 139.67 98.6503 139.67 97.6794V94.5831C139.67 93.6122 139.014 93.212 138.135 93.704L101.044 115.116C100.603 115.404 100.234 115.791 99.9687 116.246C99.7033 116.702 99.5483 117.214 99.5159 117.74V120.83C99.4826 121.356 99.3271 121.867 99.0618 122.322C98.7965 122.778 98.4286 123.165 97.9875 123.454L93.7891 125.953V117.773C93.8217 117.247 93.9761 116.736 94.2403 116.281C94.5045 115.826 94.871 115.438 95.311 115.149L252.161 24.6207C253 24.0696 253.683 24.4698 253.683 25.4407Z" fill="#FD747C" fill-opacity="0.54"/>
<path d="M246.515 30.5631C247.577 29.953 248.437 30.4516 248.437 31.6783C248.4 32.3456 248.207 32.9951 247.873 33.574C247.54 34.1529 247.074 34.6451 246.515 35.0108C245.452 35.6208 244.586 35.1223 244.586 33.8956C244.624 33.2277 244.818 32.5781 245.153 31.9992C245.488 31.4203 245.954 30.9284 246.515 30.5631Z" fill="black"/>
<path d="M239.594 34.5586C240.657 33.9485 241.516 34.4405 241.516 35.6672C241.481 36.3348 241.288 36.9846 240.954 37.5637C240.62 38.1428 240.154 38.6348 239.594 38.9997C238.531 39.6163 237.672 39.1178 237.672 37.891C237.708 37.2237 237.901 36.5743 238.235 35.9953C238.569 35.4164 239.034 34.9242 239.594 34.5586Z" fill="black"/>
<path d="M232.664 38.5536C233.727 37.937 234.586 38.4355 234.586 39.6623C234.55 40.3296 234.357 40.979 234.023 41.558C233.689 42.1369 233.224 42.6291 232.664 42.9947C231.602 43.6048 230.742 43.1128 230.742 41.8861C230.777 41.2185 230.97 40.5687 231.304 39.9896C231.638 39.4105 232.104 38.9185 232.664 38.5536Z" fill="black"/>
<path d="M253.689 33.6133V43.5517L93.7891 135.884V125.952L96.9313 124.135C97.771 123.649 98.0531 122.908 98.4532 121.511L99.5225 117.811C99.8571 116.499 100.179 115.653 101.051 115.187L137.525 94.1293C138.371 93.6438 139.033 93.5914 139.676 94.6541L140.988 97.0288C141.467 97.8554 141.71 98.3408 142.55 97.8554L253.689 33.6133Z" fill="#E6E6E6"/>
<path d="M93.7861 125.94V135.884L90.9062 134.225V124.293L93.7861 125.94Z" fill="#E0E0E0"/>
<path opacity="0.5" d="M100.804 126.661L98.4027 128.046L99.3146 126.288C99.3513 126.221 99.3706 126.147 99.3706 126.071C99.3706 125.995 99.3513 125.921 99.3146 125.855C99.2424 125.769 99.1243 125.855 99.0391 125.986L97.7271 128.485C97.7271 128.485 97.7271 128.544 97.6943 128.577C97.6911 128.618 97.6911 128.66 97.6943 128.702C97.6899 128.739 97.6899 128.776 97.6943 128.813C97.7037 128.832 97.7147 128.849 97.7271 128.866L99.0391 129.863C99.0577 129.878 99.0808 129.886 99.1047 129.886C99.1285 129.886 99.1516 129.878 99.1703 129.863C99.2374 129.819 99.2882 129.755 99.3146 129.679C99.3867 129.515 99.3736 129.331 99.3146 129.272L98.4027 128.564L100.804 127.18C100.865 127.131 100.914 127.069 100.947 126.999C100.98 126.928 100.996 126.851 100.994 126.773C100.994 126.681 100.909 126.609 100.804 126.661Z" fill="#455A64"/>
<path opacity="0.5" d="M102.8 125.499L105.201 124.115L104.282 123.413C104.243 123.352 104.222 123.28 104.222 123.207C104.222 123.134 104.243 123.062 104.282 123C104.348 122.836 104.472 122.757 104.551 122.816L105.863 123.82C105.881 123.834 105.895 123.852 105.902 123.873C105.909 123.909 105.909 123.947 105.902 123.984C105.909 124.028 105.909 124.072 105.902 124.115L105.863 124.214L104.551 126.72C104.526 126.78 104.482 126.83 104.426 126.864C104.407 126.882 104.381 126.893 104.354 126.893C104.327 126.893 104.302 126.882 104.282 126.864C104.245 126.799 104.225 126.726 104.225 126.651C104.225 126.576 104.245 126.502 104.282 126.438L105.201 124.679L102.8 126.064C102.695 126.123 102.609 126.064 102.609 125.88C102.612 125.807 102.631 125.735 102.664 125.669C102.696 125.604 102.743 125.546 102.8 125.499Z" fill="#455A64"/>
<path opacity="0.5" d="M110.67 118.592C110.67 118.447 110.533 118.46 110.467 118.592L110.139 119.399C109.575 119.339 108.899 119.884 108.44 120.855C107.843 122.114 107.843 123.603 108.44 124.174C108.584 124.308 108.77 124.388 108.966 124.4C109.162 124.412 109.357 124.356 109.516 124.24C109.996 123.916 110.372 123.461 110.598 122.928C110.634 122.864 110.653 122.791 110.653 122.718C110.653 122.644 110.634 122.572 110.598 122.508C110.519 122.436 110.401 122.508 110.323 122.665C109.877 123.604 109.155 124.023 108.715 123.597C108.276 123.171 108.269 122.055 108.715 121.117C109.03 120.461 109.483 120.055 109.877 120.028L109.634 120.638C109.568 120.796 109.634 120.94 109.726 120.875L110.703 120.219C110.743 120.189 110.775 120.149 110.794 120.102C110.814 120.056 110.821 120.006 110.815 119.956L110.67 118.592Z" fill="#455A64"/>
<path opacity="0.5" d="M136.466 98.6041L137.346 96.7542C137.395 96.666 137.421 96.5666 137.421 96.4655C137.421 96.3645 137.395 96.2651 137.346 96.1769C137.241 96.0785 137.07 96.1769 136.972 96.3934L136.093 98.2433L135.22 97.4036C135.115 97.3052 134.951 97.4036 134.846 97.6201C134.793 97.7072 134.766 97.807 134.766 97.9087C134.766 98.0105 134.793 98.1103 134.846 98.1974L135.719 99.0567L134.846 100.907C134.793 100.994 134.766 101.094 134.766 101.195C134.766 101.297 134.793 101.397 134.846 101.484C134.871 101.507 134.904 101.519 134.938 101.519C134.972 101.519 135.005 101.507 135.03 101.484C135.115 101.429 135.182 101.349 135.22 101.254L136.093 99.4044L136.972 100.244C136.997 100.267 137.03 100.279 137.063 100.279C137.097 100.279 137.13 100.267 137.155 100.244C137.241 100.189 137.307 100.109 137.346 100.015C137.395 99.9263 137.421 99.8269 137.421 99.7259C137.421 99.6248 137.395 99.5254 137.346 99.4372L136.466 98.6041Z" fill="#455A64"/>
<path d="M113.859 120.869V117.772C113.891 117.246 114.046 116.734 114.311 116.278C114.577 115.823 114.946 115.436 115.388 115.148L243.551 41.1581C244.397 40.6661 245.079 41.0662 245.079 42.0371V45.1334C245.047 45.6599 244.892 46.1715 244.627 46.6272C244.361 47.0829 243.993 47.47 243.551 47.7574L115.381 121.748C114.542 122.24 113.859 121.839 113.859 120.869Z" fill="#FAFAFA"/>
<path d="M241.472 48.0198C241.427 48.0273 241.38 48.0273 241.335 48.0198C241.249 47.9801 241.179 47.9123 241.138 47.8275C241.096 47.7428 241.084 47.6463 241.105 47.5541L241.256 46.3011L240.666 45.8747C240.614 45.8343 240.573 45.7824 240.546 45.7231C240.518 45.6638 240.506 45.5989 240.508 45.5336C240.506 45.4318 240.527 45.3307 240.57 45.2385C240.613 45.1463 240.677 45.0654 240.757 45.0022L241.656 44.3069C241.674 44.2857 241.687 44.2611 241.695 44.2347L242.096 42.9227C242.12 42.8147 242.176 42.7165 242.257 42.6406C242.338 42.5646 242.439 42.5144 242.548 42.4963C242.622 42.4879 242.697 42.5039 242.761 42.5418C242.825 42.5797 242.874 42.6374 242.903 42.7062L243.237 43.4213L243.998 43.1326C244.066 43.1024 244.141 43.095 244.214 43.1116C244.286 43.1282 244.351 43.1678 244.398 43.2245C244.461 43.3152 244.494 43.4227 244.494 43.5328C244.494 43.6429 244.461 43.7504 244.398 43.8411L243.742 45.0613C243.739 45.0852 243.739 45.1095 243.742 45.1334L243.9 46.2355C243.912 46.3363 243.9 46.4386 243.866 46.5342C243.832 46.6298 243.776 46.7162 243.703 46.7866C243.66 46.8371 243.605 46.8761 243.543 46.9002C243.481 46.9242 243.414 46.9325 243.349 46.9243L242.647 46.8128L241.853 47.823C241.811 47.8847 241.754 47.935 241.687 47.9693C241.621 48.0036 241.547 48.021 241.472 48.0198ZM241.039 45.4614L241.63 45.8878C241.691 45.9377 241.738 46.0028 241.765 46.0765C241.793 46.1503 241.8 46.23 241.787 46.3077L241.682 47.1474L242.214 46.4914C242.259 46.4267 242.32 46.3748 242.392 46.3403C242.463 46.3059 242.542 46.2902 242.62 46.2946L243.355 46.3864C243.36 46.3582 243.36 46.3293 243.355 46.3011L243.198 45.199C243.185 45.063 243.213 44.9263 243.276 44.8054L243.847 43.7362L243.303 43.9526C243.216 43.9882 243.12 43.989 243.033 43.9547C242.946 43.9205 242.876 43.8539 242.837 43.769L242.575 43.2048L242.214 44.379C242.176 44.5112 242.098 44.6282 241.991 44.7136L241.092 45.3696C241.066 45.3946 241.048 45.4265 241.039 45.4614Z" fill="#E0E0E0"/>
<g opacity="0.5">
<path d="M246.884 40.7781C246.766 40.7815 246.651 40.7453 246.556 40.6752C246.462 40.6052 246.393 40.5054 246.362 40.3919C246.331 40.2783 246.339 40.1577 246.385 40.0492C246.431 39.9408 246.512 39.851 246.615 39.7941L250.918 37.3078C250.979 37.2682 251.047 37.2412 251.118 37.2287C251.189 37.2162 251.262 37.2184 251.332 37.235C251.403 37.2517 251.469 37.2826 251.527 37.3257C251.585 37.3689 251.634 37.4234 251.67 37.486C251.706 37.5485 251.729 37.6178 251.737 37.6896C251.746 37.7614 251.74 37.8342 251.719 37.9035C251.699 37.9728 251.664 38.0372 251.618 38.0927C251.571 38.1481 251.514 38.1936 251.45 38.2262L247.146 40.7059C247.068 40.7548 246.976 40.7799 246.884 40.7781Z" fill="#455A64"/>
<path d="M246.882 43.2974C246.789 43.2982 246.697 43.2744 246.617 43.2283C246.536 43.1822 246.469 43.1155 246.422 43.035C246.353 42.9129 246.333 42.7682 246.369 42.6321C246.405 42.496 246.492 42.3792 246.613 42.3069L250.916 39.8272C250.976 39.7917 251.043 39.7686 251.112 39.759C251.182 39.7493 251.252 39.7535 251.32 39.7712C251.387 39.7888 251.451 39.8197 251.506 39.8619C251.562 39.9042 251.609 39.957 251.644 40.0174C251.679 40.0776 251.702 40.1441 251.711 40.2131C251.72 40.2821 251.715 40.3523 251.697 40.4194C251.679 40.4866 251.647 40.5494 251.604 40.6043C251.561 40.6592 251.508 40.705 251.447 40.739L247.144 43.2253C247.065 43.2742 246.974 43.2992 246.882 43.2974Z" fill="#455A64"/>
<path d="M246.885 45.7511C246.768 45.7515 246.654 45.7132 246.561 45.6423C246.468 45.5715 246.401 45.4719 246.37 45.359C246.339 45.2461 246.347 45.1263 246.391 45.0181C246.436 44.9099 246.515 44.8194 246.616 44.7606L250.919 42.2743C251.042 42.2051 251.187 42.1869 251.323 42.2237C251.459 42.2605 251.576 42.3494 251.647 42.4711C251.682 42.5313 251.705 42.5978 251.714 42.6668C251.723 42.7358 251.718 42.806 251.7 42.8731C251.681 42.9403 251.65 43.0031 251.607 43.058C251.564 43.1129 251.511 43.1587 251.45 43.1927L247.147 45.679C247.067 45.7248 246.977 45.7497 246.885 45.7511Z" fill="#455A64"/>
</g>
<g opacity="0.5">
<path d="M98.5088 138.666C98.3912 138.67 98.2758 138.633 98.1812 138.563C98.0866 138.493 98.0184 138.393 97.9873 138.28C97.9563 138.166 97.9643 138.046 98.0101 137.937C98.0559 137.829 98.1369 137.739 98.2399 137.682L102.543 135.196C102.664 135.135 102.804 135.122 102.935 135.161C103.065 135.199 103.175 135.286 103.243 135.404C103.311 135.521 103.331 135.661 103.3 135.793C103.269 135.925 103.188 136.04 103.075 136.114L98.7712 138.594C98.6922 138.642 98.6013 138.667 98.5088 138.666Z" fill="#455A64"/>
<path d="M98.509 141.152C98.4161 141.153 98.3246 141.129 98.244 141.083C98.1633 141.037 98.0963 140.971 98.0498 140.89C98.0144 140.83 97.9912 140.763 97.9816 140.694C97.972 140.625 97.9761 140.554 97.9938 140.486C98.0115 140.419 98.0423 140.355 98.0846 140.3C98.1269 140.244 98.1797 140.197 98.2401 140.162L102.543 137.682C102.603 137.647 102.669 137.624 102.738 137.614C102.807 137.605 102.877 137.609 102.944 137.627C103.011 137.644 103.074 137.675 103.129 137.717C103.184 137.76 103.23 137.812 103.265 137.872C103.3 137.933 103.324 137.999 103.333 138.069C103.343 138.138 103.339 138.208 103.321 138.276C103.303 138.344 103.273 138.407 103.23 138.463C103.188 138.519 103.135 138.565 103.075 138.601L98.7714 141.08C98.6923 141.128 98.6015 141.153 98.509 141.152Z" fill="#455A64"/>
<path d="M98.5095 143.665C98.3926 143.665 98.2788 143.627 98.1858 143.556C98.0928 143.485 98.0258 143.385 97.9951 143.273C97.9645 143.16 97.9719 143.04 98.0163 142.932C98.0607 142.824 98.1395 142.733 98.2406 142.674L102.544 140.195C102.603 140.158 102.67 140.135 102.739 140.125C102.808 140.115 102.878 140.119 102.945 140.136C103.013 140.154 103.076 140.185 103.131 140.228C103.186 140.271 103.232 140.324 103.266 140.385C103.301 140.445 103.324 140.511 103.333 140.579C103.343 140.648 103.339 140.718 103.321 140.785C103.303 140.852 103.273 140.915 103.23 140.97C103.188 141.026 103.135 141.072 103.075 141.106L98.7719 143.593C98.6917 143.638 98.6016 143.662 98.5095 143.665Z" fill="#455A64"/>
</g>
<path d="M136.672 116.768V120.579C136.672 121.36 137.223 121.674 137.899 121.287L189.021 91.728V85.0762L137.905 114.636C137.546 114.869 137.247 115.183 137.033 115.554C136.819 115.924 136.695 116.34 136.672 116.768Z" fill="#E6E6E6"/>
<path d="M195.465 81.344C196.121 80.9504 196.692 81.2719 196.692 82.0525V85.8639C196.668 86.2895 196.545 86.7035 196.332 87.0727C196.119 87.4418 195.822 87.7558 195.465 87.9893L189.023 91.7088V85.0767L195.465 81.344Z" fill="#FD747C" fill-opacity="0.54"/>
<path d="M194.985 86.592L194.269 86.3624C194.342 86.0595 194.38 85.749 194.381 85.4374C194.414 85.1466 194.371 84.8522 194.256 84.583C194.141 84.3139 193.958 84.0793 193.725 83.9024C193.563 83.816 193.38 83.7752 193.196 83.7845C193.013 83.7937 192.835 83.8526 192.682 83.9549C192.225 84.3058 191.856 84.7594 191.607 85.2791C191.357 85.7988 191.233 86.3699 191.245 86.9462C191.212 87.237 191.255 87.5315 191.37 87.8006C191.485 88.0698 191.668 88.3044 191.901 88.4813C192.039 88.5593 192.195 88.6 192.354 88.5993C192.563 88.5972 192.767 88.5382 192.944 88.4288C193.493 88.0532 193.901 87.5065 194.105 86.8741L194.827 87.0971C194.853 87.1035 194.88 87.1035 194.906 87.0971C194.973 87.104 195.04 87.0848 195.093 87.0436C195.147 87.0023 195.182 86.9421 195.192 86.8755C195.202 86.8089 195.186 86.7409 195.148 86.6857C195.109 86.6305 195.051 86.5922 194.985 86.5789V86.592ZM192.682 87.9696C192.608 88.0235 192.521 88.0563 192.429 88.0644C192.338 88.0725 192.246 88.0556 192.164 88.0155C192.019 87.8808 191.908 87.7135 191.841 87.5276C191.774 87.3417 191.752 87.1424 191.777 86.9462C191.77 86.4637 191.871 85.9858 192.073 85.5475C192.275 85.1093 192.573 84.722 192.944 84.4141C193.044 84.3542 193.156 84.3203 193.272 84.3157C193.34 84.3136 193.406 84.3319 193.463 84.3682C193.607 84.5029 193.718 84.6702 193.785 84.8561C193.852 85.042 193.875 85.2413 193.85 85.4374C193.856 85.9189 193.754 86.3955 193.552 86.8325C193.35 87.2695 193.053 87.6558 192.682 87.963V87.9696Z" fill="#FAFAFA"/>
<path d="M115.427 127.612L108.047 131.856C107.69 132.086 107.393 132.398 107.18 132.765C106.967 133.132 106.844 133.545 106.82 133.968V137.767C106.82 138.547 107.371 138.862 108.047 138.475L115.427 134.205C115.783 133.973 116.079 133.66 116.291 133.291C116.503 132.923 116.625 132.51 116.647 132.086V128.314C116.647 127.54 116.103 127.218 115.427 127.612Z" fill="#FD747C" fill-opacity="0.54"/>
<path d="M243.772 53.5034C242.936 54.0496 242.24 54.785 241.741 55.65C241.242 56.5149 240.953 57.4853 240.898 58.4825C240.898 60.3193 242.21 61.0605 243.772 60.1487C244.609 59.6022 245.307 58.866 245.807 57.9998C246.307 57.1337 246.597 56.1619 246.652 55.1631C246.652 53.3263 245.359 52.585 243.772 53.5034Z" fill="#FD747C" fill-opacity="0.54"/>
<path d="M243.439 56.4157C243.349 56.4172 243.261 56.3946 243.183 56.3501C243.092 56.2854 243.018 56.1984 242.97 56.0973C242.922 55.9963 242.9 55.8845 242.908 55.7728C242.92 55.5099 242.995 55.2536 243.126 55.0254C243.257 54.7972 243.441 54.6036 243.662 54.4608C243.752 54.3899 243.861 54.3476 243.975 54.3394C244.089 54.3311 244.203 54.3573 244.302 54.4146C244.401 54.4719 244.48 54.5576 244.53 54.6605C244.579 54.7635 244.597 54.8791 244.58 54.9922C244.566 55.2555 244.49 55.5117 244.358 55.7398C244.226 55.9679 244.041 56.1613 243.819 56.3042C243.704 56.3724 243.573 56.4107 243.439 56.4157Z" fill="black"/>
<path d="M244.906 56.6193C244.746 56.5395 244.568 56.5047 244.39 56.5186C244.212 56.5325 244.041 56.5945 243.896 56.698L243.476 56.9407C243.095 57.1823 242.777 57.5112 242.549 57.9003C242.321 58.2894 242.189 58.7273 242.164 59.1777V59.4794C242.421 59.5905 242.702 59.6332 242.98 59.6033C243.258 59.5734 243.524 59.472 243.752 59.3089C244.414 58.8972 244.96 58.3238 245.339 57.6426V57.5705C245.357 57.3879 245.326 57.2037 245.25 57.0367C245.174 56.8697 245.056 56.7257 244.906 56.6193Z" fill="black"/>
<path d="M233.602 62.3992V61.3824C233.602 60.2278 232.9 59.6965 232.034 60.195C231.555 60.5378 231.163 60.9881 230.889 61.51C230.616 62.0318 230.469 62.6105 230.459 63.1995V64.1114C230.439 64.7378 230.256 65.3481 229.928 65.8826C229.847 66.0223 229.802 66.1802 229.797 66.3418C229.797 66.637 229.974 66.7682 230.19 66.6435L233.871 64.5246C233.99 64.4367 234.088 64.3223 234.157 64.1903C234.225 64.0583 234.262 63.9123 234.264 63.7637C234.269 63.7068 234.26 63.6496 234.24 63.5963C234.219 63.543 234.187 63.4949 234.146 63.4554C233.961 63.3529 233.811 63.1979 233.714 63.0099C233.617 62.8219 233.578 62.6094 233.602 62.3992Z" fill="#FD747C" fill-opacity="0.54"/>
<path d="M232.812 65.4688C232.807 65.7514 232.737 66.0291 232.606 66.2796C232.475 66.5301 232.287 66.7467 232.058 66.9119C231.638 67.1481 231.297 66.9119 231.297 66.3412L232.812 65.4688Z" fill="#FD747C" fill-opacity="0.54"/>
<path d="M220.031 67.227C220.232 67.108 220.455 67.0321 220.687 67.0039C220.868 66.9826 221.052 67.0194 221.211 67.1089C221.366 67.2033 221.487 67.3431 221.559 67.5091C221.644 67.7374 221.677 67.9814 221.658 68.2241C221.66 68.4449 221.636 68.6651 221.585 68.8801C221.538 69.0724 221.477 69.261 221.402 69.4443C221.33 69.6169 221.249 69.7855 221.159 69.9494L220.897 70.4217C220.818 70.5726 220.739 70.73 220.674 70.8809C220.611 71.0261 220.564 71.1779 220.536 71.3335C220.529 71.4079 220.511 71.4809 220.483 71.55C220.461 71.6026 220.425 71.6481 220.378 71.6812L219.637 72.1076C219.591 72.1076 219.552 72.1076 219.526 72.1076C219.507 72.0875 219.492 72.0637 219.483 72.0378C219.474 72.0118 219.471 71.9842 219.473 71.9567C219.472 71.7546 219.501 71.5535 219.558 71.3598C219.611 71.1697 219.677 70.9834 219.755 70.8022C219.84 70.6251 219.926 70.4479 220.024 70.2839C220.122 70.1199 220.201 69.9559 220.286 69.8116C220.372 69.6673 220.431 69.5164 220.49 69.3787C220.539 69.2554 220.566 69.1243 220.569 68.9916C220.569 68.8079 220.523 68.6899 220.437 68.6439C220.352 68.598 220.208 68.6439 220.024 68.7227C219.867 68.8054 219.733 68.9274 219.637 69.0769C219.565 69.1947 219.505 69.3201 219.46 69.4508L219.368 69.7788C219.348 69.8677 219.294 69.9453 219.217 69.9953L218.476 70.4217C218.463 70.4313 218.446 70.4365 218.43 70.4365C218.414 70.4365 218.397 70.4313 218.384 70.4217C218.369 70.4035 218.358 70.3826 218.351 70.3601C218.344 70.3375 218.342 70.3139 218.345 70.2905C218.354 70.0352 218.394 69.782 218.463 69.5361C218.546 69.2447 218.656 68.9614 218.791 68.6899C218.934 68.4035 219.11 68.135 219.316 67.8895C219.512 67.6274 219.754 67.4029 220.031 67.227ZM220.555 73.2884C220.555 73.3588 220.54 73.4282 220.51 73.4918C220.485 73.5483 220.443 73.5962 220.391 73.6295L219.63 74.0691C219.623 74.0764 219.614 74.0822 219.605 74.0862C219.595 74.0902 219.585 74.0922 219.575 74.0922C219.564 74.0922 219.554 74.0902 219.545 74.0862C219.535 74.0822 219.526 74.0764 219.519 74.0691C219.5 74.049 219.486 74.0252 219.477 73.9992C219.468 73.9732 219.464 73.9456 219.466 73.9182V72.9801C219.468 72.9092 219.486 72.8397 219.519 72.7767C219.54 72.7179 219.579 72.6672 219.63 72.6324L220.391 72.1929C220.408 72.179 220.429 72.1714 220.45 72.1714C220.472 72.1714 220.493 72.179 220.51 72.1929C220.527 72.2123 220.54 72.2352 220.548 72.2601C220.556 72.285 220.559 72.3113 220.555 72.3372V73.2884Z" fill="#FD747C" fill-opacity="0.54"/>
<path d="M136.278 185.406C135.675 185.406 135.096 185.17 134.665 184.75C134.359 184.435 134.122 184.06 133.968 183.649C133.815 183.238 133.748 182.8 133.772 182.362V177.507L120.823 184.992C120.427 185.231 119.973 185.356 119.511 185.353C118.91 185.355 118.332 185.119 117.904 184.697C117.596 184.382 117.357 184.007 117.202 183.595C117.047 183.182 116.98 182.742 117.005 182.303V174.299C116.994 172.864 117.248 171.438 117.753 170.094L132.414 133.168C132.673 132.47 133.021 131.808 133.451 131.2C133.858 130.686 134.362 130.255 134.934 129.934L142.333 125.664C142.729 125.425 143.183 125.3 143.645 125.303C144.246 125.303 144.823 125.538 145.252 125.959C145.559 126.273 145.797 126.647 145.952 127.058C146.107 127.469 146.175 127.908 146.151 128.347V154.475L147.903 153.465C148.298 153.225 148.752 153.1 149.215 153.104C149.815 153.107 150.391 153.342 150.822 153.76C151.12 154.087 151.348 154.472 151.491 154.89C151.635 155.309 151.69 155.753 151.655 156.194V164.19C151.651 165.007 151.462 165.812 151.104 166.546C150.776 167.315 150.22 167.966 149.51 168.409L146.118 170.377V177.12C146.113 177.939 145.925 178.746 145.567 179.482C145.239 180.251 144.683 180.902 143.973 181.345L137.558 185.051C137.169 185.277 136.728 185.399 136.278 185.406ZM131.765 162.793L134.015 161.481V157.119L131.765 162.793Z" fill="#E0E0E0"/>
<path d="M163.654 169.005H163.26C161.189 168.949 159.222 168.082 157.783 166.59C156.3 164.964 155.263 162.982 154.772 160.837C154.144 158.356 153.789 155.813 153.716 153.254C153.65 151.227 153.617 148.997 153.617 146.615C153.617 144.234 153.617 141.912 153.716 139.714C153.823 136.802 154.17 133.904 154.752 131.048C155.331 128.161 156.242 125.349 157.468 122.671C158.668 120.03 160.212 117.56 162.06 115.324C163.958 113.043 166.249 111.119 168.823 109.643C171.408 108.147 173.638 107.426 175.652 107.426H176.046C178.116 107.488 180.081 108.353 181.523 109.84C183.004 111.468 184.04 113.449 184.534 115.593C185.162 118.075 185.516 120.618 185.591 123.176C185.656 125.348 185.689 127.631 185.689 129.973C185.689 132.314 185.689 134.565 185.591 136.716C185.48 139.628 185.133 142.526 184.554 145.382C183.969 148.267 183.055 151.075 181.832 153.753C180.632 156.394 179.088 158.864 177.24 161.1C175.34 163.381 173.05 165.307 170.476 166.787C167.898 168.276 165.661 169.005 163.654 169.005ZM171.874 123.983C171.374 124.044 170.896 124.226 170.483 124.515C169.725 124.946 169.057 125.518 168.515 126.201C167.965 126.91 167.523 127.697 167.203 128.536C166.84 129.486 166.576 130.471 166.416 131.475C166.226 132.611 166.119 133.76 166.094 134.912C165.93 139.143 165.93 143.361 166.094 147.481C166.113 148.502 166.212 149.52 166.39 150.525C166.464 151.082 166.661 151.615 166.967 152.086C167.018 152.168 167.087 152.236 167.169 152.287C167.251 152.337 167.343 152.367 167.439 152.375C167.953 152.326 168.446 152.145 168.869 151.85C169.626 151.415 170.294 150.841 170.837 150.158C171.402 149.44 171.859 148.645 172.195 147.796C172.567 146.86 172.831 145.885 172.982 144.89C173.151 143.749 173.249 142.599 173.278 141.446C173.409 137.149 173.409 132.918 173.278 128.87C173.231 127.86 173.117 126.854 172.936 125.859C172.853 125.287 172.655 124.738 172.353 124.246C172.31 124.172 172.25 124.11 172.178 124.064C172.106 124.018 172.024 123.991 171.939 123.983H171.874Z" fill="#E0E0E0"/>
<path d="M208.218 143.867C207.615 143.867 207.036 143.632 206.605 143.211C206.299 142.896 206.062 142.521 205.908 142.11C205.755 141.699 205.688 141.261 205.712 140.823V135.969L192.737 143.46C192.353 143.693 191.913 143.818 191.464 143.821C190.861 143.824 190.28 143.588 189.85 143.165C189.544 142.85 189.307 142.476 189.154 142.065C189 141.654 188.933 141.215 188.958 140.777V132.754C188.945 131.327 189.197 129.911 189.699 128.575L204.354 91.6623C204.611 90.9642 204.957 90.3026 205.384 89.6943C205.793 89.1812 206.296 88.7514 206.867 88.4283L214.267 84.1577C214.663 83.9197 215.117 83.7949 215.579 83.7969C216.18 83.7947 216.758 84.0305 217.186 84.4529C217.493 84.7671 217.731 85.1416 217.886 85.5526C218.04 85.9636 218.108 86.4022 218.085 86.8407V112.969L219.843 111.959C220.226 111.725 220.666 111.6 221.115 111.598C221.716 111.601 222.292 111.836 222.722 112.254C223.03 112.571 223.268 112.948 223.423 113.361C223.577 113.774 223.645 114.215 223.621 114.655V122.671C223.617 123.489 223.431 124.296 223.077 125.033C222.747 125.801 222.191 126.451 221.483 126.896L218.085 128.864V135.608C218.079 136.425 217.893 137.232 217.54 137.969C217.21 138.74 216.651 139.39 215.939 139.832L209.524 143.539C209.125 143.762 208.675 143.875 208.218 143.867ZM203.712 121.255L205.962 119.943V115.58L203.712 121.255Z" fill="#E0E0E0"/>
<path d="M155.253 158.291C155.204 158.242 155.149 158.2 155.089 158.167L150.11 155.293V131.677C150.129 131.46 150.104 131.241 150.036 131.034C149.968 130.826 149.86 130.635 149.716 130.47L149.559 130.352L144.238 127.263C144.116 127.198 143.979 127.168 143.841 127.177C143.703 127.187 143.57 127.234 143.458 127.315L136.058 131.586C135.672 131.8 135.331 132.088 135.054 132.432C134.716 132.913 134.445 133.439 134.248 133.993L119.593 170.893C119.151 172.044 118.928 173.268 118.937 174.501V182.498C118.916 182.715 118.941 182.934 119.009 183.142C119.076 183.35 119.186 183.541 119.33 183.705C119.379 183.754 119.434 183.796 119.494 183.829L124.814 186.906C124.936 186.97 125.073 186.999 125.21 186.988C125.347 186.978 125.478 186.929 125.588 186.847L135.717 181.055V182.596C135.699 182.813 135.723 183.031 135.79 183.238C135.856 183.446 135.963 183.638 136.104 183.803L136.262 183.921L141.595 186.998C141.716 187.063 141.852 187.093 141.989 187.083C142.126 187.074 142.258 187.026 142.369 186.945L148.785 183.239C149.202 182.961 149.527 182.563 149.716 182.098C149.971 181.581 150.105 181.014 150.11 180.438V172.73L154.321 170.296C154.742 170.021 155.067 169.622 155.253 169.155C155.507 168.638 155.642 168.071 155.646 167.495V159.498C155.665 159.281 155.64 159.062 155.573 158.855C155.505 158.647 155.396 158.456 155.253 158.291Z" fill="#FD747C" fill-opacity="0.54"/>
<path opacity="0.15" d="M140.352 135.529V135.621C140.049 136.084 139.798 136.579 139.604 137.097L124.955 173.997C124.764 174.487 124.619 174.995 124.522 175.512L119.156 172.416C119.257 171.906 119.399 171.406 119.583 170.92L134.231 134.02C134.434 133.467 134.708 132.942 135.045 132.459L140.352 135.529Z" fill="black"/>
<path opacity="0.3" d="M124.766 186.894C124.162 186.546 119.721 183.981 119.518 183.863C119.458 183.825 119.403 183.781 119.354 183.732C119.209 183.568 119.1 183.377 119.032 183.169C118.964 182.961 118.94 182.742 118.96 182.525V174.535C118.962 173.83 119.032 173.127 119.17 172.436L124.497 175.512C124.357 176.203 124.289 176.907 124.293 177.611V185.608C124.274 185.824 124.299 186.041 124.365 186.247C124.432 186.454 124.539 186.644 124.68 186.809L124.766 186.894Z" fill="black"/>
<path opacity="0.3" d="M141.292 151.875V165.756L136.805 163.165L141.292 151.875Z" fill="black"/>
<path opacity="0.4" d="M141.29 165.757L134.133 169.883L136.803 163.166L141.29 165.757Z" fill="black"/>
<path opacity="0.3" d="M141.44 186.867L141.532 186.946L136.284 183.915C136.225 183.883 136.172 183.841 136.127 183.791C135.983 183.627 135.873 183.435 135.806 183.228C135.738 183.02 135.713 182.801 135.733 182.584V181.055L141.06 177.979V185.647C141.037 185.866 141.058 186.087 141.124 186.297C141.189 186.507 141.297 186.701 141.44 186.867Z" fill="black"/>
<path opacity="0.15" d="M155.029 158.141C154.914 158.096 154.79 158.081 154.668 158.096C154.545 158.111 154.428 158.156 154.327 158.227L150.109 160.66V155.301L155.029 158.141Z" fill="black"/>
<path opacity="0.4" d="M149.527 130.347C149.408 130.293 149.277 130.271 149.147 130.284C149.017 130.297 148.893 130.343 148.786 130.419L141.393 134.689C141.009 134.904 140.668 135.189 140.389 135.529L135.062 132.452C135.339 132.112 135.677 131.827 136.06 131.613L143.459 127.342C143.571 127.26 143.704 127.213 143.843 127.204C143.981 127.196 144.119 127.228 144.24 127.296L149.527 130.347Z" fill="black"/>
<path d="M142.366 186.959C142.229 187.063 142.059 187.114 141.888 187.102C141.717 187.09 141.556 187.016 141.435 186.894C141.291 186.73 141.181 186.538 141.114 186.331C141.046 186.123 141.021 185.904 141.041 185.687V177.966L125.605 186.874C125.469 186.979 125.299 187.031 125.127 187.019C124.955 187.007 124.794 186.932 124.674 186.809C124.529 186.645 124.42 186.453 124.352 186.246C124.285 186.038 124.26 185.819 124.28 185.602V177.605C124.272 176.372 124.495 175.148 124.936 173.997L139.572 137.103C139.776 136.552 140.047 136.028 140.379 135.542C140.659 135.201 140.999 134.914 141.382 134.696L148.782 130.425C148.919 130.322 149.089 130.271 149.26 130.283C149.431 130.295 149.592 130.369 149.713 130.491C149.857 130.655 149.966 130.847 150.033 131.054C150.101 131.262 150.126 131.481 150.107 131.698V160.667L154.319 158.233C154.456 158.132 154.626 158.083 154.796 158.095C154.967 158.107 155.128 158.179 155.25 158.299C155.394 158.463 155.502 158.655 155.57 158.862C155.638 159.07 155.663 159.289 155.644 159.506V167.503C155.639 168.078 155.505 168.646 155.25 169.162C155.065 169.63 154.739 170.028 154.319 170.304L150.107 172.737V180.399C150.102 180.975 149.968 181.543 149.713 182.059C149.524 182.524 149.2 182.922 148.782 183.201L142.366 186.959ZM141.284 165.777V151.87L134.133 169.903L141.284 165.777Z" fill="#FD747C" fill-opacity="0.54"/>
<path d="M189.597 126.54C189.529 124.106 189.192 121.686 188.594 119.324C188.166 117.451 187.263 115.72 185.97 114.299C185.582 113.891 185.141 113.538 184.658 113.25C183.772 112.725 179.81 110.449 179.324 110.167C178.395 109.636 177.35 109.341 176.281 109.307C174.531 109.215 172.425 109.871 169.963 111.275C167.554 112.651 165.412 114.448 163.639 116.582C161.875 118.706 160.401 121.056 159.257 123.569C158.075 126.132 157.194 128.825 156.633 131.592C156.069 134.356 155.733 137.162 155.63 139.982C155.564 142.169 155.531 144.449 155.531 146.824C155.531 149.192 155.564 151.383 155.63 153.384C155.697 155.819 156.034 158.239 156.633 160.6C157.06 162.475 157.963 164.209 159.257 165.631C159.646 166.036 160.087 166.387 160.569 166.674C161.461 167.199 165.476 169.515 165.988 169.804C166.9 170.308 167.918 170.589 168.96 170.624C170.718 170.715 172.83 170.053 175.277 168.656C177.683 167.276 179.825 165.479 181.601 163.349C183.363 161.223 184.837 158.874 185.983 156.362C187.165 153.799 188.046 151.106 188.607 148.339C189.171 145.575 189.507 142.769 189.61 139.949C189.676 137.85 189.709 135.619 189.709 133.258C189.709 130.896 189.672 128.657 189.597 126.54ZM170.239 153.351C170.118 152.532 170.046 151.706 170.022 150.878C169.86 146.697 169.86 142.472 170.022 138.204C170.05 136.975 170.164 135.75 170.363 134.537C170.544 133.416 170.841 132.317 171.249 131.257C171.63 130.265 172.159 129.336 172.817 128.502C173.413 127.756 174.132 127.117 174.942 126.613C175.054 127.36 175.133 128.174 175.178 129.059C175.31 133.162 175.31 137.386 175.178 141.733C175.151 142.957 175.044 144.178 174.857 145.387C174.691 146.511 174.396 147.611 173.978 148.667C173.583 149.662 173.046 150.594 172.384 151.436C171.785 152.193 171.059 152.841 170.239 153.351Z" fill="#FD747C" fill-opacity="0.54"/>
<path opacity="0.15" d="M165.864 169.764L160.616 166.72C160.135 166.429 159.694 166.076 159.304 165.67C158.011 164.249 157.107 162.519 156.68 160.646C156.081 158.284 155.745 155.864 155.677 153.43C155.611 151.405 155.578 149.218 155.578 146.87C155.578 144.521 155.611 142.238 155.677 140.021C155.78 137.201 156.116 134.395 156.68 131.631C157.072 129.675 157.625 127.755 158.333 125.891L163.653 128.974C162.952 130.837 162.404 132.755 162.013 134.707C161.444 137.471 161.106 140.278 161.003 143.098C160.938 145.284 160.905 147.567 160.905 149.946C160.905 152.325 160.938 154.512 161.003 156.506C161.07 158.942 161.409 161.362 162.013 163.722C162.439 165.596 163.343 167.327 164.637 168.747C165.001 169.137 165.414 169.479 165.864 169.764Z" fill="black"/>
<path opacity="0.4" d="M184.454 113.126C183.571 112.67 182.6 112.412 181.607 112.372C179.858 112.284 177.75 112.94 175.283 114.34C172.878 115.721 170.739 117.52 168.966 119.653C167.202 121.776 165.726 124.123 164.577 126.633C164.4 127.013 164.236 127.401 164.072 127.794C163.908 128.188 163.777 128.542 163.633 128.922L158.312 125.839C158.437 125.505 158.568 125.183 158.706 124.842C158.883 124.409 159.06 123.983 159.257 123.53C160.407 121.02 161.88 118.672 163.639 116.544C165.417 114.415 167.558 112.618 169.963 111.237C172.41 109.82 174.555 109.164 176.287 109.269C177.354 109.305 178.396 109.6 179.324 110.128C179.783 110.423 183.286 112.437 184.454 113.126Z" fill="black"/>
<path opacity="0.3" d="M180.52 144.83C180.49 146.054 180.382 147.274 180.199 148.484C180.033 149.608 179.738 150.709 179.32 151.764C179.144 152.201 178.94 152.626 178.71 153.037L173.383 149.96C173.609 149.548 173.81 149.123 173.986 148.688C174.404 147.631 174.701 146.531 174.872 145.408C175.053 144.197 175.158 142.977 175.187 141.754C175.318 137.407 175.318 133.182 175.187 129.08C175.141 128.194 175.062 127.381 174.957 126.633C174.957 126.633 175.095 126.535 175.272 126.43C175.99 125.929 176.85 125.671 177.726 125.695C178.04 125.73 178.342 125.832 178.613 125.995C178.884 126.158 179.116 126.378 179.293 126.64C179.736 127.322 180.029 128.092 180.153 128.896C180.346 129.98 180.469 131.076 180.52 132.176C180.66 136.265 180.66 140.483 180.52 144.83Z" fill="black"/>
<path opacity="0.4" d="M178.731 153.018C178.446 153.544 178.117 154.044 177.747 154.514C177.072 155.364 176.239 156.074 175.293 156.606C174.576 157.104 173.719 157.361 172.847 157.341C172.53 157.31 172.224 157.211 171.949 157.052C171.674 156.892 171.437 156.675 171.252 156.416C170.793 155.745 170.493 154.977 170.373 154.173C170.321 153.91 170.282 153.635 170.242 153.353C171.073 152.847 171.808 152.198 172.414 151.437C172.786 150.968 173.117 150.467 173.404 149.941L178.731 153.018Z" fill="black"/>
<path d="M175.272 114.36C177.725 112.943 179.833 112.287 181.596 112.392C183.25 112.433 184.823 113.121 185.978 114.307C187.271 115.728 188.174 117.459 188.602 119.332C189.2 121.693 189.537 124.113 189.605 126.548C189.671 128.674 189.704 130.919 189.704 133.285C189.704 135.651 189.671 137.882 189.605 139.977C189.501 142.796 189.166 145.602 188.602 148.367C188.041 151.134 187.16 153.826 185.978 156.39C184.833 158.888 183.366 161.225 181.615 163.343C179.839 165.474 177.698 167.271 175.291 168.65C172.844 170.067 170.732 170.73 168.974 170.618C167.317 170.578 165.742 169.891 164.585 168.703C163.292 167.28 162.388 165.547 161.961 163.671C161.362 161.31 161.026 158.89 160.958 156.455C160.892 154.428 160.859 152.237 160.859 149.895C160.859 147.553 160.892 145.251 160.958 143.053C161.062 140.234 161.397 137.427 161.961 134.663C162.522 131.896 163.403 129.204 164.585 126.64C165.734 124.128 167.21 121.779 168.974 119.654C170.739 117.526 172.873 115.733 175.272 114.36ZM180.52 144.831C180.651 140.484 180.651 136.259 180.52 132.157C180.472 131.057 180.349 129.961 180.152 128.877C180.031 128.073 179.74 127.304 179.3 126.62C179.124 126.357 178.893 126.135 178.622 125.972C178.351 125.808 178.047 125.707 177.732 125.676C176.857 125.659 175.999 125.916 175.278 126.41C174.335 126.943 173.504 127.653 172.831 128.503C172.173 129.338 171.645 130.266 171.264 131.258C170.856 132.318 170.559 133.417 170.378 134.538C170.178 135.751 170.064 136.976 170.037 138.205C169.875 142.474 169.875 146.698 170.037 150.879C170.056 151.979 170.162 153.076 170.352 154.159C170.47 154.965 170.773 155.733 171.237 156.403C171.421 156.663 171.658 156.881 171.933 157.041C172.208 157.202 172.515 157.302 172.831 157.334C173.704 157.35 174.559 157.094 175.278 156.6C176.221 156.064 177.054 155.353 177.732 154.507C178.389 153.664 178.924 152.732 179.319 151.739C179.739 150.683 180.036 149.582 180.205 148.459C180.385 147.257 180.49 146.046 180.52 144.831Z" fill="#FD747C" fill-opacity="0.54"/>
<path d="M227.206 116.767C227.156 116.717 227.098 116.675 227.036 116.642L222.057 113.769V90.1526C222.076 89.9358 222.051 89.7173 221.985 89.51C221.919 89.3028 221.811 89.1108 221.67 88.9456C221.622 88.9001 221.569 88.8604 221.512 88.8275L216.185 85.7509C216.063 85.686 215.926 85.6565 215.788 85.6657C215.65 85.675 215.517 85.7227 215.405 85.8034L208.005 90.0739C207.619 90.2882 207.278 90.5756 207.001 90.9202C206.668 91.4047 206.397 91.9293 206.195 92.4814L191.546 129.381C191.104 130.533 190.882 131.756 190.89 132.989V140.986C190.869 141.203 190.893 141.422 190.96 141.629C191.026 141.837 191.134 142.029 191.277 142.193C191.328 142.242 191.385 142.284 191.448 142.318L196.768 145.394C196.889 145.459 197.026 145.487 197.163 145.477C197.3 145.466 197.432 145.417 197.542 145.335L207.644 139.504V141.039C207.625 141.256 207.65 141.475 207.718 141.682C207.786 141.89 207.894 142.081 208.038 142.246L208.195 142.364L213.522 145.44C213.643 145.504 213.78 145.533 213.917 145.523C214.053 145.514 214.185 145.467 214.296 145.388L220.738 141.695C221.154 141.414 221.478 141.017 221.67 140.553C221.918 140.035 222.05 139.468 222.057 138.893V131.199L226.275 128.765C226.694 128.487 227.019 128.089 227.206 127.623C227.455 127.105 227.587 126.539 227.593 125.964V117.96C227.627 117.527 227.488 117.098 227.206 116.767Z" fill="#FD747C" fill-opacity="0.54"/>
<path opacity="0.15" d="M212.289 93.9906V94.0824C211.986 94.5454 211.736 95.0404 211.541 95.5584L196.893 132.458C196.701 132.949 196.556 133.456 196.46 133.974L191.094 130.877C191.194 130.368 191.337 129.868 191.52 129.382L206.142 92.4949C206.345 91.9417 206.619 91.4169 206.956 90.9336L212.289 93.9906Z" fill="black"/>
<path opacity="0.3" d="M196.719 145.355C196.115 145.007 191.674 142.442 191.471 142.324C191.411 142.286 191.356 142.242 191.307 142.193C191.162 142.029 191.053 141.838 190.985 141.63C190.917 141.422 190.893 141.203 190.913 140.986V132.996C190.915 132.291 190.985 131.588 191.123 130.896L196.45 133.973C196.31 134.664 196.242 135.367 196.246 136.072V144.069C196.227 144.285 196.252 144.502 196.318 144.708C196.385 144.915 196.492 145.105 196.633 145.269L196.719 145.355Z" fill="black"/>
<path opacity="0.3" d="M213.237 110.338V124.219L208.75 121.628L213.237 110.338Z" fill="black"/>
<path opacity="0.4" d="M213.235 124.218L206.078 128.344L208.748 121.627L213.235 124.218Z" fill="black"/>
<path opacity="0.3" d="M213.378 145.33L213.47 145.408L208.222 142.378C208.162 142.346 208.109 142.303 208.064 142.253C207.92 142.089 207.811 141.898 207.743 141.69C207.676 141.482 207.651 141.263 207.671 141.046V139.504L212.997 136.428V144.123C212.976 144.339 212.998 144.558 213.064 144.765C213.129 144.973 213.236 145.165 213.378 145.33Z" fill="black"/>
<path opacity="0.15" d="M226.975 116.602C226.86 116.557 226.735 116.542 226.613 116.557C226.491 116.572 226.374 116.616 226.273 116.687L222.055 119.121V113.762L226.975 116.602Z" fill="black"/>
<path opacity="0.4" d="M221.47 88.8077C221.351 88.7539 221.22 88.7322 221.09 88.7449C220.96 88.7576 220.835 88.8041 220.729 88.8798L213.323 93.1504C212.938 93.3647 212.598 93.6496 212.319 93.9901L206.992 90.9134C207.269 90.5731 207.607 90.2881 207.989 90.0737L215.389 85.8032C215.501 85.7213 215.634 85.6735 215.773 85.6653C215.911 85.6572 216.049 85.6891 216.17 85.7573L221.47 88.8077Z" fill="black"/>
<path d="M214.309 145.395C214.172 145.499 214.002 145.549 213.831 145.537C213.659 145.525 213.498 145.451 213.377 145.329C213.235 145.164 213.127 144.972 213.061 144.765C212.994 144.558 212.97 144.339 212.99 144.122V136.447L197.574 145.336C197.438 145.441 197.268 145.492 197.096 145.48C196.924 145.468 196.763 145.393 196.643 145.27C196.498 145.106 196.389 144.915 196.321 144.707C196.253 144.5 196.229 144.28 196.249 144.063V136.066C196.241 134.833 196.463 133.61 196.905 132.458L211.554 95.5584C211.755 95.0045 212.028 94.4796 212.367 93.9971C212.627 93.6565 212.95 93.3692 213.318 93.1509L220.718 88.8803C220.855 88.7778 221.025 88.728 221.196 88.74C221.367 88.7521 221.528 88.8251 221.649 88.9459C221.791 89.1112 221.898 89.3031 221.965 89.5104C222.031 89.7176 222.056 89.9361 222.036 90.1529V119.122L226.254 116.688C226.392 116.586 226.561 116.536 226.732 116.548C226.903 116.56 227.064 116.633 227.186 116.754C227.327 116.919 227.434 117.111 227.5 117.319C227.567 117.526 227.591 117.744 227.573 117.961V125.951C227.567 126.526 227.435 127.092 227.186 127.611C226.998 128.077 226.673 128.475 226.254 128.752L222.05 131.199V138.894C222.043 139.469 221.911 140.035 221.662 140.553C221.471 141.017 221.147 141.414 220.731 141.695L214.309 145.395ZM213.233 124.212V110.332L206.102 128.345L213.233 124.212Z" fill="#FD747C" fill-opacity="0.54"/>
<path d="M162.295 191.834C162.324 191.809 162.362 191.796 162.4 191.796C162.438 191.796 162.475 191.809 162.505 191.834C162.538 191.871 162.563 191.915 162.579 191.962C162.594 192.01 162.601 192.06 162.597 192.109V193.92C162.594 194.052 162.562 194.182 162.505 194.3C162.464 194.406 162.39 194.496 162.295 194.556L157.047 197.594C157.017 197.618 156.98 197.632 156.942 197.632C156.904 197.632 156.866 197.618 156.837 197.594C156.805 197.556 156.781 197.512 156.767 197.464C156.752 197.417 156.747 197.367 156.752 197.318V186.304C156.752 186.174 156.781 186.046 156.837 185.93C156.88 185.826 156.953 185.736 157.047 185.674L162.223 182.683C162.252 182.657 162.289 182.643 162.328 182.643C162.366 182.643 162.404 182.657 162.433 182.683C162.465 182.719 162.489 182.762 162.504 182.808C162.519 182.854 162.523 182.903 162.518 182.952V184.769C162.518 184.898 162.489 185.026 162.433 185.143C162.39 185.247 162.317 185.336 162.223 185.399L158.805 187.367V189.21L161.973 187.38C162.004 187.356 162.043 187.343 162.082 187.343C162.121 187.343 162.159 187.356 162.19 187.38C162.222 187.418 162.246 187.462 162.26 187.509C162.275 187.556 162.28 187.606 162.275 187.655V189.466C162.275 189.595 162.246 189.723 162.19 189.84C162.145 189.946 162.07 190.037 161.973 190.102L158.805 191.932V193.848L162.295 191.834Z" fill="#455A64"/>
<path d="M167.457 179.632C167.859 179.381 168.304 179.205 168.769 179.114C169.105 179.041 169.455 179.095 169.753 179.265C170.057 179.467 170.278 179.772 170.376 180.124C170.536 180.646 170.61 181.192 170.593 181.738C170.602 182.525 170.484 183.309 170.245 184.06C170.034 184.731 169.705 185.36 169.274 185.916L170.645 189.196C170.669 189.248 170.68 189.304 170.678 189.36C170.68 189.468 170.655 189.573 170.606 189.669C170.571 189.754 170.512 189.827 170.435 189.879L168.927 190.751C168.782 190.836 168.677 190.843 168.612 190.751C168.55 190.688 168.499 190.615 168.461 190.535L167.221 187.615L166.204 188.199V191.86C166.202 191.99 166.17 192.117 166.112 192.234C166.066 192.338 165.994 192.428 165.902 192.496L164.446 193.329C164.418 193.356 164.38 193.372 164.341 193.372C164.302 193.372 164.264 193.356 164.236 193.329C164.203 193.292 164.179 193.248 164.164 193.201C164.15 193.153 164.145 193.103 164.151 193.054V182C164.151 181.871 164.18 181.743 164.236 181.626C164.279 181.52 164.352 181.429 164.446 181.364L167.457 179.632ZM166.204 185.536L167.457 184.814C167.764 184.634 168.026 184.388 168.225 184.093C168.443 183.744 168.551 183.337 168.533 182.925C168.533 182.446 168.428 182.177 168.225 182.112C168.092 182.086 167.955 182.088 167.823 182.117C167.691 182.146 167.567 182.203 167.457 182.282L166.204 183.023V185.536Z" fill="#455A64"/>
<path d="M175.449 175.014C175.852 174.766 176.296 174.59 176.761 174.496C177.094 174.43 177.44 174.484 177.738 174.647C178.052 174.849 178.285 175.156 178.394 175.513C178.534 176.037 178.587 176.579 178.551 177.12C178.559 177.909 178.444 178.695 178.21 179.449C177.994 180.117 177.663 180.743 177.233 181.299L178.604 184.579C178.629 184.632 178.643 184.69 178.643 184.749C178.641 184.856 178.617 184.961 178.571 185.058C178.532 185.142 178.471 185.215 178.394 185.268L176.885 186.14C176.741 186.225 176.636 186.232 176.57 186.14C176.507 186.076 176.456 186 176.419 185.917L175.212 183.024L174.196 183.615V187.275C174.193 187.405 174.162 187.533 174.104 187.649C174.061 187.753 173.988 187.842 173.894 187.905L172.438 188.745C172.409 188.77 172.371 188.785 172.333 188.785C172.294 188.785 172.256 188.77 172.228 188.745C172.196 188.707 172.172 188.663 172.157 188.615C172.143 188.568 172.138 188.518 172.142 188.469V177.389C172.142 177.258 172.171 177.128 172.228 177.009C172.27 176.904 172.344 176.815 172.438 176.753L175.449 175.014ZM174.196 180.918L175.449 180.19C175.758 180.017 176.021 179.771 176.216 179.475C176.434 179.126 176.541 178.719 176.524 178.308C176.524 177.829 176.419 177.56 176.216 177.494C176.083 177.469 175.947 177.471 175.815 177.5C175.683 177.529 175.558 177.585 175.449 177.665L174.196 178.386V180.918Z" fill="#455A64"/>
<path d="M179.859 176.916C179.881 176.252 179.971 175.592 180.128 174.948C180.28 174.305 180.5 173.68 180.784 173.085C181.073 172.507 181.433 171.967 181.854 171.477C182.265 170.997 182.755 170.591 183.303 170.277C183.735 169.997 184.233 169.836 184.747 169.811C185.137 169.801 185.517 169.934 185.816 170.185C186.129 170.477 186.356 170.849 186.472 171.261C186.64 171.794 186.731 172.348 186.741 172.907C186.741 173.386 186.741 173.898 186.741 174.429C186.741 174.961 186.741 175.472 186.741 175.951C186.719 176.615 186.629 177.274 186.472 177.919C186.322 178.565 186.102 179.191 185.816 179.789C185.53 180.368 185.17 180.908 184.747 181.396C184.335 181.871 183.847 182.275 183.303 182.59C182.869 182.871 182.37 183.036 181.854 183.069C181.464 183.079 181.083 182.946 180.784 182.695C180.476 182.394 180.25 182.019 180.128 181.606C179.96 181.073 179.869 180.518 179.859 179.959C179.859 179.5 179.859 179.002 179.859 178.47C179.859 177.939 179.859 177.414 179.859 176.916ZM184.733 177.06C184.733 176.85 184.733 176.62 184.733 176.365C184.733 176.109 184.733 175.853 184.733 175.59C184.733 175.328 184.733 175.079 184.733 174.836C184.733 174.593 184.733 174.383 184.733 174.18C184.72 173.936 184.68 173.694 184.615 173.458C184.567 173.281 184.474 173.118 184.346 172.986C184.229 172.88 184.078 172.819 183.92 172.816C183.707 172.826 183.5 172.894 183.323 173.012C183.094 173.141 182.889 173.31 182.72 173.511C182.549 173.71 182.406 173.931 182.293 174.167C182.177 174.417 182.089 174.679 182.031 174.948C181.964 175.227 181.925 175.513 181.913 175.8C181.913 176.004 181.913 176.227 181.913 176.456C181.913 176.686 181.913 176.961 181.913 177.224C181.913 177.486 181.913 177.742 181.913 177.985C181.913 178.228 181.913 178.457 181.913 178.641C181.9 179.073 182.034 179.496 182.293 179.841C182.523 180.084 182.864 180.077 183.323 179.809C183.779 179.548 184.137 179.145 184.34 178.661C184.566 178.154 184.704 177.613 184.747 177.06H184.733Z" fill="#455A64"/>
<path d="M191.674 165.639C192.077 165.391 192.521 165.215 192.986 165.121C193.319 165.055 193.665 165.109 193.963 165.272C194.278 165.474 194.51 165.781 194.619 166.138C194.779 166.658 194.852 167.201 194.836 167.745C194.843 168.534 194.728 169.32 194.494 170.074C194.277 170.744 193.946 171.372 193.517 171.93L194.888 175.21C194.913 175.264 194.927 175.322 194.927 175.381C194.925 175.488 194.901 175.593 194.855 175.689C194.816 175.774 194.755 175.846 194.678 175.899L193.169 176.772C193.025 176.857 192.92 176.864 192.854 176.772C192.791 176.707 192.74 176.632 192.704 176.549L191.47 173.603L190.453 174.194V177.854C190.451 177.984 190.42 178.112 190.362 178.228C190.319 178.332 190.246 178.422 190.152 178.484L188.695 179.324C188.666 179.349 188.629 179.364 188.59 179.364C188.552 179.364 188.514 179.349 188.485 179.324C188.454 179.286 188.43 179.242 188.415 179.194C188.401 179.147 188.395 179.097 188.4 179.048V168.014C188.401 167.883 188.43 167.753 188.485 167.634C188.528 167.529 188.601 167.44 188.695 167.378L191.674 165.639ZM190.421 171.543L191.674 170.815C191.983 170.64 192.248 170.395 192.448 170.1C192.663 169.75 192.768 169.343 192.749 168.933C192.749 168.454 192.651 168.185 192.448 168.119C192.314 168.093 192.176 168.095 192.043 168.124C191.91 168.154 191.784 168.21 191.674 168.29L190.421 169.011V171.543Z" fill="#455A64"/>
<path d="M142.279 210.727C142.935 210.333 143.499 210.274 143.88 210.556C144.26 210.838 144.451 211.448 144.451 212.413C144.47 213.289 144.274 214.156 143.88 214.938C143.521 215.643 142.965 216.229 142.279 216.624L140.921 217.405V220.331C140.919 220.429 140.894 220.525 140.849 220.613C140.819 220.695 140.764 220.766 140.692 220.816L140.036 221.21C140.014 221.231 139.984 221.243 139.954 221.243C139.923 221.243 139.894 221.231 139.872 221.21C139.847 221.182 139.829 221.15 139.817 221.115C139.806 221.08 139.802 221.043 139.806 221.006V212.544C139.806 212.444 139.828 212.345 139.872 212.255C139.906 212.175 139.963 212.107 140.036 212.059L142.279 210.727ZM140.921 215.771L142.233 215.011C142.577 214.823 142.86 214.541 143.048 214.198C143.236 213.855 143.322 213.466 143.296 213.075C143.296 212.583 143.198 212.301 143.007 212.223C142.874 212.192 142.735 212.192 142.601 212.221C142.468 212.251 142.342 212.309 142.233 212.393L140.921 213.154V215.771Z" fill="#E0E0E0"/>
<path d="M148.034 207.413C148.12 207.36 148.192 207.354 148.238 207.413C148.299 207.489 148.339 207.579 148.356 207.675L150.442 214.747C150.442 214.747 150.442 214.8 150.442 214.832C150.44 214.932 150.417 215.03 150.376 215.121C150.343 215.202 150.286 215.271 150.212 215.318L149.602 215.672C149.484 215.738 149.405 215.751 149.36 215.672C149.315 215.626 149.284 215.57 149.268 215.508L148.9 214.268L146.224 215.823L145.857 217.483C145.833 217.574 145.802 217.664 145.765 217.752C145.714 217.86 145.629 217.948 145.522 218.001L144.912 218.355C144.889 218.375 144.86 218.386 144.83 218.386C144.8 218.386 144.771 218.375 144.748 218.355C144.699 218.296 144.676 218.221 144.682 218.145C144.679 218.112 144.679 218.079 144.682 218.047L146.775 208.607C146.799 208.469 146.839 208.335 146.893 208.207C146.933 208.109 147.005 208.028 147.096 207.977L148.034 207.413ZM148.5 212.891L147.562 209.696L146.631 213.966L148.5 212.891Z" fill="#E0E0E0"/>
<path d="M151.103 209.028C151.11 208.509 151.172 207.992 151.286 207.486C151.399 207.004 151.564 206.535 151.778 206.089C151.992 205.662 152.261 205.265 152.579 204.908C152.898 204.556 153.269 204.255 153.681 204.016C154.043 203.773 154.465 203.633 154.901 203.609C155.177 203.607 155.446 203.7 155.662 203.872C155.858 204.046 155.997 204.274 156.062 204.528C156.134 204.74 156.178 204.96 156.193 205.184C156.2 205.286 156.18 205.388 156.134 205.479C156.097 205.558 156.038 205.624 155.964 205.669L155.308 206.069C155.249 206.102 155.196 206.109 155.163 206.069C155.125 206.044 155.095 206.007 155.078 205.964C155.053 205.904 155.025 205.845 154.993 205.787C154.937 205.69 154.858 205.609 154.763 205.551C154.637 205.48 154.494 205.446 154.35 205.453C154.116 205.467 153.89 205.541 153.694 205.669C153.25 205.934 152.894 206.324 152.67 206.791C152.41 207.304 152.271 207.869 152.264 208.444C152.264 208.785 152.264 209.146 152.264 209.52C152.264 209.894 152.264 210.255 152.264 210.576C152.264 211.291 152.415 211.744 152.67 211.888C152.832 211.975 153.015 212.012 153.197 211.994C153.379 211.977 153.552 211.906 153.694 211.79C153.903 211.667 154.097 211.519 154.271 211.35C154.452 211.173 154.605 210.97 154.724 210.747C154.862 210.499 154.962 210.231 155.019 209.953C155.096 209.622 155.133 209.283 155.13 208.943V208.838L154.087 209.441C154.065 209.459 154.037 209.469 154.009 209.469C153.98 209.469 153.952 209.459 153.93 209.441C153.905 209.413 153.887 209.379 153.875 209.343C153.864 209.307 153.86 209.269 153.864 209.231V208.3C153.864 208.2 153.886 208.101 153.93 208.011C153.965 207.933 154.019 207.865 154.087 207.814L156.055 206.686C156.076 206.665 156.105 206.654 156.134 206.654C156.164 206.654 156.192 206.665 156.213 206.686C156.239 206.714 156.259 206.747 156.272 206.783C156.284 206.819 156.289 206.858 156.285 206.896V208.333C156.283 208.851 156.228 209.367 156.121 209.874C156.02 210.365 155.857 210.841 155.636 211.291C155.422 211.73 155.151 212.138 154.829 212.505C154.505 212.872 154.124 213.184 153.7 213.43C153.36 213.647 152.974 213.779 152.572 213.817C152.429 213.825 152.285 213.804 152.15 213.756C152.014 213.707 151.89 213.632 151.785 213.535C151.549 213.301 151.383 213.005 151.306 212.682C151.187 212.255 151.125 211.813 151.122 211.37C151.122 211.206 151.122 211.022 151.122 210.825C151.122 210.629 151.122 210.419 151.122 210.209C151.122 209.999 151.122 209.795 151.122 209.592C151.122 209.389 151.096 209.199 151.103 209.028Z" fill="#E0E0E0"/>
<path d="M161.495 207.157C161.517 207.136 161.546 207.124 161.577 207.124C161.607 207.124 161.637 207.136 161.659 207.157C161.685 207.185 161.705 207.218 161.717 207.254C161.73 207.29 161.734 207.329 161.731 207.367V208.292C161.729 208.392 161.705 208.491 161.659 208.581C161.628 208.663 161.57 208.732 161.495 208.777L157.762 210.936C157.74 210.955 157.712 210.966 157.683 210.966C157.654 210.966 157.626 210.955 157.605 210.936C157.578 210.908 157.558 210.875 157.546 210.838C157.533 210.802 157.529 210.764 157.532 210.726V202.27C157.534 202.169 157.559 202.071 157.605 201.981C157.635 201.901 157.69 201.832 157.762 201.784L161.429 199.666C161.452 199.646 161.481 199.635 161.511 199.635C161.541 199.635 161.57 199.646 161.593 199.666C161.618 199.694 161.636 199.728 161.648 199.764C161.659 199.8 161.663 199.838 161.659 199.875V200.807C161.658 200.905 161.636 201.001 161.593 201.089C161.56 201.172 161.503 201.243 161.429 201.292L158.68 202.873V204.959L161.245 203.477C161.268 203.459 161.295 203.449 161.324 203.449C161.353 203.449 161.381 203.459 161.403 203.477C161.428 203.505 161.448 203.538 161.46 203.574C161.473 203.611 161.478 203.649 161.475 203.687V204.671C161.473 204.771 161.449 204.87 161.403 204.959C161.368 205.037 161.314 205.105 161.245 205.156L158.694 206.639V208.817L161.495 207.157Z" fill="#E0E0E0"/>
<path d="M169.015 204.456C168.917 204.515 168.845 204.515 168.799 204.456L168.687 204.338L166.306 200.264V205.656C166.304 205.757 166.28 205.856 166.234 205.945C166.203 206.025 166.148 206.094 166.077 206.142L165.388 206.542C165.366 206.563 165.336 206.575 165.306 206.575C165.275 206.575 165.246 206.563 165.224 206.542C165.199 206.514 165.18 206.48 165.168 206.444C165.157 206.408 165.154 206.37 165.158 206.332V197.876C165.158 197.776 165.18 197.677 165.224 197.588C165.254 197.505 165.312 197.436 165.388 197.391L165.978 197.043C166.077 196.991 166.149 196.984 166.201 197.043C166.242 197.079 166.279 197.118 166.313 197.161L168.694 201.235V195.843C168.694 195.743 168.716 195.644 168.76 195.554C168.793 195.473 168.85 195.404 168.924 195.357L169.58 194.957C169.602 194.936 169.631 194.924 169.662 194.924C169.692 194.924 169.722 194.936 169.744 194.957C169.792 195.016 169.815 195.091 169.809 195.167V203.623C169.806 203.722 169.783 203.82 169.744 203.911C169.71 203.992 169.653 204.061 169.58 204.108L169.015 204.456Z" fill="#E0E0E0"/>
<path d="M171.183 197.455C171.196 196.954 171.256 196.456 171.36 195.966C171.462 195.486 171.619 195.02 171.825 194.575C172.025 194.142 172.283 193.738 172.593 193.375C172.898 193.007 173.267 192.698 173.682 192.463C174.004 192.254 174.375 192.134 174.758 192.115C174.9 192.114 175.041 192.142 175.173 192.196C175.305 192.25 175.425 192.329 175.525 192.43C175.75 192.673 175.911 192.968 175.991 193.29C176.108 193.706 176.172 194.136 176.181 194.569C176.181 194.733 176.181 194.91 176.181 195.113V196.353C176.181 196.556 176.181 196.74 176.181 196.911C176.163 197.411 176.101 197.91 175.998 198.4C175.896 198.88 175.74 199.346 175.532 199.79C175.332 200.224 175.074 200.628 174.764 200.991C174.458 201.351 174.092 201.655 173.682 201.89C173.357 202.102 172.981 202.225 172.593 202.244C172.307 202.245 172.031 202.135 171.825 201.936C171.6 201.693 171.44 201.397 171.36 201.076C171.249 200.659 171.189 200.229 171.183 199.797C171.183 199.64 171.183 199.456 171.183 199.259C171.183 199.062 171.183 198.852 171.183 198.636C171.183 198.419 171.183 198.216 171.183 198.013C171.183 197.809 171.176 197.632 171.183 197.455ZM175.033 195.297C175.066 194.85 174.925 194.408 174.64 194.064C174.498 193.964 174.328 193.913 174.155 193.919C173.982 193.925 173.816 193.987 173.682 194.096C173.262 194.351 172.929 194.726 172.724 195.172C172.469 195.698 172.335 196.274 172.331 196.858C172.331 197.199 172.331 197.567 172.331 197.973C172.331 198.38 172.331 198.747 172.331 199.069C172.31 199.289 172.334 199.512 172.402 199.722C172.47 199.933 172.579 200.128 172.724 200.296C172.967 200.499 173.282 200.486 173.682 200.256C174.098 200.003 174.431 199.634 174.64 199.194C174.887 198.665 175.021 198.091 175.033 197.508C175.033 197.173 175.033 196.799 175.033 196.392C175.033 195.986 175.04 195.631 175.033 195.303V195.297Z" fill="#E0E0E0"/>
<path d="M181.358 188.166C181.381 188.146 181.41 188.135 181.44 188.135C181.47 188.135 181.499 188.146 181.522 188.166C181.547 188.194 181.565 188.228 181.577 188.264C181.588 188.3 181.592 188.338 181.588 188.375V189.307C181.588 189.407 181.566 189.506 181.522 189.596C181.487 189.676 181.43 189.744 181.358 189.792L179.862 190.685V197.861C179.86 197.961 179.838 198.059 179.797 198.15C179.763 198.231 179.706 198.299 179.633 198.347L178.977 198.747C178.954 198.767 178.925 198.778 178.895 198.778C178.865 198.778 178.835 198.767 178.813 198.747C178.788 198.718 178.769 198.685 178.757 198.649C178.746 198.613 178.743 198.575 178.747 198.537V191.354L177.153 192.206C177.131 192.228 177.102 192.24 177.071 192.24C177.04 192.24 177.011 192.228 176.989 192.206C176.964 192.179 176.946 192.147 176.935 192.112C176.923 192.077 176.919 192.04 176.923 192.003V191.072C176.923 190.972 176.945 190.873 176.989 190.783C177.02 190.701 177.078 190.631 177.153 190.586L181.358 188.166Z" fill="#E0E0E0"/>
<path d="M188.456 184.073C188.478 184.054 188.506 184.043 188.535 184.043C188.564 184.043 188.592 184.054 188.614 184.073C188.64 184.101 188.66 184.134 188.673 184.17C188.685 184.206 188.69 184.245 188.686 184.283V185.208C188.684 185.308 188.66 185.407 188.614 185.497C188.583 185.577 188.528 185.646 188.456 185.693L185.767 187.274V189.813L188.312 188.35C188.334 188.331 188.362 188.32 188.391 188.32C188.42 188.32 188.448 188.331 188.469 188.35C188.495 188.379 188.514 188.412 188.527 188.448C188.539 188.484 188.544 188.522 188.542 188.56V189.492C188.54 189.592 188.515 189.691 188.469 189.78C188.439 189.861 188.384 189.929 188.312 189.977L185.767 191.453V194.451C185.767 194.551 185.745 194.65 185.701 194.74C185.67 194.822 185.613 194.891 185.537 194.936L184.848 195.337C184.826 195.356 184.797 195.367 184.766 195.367C184.736 195.367 184.707 195.356 184.684 195.337C184.66 195.308 184.641 195.275 184.63 195.238C184.618 195.202 184.615 195.164 184.619 195.127V186.658C184.618 186.558 184.641 186.459 184.684 186.369C184.715 186.287 184.773 186.217 184.848 186.172L188.456 184.073Z" fill="#E0E0E0"/>
<path d="M189.612 186.822C189.628 186.321 189.69 185.823 189.796 185.333C189.895 184.854 190.049 184.387 190.255 183.942C190.457 183.51 190.715 183.107 191.023 182.742C191.329 182.376 191.698 182.068 192.112 181.83C192.435 181.62 192.809 181.5 193.194 181.482C193.335 181.482 193.475 181.51 193.606 181.564C193.737 181.618 193.855 181.697 193.955 181.797C194.179 182.042 194.341 182.336 194.427 182.657C194.542 183.074 194.604 183.503 194.611 183.936C194.611 184.1 194.611 184.277 194.611 184.48C194.611 184.684 194.611 184.887 194.611 185.097C194.611 185.307 194.611 185.517 194.611 185.72C194.611 185.924 194.611 186.114 194.611 186.278C194.596 186.779 194.534 187.277 194.427 187.767C194.328 188.247 194.174 188.713 193.968 189.158C193.766 189.591 193.506 189.995 193.194 190.358C192.888 190.718 192.522 191.022 192.112 191.257C191.787 191.471 191.411 191.593 191.023 191.611C190.737 191.611 190.462 191.501 190.255 191.303C190.031 191.061 189.872 190.765 189.796 190.443C189.682 190.026 189.621 189.597 189.612 189.164C189.612 189.007 189.612 188.823 189.612 188.626C189.612 188.429 189.612 188.22 189.612 187.97C189.612 187.721 189.612 187.55 189.612 187.347C189.612 187.144 189.606 186.993 189.612 186.822ZM193.463 184.664C193.483 184.443 193.458 184.22 193.39 184.008C193.323 183.796 193.214 183.6 193.069 183.431C192.827 183.227 192.505 183.241 192.112 183.47C191.694 183.724 191.36 184.096 191.154 184.539C190.899 185.065 190.765 185.641 190.76 186.225C190.76 186.566 190.76 186.934 190.76 187.341C190.76 187.747 190.76 188.115 190.76 188.436C190.74 188.656 190.764 188.879 190.832 189.09C190.899 189.3 191.009 189.495 191.154 189.663C191.397 189.866 191.718 189.853 192.112 189.623C192.528 189.37 192.861 189.001 193.069 188.561C193.324 188.035 193.459 187.459 193.463 186.875C193.463 186.54 193.463 186.166 193.463 185.76C193.463 185.353 193.476 184.992 193.463 184.664Z" fill="#E0E0E0"/>
<path d="M200.55 177.119C200.573 177.099 200.602 177.088 200.632 177.088C200.662 177.088 200.691 177.099 200.714 177.119C200.763 177.177 200.786 177.253 200.779 177.329V182.701C200.78 183.223 200.729 183.744 200.629 184.256C200.54 184.734 200.397 185.201 200.202 185.647C200.004 186.071 199.745 186.464 199.435 186.814C199.13 187.159 198.771 187.452 198.372 187.68C198.052 187.89 197.684 188.014 197.303 188.041C197.163 188.047 197.024 188.026 196.894 187.977C196.763 187.929 196.643 187.854 196.542 187.759C196.314 187.517 196.157 187.218 196.089 186.893C195.981 186.442 195.931 185.979 195.938 185.515V180.143C195.941 180.043 195.966 179.944 196.01 179.854C196.043 179.775 196.098 179.706 196.168 179.657L196.824 179.257C196.847 179.237 196.876 179.226 196.906 179.226C196.936 179.226 196.965 179.237 196.988 179.257C197.037 179.316 197.06 179.391 197.053 179.467V184.768C197.045 185.059 197.078 185.351 197.152 185.634C197.189 185.814 197.281 185.979 197.414 186.106C197.471 186.152 197.536 186.186 197.606 186.206C197.675 186.226 197.749 186.232 197.821 186.224C198.004 186.194 198.18 186.129 198.339 186.034C198.744 185.799 199.07 185.449 199.277 185.03C199.397 184.782 199.485 184.52 199.54 184.249C199.609 183.93 199.642 183.605 199.638 183.279V177.971C199.64 177.871 199.664 177.772 199.71 177.683C199.743 177.602 199.798 177.532 199.868 177.479L200.55 177.119Z" fill="#E0E0E0"/>
<path d="M206.138 183.023C206.04 183.075 205.967 183.082 205.915 183.023C205.874 182.987 205.837 182.948 205.803 182.905L203.422 178.838V184.23C203.423 184.33 203.4 184.429 203.357 184.518C203.324 184.6 203.266 184.668 203.193 184.715L202.504 185.115C202.482 185.135 202.454 185.146 202.425 185.146C202.396 185.146 202.368 185.135 202.346 185.115C202.321 185.087 202.301 185.054 202.289 185.018C202.276 184.982 202.271 184.944 202.274 184.906V176.463C202.277 176.365 202.301 176.268 202.346 176.181C202.379 176.1 202.434 176.03 202.504 175.977L203.101 175.636C203.199 175.584 203.271 175.577 203.324 175.636L203.435 175.754L205.817 179.822V174.429C205.816 174.329 205.839 174.231 205.882 174.141C205.917 174.063 205.971 173.995 206.04 173.944L206.735 173.544C206.757 173.525 206.785 173.516 206.814 173.516C206.842 173.516 206.87 173.525 206.892 173.544C206.918 173.572 206.937 173.605 206.949 173.641C206.962 173.677 206.967 173.716 206.965 173.754V182.209C206.963 182.31 206.938 182.409 206.892 182.498C206.859 182.579 206.805 182.649 206.735 182.701L206.138 183.023Z" fill="#E0E0E0"/>
<path d="M210.83 171.155C211.16 170.944 211.535 170.814 211.925 170.775C212.066 170.767 212.208 170.788 212.341 170.837C212.474 170.885 212.596 170.96 212.699 171.057C212.931 171.298 213.094 171.597 213.171 171.923C213.296 172.372 213.364 172.835 213.375 173.301C213.375 173.957 213.375 174.58 213.375 175.236C213.356 175.777 213.288 176.315 213.171 176.843C213.074 177.33 212.917 177.804 212.706 178.253C212.507 178.675 212.25 179.068 211.945 179.421C211.638 179.768 211.277 180.062 210.875 180.294L208.73 181.533C208.709 181.553 208.681 181.563 208.652 181.563C208.623 181.563 208.595 181.553 208.573 181.533C208.547 181.505 208.528 181.472 208.515 181.436C208.503 181.4 208.498 181.362 208.501 181.323V172.854C208.502 172.754 208.527 172.655 208.573 172.566C208.602 172.484 208.657 172.415 208.73 172.369L210.83 171.155ZM212.227 173.963C212.219 173.719 212.184 173.477 212.122 173.242C212.075 173.065 211.985 172.902 211.859 172.769C211.802 172.713 211.733 172.669 211.657 172.641C211.581 172.613 211.501 172.601 211.42 172.605C211.186 172.613 210.959 172.686 210.764 172.815L209.623 173.471V179.375L210.803 178.719C211.034 178.592 211.238 178.423 211.407 178.221C211.58 178.023 211.723 177.802 211.833 177.565C211.95 177.315 212.038 177.053 212.096 176.784C212.154 176.505 212.189 176.222 212.201 175.938C212.247 175.242 212.247 174.593 212.227 173.963Z" fill="#E0E0E0"/>
</svg>
