<svg width="796" height="796" viewBox="0 0 796 796" fill="none" xmlns="http://www.w3.org/2000/svg">
<line x1="321" y1="-2.18557e-08" x2="321" y2="796" stroke="white" stroke-opacity="0.1"/>
<line x1="338" y1="-2.18557e-08" x2="338" y2="796" stroke="white" stroke-opacity="0.1"/>
<line x1="354" y1="-2.18557e-08" x2="354" y2="796" stroke="white" stroke-opacity="0.1"/>
<line x1="354" y1="-2.18557e-08" x2="354" y2="796" stroke="white" stroke-opacity="0.1"/>
<line x1="370" y1="-2.18557e-08" x2="370" y2="796" stroke="white" stroke-opacity="0.1"/>
<line x1="389" y1="-2.18557e-08" x2="389" y2="796" stroke="white" stroke-opacity="0.1"/>
<line x1="234" y1="-2.18557e-08" x2="234" y2="796" stroke="white" stroke-opacity="0.1"/>
<line x1="251" y1="-2.18557e-08" x2="251" y2="796" stroke="white" stroke-opacity="0.1"/>
<line x1="267" y1="-2.18557e-08" x2="267" y2="796" stroke="white" stroke-opacity="0.1"/>
<line x1="267" y1="-2.18557e-08" x2="267" y2="796" stroke="white" stroke-opacity="0.1"/>
<line x1="283" y1="-2.18557e-08" x2="283" y2="796" stroke="white" stroke-opacity="0.1"/>
<line x1="302" y1="-2.18557e-08" x2="302" y2="796" stroke="white" stroke-opacity="0.1"/>
<line x1="321" y1="-2.18557e-08" x2="321" y2="796" stroke="white" stroke-opacity="0.1"/>
<line x1="338" y1="-2.18557e-08" x2="338" y2="796" stroke="white" stroke-opacity="0.1"/>
<line x1="354" y1="-2.18557e-08" x2="354" y2="796" stroke="white" stroke-opacity="0.1"/>
<line x1="354" y1="-2.18557e-08" x2="354" y2="796" stroke="white" stroke-opacity="0.1"/>
<line x1="370" y1="-2.18557e-08" x2="370" y2="796" stroke="white" stroke-opacity="0.1"/>
<line x1="389" y1="-2.18557e-08" x2="389" y2="796" stroke="white" stroke-opacity="0.1"/>
<line x1="234" y1="-2.18557e-08" x2="234" y2="796" stroke="white" stroke-opacity="0.1"/>
<line x1="251" y1="-2.18557e-08" x2="251" y2="796" stroke="white" stroke-opacity="0.1"/>
<line x1="267" y1="-2.18557e-08" x2="267" y2="796" stroke="white" stroke-opacity="0.1"/>
<line x1="267" y1="-2.18557e-08" x2="267" y2="796" stroke="white" stroke-opacity="0.1"/>
<line x1="283" y1="-2.18557e-08" x2="283" y2="796" stroke="white" stroke-opacity="0.1"/>
<line x1="302" y1="-2.18557e-08" x2="302" y2="796" stroke="white" stroke-opacity="0.1"/>
<line x1="147" y1="-2.18557e-08" x2="147" y2="796" stroke="white" stroke-opacity="0.1"/>
<line x1="164" y1="-2.18557e-08" x2="164" y2="796" stroke="white" stroke-opacity="0.1"/>
<line x1="180" y1="-2.18557e-08" x2="180" y2="796" stroke="white" stroke-opacity="0.1"/>
<line x1="180" y1="-2.18557e-08" x2="180" y2="796" stroke="white" stroke-opacity="0.1"/>
<line x1="196" y1="-2.18557e-08" x2="196" y2="796" stroke="white" stroke-opacity="0.1"/>
<line x1="215" y1="-2.18557e-08" x2="215" y2="796" stroke="white" stroke-opacity="0.1"/>
<line x1="60" y1="-2.18557e-08" x2="60" y2="796" stroke="white" stroke-opacity="0.1"/>
<line x1="77" y1="-2.18557e-08" x2="77" y2="796" stroke="white" stroke-opacity="0.1"/>
<line x1="93" y1="-2.18557e-08" x2="93" y2="796" stroke="white" stroke-opacity="0.1"/>
<line x1="93" y1="-2.18557e-08" x2="93" y2="796" stroke="white" stroke-opacity="0.1"/>
<line x1="109" y1="-2.18557e-08" x2="109" y2="796" stroke="white" stroke-opacity="0.1"/>
<line x1="128" y1="-2.18557e-08" x2="128" y2="796" stroke="white" stroke-opacity="0.1"/>
<line x1="147" y1="-2.18557e-08" x2="147" y2="796" stroke="white" stroke-opacity="0.1"/>
<line x1="164" y1="-2.18557e-08" x2="164" y2="796" stroke="white" stroke-opacity="0.1"/>
<line x1="180" y1="-2.18557e-08" x2="180" y2="796" stroke="white" stroke-opacity="0.1"/>
<line x1="180" y1="-2.18557e-08" x2="180" y2="796" stroke="white" stroke-opacity="0.1"/>
<line x1="196" y1="-2.18557e-08" x2="196" y2="796" stroke="white" stroke-opacity="0.1"/>
<line x1="215" y1="-2.18557e-08" x2="215" y2="796" stroke="white" stroke-opacity="0.1"/>
<line x1="60" y1="-2.18557e-08" x2="60" y2="796" stroke="white" stroke-opacity="0.1"/>
<line x1="77" y1="-2.18557e-08" x2="77" y2="796" stroke="white" stroke-opacity="0.1"/>
<line x1="93" y1="-2.18557e-08" x2="93" y2="796" stroke="white" stroke-opacity="0.1"/>
<line x1="93" y1="-2.18557e-08" x2="93" y2="796" stroke="white" stroke-opacity="0.1"/>
<line x1="109" y1="-2.18557e-08" x2="109" y2="796" stroke="white" stroke-opacity="0.1"/>
<line x1="128" y1="-2.18557e-08" x2="128" y2="796" stroke="white" stroke-opacity="0.1"/>
<line x1="669" y1="-2.18557e-08" x2="669" y2="796" stroke="white" stroke-opacity="0.1"/>
<line x1="686" y1="-2.18557e-08" x2="686" y2="796" stroke="white" stroke-opacity="0.1"/>
<line x1="702" y1="-2.18557e-08" x2="702" y2="796" stroke="white" stroke-opacity="0.1"/>
<line x1="702" y1="-2.18557e-08" x2="702" y2="796" stroke="white" stroke-opacity="0.1"/>
<line x1="718" y1="-2.18557e-08" x2="718" y2="796" stroke="white" stroke-opacity="0.1"/>
<line x1="737" y1="-2.18557e-08" x2="737" y2="796" stroke="white" stroke-opacity="0.1"/>
<line x1="582" y1="-2.18557e-08" x2="582" y2="796" stroke="white" stroke-opacity="0.1"/>
<line x1="599" y1="-2.18557e-08" x2="599" y2="796" stroke="white" stroke-opacity="0.1"/>
<line x1="615" y1="-2.18557e-08" x2="615" y2="796" stroke="white" stroke-opacity="0.1"/>
<line x1="615" y1="-2.18557e-08" x2="615" y2="796" stroke="white" stroke-opacity="0.1"/>
<line x1="631" y1="-2.18557e-08" x2="631" y2="796" stroke="white" stroke-opacity="0.1"/>
<line x1="650" y1="-2.18557e-08" x2="650" y2="796" stroke="white" stroke-opacity="0.1"/>
<line x1="669" y1="-2.18557e-08" x2="669" y2="796" stroke="white" stroke-opacity="0.1"/>
<line x1="686" y1="-2.18557e-08" x2="686" y2="796" stroke="white" stroke-opacity="0.1"/>
<line x1="702" y1="-2.18557e-08" x2="702" y2="796" stroke="white" stroke-opacity="0.1"/>
<line x1="702" y1="-2.18557e-08" x2="702" y2="796" stroke="white" stroke-opacity="0.1"/>
<line x1="718" y1="-2.18557e-08" x2="718" y2="796" stroke="white" stroke-opacity="0.1"/>
<line x1="737" y1="-2.18557e-08" x2="737" y2="796" stroke="white" stroke-opacity="0.1"/>
<line x1="582" y1="-2.18557e-08" x2="582" y2="796" stroke="white" stroke-opacity="0.1"/>
<line x1="599" y1="-2.18557e-08" x2="599" y2="796" stroke="white" stroke-opacity="0.1"/>
<line x1="615" y1="-2.18557e-08" x2="615" y2="796" stroke="white" stroke-opacity="0.1"/>
<line x1="615" y1="-2.18557e-08" x2="615" y2="796" stroke="white" stroke-opacity="0.1"/>
<line x1="631" y1="-2.18557e-08" x2="631" y2="796" stroke="white" stroke-opacity="0.1"/>
<line x1="650" y1="-2.18557e-08" x2="650" y2="796" stroke="white" stroke-opacity="0.1"/>
<line x1="495" y1="-2.18557e-08" x2="495" y2="796" stroke="white" stroke-opacity="0.1"/>
<line x1="512" y1="-2.18557e-08" x2="512" y2="796" stroke="white" stroke-opacity="0.1"/>
<line x1="528" y1="-2.18557e-08" x2="528" y2="796" stroke="white" stroke-opacity="0.1"/>
<line x1="528" y1="-2.18557e-08" x2="528" y2="796" stroke="white" stroke-opacity="0.1"/>
<line x1="544" y1="-2.18557e-08" x2="544" y2="796" stroke="white" stroke-opacity="0.1"/>
<line x1="563" y1="-2.18557e-08" x2="563" y2="796" stroke="white" stroke-opacity="0.1"/>
<line x1="408" y1="-2.18557e-08" x2="408" y2="796" stroke="white" stroke-opacity="0.1"/>
<line x1="425" y1="-2.18557e-08" x2="425" y2="796" stroke="white" stroke-opacity="0.1"/>
<line x1="441" y1="-2.18557e-08" x2="441" y2="796" stroke="white" stroke-opacity="0.1"/>
<line x1="441" y1="-2.18557e-08" x2="441" y2="796" stroke="white" stroke-opacity="0.1"/>
<line x1="457" y1="-2.18557e-08" x2="457" y2="796" stroke="white" stroke-opacity="0.1"/>
<line x1="476" y1="-2.18557e-08" x2="476" y2="796" stroke="white" stroke-opacity="0.1"/>
<line x1="495" y1="-2.18557e-08" x2="495" y2="796" stroke="white" stroke-opacity="0.1"/>
<line x1="512" y1="-2.18557e-08" x2="512" y2="796" stroke="white" stroke-opacity="0.1"/>
<line x1="528" y1="-2.18557e-08" x2="528" y2="796" stroke="white" stroke-opacity="0.1"/>
<line x1="528" y1="-2.18557e-08" x2="528" y2="796" stroke="white" stroke-opacity="0.1"/>
<line x1="544" y1="-2.18557e-08" x2="544" y2="796" stroke="white" stroke-opacity="0.1"/>
<line x1="563" y1="-2.18557e-08" x2="563" y2="796" stroke="white" stroke-opacity="0.1"/>
<line x1="408" y1="-2.18557e-08" x2="408" y2="796" stroke="white" stroke-opacity="0.1"/>
<line x1="425" y1="-2.18557e-08" x2="425" y2="796" stroke="white" stroke-opacity="0.1"/>
<line x1="441" y1="-2.18557e-08" x2="441" y2="796" stroke="white" stroke-opacity="0.1"/>
<line x1="441" y1="-2.18557e-08" x2="441" y2="796" stroke="white" stroke-opacity="0.1"/>
<line x1="457" y1="-2.18557e-08" x2="457" y2="796" stroke="white" stroke-opacity="0.1"/>
<line x1="476" y1="-2.18557e-08" x2="476" y2="796" stroke="white" stroke-opacity="0.1"/>
<line x1="796" y1="321" y2="321" stroke="white" stroke-opacity="0.1"/>
<line x1="796" y1="338" y2="338" stroke="white" stroke-opacity="0.1"/>
<line x1="796" y1="354" y2="354" stroke="white" stroke-opacity="0.1"/>
<line x1="796" y1="354" y2="354" stroke="white" stroke-opacity="0.1"/>
<line x1="796" y1="370" y2="370" stroke="white" stroke-opacity="0.1"/>
<line x1="796" y1="389" y2="389" stroke="white" stroke-opacity="0.1"/>
<line x1="796" y1="234" y2="234" stroke="white" stroke-opacity="0.1"/>
<line x1="796" y1="251" y2="251" stroke="white" stroke-opacity="0.1"/>
<line x1="796" y1="267" y2="267" stroke="white" stroke-opacity="0.1"/>
<line x1="796" y1="267" y2="267" stroke="white" stroke-opacity="0.1"/>
<line x1="796" y1="283" y2="283" stroke="white" stroke-opacity="0.1"/>
<line x1="796" y1="302" y2="302" stroke="white" stroke-opacity="0.1"/>
<line x1="796" y1="321" y2="321" stroke="white" stroke-opacity="0.1"/>
<line x1="796" y1="338" y2="338" stroke="white" stroke-opacity="0.1"/>
<line x1="796" y1="354" y2="354" stroke="white" stroke-opacity="0.1"/>
<line x1="796" y1="354" y2="354" stroke="white" stroke-opacity="0.1"/>
<line x1="796" y1="370" y2="370" stroke="white" stroke-opacity="0.1"/>
<line x1="796" y1="389" y2="389" stroke="white" stroke-opacity="0.1"/>
<line x1="796" y1="234" y2="234" stroke="white" stroke-opacity="0.1"/>
<line x1="796" y1="251" y2="251" stroke="white" stroke-opacity="0.1"/>
<line x1="796" y1="267" y2="267" stroke="white" stroke-opacity="0.1"/>
<line x1="796" y1="267" y2="267" stroke="white" stroke-opacity="0.1"/>
<line x1="796" y1="283" y2="283" stroke="white" stroke-opacity="0.1"/>
<line x1="796" y1="302" y2="302" stroke="white" stroke-opacity="0.1"/>
<line x1="796" y1="147" y2="147" stroke="white" stroke-opacity="0.1"/>
<line x1="796" y1="164" y2="164" stroke="white" stroke-opacity="0.1"/>
<line x1="796" y1="180" y2="180" stroke="white" stroke-opacity="0.1"/>
<line x1="796" y1="180" y2="180" stroke="white" stroke-opacity="0.1"/>
<line x1="796" y1="196" y2="196" stroke="white" stroke-opacity="0.1"/>
<line x1="796" y1="215" y2="215" stroke="white" stroke-opacity="0.1"/>
<line x1="796" y1="60" y2="60" stroke="white" stroke-opacity="0.1"/>
<line x1="796" y1="77" y2="77" stroke="white" stroke-opacity="0.1"/>
<line x1="796" y1="93" y2="93" stroke="white" stroke-opacity="0.1"/>
<line x1="796" y1="93" y2="93" stroke="white" stroke-opacity="0.1"/>
<line x1="796" y1="109" y2="109" stroke="white" stroke-opacity="0.1"/>
<line x1="796" y1="128" y2="128" stroke="white" stroke-opacity="0.1"/>
<line x1="796" y1="147" y2="147" stroke="white" stroke-opacity="0.1"/>
<line x1="796" y1="164" y2="164" stroke="white" stroke-opacity="0.1"/>
<line x1="796" y1="180" y2="180" stroke="white" stroke-opacity="0.1"/>
<line x1="796" y1="180" y2="180" stroke="white" stroke-opacity="0.1"/>
<line x1="796" y1="196" y2="196" stroke="white" stroke-opacity="0.1"/>
<line x1="796" y1="215" y2="215" stroke="white" stroke-opacity="0.1"/>
<line x1="796" y1="60" y2="60" stroke="white" stroke-opacity="0.1"/>
<line x1="796" y1="77" y2="77" stroke="white" stroke-opacity="0.1"/>
<line x1="796" y1="93" y2="93" stroke="white" stroke-opacity="0.1"/>
<line x1="796" y1="93" y2="93" stroke="white" stroke-opacity="0.1"/>
<line x1="796" y1="109" y2="109" stroke="white" stroke-opacity="0.1"/>
<line x1="796" y1="128" y2="128" stroke="white" stroke-opacity="0.1"/>
<line x1="796" y1="669" y2="669" stroke="white" stroke-opacity="0.1"/>
<line x1="796" y1="686" y2="686" stroke="white" stroke-opacity="0.1"/>
<line x1="796" y1="702" y2="702" stroke="white" stroke-opacity="0.1"/>
<line x1="796" y1="702" y2="702" stroke="white" stroke-opacity="0.1"/>
<line x1="796" y1="718" y2="718" stroke="white" stroke-opacity="0.1"/>
<line x1="796" y1="737" y2="737" stroke="white" stroke-opacity="0.1"/>
<line x1="796" y1="582" y2="582" stroke="white" stroke-opacity="0.1"/>
<line x1="796" y1="599" y2="599" stroke="white" stroke-opacity="0.1"/>
<line x1="796" y1="615" y2="615" stroke="white" stroke-opacity="0.1"/>
<line x1="796" y1="615" y2="615" stroke="white" stroke-opacity="0.1"/>
<line x1="796" y1="631" y2="631" stroke="white" stroke-opacity="0.1"/>
<line x1="796" y1="650" y2="650" stroke="white" stroke-opacity="0.1"/>
<line x1="796" y1="669" y2="669" stroke="white" stroke-opacity="0.1"/>
<line x1="796" y1="686" y2="686" stroke="white" stroke-opacity="0.1"/>
<line x1="796" y1="702" y2="702" stroke="white" stroke-opacity="0.1"/>
<line x1="796" y1="702" y2="702" stroke="white" stroke-opacity="0.1"/>
<line x1="796" y1="718" y2="718" stroke="white" stroke-opacity="0.1"/>
<line x1="796" y1="737" y2="737" stroke="white" stroke-opacity="0.1"/>
<line x1="796" y1="582" y2="582" stroke="white" stroke-opacity="0.1"/>
<line x1="796" y1="599" y2="599" stroke="white" stroke-opacity="0.1"/>
<line x1="796" y1="615" y2="615" stroke="white" stroke-opacity="0.1"/>
<line x1="796" y1="615" y2="615" stroke="white" stroke-opacity="0.1"/>
<line x1="796" y1="631" y2="631" stroke="white" stroke-opacity="0.1"/>
<line x1="796" y1="650" y2="650" stroke="white" stroke-opacity="0.1"/>
<line x1="796" y1="495" y2="495" stroke="white" stroke-opacity="0.1"/>
<line x1="796" y1="512" y2="512" stroke="white" stroke-opacity="0.1"/>
<line x1="796" y1="528" y2="528" stroke="white" stroke-opacity="0.1"/>
<line x1="796" y1="528" y2="528" stroke="white" stroke-opacity="0.1"/>
<line x1="796" y1="544" y2="544" stroke="white" stroke-opacity="0.1"/>
<line x1="796" y1="563" y2="563" stroke="white" stroke-opacity="0.1"/>
<line x1="796" y1="408" y2="408" stroke="white" stroke-opacity="0.1"/>
<line x1="796" y1="425" y2="425" stroke="white" stroke-opacity="0.1"/>
<line x1="796" y1="441" y2="441" stroke="white" stroke-opacity="0.1"/>
<line x1="796" y1="441" y2="441" stroke="white" stroke-opacity="0.1"/>
<line x1="796" y1="457" y2="457" stroke="white" stroke-opacity="0.1"/>
<line x1="796" y1="476" y2="476" stroke="white" stroke-opacity="0.1"/>
<line x1="796" y1="495" y2="495" stroke="white" stroke-opacity="0.1"/>
<line x1="796" y1="512" y2="512" stroke="white" stroke-opacity="0.1"/>
<line x1="796" y1="528" y2="528" stroke="white" stroke-opacity="0.1"/>
<line x1="796" y1="528" y2="528" stroke="white" stroke-opacity="0.1"/>
<line x1="796" y1="544" y2="544" stroke="white" stroke-opacity="0.1"/>
<line x1="796" y1="563" y2="563" stroke="white" stroke-opacity="0.1"/>
<line x1="796" y1="408" y2="408" stroke="white" stroke-opacity="0.1"/>
<line x1="796" y1="425" y2="425" stroke="white" stroke-opacity="0.1"/>
<line x1="796" y1="441" y2="441" stroke="white" stroke-opacity="0.1"/>
<line x1="796" y1="441" y2="441" stroke="white" stroke-opacity="0.1"/>
<line x1="796" y1="457" y2="457" stroke="white" stroke-opacity="0.1"/>
<line x1="796" y1="476" y2="476" stroke="white" stroke-opacity="0.1"/>
</svg>
