<svg width="489" height="489" viewBox="0 0 489 489" fill="none" xmlns="http://www.w3.org/2000/svg">
<g filter="url(#filter0_i_538_9198)">
<rect x="17" y="67" width="461" height="284" rx="30" fill="#D9D9D9" fill-opacity="0.1"/>
</g>
<path d="M341.496 274.564L147.5 386.545C145.904 387.466 144.095 387.95 142.253 387.95C140.411 387.95 138.601 387.466 137.006 386.545L126.766 380.677C126.191 380.346 125.714 379.87 125.382 379.295C125.05 378.721 124.875 378.069 124.875 377.406C124.875 376.743 125.05 376.091 125.382 375.517C125.714 374.942 126.191 374.466 126.766 374.135L320.782 262.105C322.376 261.186 324.184 260.703 326.024 260.703C327.864 260.703 329.672 261.186 331.266 262.105L341.506 268.022C342.078 268.356 342.552 268.834 342.881 269.408C343.21 269.983 343.383 270.634 343.382 271.296C343.381 271.958 343.206 272.608 342.875 273.182C342.544 273.756 342.069 274.232 341.496 274.564Z" fill="#E0E0E0"/>
<path d="M134.726 158.778L331.539 45.1638C333.798 43.8631 335.823 43.9609 337.261 45.1638L344.107 49.8778L339.363 55.6089V214.289C339.363 220.108 335.833 226.857 331.471 229.38L136.653 341.85L136.291 348.041L129.113 343.151C127.685 342.075 126.805 339.953 126.805 337.048V173.859C126.834 168.04 130.365 161.292 134.726 158.778Z" fill="#FD747C" fill-opacity="0.4"/>
<path opacity="0.4" d="M134.726 158.778L331.539 45.1638C333.798 43.8631 335.823 43.9609 337.261 45.1638L344.107 49.8778L339.363 55.6089V214.289C339.363 220.108 335.833 226.857 331.471 229.38L136.653 341.85L136.291 348.041L129.113 343.151C127.685 342.075 126.805 339.953 126.805 337.048V173.859C126.834 168.04 130.365 161.292 134.726 158.778Z" fill="white"/>
<path d="M133.535 341.625V178.465C133.619 175.166 134.531 171.941 136.186 169.086L129.154 165.057C127.703 167.769 126.909 170.784 126.836 173.859V337.018C126.836 339.952 127.716 342.045 129.144 343.121L135.755 347.649C134.386 346.554 133.535 344.471 133.535 341.625Z" fill="#FD747C" fill-opacity="0.4"/>
<path opacity="0.2" d="M133.535 341.625V178.465C133.619 175.166 134.531 171.941 136.186 169.086L129.154 165.057C127.703 167.769 126.909 170.784 126.836 173.859V337.018C126.836 339.952 127.716 342.045 129.144 343.121L135.755 347.649C134.386 346.554 133.535 344.471 133.535 341.625Z" fill="white"/>
<path d="M141.424 347.6L338.197 233.986C342.559 231.472 346.09 224.714 346.09 218.905V55.7453C346.09 49.936 342.559 47.2661 338.197 49.7795L141.424 163.384C137.062 165.907 133.531 172.655 133.531 178.465V341.624C133.531 347.444 137.062 350.123 141.424 347.6Z" fill="#FD747C" fill-opacity="0.4"/>
<path d="M141.424 347.6L338.197 233.986C342.559 231.472 346.09 224.714 346.09 218.905V55.7453C346.09 49.936 342.559 47.2661 338.197 49.7795L141.424 163.384C137.062 165.907 133.531 172.655 133.531 178.465V341.624C133.531 347.444 137.062 350.123 141.424 347.6Z" fill="#FD747C" fill-opacity="0.4"/>
<path opacity="0.7" d="M141.424 347.6L338.197 233.986C342.559 231.472 346.09 224.714 346.09 218.905V55.7453C346.09 49.936 342.559 47.2661 338.197 49.7795L141.424 163.384C137.062 165.907 133.531 172.655 133.531 178.465V341.624C133.531 347.444 137.062 350.123 141.424 347.6Z" fill="white"/>
<path d="M141.424 163.384L338.197 49.7795C342.559 47.2661 346.09 49.936 346.09 55.7453V63.7258L133.531 186.445V178.465C133.531 172.655 137.062 165.907 141.424 163.384Z" fill="#FD747C" fill-opacity="0.4"/>
<path opacity="0.5" d="M141.424 163.384L338.197 49.7795C342.559 47.2661 346.09 49.936 346.09 55.7453V63.7258L133.531 186.445V178.465C133.531 172.655 137.062 165.907 141.424 163.384Z" fill="white"/>
<path d="M341.317 49.6047C343.733 49.6047 345.307 52.0203 345.307 55.7465V218.906C345.307 224.461 341.933 230.936 337.796 233.322L141.042 346.926C140.218 347.449 139.269 347.742 138.294 347.777C135.869 347.777 134.304 345.362 134.304 341.626V178.466C134.304 172.911 137.668 166.446 141.815 164.05L338.589 50.4457C339.415 49.9292 340.363 49.6391 341.337 49.6047M341.337 48.832C340.222 48.8748 339.139 49.2122 338.197 49.81L141.424 163.385C137.062 165.908 133.531 172.657 133.531 178.466V341.626C133.531 345.958 135.487 348.54 138.294 348.54C139.405 348.492 140.484 348.155 141.424 347.562L338.197 233.948C342.559 231.434 346.09 224.676 346.09 218.867V55.7465C346.09 51.4237 344.134 48.832 341.337 48.832Z" fill="#FD747C" fill-opacity="0.4"/>
<path d="M151.244 303.678C150.791 303.679 150.351 303.53 149.992 303.254C149.633 302.979 149.375 302.593 149.257 302.156C149.14 301.718 149.171 301.255 149.344 300.837C149.518 300.419 149.824 300.07 150.217 299.844L209.288 265.741C209.522 265.589 209.784 265.485 210.059 265.437C210.334 265.389 210.616 265.397 210.888 265.462C211.159 265.527 211.415 265.646 211.639 265.813C211.863 265.979 212.05 266.19 212.19 266.432C212.33 266.673 212.419 266.941 212.452 267.218C212.485 267.495 212.461 267.776 212.381 268.044C212.302 268.312 212.169 268.56 211.99 268.775C211.811 268.989 211.591 269.165 211.342 269.292L152.27 303.394C151.961 303.582 151.606 303.68 151.244 303.678Z" fill="#FAFAFA"/>
<path d="M151.246 316.549C150.792 316.554 150.35 316.408 149.989 316.134C149.627 315.86 149.367 315.474 149.25 315.035C149.132 314.597 149.163 314.133 149.339 313.714C149.514 313.296 149.824 312.948 150.219 312.725L234.327 264.138C234.561 264.003 234.819 263.916 235.086 263.881C235.354 263.846 235.626 263.864 235.886 263.933C236.147 264.003 236.391 264.124 236.605 264.288C236.819 264.453 236.999 264.658 237.134 264.891C237.269 265.125 237.356 265.383 237.391 265.651C237.427 265.918 237.409 266.19 237.339 266.451C237.269 266.711 237.148 266.956 236.984 267.17C236.82 267.384 236.615 267.563 236.381 267.698L152.273 316.275C151.961 316.456 151.606 316.55 151.246 316.549Z" fill="#FAFAFA"/>
<path d="M244.683 275.482C244.23 275.487 243.788 275.341 243.426 275.067C243.065 274.793 242.805 274.406 242.687 273.968C242.569 273.53 242.601 273.065 242.776 272.647C242.952 272.229 243.262 271.881 243.657 271.658L301.857 238.054C302.091 237.901 302.353 237.797 302.628 237.749C302.903 237.701 303.185 237.71 303.457 237.774C303.729 237.839 303.984 237.958 304.208 238.125C304.432 238.292 304.62 238.502 304.76 238.744C304.899 238.986 304.988 239.253 305.021 239.531C305.054 239.808 305.03 240.089 304.951 240.357C304.871 240.624 304.738 240.873 304.559 241.087C304.381 241.302 304.16 241.478 303.911 241.604L245.701 275.208C245.391 275.387 245.041 275.482 244.683 275.482Z" fill="#FAFAFA"/>
<path d="M151.244 329.43C150.791 329.431 150.351 329.282 149.992 329.007C149.633 328.731 149.375 328.345 149.257 327.908C149.14 327.471 149.171 327.007 149.344 326.589C149.518 326.171 149.824 325.822 150.217 325.597L225.298 282.252C225.77 281.979 226.331 281.906 226.857 282.047C227.384 282.188 227.832 282.533 228.105 283.005C228.377 283.477 228.451 284.038 228.309 284.564C228.168 285.09 227.824 285.539 227.352 285.811L152.27 329.156C151.958 329.337 151.604 329.431 151.244 329.43Z" fill="#FAFAFA"/>
<path d="M151.244 196.764C150.791 196.764 150.351 196.616 149.992 196.34C149.633 196.065 149.375 195.679 149.257 195.242C149.14 194.804 149.171 194.341 149.344 193.923C149.518 193.505 149.824 193.156 150.217 192.93L209.288 158.827C209.522 158.674 209.784 158.571 210.059 158.523C210.334 158.475 210.616 158.483 210.888 158.548C211.159 158.613 211.415 158.732 211.639 158.899C211.863 159.065 212.05 159.276 212.19 159.518C212.33 159.759 212.419 160.027 212.452 160.304C212.485 160.581 212.461 160.862 212.381 161.13C212.302 161.398 212.169 161.646 211.99 161.861C211.811 162.075 211.591 162.251 211.342 162.377L152.27 196.49C151.958 196.67 151.604 196.765 151.244 196.764Z" fill="#FAFAFA"/>
<path d="M151.244 209.645C150.791 209.645 150.351 209.496 149.992 209.221C149.633 208.946 149.375 208.559 149.257 208.122C149.14 207.685 149.171 207.222 149.344 206.804C149.518 206.386 149.824 206.037 150.217 205.811L234.325 157.234C234.558 157.081 234.821 156.977 235.096 156.929C235.371 156.881 235.653 156.89 235.924 156.954C236.196 157.019 236.452 157.138 236.675 157.305C236.899 157.471 237.087 157.682 237.227 157.924C237.367 158.165 237.456 158.433 237.489 158.71C237.522 158.988 237.498 159.269 237.418 159.536C237.339 159.804 237.206 160.053 237.027 160.267C236.848 160.482 236.627 160.657 236.378 160.784L152.27 209.361C151.961 209.549 151.606 209.647 151.244 209.645Z" fill="#FAFAFA"/>
<path d="M244.681 168.578C244.229 168.578 243.789 168.429 243.429 168.154C243.07 167.879 242.812 167.492 242.695 167.055C242.578 166.618 242.608 166.155 242.782 165.737C242.955 165.319 243.262 164.97 243.654 164.744L301.855 131.14C302.089 130.987 302.351 130.883 302.626 130.835C302.901 130.787 303.183 130.796 303.455 130.86C303.726 130.925 303.982 131.044 304.206 131.211C304.43 131.378 304.617 131.588 304.757 131.83C304.897 132.072 304.986 132.339 305.019 132.617C305.052 132.894 305.028 133.175 304.948 133.443C304.869 133.71 304.736 133.959 304.557 134.173C304.378 134.388 304.158 134.564 303.909 134.69L245.698 168.294C245.392 168.48 245.04 168.578 244.681 168.578Z" fill="#FAFAFA"/>
<path d="M151.246 222.514C150.792 222.519 150.35 222.373 149.989 222.099C149.627 221.825 149.367 221.439 149.25 221.001C149.132 220.562 149.163 220.098 149.339 219.679C149.514 219.261 149.824 218.913 150.219 218.69L225.3 175.345C225.768 175.108 226.31 175.058 226.814 175.208C227.317 175.357 227.744 175.694 228.007 176.148C228.27 176.603 228.349 177.141 228.228 177.652C228.106 178.163 227.793 178.608 227.354 178.895L152.273 222.24C151.961 222.421 151.606 222.515 151.246 222.514Z" fill="#FAFAFA"/>
<path d="M150.29 168.352C150.238 169.375 149.945 170.371 149.435 171.26C148.925 172.149 148.213 172.905 147.356 173.467C145.723 174.445 144.422 173.643 144.422 171.765C144.474 170.742 144.767 169.745 145.277 168.856C145.787 167.968 146.499 167.212 147.356 166.65C148.97 165.701 150.29 166.464 150.29 168.352Z" fill="white"/>
<path d="M160.704 162.348C160.652 163.371 160.359 164.368 159.849 165.257C159.339 166.145 158.627 166.901 157.77 167.463C156.137 168.441 154.836 167.639 154.836 165.761C154.888 164.738 155.181 163.742 155.691 162.853C156.201 161.964 156.913 161.208 157.77 160.646C159.413 159.688 160.704 160.451 160.704 162.348Z" fill="white"/>
<path d="M171.149 156.322C171.097 157.346 170.804 158.342 170.294 159.231C169.784 160.12 169.072 160.876 168.215 161.437C166.582 162.415 165.281 161.613 165.281 159.736C165.334 158.712 165.626 157.716 166.136 156.827C166.646 155.938 167.358 155.182 168.215 154.621C169.8 153.672 171.149 154.435 171.149 156.322Z" fill="white"/>
<path d="M191.836 208.559L187.641 206.74V163.248L191.836 165.067V208.559Z" fill="#FD747C" fill-opacity="0.59"/>
<path opacity="0.6" d="M191.836 208.559L187.641 206.74V163.248L191.836 165.067V208.559Z" fill="black"/>
<path d="M362.487 66.3288L191.836 165.068L187.641 163.249L358.282 64.5195L362.487 66.3288Z" fill="#FD747C" fill-opacity="0.59"/>
<path opacity="0.4" d="M362.487 66.3288L191.836 165.068L187.641 163.249L358.282 64.5195L362.487 66.3288Z" fill="black"/>
<path d="M362.487 109.82L191.836 208.559V165.067L362.487 66.3281V109.82Z" fill="#FD747C" fill-opacity="0.59"/>
<path opacity="0.3" d="M362.487 109.82L191.836 208.559V165.067L362.487 66.3281V109.82Z" fill="black"/>
<path d="M266.321 150.575L253.804 152.163V148.781L266.321 135.981V139.238L254.863 150.772V148.955L266.321 147.318V150.575ZM267.24 156.843L276.2 122.192L279.242 120.445L270.281 155.095L267.24 156.843ZM279.896 142.774V139.517L291.354 127.983V129.8L279.896 131.437V128.18L292.413 126.592V129.974L279.896 142.774Z" fill="white"/>
<path d="M407.664 177.685L411.048 181.724C411.467 185.444 412.267 189.111 413.434 192.668C415.39 198.976 415.058 201.646 415.058 201.646L422.236 201.088L419.371 178.594C419.174 177.091 418.657 175.646 417.855 174.36L416.114 171.553L407.664 177.685Z" fill="#945959"/>
<path d="M411.592 291.611C411.592 291.611 407.083 295.122 407.513 297.195C407.944 299.269 414.975 300.257 418.389 296.217C419.905 294.428 420.98 290.78 421.117 286.33C421.186 284.11 423.983 280.824 421.117 278.506C418.252 276.188 417.108 275.64 416.394 275.934C415.68 276.227 411.592 291.611 411.592 291.611Z" fill="#37474F"/>
<path d="M408.227 274.642L410.877 280.295C410.877 280.295 411.738 288.461 411.591 291.61C411.591 291.61 415.679 294.114 416.892 289.371C417.358 287.119 417.574 284.823 417.537 282.525C417.09 280.935 416.902 279.284 416.98 277.635C417.048 277.125 417.019 276.607 416.892 276.109L415.679 271.121L408.227 274.642Z" fill="#945959"/>
<path d="M371.484 283.972C371.484 283.972 369.851 285.068 368.707 285.879C367.562 286.691 362.77 290.672 369.469 291.894C371.14 292.133 372.843 291.986 374.448 291.466C376.053 290.945 377.518 290.065 378.731 288.892C382.027 285.645 384.413 286.652 385.577 285.361C386.741 284.07 385.89 276.862 384.257 277.195L371.484 283.972Z" fill="#37474F"/>
<path d="M377.059 271.279L377.577 275.944C377.619 276.342 377.555 276.743 377.391 277.108C376.912 278.135 375.524 280.375 371.523 283.954C371.523 283.954 371.455 287.563 376.521 285.822C377.904 285.175 379.215 284.385 380.433 283.465C381.024 283.046 381.513 282.497 381.861 281.861C382.464 280.709 383.257 279.668 384.208 278.781L384.736 271.26L377.059 271.279Z" fill="#945959"/>
<path d="M372.616 192.295C372.616 192.295 371.208 199.288 371.501 212.559C371.687 221.478 371.873 228.148 371.961 231.571C372.008 233.27 372.148 234.964 372.381 236.647L377.037 271.278C378.213 271.901 379.524 272.226 380.856 272.226C382.187 272.226 383.498 271.901 384.675 271.278C384.675 271.278 385.34 263.64 386.103 259.63C386.787 256.08 387.687 245.704 385.888 240.266C385.382 238.687 385.255 237.012 385.516 235.376L390.807 200.491L372.616 192.295Z" fill="#455A64"/>
<path d="M376.234 200.314C376.83 201.89 377.746 203.325 378.925 204.528C380.103 205.732 381.518 206.678 383.08 207.307L386.943 226.143L390.855 200.53L376.234 200.314Z" fill="#37474F"/>
<path d="M374.194 191.934C374.194 191.934 373.216 200.433 380.307 203.748C381.709 204.485 383.202 205.034 384.747 205.381C384.747 205.381 390.546 239.963 391.593 242.545C392.639 245.127 408.219 274.624 408.219 274.624C408.219 274.624 414.38 275.915 415.671 271.113C415.671 271.113 414.312 264.814 412.59 257.939C411.143 252.149 409.441 245.597 406.458 242.389C405.315 241.196 404.686 239.601 404.708 237.949C404.835 232.325 405.089 220.521 405.138 217.342C405.216 213.117 406.791 199.65 404.072 194.212L395.681 186.545L374.194 191.934Z" fill="#455A64"/>
<path d="M368.378 144.491L362.06 140.735C362.06 140.735 358.04 135.66 354.783 131.141C351.527 126.623 350.157 124.295 350.157 124.295C351.181 122.736 351.775 120.935 351.879 119.073C351.879 116.354 351.732 115.063 352.241 114.056C352.749 113.048 352.241 111.982 350.881 112.413C349.522 112.843 348.514 115.767 348.925 117.674L341.336 122.075C341.336 122.075 342.598 125.449 344.338 127.024C344.338 127.024 351.292 143.777 354.011 146.496C356.73 149.215 361.483 152.902 361.483 152.902L368.378 144.491Z" fill="#945959"/>
<path d="M381.355 152.197L368.377 144.49C368.377 144.49 362.372 144.911 361.531 152.872L372.886 161.38L381.355 152.197Z" fill="#FD747C" fill-opacity="0.59"/>
<path opacity="0.2" d="M381.355 152.197L368.377 144.49C368.377 144.49 362.372 144.911 361.531 152.872L372.886 161.38L381.355 152.197Z" fill="black"/>
<path d="M383.869 152.197L392.535 152.628L398.197 152.911L399.175 166.3C399.175 166.3 397.679 174.036 396.535 176.755C395.39 179.474 402.901 190.652 404.124 194.232C404.124 194.232 399.322 194.877 396.887 189.342C395.783 191.994 393.902 194.25 391.491 195.813C389.08 197.375 386.252 198.171 383.38 198.095C376.476 198.095 372.622 192.295 372.622 192.295L374.197 182.515C373.238 179.524 372.708 176.413 372.622 173.273C372.622 173.273 368.71 171.836 369.6 166.046C370.49 160.256 381.336 152.227 381.336 152.227L383.869 152.197Z" fill="#FD747C" fill-opacity="0.59"/>
<path d="M401.57 130.574C401.57 130.574 406.529 126.476 410.812 131.142C416.974 137.86 403.653 151.054 415.468 151.337C415.468 151.337 414.108 152.912 409.521 152.912C404.935 152.912 401.003 148.169 401.785 139.445L401.57 130.574Z" fill="#263238"/>
<path d="M400.001 130.359C400.001 130.359 401.585 129.381 402.192 130.085C402.798 130.789 403.6 136.256 401.791 139.444C400.93 140.951 399.219 138.877 399.219 138.877L400.001 130.359Z" fill="#FD747C" fill-opacity="0.59"/>
<path d="M373.431 131.141C373.431 131.141 373.5 136.803 369.852 135.229C370.152 135.98 370.681 136.617 371.364 137.051C372.047 137.484 372.849 137.692 373.656 137.644C375.661 137.644 376.815 135.688 376.815 134.153L373.431 131.141Z" fill="#263238"/>
<path d="M392.583 138.507C397.835 135.398 399.572 128.619 396.462 123.367C393.352 118.115 386.574 116.379 381.322 119.489C376.07 122.598 374.333 129.377 377.443 134.629C380.553 139.881 387.331 141.617 392.583 138.507Z" fill="#263238"/>
<path d="M401.141 134.154C401.141 140.256 395.693 148.012 389.59 148.012C388.14 148.013 386.703 147.729 385.362 147.174C384.021 146.62 382.803 145.807 381.777 144.781C380.75 143.756 379.936 142.538 379.381 141.198C378.825 139.858 378.539 138.421 378.539 136.97C378.539 130.868 383.488 123.914 389.59 123.914C395.693 123.914 401.141 125.987 401.141 134.154Z" fill="#263238"/>
<path d="M384.25 127.67C384.251 128.953 383.873 130.207 383.161 131.275C382.45 132.342 381.438 133.175 380.254 133.667C379.069 134.159 377.765 134.289 376.506 134.04C375.248 133.791 374.092 133.174 373.184 132.268C372.276 131.361 371.658 130.206 371.407 128.948C371.156 127.69 371.283 126.386 371.774 125.2C372.264 124.015 373.095 123.002 374.162 122.289C375.228 121.576 376.483 121.195 377.765 121.195C379.483 121.195 381.131 121.877 382.347 123.091C383.563 124.305 384.247 125.952 384.25 127.67Z" fill="#263238"/>
<path d="M383.865 146.251V152.198C383.865 152.198 378.309 157.782 383.718 158.271C389.126 158.76 392.52 152.628 392.52 152.628V141.293L383.865 146.251Z" fill="#945959"/>
<path d="M392.431 139.503V139.855C390.475 147.473 385.477 149.136 383.863 149.517L383.805 137.723H392.186L392.431 139.503Z" fill="#703838"/>
<path d="M385.433 122.534C382.661 122.713 380.069 123.967 378.209 126.03C376.35 128.093 375.369 130.8 375.477 133.575C375.379 142.016 376.67 148.451 381.042 148.715C385.413 148.979 395.183 145.038 395.643 134.045C396.103 123.052 388.553 122.25 385.433 122.534Z" fill="#945959"/>
<path d="M381.383 136.971L381.461 141.919L378.547 141.078L381.383 136.971Z" fill="#703838"/>
<path d="M385.737 136.833C385.737 137.024 385.681 137.211 385.575 137.371C385.47 137.53 385.32 137.655 385.144 137.731C384.968 137.806 384.774 137.828 384.586 137.794C384.397 137.76 384.223 137.672 384.085 137.54C383.946 137.408 383.849 137.238 383.806 137.052C383.763 136.865 383.776 136.67 383.842 136.491C383.909 136.312 384.027 136.156 384.181 136.043C384.335 135.93 384.519 135.864 384.71 135.855C384.843 135.848 384.975 135.868 385.1 135.915C385.224 135.961 385.338 136.032 385.434 136.123C385.53 136.215 385.606 136.325 385.658 136.447C385.711 136.569 385.737 136.7 385.737 136.833Z" fill="#263238"/>
<path d="M379.081 136.226C379.081 136.419 379.024 136.609 378.916 136.769C378.809 136.93 378.656 137.056 378.477 137.13C378.299 137.204 378.102 137.223 377.912 137.185C377.722 137.148 377.548 137.054 377.411 136.918C377.275 136.781 377.182 136.607 377.144 136.417C377.106 136.227 377.125 136.03 377.199 135.852C377.273 135.673 377.399 135.52 377.56 135.413C377.72 135.305 377.91 135.248 378.103 135.248C378.362 135.248 378.611 135.351 378.795 135.534C378.978 135.718 379.081 135.967 379.081 136.226Z" fill="#263238"/>
<path d="M376.816 134.153L378.772 132.95C378.772 132.95 378.009 132.178 377.256 132.657C377.042 132.833 376.885 133.071 376.806 133.337C376.728 133.604 376.731 133.888 376.816 134.153Z" fill="#FD747C" fill-opacity="0.59"/>
<path d="M380.805 143.649C381.828 143.155 382.824 142.607 383.788 142.006C383.788 142.006 384.414 143.629 383.093 144.294C382.696 144.467 382.251 144.498 381.834 144.38C381.417 144.262 381.053 144.004 380.805 143.649Z" fill="#703838"/>
<path d="M376.816 134.153L378.772 132.95C378.772 132.95 378.009 132.178 377.256 132.657C377.042 132.833 376.885 133.071 376.806 133.337C376.728 133.604 376.731 133.888 376.816 134.153Z" fill="#263238"/>
<path d="M390.7 136.373C390.7 136.373 390.504 139.923 392.548 139.923H396.558V133.155C396.558 125.566 390.798 117.635 378.543 123.904C378.543 123.904 377.947 134.036 390.7 136.373Z" fill="#263238"/>
<path d="M392.245 140.08C392.219 139.306 392.369 138.537 392.685 137.83C392.839 137.39 393.118 137.005 393.488 136.721C393.858 136.438 394.303 136.27 394.768 136.236C397.155 136.236 397.448 138.496 397.409 139.317C397.309 140.583 396.72 141.76 395.767 142.6C394.814 143.44 393.572 143.876 392.304 143.816L392.245 140.08Z" fill="#945959"/>
<path d="M397.412 152.871C397.412 152.871 391.779 158.485 398.967 167.15C406.155 175.815 407.661 177.683 407.661 177.683C407.661 177.683 415.036 178.407 416.111 171.6C416.111 171.6 407.446 159.424 405.08 156.353C402.713 153.282 400.561 153.028 397.412 152.871Z" fill="#FD747C" fill-opacity="0.59"/>
<path opacity="0.2" d="M397.412 152.871C397.412 152.871 391.779 158.485 398.967 167.15C406.155 175.815 407.661 177.683 407.661 177.683C407.661 177.683 415.036 178.407 416.111 171.6C416.111 171.6 407.446 159.424 405.08 156.353C402.713 153.282 400.561 153.028 397.412 152.871Z" fill="black"/>
<path opacity="0.3" d="M381.023 173.968C381.023 173.968 389.649 176.373 392.534 168.168C392.534 168.217 391.048 178.408 381.023 173.968Z" fill="black"/>
<path d="M415.055 201.675C415.055 201.675 413.686 202.477 413.363 205.342C413.265 206.164 411.759 207.993 411.984 208.452C412.209 208.912 413.715 209.538 415.338 206.848C415.633 208.213 415.653 209.623 415.397 210.995C414.957 213.117 414.194 215.836 416.962 215.24C419.73 214.643 423.808 212.452 423.162 208.325C422.566 204.345 422.233 201.117 422.233 201.117L415.055 201.675Z" fill="#945959"/>
<path d="M252.143 255.082L247.938 253.273V209.781L252.143 211.591V255.082Z" fill="#FD747C" fill-opacity="0.59"/>
<path opacity="0.6" d="M252.143 255.082L247.938 253.273V209.781L252.143 211.591V255.082Z" fill="black"/>
<path d="M350.256 154.827L252.143 211.59L247.938 209.781L346.05 153.018L350.256 154.827Z" fill="#FD747C" fill-opacity="0.59"/>
<path opacity="0.4" d="M350.256 154.827L252.143 211.59L247.938 209.781L346.05 153.018L350.256 154.827Z" fill="black"/>
<path d="M350.254 198.318L252.141 255.081V211.589L350.254 154.826V198.318Z" fill="#FD747C" fill-opacity="0.59"/>
<path opacity="0.3" d="M350.254 198.318L252.141 255.081V211.589L350.254 154.826V198.318Z" fill="black"/>
<path d="M288.085 221.269C286.733 222.046 285.475 222.516 284.309 222.679C283.16 222.813 282.155 222.66 281.293 222.22C280.449 221.751 279.79 221.009 279.317 219.995C278.844 218.981 278.607 217.714 278.607 216.194C278.607 214.674 278.844 213.135 279.317 211.577C279.79 210.019 280.457 208.525 281.319 207.095C282.18 205.645 283.185 204.336 284.334 203.169C285.483 201.983 286.742 200.997 288.11 200.21C289.563 199.375 290.889 198.905 292.089 198.801C293.288 198.676 294.302 198.941 295.13 199.596L293.001 203.128C292.359 202.698 291.641 202.517 290.847 202.583C290.053 202.63 289.191 202.921 288.262 203.455C287.333 203.989 286.48 204.655 285.703 205.452C284.942 206.24 284.275 207.12 283.701 208.093C283.143 209.057 282.704 210.069 282.383 211.13C282.079 212.182 281.927 213.234 281.927 214.286C281.927 215.338 282.079 216.215 282.383 216.917C282.704 217.61 283.143 218.117 283.701 218.44C284.275 218.753 284.942 218.866 285.703 218.78C286.48 218.684 287.333 218.369 288.262 217.835C289.191 217.301 290.053 216.611 290.847 215.765C291.641 214.899 292.359 213.873 293.001 212.686L295.13 213.801C294.302 215.387 293.288 216.817 292.089 218.091C290.889 219.365 289.555 220.424 288.085 221.269Z" fill="white"/>
<path d="M302.653 202.238V193.96L305.283 192.434V200.713L302.653 202.238ZM300.241 200.934V198.062L307.694 193.739V196.611L300.241 200.934ZM311.858 196.899V188.621L314.488 187.096V195.374L311.858 196.899ZM309.446 195.595V192.723L316.899 188.4V191.272L309.446 195.595Z" fill="white"/>
<path d="M337.541 374.671C337.541 374.671 341.532 372.441 342.03 369.957C342.529 367.473 338.118 361.752 338.118 361.752C338.118 361.752 334.881 363.6 337.541 374.671Z" fill="#FD747C" fill-opacity="0.59"/>
<path opacity="0.2" d="M337.541 374.671C337.541 374.671 341.532 372.441 342.03 369.957C342.529 367.473 338.118 361.752 338.118 361.752C338.118 361.752 334.881 363.6 337.541 374.671Z" fill="black"/>
<path d="M288.688 382.368L294.507 378.935L295.269 373.106L293.265 372.637L288.688 382.368Z" fill="#FD747C" fill-opacity="0.59"/>
<path opacity="0.3" d="M288.688 382.368L294.507 378.935L295.269 373.106L293.265 372.637L288.688 382.368Z" fill="black"/>
<path d="M323.156 348.863L328.594 357.547L332.222 369.577C332.222 369.577 338.922 368.745 334.706 353.303L331.547 343.992L323.156 348.863Z" fill="#FFA8A7" fill-opacity="0.89"/>
<path d="M287.535 352.08L288.68 365.919L284.68 376.53C284.68 376.53 286.685 381.489 292.983 370.995C296.328 365.42 296.435 364.315 296.435 364.315L297.756 352.09L287.535 352.08Z" fill="#FFA8A7" fill-opacity="0.89"/>
<path d="M292.727 217.271L290.683 221.32C290.653 221.379 290.636 221.444 290.633 221.51C290.63 221.576 290.642 221.642 290.667 221.704C290.692 221.765 290.73 221.82 290.779 221.865C290.827 221.911 290.884 221.945 290.947 221.966L293.373 222.768L292.727 217.271Z" fill="#F28F8F"/>
<path d="M295.561 210.484C295.561 210.484 292.422 212.157 292.422 221.741C292.422 227.013 292.784 230.377 295.522 230.172C298.261 229.966 306.143 228.929 306.143 228.929V210.484H295.561Z" fill="#FFA8A7" fill-opacity="0.89"/>
<path d="M295.561 230.172C296.539 230.094 298.124 229.918 299.786 229.722V228.744C298.284 229.393 296.712 229.869 295.102 230.162C295.254 230.18 295.408 230.184 295.561 230.172Z" fill="#F28F8F"/>
<path d="M299.32 228.334V234.358H307.555V225.898L299.32 228.334Z" fill="#FFA8A7" fill-opacity="0.89"/>
<path d="M313.413 249.469L318.763 260.451L314.753 265.703L317.521 275.082L326.118 264.941C326.865 264.061 327.36 262.996 327.552 261.858C327.743 260.72 327.622 259.551 327.203 258.476C324.837 252.393 320.132 240.422 318.861 238.3C317.14 235.434 315.086 233.909 312.015 234.006C308.944 234.104 313.413 249.469 313.413 249.469Z" fill="#FFA8A7" fill-opacity="0.89"/>
<path d="M315.996 267.512C317.238 271.238 319.908 276.48 319.83 294.094C319.751 306.407 319.83 313.341 319.947 316.392C319.968 317.484 320.393 318.53 321.14 319.326C322.451 320.676 324.681 323.58 326.783 329.106C328.654 333.973 330.245 338.943 331.546 343.991C331.546 343.991 330.02 348.96 323.145 348.881L305.952 321.253C305.265 320.142 304.822 318.899 304.651 317.605L300.133 283.287V269.233L315.996 267.512Z" fill="#FD747C" fill-opacity="0.59"/>
<path opacity="0.6" d="M315.996 267.512C317.238 271.238 319.908 276.48 319.83 294.094C319.751 306.407 319.83 313.341 319.947 316.392C319.968 317.484 320.393 318.53 321.14 319.326C322.451 320.676 324.681 323.58 326.783 329.106C328.654 333.973 330.245 338.943 331.546 343.991C331.546 343.991 330.02 348.96 323.145 348.881L305.952 321.253C305.265 320.142 304.822 318.899 304.651 317.605L300.133 283.287V269.233L315.996 267.512Z" fill="black"/>
<path d="M303.773 310.789L308.546 293.674C308.546 293.674 315.255 286.828 312.868 275.092L302.727 287.864L303.235 307.346L303.773 310.789Z" fill="#FD747C" fill-opacity="0.59"/>
<path opacity="0.7" d="M303.773 310.789L308.546 293.674C308.546 293.674 315.255 286.828 312.868 275.092L302.727 287.864L303.235 307.346L303.773 310.789Z" fill="black"/>
<path d="M288.015 268.471C287.731 274.006 284.729 308.471 285.159 318.495C285.59 328.52 287.536 352.08 287.536 352.08C287.536 352.08 294.02 354.76 297.746 352.08C297.746 352.08 299.321 342.789 300.348 335.454C300.975 331.658 300.845 327.776 299.966 324.031C299.609 322.655 299.609 321.211 299.966 319.835L307.282 291.757C307.282 291.757 313.6 287.326 313.6 275.072V265.879L288.015 268.471Z" fill="#FD747C" fill-opacity="0.59"/>
<path opacity="0.6" d="M288.015 268.471C287.731 274.006 284.729 308.471 285.159 318.495C285.59 328.52 287.536 352.08 287.536 352.08C287.536 352.08 294.02 354.76 297.746 352.08C297.746 352.08 299.321 342.789 300.348 335.454C300.975 331.658 300.845 327.776 299.966 324.031C299.609 322.655 299.609 321.211 299.966 319.835L307.282 291.757C307.282 291.757 313.6 287.326 313.6 275.072V265.879L288.015 268.471Z" fill="black"/>
<path d="M305.591 230.123L292.427 234.954C292.427 234.954 286.266 240.304 286.266 250.524C286.266 253.39 289.033 255.962 289.033 255.962C289.033 255.962 288.055 264.94 287.977 268.47C287.977 268.47 294.706 273.194 307.253 271.336C310.395 270.699 313.364 269.395 315.958 267.512C315.958 267.512 314.002 259.59 313.757 258.827C313.513 258.064 316.437 248.803 316.437 241.448L305.591 230.123Z" fill="#455A64"/>
<path d="M293.964 212.627C293.964 212.627 294.492 217.253 297.455 218.495C297.455 218.495 295.108 221.713 298.59 223.121V220.637L300.047 223.483C300.047 223.483 295.949 240.109 303.059 240.109C304.297 240.129 305.5 239.706 306.453 238.916C306.453 238.916 307.548 243.258 314.13 243.258C320.712 243.258 321.954 236.813 321.954 236.813C321.954 236.813 317.563 238.143 317.563 233.566C317.563 228.989 317.23 214.28 316.986 212.05C316.543 209.703 315.35 207.563 313.586 205.953C311.823 204.342 309.583 203.349 307.206 203.121C302.071 202.505 295.411 202.544 291.558 207.845C287.705 213.145 293.201 214.632 293.201 214.632C293.201 214.632 293.328 214.446 293.964 212.627Z" fill="#263238"/>
<path d="M298.589 220.656C298.589 220.656 298.374 216.607 301.523 216.92C305.122 217.272 303.978 223.766 299.567 223.766L298.589 220.656Z" fill="#FFA8A7" fill-opacity="0.89"/>
<path d="M318.645 208.313C317.814 207.012 316.684 205.929 315.349 205.154C314.918 204.953 314.451 204.84 313.975 204.821C313.499 204.802 313.025 204.879 312.579 205.045C312.133 205.212 311.724 205.465 311.377 205.791C311.03 206.117 310.751 206.509 310.557 206.944C310.187 207.71 309.989 208.548 309.977 209.399C309.966 210.25 310.141 211.093 310.491 211.869C310.84 212.644 311.356 213.334 312.001 213.889C312.646 214.444 313.405 214.851 314.225 215.081C314.545 215.168 314.872 215.23 315.203 215.266C316.119 215.349 317.035 215.098 317.781 214.559C318.527 214.02 319.053 213.229 319.261 212.332C319.39 211.87 319.459 211.394 319.467 210.914C319.476 209.982 319.188 209.071 318.645 208.313Z" fill="#FD747C" fill-opacity="0.59"/>
<path d="M321.335 209.291C321.334 210.312 321.029 211.309 320.46 212.157C319.892 213.005 319.085 213.665 318.141 214.055C317.197 214.444 316.159 214.545 315.158 214.344C314.157 214.144 313.238 213.652 312.517 212.929C311.796 212.206 311.305 211.286 311.106 210.285C310.908 209.283 311.011 208.246 311.402 207.303C311.793 206.36 312.455 205.554 313.304 204.987C314.153 204.42 315.151 204.117 316.172 204.117C316.851 204.117 317.523 204.251 318.15 204.511C318.777 204.771 319.347 205.153 319.826 205.633C320.306 206.114 320.686 206.684 320.945 207.312C321.204 207.939 321.337 208.612 321.335 209.291Z" fill="#263238"/>
<path d="M292.425 234.954C292.425 234.954 296.855 235.628 296.855 241.545C296.855 247.462 285.97 250.142 280.816 252.049C277.882 253.154 273.902 254.699 271.114 255.814C270.042 256.241 268.872 256.362 267.735 256.166C266.597 255.969 265.536 255.461 264.669 254.699C259.24 249.952 254.323 244.648 249.999 238.875C249.999 238.875 243.779 236.675 243.965 230.562C244.151 224.45 247.877 222.738 247.877 222.738V224.773C247.877 225.438 248.029 226.094 248.322 226.691C248.616 227.288 249.042 227.809 249.569 228.215L250.811 229.193C250.948 229.299 251.108 229.371 251.278 229.404C251.448 229.437 251.624 229.429 251.79 229.381C251.957 229.334 252.11 229.248 252.237 229.13C252.364 229.012 252.462 228.866 252.523 228.704C252.953 227.53 253.706 226.005 254.831 225.496C256.738 224.636 256.073 228.342 255.593 230.112C255.308 231.127 255.18 232.179 255.212 233.232L269.149 245.545C269.149 245.545 284.444 237.496 292.425 234.954Z" fill="#FFA8A7" fill-opacity="0.89"/>
<path d="M296.432 364.334C295.436 364.5 294.492 364.898 293.677 365.494C292.862 366.09 292.198 366.868 291.737 367.767C290.211 370.818 287.346 379.415 284.676 376.569L285.586 374.173C285.586 374.173 274.896 376.51 277.449 379.307C280.001 382.104 288.011 383.346 288.686 382.388C289.361 381.429 292.979 374.564 292.979 374.564L294.984 383.728C295.276 383.981 295.649 384.12 296.035 384.12C296.422 384.12 296.795 383.981 297.087 383.728C297.087 383.728 299.698 366.143 296.432 364.334Z" fill="#FD747C" fill-opacity="0.59"/>
<path d="M332.221 369.576C332.991 369.186 333.612 368.556 333.991 367.781C334.371 367.007 334.487 366.129 334.324 365.283C333.943 362.036 331.468 355.571 334.706 353.302C336.143 352.324 339.331 356.686 342.031 361.938C344.73 367.19 345.493 368.715 345.493 368.715C345.493 368.715 345.199 370.124 343.967 370.055L338.05 363.943C337.669 365.809 337.733 367.739 338.236 369.576C339.097 372.442 339.214 374.104 336.094 375.493C332.974 376.882 324.437 378.779 329.004 373.019C329.906 371.723 330.99 370.564 332.221 369.576Z" fill="#FD747C" fill-opacity="0.59"/>
<path d="M102.953 385.4L103.716 393.293C103.716 393.293 104.567 394.916 108.489 394.916C112.41 394.916 111.54 391.572 111.54 391.572L111.921 385.4H102.953Z" fill="#FFA8A7" fill-opacity="0.89"/>
<path d="M114.716 305.508C114.716 309.606 114.334 349.606 114.305 352.286C114.31 352.38 114.31 352.475 114.305 352.569C114.149 354.799 112.212 382.222 111.929 385.401C111.929 385.401 107.254 388.961 102.96 385.401C102.96 385.401 101.806 375.728 101.425 372.863C101.043 369.997 99.6058 357.215 101.425 352.999L96.75 328.755V309.283L114.716 305.508Z" fill="#37474F"/>
<path d="M109.417 311.65C109.417 311.65 108.439 317.773 101.417 321.117L98.3363 337.01L96.7422 329.587V312.237L109.417 311.65Z" fill="#263238"/>
<path d="M72.966 391.572L72.2031 397.44C72.2031 397.44 74.2471 402.77 80.4868 400.198L81.631 394.095L72.966 391.572Z" fill="#FFA8A7" fill-opacity="0.89"/>
<path d="M81.6338 306.222C81.2035 310.799 79.9419 322.447 79.4627 337.518C78.9834 352.589 78.9835 352.501 78.9835 352.501C77.2672 356.195 76.0976 360.119 75.5115 364.149C74.915 369.802 72.9688 391.533 72.9688 391.533C74.055 392.69 75.4338 393.531 76.9592 393.969C78.4845 394.406 80.0997 394.423 81.6338 394.017L93.1547 357.831C93.4651 356.846 93.7037 355.839 93.8686 354.819L99.5117 319.249C99.5117 319.249 109.35 317.919 111.541 305.215L81.6338 306.222Z" fill="#37474F"/>
<path d="M117.867 278.076L128.958 286.956V274.066L125.026 270.057L117.867 278.076Z" fill="#F28F8F"/>
<path d="M107.055 257.959C109.684 257.763 112.293 258.555 114.37 260.179C117.803 262.898 125.03 270.057 125.03 270.057C124.765 271.952 123.944 273.726 122.669 275.154C121.395 276.582 119.725 277.599 117.871 278.076L110.781 273.001L107.055 257.959Z" fill="#FD747C" fill-opacity="0.59"/>
<path opacity="0.2" d="M107.055 257.959C109.684 257.763 112.293 258.555 114.37 260.179C117.803 262.898 125.03 270.057 125.03 270.057C124.765 271.952 123.944 273.726 122.669 275.154C121.395 276.582 119.725 277.599 117.871 278.076L110.781 273.001L107.055 257.959Z" fill="white"/>
<path d="M92.656 258.027C92.656 258.027 85.3601 258.761 82.0643 259.475L80.8516 272.639C80.8516 272.639 83.4139 287.309 83.4139 289.372C83.4139 291.436 81.634 306.223 81.634 306.223C81.634 306.223 86.6707 309.519 101.331 309.519C106.067 309.369 110.681 307.987 114.72 305.509V276.257C114.72 270.565 112.5 261.587 107.052 257.959H102.573L92.656 258.027Z" fill="#FD747C" fill-opacity="0.59"/>
<path opacity="0.2" d="M92.656 258.027C92.656 258.027 85.3601 258.761 82.0643 259.475L80.8516 272.639C80.8516 272.639 83.4139 287.309 83.4139 289.372C83.4139 291.436 81.634 306.223 81.634 306.223C81.634 306.223 86.6707 309.519 101.331 309.519C106.067 309.369 110.681 307.987 114.72 305.509V276.257C114.72 270.565 112.5 261.587 107.052 257.959H102.573L92.656 258.027Z" fill="black"/>
<path d="M133.157 298.203L128.961 296.394V252.902L133.157 254.712V298.203Z" fill="#FD747C" fill-opacity="0.59"/>
<path opacity="0.6" d="M133.157 298.203L128.961 296.394V252.902L133.157 254.712V298.203Z" fill="black"/>
<path d="M231.27 197.948L133.157 254.711L128.961 252.902L227.064 196.139L231.27 197.948Z" fill="#FD747C" fill-opacity="0.59"/>
<path opacity="0.4" d="M231.27 197.948L133.157 254.711L128.961 252.902L227.064 196.139L231.27 197.948Z" fill="black"/>
<path d="M231.269 241.439L133.156 298.202V254.71L231.269 197.947V241.439Z" fill="#FD747C" fill-opacity="0.59"/>
<path opacity="0.3" d="M231.269 241.439L133.156 298.202V254.71L231.269 197.947V241.439Z" fill="black"/>
<path d="M160.116 269.925C158.765 270.702 157.506 271.172 156.34 271.335C155.191 271.469 154.186 271.316 153.325 270.876C152.48 270.407 151.821 269.665 151.348 268.651C150.875 267.637 150.638 266.37 150.638 264.85C150.638 263.33 150.875 261.791 151.348 260.233C151.821 258.676 152.488 257.181 153.35 255.751C154.212 254.301 155.217 252.993 156.366 251.826C157.514 250.639 158.773 249.653 160.141 248.867C161.594 248.032 162.92 247.562 164.12 247.457C165.319 247.333 166.333 247.598 167.161 248.252L165.032 251.784C164.39 251.354 163.672 251.173 162.878 251.239C162.084 251.287 161.223 251.577 160.293 252.111C159.364 252.645 158.511 253.311 157.734 254.108C156.974 254.896 156.306 255.776 155.732 256.749C155.175 257.713 154.735 258.725 154.414 259.786C154.11 260.838 153.958 261.89 153.958 262.942C153.958 263.994 154.11 264.872 154.414 265.574C154.735 266.266 155.175 266.773 155.732 267.096C156.306 267.409 156.974 267.522 157.734 267.436C158.511 267.34 159.364 267.025 160.293 266.491C161.223 265.957 162.084 265.267 162.878 264.421C163.672 263.556 164.39 262.529 165.032 261.342L167.161 262.457C166.333 264.043 165.319 265.473 164.12 266.747C162.92 268.021 161.586 269.081 160.116 269.925ZM175.792 260.916C174.406 261.712 173.08 262.251 171.813 262.531C170.546 262.791 169.541 262.775 168.798 262.481L169.938 258.873C170.647 259.109 171.526 259.14 172.573 258.966C173.621 258.793 174.694 258.391 175.792 257.76C176.721 257.226 177.473 256.677 178.047 256.113C178.621 255.549 179.044 254.994 179.314 254.449C179.584 253.885 179.72 253.349 179.72 252.843C179.72 252.219 179.525 251.834 179.137 251.687C178.748 251.52 178.241 251.51 177.616 251.655C177.008 251.77 176.324 251.949 175.564 252.191C174.82 252.424 174.068 252.632 173.308 252.815C172.565 252.97 171.881 253.022 171.256 252.972C170.647 252.893 170.149 252.614 169.761 252.136C169.372 251.658 169.178 250.873 169.178 249.782C169.178 248.671 169.431 247.512 169.938 246.305C170.462 245.069 171.247 243.877 172.295 242.73C173.359 241.553 174.702 240.498 176.324 239.566C177.388 238.955 178.444 238.504 179.491 238.213C180.539 237.923 181.451 237.847 182.228 237.985L181.189 241.534C180.395 241.445 179.576 241.516 178.731 241.749C177.887 241.961 177.076 242.291 176.299 242.737C175.386 243.262 174.643 243.816 174.068 244.399C173.511 244.973 173.097 245.542 172.827 246.106C172.573 246.661 172.447 247.202 172.447 247.728C172.447 248.351 172.632 248.751 173.004 248.927C173.393 249.074 173.891 249.08 174.499 248.945C175.124 248.8 175.817 248.616 176.577 248.394C177.338 248.152 178.089 247.944 178.833 247.77C179.593 247.586 180.277 247.524 180.885 247.584C181.51 247.634 182.009 247.903 182.38 248.39C182.769 248.869 182.963 249.644 182.963 250.715C182.963 251.806 182.701 252.97 182.178 254.206C181.671 255.414 180.885 256.605 179.821 257.782C178.757 258.94 177.414 259.984 175.792 260.916ZM191.729 251.757C190.344 252.553 189.017 253.091 187.75 253.371C186.483 253.632 185.478 253.615 184.735 253.321L185.875 249.714C186.585 249.949 187.463 249.98 188.511 249.807C189.558 249.634 190.631 249.231 191.729 248.6C192.658 248.066 193.41 247.517 193.984 246.953C194.559 246.389 194.981 245.835 195.251 245.29C195.522 244.725 195.657 244.19 195.657 243.683C195.657 243.06 195.462 242.674 195.074 242.528C194.685 242.361 194.179 242.35 193.553 242.495C192.945 242.611 192.261 242.79 191.501 243.032C190.757 243.264 190.006 243.472 189.245 243.656C188.502 243.81 187.818 243.863 187.193 243.813C186.585 243.733 186.086 243.455 185.698 242.977C185.309 242.498 185.115 241.714 185.115 240.623C185.115 239.512 185.368 238.353 185.875 237.146C186.399 235.91 187.184 234.718 188.232 233.57C189.296 232.393 190.639 231.339 192.261 230.407C193.325 229.795 194.381 229.344 195.429 229.054C196.476 228.764 197.388 228.688 198.166 228.826L197.127 232.375C196.333 232.286 195.513 232.357 194.668 232.589C193.824 232.802 193.013 233.132 192.236 233.578C191.323 234.102 190.58 234.656 190.006 235.24C189.448 235.813 189.034 236.383 188.764 236.947C188.511 237.502 188.384 238.042 188.384 238.569C188.384 239.192 188.57 239.592 188.941 239.768C189.33 239.915 189.828 239.921 190.436 239.786C191.062 239.641 191.754 239.457 192.514 239.234C193.275 238.992 194.026 238.784 194.77 238.61C195.53 238.427 196.214 238.365 196.822 238.424C197.448 238.474 197.946 238.743 198.318 239.231C198.706 239.709 198.9 240.484 198.9 241.556C198.9 242.647 198.639 243.811 198.115 245.047C197.608 246.254 196.822 247.446 195.758 248.623C194.694 249.78 193.351 250.825 191.729 251.757Z" fill="white"/>
<path d="M111.494 230.281C111.494 230.281 117.196 235.289 112.237 246.448L106.438 231.367L111.494 230.281Z" fill="#263238"/>
<path d="M92.6562 258.027C92.6562 258.027 94.6122 263.26 100.06 263.26C105.507 263.26 102.573 257.959 102.573 257.959L92.6562 258.027Z" fill="#FFA8A7" fill-opacity="0.89"/>
<path d="M92.6562 258.026L102.573 257.958V242.789H92.6562V258.026Z" fill="#FFA8A7" fill-opacity="0.89"/>
<path d="M102.576 257.352C98.9187 255.934 94.2732 253.587 94.2732 251.347L93.0703 243.807H102.576V257.352Z" fill="#F28F8F"/>
<path d="M100.293 227.189C103.794 227.189 111.227 229.145 112.088 238.3C112.949 247.454 111.609 255.239 107.394 255.239C99.1196 255.239 91.1783 254.182 91.1098 240.647C91.0511 228.705 96.88 227.189 100.293 227.189Z" fill="#FFA8A7" fill-opacity="0.89"/>
<path d="M92.6674 248.667L94.0072 244.501C94.1082 244.587 94.2316 244.642 94.3628 244.66C94.4941 244.678 94.6278 244.658 94.7481 244.602C94.8684 244.547 94.9703 244.458 95.0418 244.346C95.1133 244.235 95.1514 244.105 95.1515 243.973V236.589C95.1515 236.589 98.5941 235.611 98.2322 232.726C98.2322 232.726 99.9926 234.3 106.741 234.3C113.489 234.3 115.132 228.579 114.457 225.391C114.457 225.391 113.205 226.682 109.636 226.682C106.066 226.682 91.2102 222.202 90.8287 231.18C90.8287 231.18 89.5671 229.342 87.5427 231.18L90.1539 232.765C90.1539 232.765 87.0634 232.667 87.5427 237.195C87.9241 240.775 89.4106 247.552 90.0268 250.261C90.2012 251.011 90.6517 251.667 91.2884 252.1L92.6674 253.029V248.667Z" fill="#263238"/>
<path d="M105.555 241.049V246.447L108.714 245.469L105.555 241.049Z" fill="#F28F8F"/>
<path d="M99.9454 241.978C99.9434 242.198 100.007 242.413 100.128 242.596C100.248 242.779 100.421 242.922 100.623 243.007C100.825 243.092 101.048 243.115 101.264 243.072C101.479 243.03 101.677 242.925 101.832 242.769C101.987 242.614 102.092 242.416 102.135 242.201C102.177 241.986 102.154 241.763 102.07 241.561C101.985 241.358 101.842 241.186 101.658 241.065C101.475 240.944 101.26 240.881 101.041 240.883C100.897 240.883 100.754 240.911 100.622 240.966C100.489 241.021 100.368 241.102 100.266 241.204C100.164 241.305 100.084 241.426 100.029 241.559C99.9737 241.692 99.9454 241.834 99.9454 241.978Z" fill="#263238"/>
<path d="M108.164 241.215C108.164 241.433 108.229 241.647 108.35 241.829C108.472 242.01 108.644 242.152 108.846 242.236C109.048 242.319 109.27 242.341 109.485 242.298C109.699 242.256 109.896 242.151 110.051 241.996C110.205 241.841 110.31 241.645 110.353 241.43C110.396 241.216 110.374 240.994 110.29 240.792C110.207 240.59 110.065 240.417 109.883 240.296C109.701 240.174 109.488 240.109 109.269 240.109C108.976 240.109 108.695 240.226 108.488 240.433C108.28 240.64 108.164 240.921 108.164 241.215Z" fill="#263238"/>
<path d="M110.613 238.916L108.461 237.645C108.461 237.645 109.282 236.784 110.104 237.303C110.342 237.489 110.517 237.743 110.608 238.031C110.699 238.319 110.7 238.628 110.613 238.916Z" fill="#263238"/>
<path d="M98.7786 239.719L100.92 238.438C100.92 238.438 100.099 237.577 99.2774 238.096C99.0406 238.285 98.8663 238.541 98.7774 238.83C98.6884 239.12 98.6888 239.43 98.7786 239.719Z" fill="#263238"/>
<path d="M107.039 248.628C106 248.7 104.967 248.421 104.105 247.836C104.105 247.836 103.9 249.401 105.211 249.694C105.591 249.751 105.98 249.676 106.312 249.482C106.645 249.289 106.901 248.987 107.039 248.628Z" fill="#F28F8F"/>
<path d="M93.4743 242.986C94.7164 245.147 94.3936 247.768 92.6626 248.668C91.5379 249.245 88.242 248.003 87 245.841C85.7579 243.68 86.4523 241.832 88.1442 240.854C89.8362 239.876 92.2225 240.824 93.4743 242.986Z" fill="#FFA8A7" fill-opacity="0.89"/>
<path d="M94.1013 244.589L90.2969 240.461L93.0353 238.818L94.1013 244.589Z" fill="#253239"/>
<path d="M99.7569 275.219L104.989 281.019C104.989 281.019 109.263 280.412 114.222 280.158C118.156 279.746 122.058 279.063 125.899 278.114C125.899 278.114 126.877 273.928 128.97 272.246V275.522C128.97 275.522 131.777 276.5 133.165 275.112C135.562 272.755 137.703 270.583 137.703 275.522C137.703 282.417 134.769 285.214 126.848 285.068C126.848 285.068 106.847 293.449 102.055 292.51C99.1212 291.953 91.0625 284.354 91.0625 284.354L99.7569 275.219Z" fill="#FFA8A7" fill-opacity="0.89"/>
<path d="M78.2424 261.38C81.6067 257.957 85.4502 259.551 88.8243 262.926C92.1984 266.3 99.7584 275.219 99.7584 275.219C99.7584 275.219 98.9955 282.173 91.0639 284.383C91.0639 284.383 80.3646 273.243 78.9954 271.728C76.5113 268.95 75.0541 264.647 78.2424 261.38Z" fill="#FD747C" fill-opacity="0.59"/>
<path opacity="0.2" d="M78.2424 261.38C81.6067 257.957 85.4502 259.551 88.8243 262.926C92.1984 266.3 99.7584 275.219 99.7584 275.219C99.7584 275.219 98.9955 282.173 91.0639 284.383C91.0639 284.383 80.3646 273.243 78.9954 271.728C76.5113 268.95 75.0541 264.647 78.2424 261.38Z" fill="white"/>
<path d="M149.201 288.942C149.287 287.833 149.598 286.754 150.116 285.77C150.634 284.786 151.348 283.918 152.214 283.22C156.722 279.778 156.536 283.22 156.644 284.639C156.751 286.057 152.468 291.093 147.773 289.763L149.201 288.942Z" fill="#FFA8A7" fill-opacity="0.89"/>
<path d="M72.206 397.401C72.4464 397.936 72.7772 398.426 73.184 398.849C73.2814 398.931 73.3994 398.985 73.5253 399.006C73.6512 399.026 73.7803 399.012 73.8988 398.965C74.0173 398.918 74.1207 398.839 74.1981 398.738C74.2755 398.636 74.3238 398.516 74.338 398.389C74.3497 398.065 74.4461 397.75 74.6178 397.476C74.7894 397.201 75.0302 396.976 75.316 396.824C75.9908 396.541 81.3796 396.443 81.4285 397.538C81.431 398.366 81.3457 399.192 81.1742 400.003C81.1742 400.003 82.0447 407.416 83.6975 410.35C85.3503 413.284 88.0496 418.027 82.3674 419.416C76.6852 420.805 72.3918 417.792 72.1962 413.783C72.0006 409.773 72.0984 406.937 71.717 406.242C71.3356 405.548 69.3307 405.186 70.0935 401.519C70.8563 397.851 70.9737 395.651 72.4407 395.533L72.206 397.401Z" fill="#455A64"/>
<path d="M76.0764 404.208C75.9938 404.211 75.912 404.193 75.8384 404.155C75.7649 404.117 75.7021 404.062 75.6559 403.993C75.5785 403.882 75.5474 403.746 75.5694 403.612C75.5913 403.479 75.6644 403.359 75.7732 403.279C76.6718 402.715 77.6974 402.384 78.7565 402.317C79.8156 402.251 80.8746 402.45 81.8368 402.898C81.901 402.925 81.9593 402.964 82.0083 403.014C82.0573 403.063 82.0961 403.122 82.1224 403.186C82.1488 403.251 82.1622 403.32 82.1618 403.389C82.1615 403.459 82.1474 403.528 82.1204 403.592C82.0935 403.656 82.0541 403.715 82.0046 403.764C81.9551 403.813 81.8965 403.851 81.832 403.878C81.7675 403.904 81.6985 403.918 81.6288 403.917C81.5592 403.917 81.4903 403.903 81.4261 403.876C80.6233 403.503 79.7411 403.335 78.8576 403.384C77.974 403.434 77.1162 403.7 76.36 404.159C76.2722 404.203 76.1737 404.22 76.0764 404.208Z" fill="#EBEBEB"/>
<path d="M76.9169 407.827C76.8349 407.826 76.7542 407.806 76.6812 407.769C76.6082 407.731 76.5449 407.677 76.4963 407.611C76.42 407.499 76.3905 407.362 76.4143 407.229C76.438 407.095 76.5131 406.976 76.6235 406.897C77.5209 406.33 78.5461 405.998 79.6054 405.929C80.6647 405.861 81.7243 406.059 82.6871 406.506C82.8112 406.564 82.9082 406.668 82.9574 406.795C83.0067 406.923 83.0044 407.065 82.9511 407.191C82.8937 407.315 82.7895 407.411 82.6612 407.459C82.533 407.507 82.3911 407.502 82.2665 407.445C81.4659 407.071 80.585 406.901 79.7027 406.951C78.8204 407 77.9641 407.268 77.2103 407.729C77.1267 407.794 77.023 407.829 76.9169 407.827Z" fill="#EBEBEB"/>
<path d="M78.2372 411.396C78.1548 411.397 78.0732 411.379 77.9998 411.341C77.9264 411.304 77.8635 411.248 77.8167 411.181C77.7403 411.069 77.7108 410.931 77.7346 410.798C77.7584 410.664 77.8335 410.545 77.9438 410.467C78.8423 409.902 79.8679 409.571 80.9271 409.505C81.9862 409.438 83.0452 409.638 84.0074 410.085C84.0694 410.112 84.1255 410.15 84.1724 410.199C84.2193 410.247 84.2561 410.305 84.2807 410.367C84.3053 410.43 84.3171 410.497 84.3155 410.565C84.3139 410.632 84.299 410.699 84.2715 410.76C84.2139 410.882 84.1119 410.977 83.9865 411.026C83.861 411.075 83.7216 411.075 83.5966 411.024C82.7936 410.653 81.9116 410.484 81.0282 410.534C80.1448 410.583 79.2871 410.849 78.5306 411.308C78.4439 411.366 78.3416 411.397 78.2372 411.396Z" fill="#EBEBEB"/>
<path d="M103.714 393.295C104.726 393.975 105.928 394.317 107.147 394.273C107.147 394.273 106.57 392.013 108.242 391.251C109.914 390.488 112.584 389.48 113.132 390.39C113.518 391.43 113.73 392.527 113.758 393.637C113.758 393.637 117.738 397.246 120.692 398.263C123.645 399.28 127.538 400.317 127.166 403.045C126.795 405.774 122.394 409.725 116.408 407.006C110.423 404.287 109.347 404.19 107.43 403.896C105.513 403.603 101.944 403.759 102.09 400.561C102.237 397.363 101.963 392.072 103.557 391.642L103.714 393.295Z" fill="#455A64"/>
<path d="M110.572 398.184C110.513 398.193 110.454 398.193 110.396 398.184C110.268 398.137 110.164 398.042 110.105 397.92C110.047 397.797 110.039 397.657 110.083 397.528C110.475 396.611 111.107 395.815 111.912 395.225C112.718 394.635 113.666 394.272 114.66 394.174C114.772 394.189 114.875 394.24 114.955 394.321C115.034 394.401 115.084 394.505 115.098 394.617C115.111 394.729 115.087 394.843 115.029 394.939C114.971 395.036 114.882 395.111 114.777 395.152C113.973 395.23 113.205 395.52 112.55 395.993C111.896 396.465 111.378 397.103 111.051 397.841C111.014 397.94 110.949 398.025 110.863 398.085C110.778 398.146 110.677 398.181 110.572 398.184Z" fill="#EBEBEB"/>
<path d="M113.627 400.199H113.461C113.397 400.178 113.338 400.145 113.288 400.101C113.237 400.057 113.196 400.003 113.167 399.943C113.138 399.883 113.121 399.817 113.118 399.75C113.114 399.683 113.125 399.617 113.148 399.554C113.506 398.637 114.11 397.838 114.893 397.242C115.677 396.647 116.609 396.279 117.588 396.18C117.7 396.193 117.805 396.243 117.885 396.323C117.966 396.403 118.018 396.507 118.032 396.619C118.047 396.731 118.024 396.845 117.966 396.943C117.909 397.04 117.82 397.116 117.715 397.158C116.93 397.242 116.182 397.534 115.549 398.006C114.916 398.477 114.421 399.11 114.116 399.837C114.083 399.942 114.018 400.033 113.93 400.098C113.842 400.163 113.736 400.198 113.627 400.199Z" fill="#EBEBEB"/>
<path d="M117.481 401.792H117.364C117.231 401.766 117.113 401.689 117.037 401.577C116.96 401.466 116.93 401.329 116.953 401.196C117.138 400.236 117.666 399.377 118.438 398.778C119.21 398.179 120.173 397.881 121.148 397.939C121.284 397.944 121.413 398.002 121.506 398.101C121.599 398.2 121.65 398.331 121.647 398.467C121.647 398.535 121.634 398.602 121.607 398.665C121.58 398.727 121.54 398.784 121.491 398.83C121.441 398.877 121.383 398.913 121.319 398.936C121.255 398.96 121.187 398.97 121.119 398.966C120.39 398.922 119.67 399.142 119.09 399.586C118.51 400.029 118.109 400.667 117.96 401.381C117.937 401.493 117.877 401.594 117.79 401.668C117.704 401.742 117.595 401.786 117.481 401.792Z" fill="#EBEBEB"/>
<defs>
<filter id="filter0_i_538_9198" x="17" y="67" width="461" height="288" filterUnits="userSpaceOnUse" color-interpolation-filters="sRGB">
<feFlood flood-opacity="0" result="BackgroundImageFix"/>
<feBlend mode="normal" in="SourceGraphic" in2="BackgroundImageFix" result="shape"/>
<feColorMatrix in="SourceAlpha" type="matrix" values="0 0 0 0 0 0 0 0 0 0 0 0 0 0 0 0 0 0 127 0" result="hardAlpha"/>
<feOffset dy="4"/>
<feGaussianBlur stdDeviation="2"/>
<feComposite in2="hardAlpha" operator="arithmetic" k2="-1" k3="1"/>
<feColorMatrix type="matrix" values="0 0 0 0 0 0 0 0 0 0 0 0 0 0 0 0 0 0 0.25 0"/>
<feBlend mode="normal" in2="shape" result="effect1_innerShadow_538_9198"/>
</filter>
</defs>
</svg>
