<svg width="415" height="415" viewBox="0 0 415 415" fill="none" xmlns="http://www.w3.org/2000/svg">
<path d="M242.223 261.558C225.863 270.995 225.863 286.308 242.223 295.753C258.582 305.199 285.092 305.199 301.451 295.753C317.811 286.308 317.802 270.995 301.451 261.558C285.1 252.12 258.574 252.112 242.223 261.558Z" fill="#EBEBEB"/>
<path d="M69.9766 126.185L113.801 112.557L80.086 135.913L69.9766 126.185Z" fill="#FFA8A7"/>
<path d="M113.804 112.558L66.6016 120.343L56.4922 110.607L113.804 112.558Z" fill="#FFA8A7"/>
<path d="M66.6016 120.342V132.02L69.9797 126.185L113.804 112.557L66.6016 120.342Z" fill="#455A64"/>
<path d="M66.6016 132.02L73.3495 129.431L69.9797 126.186L66.6016 132.02Z" fill="#FFA8A7"/>
<path d="M69.9766 126.186L73.3464 129.431L72.2674 129.838L69.9766 126.186Z" fill="#455A64"/>
<path d="M59.3373 130.26C59.1977 130.263 59.0613 130.219 58.95 130.134C58.8387 130.05 58.7589 129.931 58.7235 129.796C58.6881 129.661 58.6991 129.518 58.7547 129.39C58.8103 129.262 58.9073 129.156 59.0302 129.09C59.7772 128.675 60.5325 128.26 61.2795 127.936C61.3535 127.896 61.435 127.872 61.5188 127.864C61.6027 127.856 61.6873 127.866 61.7674 127.892C61.8475 127.918 61.9215 127.959 61.985 128.015C62.0484 128.07 62.1 128.138 62.1365 128.214C62.1731 128.29 62.1938 128.372 62.1975 128.456C62.2013 128.54 62.1879 128.624 62.1582 128.703C62.1285 128.782 62.0831 128.854 62.0248 128.915C61.9665 128.976 61.8965 129.024 61.819 129.057C61.0969 129.405 60.3582 129.779 59.6361 130.186C59.5437 130.234 59.4413 130.259 59.3373 130.26Z" fill="#E0E0E0"/>
<path d="M51.679 197.292C51.5518 197.294 51.4272 197.256 51.3221 197.184C49.9722 196.233 48.6934 195.184 47.4958 194.047C47.4199 193.998 47.3556 193.932 47.3075 193.856C47.2594 193.779 47.2285 193.693 47.2171 193.603C47.2057 193.513 47.214 193.422 47.2415 193.336C47.2689 193.25 47.3148 193.171 47.376 193.104C47.4371 193.037 47.5121 192.985 47.5957 192.95C47.6792 192.915 47.7693 192.899 47.8598 192.903C47.9502 192.906 48.0387 192.93 48.1192 192.971C48.1997 193.012 48.2702 193.071 48.3258 193.142C49.4809 194.239 50.7154 195.249 52.0193 196.163C52.1267 196.24 52.2069 196.349 52.2483 196.475C52.2897 196.6 52.29 196.736 52.2494 196.861C52.2087 196.987 52.1291 197.097 52.0221 197.174C51.9151 197.251 51.7862 197.293 51.6541 197.292H51.679ZM45.1718 191.25C45.0799 191.251 44.9889 191.231 44.9056 191.192C44.8223 191.154 44.7487 191.097 44.6904 191.026C43.6445 189.749 42.693 188.398 41.8435 186.984C41.7576 186.842 41.7317 186.671 41.7714 186.51C41.8111 186.349 41.9131 186.21 42.0551 186.125C42.1971 186.039 42.3674 186.013 42.5285 186.052C42.6896 186.092 42.8283 186.194 42.9142 186.336C43.7325 187.7 44.6479 189.004 45.6532 190.237C45.7568 190.364 45.8063 190.527 45.7907 190.69C45.7752 190.853 45.6959 191.004 45.5702 191.109C45.459 191.203 45.3173 191.253 45.1718 191.25ZM40.4989 183.697C40.3783 183.698 40.26 183.664 40.1583 183.599C40.0566 183.534 39.976 183.441 39.9262 183.332C39.2479 181.829 38.6657 180.285 38.1832 178.708C38.1477 178.555 38.1717 178.394 38.2503 178.258C38.3289 178.121 38.4562 178.02 38.6066 177.973C38.7571 177.927 38.9194 177.94 39.0611 178.008C39.2027 178.077 39.3131 178.197 39.3701 178.343C39.8289 179.868 40.3833 181.362 41.0301 182.817C41.0648 182.892 41.0845 182.972 41.0879 183.055C41.0912 183.137 41.0783 183.219 41.0497 183.296C41.0211 183.373 40.9776 183.444 40.9215 183.504C40.8654 183.564 40.7979 183.613 40.723 183.647C40.6523 183.678 40.5761 183.695 40.4989 183.697ZM37.8014 175.222C37.6574 175.221 37.5183 175.17 37.4079 175.078C37.2974 174.985 37.2223 174.858 37.1955 174.716C36.8786 173.104 36.6542 171.474 36.5232 169.836C36.51 169.671 36.5629 169.507 36.6703 169.381C36.7777 169.255 36.9308 169.177 37.0959 169.163C37.261 169.15 37.4245 169.203 37.5506 169.311C37.6767 169.418 37.755 169.571 37.7682 169.736C37.8903 171.327 38.1064 172.91 38.4156 174.475C38.4324 174.556 38.4331 174.638 38.4175 174.719C38.4018 174.799 38.3703 174.876 38.3247 174.944C38.279 175.012 38.2202 175.07 38.1517 175.115C38.0833 175.16 38.0065 175.191 37.9259 175.206L37.8014 175.222ZM37.0129 166.358C36.9308 166.358 36.8495 166.342 36.7739 166.31C36.6983 166.278 36.6298 166.231 36.5726 166.172C36.5153 166.114 36.4704 166.044 36.4406 165.967C36.4107 165.891 36.3964 165.809 36.3987 165.727C36.4181 164.085 36.5289 162.444 36.7307 160.814C36.7316 160.726 36.751 160.64 36.7876 160.56C36.8242 160.481 36.8771 160.41 36.9429 160.352C37.0087 160.295 37.086 160.251 37.1696 160.226C37.2533 160.2 37.3414 160.192 37.4283 160.203C37.5152 160.213 37.5988 160.242 37.6739 160.287C37.7489 160.332 37.8135 160.392 37.8636 160.464C37.9137 160.536 37.9481 160.618 37.9645 160.703C37.981 160.789 37.9791 160.878 37.9591 160.963C37.7672 162.55 37.6619 164.146 37.6437 165.744C37.6426 165.826 37.6254 165.906 37.5931 165.981C37.5608 166.057 37.5141 166.125 37.4555 166.182C37.3969 166.239 37.3277 166.284 37.2517 166.314C37.1758 166.344 37.0946 166.359 37.0129 166.358ZM38.0255 157.519C37.9788 157.527 37.9311 157.527 37.8844 157.519C37.724 157.483 37.5842 157.385 37.4956 157.247C37.407 157.108 37.3767 156.941 37.4113 156.78C37.7749 155.172 38.2407 153.589 38.8057 152.041C38.8332 151.96 38.877 151.885 38.9344 151.822C38.9919 151.759 39.0617 151.709 39.1395 151.673C39.2174 151.638 39.3016 151.62 39.3869 151.619C39.4723 151.618 39.5569 151.634 39.6357 151.667C39.7158 151.696 39.7892 151.74 39.8517 151.798C39.9142 151.855 39.9644 151.925 39.9993 152.002C40.0342 152.08 40.0531 152.164 40.0547 152.249C40.0564 152.334 40.0409 152.418 40.0092 152.497C39.4646 153.994 39.0155 155.525 38.6646 157.079C38.6236 157.214 38.538 157.33 38.4219 157.41C38.3058 157.49 38.1661 157.528 38.0255 157.519ZM40.9803 149.136C40.8846 149.139 40.7897 149.116 40.7064 149.069C40.6321 149.035 40.5655 148.985 40.5105 148.925C40.4555 148.864 40.4132 148.793 40.3862 148.715C40.3591 148.638 40.3478 148.556 40.3529 148.474C40.358 148.393 40.3794 148.313 40.4159 148.239C41.1403 146.76 41.9553 145.327 42.8561 143.948C42.9468 143.82 43.0828 143.73 43.2368 143.698C43.3908 143.665 43.5513 143.693 43.6861 143.774C43.8176 143.862 43.9101 143.997 43.9441 144.152C43.9781 144.307 43.9511 144.469 43.8687 144.604C42.9931 145.936 42.203 147.322 41.5032 148.754C41.4602 148.86 41.3885 148.952 41.2961 149.019C41.2037 149.087 41.0943 149.127 40.9803 149.136ZM45.7528 141.666C45.6139 141.667 45.4789 141.62 45.371 141.533C45.3063 141.482 45.2523 141.419 45.2122 141.347C45.1721 141.275 45.1467 141.196 45.1375 141.114C45.1282 141.032 45.1353 140.949 45.1582 140.87C45.1812 140.791 45.2197 140.717 45.2714 140.653C46.3086 139.372 47.417 138.15 48.5914 136.993C48.7081 136.876 48.8663 136.811 49.0313 136.811C49.1962 136.811 49.3544 136.876 49.4712 136.993C49.5877 137.109 49.6532 137.268 49.6532 137.433C49.6532 137.598 49.5877 137.756 49.4712 137.872C48.34 139.001 47.2705 140.19 46.2674 141.433C46.2031 141.504 46.123 141.559 46.0337 141.594C45.9443 141.628 45.8481 141.642 45.7528 141.632V141.666ZM51.9944 135.291C51.9039 135.291 51.8145 135.271 51.7327 135.232C51.651 135.193 51.5787 135.137 51.5213 135.067C51.4161 134.94 51.3651 134.776 51.379 134.612C51.393 134.447 51.4709 134.295 51.596 134.187C52.8595 133.137 54.1754 132.15 55.5385 131.232C55.6723 131.15 55.8321 131.122 55.986 131.153C56.1399 131.183 56.2765 131.271 56.3685 131.398C56.4611 131.536 56.4956 131.705 56.4646 131.868C56.4335 132.032 56.3393 132.176 56.2025 132.27C54.8726 133.163 53.5899 134.124 52.3596 135.15C52.2553 135.234 52.1277 135.283 51.9944 135.291Z" fill="#E0E0E0"/>
<path d="M57.3905 200.537C57.3014 200.538 57.2133 200.518 57.1332 200.479C56.3613 200.13 55.5977 199.757 54.8673 199.358C54.7958 199.321 54.7325 199.27 54.6809 199.208C54.6294 199.145 54.5905 199.074 54.5666 198.997C54.5427 198.92 54.5342 198.839 54.5417 198.758C54.5491 198.678 54.5723 198.6 54.61 198.528C54.6874 198.386 54.8176 198.279 54.9726 198.231C55.1277 198.183 55.2954 198.197 55.44 198.271C56.1538 198.653 56.8925 199.018 57.6395 199.358C57.7676 199.418 57.8716 199.519 57.9344 199.646C57.9973 199.773 58.0152 199.917 57.9853 200.055C57.9553 200.193 57.8793 200.317 57.7697 200.406C57.6601 200.495 57.5234 200.544 57.3821 200.545L57.3905 200.537Z" fill="#E0E0E0"/>
<path d="M341.289 170.416L376.398 147.939L391.861 152.903L341.289 170.416Z" fill="#FFA8A7"/>
<path d="M341.289 170.416L371.634 145.117L364.886 137.332L341.289 170.416Z" fill="#FFA8A7"/>
<path d="M371.634 145.117V150.985L341.289 170.416L371.634 145.117Z" fill="#455A64"/>
<path d="M378.486 142.669C378.336 142.67 378.191 142.614 378.08 142.512C377.957 142.402 377.882 142.248 377.871 142.084C377.861 141.919 377.915 141.757 378.022 141.632C379.103 140.426 380.062 139.117 380.885 137.723C380.969 137.579 381.106 137.475 381.266 137.433C381.427 137.391 381.597 137.415 381.74 137.498C381.883 137.582 381.987 137.719 382.029 137.879C382.071 138.04 382.048 138.21 381.964 138.353C381.095 139.815 380.089 141.191 378.96 142.462C378.9 142.528 378.827 142.581 378.746 142.617C378.664 142.653 378.576 142.671 378.486 142.669ZM383.234 134.934C383.16 134.946 383.084 134.946 383.01 134.934C382.931 134.904 382.86 134.858 382.799 134.8C382.739 134.741 382.691 134.671 382.658 134.593C382.626 134.516 382.609 134.432 382.61 134.348C382.61 134.264 382.628 134.181 382.661 134.104C383.248 132.592 383.687 131.027 383.973 129.431C384.002 129.268 384.096 129.124 384.232 129.029C384.368 128.935 384.536 128.899 384.699 128.929C384.862 128.958 385.006 129.052 385.101 129.188C385.195 129.324 385.231 129.492 385.201 129.655C384.895 131.328 384.431 132.967 383.815 134.552C383.768 134.667 383.688 134.765 383.584 134.833C383.48 134.901 383.358 134.936 383.234 134.934ZM385.01 126.028C384.929 126.027 384.849 126.01 384.774 125.977C384.699 125.945 384.632 125.898 384.575 125.839C384.519 125.78 384.475 125.711 384.446 125.635C384.416 125.559 384.402 125.478 384.404 125.397C384.404 125.181 384.404 124.965 384.404 124.75C384.401 123.341 384.29 121.934 384.072 120.542C384.048 120.378 384.09 120.211 384.188 120.078C384.285 119.944 384.432 119.854 384.595 119.828C384.759 119.806 384.924 119.848 385.057 119.946C385.19 120.043 385.281 120.188 385.309 120.351C385.533 121.806 385.647 123.277 385.649 124.75C385.649 124.974 385.649 125.198 385.649 125.422C385.643 125.586 385.572 125.742 385.453 125.855C385.334 125.968 385.175 126.03 385.01 126.028ZM383.757 117.031C383.623 117.03 383.494 116.986 383.387 116.905C383.281 116.824 383.204 116.711 383.168 116.582C382.691 115.025 382.095 113.507 381.383 112.042C381.347 111.969 381.325 111.889 381.32 111.807C381.315 111.725 381.326 111.643 381.353 111.566C381.381 111.489 381.423 111.418 381.478 111.357C381.533 111.296 381.599 111.247 381.674 111.212C381.822 111.141 381.993 111.132 382.149 111.186C382.304 111.24 382.432 111.354 382.504 111.503C383.246 113.025 383.865 114.604 384.355 116.226C384.379 116.303 384.387 116.385 384.379 116.467C384.372 116.548 384.348 116.627 384.309 116.699C384.27 116.77 384.218 116.834 384.154 116.885C384.091 116.936 384.018 116.975 383.94 116.997C383.882 117.02 383.819 117.032 383.757 117.031ZM379.906 108.789C379.801 108.79 379.698 108.763 379.606 108.713C379.514 108.662 379.437 108.588 379.383 108.498C378.493 107.132 377.514 105.826 376.453 104.589C376.399 104.527 376.359 104.455 376.333 104.377C376.307 104.299 376.297 104.217 376.303 104.135C376.31 104.054 376.332 103.974 376.369 103.901C376.406 103.828 376.457 103.762 376.519 103.709C376.581 103.656 376.652 103.615 376.729 103.59C376.806 103.564 376.888 103.554 376.969 103.56C377.05 103.566 377.129 103.589 377.202 103.626C377.274 103.663 377.338 103.714 377.391 103.776C378.493 105.056 379.508 106.41 380.429 107.826C380.505 107.963 380.529 108.123 380.495 108.276C380.462 108.429 380.373 108.564 380.246 108.656C380.147 108.729 380.029 108.772 379.906 108.78V108.789ZM374.096 101.808C373.937 101.808 373.785 101.745 373.672 101.634C372.477 100.516 371.222 99.4627 369.913 98.4802C369.847 98.4311 369.792 98.3697 369.75 98.2993C369.709 98.229 369.681 98.1511 369.67 98.0702C369.658 97.9893 369.663 97.9068 369.683 97.8277C369.703 97.7485 369.739 97.6741 369.788 97.6087C369.837 97.5433 369.899 97.4882 369.969 97.4465C370.039 97.4049 370.117 97.3775 370.198 97.3659C370.279 97.3544 370.361 97.3588 370.441 97.3791C370.52 97.3994 370.594 97.4351 370.66 97.4842C372.009 98.4925 373.3 99.576 374.527 100.729C374.62 100.815 374.684 100.927 374.712 101.049C374.739 101.172 374.729 101.3 374.682 101.417C374.635 101.534 374.554 101.634 374.45 101.704C374.345 101.774 374.222 101.81 374.096 101.808ZM366.817 96.2807C366.699 96.2796 366.584 96.245 366.485 96.1811C365.92 95.8325 365.331 95.4839 364.733 95.1436C363.903 94.6788 363.073 94.214 362.194 93.7741C362.113 93.7419 362.041 93.6933 361.98 93.6314C361.92 93.5695 361.873 93.4957 361.842 93.4146C361.812 93.3336 361.799 93.2471 361.804 93.1607C361.809 93.0743 361.832 92.9899 361.871 92.9129C361.91 92.8358 361.965 92.7679 362.033 92.7133C362.1 92.6587 362.177 92.6187 362.261 92.5958C362.344 92.573 362.432 92.5678 362.517 92.5806C362.603 92.5934 362.685 92.6239 362.758 92.6702C363.629 93.1184 364.501 93.5832 365.348 94.0646C365.962 94.4049 366.559 94.7618 367.14 95.127C367.274 95.2126 367.371 95.3463 367.409 95.5007C367.448 95.655 367.426 95.8183 367.348 95.957C367.294 96.0517 367.217 96.1311 367.124 96.1878C367.031 96.2444 366.925 96.2764 366.817 96.2807ZM292.407 95.8574C292.298 95.8562 292.19 95.8265 292.096 95.7712C292.001 95.7158 291.922 95.6369 291.868 95.542C291.789 95.4018 291.768 95.2364 291.81 95.0812C291.852 94.926 291.953 94.7935 292.092 94.712C293.536 93.882 295.022 93.052 296.524 92.3548C296.672 92.2828 296.842 92.2721 296.997 92.325C297.153 92.3778 297.281 92.49 297.354 92.637C297.423 92.7859 297.431 92.9559 297.377 93.1109C297.323 93.2659 297.21 93.3936 297.063 93.467C295.586 94.1891 294.125 94.961 292.706 95.7827C292.613 95.8279 292.51 95.8479 292.407 95.8408V95.8574ZM358.724 92.0643C358.638 92.0648 358.552 92.0449 358.475 92.0062C356.981 91.3505 355.437 90.7363 353.894 90.1885C353.737 90.1323 353.61 90.0164 353.539 89.8662C353.468 89.716 353.46 89.5438 353.516 89.3875C353.572 89.2312 353.688 89.1036 353.838 89.0328C353.988 88.962 354.161 88.9537 354.317 89.0099C355.886 89.5743 357.454 90.1968 358.981 90.8691C359.115 90.9257 359.224 91.0269 359.29 91.1554C359.357 91.2838 359.377 91.4315 359.346 91.5729C359.316 91.7144 359.237 91.8408 359.124 91.9305C359.01 92.0201 358.869 92.0674 358.724 92.0643ZM300.583 91.807C300.46 91.8078 300.34 91.7719 300.238 91.7038C300.136 91.6358 300.056 91.5387 300.01 91.4252C299.976 91.349 299.958 91.2669 299.956 91.1835C299.954 91.1001 299.969 91.0173 300 90.9399C300.031 90.8625 300.077 90.7921 300.136 90.7328C300.195 90.6736 300.265 90.6268 300.342 90.5952C301.877 89.9478 303.454 89.3502 305.031 88.8107C305.111 88.7778 305.196 88.7617 305.282 88.7634C305.367 88.765 305.452 88.7844 305.53 88.8202C305.608 88.8561 305.678 88.9076 305.735 88.9717C305.792 89.0357 305.835 89.1109 305.861 89.1925C305.892 89.2725 305.905 89.3577 305.902 89.4432C305.899 89.5286 305.878 89.6125 305.842 89.6899C305.806 89.7673 305.754 89.8366 305.69 89.8938C305.627 89.9509 305.552 89.9946 305.471 90.0225C303.919 90.5537 302.359 91.143 300.857 91.7738C300.767 91.7985 300.674 91.8042 300.583 91.7903V91.807ZM350.159 88.9352C350.101 88.9432 350.042 88.9432 349.984 88.9352C348.416 88.4787 346.805 88.1052 345.203 87.7151C345.123 87.6976 345.047 87.6646 344.98 87.6178C344.913 87.571 344.855 87.5114 344.811 87.4425C344.767 87.3735 344.736 87.2965 344.722 87.2158C344.707 87.1351 344.709 87.0523 344.726 86.9722C344.744 86.8921 344.777 86.8162 344.823 86.7489C344.87 86.6815 344.93 86.624 344.999 86.5797C345.068 86.5354 345.145 86.5051 345.226 86.4906C345.306 86.476 345.389 86.4775 345.469 86.495C347.129 86.8519 348.739 87.2752 350.333 87.74C350.477 87.7819 350.601 87.8743 350.682 88.0003C350.763 88.1262 350.796 88.2772 350.775 88.4256C350.754 88.5739 350.68 88.7096 350.566 88.8078C350.453 88.906 350.308 88.9601 350.159 88.9601V88.9352ZM309.198 88.8107C309.062 88.8101 308.93 88.7653 308.823 88.6828C308.715 88.6004 308.637 88.485 308.6 88.3542C308.578 88.2762 308.571 88.1945 308.58 88.1139C308.589 88.0332 308.613 87.9551 308.653 87.884C308.692 87.813 308.745 87.7505 308.809 87.7002C308.873 87.6498 308.946 87.6125 309.024 87.5906C310.626 87.1424 312.269 86.7606 313.904 86.3954C313.987 86.3689 314.075 86.3601 314.161 86.3696C314.247 86.379 314.331 86.4064 314.406 86.4501C314.481 86.4938 314.547 86.5528 314.598 86.6232C314.649 86.6937 314.684 86.774 314.702 86.8591C314.72 86.9442 314.72 87.0321 314.702 87.1172C314.684 87.2023 314.649 87.2826 314.598 87.3531C314.547 87.4236 314.482 87.4826 314.407 87.5264C314.331 87.5701 314.248 87.5977 314.161 87.6072C312.551 87.9475 310.941 88.3459 309.364 88.7858L309.198 88.8107ZM341.261 86.9349H341.136C339.518 86.6776 337.866 86.4701 336.239 86.3207C336.154 86.3197 336.069 86.3011 335.991 86.2659C335.913 86.2307 335.843 86.1798 335.785 86.1163C335.728 86.0528 335.684 85.978 335.656 85.8968C335.629 85.8155 335.619 85.7295 335.626 85.6441C335.634 85.5587 335.659 85.4757 335.7 85.4004C335.741 85.3251 335.797 85.2591 335.864 85.2065C335.932 85.154 336.01 85.1159 336.093 85.0948C336.176 85.0737 336.263 85.07 336.347 85.084C338.007 85.2334 339.667 85.4409 341.327 85.7065C341.489 85.735 341.634 85.8255 341.73 85.9588C341.826 86.0921 341.866 86.2577 341.842 86.4203C341.813 86.5546 341.74 86.6755 341.635 86.764C341.53 86.8526 341.398 86.9039 341.261 86.91V86.9349ZM318.112 86.8768C317.964 86.8767 317.822 86.824 317.709 86.7282C317.596 86.6324 317.522 86.4997 317.498 86.3539C317.474 86.1901 317.516 86.0234 317.613 85.8899C317.711 85.7564 317.858 85.6666 318.021 85.6401C319.681 85.3911 321.341 85.1836 323.001 85.0425C323.083 85.0354 323.165 85.0445 323.243 85.0692C323.322 85.0939 323.394 85.1338 323.457 85.1866C323.52 85.2394 323.572 85.3041 323.609 85.3769C323.647 85.4497 323.67 85.5293 323.677 85.611C323.685 85.6927 323.675 85.7751 323.651 85.8533C323.626 85.9316 323.586 86.0042 323.533 86.067C323.48 86.1298 323.416 86.1816 323.343 86.2194C323.27 86.2573 323.191 86.2804 323.109 86.2875C321.449 86.4286 319.83 86.6195 318.212 86.8768H318.112ZM332.181 86.0468C330.521 85.9887 328.861 85.9804 327.242 86.0468C327.161 86.0512 327.079 86.0392 327.002 86.0112C326.925 85.9833 326.855 85.9402 326.795 85.8843C326.736 85.8285 326.688 85.7612 326.655 85.6864C326.622 85.6116 326.604 85.5309 326.603 85.4492C326.6 85.3671 326.613 85.2852 326.642 85.2084C326.671 85.1315 326.715 85.0612 326.771 85.0016C326.828 84.942 326.895 84.8944 326.971 84.8615C327.046 84.8286 327.127 84.8111 327.209 84.8101C328.869 84.752 330.529 84.7603 332.189 84.8101C332.271 84.8122 332.351 84.8304 332.426 84.8637C332.501 84.897 332.568 84.9447 332.624 85.0041C332.681 85.0634 332.725 85.1333 332.754 85.2096C332.783 85.286 332.797 85.3674 332.795 85.4492C332.783 85.6048 332.713 85.7505 332.6 85.8578C332.486 85.9651 332.337 86.0265 332.181 86.0302V86.0468Z" fill="#E0E0E0"/>
<path d="M329.04 182.55V181.222H328.717C328.224 180.322 327.476 179.589 326.567 179.113C324.713 178.172 322.662 177.682 320.583 177.682C318.503 177.682 316.453 178.172 314.598 179.113C313.689 179.589 312.941 180.322 312.449 181.222H312.125V182.508C312.125 183.778 312.955 185.056 314.615 186.027C316.471 186.964 318.521 187.452 320.599 187.452C322.678 187.452 324.728 186.964 326.584 186.027C328.227 185.089 329.049 183.811 329.04 182.55Z" fill="#37474F"/>
<path d="M320.583 186.111C325.254 186.111 329.04 183.923 329.04 181.223C329.04 178.523 325.254 176.334 320.583 176.334C315.912 176.334 312.125 178.523 312.125 181.223C312.125 183.923 315.912 186.111 320.583 186.111Z" fill="#455A64"/>
<path d="M318.406 140.52V180.65C318.424 180.84 318.492 181.023 318.602 181.179C318.713 181.335 318.863 181.459 319.037 181.538C319.514 181.78 320.042 181.905 320.577 181.905C321.112 181.905 321.639 181.78 322.116 181.538C322.292 181.461 322.444 181.337 322.557 181.181C322.669 181.025 322.738 180.842 322.755 180.65V140.52H318.406Z" fill="#37474F"/>
<path d="M330.339 110.482C328.222 109.261 326.297 109.162 324.852 109.967L297.969 125.505L311.456 152.554L338.431 136.95V125.114C338.431 119.612 334.804 113.063 330.339 110.482Z" fill="#455A64"/>
<path d="M311.458 140.711V152.555L295.281 143.209V131.373C295.281 125.87 298.9 123.505 303.365 126.086C306.229 127.746 308.744 131.016 310.18 134.602C310.983 136.54 311.417 138.612 311.458 140.711Z" fill="#37474F"/>
<path d="M311.458 140.71V152.554L295.281 143.209L310.18 134.602C310.983 136.54 311.417 138.612 311.458 140.71Z" fill="#263238"/>
<path d="M308.757 144.768C307.271 140.469 302.44 134.891 297.967 132.318C293.493 129.745 291.086 131.131 292.572 135.43L295.269 143.216L311.454 152.562C311.454 152.562 310.251 149.067 308.757 144.768Z" fill="#455A64"/>
<path d="M319.888 141.159L318.983 140.636C318.789 140.547 318.575 140.511 318.362 140.531C318.149 140.551 317.945 140.628 317.772 140.752C317.272 141.079 316.856 141.52 316.557 142.037C316.259 142.555 316.086 143.135 316.054 143.732C316.031 143.946 316.066 144.162 316.155 144.357C316.244 144.553 316.384 144.721 316.56 144.844L317.39 145.326L317.548 145.068C317.72 145.031 317.885 144.967 318.037 144.877C318.537 144.552 318.953 144.113 319.252 143.597C319.55 143.081 319.723 142.501 319.755 141.906C319.755 141.757 319.735 141.61 319.697 141.466L319.888 141.159Z" fill="#263238"/>
<path d="M318.632 141.259C318.132 141.584 317.716 142.023 317.418 142.539C317.119 143.055 316.947 143.635 316.914 144.23C316.914 145.326 317.686 145.766 318.632 145.218C319.132 144.893 319.549 144.455 319.847 143.938C320.146 143.422 320.318 142.842 320.35 142.247C320.375 141.151 319.545 140.711 318.632 141.259Z" fill="#37474F"/>
<path d="M318.631 143.707C318.565 143.707 318.501 143.694 318.44 143.669C318.38 143.644 318.325 143.607 318.279 143.561C318.232 143.515 318.196 143.46 318.171 143.399C318.146 143.339 318.133 143.274 318.133 143.209V126.086C318.133 125.954 318.185 125.827 318.279 125.734C318.372 125.64 318.499 125.588 318.631 125.588C318.763 125.588 318.89 125.64 318.983 125.734C319.076 125.827 319.129 125.954 319.129 126.086V143.209C319.129 143.341 319.076 143.468 318.983 143.561C318.89 143.654 318.763 143.707 318.631 143.707Z" fill="#263238"/>
<path d="M319.078 126.534V131L323.867 126.086L319.078 126.534Z" fill="#37474F"/>
<path d="M67.2996 274.654C66.8846 274.878 59.2652 277.036 56.4432 273.31C53.6212 269.583 58.3107 263.773 55.663 261.632C53.0153 259.49 45.5951 261.632 43.8106 257.133C42.0261 252.634 47.3132 250.692 44.3418 246.152C42.466 243.289 37.2204 241.712 37.4611 239.047C37.8097 235.155 44.9809 234.067 51.2391 238.275C57.4973 242.483 60.4189 239.031 62.4026 238.748C64.3863 238.466 68.6691 239.089 68.5363 246.061C68.4035 253.033 67.2996 274.654 67.2996 274.654Z" fill="#FFA8A7"/>
<path d="M67.8033 264.77C67.7043 264.77 67.6086 264.735 67.5327 264.671C67.4569 264.608 67.4058 264.519 67.3883 264.422C65.2054 251.142 49.8255 240.41 41.8243 238.102C41.7714 238.088 41.7219 238.063 41.6788 238.03C41.6357 237.996 41.5999 237.953 41.5735 237.905C41.5472 237.857 41.5308 237.804 41.5254 237.75C41.52 237.695 41.5257 237.64 41.5421 237.588C41.573 237.482 41.6445 237.393 41.741 237.34C41.8375 237.287 41.9511 237.275 42.0567 237.306C50.2322 239.671 65.969 250.702 68.21 264.289C68.2269 264.397 68.2006 264.507 68.1369 264.595C68.0732 264.684 67.9772 264.744 67.8697 264.762L67.8033 264.77Z" fill="#FFA8A7"/>
<path d="M49.6613 253.657C49.57 253.658 49.4809 253.628 49.408 253.574C49.335 253.519 49.2821 253.441 49.2575 253.354C49.2329 253.266 49.238 253.172 49.272 253.087C49.306 253.003 49.3669 252.931 49.4454 252.885C49.6944 252.735 55.6206 249.274 61.4472 250.893C61.5573 250.922 61.6515 250.993 61.7091 251.091C61.7667 251.189 61.783 251.306 61.7544 251.416C61.7257 251.526 61.6546 251.62 61.5565 251.678C61.4584 251.735 61.3415 251.752 61.2314 251.723C55.7368 250.196 49.9269 253.59 49.8688 253.624C49.8042 253.654 49.7322 253.666 49.6613 253.657Z" fill="#FFA8A7"/>
<path d="M284.279 204.528C287.549 204.976 293.119 203.084 293.517 197.639C293.916 192.194 296.165 190.717 300.29 189.829C304.415 188.941 305.627 187.505 306.1 184.915C306.573 182.326 303.436 179.23 304.315 175.329C305.195 171.428 308.133 171.436 311.022 167.029C312.873 164.19 309.08 159.858 302.763 161.717C296.447 163.576 296.953 167.651 290.637 168.174C284.321 168.697 280.362 172.532 280.237 177.304C280.113 182.077 284.279 204.528 284.279 204.528Z" fill="#FFA8A7"/>
<path opacity="0.2" d="M284.279 204.528C287.549 204.976 293.119 203.084 293.517 197.639C293.916 192.194 296.165 190.717 300.29 189.829C304.415 188.941 305.627 187.505 306.1 184.915C306.573 182.326 303.436 179.23 304.315 175.329C305.195 171.428 308.133 171.436 311.022 167.029C312.873 164.19 309.08 159.858 302.763 161.717C296.447 163.576 296.953 167.651 290.637 168.174C284.321 168.697 280.362 172.532 280.237 177.304C280.113 182.077 284.279 204.528 284.279 204.528Z" fill="black"/>
<path d="M283.085 194.086H283.035C282.982 194.075 282.931 194.054 282.886 194.023C282.841 193.993 282.802 193.954 282.772 193.908C282.742 193.863 282.721 193.812 282.711 193.758C282.7 193.705 282.701 193.65 282.712 193.596C285.766 178.499 302.424 164.679 306.483 163.268C306.593 163.232 306.713 163.241 306.816 163.293C306.92 163.345 306.998 163.436 307.035 163.546C307.071 163.656 307.062 163.776 307.01 163.88C306.958 163.983 306.867 164.062 306.757 164.098C302.789 165.476 286.513 179.038 283.517 193.804C283.486 193.892 283.427 193.967 283.349 194.018C283.271 194.069 283.178 194.093 283.085 194.086Z" fill="#FFA8A7"/>
<path d="M63.8125 188.735C63.853 187.986 64.0696 187.258 64.4446 186.609C64.8195 185.96 65.3424 185.409 65.9705 185L176.286 121.306C176.954 120.97 177.692 120.795 178.44 120.795C179.188 120.795 179.925 120.97 180.594 121.306L183.025 122.717C183.655 123.124 184.179 123.675 184.554 124.324C184.929 124.974 185.145 125.703 185.183 126.452V211.012C185.141 211.76 184.924 212.488 184.549 213.136C184.174 213.785 183.652 214.337 183.025 214.747L72.7101 278.433C72.0415 278.773 71.3021 278.95 70.5521 278.95C69.8021 278.95 69.0627 278.773 68.3941 278.433L65.9705 277.03C65.3433 276.62 64.8212 276.069 64.4463 275.42C64.0715 274.771 63.8543 274.043 63.8125 273.295V188.735Z" fill="#FFA8A7"/>
<path opacity="0.3" d="M63.8125 188.735C63.853 187.986 64.0696 187.258 64.4446 186.609C64.8195 185.96 65.3424 185.409 65.9705 185L176.286 121.306C176.954 120.97 177.692 120.795 178.44 120.795C179.188 120.795 179.925 120.97 180.594 121.306L183.025 122.717C183.655 123.124 184.179 123.675 184.554 124.324C184.929 124.974 185.145 125.703 185.183 126.452V211.012C185.141 211.76 184.924 212.488 184.549 213.136C184.174 213.785 183.652 214.337 183.025 214.747L72.7101 278.433C72.0415 278.773 71.3021 278.95 70.5521 278.95C69.8021 278.95 69.0627 278.773 68.3941 278.433L65.9705 277.03C65.3433 276.62 64.8212 276.069 64.4463 275.42C64.0715 274.771 63.8543 274.043 63.8125 273.295V188.735Z" fill="black"/>
<path d="M73.9219 192.087L64.4433 186.609C64.0558 187.252 63.8387 187.984 63.8125 188.734V273.295C63.8543 274.043 64.0715 274.771 64.4463 275.419C64.8212 276.068 65.3433 276.62 65.9705 277.03L68.3941 278.432C69.0627 278.772 69.8021 278.949 70.5521 278.949C71.3021 278.949 72.0415 278.772 72.7101 278.432L73.9219 277.735V192.087Z" fill="#FFA8A7"/>
<path opacity="0.5" d="M73.9219 192.087L64.4433 186.609C64.0558 187.252 63.8387 187.984 63.8125 188.734V273.295C63.8543 274.043 64.0715 274.771 64.4463 275.419C64.8212 276.068 65.3433 276.62 65.9705 277.03L68.3941 278.432C69.0627 278.772 69.8021 278.949 70.5521 278.949C71.3021 278.949 72.0415 278.772 72.7101 278.432L73.9219 277.735V192.087Z" fill="black"/>
<path d="M185.183 126.451V211.012C185.155 211.786 184.923 212.539 184.511 213.195C184.192 213.747 183.763 214.227 183.249 214.606L183.166 214.655L183.025 214.747L72.7098 278.433C72.4987 278.582 72.2533 278.675 71.9965 278.704C71.7397 278.733 71.4797 278.697 71.2407 278.599C71.0109 278.454 70.8252 278.249 70.7037 278.006C70.5823 277.763 70.5297 277.492 70.5518 277.221V192.627C70.533 192.325 70.5879 192.022 70.7119 191.745C70.8358 191.468 71.025 191.225 71.2633 191.038C71.5016 190.85 71.7818 190.723 72.08 190.667C72.3782 190.612 72.6855 190.629 72.9754 190.718L119.364 201.749L125.44 203.193C126.157 203.328 126.897 203.263 127.58 203.007C128.263 202.751 128.864 202.313 129.316 201.741L136.354 191.938L183.731 125.978C184.527 124.866 185.183 125.074 185.183 126.451Z" fill="#FFA8A7"/>
<path opacity="0.2" d="M185.183 126.451V211.012C185.155 211.786 184.923 212.539 184.511 213.195C184.192 213.747 183.763 214.227 183.249 214.606L183.166 214.655L183.025 214.747L72.7098 278.433C72.4987 278.582 72.2533 278.675 71.9965 278.704C71.7397 278.733 71.4797 278.697 71.2407 278.599C71.0109 278.454 70.8252 278.249 70.7037 278.006C70.5823 277.763 70.5297 277.492 70.5518 277.221V192.627C70.533 192.325 70.5879 192.022 70.7119 191.745C70.8358 191.468 71.025 191.225 71.2633 191.038C71.5016 190.85 71.7818 190.723 72.08 190.667C72.3782 190.612 72.6855 190.629 72.9754 190.718L119.364 201.749L125.44 203.193C126.157 203.328 126.897 203.263 127.58 203.007C128.263 202.751 128.864 202.313 129.316 201.741L136.354 191.938L183.731 125.978C184.527 124.866 185.183 125.074 185.183 126.451Z" fill="black"/>
<path d="M183.022 214.747L183.164 214.656L183.247 214.606C183.76 214.227 184.189 213.747 184.508 213.195C184.916 212.549 185.148 211.808 185.18 211.045L136.352 191.955L169.054 222.831L183.022 214.747Z" fill="#FFA8A7"/>
<path opacity="0.6" d="M183.022 214.747L183.164 214.656L183.247 214.606C183.76 214.227 184.189 213.747 184.508 213.195C184.916 212.549 185.148 211.808 185.18 211.045L136.352 191.955L169.054 222.831L183.022 214.747Z" fill="black"/>
<path d="M70.5488 277.219C70.5171 277.495 70.5633 277.774 70.6821 278.025C70.8009 278.276 70.9876 278.489 71.2211 278.639C71.4601 278.737 71.7201 278.773 71.9769 278.744C72.2337 278.715 72.4791 278.622 72.6902 278.473L110.688 256.469L119.361 201.689L70.5488 275.784V277.219Z" fill="#FFA8A7"/>
<path opacity="0.6" d="M70.5488 277.219C70.5171 277.495 70.5633 277.774 70.6821 278.025C70.8009 278.276 70.9876 278.489 71.2211 278.639C71.4601 278.737 71.7201 278.773 71.9769 278.744C72.2337 278.715 72.4791 278.622 72.6902 278.473L110.688 256.469L119.361 201.689L70.5488 275.784V277.219Z" fill="black"/>
<path d="M184.512 213.194C184.194 213.747 183.764 214.227 183.251 214.605L183.168 214.655L72.7113 278.432C72.5002 278.581 72.2548 278.675 71.998 278.704C71.7412 278.733 71.4812 278.696 71.2422 278.598L124.072 194.262C125.133 192.573 126.768 191.322 128.677 190.74C130.585 190.158 132.639 190.283 134.463 191.091L184.512 213.194Z" fill="#FFA8A7"/>
<path opacity="0.2" d="M184.512 213.194C184.194 213.747 183.764 214.227 183.251 214.605L183.168 214.655L72.7113 278.432C72.5002 278.581 72.2548 278.675 71.998 278.704C71.7412 278.733 71.4812 278.696 71.2422 278.598L124.072 194.262C125.133 192.573 126.768 191.322 128.677 190.74C130.585 190.158 132.639 190.283 134.463 191.091L184.512 213.194Z" fill="black"/>
<path d="M70.5547 190.137L121.293 212.547C123.119 213.354 125.176 213.475 127.084 212.888C128.993 212.301 130.626 211.045 131.684 209.352L184.962 124.086L70.5547 190.137Z" fill="#FFA8A7"/>
<path opacity="0.6" d="M70.5547 190.137L121.293 212.547C123.119 213.354 125.176 213.475 127.084 212.888C128.993 212.301 130.626 211.045 131.684 209.352L184.962 124.086L70.5547 190.137Z" fill="black"/>
<path d="M70.5547 190.137L121.649 209.227C123.415 209.887 125.353 209.925 127.143 209.337C128.934 208.749 130.471 207.568 131.502 205.99L184.962 124.086L70.5547 190.137Z" fill="#FFA8A7"/>
<path opacity="0.2" d="M70.5547 190.137L121.649 209.227C123.415 209.887 125.353 209.925 127.143 209.337C128.934 208.749 130.471 207.568 131.502 205.99L184.962 124.086L70.5547 190.137Z" fill="black"/>
<path d="M82.6562 199.151C82.6948 198.402 82.9105 197.673 83.2857 197.024C83.6608 196.374 84.1847 195.823 84.8142 195.416L195.13 131.722C195.798 131.382 196.538 131.205 197.288 131.205C198.038 131.205 198.777 131.382 199.446 131.722L201.877 133.125C202.504 133.534 203.025 134.086 203.399 134.735C203.772 135.384 203.988 136.112 204.027 136.86V221.42C203.986 222.167 203.77 222.895 203.397 223.543C203.024 224.192 202.503 224.744 201.877 225.155L91.5539 288.841C90.8855 289.177 90.1479 289.352 89.4 289.352C88.6521 289.352 87.9145 289.177 87.2461 288.841L84.8142 287.438C84.1875 287.028 83.6657 286.476 83.2909 285.827C82.9161 285.179 82.6987 284.451 82.6562 283.703V199.151Z" fill="#455A64"/>
<path d="M82.6562 199.151C82.6948 198.402 82.9105 197.673 83.2857 197.024C83.6608 196.374 84.1847 195.823 84.8142 195.416L195.13 131.722C195.798 131.382 196.538 131.205 197.288 131.205C198.038 131.205 198.777 131.382 199.446 131.722L201.877 133.125C202.504 133.534 203.025 134.086 203.399 134.735C203.772 135.384 203.988 136.112 204.027 136.86V221.42C203.986 222.167 203.77 222.895 203.397 223.543C203.024 224.192 202.503 224.744 201.877 225.155L91.5539 288.841C90.8855 289.177 90.1479 289.352 89.4 289.352C88.6521 289.352 87.9145 289.177 87.2461 288.841L84.8142 287.438C84.1875 287.028 83.6657 286.476 83.2909 285.827C82.9161 285.179 82.6987 284.451 82.6562 283.703V199.151Z" fill="#455A64"/>
<path d="M92.7739 202.52L83.287 197.051C82.8985 197.693 82.6813 198.425 82.6562 199.176V283.711C82.6987 284.459 82.9161 285.187 83.2909 285.835C83.6657 286.484 84.1875 287.036 84.8142 287.446L87.2461 288.849C87.9145 289.185 88.6521 289.359 89.4 289.359C90.1479 289.359 90.8855 289.185 91.5539 288.849L92.7739 288.143V202.52Z" fill="#263238"/>
<path d="M204.031 136.858V221.419C204.003 222.193 203.771 222.946 203.358 223.602C203.04 224.154 202.61 224.634 202.097 225.013L202.014 225.063L201.873 225.154L91.5574 288.84C91.3463 288.989 91.1009 289.082 90.8441 289.111C90.5873 289.14 90.3273 289.104 90.0883 289.006C89.8548 288.856 89.6681 288.643 89.5493 288.392C89.4304 288.141 89.3843 287.862 89.416 287.586V203.034C89.3972 202.732 89.4521 202.429 89.5761 202.152C89.7 201.875 89.8892 201.632 90.1275 201.445C90.3658 201.257 90.646 201.13 90.9442 201.074C91.2424 201.019 91.5496 201.036 91.8396 201.125L138.228 212.156L144.304 213.6C145.021 213.735 145.761 213.67 146.444 213.414C147.128 213.158 147.728 212.72 148.18 212.148L155.21 202.345L202.586 136.385C203.35 135.29 204.031 135.481 204.031 136.858Z" fill="#37474F"/>
<path d="M201.874 225.155L202.015 225.063L202.098 225.013C202.611 224.635 203.041 224.155 203.36 223.602C203.763 222.958 203.991 222.22 204.024 221.461L155.203 202.371L187.897 233.23L201.874 225.155Z" fill="#263238"/>
<path d="M89.3994 287.596C89.3677 287.872 89.4139 288.151 89.5327 288.402C89.6515 288.653 89.8382 288.865 90.0717 289.015C90.3108 289.113 90.5707 289.15 90.8276 289.121C91.0844 289.092 91.3297 288.998 91.5408 288.849L129.522 266.921L138.195 212.141L89.3828 286.177L89.3994 287.596Z" fill="#263238"/>
<path d="M203.356 223.601C203.037 224.154 202.607 224.634 202.094 225.012L202.011 225.062L91.5628 288.839C91.3517 288.988 91.1064 289.082 90.8496 289.111C90.5928 289.14 90.3328 289.104 90.0938 289.005L142.915 204.677C143.974 202.985 145.608 201.731 147.516 201.146C149.425 200.561 151.481 200.683 153.307 201.49L203.356 223.601Z" fill="#37474F"/>
<path d="M89.3984 200.554L140.136 222.964C141.962 223.768 144.017 223.888 145.923 223.301C147.83 222.714 149.462 221.46 150.52 219.768L203.797 134.461L89.3984 200.554Z" fill="#263238"/>
<path d="M89.3984 200.554L140.485 219.644C142.252 220.305 144.191 220.345 145.983 219.757C147.776 219.168 149.314 217.987 150.345 216.407L203.797 134.461L89.3984 200.554Z" fill="#37474F"/>
<path d="M163.57 266.272V181.712C163.647 180.108 164.149 178.552 165.023 177.205L217.637 103.941C218.597 102.602 219.933 101.58 221.476 101.003C223.019 100.427 224.699 100.323 226.302 100.704L275.778 112.465C277.372 112.889 278.91 113.502 280.36 114.291L282.792 115.694C283.417 116.105 283.937 116.657 284.31 117.306C284.684 117.954 284.9 118.681 284.941 119.429V203.989C284.898 204.736 284.682 205.463 284.309 206.111C283.935 206.759 283.416 207.312 282.792 207.724L172.468 271.41C171.8 271.748 171.062 271.924 170.314 271.924C169.566 271.924 168.828 271.748 168.16 271.41L165.728 270.007C165.101 269.597 164.579 269.046 164.204 268.397C163.829 267.748 163.612 267.02 163.57 266.272Z" fill="#FFA8A7"/>
<path opacity="0.3" d="M163.57 266.272V181.712C163.647 180.108 164.149 178.552 165.023 177.205L217.637 103.941C218.597 102.602 219.933 101.58 221.476 101.003C223.019 100.427 224.699 100.323 226.302 100.704L275.778 112.465C277.372 112.889 278.91 113.502 280.36 114.291L282.792 115.694C283.417 116.105 283.937 116.657 284.31 117.306C284.684 117.954 284.9 118.681 284.941 119.429V203.989C284.898 204.736 284.682 205.463 284.309 206.111C283.935 206.759 283.416 207.312 282.792 207.724L172.468 271.41C171.8 271.748 171.062 271.924 170.314 271.924C169.566 271.924 168.828 271.748 168.16 271.41L165.728 270.007C165.101 269.597 164.579 269.046 164.204 268.397C163.829 267.748 163.612 267.02 163.57 266.272Z" fill="#FFA8A7"/>
<path d="M173.68 140.843V248.743C173.68 250.113 174.651 250.677 175.838 249.988L279.413 190.228C280.042 189.82 280.565 189.269 280.94 188.62C281.315 187.97 281.531 187.242 281.571 186.493V78.5933C281.571 77.2155 280.609 76.6594 279.413 77.3483L175.838 137.108C175.21 137.517 174.687 138.069 174.312 138.718C173.937 139.367 173.72 140.095 173.68 140.843Z" fill="white"/>
<path d="M174.876 250.71C174.608 250.712 174.345 250.643 174.112 250.511C173.828 250.321 173.601 250.058 173.455 249.75C173.309 249.442 173.249 249.099 173.282 248.759V140.859C173.322 140.037 173.557 139.236 173.968 138.523C174.38 137.81 174.956 137.205 175.648 136.759L279.224 76.9993C279.494 76.779 279.825 76.6463 280.173 76.6187C280.52 76.5911 280.868 76.6698 281.17 76.8446C281.471 77.0193 281.713 77.2818 281.862 77.597C282.011 77.9122 282.061 78.2654 282.004 78.6095V186.509C281.965 187.331 281.73 188.131 281.319 188.843C280.907 189.555 280.331 190.158 279.639 190.601L176.063 250.361C175.705 250.581 175.296 250.701 174.876 250.71ZM280.377 77.4226C280.109 77.4379 279.849 77.5207 279.622 77.6633L176.046 137.465C175.482 137.839 175.013 138.339 174.674 138.925C174.336 139.511 174.138 140.167 174.096 140.843V248.743C174.046 248.937 174.061 249.143 174.139 249.328C174.217 249.513 174.353 249.668 174.527 249.769C174.701 249.869 174.903 249.91 175.102 249.885C175.302 249.86 175.487 249.771 175.631 249.631L279.207 189.871C279.771 189.497 280.241 188.998 280.58 188.411C280.918 187.825 281.116 187.168 281.157 186.493V78.5929C281.181 78.3982 281.154 78.2008 281.08 78.0193C281.006 77.8377 280.887 77.6781 280.734 77.5554C280.629 77.4796 280.506 77.4337 280.377 77.4226Z" fill="#E0E0E0"/>
<path d="M171.447 183.771L163.977 179.455C163.735 180.184 163.6 180.945 163.578 181.713V266.273C163.62 267.021 163.837 267.749 164.212 268.398C164.587 269.047 165.109 269.598 165.736 270.008L168.16 271.411C168.827 271.75 169.565 271.927 170.314 271.927C171.062 271.927 171.8 271.75 172.467 271.411L173.505 270.821L171.447 183.771Z" fill="#FFA8A7"/>
<g opacity="0.1">
<path d="M171.447 183.771L163.977 179.455C163.735 180.184 163.6 180.945 163.578 181.713V266.273C163.62 267.021 163.837 267.749 164.212 268.398C164.587 269.047 165.109 269.598 165.736 270.008L168.16 271.411C168.827 271.75 169.565 271.927 170.314 271.927C171.062 271.927 171.8 271.75 172.467 271.411L173.505 270.821L171.447 183.771Z" fill="black"/>
</g>
<path d="M284.953 119.429V203.989C284.925 204.763 284.693 205.516 284.28 206.172C283.962 206.724 283.532 207.205 283.019 207.583L282.936 207.633L282.795 207.724L172.479 271.41C172.268 271.559 172.023 271.653 171.766 271.682C171.509 271.711 171.249 271.674 171.01 271.576C170.777 271.426 170.59 271.213 170.471 270.963C170.352 270.712 170.306 270.433 170.338 270.157V185.605C170.319 185.302 170.374 184.999 170.498 184.722C170.622 184.445 170.811 184.203 171.049 184.015C171.288 183.827 171.568 183.7 171.866 183.645C172.164 183.589 172.472 183.607 172.761 183.696L219.125 194.726L225.201 196.171C225.919 196.307 226.661 196.243 227.346 195.987C228.031 195.731 228.632 195.292 229.085 194.718L236.124 184.916L283.5 118.956C284.297 117.86 284.953 118.051 284.953 119.429Z" fill="#FFA8A7"/>
<path opacity="0.3" d="M284.953 119.429V203.989C284.925 204.763 284.693 205.516 284.28 206.172C283.962 206.724 283.532 207.205 283.019 207.583L282.936 207.633L282.795 207.724L172.479 271.41C172.268 271.559 172.023 271.653 171.766 271.682C171.509 271.711 171.249 271.674 171.01 271.576C170.777 271.426 170.59 271.213 170.471 270.963C170.352 270.712 170.306 270.433 170.338 270.157V185.605C170.319 185.302 170.374 184.999 170.498 184.722C170.622 184.445 170.811 184.203 171.049 184.015C171.288 183.827 171.568 183.7 171.866 183.645C172.164 183.589 172.472 183.607 172.761 183.696L219.125 194.726L225.201 196.171C225.919 196.307 226.661 196.243 227.346 195.987C228.031 195.731 228.632 195.292 229.085 194.718L236.124 184.916L283.5 118.956C284.297 117.86 284.953 118.051 284.953 119.429Z" fill="#FFA8A7"/>
<path d="M282.788 207.723L282.929 207.632L283.012 207.582C283.526 207.204 283.955 206.724 284.274 206.171C284.677 205.524 284.906 204.784 284.938 204.022L236.117 184.932L268.811 215.799L282.788 207.723Z" fill="#FFA8A7"/>
<path d="M170.321 270.164C170.29 270.44 170.336 270.719 170.455 270.97C170.573 271.221 170.76 271.433 170.994 271.584C171.233 271.682 171.493 271.718 171.749 271.689C172.006 271.66 172.252 271.567 172.463 271.418L210.443 249.489L219.117 194.709L170.305 268.745L170.321 270.164Z" fill="#FFA8A7"/>
<path d="M284.278 206.173C283.959 206.725 283.53 207.205 283.016 207.584L282.933 207.633L172.477 271.411C172.266 271.56 172.02 271.653 171.764 271.682C171.507 271.711 171.247 271.675 171.008 271.577L223.829 187.249C224.888 185.558 226.52 184.306 228.427 183.721C230.334 183.136 232.387 183.256 234.212 184.061L284.278 206.173Z" fill="#FFA8A7"/>
<path opacity="0.3" d="M284.278 206.173C283.959 206.725 283.53 207.205 283.016 207.584L282.933 207.633L172.477 271.411C172.266 271.56 172.02 271.653 171.764 271.682C171.507 271.711 171.247 271.675 171.008 271.577L223.829 187.249C224.888 185.558 226.52 184.306 228.427 183.721C230.334 183.136 232.387 183.256 234.212 184.061L284.278 206.173Z" fill="#FFA8A7"/>
<path d="M219.291 165.692C218.322 165.842 217.332 165.754 216.405 165.436C215.478 165.118 214.643 164.579 213.971 163.866C212.709 162.464 212.078 160.297 212.078 157.384C212.08 154.097 212.785 150.848 214.145 147.856C215.541 144.776 217.468 141.967 219.839 139.556C222.387 136.913 225.293 134.639 228.471 132.8C231.586 131.007 234.245 130.014 236.447 129.82C238.663 129.621 240.331 130.193 241.477 131.521C242.622 132.849 243.187 134.883 243.187 137.605C243.235 140.305 242.595 142.973 241.327 145.357C240.21 147.517 238.507 149.318 236.414 150.553C235.691 151.067 234.805 151.297 233.924 151.201C233.61 151.139 233.321 150.987 233.091 150.765C232.862 150.543 232.701 150.259 232.629 149.947C231.938 151.255 231.06 152.454 230.023 153.508C228.973 154.591 227.778 155.521 226.47 156.272C224.213 157.55 222.412 157.932 221.084 157.492C219.756 157.052 219.125 155.708 219.125 153.467C219.144 150.65 220.012 147.905 221.615 145.59C223.36 143.023 225.679 140.897 228.388 139.381C229.519 138.708 230.748 138.215 232.031 137.921C232.985 137.662 233.991 137.662 234.945 137.921V146.661C234.945 147.366 235.069 147.798 235.31 147.964C235.551 148.13 235.949 148.047 236.513 147.723C237.565 147.039 238.343 146.008 238.713 144.81C239.274 143.191 239.541 141.484 239.501 139.772C239.501 137.591 239.025 136.006 238.074 135.016C237.565 134.518 236.945 134.15 236.264 133.942C235.584 133.734 234.864 133.693 234.164 133.82C232.138 134.13 230.197 134.853 228.462 135.945C224.793 137.981 221.629 140.818 219.208 144.245C216.97 147.462 215.781 151.291 215.805 155.21C215.805 157.594 216.295 159.335 217.274 160.43C217.782 160.979 218.417 161.393 219.124 161.636C219.831 161.88 220.587 161.944 221.324 161.825C223.39 161.532 225.37 160.805 227.134 159.692C228.352 158.987 229.505 158.176 230.579 157.268C231.579 156.442 232.489 155.513 233.293 154.496C233.376 154.389 233.474 154.294 233.583 154.214C233.658 154.172 233.733 154.214 233.799 154.313L234.712 155.973C234.746 156.039 234.771 156.109 234.787 156.181C234.758 156.366 234.667 156.535 234.53 156.662C233.527 157.868 232.415 158.979 231.21 159.982C229.94 161.047 228.582 162.002 227.151 162.837C224.767 164.343 222.086 165.317 219.291 165.692ZM230.081 150.088C230.871 149.156 231.332 147.989 231.392 146.768V141.705C230.208 141.805 229.067 142.199 228.072 142.851C226.489 143.741 225.14 144.996 224.138 146.511C223.198 147.901 222.692 149.539 222.686 151.217C222.686 152.62 223.034 153.458 223.74 153.707C224.445 153.956 225.532 153.707 227.018 152.819C228.221 152.123 229.273 151.195 230.114 150.088H230.081Z" fill="#E0E0E0"/>
<path d="M113.576 174.009L105.483 169.319H105.425C102.661 167.759 98.8517 167.991 94.6353 170.423C86.161 175.312 79.2969 187.206 79.2969 196.983C79.2969 201.872 81.0067 205.283 83.7706 206.943L91.2987 211.251L92.6599 208.985C94.2037 208.639 95.6866 208.063 97.0589 207.275C105.525 202.378 112.397 190.484 112.397 180.715C112.393 179.395 112.231 178.08 111.916 176.798L113.576 174.009Z" fill="#FFA8A7"/>
<path d="M113.576 174.009L105.483 169.319H105.425C102.661 167.759 98.8517 167.991 94.6353 170.423C86.161 175.312 79.2969 187.206 79.2969 196.983C79.2969 201.872 81.0067 205.283 83.7706 206.943L91.2987 211.251L92.6599 208.985C94.2037 208.639 95.6866 208.063 97.0589 207.275C105.525 202.378 112.397 190.484 112.397 180.715C112.393 179.395 112.231 178.08 111.916 176.798L113.576 174.009Z" fill="#FFA8A7"/>
<path opacity="0.4" d="M113.576 174.009L105.483 169.319H105.425C102.661 167.759 98.8517 167.991 94.6353 170.423C86.161 175.312 79.2969 187.206 79.2969 196.983C79.2969 201.872 81.0067 205.283 83.7706 206.943L91.2987 211.251L92.6599 208.985C94.2037 208.639 95.6866 208.063 97.0589 207.275C105.525 202.378 112.397 190.484 112.397 180.715C112.393 179.395 112.231 178.08 111.916 176.798L113.576 174.009Z" fill="black"/>
<path d="M102.409 174.88C93.9344 179.777 87.0703 191.671 87.0703 201.44C87.0703 211.209 93.9344 215.185 102.409 210.296C110.883 205.408 117.747 193.514 117.747 183.736C117.747 173.959 110.883 169.991 102.409 174.88Z" fill="#FFA8A7"/>
<path d="M96.4204 203.781C96.2627 203.781 96.1797 203.69 96.1797 203.549C96.196 203.392 96.241 203.24 96.3125 203.1L97.0844 201.366C97.1355 201.196 97.2368 201.045 97.3749 200.934C97.4898 200.882 97.614 200.854 97.7401 200.851C98.4307 200.81 99.1123 200.673 99.7653 200.444C100.634 200.152 101.468 199.768 102.255 199.299C103.48 198.636 104.554 197.726 105.409 196.626C106.051 195.795 106.409 194.78 106.43 193.73C106.43 191.895 105.31 191.63 103.069 192.9L100.886 194.219C100.529 194.419 100.28 194.493 100.13 194.427C99.9811 194.361 99.9064 194.161 99.9064 193.829V193.14C99.8946 192.847 99.9728 192.558 100.13 192.31C100.33 192.041 100.589 191.819 100.886 191.663L103.052 190.41C103.92 189.937 104.656 189.256 105.193 188.426C105.644 187.73 105.891 186.922 105.907 186.094C105.907 184.318 104.657 184.152 102.156 185.596C100.618 186.472 99.2327 187.594 98.0555 188.916C97.9449 189.041 97.8226 189.155 97.6903 189.256C97.6414 189.279 97.5862 189.285 97.5335 189.273C97.4808 189.261 97.4337 189.232 97.3998 189.19L96.6611 188.36C96.6199 188.321 96.5868 188.275 96.564 188.224C96.5412 188.173 96.529 188.117 96.5283 188.061C96.5451 187.87 96.6272 187.692 96.7607 187.555C97.496 186.635 98.3311 185.8 99.2507 185.065C100.322 184.192 101.463 183.409 102.662 182.724C103.745 182.05 104.939 181.575 106.189 181.321C106.583 181.225 106.992 181.217 107.389 181.295C107.787 181.374 108.162 181.539 108.489 181.778C108.783 182.062 109.011 182.408 109.154 182.792C109.298 183.175 109.354 183.586 109.319 183.994C109.3 184.908 109.097 185.808 108.721 186.642C108.32 187.603 107.759 188.49 107.061 189.264C107.419 189.144 107.802 189.117 108.174 189.185C108.545 189.254 108.894 189.415 109.186 189.654C109.442 189.952 109.636 190.298 109.757 190.671C109.878 191.044 109.924 191.438 109.891 191.829C109.828 193.669 109.183 195.442 108.049 196.892C106.657 198.759 104.879 200.305 102.836 201.424C99.9147 203.134 97.7761 203.919 96.4204 203.781Z" fill="#FFA8A7"/>
<path d="M270.47 293.894L270.628 293.753C270.744 293.653 270.868 293.554 270.976 293.446L271.35 293.08L271.723 292.724C271.942 292.519 272.15 292.303 272.346 292.076L275.301 294.284L277.268 295.753C276.551 296.529 275.968 297.418 275.541 298.384C275.541 298.384 274.952 299.339 272.952 298.857C270.478 298.285 270.088 294.649 270.47 293.894Z" fill="#FFA8A7"/>
<path d="M241.53 292.881C239.273 290.259 241.281 285.901 243.473 280.249C245.88 274.032 249.598 263.466 249.598 263.466L276 258.013C276 258.013 304.129 257.474 306.71 262.852C308.802 267.16 290.276 273.642 287.62 273.874L271.361 274.729L269.651 275.559L258.23 290.01L241.53 292.881Z" fill="#FFA8A7"/>
<path d="M290.175 267.259C288.124 269.344 286.214 271.562 284.456 273.899C279.7 280.539 272.172 292.599 272.172 292.599C272.172 292.599 273.342 296.417 276.936 296.251C276.936 296.251 301.67 273.152 303.695 271.019C306.758 267.782 309.215 262.445 303.919 262.005C298.624 261.565 292.233 265.034 290.175 267.259Z" fill="#FFA8A7"/>
<path d="M284.324 274.032C284.324 274.032 288.739 267.575 293.312 264.902C293.312 264.902 288.764 265.799 281.875 274.182L284.324 274.032Z" fill="#FFA8A7"/>
<path opacity="0.1" d="M284.324 274.032C284.324 274.032 288.739 267.575 293.312 264.902C293.312 264.902 288.764 265.799 281.875 274.182L284.324 274.032Z" fill="black"/>
<path d="M287.328 282.199L285.594 282.531L287.204 288.482C287.204 288.482 288.764 288.333 289.304 288.366C290.09 288.18 290.847 287.886 291.553 287.495L291.138 283.859L289.229 281.867L287.328 282.199Z" fill="#FFA8A7"/>
<path d="M301.023 283.602C301.851 283.936 302.601 284.437 303.227 285.074C303.852 285.711 304.34 286.47 304.659 287.304C305.028 288.176 305.331 289.075 305.563 289.993C305.837 290.956 305.704 292.591 304.484 292.857C304.088 292.903 303.686 292.831 303.331 292.649C300.882 291.703 298.492 290.607 295.985 289.811C293.837 289.015 291.588 288.526 289.304 288.358C289.823 287.559 290.082 286.619 290.047 285.666C290.011 284.714 289.682 283.796 289.104 283.038C288.613 282.583 287.992 282.293 287.328 282.208C287.959 281.926 288.548 281.56 289.154 281.22C290.283 280.431 291.664 280.091 293.03 280.266C294.076 280.49 294.873 281.32 295.761 281.926C297.454 283.029 299.089 282.955 301.023 283.602Z" fill="#263238"/>
<path d="M245.09 287.18C247.273 286.507 250.759 285.91 261.101 285.379C271.443 284.847 285.594 282.523 285.594 282.523C288.001 284.839 287.205 288.475 287.205 288.475C287.205 288.475 268.837 294.285 262.852 295.056C253.324 296.285 250.037 296.194 245.738 295.272C240.907 294.235 237.861 289.396 245.09 287.18Z" fill="#FFA8A7"/>
<path d="M282.889 237.918L290.658 256.485L285.097 259.905L274.406 241.802L282.889 237.918Z" fill="#FFA8A7"/>
<path d="M266.82 220.422C271.07 220.472 275.743 222.015 277.353 225.344L283.993 239.039C283.993 239.039 280.241 244.533 274.282 244.143L266.82 220.422Z" fill="#E0E0E0"/>
<path d="M238.567 249.281C238.617 248.559 239.654 245.032 240.767 241.23L248.834 244.019L246.668 250.85L239.87 257.299C238.398 254.902 237.93 252.021 238.567 249.281Z" fill="#FFA8A7"/>
<path d="M258.129 220.679C253.066 221.899 246.169 223.485 244.168 228.979C242.168 234.474 239.305 244.176 239.305 244.176C240.417 246.102 246.517 247.696 248.634 246.583L249.63 243.263V263.449C253.589 267.757 273.119 266.653 276.032 257.996V230.498C276.032 226.099 273.592 220.812 266.844 220.422L258.129 220.679Z" fill="#B16668"/>
<path d="M249.609 243.28L252.149 235.287L249.609 246.857V243.28Z" fill="#E0E0E0"/>
<path d="M256.206 198.177C255.755 198.119 255.297 198.163 254.865 198.307C254.434 198.451 254.041 198.69 253.716 199.007C252.645 200.103 252.886 202.128 253.716 206.776L257.036 207.15L256.206 198.177Z" fill="#263238"/>
<path d="M275.469 196.834C276.179 196.837 276.883 196.693 277.535 196.41C278.548 195.829 278.813 196.983 278.257 197.979C277.89 198.697 277.344 199.309 276.673 199.757C276.002 200.204 275.227 200.472 274.423 200.535C274.423 200.394 273.477 197.954 273.477 197.954L275.469 196.834Z" fill="#263238"/>
<path d="M257.758 207.2C257.269 207.49 256.563 206.552 255.957 205.913C255.72 205.642 255.417 205.435 255.077 205.313C254.737 205.19 254.372 205.157 254.015 205.215C253.659 205.273 253.324 205.421 253.04 205.645C252.757 205.869 252.535 206.161 252.396 206.494C251.392 208.611 253.675 211.425 255.011 212.354C255.386 212.677 255.854 212.874 256.347 212.916C256.84 212.958 257.334 212.842 257.758 212.587L258.107 220.679C258.699 221.976 259.603 223.106 260.739 223.968C261.874 224.829 263.206 225.396 264.614 225.617C269.362 226.257 268.382 222.339 266.822 220.422V217.459C268.011 217.712 269.232 217.774 270.441 217.641C271.055 217.475 272.532 215.691 273.487 213.69C274.557 211.449 276.342 207.465 274.757 200.718C273.047 193.48 265.27 193.248 260.647 196.177C256.024 199.107 257.758 207.2 257.758 207.2Z" fill="#FFA8A7"/>
<path d="M257.756 208.022C257.507 208.022 256.569 206.47 255.954 205.914C255.124 205.142 256.203 198.178 256.203 198.178C256.203 198.178 255.373 195.53 257.033 193.779C258.693 192.028 261.947 192.318 264.321 192.235C267.229 192.251 270.11 191.672 272.787 190.534C276.157 189.073 276.406 188.874 276.821 190.376C277.236 191.878 277.402 195.24 275.393 197.506L274.297 199.29C274.297 199.29 273.277 200.12 270.147 200.535C267.018 200.95 261.657 199.232 261.017 199.141C260.104 199.016 259.914 199.896 259.424 202.303C258.959 204.42 258.586 208.005 257.756 208.022Z" fill="#263238"/>
<path d="M256.214 198.718L253.242 197.125C253.34 196.927 253.476 196.751 253.643 196.607C253.809 196.463 254.003 196.353 254.212 196.284C254.421 196.215 254.642 196.189 254.862 196.206C255.082 196.224 255.296 196.285 255.492 196.386C255.887 196.609 256.182 196.975 256.317 197.409C256.451 197.842 256.414 198.311 256.214 198.718Z" fill="#263238"/>
<path d="M266.809 217.46C266.809 217.46 262.41 216.572 260.875 215.8C259.971 215.326 259.231 214.591 258.75 213.691C258.983 214.594 259.395 215.441 259.962 216.181C261.082 217.617 266.809 218.671 266.809 218.671V217.46Z" fill="#FFA8A7"/>
<path d="M266.954 207.034C266.948 207.207 266.891 207.373 266.79 207.514C266.69 207.654 266.55 207.761 266.389 207.823C266.228 207.884 266.052 207.897 265.883 207.86C265.715 207.822 265.561 207.736 265.442 207.611C265.322 207.487 265.241 207.33 265.21 207.161C265.179 206.991 265.198 206.816 265.265 206.657C265.333 206.498 265.445 206.363 265.589 206.267C265.733 206.172 265.902 206.121 266.074 206.121C266.192 206.123 266.308 206.149 266.416 206.196C266.524 206.243 266.622 206.311 266.704 206.395C266.785 206.48 266.849 206.58 266.892 206.69C266.935 206.799 266.956 206.916 266.954 207.034Z" fill="#263238"/>
<path d="M266.023 203.714L264.131 204.752C264 204.492 263.972 204.193 264.054 203.914C264.136 203.635 264.32 203.397 264.571 203.25C264.696 203.181 264.834 203.139 264.975 203.126C265.117 203.112 265.261 203.128 265.396 203.171C265.532 203.215 265.658 203.285 265.765 203.379C265.873 203.472 265.961 203.586 266.023 203.714Z" fill="#263238"/>
<path d="M266.432 212.928L268.449 213.691C268.405 213.826 268.333 213.95 268.24 214.057C268.146 214.164 268.032 214.25 267.905 214.312C267.777 214.374 267.638 214.41 267.497 214.417C267.355 214.425 267.213 214.404 267.08 214.355C266.808 214.248 266.589 214.039 266.468 213.772C266.347 213.506 266.334 213.203 266.432 212.928Z" fill="#FFA8A7"/>
<path d="M274.812 204.444L273.094 203.116C273.175 203.001 273.279 202.903 273.399 202.829C273.519 202.755 273.653 202.706 273.793 202.685C273.932 202.664 274.075 202.672 274.211 202.708C274.348 202.743 274.476 202.806 274.588 202.892C274.817 203.073 274.968 203.335 275.01 203.624C275.052 203.912 274.981 204.206 274.812 204.444Z" fill="#263238"/>
<path d="M274.282 206.786C274.276 206.958 274.219 207.125 274.118 207.265C274.018 207.406 273.878 207.513 273.717 207.575C273.556 207.636 273.38 207.649 273.212 207.612C273.043 207.574 272.889 207.488 272.77 207.363C272.65 207.239 272.569 207.082 272.538 206.913C272.507 206.743 272.526 206.568 272.593 206.409C272.661 206.25 272.774 206.115 272.917 206.019C273.061 205.924 273.23 205.873 273.403 205.873C273.52 205.875 273.636 205.901 273.744 205.948C273.852 205.995 273.95 206.063 274.032 206.147C274.113 206.232 274.178 206.332 274.221 206.442C274.264 206.551 274.285 206.668 274.282 206.786Z" fill="#263238"/>
<path d="M270.135 206.678L269.305 211.923L272.21 211.583L270.135 206.678Z" fill="#FFA8A7"/>
<path d="M300.414 266.247L282.528 255.922C282.371 255.832 282.194 255.785 282.013 255.785C281.833 255.785 281.655 255.832 281.499 255.922L250.133 274.032L268.526 284.69L300.414 266.247Z" fill="#37474F"/>
<path d="M268.356 283.137L258.711 277.576L286.914 261.291L296.609 266.827L268.356 283.137Z" fill="#263238"/>
<path d="M263.617 267.666L263.8 267.766L268.522 270.496L276.93 265.641L277.105 265.541L272.199 262.711L263.617 267.666Z" fill="#263238"/>
<path d="M263.797 267.766L268.52 270.496L276.927 265.641L272.196 262.91L263.797 267.766Z" fill="#263238"/>
<path d="M250.133 274.031V274.454C250.13 274.754 250.206 275.049 250.351 275.311C250.497 275.572 250.707 275.792 250.963 275.948L267.629 285.568C267.891 285.72 268.189 285.801 268.492 285.801C268.796 285.801 269.094 285.72 269.356 285.568L299.518 268.138C299.773 267.981 299.983 267.761 300.129 267.5C300.274 267.238 300.349 266.943 300.348 266.644V266.221L268.526 284.688L250.133 274.031Z" fill="#263238"/>
<path d="M268.523 284.688V285.834C268.816 285.831 269.102 285.75 269.353 285.601L299.516 268.171C299.771 268.014 299.981 267.795 300.126 267.533C300.272 267.271 300.347 266.977 300.346 266.677V266.254L268.523 284.688Z" fill="#263238"/>
<path d="M269.008 284.914C269.293 285.023 269.599 285.067 269.904 285.042C270.208 285.018 270.503 284.926 270.767 284.773L300.797 267.434C301.057 267.284 301.281 267.079 301.452 266.832C301.623 266.585 301.737 266.303 301.785 266.006L305.105 246.41C305.113 246.297 305.113 246.183 305.105 246.07C305.103 245.524 304.885 245.002 304.499 244.617L273.291 262.636C273.099 262.747 272.934 262.899 272.807 263.082C272.681 263.264 272.597 263.472 272.56 263.691L269.008 284.914Z" fill="#263238"/>
<path d="M268.523 284.689L268.731 284.805C268.822 284.857 268.917 284.904 269.013 284.946L272.566 263.723C272.602 263.504 272.686 263.296 272.813 263.114C272.939 262.932 273.104 262.78 273.296 262.669L304.504 244.649C304.376 244.531 304.237 244.425 304.089 244.334L272.823 262.353C272.63 262.464 272.464 262.616 272.336 262.798C272.209 262.98 272.123 263.188 272.084 263.407L268.523 284.689Z" fill="#455A64"/>
<path d="M285.92 266.811C286.393 265.173 287.477 263.779 288.949 262.919C290.402 262.089 291.398 262.462 291.182 263.749C290.71 265.387 289.625 266.781 288.153 267.641C286.7 268.513 285.704 268.089 285.92 266.811Z" fill="#37474F"/>
<path d="M246.665 250.834C246.665 250.834 252.052 271.584 254.326 273.07C256.6 274.555 260.833 275.643 262.858 276.39C264.883 277.137 265.805 278.158 265.456 278.44C265.107 278.722 262.186 279.029 261.173 279.386C260.161 279.743 261.472 281.378 263.713 283.113C265.954 284.847 267.863 284.69 267.614 285.843C267.365 286.997 262.368 288.151 258.152 285.677C253.936 283.204 252.657 279.867 250.143 277.037C247.628 274.207 241.884 262.446 239.867 257.3C239.867 257.3 240.058 247.738 243.187 248.344C246.316 248.95 246.665 250.834 246.665 250.834Z" fill="#FFA8A7"/>
<path d="M272.297 292.881C272.679 293.803 273.998 296.343 276.937 296.201L284.158 289.445L272.297 292.881Z" fill="#FFA8A7"/>
<path opacity="0.1" d="M272.297 292.881C272.679 293.803 273.998 296.343 276.937 296.201L284.158 289.445L272.297 292.881Z" fill="black"/>
<path d="M274.481 304.766C274.412 302.593 274.77 300.427 275.535 298.392C275.188 298.634 274.787 298.79 274.366 298.845C273.946 298.9 273.518 298.852 273.12 298.707C270.705 297.985 270.099 294.615 270.481 293.885C270.132 294.192 269.767 294.482 269.41 294.781C268.265 295.55 267.451 296.72 267.127 298.06C266.961 299.114 267.451 300.151 267.692 301.197C268.157 303.189 267.692 305.264 267.617 307.306C267.634 308.197 267.833 309.075 268.203 309.886C268.573 310.697 269.105 311.423 269.767 312.02C270.447 312.684 271.18 313.292 271.958 313.838C272.241 314.156 272.616 314.379 273.031 314.475C273.446 314.571 273.881 314.536 274.275 314.375C274.669 314.214 275.004 313.935 275.232 313.575C275.461 313.216 275.573 312.794 275.552 312.369C275.236 309.779 274.631 307.464 274.481 304.766Z" fill="#263238"/>
<path d="M277.223 295.77C276.999 296.193 276.799 296.6 276.625 297.006C276.833 296.608 277.032 296.193 277.223 295.77Z" fill="#37474F"/>
</svg>
