    <svg
      width="151"
      height="29"
      viewBox="0 0 151 29"
      fill="none"
      xmlns="http://www.w3.org/2000/svg"
    >
      <path
        d="M31.9733 15.8653C33.1108 15.8648 34.2017 15.4445 35.006 14.6967C35.8104 13.9489 36.2625 12.9348 36.263 11.8773V10.5473H39.1241V11.8773C39.1395 12.7499 38.9623 13.6161 38.6034 14.4225C38.2445 15.2289 37.7115 15.9583 37.0374 16.5657C36.7978 16.7888 36.543 16.9973 36.2745 17.1899C36.5406 17.3808 36.7953 17.585 37.0374 17.8016C37.7122 18.4139 38.245 19.1481 38.6032 19.959C38.9614 20.7698 39.1374 21.6402 39.1203 22.5167V23.8448H36.2592V22.5167C36.2602 21.4588 35.8093 20.4439 35.0056 19.6951C34.2019 18.9462 33.1112 18.5248 31.9733 18.5233H27.6892V23.843H24.8281V5.23828H27.6892V15.8653H31.9733Z"
        fill="white"
      />
      <path
        d="M40.5977 7.89423V5.23438H43.4588V7.89423H40.5977ZM43.4588 10.5541V23.8391H40.5977V10.5505L43.4588 10.5541Z"
        fill="white"
      />
      <path
        d="M49.0036 18.6809C49.9245 19.5256 50.9399 20.2764 52.0325 20.9205C53.1248 20.2786 54.1402 19.5302 55.0615 18.688C55.467 18.3235 55.7878 17.8855 56.004 17.4012C56.2202 16.9168 56.3273 16.3964 56.3185 15.8721V10.5524H59.1796V15.8721C59.1937 16.7468 59.0148 17.6149 58.6539 18.4228C58.293 19.2307 57.7579 19.9612 57.0815 20.5694C55.6083 21.9173 53.9007 23.0241 52.0306 23.8428C50.161 23.0228 48.454 21.9149 46.9817 20.5658C46.3053 19.9577 45.7702 19.2271 45.4093 18.4192C45.0484 17.6113 44.8695 16.7432 44.8836 15.8685V10.5488H47.7447V15.8685C47.7368 16.3924 47.8444 16.9122 48.0609 17.3959C48.2775 17.8796 48.5983 18.3169 49.0036 18.6809Z"
        fill="white"
      />
      <path
        d="M72.0807 22.5158C70.7903 23.4168 69.2103 23.8863 67.597 23.848C65.9837 23.8098 64.4315 23.2661 63.1921 22.3052C61.9527 21.3442 61.0988 20.0223 60.7686 18.5537C60.4385 17.0851 60.6516 15.5559 61.3733 14.2139C62.0951 12.872 63.2832 11.796 64.745 11.1603C66.2069 10.5247 67.8568 10.3666 69.4274 10.7118C70.998 11.057 72.3971 11.8852 73.398 13.0622C74.3989 14.2391 74.9429 15.6958 74.9418 17.1961V23.8387H72.0807V22.5158ZM67.7929 13.2081C66.7998 13.2073 65.8372 13.5267 65.069 14.1118C64.3009 14.6969 63.7748 15.5116 63.5804 16.417C63.3861 17.3223 63.5354 18.2623 64.0031 19.0767C64.4707 19.8912 65.2277 20.5296 66.145 20.8833C67.0623 21.237 68.0832 21.284 69.0335 21.0163C69.9839 20.7486 70.8051 20.1827 71.357 19.4152C71.9088 18.6477 72.1574 17.726 72.0601 16.8073C71.9629 15.8885 71.5259 15.0295 70.8237 14.3767C70.4312 13.9998 69.9597 13.7017 69.4384 13.5007C68.9172 13.2997 68.3571 13.2002 67.7929 13.2081Z"
        fill="white"
      />
      <path
        d="M79.2752 17.1972V23.8398H76.4141V17.1972C76.4146 15.4357 77.1675 13.7464 78.5074 12.5008C79.8473 11.2551 81.6644 10.5552 83.5592 10.5547V13.2145C82.4236 13.2164 81.3351 13.6366 80.5322 14.3831C79.7292 15.1296 79.2772 16.1415 79.2752 17.1972Z"
        fill="white"
      />
      <path
        d="M97.2234 12.4972C98.3891 13.5841 99.1133 15.0131 99.2729 16.5408C99.4324 18.0685 99.0174 19.6004 98.0984 20.8755C97.1794 22.1506 95.8134 23.0901 94.2329 23.534C92.6524 23.9778 90.9553 23.8986 89.4307 23.3098C87.906 22.721 86.648 21.659 85.871 20.3047C85.0941 18.9505 84.8461 17.3876 85.1695 15.8825C85.4928 14.3774 86.3675 13.023 87.6444 12.05C88.9213 11.0771 90.5216 10.5458 92.1726 10.5466C93.1131 10.5336 94.0466 10.6999 94.9154 11.0354C95.7841 11.3709 96.5696 11.8684 97.2234 12.4972ZM92.1726 13.2065C91.1784 13.2049 90.2144 13.524 89.445 14.1093C88.6756 14.6946 88.1484 15.5098 87.9533 16.4161C87.7582 17.3224 87.9073 18.2635 88.3752 19.079C88.843 19.8945 89.6006 20.5339 90.5189 20.8881C91.4371 21.2424 92.4591 21.2895 93.4105 21.0216C94.362 20.7537 95.1841 20.1872 95.7365 19.4188C96.289 18.6504 96.5376 17.7277 96.44 16.8079C96.3425 15.8881 95.9048 15.0283 95.2015 14.375C94.8092 13.9985 94.338 13.7007 93.817 13.5C93.2961 13.2994 92.7364 13.2001 92.1726 13.2082V13.2065Z"
        fill="white"
      />
      <path d="M103.646 23.836H100.785V5.23828H103.646V23.836Z" fill="white" />
      <path
        d="M116.55 22.5154C115.26 23.4155 113.681 23.8843 112.068 23.8458C110.456 23.8073 108.905 23.2637 107.667 22.3032C106.428 21.3427 105.575 20.0216 105.245 18.5539C104.915 17.0862 105.128 15.5579 105.85 14.2169C106.571 12.8758 107.758 11.8004 109.219 11.1651C110.68 10.5297 112.329 10.3716 113.898 10.7164C115.468 11.0612 116.866 11.8886 117.867 13.0647C118.867 14.2407 119.411 15.6963 119.411 17.1957V23.8382H116.55V22.5154ZM112.262 13.2024C111.268 13.2008 110.304 13.5199 109.534 14.1052C108.765 14.6905 108.238 15.5058 108.043 16.412C107.847 17.3183 107.997 18.2594 108.464 19.0749C108.932 19.8904 109.69 20.5298 110.608 20.884C111.526 21.2383 112.548 21.2855 113.5 21.0175C114.451 20.7496 115.273 20.1831 115.826 19.4147C116.378 18.6463 116.627 17.7236 116.529 16.8038C116.432 15.8841 115.994 15.0242 115.291 14.3709C114.898 13.9952 114.427 13.6982 113.906 13.4982C113.385 13.2981 112.825 13.1993 112.262 13.2077V13.2024Z"
        fill="white"
      />
      <path
        d="M120.879 5.23828H123.74V11.8666C125.03 10.9665 126.609 10.4977 128.221 10.5362C129.834 10.5747 131.385 11.1183 132.623 12.0788C133.862 13.0393 134.715 14.3604 135.045 15.8281C135.374 17.2958 135.161 18.8241 134.44 20.1652C133.719 21.5063 132.532 22.5816 131.071 23.217C129.61 23.8523 127.961 24.0104 126.391 23.6656C124.822 23.3208 123.423 22.4934 122.423 21.3174C121.422 20.1414 120.878 18.6857 120.879 17.1863V5.23828ZM124.995 14.3775C124.296 15.0291 123.861 15.8859 123.765 16.802C123.669 17.7181 123.917 18.6368 124.468 19.4017C125.019 20.1666 125.838 20.7303 126.786 20.9968C127.733 21.2633 128.751 21.2161 129.666 20.8633C130.58 20.5105 131.335 19.8739 131.801 19.0619C132.267 18.2499 132.416 17.3128 132.223 16.4101C132.029 15.5074 131.505 14.695 130.739 14.1114C129.974 13.5277 129.014 13.2088 128.024 13.209C127.46 13.2013 126.9 13.3011 126.38 13.502C125.859 13.703 125.388 14.0009 124.995 14.3775Z"
        fill="white"
      />
      <path
        d="M140.926 10.5508H150.931V13.2106H140.926C140.547 13.2106 140.183 13.3507 139.915 13.6001C139.646 13.8496 139.496 14.1878 139.496 14.5406C139.496 14.8933 139.646 15.2315 139.915 15.481C140.183 15.7304 140.547 15.8705 140.926 15.8705H146.649C147.787 15.8705 148.878 16.2908 149.683 17.0391C150.488 17.7873 150.94 18.8021 150.94 19.8603C150.94 20.9184 150.488 21.9332 149.683 22.6815C148.878 23.4297 147.787 23.85 146.649 23.85H136.64V21.1902H146.643C147.022 21.1902 147.386 21.0501 147.654 20.8007C147.923 20.5512 148.073 20.213 148.073 19.8603C148.073 19.5075 147.923 19.1693 147.654 18.9199C147.386 18.6704 147.022 18.5303 146.643 18.5303H140.921C139.782 18.5303 138.691 18.11 137.886 17.3618C137.081 16.6135 136.629 15.5987 136.629 14.5406C136.629 13.4824 137.081 12.4676 137.886 11.7194C138.691 10.9711 139.782 10.5508 140.921 10.5508H140.926Z"
        fill="white"
      />
      <path
        d="M5.68789 0.579102L10.609 5.17709L0.604648 14.4458L10.6986 23.8014L5.64974 28.4933C4.06278 27.0748 2.40715 25.6172 0.793479 24.1135C0.205998 23.562 0 22.7995 0 22.021C0 17.0406 0 12.0596 0 7.078C0 6.31728 0.190741 5.56366 0.762963 5.02814C2.37091 3.50848 4.05133 2.04734 5.68789 0.579102Z"
        class="logo_symbol"
        fill="#C51F2C"
      />
      <path
        d="M10.8203 14.513L15.6327 10.0303C16.6112 10.8672 17.7309 11.6262 18.5854 12.6015C19.6554 13.8037 19.5047 15.6284 18.3813 16.7845C17.5592 17.6286 16.6417 18.3928 15.7967 19.1642L10.8203 14.513Z"
        fill="#C51F2C"
        class="logo_symbol"
      />
    </svg>