<svg width="644" height="644" viewBox="0 0 644 644" fill="none" xmlns="http://www.w3.org/2000/svg">
<line x1="259.797" y1="-2.18557e-08" x2="259.797" y2="644" stroke="white" stroke-opacity="0.1"/>
<line x1="273.555" y1="-2.18557e-08" x2="273.555" y2="644" stroke="white" stroke-opacity="0.1"/>
<line x1="286.5" y1="-2.18557e-08" x2="286.5" y2="644" stroke="white" stroke-opacity="0.1"/>
<line x1="286.5" y1="-2.18557e-08" x2="286.5" y2="644" stroke="white" stroke-opacity="0.1"/>
<line x1="299.445" y1="-2.18557e-08" x2="299.445" y2="644" stroke="white" stroke-opacity="0.1"/>
<line x1="314.812" y1="-2.18557e-08" x2="314.813" y2="644" stroke="white" stroke-opacity="0.1"/>
<line x1="189.414" y1="-2.18557e-08" x2="189.414" y2="644" stroke="white" stroke-opacity="0.1"/>
<line x1="203.164" y1="-2.18557e-08" x2="203.164" y2="644" stroke="white" stroke-opacity="0.1"/>
<line x1="216.109" y1="-2.18557e-08" x2="216.109" y2="644" stroke="white" stroke-opacity="0.1"/>
<line x1="216.109" y1="-2.18557e-08" x2="216.109" y2="644" stroke="white" stroke-opacity="0.1"/>
<line x1="229.055" y1="-2.18557e-08" x2="229.055" y2="644" stroke="white" stroke-opacity="0.1"/>
<line x1="244.43" y1="-2.18557e-08" x2="244.43" y2="644" stroke="white" stroke-opacity="0.1"/>
<line x1="259.797" y1="-2.18557e-08" x2="259.797" y2="644" stroke="white" stroke-opacity="0.1"/>
<line x1="273.555" y1="-2.18557e-08" x2="273.555" y2="644" stroke="white" stroke-opacity="0.1"/>
<line x1="286.5" y1="-2.18557e-08" x2="286.5" y2="644" stroke="white" stroke-opacity="0.1"/>
<line x1="286.5" y1="-2.18557e-08" x2="286.5" y2="644" stroke="white" stroke-opacity="0.1"/>
<line x1="299.445" y1="-2.18557e-08" x2="299.445" y2="644" stroke="white" stroke-opacity="0.1"/>
<line x1="314.812" y1="-2.18557e-08" x2="314.813" y2="644" stroke="white" stroke-opacity="0.1"/>
<line x1="189.414" y1="-2.18557e-08" x2="189.414" y2="644" stroke="white" stroke-opacity="0.1"/>
<line x1="203.164" y1="-2.18557e-08" x2="203.164" y2="644" stroke="white" stroke-opacity="0.1"/>
<line x1="216.109" y1="-2.18557e-08" x2="216.109" y2="644" stroke="white" stroke-opacity="0.1"/>
<line x1="216.109" y1="-2.18557e-08" x2="216.109" y2="644" stroke="white" stroke-opacity="0.1"/>
<line x1="229.055" y1="-2.18557e-08" x2="229.055" y2="644" stroke="white" stroke-opacity="0.1"/>
<line x1="244.43" y1="-2.18557e-08" x2="244.43" y2="644" stroke="white" stroke-opacity="0.1"/>
<line x1="119.023" y1="-2.18557e-08" x2="119.023" y2="644" stroke="white" stroke-opacity="0.1"/>
<line x1="132.781" y1="-2.18557e-08" x2="132.781" y2="644" stroke="white" stroke-opacity="0.1"/>
<line x1="145.727" y1="-2.18557e-08" x2="145.727" y2="644" stroke="white" stroke-opacity="0.1"/>
<line x1="145.727" y1="-2.18557e-08" x2="145.727" y2="644" stroke="white" stroke-opacity="0.1"/>
<line x1="158.672" y1="-2.18557e-08" x2="158.672" y2="644" stroke="white" stroke-opacity="0.1"/>
<line x1="174.039" y1="-2.18557e-08" x2="174.039" y2="644" stroke="white" stroke-opacity="0.1"/>
<line x1="48.6406" y1="-2.18557e-08" x2="48.6407" y2="644" stroke="white" stroke-opacity="0.1"/>
<line x1="62.3906" y1="-2.18557e-08" x2="62.3907" y2="644" stroke="white" stroke-opacity="0.1"/>
<line x1="75.3359" y1="-2.18557e-08" x2="75.336" y2="644" stroke="white" stroke-opacity="0.1"/>
<line x1="75.3359" y1="-2.18557e-08" x2="75.336" y2="644" stroke="white" stroke-opacity="0.1"/>
<line x1="88.2812" y1="-2.18557e-08" x2="88.2813" y2="644" stroke="white" stroke-opacity="0.1"/>
<line x1="103.656" y1="-2.18557e-08" x2="103.656" y2="644" stroke="white" stroke-opacity="0.1"/>
<line x1="119.023" y1="-2.18557e-08" x2="119.023" y2="644" stroke="white" stroke-opacity="0.1"/>
<line x1="132.781" y1="-2.18557e-08" x2="132.781" y2="644" stroke="white" stroke-opacity="0.1"/>
<line x1="145.727" y1="-2.18557e-08" x2="145.727" y2="644" stroke="white" stroke-opacity="0.1"/>
<line x1="145.727" y1="-2.18557e-08" x2="145.727" y2="644" stroke="white" stroke-opacity="0.1"/>
<line x1="158.672" y1="-2.18557e-08" x2="158.672" y2="644" stroke="white" stroke-opacity="0.1"/>
<line x1="174.039" y1="-2.18557e-08" x2="174.039" y2="644" stroke="white" stroke-opacity="0.1"/>
<line x1="48.6406" y1="-2.18557e-08" x2="48.6407" y2="644" stroke="white" stroke-opacity="0.1"/>
<line x1="62.3906" y1="-2.18557e-08" x2="62.3907" y2="644" stroke="white" stroke-opacity="0.1"/>
<line x1="75.3359" y1="-2.18557e-08" x2="75.336" y2="644" stroke="white" stroke-opacity="0.1"/>
<line x1="75.3359" y1="-2.18557e-08" x2="75.336" y2="644" stroke="white" stroke-opacity="0.1"/>
<line x1="88.2812" y1="-2.18557e-08" x2="88.2813" y2="644" stroke="white" stroke-opacity="0.1"/>
<line x1="103.656" y1="-2.18557e-08" x2="103.656" y2="644" stroke="white" stroke-opacity="0.1"/>
<line x1="541.344" y1="-2.18557e-08" x2="541.344" y2="644" stroke="white" stroke-opacity="0.1"/>
<line x1="555.102" y1="-2.18557e-08" x2="555.102" y2="644" stroke="white" stroke-opacity="0.1"/>
<line x1="568.047" y1="-2.18557e-08" x2="568.047" y2="644" stroke="white" stroke-opacity="0.1"/>
<line x1="568.047" y1="-2.18557e-08" x2="568.047" y2="644" stroke="white" stroke-opacity="0.1"/>
<line x1="580.992" y1="-2.18557e-08" x2="580.992" y2="644" stroke="white" stroke-opacity="0.1"/>
<line x1="596.359" y1="-2.18557e-08" x2="596.359" y2="644" stroke="white" stroke-opacity="0.1"/>
<line x1="470.961" y1="-2.18557e-08" x2="470.961" y2="644" stroke="white" stroke-opacity="0.1"/>
<line x1="484.711" y1="-2.18557e-08" x2="484.711" y2="644" stroke="white" stroke-opacity="0.1"/>
<line x1="497.656" y1="-2.18557e-08" x2="497.656" y2="644" stroke="white" stroke-opacity="0.1"/>
<line x1="497.656" y1="-2.18557e-08" x2="497.656" y2="644" stroke="white" stroke-opacity="0.1"/>
<line x1="510.602" y1="-2.18557e-08" x2="510.602" y2="644" stroke="white" stroke-opacity="0.1"/>
<line x1="525.977" y1="-2.18557e-08" x2="525.977" y2="644" stroke="white" stroke-opacity="0.1"/>
<line x1="541.344" y1="-2.18557e-08" x2="541.344" y2="644" stroke="white" stroke-opacity="0.1"/>
<line x1="555.102" y1="-2.18557e-08" x2="555.102" y2="644" stroke="white" stroke-opacity="0.1"/>
<line x1="568.047" y1="-2.18557e-08" x2="568.047" y2="644" stroke="white" stroke-opacity="0.1"/>
<line x1="568.047" y1="-2.18557e-08" x2="568.047" y2="644" stroke="white" stroke-opacity="0.1"/>
<line x1="580.992" y1="-2.18557e-08" x2="580.992" y2="644" stroke="white" stroke-opacity="0.1"/>
<line x1="596.359" y1="-2.18557e-08" x2="596.359" y2="644" stroke="white" stroke-opacity="0.1"/>
<line x1="470.961" y1="-2.18557e-08" x2="470.961" y2="644" stroke="white" stroke-opacity="0.1"/>
<line x1="484.711" y1="-2.18557e-08" x2="484.711" y2="644" stroke="white" stroke-opacity="0.1"/>
<line x1="497.656" y1="-2.18557e-08" x2="497.656" y2="644" stroke="white" stroke-opacity="0.1"/>
<line x1="497.656" y1="-2.18557e-08" x2="497.656" y2="644" stroke="white" stroke-opacity="0.1"/>
<line x1="510.602" y1="-2.18557e-08" x2="510.602" y2="644" stroke="white" stroke-opacity="0.1"/>
<line x1="525.977" y1="-2.18557e-08" x2="525.977" y2="644" stroke="white" stroke-opacity="0.1"/>
<line x1="400.57" y1="-2.18557e-08" x2="400.57" y2="644" stroke="white" stroke-opacity="0.1"/>
<line x1="414.328" y1="-2.18557e-08" x2="414.328" y2="644" stroke="white" stroke-opacity="0.1"/>
<line x1="427.273" y1="-2.18557e-08" x2="427.273" y2="644" stroke="white" stroke-opacity="0.1"/>
<line x1="427.273" y1="-2.18557e-08" x2="427.273" y2="644" stroke="white" stroke-opacity="0.1"/>
<line x1="440.219" y1="-2.18557e-08" x2="440.219" y2="644" stroke="white" stroke-opacity="0.1"/>
<line x1="455.586" y1="-2.18557e-08" x2="455.586" y2="644" stroke="white" stroke-opacity="0.1"/>
<line x1="330.188" y1="-2.18557e-08" x2="330.188" y2="644" stroke="white" stroke-opacity="0.1"/>
<line x1="343.938" y1="-2.18557e-08" x2="343.938" y2="644" stroke="white" stroke-opacity="0.1"/>
<line x1="356.883" y1="-2.18557e-08" x2="356.883" y2="644" stroke="white" stroke-opacity="0.1"/>
<line x1="356.883" y1="-2.18557e-08" x2="356.883" y2="644" stroke="white" stroke-opacity="0.1"/>
<line x1="369.828" y1="-2.18557e-08" x2="369.828" y2="644" stroke="white" stroke-opacity="0.1"/>
<line x1="385.203" y1="-2.18557e-08" x2="385.203" y2="644" stroke="white" stroke-opacity="0.1"/>
<line x1="400.57" y1="-2.18557e-08" x2="400.57" y2="644" stroke="white" stroke-opacity="0.1"/>
<line x1="414.328" y1="-2.18557e-08" x2="414.328" y2="644" stroke="white" stroke-opacity="0.1"/>
<line x1="427.273" y1="-2.18557e-08" x2="427.273" y2="644" stroke="white" stroke-opacity="0.1"/>
<line x1="427.273" y1="-2.18557e-08" x2="427.273" y2="644" stroke="white" stroke-opacity="0.1"/>
<line x1="440.219" y1="-2.18557e-08" x2="440.219" y2="644" stroke="white" stroke-opacity="0.1"/>
<line x1="455.586" y1="-2.18557e-08" x2="455.586" y2="644" stroke="white" stroke-opacity="0.1"/>
<line x1="330.188" y1="-2.18557e-08" x2="330.188" y2="644" stroke="white" stroke-opacity="0.1"/>
<line x1="343.938" y1="-2.18557e-08" x2="343.938" y2="644" stroke="white" stroke-opacity="0.1"/>
<line x1="356.883" y1="-2.18557e-08" x2="356.883" y2="644" stroke="white" stroke-opacity="0.1"/>
<line x1="356.883" y1="-2.18557e-08" x2="356.883" y2="644" stroke="white" stroke-opacity="0.1"/>
<line x1="369.828" y1="-2.18557e-08" x2="369.828" y2="644" stroke="white" stroke-opacity="0.1"/>
<line x1="385.203" y1="-2.18557e-08" x2="385.203" y2="644" stroke="white" stroke-opacity="0.1"/>
<line x1="644" y1="259.799" y2="259.799" stroke="white" stroke-opacity="0.1"/>
<line x1="644" y1="273.555" y2="273.555" stroke="white" stroke-opacity="0.1"/>
<line x1="644" y1="286.496" y2="286.496" stroke="white" stroke-opacity="0.1"/>
<line x1="644" y1="286.496" y2="286.496" stroke="white" stroke-opacity="0.1"/>
<line x1="644" y1="299.441" y2="299.441" stroke="white" stroke-opacity="0.1"/>
<line x1="644" y1="314.814" y2="314.814" stroke="white" stroke-opacity="0.1"/>
<line x1="644" y1="189.414" y2="189.414" stroke="white" stroke-opacity="0.1"/>
<line x1="644" y1="203.164" y2="203.164" stroke="white" stroke-opacity="0.1"/>
<line x1="644" y1="216.113" y2="216.113" stroke="white" stroke-opacity="0.1"/>
<line x1="644" y1="216.113" y2="216.113" stroke="white" stroke-opacity="0.1"/>
<line x1="644" y1="229.055" y2="229.055" stroke="white" stroke-opacity="0.1"/>
<line x1="644" y1="244.43" y2="244.43" stroke="white" stroke-opacity="0.1"/>
<line x1="644" y1="259.799" y2="259.799" stroke="white" stroke-opacity="0.1"/>
<line x1="644" y1="273.555" y2="273.555" stroke="white" stroke-opacity="0.1"/>
<line x1="644" y1="286.496" y2="286.496" stroke="white" stroke-opacity="0.1"/>
<line x1="644" y1="286.496" y2="286.496" stroke="white" stroke-opacity="0.1"/>
<line x1="644" y1="299.441" y2="299.441" stroke="white" stroke-opacity="0.1"/>
<line x1="644" y1="314.814" y2="314.814" stroke="white" stroke-opacity="0.1"/>
<line x1="644" y1="189.414" y2="189.414" stroke="white" stroke-opacity="0.1"/>
<line x1="644" y1="203.164" y2="203.164" stroke="white" stroke-opacity="0.1"/>
<line x1="644" y1="216.113" y2="216.113" stroke="white" stroke-opacity="0.1"/>
<line x1="644" y1="216.113" y2="216.113" stroke="white" stroke-opacity="0.1"/>
<line x1="644" y1="229.055" y2="229.055" stroke="white" stroke-opacity="0.1"/>
<line x1="644" y1="244.43" y2="244.43" stroke="white" stroke-opacity="0.1"/>
<line x1="644" y1="119.023" y2="119.023" stroke="white" stroke-opacity="0.1"/>
<line x1="644" y1="132.781" y2="132.781" stroke="white" stroke-opacity="0.1"/>
<line x1="644" y1="145.723" y2="145.723" stroke="white" stroke-opacity="0.1"/>
<line x1="644" y1="145.723" y2="145.723" stroke="white" stroke-opacity="0.1"/>
<line x1="644" y1="158.668" y2="158.668" stroke="white" stroke-opacity="0.1"/>
<line x1="644" y1="174.039" y2="174.039" stroke="white" stroke-opacity="0.1"/>
<line x1="644" y1="48.6367" y2="48.6367" stroke="white" stroke-opacity="0.1"/>
<line x1="644" y1="62.3887" y2="62.3887" stroke="white" stroke-opacity="0.1"/>
<line x1="644" y1="75.3418" y2="75.3418" stroke="white" stroke-opacity="0.1"/>
<line x1="644" y1="75.3418" y2="75.3418" stroke="white" stroke-opacity="0.1"/>
<line x1="644" y1="88.2812" y2="88.2812" stroke="white" stroke-opacity="0.1"/>
<line x1="644" y1="103.654" y2="103.654" stroke="white" stroke-opacity="0.1"/>
<line x1="644" y1="119.023" y2="119.023" stroke="white" stroke-opacity="0.1"/>
<line x1="644" y1="132.781" y2="132.781" stroke="white" stroke-opacity="0.1"/>
<line x1="644" y1="145.723" y2="145.723" stroke="white" stroke-opacity="0.1"/>
<line x1="644" y1="145.723" y2="145.723" stroke="white" stroke-opacity="0.1"/>
<line x1="644" y1="158.668" y2="158.668" stroke="white" stroke-opacity="0.1"/>
<line x1="644" y1="174.039" y2="174.039" stroke="white" stroke-opacity="0.1"/>
<line x1="644" y1="48.6367" y2="48.6367" stroke="white" stroke-opacity="0.1"/>
<line x1="644" y1="62.3887" y2="62.3887" stroke="white" stroke-opacity="0.1"/>
<line x1="644" y1="75.3418" y2="75.3418" stroke="white" stroke-opacity="0.1"/>
<line x1="644" y1="75.3418" y2="75.3418" stroke="white" stroke-opacity="0.1"/>
<line x1="644" y1="88.2812" y2="88.2812" stroke="white" stroke-opacity="0.1"/>
<line x1="644" y1="103.654" y2="103.654" stroke="white" stroke-opacity="0.1"/>
<line x1="644" y1="541.346" y2="541.346" stroke="white" stroke-opacity="0.1"/>
<line x1="644" y1="555.104" y2="555.104" stroke="white" stroke-opacity="0.1"/>
<line x1="644" y1="568.045" y2="568.045" stroke="white" stroke-opacity="0.1"/>
<line x1="644" y1="568.045" y2="568.045" stroke="white" stroke-opacity="0.1"/>
<line x1="644" y1="580.99" y2="580.99" stroke="white" stroke-opacity="0.1"/>
<line x1="644" y1="596.363" y2="596.363" stroke="white" stroke-opacity="0.1"/>
<line x1="644" y1="470.961" y2="470.961" stroke="white" stroke-opacity="0.1"/>
<line x1="644" y1="484.713" y2="484.713" stroke="white" stroke-opacity="0.1"/>
<line x1="644" y1="497.66" y2="497.66" stroke="white" stroke-opacity="0.1"/>
<line x1="644" y1="497.66" y2="497.66" stroke="white" stroke-opacity="0.1"/>
<line x1="644" y1="510.604" y2="510.604" stroke="white" stroke-opacity="0.1"/>
<line x1="644" y1="525.977" y2="525.977" stroke="white" stroke-opacity="0.1"/>
<line x1="644" y1="541.346" y2="541.346" stroke="white" stroke-opacity="0.1"/>
<line x1="644" y1="555.104" y2="555.104" stroke="white" stroke-opacity="0.1"/>
<line x1="644" y1="568.045" y2="568.045" stroke="white" stroke-opacity="0.1"/>
<line x1="644" y1="568.045" y2="568.045" stroke="white" stroke-opacity="0.1"/>
<line x1="644" y1="580.99" y2="580.99" stroke="white" stroke-opacity="0.1"/>
<line x1="644" y1="596.363" y2="596.363" stroke="white" stroke-opacity="0.1"/>
<line x1="644" y1="470.961" y2="470.961" stroke="white" stroke-opacity="0.1"/>
<line x1="644" y1="484.713" y2="484.713" stroke="white" stroke-opacity="0.1"/>
<line x1="644" y1="497.66" y2="497.66" stroke="white" stroke-opacity="0.1"/>
<line x1="644" y1="497.66" y2="497.66" stroke="white" stroke-opacity="0.1"/>
<line x1="644" y1="510.604" y2="510.604" stroke="white" stroke-opacity="0.1"/>
<line x1="644" y1="525.977" y2="525.977" stroke="white" stroke-opacity="0.1"/>
<line x1="644" y1="400.57" y2="400.57" stroke="white" stroke-opacity="0.1"/>
<line x1="644" y1="414.328" y2="414.328" stroke="white" stroke-opacity="0.1"/>
<line x1="644" y1="427.27" y2="427.27" stroke="white" stroke-opacity="0.1"/>
<line x1="644" y1="427.27" y2="427.27" stroke="white" stroke-opacity="0.1"/>
<line x1="644" y1="440.213" y2="440.213" stroke="white" stroke-opacity="0.1"/>
<line x1="644" y1="455.586" y2="455.586" stroke="white" stroke-opacity="0.1"/>
<line x1="644" y1="330.186" y2="330.186" stroke="white" stroke-opacity="0.1"/>
<line x1="644" y1="343.936" y2="343.936" stroke="white" stroke-opacity="0.1"/>
<line x1="644" y1="356.885" y2="356.885" stroke="white" stroke-opacity="0.1"/>
<line x1="644" y1="356.885" y2="356.885" stroke="white" stroke-opacity="0.1"/>
<line x1="644" y1="369.828" y2="369.828" stroke="white" stroke-opacity="0.1"/>
<line x1="644" y1="385.201" y2="385.201" stroke="white" stroke-opacity="0.1"/>
<line x1="644" y1="400.57" y2="400.57" stroke="white" stroke-opacity="0.1"/>
<line x1="644" y1="414.328" y2="414.328" stroke="white" stroke-opacity="0.1"/>
<line x1="644" y1="427.27" y2="427.27" stroke="white" stroke-opacity="0.1"/>
<line x1="644" y1="427.27" y2="427.27" stroke="white" stroke-opacity="0.1"/>
<line x1="644" y1="440.213" y2="440.213" stroke="white" stroke-opacity="0.1"/>
<line x1="644" y1="455.586" y2="455.586" stroke="white" stroke-opacity="0.1"/>
<line x1="644" y1="330.186" y2="330.186" stroke="white" stroke-opacity="0.1"/>
<line x1="644" y1="343.936" y2="343.936" stroke="white" stroke-opacity="0.1"/>
<line x1="644" y1="356.885" y2="356.885" stroke="white" stroke-opacity="0.1"/>
<line x1="644" y1="356.885" y2="356.885" stroke="white" stroke-opacity="0.1"/>
<line x1="644" y1="369.828" y2="369.828" stroke="white" stroke-opacity="0.1"/>
<line x1="644" y1="385.201" y2="385.201" stroke="white" stroke-opacity="0.1"/>
<g filter="url(#filter0_i_538_1958)">
<rect x="151" y="122" width="393" height="243" rx="30" fill="#D9D9D9" fill-opacity="0.1"/>
</g>
<path d="M198.297 377.375C198.397 378.74 198.817 380.063 199.524 381.235C200.23 382.408 201.202 383.397 202.361 384.125L316.254 449.833C317.513 450.472 318.906 450.806 320.318 450.806C321.731 450.806 323.123 450.472 324.383 449.833L480.207 359.859C481.435 359.211 482.463 358.24 483.18 357.051C483.897 355.861 484.276 354.499 484.276 353.11C484.276 351.721 483.897 350.359 483.18 349.169C482.463 347.98 481.435 347.009 480.207 346.361L366.324 280.652C365.064 280.013 363.672 279.68 362.259 279.68C360.847 279.68 359.454 280.013 358.195 280.652L202.371 370.626C201.209 371.352 200.235 372.341 199.528 373.514C198.82 374.687 198.398 376.009 198.297 377.375Z" fill="#FD747C" fill-opacity="0.23"/>
<path d="M320.318 442.052V450.848C318.905 450.887 317.506 450.564 316.253 449.909L202.361 384.2C201.17 383.573 200.167 382.641 199.454 381.5C198.74 380.358 198.343 379.048 198.301 377.703C198.259 376.358 198.574 375.025 199.215 373.842C199.855 372.658 200.798 371.665 201.948 370.965C200.127 372.27 200.267 374.185 202.361 375.396L316.253 441.104C317.505 441.762 318.904 442.088 320.318 442.052Z" fill="black"/>
<path d="M194.483 370.768C193.35 370.001 192.414 368.977 191.752 367.78C191.089 366.583 190.719 365.246 190.672 363.878V227.964C190.749 226.554 191.157 225.181 191.863 223.958C192.569 222.735 193.554 221.696 194.736 220.924L350.56 130.959C351.77 130.318 353.112 129.971 354.48 129.945C355.848 129.919 357.203 130.215 358.436 130.809C359.57 131.578 360.507 132.603 361.171 133.802C361.835 135 362.207 136.339 362.257 137.708V273.613C362.181 275.023 361.773 276.396 361.067 277.62C360.361 278.843 359.376 279.882 358.192 280.653L202.368 370.627C201.158 371.27 199.813 371.618 198.442 371.642C197.072 371.667 195.716 371.367 194.483 370.768Z" fill="#A57A8E" fill-opacity="0.3"/>
<path d="M201.88 370.871C200.715 371.397 199.448 371.66 198.17 371.642C196.892 371.624 195.633 371.326 194.483 370.768C193.351 369.999 192.417 368.975 191.755 367.778C191.092 366.581 190.722 365.245 190.672 363.878V227.964C190.718 226.55 191.129 225.173 191.864 223.965L199.486 228.358C198.756 229.568 198.346 230.944 198.294 232.357V368.28C198.294 370.683 199.862 371.763 201.88 370.871Z" fill="black"/>
<path d="M198.297 232.366V368.281C198.297 370.871 200.118 371.923 202.361 370.627L358.185 280.653C359.369 279.882 360.354 278.843 361.061 277.62C361.767 276.396 362.174 275.023 362.25 273.613V137.708C362.25 135.117 360.429 134.066 358.185 135.361L202.361 225.326C201.179 226.099 200.195 227.138 199.489 228.361C198.783 229.584 198.375 230.956 198.297 232.366Z" fill="#FD747C" fill-opacity="0.23"/>
<path d="M202.361 375.32L316.253 441.028C317.513 441.667 318.906 442.001 320.318 442.001C321.73 442.001 323.123 441.667 324.383 441.028L480.206 351.054C482.45 349.759 482.45 347.656 480.206 346.361L366.324 280.652C365.064 280.013 363.671 279.68 362.259 279.68C360.847 279.68 359.454 280.013 358.194 280.652L202.371 370.626C200.118 371.921 200.118 373.996 202.361 375.32Z" fill="#A57A8E" fill-opacity="0.3"/>
<path d="M204.542 232.873L354.734 146.157C356.086 145.377 357.175 146.006 357.175 147.565V265.212C357.129 266.058 356.885 266.882 356.461 267.616C356.037 268.35 355.445 268.974 354.734 269.436L204.542 356.162C203.19 356.941 202.102 356.312 202.102 354.754V237.098C202.147 236.251 202.391 235.427 202.815 234.693C203.24 233.959 203.831 233.335 204.542 232.873Z" fill="white"/>
<path opacity="0.6" d="M204.542 232.873L354.734 146.157C356.086 145.377 357.175 146.006 357.175 147.565V265.212C357.129 266.058 356.885 266.882 356.461 267.616C356.037 268.35 355.445 268.974 354.734 269.436L204.542 356.162C203.19 356.941 202.102 356.312 202.102 354.754V237.098C202.147 236.251 202.391 235.427 202.815 234.693C203.24 233.959 203.831 233.335 204.542 232.873Z" fill="white"/>
<path d="M279.339 225.429C283.338 223.12 286.586 224.998 286.586 229.616C286.448 232.129 285.72 234.574 284.461 236.753C283.202 238.932 281.447 240.783 279.339 242.157C275.34 244.466 272.102 242.598 272.102 237.98C272.237 235.466 272.962 233.02 274.22 230.839C275.477 228.659 277.231 226.805 279.339 225.429Z" fill="#C51F2C" fill-opacity="0.85"/>
<path d="M293.618 250.136C293.618 242.552 288.287 239.182 281.716 242.974L277.614 245.396C271.043 249.151 265.711 258.416 265.711 266.047V268.093L293.618 251.985V250.136Z" fill="#C51F2C" fill-opacity="0.85"/>
<path d="M307.731 253.843C307.468 253.233 306.792 253.083 306.032 253.514L257.294 281.675C256.771 282.02 256.336 282.482 256.023 283.025C255.71 283.567 255.528 284.176 255.492 284.801V290.527C255.492 291.466 256.074 291.982 256.863 291.766L256.994 291.72C257.097 291.678 257.197 291.631 257.294 291.579L306.032 263.418C306.557 263.076 306.994 262.614 307.307 262.071C307.621 261.528 307.801 260.918 307.834 260.292V254.594C307.843 254.34 307.808 254.086 307.731 253.843Z" fill="white"/>
<path d="M261.693 282.39C262.632 281.836 263.411 282.286 263.411 283.375C263.38 283.971 263.209 284.55 262.91 285.066C262.611 285.582 262.194 286.019 261.693 286.342C260.754 286.886 259.984 286.445 259.984 285.347C260.015 284.754 260.186 284.177 260.483 283.663C260.78 283.149 261.195 282.712 261.693 282.39Z" fill="#C51F2C" fill-opacity="0.86"/>
<path d="M267.366 279.114C268.305 278.569 269.075 279.011 269.075 280.109C269.044 280.702 268.873 281.279 268.576 281.793C268.279 282.307 267.864 282.743 267.366 283.066C266.428 283.62 265.648 283.169 265.648 282.127C265.671 281.524 265.84 280.935 266.139 280.41C266.438 279.886 266.859 279.441 267.366 279.114Z" fill="#C51F2C" fill-opacity="0.86"/>
<path d="M273.022 275.847C273.961 275.302 274.731 275.743 274.731 276.832C274.702 277.427 274.531 278.006 274.234 278.521C273.937 279.037 273.522 279.475 273.022 279.798C272.084 280.343 271.305 279.902 271.305 278.813C271.335 278.218 271.507 277.638 271.805 277.122C272.104 276.606 272.521 276.169 273.022 275.847Z" fill="#C51F2C" fill-opacity="0.86"/>
<path d="M278.685 272.617C279.624 272.064 280.403 272.514 280.403 273.556C280.372 274.151 280.201 274.731 279.902 275.247C279.603 275.763 279.186 276.2 278.685 276.522C277.746 277.067 276.977 276.626 276.977 275.584C277.006 274.989 277.176 274.41 277.473 273.895C277.77 273.379 278.186 272.941 278.685 272.617Z" fill="#C51F2C" fill-opacity="0.86"/>
<path d="M284.341 269.303C285.28 268.759 286.059 269.2 286.059 270.298C286.025 270.893 285.852 271.471 285.553 271.986C285.255 272.501 284.84 272.939 284.341 273.265C283.403 273.809 282.633 273.368 282.633 272.27C282.666 271.676 282.838 271.098 283.134 270.583C283.431 270.068 283.844 269.63 284.341 269.303Z" fill="#C51F2C" fill-opacity="0.86"/>
<path d="M290.015 266.047C290.953 265.502 291.723 265.944 291.723 266.986C291.694 267.58 291.524 268.159 291.227 268.675C290.93 269.191 290.514 269.628 290.015 269.952C289.076 270.496 288.297 270.055 288.297 269.013C288.327 268.418 288.499 267.838 288.798 267.323C289.096 266.807 289.513 266.369 290.015 266.047Z" fill="#C51F2C" fill-opacity="0.86"/>
<path d="M295.677 262.772C296.616 262.228 297.386 262.669 297.386 263.758C297.356 264.352 297.186 264.931 296.889 265.447C296.592 265.963 296.177 266.401 295.677 266.724C294.738 267.269 293.969 266.827 293.969 265.739C293.998 265.144 294.168 264.565 294.465 264.049C294.762 263.534 295.178 263.096 295.677 262.772Z" fill="#C51F2C" fill-opacity="0.86"/>
<path d="M301.333 259.477C302.272 258.933 303.051 259.374 303.051 260.472C303.017 261.067 302.844 261.645 302.546 262.16C302.247 262.675 301.832 263.113 301.333 263.438C300.395 263.983 299.625 263.542 299.625 262.443C299.659 261.85 299.832 261.273 300.128 260.758C300.425 260.243 300.838 259.805 301.333 259.477Z" fill="#C51F2C" fill-opacity="0.86"/>
<path d="M215.575 371.801L360.219 288.257C360.849 287.938 361.545 287.771 362.252 287.771C362.958 287.771 363.654 287.938 364.284 288.257L371.681 292.528C371.926 292.611 372.139 292.769 372.29 292.98C372.441 293.19 372.522 293.443 372.522 293.701C372.522 293.96 372.441 294.213 372.29 294.423C372.139 294.634 371.926 294.792 371.681 294.875L227.018 378.41C226.388 378.729 225.692 378.895 224.986 378.895C224.28 378.895 223.583 378.729 222.953 378.41L215.575 374.148C215.33 374.065 215.117 373.907 214.966 373.696C214.815 373.486 214.734 373.233 214.734 372.975C214.734 372.716 214.815 372.463 214.966 372.253C215.117 372.042 215.33 371.884 215.575 371.801Z" fill="#FD747C" fill-opacity="0.23"/>
<path d="M234.641 382.813L379.285 299.269C379.915 298.95 380.611 298.783 381.317 298.783C382.023 298.783 382.72 298.95 383.35 299.269L428.858 325.552C429.103 325.635 429.316 325.793 429.467 326.004C429.617 326.214 429.699 326.467 429.699 326.726C429.699 326.985 429.617 327.237 429.467 327.447C429.316 327.658 429.103 327.816 428.858 327.899L284.383 411.312C283.75 411.629 283.053 411.794 282.346 411.794C281.638 411.794 280.941 411.629 280.309 411.312L234.65 385.141C234.407 385.059 234.195 384.903 234.045 384.695C233.895 384.487 233.814 384.237 233.813 383.98C233.811 383.724 233.891 383.473 234.039 383.264C234.188 383.054 234.398 382.897 234.641 382.813Z" fill="black"/>
<path d="M364.304 336.87L368.838 334.251C369.025 334.139 369.016 333.951 368.838 333.838L363.572 330.816C363.46 330.758 363.336 330.728 363.21 330.728C363.084 330.728 362.961 330.758 362.849 330.816L358.315 333.435C358.127 333.538 358.137 333.726 358.315 333.848L363.553 336.87C363.668 336.933 363.797 336.966 363.928 336.966C364.059 336.966 364.188 336.933 364.304 336.87ZM355.367 326.479L350.843 329.089C350.646 329.201 350.655 329.389 350.843 329.511L356.081 332.534C356.193 332.589 356.317 332.618 356.442 332.618C356.568 332.618 356.691 332.589 356.804 332.534L361.338 329.915C361.525 329.802 361.516 329.614 361.338 329.502L356.062 326.498C355.955 326.442 355.837 326.411 355.717 326.408C355.596 326.405 355.477 326.429 355.367 326.479ZM340.733 334.927L333.073 339.349C332.876 339.461 332.895 339.649 333.073 339.771L338.302 342.794C338.414 342.849 338.538 342.878 338.663 342.878C338.789 342.878 338.912 342.849 339.025 342.794L346.694 338.372C346.882 338.26 346.872 338.072 346.694 337.959L341.456 334.927C341.343 334.872 341.22 334.843 341.094 334.843C340.969 334.843 340.845 334.872 340.733 334.927ZM348.75 330.3L344.216 332.919C344.028 333.022 344.037 333.209 344.216 333.332L349.491 336.354C349.604 336.41 349.727 336.438 349.853 336.438C349.978 336.438 350.102 336.41 350.214 336.354L354.738 333.735C354.936 333.623 354.926 333.435 354.738 333.322L349.491 330.318C349.379 330.255 349.252 330.22 349.123 330.216C348.993 330.213 348.865 330.242 348.75 330.3ZM330.98 340.56L326.455 343.169C326.258 343.282 326.268 343.469 326.455 343.591L331.693 346.614C331.805 346.672 331.929 346.702 332.055 346.702C332.181 346.702 332.304 346.672 332.416 346.614L336.95 344.005C337.138 343.892 337.128 343.704 336.95 343.582L331.712 340.56C331.599 340.503 331.473 340.473 331.346 340.473C331.219 340.473 331.094 340.503 330.98 340.56ZM324.362 344.38L319.838 346.99C319.641 347.102 319.65 347.29 319.838 347.412L325.085 350.435C325.197 350.49 325.321 350.519 325.446 350.519C325.572 350.519 325.695 350.49 325.808 350.435L330.342 347.816C330.529 347.703 330.52 347.515 330.342 347.403L325.085 344.399C324.975 344.338 324.852 344.305 324.726 344.302C324.6 344.298 324.475 344.325 324.362 344.38ZM344.957 356.677L349.491 354.058C349.679 353.945 349.669 353.758 349.491 353.645L344.253 350.622C344.141 350.565 344.018 350.535 343.892 350.535C343.766 350.535 343.642 350.565 343.53 350.622L339.006 353.241C338.809 353.345 338.828 353.532 339.006 353.654L344.234 356.677C344.346 356.735 344.47 356.765 344.596 356.765C344.722 356.765 344.845 356.735 344.957 356.677ZM338.386 360.497L342.92 357.878C343.108 357.766 343.099 357.588 342.92 357.465L337.682 354.443C337.571 354.385 337.447 354.355 337.321 354.355C337.195 354.355 337.071 354.385 336.959 354.443L332.435 357.062C332.238 357.174 332.247 357.353 332.435 357.475L337.673 360.497C337.777 360.546 337.891 360.571 338.006 360.571C338.121 360.571 338.235 360.546 338.339 360.497H338.386ZM331.768 364.318L336.302 361.699C336.49 361.596 336.481 361.408 336.302 361.286L331.064 358.263C330.953 358.206 330.829 358.176 330.703 358.176C330.577 358.176 330.453 358.206 330.342 358.263L325.742 360.854C325.545 360.967 325.554 361.155 325.742 361.267L330.98 364.29C331.092 364.355 331.218 364.392 331.347 364.397C331.477 364.401 331.605 364.374 331.722 364.318H331.768ZM325.198 368.138L329.732 365.52C329.919 365.416 329.91 365.229 329.732 365.106L324.494 362.084C324.381 362.028 324.258 362 324.132 362C324.007 362 323.883 362.028 323.771 362.084L319.237 364.703C319.049 364.815 319.059 365.003 319.237 365.116L324.475 368.138C324.571 368.179 324.675 368.2 324.78 368.2C324.885 368.2 324.988 368.179 325.085 368.138H325.198ZM357.78 340.691L362.304 338.072C362.501 337.959 362.492 337.781 362.304 337.659L357.001 334.636C356.889 334.579 356.765 334.549 356.639 334.549C356.514 334.549 356.39 334.579 356.278 334.636L351.744 337.255C351.556 337.368 351.566 337.546 351.744 337.668L357.001 340.672C357.106 340.727 357.223 340.757 357.341 340.76C357.46 340.763 357.578 340.74 357.686 340.691H357.78ZM351.678 352.894L361.694 347.018C361.882 346.905 361.873 346.717 361.694 346.605L348.937 339.264C348.826 339.206 348.702 339.176 348.576 339.176C348.45 339.176 348.326 339.206 348.214 339.264L342.995 342.277C342.798 342.39 342.808 342.578 342.995 342.7L349.735 346.586C349.942 346.708 349.951 346.896 349.735 346.999L345.558 349.411C345.361 349.524 345.38 349.712 345.558 349.834L350.796 352.856C350.917 352.923 351.052 352.958 351.19 352.958C351.328 352.958 351.464 352.923 351.584 352.856L351.678 352.894ZM317.885 348.201L313.351 350.819C313.163 350.923 313.173 351.11 313.351 351.233L318.514 354.283C318.626 354.339 318.75 354.368 318.875 354.368C319.001 354.368 319.124 354.339 319.237 354.283L323.761 351.664C323.959 351.552 323.949 351.364 323.761 351.251L318.514 348.219C318.398 348.151 318.266 348.113 318.132 348.11C317.997 348.106 317.864 348.138 317.744 348.201H317.885ZM311.267 352.021L306.733 354.64C306.546 354.753 306.555 354.931 306.733 355.053L311.971 358.076C312.083 358.133 312.207 358.163 312.333 358.163C312.458 358.163 312.582 358.133 312.694 358.076L317.219 355.457C317.416 355.344 317.406 355.156 317.219 355.044L311.981 352.021C311.853 351.939 311.705 351.895 311.554 351.895C311.402 351.895 311.254 351.939 311.127 352.021H311.267ZM278.188 394.873C278.299 394.93 278.423 394.96 278.549 394.96C278.675 394.96 278.799 394.93 278.91 394.873L283.444 392.254C283.632 392.141 283.623 391.953 283.444 391.841L278.206 388.818C278.095 388.76 277.971 388.73 277.845 388.73C277.719 388.73 277.595 388.76 277.484 388.818L272.959 391.437C272.762 391.54 272.771 391.728 272.959 391.85L278.188 394.873ZM258.315 382.594L253.641 385.26C253.453 385.364 253.462 385.551 253.641 385.673L258.879 388.696C258.991 388.751 259.115 388.78 259.24 388.78C259.365 388.78 259.489 388.751 259.601 388.696L264.126 386.077C264.323 385.964 264.314 385.777 264.126 385.664L258.888 382.641C258.781 382.578 258.661 382.541 258.537 382.532C258.413 382.524 258.289 382.545 258.175 382.594H258.315ZM268.97 391.559C269.081 391.617 269.205 391.647 269.331 391.647C269.457 391.647 269.581 391.617 269.692 391.559L274.217 388.94C274.414 388.827 274.395 388.64 274.217 388.527L268.979 385.504C268.867 385.447 268.743 385.417 268.618 385.417C268.492 385.417 268.368 385.447 268.256 385.504L263.732 388.123C263.544 388.236 263.553 388.414 263.732 388.536L268.97 391.559ZM289.874 397.191L294.408 394.572C294.596 394.46 294.587 394.272 294.408 394.159L289.17 391.137C289.059 391.079 288.935 391.049 288.809 391.049C288.683 391.049 288.559 391.079 288.448 391.137L283.782 393.709C283.585 393.812 283.594 394 283.782 394.122L289.02 397.144C289.127 397.207 289.247 397.245 289.37 397.255C289.494 397.264 289.618 397.246 289.734 397.201L289.874 397.191ZM282.534 400.946C282.646 401.004 282.769 401.034 282.895 401.034C283.021 401.034 283.145 401.004 283.257 400.946L287.79 398.327C287.978 398.214 287.969 398.027 287.79 397.914L282.553 394.891C282.441 394.834 282.317 394.804 282.191 394.804C282.065 394.804 281.941 394.834 281.83 394.891L277.296 397.51C277.108 397.614 277.117 397.801 277.296 397.923L282.534 400.946ZM264.933 378.718L260.399 381.327C260.212 381.44 260.221 381.628 260.399 381.75L265.637 384.772C265.75 384.828 265.873 384.857 265.999 384.857C266.124 384.857 266.248 384.828 266.36 384.772L270.885 382.153C271.082 382.041 271.072 381.853 270.885 381.74L265.647 378.708C265.512 378.639 265.361 378.608 265.21 378.62C265.059 378.632 264.915 378.685 264.792 378.774L264.933 378.718ZM297.863 359.662L293.329 362.281C293.141 362.394 293.15 362.581 293.329 362.694L298.567 365.717C298.678 365.774 298.802 365.804 298.928 365.804C299.054 365.804 299.178 365.774 299.29 365.717L303.814 363.098C304.011 362.994 303.992 362.807 303.814 362.685L298.576 359.662C298.465 359.607 298.343 359.578 298.219 359.578C298.096 359.578 297.973 359.607 297.863 359.662ZM271.41 374.935L266.886 377.563C266.689 377.676 266.698 377.863 266.886 377.985L272.124 381.008C272.235 381.066 272.359 381.096 272.485 381.096C272.611 381.096 272.735 381.066 272.846 381.008L277.38 378.398C277.568 378.286 277.559 378.098 277.38 377.976L272.133 374.935C272.021 374.879 271.897 374.85 271.772 374.85C271.646 374.85 271.523 374.879 271.41 374.935ZM304.509 355.823L299.975 358.442C299.787 358.554 299.796 358.742 299.975 358.855L305.213 361.877C305.324 361.935 305.448 361.965 305.574 361.965C305.7 361.965 305.824 361.935 305.936 361.877L310.46 359.258C310.657 359.146 310.638 358.967 310.46 358.845L305.222 355.823C305.11 355.77 304.987 355.744 304.863 355.747C304.739 355.75 304.618 355.783 304.509 355.842V355.823ZM291.292 363.483L286.767 366.101C286.57 366.214 286.589 366.402 286.767 366.515L292.005 369.537C292.117 369.595 292.241 369.625 292.367 369.625C292.492 369.625 292.616 369.595 292.728 369.537L297.253 366.928C297.44 366.815 297.431 366.627 297.253 366.505L292.015 363.483C291.902 363.427 291.779 363.398 291.653 363.398C291.528 363.398 291.404 363.427 291.292 363.483ZM284.674 367.312L280.149 369.922C279.952 370.035 279.971 370.222 280.149 370.335L285.378 373.367C285.49 373.422 285.614 373.451 285.739 373.451C285.865 373.451 285.988 373.422 286.101 373.367L290.635 370.757C290.822 370.645 290.813 370.457 290.635 370.335L285.397 367.312C285.281 367.25 285.152 367.217 285.021 367.217C284.89 367.217 284.761 367.25 284.646 367.312H284.674ZM278.103 371.133L273.579 373.743C273.381 373.855 273.391 374.043 273.579 374.165L278.817 377.188C278.929 377.243 279.053 377.272 279.178 377.272C279.303 377.272 279.427 377.243 279.539 377.188L284.073 374.578C284.261 374.465 284.252 374.278 284.073 374.156L278.751 371.18C278.638 371.124 278.515 371.096 278.389 371.096C278.264 371.096 278.14 371.124 278.028 371.18L278.103 371.133ZM311.896 375.779L316.421 373.17C316.618 373.057 316.599 372.87 316.421 372.747L311.183 369.725C311.071 369.667 310.947 369.637 310.821 369.637C310.696 369.637 310.572 369.667 310.46 369.725L305.926 372.334C305.738 372.447 305.748 372.635 305.926 372.757L311.164 375.779C311.274 375.832 311.394 375.859 311.516 375.859C311.638 375.859 311.758 375.832 311.868 375.779H311.896ZM370.03 318.031L365.449 320.65C365.261 320.753 365.271 320.941 365.449 321.063L370.687 324.085C370.799 324.141 370.923 324.17 371.048 324.17C371.174 324.17 371.297 324.141 371.41 324.085L375.934 321.466C376.131 321.354 376.122 321.166 375.934 321.053L370.696 318.031C370.588 317.978 370.469 317.95 370.349 317.95C370.229 317.95 370.11 317.978 370.002 318.031H370.03ZM362.013 322.659L357.489 325.268C357.292 325.381 357.301 325.568 357.489 325.691L362.727 328.713C362.839 328.771 362.962 328.801 363.088 328.801C363.214 328.801 363.338 328.771 363.45 328.713L367.984 326.104C368.171 325.991 368.162 325.803 367.984 325.681L362.746 322.659C362.628 322.597 362.498 322.565 362.365 322.565C362.233 322.565 362.102 322.597 361.985 322.659H362.013ZM376.648 314.21L372.114 316.82C371.926 316.932 371.935 317.12 372.114 317.242L377.352 320.265C377.464 320.32 377.588 320.349 377.713 320.349C377.838 320.349 377.962 320.32 378.075 320.265L382.599 317.646C382.796 317.533 382.787 317.345 382.599 317.233L377.361 314.201C377.246 314.144 377.118 314.115 376.989 314.117C376.86 314.118 376.734 314.15 376.62 314.21H376.648ZM342.357 349.59L346.891 346.971C347.079 346.858 347.069 346.67 346.891 346.558L341.653 343.526C341.541 343.47 341.417 343.441 341.292 343.441C341.166 343.441 341.043 343.47 340.93 343.526L336.349 346.079C336.162 346.192 336.171 346.379 336.349 346.501L341.587 349.524C341.7 349.598 341.83 349.642 341.964 349.654C342.098 349.665 342.233 349.643 342.357 349.59ZM383.96 310.446C383.848 310.391 383.724 310.362 383.599 310.362C383.473 310.362 383.35 310.391 383.237 310.446L378.713 312.981C378.516 313.093 378.525 313.281 378.713 313.403L383.951 316.426C384.062 316.483 384.186 316.513 384.312 316.513C384.438 316.513 384.562 316.483 384.674 316.426L389.207 313.816C389.395 313.703 389.386 313.516 389.207 313.394L383.96 310.446ZM318.514 371.959L323.039 369.349C323.236 369.237 323.226 369.049 323.039 368.927L317.801 365.904C317.688 365.849 317.565 365.82 317.439 365.82C317.314 365.82 317.19 365.849 317.078 365.904L312.544 368.523C312.356 368.636 312.366 368.824 312.544 368.936L317.782 371.968C317.896 372.024 318.022 372.052 318.149 372.05C318.276 372.049 318.401 372.017 318.514 371.959ZM399.683 325.099L404.208 322.48C404.405 322.368 404.396 322.18 404.208 322.067L398.97 319.045C398.858 318.987 398.734 318.957 398.609 318.957C398.483 318.957 398.359 318.987 398.247 319.045L393.713 321.664C393.525 321.767 393.535 321.955 393.713 322.077L398.951 325.099C399.06 325.154 399.181 325.182 399.303 325.182C399.425 325.182 399.546 325.154 399.655 325.099H399.683ZM385.603 324.602L390.127 321.983C390.325 321.87 390.315 321.682 390.127 321.57L384.889 318.547C384.778 318.489 384.654 318.459 384.528 318.459C384.402 318.459 384.278 318.489 384.167 318.547L379.529 321.147C379.342 321.25 379.351 321.438 379.529 321.56L384.767 324.583C384.886 324.655 385.021 324.695 385.159 324.698C385.298 324.701 385.434 324.668 385.556 324.602H385.603ZM391.488 314.717C391.376 314.662 391.252 314.633 391.127 314.633C391.002 314.633 390.878 314.662 390.766 314.717L386.232 317.327C386.044 317.439 386.053 317.627 386.232 317.749L391.47 320.772C391.582 320.827 391.706 320.856 391.831 320.856C391.956 320.856 392.08 320.827 392.193 320.772L396.726 318.153C396.914 318.04 396.905 317.852 396.726 317.74L391.488 314.717ZM392.878 313.919L405.597 321.26C405.71 321.315 405.833 321.344 405.959 321.344C406.084 321.344 406.208 321.315 406.32 321.26L410.854 318.641C411.042 318.528 411.032 318.341 410.854 318.228L398.134 310.878C398.022 310.822 397.898 310.794 397.773 310.794C397.648 310.794 397.524 310.822 397.412 310.878L392.887 313.487C392.615 313.609 392.671 313.797 392.831 313.919H392.878ZM377.53 322.368L372.959 324.968C372.771 325.08 372.78 325.259 372.959 325.381L378.197 328.403C378.308 328.461 378.432 328.491 378.558 328.491C378.684 328.491 378.808 328.461 378.919 328.403L383.444 325.784C383.641 325.672 383.632 325.493 383.444 325.371L378.206 322.368C378.094 322.31 377.97 322.28 377.844 322.28C377.719 322.28 377.595 322.31 377.483 322.368H377.53ZM327.713 351.129L323.179 353.748C322.992 353.861 323.001 354.039 323.179 354.161L328.417 357.184C328.529 357.241 328.653 357.272 328.779 357.272C328.904 357.272 329.028 357.241 329.14 357.184L333.665 354.565C333.862 354.452 333.843 354.274 333.665 354.152L328.436 351.129C328.32 351.061 328.188 351.023 328.054 351.02C327.919 351.016 327.786 351.048 327.666 351.11L327.713 351.129ZM392.315 328.938C392.426 328.996 392.55 329.026 392.676 329.026C392.802 329.026 392.926 328.996 393.037 328.938L397.562 326.319C397.759 326.207 397.75 326.028 397.562 325.906L392.324 322.884C392.212 322.826 392.088 322.796 391.963 322.796C391.837 322.796 391.713 322.826 391.601 322.884L387.039 325.465C386.851 325.578 386.861 325.756 387.039 325.878L392.315 328.938ZM334.284 347.29L329.778 349.909C329.591 350.012 329.6 350.2 329.778 350.322L335.016 353.345C335.128 353.402 335.252 353.432 335.378 353.432C335.504 353.432 335.627 353.402 335.739 353.345L340.264 350.726C340.461 350.613 340.451 350.425 340.264 350.313L335.026 347.29C334.912 347.229 334.784 347.197 334.655 347.197C334.526 347.197 334.398 347.229 334.284 347.29ZM284.665 391.052C284.777 391.108 284.901 391.136 285.026 391.136C285.151 391.136 285.275 391.108 285.387 391.052L289.921 388.433C290.109 388.32 290.1 388.133 289.921 388.02L284.683 384.997C284.572 384.94 284.448 384.91 284.322 384.91C284.196 384.91 284.072 384.94 283.961 384.997L279.436 387.616C279.239 387.72 279.248 387.907 279.436 388.029L284.665 391.052ZM274.714 381.665L270.18 384.322C269.993 384.425 270.002 384.613 270.18 384.735L275.418 387.757C275.531 387.813 275.654 387.842 275.78 387.842C275.905 387.842 276.029 387.813 276.141 387.757L280.666 385.138C280.863 385.026 280.844 384.838 280.666 384.725L275.437 381.703C275.327 381.642 275.204 381.609 275.078 381.606C274.952 381.602 274.828 381.629 274.714 381.684V381.665ZM292.005 387.232L296.539 384.613C296.727 384.5 296.717 384.312 296.539 384.2L291.292 381.186C291.179 381.131 291.056 381.102 290.93 381.102C290.805 381.102 290.681 381.131 290.569 381.186L286.044 383.796C285.847 383.909 285.866 384.096 286.044 384.218L291.292 387.232C291.402 387.289 291.523 387.32 291.646 387.323C291.77 387.326 291.893 387.301 292.005 387.25V387.232ZM298.632 383.402L303.157 380.792C303.345 380.679 303.335 380.492 303.157 380.37L297.863 377.366C297.75 377.31 297.627 377.282 297.501 377.282C297.376 377.282 297.252 377.31 297.14 377.366L292.615 379.975C292.418 380.088 292.437 380.276 292.615 380.398L297.853 383.42C297.975 383.482 298.111 383.511 298.248 383.505C298.384 383.498 298.517 383.456 298.632 383.383V383.402ZM305.25 379.581L309.775 376.972C309.972 376.859 309.953 376.671 309.775 376.549L304.537 373.527C304.426 373.471 304.304 373.442 304.18 373.442C304.056 373.442 303.934 373.471 303.823 373.527L299.29 376.136C299.102 376.249 299.111 376.437 299.29 376.559L304.527 379.628C304.64 379.684 304.764 379.712 304.889 379.712C305.014 379.712 305.138 379.684 305.25 379.628V379.581ZM281.332 377.845L276.798 380.454C276.611 380.567 276.62 380.755 276.798 380.877L282.036 383.899C282.149 383.955 282.272 383.984 282.398 383.984C282.523 383.984 282.647 383.955 282.759 383.899L287.284 381.28C287.481 381.168 287.471 380.98 287.284 380.867L282.046 377.835C281.932 377.786 281.809 377.762 281.686 377.767C281.562 377.772 281.441 377.805 281.332 377.863V377.845ZM287.95 374.024L283.416 376.634C283.228 376.746 283.238 376.934 283.416 377.056L288.654 380.079C288.766 380.136 288.89 380.166 289.015 380.166C289.141 380.166 289.265 380.136 289.377 380.079L293.901 377.469C294.099 377.356 294.089 377.169 293.901 377.047L288.663 374.024C288.551 373.973 288.428 373.948 288.305 373.951C288.181 373.955 288.06 373.986 287.95 374.043V374.024ZM314.421 358.733L309.897 361.352C309.7 361.464 309.718 361.652 309.897 361.765L315.135 364.787C315.245 364.845 315.367 364.875 315.491 364.875C315.616 364.875 315.738 364.845 315.848 364.787L320.382 362.168C320.57 362.065 320.56 361.877 320.382 361.755L315.144 358.733C315.03 358.68 314.906 358.655 314.781 358.658C314.655 358.661 314.532 358.693 314.421 358.751V358.733ZM307.85 362.553L303.326 365.172C303.129 365.285 303.148 365.473 303.326 365.585L308.554 368.617C308.667 368.673 308.791 368.702 308.916 368.702C309.041 368.702 309.165 368.673 309.277 368.617L313.811 366.008C313.999 365.895 313.99 365.707 313.811 365.585L308.573 362.563C308.454 362.501 308.321 362.469 308.187 362.471C308.053 362.473 307.921 362.507 307.804 362.572L307.85 362.553ZM321.095 354.912L316.562 357.531C316.374 357.644 316.383 357.832 316.562 357.944L321.8 360.967C321.911 361.024 322.035 361.054 322.161 361.054C322.287 361.054 322.411 361.024 322.522 360.967L327.047 358.348C327.244 358.245 327.225 358.057 327.047 357.935L321.809 354.912C321.691 354.849 321.56 354.818 321.426 354.821C321.293 354.824 321.163 354.862 321.049 354.931L321.095 354.912ZM294.568 370.241L290.043 372.851C289.846 372.963 289.856 373.151 290.043 373.273L295.281 376.296C295.394 376.351 295.517 376.38 295.643 376.38C295.768 376.38 295.892 376.351 296.004 376.296L300.538 373.686C300.726 373.574 300.716 373.386 300.538 373.264L295.291 370.241C295.178 370.186 295.055 370.157 294.929 370.157C294.804 370.157 294.68 370.186 294.568 370.241ZM301.139 366.421L296.614 369.03C296.417 369.143 296.426 369.331 296.614 369.453L301.852 372.475C301.965 372.531 302.088 372.56 302.214 372.56C302.339 372.56 302.463 372.531 302.575 372.475L307.109 369.866C307.297 369.753 307.287 369.565 307.109 369.443L301.871 366.421C301.766 366.366 301.649 366.336 301.53 366.333C301.412 366.33 301.294 366.353 301.186 366.402L301.139 366.421ZM296.304 393.399L300.838 390.78C301.026 390.667 301.017 390.479 300.838 390.367L295.6 387.335C295.488 387.279 295.364 387.251 295.239 387.251C295.114 387.251 294.99 387.279 294.878 387.335L290.353 389.954C290.156 390.066 290.165 390.254 290.353 390.376L295.582 393.399C295.702 393.459 295.835 393.489 295.969 393.486C296.103 393.483 296.235 393.446 296.351 393.38L296.304 393.399ZM257.499 389.456L252.27 386.434C252.158 386.376 252.034 386.346 251.909 386.346C251.783 386.346 251.659 386.376 251.547 386.434L247.023 389.015C246.835 389.118 246.844 389.306 247.023 389.428L252.261 392.451C252.372 392.508 252.496 392.538 252.622 392.538C252.748 392.538 252.872 392.508 252.984 392.451L257.508 389.832C257.733 389.757 257.715 389.569 257.499 389.456ZM267.421 392.366L262.192 389.344C262.08 389.286 261.957 389.256 261.831 389.256C261.705 389.256 261.581 389.286 261.469 389.344L254.504 393.371C254.316 393.483 254.326 393.662 254.504 393.784L259.742 396.806C259.854 396.864 259.978 396.894 260.104 396.894C260.229 396.894 260.353 396.864 260.465 396.806L267.43 392.779C267.646 392.667 267.637 392.488 267.43 392.366H267.421ZM249.473 383.608L244.244 380.567C244.132 380.511 244.008 380.483 243.883 380.483C243.758 380.483 243.634 380.511 243.521 380.567L237.946 383.787C237.748 383.899 237.767 384.087 237.946 384.209L243.174 387.232C243.287 387.287 243.41 387.316 243.536 387.316C243.661 387.316 243.785 387.287 243.897 387.232L249.473 384.012C249.698 383.918 249.689 383.73 249.482 383.608H249.473ZM253.744 381.139C253.856 381.197 253.98 381.227 254.105 381.227C254.231 381.227 254.355 381.197 254.467 381.139L258.991 378.52C259.188 378.408 259.17 378.229 258.991 378.107L253.744 375.104C253.632 375.046 253.508 375.016 253.382 375.016C253.257 375.016 253.133 375.046 253.021 375.104L248.487 377.751C248.299 377.863 248.309 378.042 248.487 378.164L253.744 381.139ZM276.648 395.68L271.41 392.657C271.298 392.6 271.175 392.57 271.049 392.57C270.923 392.57 270.799 392.6 270.687 392.657L261.976 397.689C261.789 397.801 261.798 397.989 261.976 398.102L267.214 401.124C267.326 401.182 267.45 401.212 267.576 401.212C267.701 401.212 267.825 401.182 267.937 401.124L276.639 396.093C276.873 395.98 276.864 395.802 276.658 395.68H276.648ZM280.994 401.81L275.756 398.787C275.645 398.729 275.521 398.699 275.395 398.699C275.269 398.699 275.145 398.729 275.034 398.787L269.458 402.007C269.27 402.119 269.279 402.307 269.458 402.42L274.696 405.452C274.808 405.507 274.932 405.536 275.057 405.536C275.182 405.536 275.306 405.507 275.418 405.452L280.985 402.232C281.22 402.157 281.21 401.932 280.966 401.81H280.994ZM302.95 352.725C303.062 352.783 303.186 352.813 303.312 352.813C303.438 352.813 303.562 352.783 303.673 352.725L308.207 350.106C308.395 350.003 308.386 349.815 308.207 349.693L302.969 346.67C302.857 346.613 302.734 346.583 302.608 346.583C302.482 346.583 302.358 346.613 302.246 346.67L297.722 349.289C297.525 349.402 297.544 349.59 297.722 349.702L302.95 352.725ZM289.715 360.375C289.827 360.431 289.951 360.46 290.076 360.46C290.202 360.46 290.325 360.431 290.438 360.375L294.972 357.766C295.159 357.653 295.15 357.465 294.972 357.343L289.734 354.321C289.621 354.265 289.498 354.236 289.372 354.236C289.247 354.236 289.123 354.265 289.011 354.321L284.486 356.94C284.289 357.052 284.299 357.24 284.486 357.353L289.715 360.375ZM260.362 377.319C260.473 377.377 260.597 377.407 260.723 377.407C260.849 377.407 260.973 377.377 261.085 377.319L265.609 374.7C265.806 374.587 265.797 374.4 265.609 374.287L260.371 371.264C260.259 371.207 260.135 371.177 260.01 371.177C259.884 371.177 259.76 371.207 259.648 371.264L255.114 373.883C254.927 373.987 254.936 374.174 255.114 374.296L260.362 377.319ZM296.333 356.546C296.444 356.603 296.568 356.633 296.694 356.633C296.82 356.633 296.944 356.603 297.055 356.546L301.589 353.927C301.777 353.823 301.768 353.636 301.589 353.514L296.333 350.528C296.22 350.473 296.097 350.444 295.971 350.444C295.846 350.444 295.722 350.473 295.61 350.528L291.085 353.147C290.888 353.26 290.898 353.448 291.085 353.56L296.333 356.546ZM283.097 364.196C283.209 364.251 283.333 364.28 283.458 364.28C283.584 364.28 283.707 364.251 283.82 364.196L288.354 361.586C288.541 361.474 288.532 361.286 288.354 361.164L283.116 358.141C283.004 358.084 282.88 358.054 282.754 358.054C282.629 358.054 282.505 358.084 282.393 358.141L277.859 360.751C277.671 360.864 277.681 361.051 277.859 361.173L283.097 364.196ZM284.627 402.298C284.515 402.24 284.391 402.21 284.266 402.21C284.14 402.21 284.016 402.24 283.904 402.298L276.939 406.315C276.751 406.428 276.761 406.616 276.939 406.738L282.177 409.76C282.289 409.816 282.413 409.845 282.538 409.845C282.664 409.845 282.787 409.816 282.9 409.76L289.865 405.743C290.053 405.63 290.043 405.442 289.865 405.32L284.627 402.298ZM273.607 369.678C273.718 369.736 273.842 369.766 273.968 369.766C274.094 369.766 274.218 369.736 274.33 369.678L278.863 367.068C279.051 366.956 279.042 366.768 278.863 366.646L273.597 363.67C273.485 363.615 273.361 363.586 273.236 363.586C273.111 363.586 272.987 363.615 272.875 363.67L268.35 366.28C268.153 366.392 268.162 366.58 268.35 366.702L273.607 369.678ZM267.036 373.498C267.148 373.554 267.272 373.583 267.397 373.583C267.523 373.583 267.646 373.554 267.759 373.498L272.283 370.879C272.48 370.767 272.471 370.579 272.283 370.466L266.98 367.425C266.868 367.367 266.744 367.337 266.618 367.337C266.492 367.337 266.368 367.367 266.257 367.425L261.723 370.035C261.535 370.147 261.544 370.335 261.723 370.457L267.036 373.498ZM407.315 331.501C407.203 331.446 407.079 331.417 406.954 331.417C406.828 331.417 406.705 331.446 406.592 331.501L395.44 337.941C395.253 338.053 395.262 338.241 395.44 338.363L400.678 341.386C400.791 341.441 400.914 341.47 401.04 341.47C401.165 341.47 401.289 341.441 401.401 341.386L412.544 334.946C412.741 334.843 412.731 334.655 412.544 334.533L407.315 331.501ZM392.681 339.949C392.569 339.892 392.445 339.862 392.319 339.862C392.194 339.862 392.07 339.892 391.958 339.949L387.433 342.568C387.236 342.681 387.246 342.869 387.433 342.981L392.671 346.004C392.783 346.062 392.907 346.092 393.033 346.092C393.158 346.092 393.282 346.062 393.394 346.004L397.928 343.385C398.116 343.282 398.106 343.094 397.928 342.972L392.681 339.949ZM303.016 389.55L307.55 386.941C307.738 386.828 307.728 386.64 307.55 386.518L302.312 383.496C302.2 383.44 302.076 383.411 301.951 383.411C301.825 383.411 301.702 383.44 301.589 383.496L297.065 386.105C296.868 386.218 296.886 386.406 297.065 386.528L302.303 389.55C302.407 389.6 302.521 389.626 302.636 389.626C302.751 389.626 302.865 389.6 302.969 389.55H303.016ZM379.445 347.59C379.333 347.533 379.209 347.503 379.084 347.503C378.958 347.503 378.834 347.533 378.722 347.59L374.188 350.2C374.001 350.313 374.01 350.5 374.188 350.622L379.426 353.645C379.539 353.7 379.662 353.729 379.788 353.729C379.913 353.729 380.037 353.7 380.149 353.645L384.674 351.035C384.871 350.923 384.861 350.735 384.674 350.613L379.445 347.59ZM413.933 327.681C413.821 327.623 413.697 327.593 413.571 327.593C413.446 327.593 413.322 327.623 413.21 327.681L408.629 330.281C408.441 330.393 408.451 330.581 408.629 330.694L413.867 333.716C413.979 333.774 414.103 333.804 414.228 333.804C414.354 333.804 414.478 333.774 414.59 333.716L419.114 331.097C419.312 330.994 419.302 330.806 419.114 330.684L413.933 327.681ZM425.789 326.883L413.022 319.551C412.91 319.494 412.787 319.464 412.661 319.464C412.535 319.464 412.411 319.494 412.299 319.551L407.775 322.17C407.578 322.274 407.587 322.461 407.775 322.583L420.513 329.877C420.625 329.935 420.749 329.965 420.874 329.965C421 329.965 421.124 329.935 421.236 329.877L425.77 327.258C425.958 327.183 425.948 327.005 425.742 326.883H425.789ZM354.71 361.868C354.598 361.812 354.474 361.784 354.349 361.784C354.224 361.784 354.1 361.812 353.987 361.868L348.412 365.088C348.214 365.191 348.233 365.379 348.412 365.501L353.65 368.523C353.761 368.581 353.885 368.611 354.011 368.611C354.137 368.611 354.261 368.581 354.372 368.523L359.939 365.304C360.136 365.191 360.127 365.003 359.939 364.891L354.71 361.868ZM371.429 352.218C371.316 352.163 371.192 352.134 371.067 352.134C370.942 352.134 370.818 352.163 370.706 352.218L363.741 356.245C363.543 356.358 363.562 356.546 363.741 356.658L368.979 359.681C369.09 359.738 369.214 359.768 369.34 359.768C369.466 359.768 369.59 359.738 369.701 359.681L376.666 355.654C376.854 355.551 376.845 355.363 376.666 355.241L371.429 352.218ZM339.381 370.72C339.27 370.662 339.146 370.632 339.02 370.632C338.894 370.632 338.77 370.662 338.659 370.72L301.336 392.225C301.139 392.338 301.158 392.526 301.336 392.648L306.564 395.67C306.677 395.726 306.8 395.755 306.926 395.755C307.051 395.755 307.175 395.726 307.287 395.67L344.563 374.156C344.76 374.043 344.751 373.855 344.563 373.733L339.381 370.72ZM300.012 393.446C299.9 393.39 299.776 393.361 299.651 393.361C299.526 393.361 299.402 393.39 299.29 393.446L293.714 396.666C293.526 396.769 293.535 396.957 293.714 397.079L298.952 400.101C299.063 400.159 299.187 400.189 299.313 400.189C299.439 400.189 299.563 400.159 299.674 400.101L305.25 396.881C305.438 396.769 305.429 396.581 305.25 396.468L300.012 393.446ZM347.041 366.299C346.929 366.241 346.805 366.211 346.68 366.211C346.554 366.211 346.43 366.241 346.318 366.299L340.752 369.518C340.555 369.631 340.564 369.819 340.752 369.931L345.99 372.963C346.102 373.019 346.226 373.048 346.351 373.048C346.477 373.048 346.6 373.019 346.713 372.963L352.288 369.744C352.476 369.631 352.467 369.453 352.288 369.331L347.041 366.299ZM292.353 397.876C292.241 397.819 292.117 397.789 291.991 397.789C291.865 397.789 291.741 397.819 291.63 397.876L286.054 401.096C285.857 401.209 285.876 401.397 286.054 401.509L291.292 404.541C291.403 404.597 291.525 404.625 291.649 404.625C291.772 404.625 291.894 404.597 292.005 404.541L297.581 401.321C297.778 401.209 297.769 401.03 297.581 400.908L292.353 397.876ZM362.37 357.447C362.258 357.391 362.134 357.362 362.009 357.362C361.883 357.362 361.76 357.391 361.647 357.447L356.062 360.648C355.874 360.76 355.884 360.948 356.062 361.07L361.3 364.093C361.412 364.15 361.536 364.18 361.661 364.18C361.787 364.18 361.911 364.15 362.023 364.093L367.599 360.882C367.786 360.77 367.777 360.582 367.599 360.46L362.37 357.447ZM386.063 343.77C385.95 343.714 385.827 343.686 385.701 343.686C385.576 343.686 385.452 343.714 385.34 343.77L380.806 346.389C380.618 346.501 380.628 346.689 380.806 346.802L386.044 349.834C386.156 349.889 386.28 349.918 386.405 349.918C386.531 349.918 386.654 349.889 386.767 349.834L391.291 347.224C391.488 347.112 391.479 346.924 391.291 346.802L386.063 343.77ZM400.566 333.238L405.09 330.619C405.287 330.515 405.278 330.328 405.09 330.206L399.852 327.183C399.741 327.125 399.617 327.095 399.491 327.095C399.365 327.095 399.241 327.125 399.13 327.183L394.549 329.783C394.361 329.896 394.37 330.084 394.549 330.196L399.787 333.219C399.898 333.281 400.023 333.315 400.15 333.318C400.278 333.322 400.404 333.294 400.519 333.238H400.566ZM370.969 333.05L375.502 330.431C375.69 330.318 375.681 330.131 375.502 330.018L370.265 326.995C370.153 326.938 370.029 326.908 369.903 326.908C369.777 326.908 369.653 326.938 369.542 326.995L365.017 329.605C364.82 329.718 364.829 329.905 365.017 330.027L370.255 333.05C370.36 333.097 370.474 333.121 370.588 333.121C370.703 333.121 370.817 333.097 370.922 333.05H370.969ZM355.949 358.986L369.185 351.336C369.373 351.232 369.363 351.045 369.185 350.923L363.947 347.9C363.835 347.843 363.711 347.812 363.586 347.812C363.46 347.812 363.336 347.843 363.224 347.9L349.989 355.541C349.792 355.654 349.81 355.842 349.989 355.964L355.227 358.986C355.337 359.037 355.458 359.063 355.58 359.061C355.701 359.06 355.821 359.031 355.931 358.977L355.949 358.986ZM393.197 337.039C393.309 337.097 393.433 337.127 393.558 337.127C393.684 337.127 393.808 337.097 393.92 337.039L398.444 334.43C398.641 334.317 398.623 334.129 398.444 334.007L393.216 330.985C393.103 330.929 392.98 330.9 392.854 330.9C392.729 330.9 392.605 330.929 392.493 330.985L387.912 333.632C387.724 333.745 387.734 333.932 387.912 334.045L393.197 337.039ZM386.438 332.74L390.963 330.121C391.16 330.018 391.151 329.83 390.963 329.708L385.734 326.686C385.623 326.628 385.499 326.598 385.373 326.598C385.247 326.598 385.123 326.628 385.011 326.686L380.468 329.286C380.28 329.398 380.29 329.586 380.468 329.699L385.706 332.721C385.815 332.78 385.937 332.813 386.061 332.816C386.185 332.819 386.308 332.793 386.42 332.74H386.438ZM349.322 362.778L353.856 360.16C354.044 360.047 354.034 359.859 353.856 359.747L348.552 356.752C348.441 356.694 348.317 356.664 348.191 356.664C348.065 356.664 347.941 356.694 347.83 356.752L343.305 359.371C343.108 359.474 343.127 359.662 343.305 359.784L348.534 362.807C348.652 362.87 348.784 362.903 348.919 362.903C349.053 362.903 349.185 362.87 349.303 362.807L349.322 362.778ZM378.591 345.488C378.703 345.545 378.826 345.575 378.952 345.575C379.078 345.575 379.202 345.545 379.314 345.488L383.838 342.869C384.035 342.765 384.026 342.578 383.838 342.456L378.6 339.433C378.488 339.375 378.365 339.345 378.239 339.345C378.113 339.345 377.989 339.375 377.877 339.433L373.278 342.08C373.09 342.193 373.099 342.381 373.278 342.493L378.591 345.488ZM316.261 381.909L320.786 379.3C320.983 379.187 320.964 378.999 320.786 378.877L315.482 375.873C315.37 375.816 315.246 375.786 315.121 375.786C314.995 375.786 314.871 375.816 314.759 375.873L310.225 378.483C310.038 378.596 310.047 378.783 310.225 378.905L315.463 381.928C315.581 381.985 315.71 382.013 315.841 382.01C315.972 382.007 316.1 381.972 316.214 381.909H316.261ZM322.832 378.089L327.357 375.479C327.554 375.366 327.544 375.179 327.357 375.057L322.119 372.034C322.006 371.979 321.883 371.95 321.757 371.95C321.632 371.95 321.508 371.979 321.396 372.034L316.862 374.653C316.674 374.766 316.684 374.953 316.862 375.066L322.1 378.089C322.213 378.148 322.338 378.179 322.466 378.179C322.594 378.179 322.719 378.148 322.832 378.089ZM309.596 385.73L314.121 383.12C314.318 383.007 314.299 382.82 314.121 382.698L308.883 379.675C308.771 379.62 308.647 379.591 308.522 379.591C308.396 379.591 308.273 379.62 308.16 379.675L303.636 382.285C303.448 382.397 303.457 382.585 303.636 382.707L308.874 385.73C308.986 385.785 309.11 385.814 309.235 385.814C309.36 385.814 309.484 385.785 309.596 385.73ZM336.068 370.448L340.602 367.829C340.789 367.716 340.78 367.538 340.602 367.416L335.364 364.393C335.252 364.335 335.128 364.305 335.002 364.305C334.877 364.305 334.753 364.335 334.641 364.393L330.116 367.012C329.919 367.125 329.929 367.303 330.116 367.425L335.354 370.448C335.465 370.504 335.587 370.533 335.711 370.533C335.835 370.533 335.957 370.504 336.068 370.448ZM329.497 374.268L334.021 371.649C334.218 371.546 334.209 371.358 334.021 371.236L328.783 368.214C328.672 368.156 328.548 368.126 328.422 368.126C328.296 368.126 328.172 368.156 328.061 368.214L323.527 370.833C323.339 370.945 323.348 371.133 323.527 371.246L328.765 374.268C328.872 374.32 328.989 374.346 329.107 374.346C329.226 374.346 329.343 374.32 329.45 374.268H329.497ZM342.732 366.627L347.266 364.008C347.454 363.896 347.445 363.708 347.266 363.595L341.982 360.573C341.87 360.515 341.746 360.485 341.62 360.485C341.494 360.485 341.37 360.515 341.259 360.573L336.734 363.192C336.537 363.295 336.546 363.483 336.734 363.605L341.972 366.627C342.083 366.683 342.205 366.712 342.329 366.712C342.453 366.712 342.575 366.683 342.686 366.627H342.732ZM372.959 310.089C373.07 310.147 373.194 310.177 373.32 310.177C373.446 310.177 373.57 310.147 373.681 310.089L378.215 307.47C378.403 307.358 378.394 307.179 378.215 307.057L376.817 306.25C376.705 306.192 376.581 306.162 376.455 306.162C376.33 306.162 376.206 306.192 376.094 306.25L371.569 308.86C371.382 308.972 371.391 309.16 371.569 309.282L372.959 310.089ZM340.395 331.116C340.508 331.172 340.631 331.201 340.757 331.201C340.882 331.201 341.006 331.172 341.118 331.116L345.642 328.507C345.84 328.394 345.83 328.206 345.642 328.084L340.414 325.062C340.302 325.004 340.178 324.974 340.053 324.974C339.927 324.974 339.803 325.004 339.691 325.062L335.157 327.671C334.969 327.784 334.979 327.972 335.157 328.094L340.395 331.116ZM353.631 323.466C353.743 323.523 353.866 323.554 353.992 323.554C354.118 323.554 354.242 323.523 354.354 323.466L358.878 320.866C359.075 320.762 359.066 320.575 358.878 320.453L353.64 317.43C353.528 317.375 353.404 317.346 353.279 317.346C353.153 317.346 353.03 317.375 352.917 317.43L348.383 320.049C348.196 320.162 348.205 320.349 348.383 320.462L353.631 323.466ZM332.313 335.782C332.425 335.837 332.549 335.866 332.674 335.866C332.8 335.866 332.923 335.837 333.036 335.782L337.56 333.172C337.757 333.059 337.739 332.872 337.56 332.75L332.332 329.727C332.219 329.671 332.096 329.643 331.97 329.643C331.845 329.643 331.721 329.671 331.609 329.727L327.075 332.337C326.887 332.449 326.897 332.637 327.075 332.759L332.313 335.782ZM347.013 327.333C347.125 327.389 347.249 327.418 347.374 327.418C347.5 327.418 347.623 327.389 347.736 327.333L352.26 324.724C352.457 324.611 352.448 324.423 352.26 324.301L347.022 321.279C346.91 321.223 346.786 321.194 346.661 321.194C346.536 321.194 346.412 321.223 346.3 321.279L341.766 323.898C341.578 324.01 341.587 324.198 341.766 324.311L347.013 327.333ZM319.077 343.46C319.188 343.515 319.31 343.544 319.434 343.544C319.558 343.544 319.68 343.515 319.791 343.46L324.325 340.841C324.512 340.728 324.503 340.541 324.325 340.428L319.068 337.387C318.955 337.331 318.832 337.302 318.707 337.302C318.581 337.302 318.458 337.331 318.345 337.387L313.821 339.978C313.623 340.09 313.642 340.278 313.821 340.4L319.077 343.46ZM325.648 339.64C325.76 339.697 325.884 339.727 326.01 339.727C326.135 339.727 326.259 339.697 326.371 339.64L330.896 337.03C331.093 336.917 331.074 336.73 330.896 336.608L325.658 333.585C325.547 333.53 325.425 333.501 325.301 333.501C325.177 333.501 325.055 333.53 324.944 333.585L320.41 336.195C320.223 336.307 320.232 336.495 320.41 336.617L325.648 339.64ZM359.676 317.768C359.788 317.826 359.912 317.856 360.037 317.856C360.163 317.856 360.287 317.826 360.399 317.768L364.923 315.149C365.12 315.046 365.111 314.858 364.923 314.736L363.572 313.919C363.459 313.864 363.336 313.835 363.21 313.835C363.085 313.835 362.961 313.864 362.849 313.919L358.324 316.529C358.127 316.641 358.137 316.829 358.324 316.951L359.676 317.768ZM379.529 306.306C379.641 306.364 379.765 306.394 379.891 306.394C380.017 306.394 380.141 306.364 380.252 306.306L384.786 303.687C384.974 303.575 384.965 303.387 384.786 303.274L383.397 302.467C383.285 302.412 383.161 302.383 383.036 302.383C382.91 302.383 382.787 302.412 382.674 302.467L378.14 305.086C377.952 305.199 377.962 305.386 378.14 305.499L379.529 306.306ZM390.531 312.661C390.643 312.717 390.767 312.746 390.892 312.746C391.018 312.746 391.141 312.717 391.254 312.661L395.788 310.052C395.975 309.939 395.966 309.751 395.788 309.629L390.55 306.607C390.437 306.551 390.314 306.522 390.188 306.522C390.063 306.522 389.939 306.551 389.827 306.607L385.331 309.226C385.133 309.338 385.143 309.526 385.331 309.648L390.531 312.661ZM407.08 329.455L411.605 326.836C411.802 326.723 411.793 326.545 411.605 326.423L406.367 323.4C406.255 323.342 406.131 323.312 406.005 323.312C405.88 323.312 405.756 323.342 405.644 323.4L401.12 325.963C400.932 326.075 400.941 326.254 401.12 326.376L406.357 329.398C406.475 329.469 406.608 329.507 406.745 329.511C406.881 329.514 407.016 329.482 407.137 329.417L407.08 329.455ZM366.388 313.919C366.499 313.977 366.623 314.007 366.749 314.007C366.875 314.007 366.999 313.977 367.11 313.919L371.635 311.3C371.832 311.197 371.823 311.009 371.635 310.887L370.236 310.08C370.124 310.025 370 309.996 369.875 309.996C369.75 309.996 369.626 310.025 369.514 310.08L364.989 312.69C364.792 312.802 364.811 312.99 364.989 313.112L366.388 313.919ZM312.459 347.243C312.571 347.301 312.695 347.331 312.821 347.331C312.947 347.331 313.071 347.301 313.182 347.243L317.716 344.624C317.904 344.511 317.895 344.324 317.716 344.211L312.478 341.188C312.366 341.131 312.243 341.101 312.117 341.101C311.991 341.101 311.867 341.131 311.755 341.188L307.25 343.807C307.053 343.911 307.071 344.098 307.25 344.22L312.459 347.243Z" fill="#A57A8E" fill-opacity="0.3"/>
<path d="M341.811 386.979L386.503 361.174C387.259 360.79 388.095 360.59 388.943 360.59C389.792 360.59 390.628 360.79 391.384 361.174L417.011 375.968C418.362 376.747 418.362 378.005 417.011 378.784L372.319 404.589C371.563 404.973 370.727 405.174 369.879 405.174C369.03 405.174 368.194 404.973 367.438 404.589L341.811 389.795C340.469 389.016 340.469 387.749 341.811 386.979Z" fill="black"/>
<path d="M438.744 271.291H438.684L430.57 266.621C430.101 266.411 429.412 266.621 428.574 267.239C421.029 273.008 410.879 274.804 402.626 272.169C402.093 271.671 401.586 271.145 401.109 270.593L400.959 270.423C400.721 270.147 400.438 269.914 400.121 269.734L399.981 269.654L391.858 264.994C390.929 264.555 390.091 264.994 389.532 266.371C381.688 285.862 364.971 305.612 353.824 310.553C352.981 310.931 352.231 311.489 351.628 312.189C350.827 313.059 350.385 314.2 350.391 315.383L351.997 359.145C351.997 371.79 357.337 385.143 368.225 391.64L376.628 396.49L376.778 396.57C381.321 399.121 386.458 400.426 391.668 400.353C392.836 400.353 394.023 400.303 395.251 400.183C397.639 399.791 399.852 398.684 401.598 397.009C425.959 371.85 437.805 337.798 437.805 318.956L439.362 273.128C439.422 272.139 439.183 271.531 438.744 271.291Z" fill="#FD747C" fill-opacity="0.65"/>
<path d="M439.361 273.129L437.755 318.907C437.755 337.749 425.908 371.801 401.547 396.96C399.801 398.635 397.588 399.742 395.2 400.134C393.972 400.254 392.785 400.304 391.617 400.304C386.407 400.377 381.27 399.072 376.727 396.521L376.577 396.441L376.288 396.262C365.4 389.765 360.06 376.412 360.06 363.767L358.523 320.005C358.518 318.822 358.96 317.681 359.761 316.811C360.364 316.111 361.114 315.552 361.957 315.174C373.104 310.184 389.821 290.484 397.665 270.993C398.224 269.616 399.072 269.166 400 269.606L400.14 269.685C400.457 269.865 400.74 270.098 400.978 270.374L401.128 270.544C409.451 280.234 425.819 280.224 436.747 271.861C437.575 271.232 438.264 271.033 438.743 271.242H438.803C439.182 271.532 439.421 272.14 439.361 273.129Z" fill="#FD747C" fill-opacity="0.65"/>
<path opacity="0.4" d="M438.695 271.233C438.226 271.024 437.537 271.233 436.699 271.852C426.41 279.726 411.29 280.195 402.617 272.111C410.911 274.756 421.04 272.96 428.565 267.181C429.394 266.553 430.082 266.353 430.561 266.563L438.695 271.233Z" fill="white"/>
<path opacity="0.4" d="M399.949 269.596C399.021 269.157 398.172 269.596 397.614 270.983C389.769 290.474 373.053 310.224 361.905 315.165C361.062 315.543 360.313 316.102 359.71 316.801C359.5 317.04 359.313 317.297 359.151 317.57L351.047 312.889C351.208 312.621 351.392 312.368 351.596 312.131C351.708 312 351.828 311.877 351.955 311.761L352.095 311.622L352.234 311.492C352.696 311.082 353.217 310.745 353.781 310.494C364.929 305.554 381.646 285.803 389.49 266.312C390.049 264.935 390.887 264.496 391.815 264.935L399.949 269.596Z" fill="white"/>
<path d="M351.965 311.74C352.007 311.692 352.053 311.649 352.104 311.611L351.965 311.75C351.965 311.75 351.955 311.74 351.965 311.74Z" fill="#FD747C" fill-opacity="0.65"/>
<path opacity="0.15" d="M352.108 311.572L351.969 311.711C352.01 311.66 352.056 311.613 352.108 311.572Z" fill="black"/>
<path opacity="0.15" d="M376.747 396.511L376.598 396.441L368.195 391.581C357.306 385.084 351.967 371.731 351.967 359.086L350.36 315.324C350.343 314.462 350.583 313.614 351.049 312.889L359.153 317.569C358.693 318.294 358.457 319.137 358.474 319.994L360.081 363.757C360.081 376.401 365.42 389.705 376.308 396.252L376.598 396.431L376.747 396.511Z" fill="black"/>
<path d="M405.429 356.252L392.455 363.737L394.451 340.274C392.904 339.455 391.906 337.439 391.906 334.535C391.906 329.376 395.05 323.368 398.892 321.132C402.735 318.897 405.878 321.272 405.878 326.431C405.801 329.493 404.927 332.482 403.343 335.104L405.429 356.252Z" fill="black"/>
<path d="M405.409 356.253L393.663 349.467L392.445 363.738L405.409 356.253Z" fill="#FD747C" fill-opacity="0.23"/>
<path d="M398.933 321.132C396.388 322.599 394.183 325.673 392.945 329.066L403.434 335.104C405.018 332.482 405.892 329.493 405.969 326.431C405.939 321.272 402.806 318.897 398.933 321.132Z" fill="#FD747C" fill-opacity="0.23"/>
<path d="M151 445.894V449.786C151 454.377 153.994 458.958 160.062 462.461C169.184 467.721 182.577 469.008 193.804 466.323L204.223 472.311L212.207 470.495L217.666 473.659L217.966 480.255L220.96 481.962L228.355 482.611L233.664 485.605V489.327L240.341 493.17H257.307L263.385 489.667V485.734L209.153 458.359C211.454 456.107 212.798 453.054 212.906 449.836V445.844C212.088 442.032 208.914 440.066 203.854 437.142C191.768 430.156 172.188 430.156 160.102 437.142C154.633 440.335 151.549 441.793 151 445.894ZM167.607 441.333C169.527 440.359 171.651 439.852 173.804 439.852C175.958 439.852 178.081 440.359 180.002 441.333C183.425 443.329 183.425 446.513 180.002 448.489C178.081 449.463 175.958 449.971 173.804 449.971C171.651 449.971 169.527 449.463 167.607 448.489C164.184 446.553 164.184 443.309 167.607 441.333Z" fill="#FD747C" fill-opacity="0.4"/>
<path opacity="0.1" d="M151 445.894V449.786C151 454.377 153.994 458.958 160.062 462.461C169.184 467.721 182.577 469.008 193.804 466.323L204.223 472.311L212.207 470.495L217.666 473.659L217.966 480.255L220.96 481.962L228.355 482.611L233.664 485.605V489.327L240.341 493.17H257.307L263.385 489.667V485.734L209.153 458.359C211.454 456.107 212.798 453.054 212.906 449.836V445.844C212.088 442.032 208.914 440.066 203.854 437.142C191.768 430.156 172.188 430.156 160.102 437.142C154.633 440.335 151.549 441.793 151 445.894ZM167.607 441.333C169.527 440.359 171.651 439.852 173.804 439.852C175.958 439.852 178.081 440.359 180.002 441.333C183.425 443.329 183.425 446.513 180.002 448.489C178.081 449.463 175.958 449.971 173.804 449.971C171.651 449.971 169.527 449.463 167.607 448.489C164.184 446.553 164.184 443.309 167.607 441.333Z" fill="black"/>
<path d="M160.06 458.529C169.182 463.798 182.575 465.086 193.802 462.391L204.222 468.379L212.206 466.573L217.665 469.726L217.964 476.333L220.958 478.03L228.353 478.678L234.122 481.892L233.663 485.365L240.339 489.217H257.305L263.383 485.714L209.152 454.397C215.539 447.621 213.782 438.968 203.852 433.24C191.766 426.254 172.186 426.254 160.1 433.24C148.014 440.225 147.974 451.543 160.06 458.529ZM167.605 437.401C169.526 436.427 171.649 435.919 173.802 435.919C175.956 435.919 178.079 436.427 180 437.401C183.423 439.397 183.423 442.581 180 444.557C178.079 445.531 175.956 446.038 173.802 446.038C171.649 446.038 169.526 445.531 167.605 444.557C164.182 442.561 164.182 439.367 167.605 437.391V437.401Z" fill="#FD747C" fill-opacity="0.4"/>
<path opacity="0.3" d="M181.937 460.325C174.262 460.325 167.106 458.629 161.777 455.555C157.106 452.86 154.422 449.337 154.422 445.894C154.422 442.451 157.106 438.908 161.777 436.224C167.106 433.15 174.262 431.453 181.937 431.453C189.611 431.453 196.767 433.15 202.096 436.224C206.767 438.928 209.452 442.441 209.452 445.894C209.452 449.347 206.767 452.88 202.096 455.555C196.767 458.629 189.611 460.325 181.937 460.325ZM181.937 432.83C174.502 432.83 167.585 434.457 162.456 437.411C158.224 439.856 155.799 442.95 155.799 445.894C155.799 448.838 158.224 451.882 162.456 454.367C167.585 457.361 174.502 458.958 181.937 458.958C189.372 458.958 196.288 457.321 201.418 454.367C205.649 451.922 208.074 448.828 208.074 445.894C208.074 442.96 205.649 439.906 201.418 437.411C196.288 434.457 189.372 432.83 181.937 432.83Z" fill="black"/>
<path opacity="0.1" d="M170.797 462.522V466.514C178.382 468.163 186.239 468.108 193.801 466.354V462.422C186.234 464.152 178.378 464.186 170.797 462.522Z" fill="black"/>
<path opacity="0.1" d="M204.227 468.398V472.34L212.231 470.524V466.592L204.227 468.398Z" fill="black"/>
<path opacity="0.1" d="M217.688 469.746V473.688L217.987 480.285V476.353L217.688 469.746Z" fill="black"/>
<path opacity="0.1" d="M220.93 478.049V481.991L228.325 482.64V478.698L220.93 478.049Z" fill="black"/>
<path opacity="0.1" d="M257.269 489.236H240.312V493.178H257.269V489.236Z" fill="black"/>
<path opacity="0.15" d="M263.343 485.725V489.667L257.266 493.17V489.238L259.92 487.701V489.397L261.397 488.549V486.832L263.343 485.725Z" fill="black"/>
<path d="M261.399 486.832L259.922 487.7V489.397L261.399 488.549V486.832Z" fill="#FD747C" fill-opacity="0.4"/>
<path opacity="0.15" d="M261.4 486.832V488.548L205.781 456.432L207.248 455.574L261.4 486.832Z" fill="black"/>
<path opacity="0.15" d="M207.248 455.574V457.291L205.781 456.432L207.248 455.574Z" fill="black"/>
<defs>
<filter id="filter0_i_538_1958" x="151" y="122" width="393" height="247" filterUnits="userSpaceOnUse" color-interpolation-filters="sRGB">
<feFlood flood-opacity="0" result="BackgroundImageFix"/>
<feBlend mode="normal" in="SourceGraphic" in2="BackgroundImageFix" result="shape"/>
<feColorMatrix in="SourceAlpha" type="matrix" values="0 0 0 0 0 0 0 0 0 0 0 0 0 0 0 0 0 0 127 0" result="hardAlpha"/>
<feOffset dy="4"/>
<feGaussianBlur stdDeviation="2"/>
<feComposite in2="hardAlpha" operator="arithmetic" k2="-1" k3="1"/>
<feColorMatrix type="matrix" values="0 0 0 0 0 0 0 0 0 0 0 0 0 0 0 0 0 0 0.25 0"/>
<feBlend mode="normal" in2="shape" result="effect1_innerShadow_538_1958"/>
</filter>
</defs>
</svg>
