<svg width="500" height="500" viewBox="0 0 500 500" fill="none" xmlns="http://www.w3.org/2000/svg">
<g clip-path="url(#clip0_538_13293)">
<g filter="url(#filter0_g_538_13293)">
<rect x="57" y="45" width="427" height="263" rx="30" fill="#EED9D8" fill-opacity="0.5"/>
</g>
<path d="M87.4609 384.932C87.559 386.267 87.9697 387.559 88.6599 388.705C89.3502 389.851 90.3005 390.819 91.434 391.53L202.762 455.805C203.993 456.43 205.354 456.755 206.735 456.755C208.116 456.755 209.477 456.43 210.708 455.805L363.023 367.857C364.224 367.223 365.229 366.274 365.93 365.111C366.631 363.949 367.001 362.617 367.001 361.259C367.001 359.902 366.631 358.57 365.93 357.407C365.229 356.245 364.224 355.296 363.023 354.662L251.705 290.433C250.473 289.808 249.112 289.482 247.732 289.482C246.351 289.482 244.99 289.808 243.759 290.433L91.434 378.354C90.3029 379.062 89.354 380.027 88.6639 381.17C87.9738 382.312 87.5618 383.601 87.4609 384.932Z" fill="#CBCBCB" fill-opacity="0.65"/>
<path d="M133.391 354.109L91.4309 378.351C90.2303 378.985 89.2255 379.934 88.5245 381.097C87.8236 382.259 87.4531 383.591 87.4531 384.949C87.4531 386.306 87.8236 387.638 88.5245 388.801C89.2255 389.963 90.2303 390.912 91.4309 391.546L202.759 455.821C203.983 456.461 205.351 456.777 206.732 456.739V354.109H133.391Z" fill="white"/>
<path d="M83.7253 378.48C82.6195 377.726 81.7062 376.723 81.0592 375.552C80.4121 374.38 80.0493 373.073 80 371.736V238.882C80.0739 237.503 80.4722 236.161 81.1626 234.965C81.853 233.77 82.8159 232.754 83.973 232L236.288 144.052C237.438 143.331 238.763 142.936 240.12 142.911C241.477 142.886 242.815 143.232 243.99 143.91C245.166 144.588 246.134 145.574 246.792 146.761C247.449 147.949 247.77 149.293 247.721 150.649V283.512C247.646 284.891 247.247 286.232 246.557 287.428C245.866 288.623 244.904 289.639 243.748 290.394L91.4328 378.351C90.2483 378.976 88.9334 379.313 87.5944 379.336C86.2554 379.358 84.93 379.065 83.7253 378.48Z" fill="#F28F8F" fill-opacity="0.45"/>
<path d="M98.6445 245.058L81.1649 234.965C80.4688 236.156 80.0868 237.504 80.0547 238.883V371.737C80.104 373.074 80.4668 374.381 81.1138 375.553C81.7609 376.724 82.6742 377.727 83.78 378.481C84.9849 379.061 86.3094 379.351 87.6467 379.325C88.9839 379.3 90.2964 378.96 91.4783 378.334L108.857 368.305L98.6445 245.058Z" fill="white"/>
<path d="M87.4609 243.194V376.039C87.4609 378.572 89.241 379.599 91.434 378.333L243.749 290.394C244.905 289.639 245.868 288.623 246.558 287.428C247.248 286.232 247.647 284.891 247.722 283.512V150.658C247.722 148.126 245.942 147.098 243.749 148.364L91.434 236.313C90.2768 237.066 89.3139 238.082 88.6235 239.278C87.9331 240.474 87.5348 241.816 87.4609 243.194Z" fill="#CBCBCB" fill-opacity="0.65"/>
<path d="M91.4329 382.941L202.761 447.171C203.992 447.796 205.353 448.121 206.734 448.121C208.114 448.121 209.476 447.796 210.707 447.171L363.022 359.223C365.224 357.956 365.224 355.901 363.022 354.635L251.704 290.405C250.472 289.781 249.111 289.455 247.73 289.455C246.35 289.455 244.989 289.781 243.757 290.405L91.4329 378.354C89.2307 379.602 89.2307 381.657 91.4329 382.941Z" fill="#F28F8F" fill-opacity="0.45"/>
<path d="M93.5732 243.68L241.622 158.21C242.934 157.448 244.008 158.063 244.008 159.586V274.584C243.961 275.411 243.721 276.216 243.307 276.933C242.892 277.65 242.315 278.26 241.622 278.713L93.5732 364.184C92.2519 364.946 91.1875 364.331 91.1875 362.808V247.81C91.2316 246.982 91.4707 246.177 91.8853 245.459C92.2999 244.741 92.8782 244.132 93.5732 243.68Z" fill="black"/>
<path d="M104.353 379.479L245.74 297.816C246.356 297.504 247.037 297.342 247.727 297.342C248.417 297.342 249.098 297.504 249.714 297.816L256.953 301.991C257.193 302.073 257.401 302.227 257.548 302.433C257.696 302.638 257.775 302.885 257.775 303.138C257.775 303.391 257.696 303.638 257.548 303.844C257.401 304.049 257.193 304.204 256.953 304.285L115.538 385.939C114.923 386.251 114.242 386.414 113.552 386.414C112.862 386.414 112.181 386.251 111.565 385.939L104.353 381.773C104.114 381.692 103.905 381.538 103.758 381.332C103.611 381.126 103.531 380.879 103.531 380.626C103.531 380.373 103.611 380.127 103.758 379.921C103.905 379.715 104.114 379.561 104.353 379.479Z" fill="white"/>
<path d="M122.995 390.28L264.373 308.617C264.99 308.305 265.672 308.143 266.364 308.143C267.056 308.143 267.738 308.305 268.355 308.617L312.829 334.309C313.069 334.39 313.277 334.545 313.425 334.75C313.572 334.956 313.651 335.203 313.651 335.456C313.651 335.709 313.572 335.956 313.425 336.162C313.277 336.367 313.069 336.522 312.829 336.603L171.607 418.101C170.99 418.413 170.308 418.575 169.616 418.575C168.924 418.575 168.242 418.413 167.625 418.101L122.995 392.528C122.767 392.442 122.57 392.288 122.432 392.087C122.293 391.886 122.219 391.648 122.219 391.404C122.219 391.16 122.293 390.922 122.432 390.721C122.57 390.521 122.767 390.367 122.995 390.28Z" fill="white"/>
<path d="M249.733 345.321L254.165 342.761C254.349 342.651 254.339 342.476 254.165 342.357L249.045 339.402C248.936 339.346 248.815 339.317 248.692 339.317C248.569 339.317 248.448 339.346 248.339 339.402L243.916 341.962C243.723 342.072 243.732 342.247 243.916 342.366L249.036 345.321C249.144 345.375 249.263 345.404 249.385 345.404C249.506 345.404 249.625 345.375 249.733 345.321ZM240.998 335.227L236.575 337.787C236.383 337.888 236.392 338.072 236.575 338.191L241.695 341.146C241.805 341.202 241.926 341.231 242.049 341.231C242.172 341.231 242.293 341.202 242.402 341.146L246.834 338.586C247.017 338.476 247.008 338.292 246.834 338.182L241.705 335.227C241.595 335.171 241.474 335.142 241.351 335.142C241.228 335.142 241.107 335.171 240.998 335.227ZM226.702 343.486L219.206 347.807C219.022 347.917 219.032 348.101 219.206 348.22L224.326 351.175C224.435 351.231 224.556 351.26 224.679 351.26C224.802 351.26 224.923 351.231 225.032 351.175L232.52 346.853C232.712 346.743 232.694 346.559 232.52 346.449L227.4 343.486C227.292 343.429 227.173 343.4 227.051 343.4C226.93 343.4 226.81 343.429 226.702 343.486ZM234.529 338.962L230.107 341.522C229.914 341.632 229.923 341.816 230.107 341.926L235.227 344.88C235.336 344.937 235.457 344.966 235.58 344.966C235.703 344.966 235.824 344.937 235.933 344.88L240.365 342.32C240.548 342.21 240.539 342.036 240.365 341.916L235.236 338.898C235.127 338.841 235.005 338.812 234.882 338.812C234.76 338.812 234.638 338.841 234.529 338.898V338.962ZM217.16 348.991L212.737 351.542C212.544 351.652 212.563 351.835 212.737 351.955L217.857 354.909C217.965 354.963 218.085 354.991 218.206 354.991C218.327 354.991 218.446 354.963 218.554 354.909L222.986 352.349C223.17 352.239 223.161 352.056 222.986 351.945L217.866 348.991C217.757 348.935 217.636 348.905 217.513 348.905C217.39 348.905 217.269 348.935 217.16 348.991ZM210.737 352.725L206.314 355.285C206.121 355.386 206.14 355.57 206.314 355.689L211.434 358.644C211.543 358.7 211.665 358.729 211.787 358.729C211.91 358.729 212.031 358.7 212.141 358.644L216.573 356.084C216.756 355.974 216.747 355.79 216.573 355.68L211.397 352.661C211.288 352.605 211.167 352.575 211.044 352.575C210.921 352.575 210.8 352.605 210.691 352.661L210.737 352.725ZM230.877 364.745L235.3 362.185C235.493 362.075 235.474 361.901 235.3 361.782L230.18 358.827C230.072 358.771 229.953 358.741 229.831 358.741C229.71 358.741 229.59 358.771 229.483 358.827L225.051 361.387C224.867 361.497 224.876 361.672 225.051 361.791L230.171 364.745C230.277 364.787 230.392 364.805 230.506 364.797C230.621 364.789 230.732 364.756 230.831 364.7L230.877 364.745ZM224.399 368.48L228.831 365.92C229.015 365.819 229.006 365.635 228.831 365.516L223.711 362.562C223.602 362.505 223.481 362.476 223.358 362.476C223.235 362.476 223.114 362.505 223.005 362.562L218.582 365.122C218.389 365.232 218.408 365.415 218.582 365.525L223.702 368.48C223.807 368.522 223.92 368.539 224.033 368.531C224.146 368.523 224.255 368.49 224.353 368.434L224.399 368.48ZM217.931 372.214L222.362 369.664C222.546 369.553 222.537 369.37 222.362 369.251L217.242 366.296C217.132 366.242 217.012 366.214 216.889 366.214C216.767 366.214 216.646 366.242 216.536 366.296L212.113 368.856C211.92 368.966 211.939 369.15 212.113 369.26L217.224 372.214C217.331 372.256 217.445 372.274 217.559 372.266C217.674 372.258 217.785 372.225 217.885 372.169L217.931 372.214ZM211.508 375.949L215.939 373.398C216.123 373.288 216.114 373.104 215.939 372.985L210.819 370.031C210.71 369.974 210.589 369.945 210.466 369.945C210.343 369.945 210.222 369.974 210.113 370.031L205.69 372.581C205.498 372.692 205.507 372.875 205.69 372.994L210.81 375.949C211.01 376.014 211.228 375.997 211.416 375.903L211.508 375.949ZM243.356 349.119L247.788 346.559C247.972 346.458 247.962 346.275 247.788 346.156L242.668 343.201C242.558 343.147 242.437 343.119 242.315 343.119C242.192 343.119 242.071 343.147 241.961 343.201L237.539 345.761C237.346 345.871 237.355 346.055 237.539 346.165L242.659 349.119C242.758 349.153 242.862 349.166 242.966 349.159C243.07 349.151 243.172 349.122 243.264 349.073L243.356 349.119ZM237.392 361.048L247.265 355.34C247.449 355.239 247.439 355.056 247.265 354.937L234.832 347.761C234.723 347.705 234.602 347.676 234.479 347.676C234.356 347.676 234.235 347.705 234.126 347.761L229.024 350.716C228.831 350.817 228.85 351 229.024 351.12L235.612 354.918C235.814 355.038 235.823 355.221 235.612 355.331L231.455 357.588C231.272 357.689 231.281 357.873 231.455 357.992L236.594 360.919C236.699 360.983 236.818 361.02 236.941 361.028C237.064 361.036 237.187 361.014 237.3 360.965L237.392 361.048ZM204.314 356.46L199.891 359.02C199.699 359.13 199.708 359.304 199.891 359.424L205.011 362.378C205.12 362.434 205.242 362.464 205.365 362.464C205.487 362.464 205.609 362.434 205.718 362.378L210.15 359.818C210.333 359.708 210.324 359.534 210.15 359.414L205.03 356.46C204.912 356.378 204.775 356.331 204.632 356.322C204.49 356.314 204.348 356.346 204.222 356.414L204.314 356.46ZM197.891 360.194L193.322 362.754C193.138 362.864 193.147 363.048 193.322 363.158L198.441 366.113C198.551 366.169 198.672 366.198 198.795 366.198C198.918 366.198 199.039 366.169 199.148 366.113L203.58 363.553C203.763 363.452 203.754 363.268 203.58 363.149L198.423 360.167C198.32 360.114 198.206 360.084 198.09 360.081C197.974 360.078 197.859 360.101 197.753 360.148L197.891 360.194ZM165.391 402.035C165.5 402.091 165.621 402.121 165.744 402.121C165.867 402.121 165.988 402.091 166.097 402.035L170.529 399.475C170.713 399.374 170.704 399.191 170.529 399.071L165.391 396.135C165.282 396.079 165.161 396.05 165.038 396.05C164.915 396.05 164.794 396.079 164.684 396.135L160.262 398.695C160.069 398.805 160.078 398.989 160.262 399.099L165.391 402.035ZM145.966 390.033L141.534 392.593C141.351 392.704 141.36 392.878 141.534 392.997L146.654 395.952C146.764 396.008 146.885 396.037 147.008 396.037C147.13 396.037 147.252 396.008 147.361 395.952L151.793 393.392C151.976 393.282 151.967 393.107 151.793 392.988L146.673 390.033C146.567 389.982 146.451 389.955 146.333 389.955C146.215 389.955 146.099 389.982 145.994 390.033H145.966ZM156.38 398.796C156.49 398.853 156.611 398.882 156.734 398.882C156.857 398.882 156.978 398.853 157.087 398.796L161.51 396.236C161.702 396.135 161.684 395.952 161.51 395.832L156.399 392.878C156.29 392.822 156.168 392.792 156.046 392.792C155.923 392.792 155.801 392.822 155.692 392.878L151.26 395.438C151.077 395.548 151.086 395.732 151.26 395.842L156.38 398.796ZM176.815 404.302L181.246 401.742C181.43 401.631 181.421 401.457 181.246 401.338L176.126 398.383C176.017 398.327 175.896 398.298 175.773 398.298C175.65 398.298 175.529 398.327 175.42 398.383L170.997 400.943C170.805 401.044 170.823 401.228 170.997 401.347L176.108 404.302C176.22 404.364 176.346 404.398 176.474 404.399C176.602 404.401 176.729 404.37 176.842 404.311L176.815 404.302ZM169.639 407.972C169.748 408.028 169.87 408.058 169.992 408.058C170.115 408.058 170.236 408.028 170.346 407.972L174.778 405.412C174.961 405.311 174.952 405.127 174.778 405.008L169.658 402.054C169.548 401.997 169.427 401.968 169.304 401.968C169.181 401.968 169.06 401.997 168.951 402.054L164.528 404.614C164.336 404.724 164.345 404.907 164.528 405.017L169.639 407.972ZM152.435 386.244L148.012 388.804C147.82 388.905 147.829 389.088 148.012 389.208L153.132 392.162C153.241 392.219 153.363 392.248 153.486 392.248C153.608 392.248 153.73 392.219 153.839 392.162L158.271 389.602C158.454 389.492 158.445 389.309 158.271 389.198L153.151 386.244C153.04 386.199 152.919 386.181 152.8 386.19C152.681 386.2 152.565 386.237 152.462 386.299L152.435 386.244ZM184.788 367.572L180.356 370.122C180.173 370.232 180.182 370.416 180.356 370.526L185.476 373.49C185.586 373.544 185.707 373.572 185.83 373.572C185.952 373.572 186.073 373.544 186.183 373.49L190.606 370.939C190.798 370.829 190.789 370.645 190.606 370.526L185.486 367.572C185.377 367.53 185.26 367.513 185.144 367.522C185.028 367.532 184.916 367.567 184.816 367.627L184.788 367.572ZM158.968 382.564L154.545 385.115C154.353 385.225 154.362 385.409 154.545 385.528L159.665 388.483C159.775 388.537 159.896 388.565 160.019 388.565C160.141 388.565 160.262 388.537 160.372 388.483L164.804 385.923C164.987 385.813 164.978 385.629 164.804 385.519L159.684 382.555C159.572 382.501 159.449 382.474 159.325 382.475C159.2 382.477 159.078 382.507 158.968 382.564ZM191.321 363.883L186.853 366.425C186.669 366.535 186.678 366.718 186.853 366.828L191.973 369.783C192.082 369.839 192.203 369.869 192.326 369.869C192.449 369.869 192.57 369.839 192.679 369.783L197.102 367.232C197.295 367.122 197.285 366.938 197.102 366.819L192 363.901C191.891 363.843 191.769 363.811 191.645 363.807C191.52 363.804 191.397 363.83 191.285 363.883H191.321ZM178.384 371.361L173.952 373.912C173.768 374.022 173.777 374.205 173.952 374.325L179.072 377.279C179.182 377.334 179.302 377.362 179.425 377.362C179.548 377.362 179.668 377.334 179.778 377.279L184.201 374.729C184.394 374.618 184.375 374.435 184.201 374.316L179.09 371.361C178.976 371.301 178.848 371.269 178.718 371.269C178.589 371.269 178.461 371.301 178.347 371.361H178.384ZM171.906 375.096L167.483 377.646C167.29 377.756 167.309 377.94 167.483 378.059L172.603 381.014C172.713 381.068 172.834 381.096 172.956 381.096C173.079 381.096 173.2 381.068 173.309 381.014L177.732 378.463C177.916 378.353 177.906 378.169 177.732 378.05L172.612 375.096C172.498 375.035 172.37 375.004 172.24 375.004C172.111 375.004 171.983 375.035 171.869 375.096H171.906ZM165.391 378.83L160.968 381.381C160.776 381.491 160.794 381.674 160.968 381.794L166.079 384.748C166.188 384.805 166.309 384.834 166.432 384.834C166.555 384.834 166.676 384.805 166.786 384.748L171.217 382.197C171.401 382.087 171.392 381.904 171.217 381.785L166.097 378.83C165.988 378.776 165.867 378.748 165.744 378.748C165.622 378.748 165.501 378.776 165.391 378.83ZM198.469 383.418L202.892 380.867C203.084 380.757 203.075 380.573 202.892 380.454L197.762 377.435C197.653 377.381 197.532 377.353 197.409 377.353C197.287 377.353 197.166 377.381 197.056 377.435L192.624 379.986C192.441 380.096 192.45 380.28 192.624 380.399L197.744 383.354C197.855 383.417 197.981 383.453 198.109 383.456C198.237 383.459 198.364 383.43 198.478 383.372L198.469 383.418ZM255.312 326.969L250.88 329.529C250.697 329.639 250.706 329.814 250.88 329.933L256 332.888C256.109 332.944 256.231 332.973 256.353 332.973C256.476 332.973 256.597 332.944 256.707 332.888L261.129 330.328C261.322 330.218 261.313 330.043 261.129 329.924L256.009 326.969C255.901 326.915 255.782 326.886 255.661 326.886C255.54 326.886 255.42 326.915 255.312 326.969ZM247.476 331.493L243.053 334.053C242.861 334.154 242.879 334.337 243.053 334.457L248.164 337.411C248.274 337.465 248.395 337.494 248.517 337.494C248.64 337.494 248.761 337.465 248.871 337.411L253.303 334.851C253.486 334.741 253.477 334.558 253.303 334.448L248.183 331.493C248.076 331.428 247.955 331.39 247.83 331.382C247.706 331.374 247.581 331.396 247.467 331.447L247.476 331.493ZM261.781 323.235L257.358 325.795C257.166 325.896 257.175 326.079 257.358 326.199L262.478 329.153C262.587 329.21 262.709 329.239 262.831 329.239C262.954 329.239 263.075 329.21 263.185 329.153L267.617 326.593C267.8 326.483 267.791 326.3 267.617 326.189L262.497 323.235C262.384 323.162 262.255 323.119 262.122 323.111C261.988 323.103 261.855 323.13 261.735 323.189L261.781 323.235ZM228.29 357.772L232.722 355.212C232.905 355.102 232.896 354.918 232.722 354.808L227.602 351.854C227.492 351.797 227.371 351.768 227.248 351.768C227.125 351.768 227.004 351.797 226.895 351.854L222.472 354.414C222.28 354.515 222.289 354.698 222.472 354.817L227.592 357.772C227.703 357.818 227.823 357.838 227.942 357.83C228.061 357.822 228.177 357.787 228.281 357.726L228.29 357.772ZM268.956 319.519C268.847 319.462 268.726 319.433 268.603 319.433C268.48 319.433 268.359 319.462 268.25 319.519L263.827 322.079C263.634 322.18 263.643 322.363 263.827 322.482L268.947 325.437C269.057 325.491 269.178 325.519 269.3 325.519C269.423 325.519 269.544 325.491 269.654 325.437L274.085 322.877C274.269 322.767 274.26 322.583 274.085 322.473L268.956 319.519ZM204.947 379.637L209.379 377.087C209.562 376.977 209.553 376.793 209.379 376.674L204.231 373.765C204.122 373.709 204.001 373.679 203.878 373.679C203.755 373.679 203.634 373.709 203.525 373.765L199.102 376.316C198.909 376.426 198.919 376.61 199.102 376.729L204.222 379.683C204.338 379.734 204.464 379.756 204.59 379.748C204.716 379.74 204.838 379.702 204.947 379.637ZM284.289 333.833L288.72 331.273C288.904 331.172 288.895 330.988 288.72 330.869L283.573 327.887C283.464 327.831 283.343 327.801 283.22 327.801C283.097 327.801 282.976 327.831 282.866 327.887L278.444 330.447C278.251 330.557 278.26 330.741 278.444 330.851L283.564 333.805C283.673 333.869 283.796 333.905 283.923 333.91C284.049 333.914 284.175 333.888 284.289 333.833ZM270.525 333.346L274.957 330.786C275.141 330.676 275.131 330.502 274.957 330.383L269.837 327.428C269.728 327.372 269.607 327.342 269.484 327.342C269.361 327.342 269.24 327.372 269.131 327.428L264.708 329.988C264.515 330.098 264.524 330.273 264.708 330.392L269.828 333.346C269.93 333.406 270.044 333.44 270.162 333.448C270.28 333.456 270.398 333.437 270.507 333.392L270.525 333.346ZM276.278 323.694C276.169 323.637 276.048 323.608 275.925 323.608C275.802 323.608 275.681 323.637 275.572 323.694L271.149 326.254C270.956 326.355 270.966 326.538 271.149 326.657L276.269 329.612C276.378 329.668 276.5 329.698 276.622 329.698C276.745 329.698 276.866 329.668 276.976 329.612L281.408 327.052C281.591 326.942 281.582 326.758 281.408 326.648L276.278 323.694ZM277.645 322.905L290.069 330.08C290.179 330.136 290.3 330.166 290.423 330.166C290.545 330.166 290.667 330.136 290.776 330.08L295.208 327.52C295.391 327.41 295.382 327.235 295.208 327.116L282.775 319.941C282.665 319.885 282.544 319.855 282.421 319.855C282.299 319.855 282.177 319.885 282.068 319.941L277.645 322.501C277.407 322.602 277.425 322.785 277.627 322.905H277.645ZM262.634 331.163L258.202 333.723C258.019 333.833 258.028 334.016 258.202 334.126L263.322 337.081C263.432 337.137 263.553 337.167 263.676 337.167C263.798 337.167 263.92 337.137 264.029 337.081L268.452 334.521C268.644 334.42 268.635 334.236 268.452 334.117L263.332 331.163C263.227 331.108 263.112 331.078 262.994 331.075C262.876 331.071 262.76 331.095 262.653 331.144L262.634 331.163ZM213.939 359.277L209.489 361.837C209.305 361.947 209.315 362.13 209.489 362.24L214.609 365.195C214.718 365.251 214.839 365.281 214.962 365.281C215.085 365.281 215.206 365.251 215.315 365.195L219.738 362.635C219.931 362.534 219.922 362.351 219.738 362.231L214.618 359.277C214.512 359.219 214.393 359.187 214.272 359.184C214.15 359.181 214.03 359.206 213.921 359.258L213.939 359.277ZM277.132 337.567C277.241 337.624 277.362 337.653 277.485 337.653C277.608 337.653 277.729 337.624 277.838 337.567L282.27 335.007C282.454 334.906 282.444 334.723 282.27 334.604L277.15 331.649C277.04 331.595 276.919 331.567 276.797 331.567C276.674 331.567 276.553 331.595 276.443 331.649L272.021 334.209C271.828 334.319 271.837 334.503 272.021 334.613L277.132 337.567ZM220.408 355.542L215.985 358.102C215.793 358.212 215.802 358.387 215.985 358.506L221.105 361.461C221.215 361.517 221.336 361.546 221.459 361.546C221.581 361.546 221.703 361.517 221.812 361.461L226.244 358.901C226.427 358.79 226.418 358.616 226.244 358.497L221.124 355.542C221.012 355.478 220.887 355.443 220.759 355.44C220.631 355.437 220.504 355.466 220.39 355.524L220.408 355.542ZM171.906 398.319C172.015 398.375 172.136 398.405 172.259 398.405C172.382 398.405 172.503 398.375 172.612 398.319L177.044 395.759C177.227 395.649 177.218 395.475 177.044 395.355L171.924 392.401C171.815 392.344 171.694 392.315 171.571 392.315C171.448 392.315 171.327 392.344 171.217 392.401L166.795 394.961C166.602 395.071 166.62 395.245 166.795 395.365L171.906 398.319ZM162.179 389.143L157.748 391.703C157.564 391.814 157.573 391.988 157.748 392.107L162.868 395.062C162.977 395.118 163.098 395.147 163.221 395.147C163.344 395.147 163.465 395.118 163.574 395.062L167.997 392.502C168.189 392.392 168.18 392.217 167.997 392.098L162.877 389.143C162.766 389.086 162.644 389.055 162.519 389.055C162.394 389.055 162.271 389.086 162.161 389.143H162.179ZM179.09 394.585L183.513 392.025C183.696 391.914 183.687 391.731 183.513 391.621L178.393 388.666C178.284 388.61 178.162 388.581 178.04 388.581C177.917 388.581 177.795 388.61 177.686 388.666L173.218 391.199C173.034 391.3 173.043 391.483 173.218 391.602L178.338 394.557C178.448 394.622 178.573 394.659 178.701 394.664C178.829 394.669 178.957 394.641 179.072 394.585H179.09ZM185.559 390.85L189.982 388.29C190.174 388.18 190.156 387.996 189.982 387.886L184.871 384.932C184.762 384.875 184.64 384.846 184.517 384.846C184.395 384.846 184.273 384.875 184.164 384.932L179.732 387.483C179.549 387.593 179.558 387.776 179.732 387.896L184.852 390.85C184.965 390.907 185.089 390.937 185.215 390.937C185.341 390.937 185.465 390.907 185.577 390.85H185.559ZM191.982 387.106L196.405 384.556C196.597 384.446 196.588 384.262 196.405 384.152L191.285 381.188C191.175 381.134 191.054 381.106 190.931 381.106C190.809 381.106 190.688 381.134 190.578 381.188L186.146 383.739C185.963 383.849 185.972 384.033 186.146 384.152L191.266 387.106C191.379 387.167 191.505 387.199 191.633 387.199C191.761 387.199 191.887 387.167 192 387.106H191.982ZM168.602 385.409L164.171 387.969C163.987 388.07 163.996 388.253 164.171 388.373L169.291 391.327C169.4 391.384 169.521 391.413 169.644 391.413C169.767 391.413 169.888 391.384 169.997 391.327L174.429 388.767C174.612 388.657 174.603 388.474 174.429 388.363L169.309 385.409C169.203 385.357 169.087 385.33 168.969 385.33C168.852 385.33 168.736 385.357 168.63 385.409H168.602ZM175.071 381.674L170.649 384.225C170.456 384.335 170.465 384.519 170.649 384.638L175.769 387.593C175.878 387.647 175.999 387.675 176.122 387.675C176.244 387.675 176.365 387.647 176.475 387.593L180.989 385.051C181.173 384.941 181.164 384.757 180.989 384.647L175.869 381.693C175.754 381.622 175.622 381.584 175.487 381.58C175.351 381.577 175.217 381.61 175.099 381.674H175.071ZM200.956 366.737L196.588 369.287C196.405 369.397 196.414 369.581 196.588 369.7L201.708 372.655C201.818 372.709 201.939 372.737 202.061 372.737C202.184 372.737 202.305 372.709 202.415 372.655L206.837 370.104C207.03 369.994 207.012 369.81 206.837 369.691L201.726 366.737C201.613 366.674 201.485 366.641 201.355 366.641C201.225 366.641 201.097 366.674 200.983 366.737H200.956ZM194.478 370.471L190.055 373.022C189.871 373.132 189.881 373.315 190.055 373.435L195.175 376.389C195.285 376.444 195.406 376.472 195.528 376.472C195.651 376.472 195.772 376.444 195.881 376.389L200.304 373.838C200.497 373.728 200.478 373.545 200.304 373.426L195.184 370.471C195.078 370.421 194.962 370.395 194.845 370.395C194.727 370.395 194.611 370.421 194.505 370.471H194.478ZM207.424 362.993L203.011 365.553C202.827 365.663 202.837 365.846 203.011 365.957L208.131 368.92C208.241 368.975 208.362 369.003 208.484 369.003C208.607 369.003 208.728 368.975 208.837 368.92L213.26 366.36C213.453 366.259 213.444 366.076 213.26 365.957L208.14 363.002C208.033 362.949 207.916 362.921 207.797 362.92C207.678 362.918 207.56 362.943 207.452 362.993H207.424ZM181.54 377.94L177.117 380.491C176.925 380.601 176.934 380.784 177.117 380.904L182.237 383.858C182.347 383.912 182.468 383.941 182.591 383.941C182.713 383.941 182.834 383.912 182.944 383.858L187.376 381.298C187.559 381.188 187.55 381.005 187.376 380.895L182.256 377.931C182.148 377.881 182.03 377.856 181.911 377.857C181.791 377.859 181.674 377.887 181.568 377.94H181.54ZM188.009 374.206L183.586 376.756C183.393 376.866 183.412 377.05 183.586 377.169L188.706 380.124C188.814 380.18 188.933 380.209 189.055 380.209C189.176 380.209 189.296 380.18 189.404 380.124L193.835 377.573C194.019 377.463 194.01 377.279 193.835 377.16L188.715 374.206C188.609 374.156 188.493 374.13 188.376 374.13C188.258 374.13 188.143 374.156 188.036 374.206H188.009ZM183.293 400.576L187.715 398.016C187.899 397.906 187.89 397.723 187.715 397.613L182.595 394.658C182.486 394.602 182.365 394.572 182.242 394.572C182.119 394.572 181.998 394.602 181.889 394.658L177.466 397.218C177.273 397.319 177.292 397.502 177.466 397.622L182.586 400.576C182.699 400.637 182.825 400.669 182.953 400.669C183.081 400.669 183.207 400.637 183.32 400.576H183.293ZM145.351 396.704L140.231 393.75C140.122 393.693 140.001 393.664 139.878 393.664C139.755 393.664 139.634 393.693 139.525 393.75L135.111 396.328C134.928 396.438 134.937 396.612 135.111 396.732L140.231 399.686C140.341 399.743 140.462 399.772 140.585 399.772C140.707 399.772 140.829 399.743 140.938 399.686L145.361 397.126C145.562 397.044 145.553 396.86 145.351 396.704ZM155.041 399.549L149.921 396.594C149.813 396.54 149.693 396.512 149.572 396.512C149.451 396.512 149.332 396.54 149.223 396.594L142.452 400.549C142.268 400.659 142.278 400.842 142.452 400.952L147.572 403.907C147.681 403.963 147.802 403.993 147.925 403.993C148.048 403.993 148.169 403.963 148.278 403.907L155.087 399.98C155.298 399.888 155.243 399.705 155.041 399.585V399.549ZM137.497 390.988L132.359 388.07C132.249 388.014 132.128 387.984 132.005 387.984C131.882 387.984 131.761 388.014 131.652 388.07L126.22 391.199C126.037 391.309 126.046 391.492 126.22 391.612L131.34 394.566C131.449 394.623 131.571 394.652 131.693 394.652C131.816 394.652 131.937 394.623 132.047 394.566L137.488 391.428C137.708 391.327 137.699 391.144 137.497 391.024V390.988ZM141.672 388.575C141.781 388.631 141.902 388.66 142.025 388.66C142.148 388.66 142.269 388.631 142.378 388.575L146.801 386.015C146.994 385.914 146.985 385.73 146.801 385.611L141.681 382.656C141.572 382.6 141.451 382.571 141.328 382.571C141.205 382.571 141.084 382.6 140.975 382.656L136.543 385.216C136.359 385.326 136.368 385.51 136.543 385.62L141.672 388.575ZM164.06 402.788L158.968 399.87C158.858 399.816 158.737 399.787 158.615 399.787C158.492 399.787 158.371 399.816 158.261 399.87L149.746 404.788C149.563 404.898 149.572 405.081 149.746 405.192L154.866 408.155C154.976 408.21 155.097 408.238 155.22 408.238C155.342 408.238 155.463 408.21 155.573 408.155L164.088 403.237C164.271 403.127 164.262 402.944 164.06 402.824V402.788ZM168.309 408.779L163.189 405.88C163.08 405.823 162.958 405.794 162.835 405.794C162.713 405.794 162.591 405.823 162.482 405.88L157.032 409.027C156.848 409.137 156.858 409.321 157.032 409.44L162.152 412.394C162.262 412.449 162.383 412.477 162.505 412.477C162.628 412.477 162.749 412.449 162.858 412.394L168.309 409.247C168.52 409.119 168.511 408.935 168.309 408.816V408.779ZM189.78 360.8C189.889 360.856 190.01 360.886 190.133 360.886C190.256 360.886 190.377 360.856 190.486 360.8L194.909 358.249C195.102 358.139 195.083 357.955 194.909 357.836L189.789 354.882C189.679 354.827 189.558 354.799 189.436 354.799C189.313 354.799 189.192 354.827 189.082 354.882L184.66 357.478C184.476 357.588 184.485 357.772 184.66 357.882L189.78 360.8ZM176.833 368.278C176.943 368.332 177.064 368.36 177.186 368.36C177.309 368.36 177.43 368.332 177.539 368.278L181.971 365.727C182.155 365.617 182.146 365.434 181.971 365.314L176.851 362.36C176.741 362.306 176.621 362.277 176.498 362.277C176.375 362.277 176.255 362.306 176.145 362.36L171.722 364.911C171.529 365.021 171.548 365.204 171.722 365.323L176.833 368.278ZM148.141 384.877C148.25 384.933 148.371 384.962 148.494 384.962C148.617 384.962 148.738 384.933 148.847 384.877L153.27 382.317C153.463 382.207 153.453 382.032 153.27 381.913L148.15 378.958C148.041 378.902 147.92 378.873 147.797 378.873C147.674 378.873 147.553 378.902 147.443 378.958L143.012 381.518C142.828 381.629 142.837 381.803 143.012 381.922L148.141 384.877ZM183.311 364.589C183.419 364.644 183.539 364.672 183.66 364.672C183.781 364.672 183.9 364.644 184.008 364.589L188.44 362.039C188.624 361.929 188.614 361.745 188.44 361.626L183.32 358.671C183.211 358.615 183.09 358.585 182.967 358.585C182.844 358.585 182.723 358.615 182.614 358.671L178.191 361.222C177.998 361.332 178.017 361.516 178.191 361.635L183.311 364.589ZM170.364 372.058C170.473 372.115 170.594 372.144 170.717 372.144C170.84 372.144 170.961 372.115 171.071 372.058L175.502 369.508C175.686 369.397 175.677 369.214 175.502 369.095L170.382 366.14C170.273 366.086 170.152 366.058 170.029 366.058C169.907 366.058 169.786 366.086 169.676 366.14L165.253 368.691C165.061 368.801 165.07 368.985 165.253 369.104L170.364 372.058ZM171.86 409.302C171.75 409.248 171.629 409.22 171.506 409.22C171.384 409.22 171.263 409.248 171.153 409.302L164.345 413.22C164.161 413.33 164.171 413.514 164.345 413.633L169.465 416.588C169.574 416.644 169.695 416.673 169.818 416.673C169.941 416.673 170.062 416.644 170.171 416.588L176.98 412.661C177.172 412.55 177.154 412.367 176.98 412.248L171.86 409.302ZM161.078 377.435C161.188 377.49 161.309 377.518 161.432 377.518C161.554 377.518 161.675 377.49 161.785 377.435L166.217 374.875C166.4 374.765 166.391 374.582 166.217 374.472L161.097 371.517C160.987 371.461 160.866 371.431 160.743 371.431C160.621 371.431 160.499 371.461 160.39 371.517L155.968 374.077C155.775 374.178 155.784 374.361 155.968 374.481L161.078 377.435ZM154.61 381.106C154.719 381.162 154.84 381.191 154.963 381.191C155.086 381.191 155.207 381.162 155.316 381.106L159.748 378.546C159.931 378.435 159.922 378.252 159.748 378.142L154.628 375.187C154.519 375.131 154.398 375.102 154.275 375.102C154.152 375.102 154.031 375.131 153.921 375.187L149.499 377.747C149.306 377.848 149.315 378.032 149.499 378.151L154.61 381.106ZM291.73 340.091C291.621 340.034 291.5 340.005 291.377 340.005C291.254 340.005 291.133 340.034 291.024 340.091L280.086 346.367C279.903 346.477 279.912 346.66 280.086 346.78L285.206 349.734C285.316 349.788 285.437 349.817 285.559 349.817C285.682 349.817 285.803 349.788 285.913 349.734L296.868 343.486C297.061 343.375 297.052 343.192 296.868 343.073L291.73 340.091ZM277.425 348.349C277.316 348.292 277.195 348.263 277.072 348.263C276.949 348.263 276.828 348.292 276.719 348.349L272.296 350.899C272.103 351.01 272.113 351.193 272.296 351.312L277.416 354.267C277.526 354.321 277.647 354.349 277.769 354.349C277.892 354.349 278.013 354.321 278.123 354.267L282.554 351.716C282.738 351.606 282.729 351.422 282.554 351.303L277.425 348.349ZM189.789 396.842L194.212 394.282C194.404 394.172 194.386 393.988 194.212 393.878L189.101 390.914C188.991 390.86 188.87 390.832 188.747 390.832C188.625 390.832 188.504 390.86 188.394 390.914L183.962 393.465C183.779 393.575 183.788 393.759 183.962 393.878L189.082 396.833C189.192 396.888 189.312 396.918 189.435 396.92C189.557 396.921 189.678 396.895 189.789 396.842ZM264.488 355.818C264.378 355.763 264.257 355.735 264.134 355.735C264.012 355.735 263.891 355.763 263.781 355.818L259.349 358.368C259.166 358.478 259.175 358.662 259.349 358.781L264.469 361.736C264.579 361.792 264.7 361.822 264.823 361.822C264.945 361.822 265.067 361.792 265.176 361.736L269.598 359.185C269.791 359.075 269.782 358.891 269.598 358.772L264.488 355.818ZM298.199 336.356C298.089 336.302 297.968 336.274 297.846 336.274C297.723 336.274 297.602 336.302 297.492 336.356L293.07 338.898C292.877 339.008 292.886 339.191 293.07 339.301L298.19 342.265C298.3 342.319 298.42 342.348 298.543 342.348C298.665 342.348 298.786 342.319 298.896 342.265L303.328 339.714C303.512 339.604 303.502 339.421 303.328 339.301L298.199 336.356ZM309.788 335.576L297.355 328.401C297.245 328.344 297.124 328.315 297.001 328.315C296.879 328.315 296.757 328.344 296.648 328.401L292.226 330.961C292.033 331.071 292.042 331.254 292.226 331.365L304.659 338.54C304.768 338.596 304.889 338.626 305.012 338.626C305.135 338.626 305.256 338.596 305.365 338.54L309.797 335.98C309.999 335.879 309.99 335.695 309.788 335.576ZM240.31 369.783C240.201 369.727 240.08 369.697 239.957 369.697C239.834 369.697 239.713 369.727 239.603 369.783L234.153 372.93C233.97 373.04 233.979 373.224 234.153 373.334L239.273 376.288C239.382 376.345 239.503 376.374 239.626 376.374C239.749 376.374 239.87 376.345 239.98 376.288L245.43 373.141C245.613 373.031 245.604 372.848 245.43 372.737L240.31 369.783ZM256.652 360.341C256.542 360.285 256.421 360.255 256.298 360.255C256.176 360.255 256.054 360.285 255.945 360.341L249.137 364.268C248.953 364.378 248.962 364.562 249.137 364.672L254.257 367.636C254.367 367.69 254.488 367.718 254.61 367.718C254.733 367.718 254.853 367.69 254.963 367.636L261.772 363.709C261.955 363.598 261.946 363.415 261.772 363.296L256.652 360.341ZM225.326 378.426C225.216 378.372 225.095 378.344 224.973 378.344C224.85 378.344 224.729 378.372 224.62 378.426L188.183 399.457C188 399.567 188.009 399.75 188.183 399.87L193.303 402.824C193.413 402.879 193.534 402.907 193.656 402.907C193.779 402.907 193.9 402.879 194.01 402.824L230.446 381.785C230.63 381.674 230.62 381.491 230.446 381.372L225.326 378.426ZM186.844 400.65C186.734 400.593 186.613 400.564 186.49 400.564C186.367 400.564 186.246 400.593 186.137 400.65L180.696 403.797C180.503 403.907 180.512 404.091 180.696 404.201L185.816 407.155C185.925 407.212 186.046 407.241 186.169 407.241C186.292 407.241 186.413 407.212 186.522 407.155L192 404.045C192.184 403.935 192.175 403.751 192 403.641L186.844 400.65ZM232.813 374.105C232.704 374.05 232.583 374.022 232.46 374.022C232.338 374.022 232.217 374.05 232.107 374.105L226.666 377.252C226.473 377.362 226.482 377.545 226.666 377.665L231.786 380.619C231.896 380.673 232.016 380.702 232.139 380.702C232.261 380.702 232.382 380.673 232.492 380.619L237.943 377.472C238.135 377.371 238.117 377.188 237.943 377.068L232.813 374.105ZM179.356 404.962C179.246 404.908 179.125 404.88 179.003 404.88C178.88 404.88 178.76 404.908 178.65 404.962L173.199 408.109C173.016 408.22 173.025 408.403 173.199 408.522L178.319 411.477C178.429 411.531 178.55 411.559 178.673 411.559C178.795 411.559 178.916 411.531 179.026 411.477L184.467 408.339C184.66 408.229 184.651 408.045 184.467 407.926L179.356 404.962ZM247.797 365.443C247.687 365.389 247.566 365.36 247.444 365.36C247.321 365.36 247.201 365.389 247.091 365.443L241.649 368.581C241.457 368.691 241.466 368.874 241.649 368.994L246.77 371.948C246.879 372.003 247 372.031 247.123 372.031C247.245 372.031 247.366 372.003 247.476 371.948L252.926 368.801C253.119 368.691 253.101 368.507 252.926 368.388L247.797 365.443ZM270.956 352.074C270.847 352.018 270.726 351.988 270.603 351.988C270.48 351.988 270.359 352.018 270.25 352.074L265.827 354.625C265.635 354.735 265.644 354.918 265.827 355.038L270.947 357.992C271.057 358.046 271.178 358.075 271.301 358.075C271.423 358.075 271.544 358.046 271.654 357.992L276.086 355.441C276.269 355.331 276.26 355.148 276.086 355.028L270.956 352.074ZM285.133 341.779L289.555 339.228C289.748 339.118 289.739 338.934 289.555 338.815L284.435 335.861C284.326 335.806 284.205 335.778 284.082 335.778C283.96 335.778 283.839 335.806 283.729 335.861L279.297 338.421C279.114 338.531 279.123 338.714 279.297 338.824L284.417 341.788C284.528 341.844 284.651 341.873 284.775 341.873C284.899 341.873 285.022 341.844 285.133 341.788V341.779ZM256.23 341.65L260.661 339.09C260.845 338.98 260.836 338.797 260.661 338.687L255.541 335.732C255.432 335.676 255.311 335.646 255.188 335.646C255.065 335.646 254.944 335.676 254.835 335.732L250.412 338.292C250.22 338.402 250.238 338.577 250.412 338.696L255.523 341.65C255.632 341.707 255.753 341.736 255.876 341.736C255.999 341.736 256.12 341.707 256.23 341.65ZM241.549 367.003L254.486 359.534C254.67 359.424 254.661 359.24 254.486 359.121L249.366 356.166C249.256 356.112 249.135 356.084 249.013 356.084C248.89 356.084 248.77 356.112 248.66 356.166L235.722 363.644C235.539 363.745 235.548 363.929 235.722 364.048L240.842 367.003C240.955 367.052 241.078 367.074 241.201 367.066C241.324 367.058 241.443 367.02 241.549 366.957V367.003ZM277.957 345.559C278.067 345.613 278.188 345.642 278.311 345.642C278.433 345.642 278.554 345.613 278.664 345.559L283.087 343.008C283.279 342.898 283.27 342.715 283.087 342.595L277.967 339.641C277.857 339.585 277.736 339.555 277.613 339.555C277.49 339.555 277.369 339.585 277.26 339.641L272.828 342.192C272.645 342.302 272.654 342.485 272.828 342.605L277.957 345.559ZM271.351 341.348L275.774 338.797C275.966 338.687 275.957 338.503 275.774 338.384L270.654 335.429C270.544 335.375 270.423 335.347 270.3 335.347C270.178 335.347 270.057 335.375 269.947 335.429L265.515 337.989C265.332 338.099 265.341 338.283 265.515 338.393L270.635 341.357C270.751 341.404 270.875 341.424 271 341.414C271.124 341.405 271.244 341.366 271.351 341.302V341.348ZM235.08 370.71L239.502 368.15C239.695 368.039 239.677 367.865 239.502 367.746L234.382 364.791C234.273 364.735 234.152 364.706 234.029 364.706C233.906 364.706 233.785 364.735 233.676 364.791L229.226 367.342C229.033 367.452 229.051 367.627 229.226 367.746L234.346 370.7C234.465 370.768 234.6 370.803 234.737 370.802C234.874 370.8 235.008 370.762 235.126 370.691L235.08 370.71ZM263.653 353.79C263.763 353.844 263.883 353.872 264.006 353.872C264.128 353.872 264.249 353.844 264.359 353.79L268.791 351.239C268.975 351.129 268.965 350.945 268.791 350.826L263.671 347.871C263.561 347.817 263.44 347.789 263.318 347.789C263.195 347.789 263.074 347.817 262.964 347.871L258.542 350.431C258.349 350.542 258.358 350.725 258.542 350.835L263.653 353.79ZM202.727 389.364L207.149 386.813C207.342 386.703 207.333 386.519 207.149 386.4L202.029 383.445C201.919 383.391 201.798 383.363 201.676 383.363C201.553 383.363 201.433 383.391 201.323 383.445L196.891 385.996C196.707 386.106 196.716 386.29 196.891 386.409L202.011 389.364C202.122 389.419 202.244 389.448 202.369 389.448C202.493 389.448 202.615 389.419 202.727 389.364ZM209.195 385.629L213.627 383.078C213.811 382.968 213.801 382.785 213.627 382.665L208.516 379.711C208.407 379.655 208.286 379.625 208.163 379.625C208.04 379.625 207.919 379.655 207.81 379.711L203.378 382.262C203.194 382.372 203.204 382.555 203.378 382.675L208.498 385.629C208.607 385.682 208.726 385.709 208.847 385.709C208.967 385.709 209.087 385.682 209.195 385.629ZM196.258 393.098L200.68 390.547C200.873 390.437 200.864 390.254 200.68 390.134L195.57 387.18C195.46 387.126 195.339 387.097 195.216 387.097C195.094 387.097 194.973 387.126 194.863 387.18L190.431 389.731C190.248 389.841 190.257 390.024 190.431 390.144L195.551 393.098C195.66 393.154 195.782 393.184 195.904 393.184C196.027 393.184 196.148 393.154 196.258 393.098ZM222.133 378.16L226.565 375.609C226.748 375.499 226.739 375.316 226.565 375.196L221.445 372.242C221.335 372.188 221.214 372.16 221.092 372.16C220.969 372.16 220.848 372.188 220.738 372.242L216.316 374.802C216.123 374.912 216.132 375.096 216.316 375.206L221.436 378.16C221.544 378.215 221.663 378.244 221.784 378.244C221.905 378.244 222.025 378.215 222.133 378.16ZM215.71 381.895L220.142 379.344C220.325 379.234 220.316 379.05 220.142 378.931L214.939 375.976C214.83 375.92 214.709 375.891 214.586 375.891C214.463 375.891 214.342 375.92 214.233 375.976L209.81 378.527C209.617 378.637 209.627 378.821 209.81 378.931L214.93 381.895C215.044 381.953 215.169 381.984 215.297 381.984C215.425 381.984 215.551 381.953 215.664 381.895H215.71ZM228.648 374.426L233.079 371.866C233.263 371.765 233.254 371.581 233.079 371.462L227.959 368.507C227.85 368.451 227.729 368.422 227.606 368.422C227.483 368.422 227.362 368.451 227.253 368.507L222.757 371.012C222.564 371.122 222.583 371.306 222.757 371.416L227.868 374.371C227.976 374.44 228.1 374.482 228.228 374.491C228.356 374.501 228.485 374.478 228.602 374.426H228.648ZM258.248 319.161C258.357 319.217 258.479 319.247 258.601 319.247C258.724 319.247 258.846 319.217 258.955 319.161L263.387 316.601C263.57 316.5 263.561 316.316 263.387 316.197L262.029 315.408C261.919 315.354 261.798 315.326 261.675 315.326C261.553 315.326 261.432 315.354 261.322 315.408L256.89 317.959C256.707 318.069 256.716 318.253 256.89 318.372L258.248 319.161ZM226.418 339.714C226.527 339.771 226.648 339.8 226.771 339.8C226.894 339.8 227.015 339.771 227.124 339.714L231.547 337.163C231.74 337.053 231.731 336.87 231.547 336.751L226.427 333.796C226.317 333.742 226.196 333.714 226.074 333.714C225.951 333.714 225.83 333.742 225.721 333.796L221.289 336.347C221.105 336.457 221.114 336.641 221.289 336.76L226.418 339.714ZM239.356 332.245C239.465 332.3 239.586 332.328 239.709 332.328C239.831 332.328 239.952 332.3 240.062 332.245L244.494 329.695C244.677 329.584 244.668 329.401 244.494 329.282L239.374 326.327C239.265 326.271 239.144 326.241 239.021 326.241C238.898 326.241 238.777 326.271 238.667 326.327L234.208 328.878C234.015 328.988 234.025 329.172 234.208 329.291L239.356 332.245ZM218.518 344.275C218.628 344.329 218.749 344.357 218.871 344.357C218.994 344.357 219.114 344.329 219.224 344.275L223.647 341.715C223.84 341.605 223.83 341.421 223.647 341.311L218.527 338.347C218.417 338.293 218.296 338.265 218.174 338.265C218.051 338.265 217.93 338.293 217.82 338.347L213.389 340.898C213.205 341.008 213.214 341.192 213.389 341.311L218.518 344.275ZM232.887 336.017C232.997 336.071 233.118 336.099 233.24 336.099C233.363 336.099 233.483 336.071 233.593 336.017L238.025 333.466C238.209 333.356 238.199 333.172 238.025 333.053L232.905 330.098C232.795 330.044 232.674 330.016 232.552 330.016C232.429 330.016 232.308 330.044 232.199 330.098L227.776 332.649C227.583 332.759 227.592 332.943 227.776 333.062L232.887 336.017ZM205.534 351.744C205.643 351.8 205.765 351.829 205.888 351.829C206.01 351.829 206.132 351.8 206.241 351.744L210.663 349.184C210.856 349.073 210.838 348.89 210.663 348.78L205.553 345.825C205.443 345.769 205.322 345.74 205.199 345.74C205.076 345.74 204.955 345.769 204.846 345.825L200.414 348.385C200.231 348.486 200.24 348.67 200.414 348.789L205.534 351.744ZM212.003 348.009C212.113 348.063 212.234 348.092 212.356 348.092C212.479 348.092 212.6 348.063 212.71 348.009L217.132 345.449C217.325 345.339 217.316 345.155 217.132 345.045L212.021 342.091C211.912 342.034 211.791 342.005 211.668 342.005C211.545 342.005 211.424 342.034 211.315 342.091L206.883 344.651C206.7 344.752 206.709 344.935 206.883 345.055L212.003 348.009ZM245.265 326.639C245.375 326.693 245.495 326.721 245.618 326.721C245.74 326.721 245.861 326.693 245.971 326.639L250.403 324.088C250.587 323.978 250.577 323.795 250.403 323.675L249.036 322.886C248.926 322.832 248.805 322.804 248.683 322.804C248.56 322.804 248.439 322.832 248.329 322.886L243.907 325.437C243.714 325.547 243.732 325.731 243.907 325.85L245.265 326.639ZM264.68 315.426C264.788 315.483 264.908 315.512 265.029 315.512C265.15 315.512 265.27 315.483 265.378 315.426L269.809 312.866C269.993 312.756 269.984 312.582 269.809 312.463L268.452 311.674C268.342 311.617 268.221 311.588 268.098 311.588C267.975 311.588 267.854 311.617 267.745 311.674L263.313 314.224C263.13 314.335 263.139 314.518 263.313 314.637L264.68 315.426ZM275.425 321.638C275.535 321.693 275.656 321.721 275.778 321.721C275.901 321.721 276.022 321.693 276.132 321.638L280.563 319.078C280.747 318.968 280.738 318.785 280.563 318.675L275.443 315.711C275.333 315.657 275.213 315.628 275.09 315.628C274.968 315.628 274.847 315.657 274.737 315.711L270.314 318.262C270.121 318.372 270.14 318.555 270.314 318.675L275.425 321.638ZM291.602 338.054L296.033 335.494C296.217 335.393 296.208 335.209 296.033 335.09L290.913 332.135C290.804 332.081 290.683 332.053 290.56 332.053C290.438 332.053 290.317 332.081 290.207 332.135L285.784 334.695C285.592 334.805 285.601 334.989 285.784 335.099L290.904 338.054C291.012 338.108 291.132 338.137 291.253 338.137C291.374 338.137 291.494 338.108 291.602 338.054ZM251.734 322.905C251.843 322.959 251.964 322.987 252.087 322.987C252.209 322.987 252.33 322.959 252.44 322.905L256.872 320.354C257.055 320.244 257.046 320.06 256.872 319.941L255.505 319.152C255.395 319.098 255.274 319.069 255.151 319.069C255.029 319.069 254.908 319.098 254.798 319.152L250.376 321.703C250.192 321.813 250.201 321.996 250.376 322.115L251.734 322.905ZM199.065 355.478C199.175 355.534 199.296 355.564 199.419 355.564C199.542 355.564 199.663 355.534 199.772 355.478L204.195 352.918C204.378 352.808 204.369 352.634 204.195 352.514L199.075 349.56C198.965 349.503 198.844 349.474 198.721 349.474C198.598 349.474 198.477 349.503 198.368 349.56L193.945 352.12C193.762 352.23 193.771 352.404 193.945 352.524L199.065 355.478Z" fill="#F28F8F" fill-opacity="0.45"/>
<path d="M225.367 395.693L273.815 367.717L303.635 384.93L255.179 412.907L225.367 395.693Z" fill="white"/>
<path d="M348.766 66.7645L409.645 101.924C410.238 102.31 410.731 102.831 411.085 103.443C411.439 104.055 411.644 104.742 411.683 105.449V272.809C411.644 273.515 411.439 274.202 411.085 274.814C410.731 275.427 410.238 275.947 409.645 276.333L348.766 311.493C348.134 311.813 347.436 311.98 346.728 311.98C346.02 311.98 345.322 311.813 344.69 311.493L283.811 276.333C283.217 275.948 282.723 275.428 282.369 274.816C282.015 274.203 281.811 273.515 281.773 272.809V105.449C281.813 104.742 282.017 104.055 282.371 103.443C282.725 102.831 283.219 102.31 283.811 101.924L344.69 66.7645C345.323 66.4492 346.021 66.2852 346.728 66.2852C347.435 66.2852 348.133 66.4492 348.766 66.7645Z" fill="black" fill-opacity="0.25"/>
<path d="M281.773 105.448V272.808C281.812 273.513 282.016 274.199 282.368 274.811C282.72 275.424 283.21 275.945 283.8 276.333L344.69 311.492C345.316 311.828 346.018 311.995 346.728 311.977V139.903C346.019 139.915 345.318 139.748 344.69 139.418L283.8 104.27L283.249 103.807L282.522 103.201C282.064 103.864 281.805 104.643 281.773 105.448Z" fill="white"/>
<path d="M401.999 121.915L356.397 148.24C355.804 148.628 355.31 149.151 354.956 149.765C354.602 150.379 354.398 151.068 354.359 151.776V169.124C354.359 170.424 355.263 170.953 356.386 170.303L401.988 143.977C402.58 143.591 403.073 143.071 403.427 142.458C403.781 141.846 403.986 141.159 404.025 140.453V123.093C404.036 121.794 403.177 121.265 401.999 121.915Z" fill="#A57A8E" fill-opacity="0.47"/>
<path d="M400.212 129.572C400.159 130.255 399.947 130.917 399.594 131.504C399.24 132.091 398.754 132.587 398.175 132.953L360.217 154.862C359.116 155.512 358.18 155.049 358.18 153.838C358.233 153.154 358.445 152.493 358.799 151.906C359.152 151.319 359.638 150.822 360.217 150.456L398.175 128.536C399.298 127.886 400.212 128.349 400.212 129.572Z" fill="#F28F8F"/>
<path d="M400.212 138.394C400.159 139.077 399.947 139.739 399.594 140.326C399.24 140.913 398.754 141.409 398.175 141.776L360.217 163.684C359.116 164.334 358.18 163.871 358.18 162.66C358.233 161.976 358.445 161.315 358.799 160.728C359.152 160.141 359.638 159.645 360.217 159.278L398.175 137.359C399.298 136.709 400.212 137.171 400.212 138.394Z" fill="white"/>
<path d="M398.178 137.359L377.25 149.475V153.881L398.178 141.765C398.758 141.399 399.243 140.902 399.597 140.315C399.951 139.728 400.163 139.067 400.216 138.383C400.216 137.172 399.302 136.709 398.178 137.359Z" fill="#F28F8F"/>
<path d="M401.999 152.802L356.397 179.127C355.805 179.514 355.312 180.035 354.959 180.647C354.605 181.259 354.399 181.946 354.359 182.652V200.011C354.359 201.311 355.263 201.84 356.386 201.19L401.988 174.864C402.58 174.478 403.073 173.958 403.427 173.345C403.781 172.733 403.986 172.046 404.025 171.34V153.98C404.036 152.68 403.177 152.196 401.999 152.802Z" fill="#A57A8E" fill-opacity="0.47"/>
<path d="M400.212 160.447C400.161 161.132 399.95 161.796 399.596 162.385C399.242 162.974 398.755 163.472 398.175 163.839L360.217 185.748C359.116 186.398 358.18 185.935 358.18 184.724C358.231 184.038 358.442 183.375 358.796 182.786C359.15 182.197 359.637 181.698 360.217 181.331L398.175 159.422C399.298 158.806 400.212 159.235 400.212 160.447Z" fill="#F28F8F"/>
<path d="M400.212 169.279C400.159 169.962 399.947 170.624 399.594 171.211C399.24 171.798 398.754 172.294 398.175 172.66L360.217 194.569C359.116 195.219 358.18 194.756 358.18 193.545C358.233 192.861 358.445 192.2 358.799 191.613C359.152 191.026 359.638 190.529 360.217 190.163L398.175 168.243C399.298 167.616 400.212 168.056 400.212 169.279Z" fill="white"/>
<path d="M398.179 168.242L365.828 186.967V191.373L398.179 172.703C398.758 172.337 399.244 171.84 399.598 171.253C399.951 170.666 400.163 170.005 400.217 169.322C400.217 168.055 399.302 167.614 398.179 168.242Z" fill="#F28F8F"/>
<path d="M401.999 183.686L356.397 210.012C355.805 210.398 355.311 210.918 354.957 211.531C354.603 212.143 354.398 212.83 354.359 213.536V230.896C354.359 232.196 355.263 232.724 356.386 232.074L401.988 205.749C402.581 205.361 403.075 204.839 403.429 204.224C403.783 203.61 403.987 202.921 404.025 202.213V184.865C404.036 183.565 403.177 183.036 401.999 183.686Z" fill="#A57A8E" fill-opacity="0.47"/>
<path d="M400.212 191.33C400.159 192.013 399.947 192.674 399.594 193.261C399.24 193.848 398.754 194.345 398.175 194.711L360.217 216.631C359.116 217.281 358.18 216.818 358.18 215.595C358.233 214.912 358.445 214.251 358.799 213.664C359.152 213.077 359.638 212.58 360.217 212.214L398.175 190.305C399.298 189.644 400.212 190.118 400.212 191.33Z" fill="#F28F8F"/>
<path d="M400.212 200.155C400.159 200.838 399.947 201.5 399.594 202.087C399.24 202.674 398.754 203.17 398.175 203.536L360.217 225.456C359.116 226.106 358.18 225.643 358.18 224.421C358.233 223.737 358.445 223.076 358.799 222.489C359.152 221.902 359.638 221.405 360.217 221.039L398.175 199.13C399.298 198.459 400.212 198.943 400.212 200.155Z" fill="white"/>
<path d="M398.179 199.131L384.961 206.775V211.181L398.179 203.526C398.758 203.159 399.244 202.663 399.598 202.076C399.951 201.489 400.163 200.827 400.217 200.144C400.217 198.943 399.302 198.459 398.179 199.131Z" fill="#F28F8F"/>
<path d="M401.999 214.573L356.397 240.898C355.805 241.285 355.311 241.805 354.957 242.417C354.603 243.03 354.398 243.717 354.359 244.423V261.782C354.359 263.082 355.263 263.611 356.386 262.961L401.988 236.635C402.581 236.247 403.075 235.725 403.429 235.111C403.783 234.497 403.987 233.808 404.025 233.1V215.751C404.036 214.452 403.177 213.879 401.999 214.573Z" fill="#A57A8E" fill-opacity="0.47"/>
<path d="M400.212 222.217C400.159 222.901 399.947 223.562 399.594 224.149C399.24 224.736 398.754 225.233 398.175 225.599L360.217 247.518C359.116 248.168 358.18 247.706 358.18 246.483C358.233 245.8 358.445 245.138 358.799 244.551C359.152 243.964 359.638 243.468 360.217 243.102L398.175 221.193C399.298 220.543 400.212 221.006 400.212 222.217Z" fill="#F28F8F"/>
<path d="M400.212 231.038C400.159 231.721 399.947 232.382 399.594 232.969C399.24 233.556 398.754 234.053 398.175 234.419L360.217 256.339C359.116 256.989 358.18 256.526 358.18 255.303C358.233 254.62 358.445 253.959 358.799 253.372C359.152 252.785 359.638 252.288 360.217 251.922L398.175 230.013C399.298 229.363 400.212 229.826 400.212 231.038Z" fill="white"/>
<path d="M398.178 230.013L377.25 242.075V246.48L398.178 234.419C398.758 234.053 399.243 233.556 399.597 232.969C399.951 232.382 400.163 231.721 400.216 231.038C400.216 229.826 399.302 229.363 398.178 230.013Z" fill="#F28F8F"/>
<path d="M401.999 245.458L356.397 271.784C355.805 272.17 355.311 272.69 354.957 273.303C354.603 273.915 354.398 274.602 354.359 275.308V292.668C354.359 293.967 355.263 294.485 356.386 293.835L401.988 267.51C402.58 267.123 403.073 266.603 403.427 265.991C403.781 265.378 403.986 264.691 404.025 263.985V246.626C404.036 245.326 403.177 244.808 401.999 245.458Z" fill="#A57A8E" fill-opacity="0.47"/>
<path d="M400.212 253.104C400.159 253.787 399.947 254.449 399.594 255.036C399.24 255.623 398.754 256.119 398.175 256.486L360.217 278.405C359.116 279.044 358.18 278.592 358.18 277.37C358.233 276.686 358.445 276.025 358.799 275.438C359.152 274.851 359.638 274.355 360.217 273.988L398.175 252.069C399.298 251.43 400.212 251.881 400.212 253.104Z" fill="#F28F8F"/>
<path d="M400.212 261.923C400.159 262.606 399.947 263.267 399.594 263.854C399.24 264.441 398.754 264.938 398.175 265.304L360.217 287.224C359.116 287.874 358.18 287.411 358.18 286.188C358.233 285.505 358.445 284.844 358.799 284.257C359.152 283.67 359.638 283.173 360.217 282.807L398.175 260.898C399.298 260.248 400.212 260.7 400.212 261.923Z" fill="white"/>
<path d="M398.177 260.9L369.648 277.367V281.773L398.177 265.251C398.756 264.884 399.242 264.388 399.596 263.801C399.95 263.214 400.161 262.553 400.215 261.869C400.215 260.702 399.3 260.25 398.177 260.9Z" fill="#F28F8F"/>
<path d="M337.182 150.532C335.067 149.309 333.359 150.422 333.359 153.021V253.928C333.414 255.299 333.788 256.638 334.452 257.839C335.115 259.04 336.05 260.07 337.182 260.846C339.285 262.068 340.993 260.956 340.993 258.356V157.449C340.939 156.079 340.567 154.74 339.905 153.539C339.244 152.339 338.311 151.309 337.182 150.532Z" fill="black" fill-opacity="0.25"/>
<path d="M337.174 258.611C336.608 258.224 336.139 257.709 335.806 257.109C335.474 256.508 335.286 255.838 335.258 255.153V153.97C335.258 152.67 336.117 152.108 337.174 152.725C337.738 153.113 338.203 153.626 338.534 154.224C338.865 154.823 339.052 155.49 339.08 156.173V257.366C339.08 258.655 338.188 259.217 337.174 258.611Z" fill="white"/>
<path d="M337.174 258.609C336.608 258.222 336.139 257.708 335.806 257.107C335.474 256.507 335.286 255.837 335.258 255.151V206.773L339.08 208.976V257.354C339.08 258.653 338.188 259.215 337.174 258.609Z" fill="#F28F8F"/>
<path d="M325.713 143.911C323.598 142.688 321.891 143.8 321.891 146.4V247.307C321.94 248.679 322.312 250.02 322.976 251.222C323.64 252.424 324.577 253.452 325.713 254.224C327.817 255.447 329.535 254.335 329.535 251.735V150.828C329.48 149.457 329.106 148.118 328.443 146.917C327.779 145.716 326.844 144.686 325.713 143.911Z" fill="black" fill-opacity="0.25"/>
<path d="M325.713 251.989C325.147 251.602 324.678 251.087 324.345 250.487C324.013 249.886 323.825 249.217 323.797 248.531V147.348C323.797 146.048 324.656 145.497 325.713 146.103C326.278 146.492 326.745 147.007 327.075 147.607C327.406 148.208 327.592 148.877 327.619 149.562V250.745C327.619 252.044 326.771 252.595 325.713 251.989Z" fill="#F28F8F"/>
<path d="M314.244 137.304C312.14 136.071 310.422 137.194 310.422 139.783V240.69C310.476 242.061 310.85 243.4 311.514 244.601C312.178 245.802 313.112 246.831 314.244 247.607C316.359 248.83 318.066 247.717 318.066 245.118V144.222C318.017 142.85 317.645 141.508 316.981 140.307C316.317 139.105 315.379 138.076 314.244 137.304Z" fill="black" fill-opacity="0.25"/>
<path d="M314.242 245.368C313.674 244.985 313.206 244.472 312.875 243.873C312.544 243.274 312.359 242.605 312.336 241.921V140.727C312.336 139.438 313.184 138.877 314.242 139.482C314.808 139.87 315.277 140.384 315.61 140.985C315.942 141.585 316.13 142.255 316.158 142.941V244.124C316.158 245.423 315.299 245.985 314.242 245.368Z" fill="white"/>
<path d="M314.242 245.37C313.674 244.986 313.206 244.474 312.875 243.875C312.544 243.276 312.359 242.607 312.336 241.922V163.717L316.158 165.92V244.125C316.158 245.425 315.299 245.987 314.242 245.37Z" fill="#F28F8F"/>
<path d="M302.791 130.682C300.676 129.459 298.969 130.572 298.969 133.171V234.068C299.018 235.44 299.39 236.781 300.054 237.983C300.718 239.184 301.656 240.213 302.791 240.985C304.895 242.208 306.602 241.095 306.602 238.496V137.599C306.549 136.229 306.176 134.891 305.515 133.69C304.853 132.489 303.92 131.459 302.791 130.682Z" fill="black" fill-opacity="0.25"/>
<path d="M302.792 238.749C302.226 238.363 301.759 237.85 301.426 237.252C301.093 236.653 300.905 235.985 300.875 235.301V134.119C300.875 132.819 301.734 132.257 302.792 132.863C303.356 133.252 303.823 133.766 304.154 134.367C304.484 134.967 304.67 135.637 304.697 136.322V237.504C304.697 238.804 303.838 239.366 302.792 238.749Z" fill="white"/>
<path d="M302.792 238.75C302.226 238.364 301.759 237.852 301.426 237.253C301.093 236.655 300.905 235.987 300.875 235.303V218.219L304.697 220.422V237.495C304.697 238.806 303.838 239.367 302.792 238.75Z" fill="#F28F8F"/>
<path d="M291.322 124.063C289.207 122.84 287.5 123.953 287.5 126.552V227.448C287.549 228.821 287.921 230.162 288.585 231.364C289.249 232.565 290.187 233.594 291.322 234.366C293.426 235.599 295.144 234.476 295.144 231.887V130.98C295.09 129.609 294.716 128.27 294.052 127.069C293.389 125.868 292.454 124.839 291.322 124.063Z" fill="black" fill-opacity="0.25"/>
<path d="M291.323 232.14C290.756 231.753 290.288 231.239 289.955 230.638C289.622 230.038 289.434 229.368 289.406 228.682V127.499C289.406 126.199 290.265 125.638 291.323 126.255C291.89 126.638 292.358 127.151 292.689 127.75C293.021 128.349 293.205 129.018 293.228 129.702V230.885C293.228 232.185 292.38 232.746 291.323 232.14Z" fill="white"/>
<path d="M291.323 232.142C290.756 231.754 290.288 231.24 289.955 230.639C289.622 230.039 289.434 229.369 289.406 228.683V175.889L293.228 178.092V230.875C293.228 232.186 292.38 232.747 291.323 232.142Z" fill="#F28F8F"/>
<path d="M339.358 273.116L289.13 244.114C288.227 243.597 287.5 244.015 287.5 245.062V263.357C287.53 263.922 287.694 264.473 287.977 264.963C288.26 265.453 288.655 265.869 289.13 266.177L339.358 295.179C340.261 295.697 340.988 295.278 340.988 294.243V275.936C340.958 275.371 340.795 274.821 340.511 274.331C340.228 273.841 339.833 273.425 339.358 273.116Z" fill="black" fill-opacity="0.25"/>
<path d="M337.296 278.546C337.296 279.758 336.382 280.221 335.258 279.571L293.225 255.338C292.646 254.972 292.16 254.475 291.806 253.888C291.453 253.301 291.241 252.64 291.188 251.957C291.188 250.734 292.102 250.271 293.225 250.921L335.258 275.154C335.839 275.521 336.325 276.019 336.679 276.608C337.033 277.198 337.244 277.861 337.296 278.546Z" fill="white"/>
<path d="M337.299 278.548C337.299 279.76 336.385 280.223 335.262 279.573L304.695 261.949V257.543L335.262 275.167C335.841 275.533 336.327 276.029 336.68 276.617C337.034 277.204 337.246 277.865 337.299 278.548Z" fill="#F28F8F"/>
<path d="M337.296 287.369C337.296 288.58 336.382 289.043 335.258 288.393L293.225 264.16C292.646 263.794 292.16 263.298 291.806 262.711C291.453 262.124 291.241 261.462 291.188 260.779C291.188 259.556 292.102 259.094 293.225 259.743L335.258 283.976C335.839 284.344 336.325 284.842 336.679 285.431C337.033 286.02 337.244 286.683 337.296 287.369Z" fill="white"/>
<path d="M337.301 287.369C337.301 288.581 336.387 289.044 335.263 288.394L323.797 281.785V277.379L335.263 283.988C335.843 284.354 336.328 284.851 336.682 285.438C337.036 286.025 337.248 286.686 337.301 287.369Z" fill="#F28F8F"/>
<path d="M283.813 101.924L344.692 66.7645C345.325 66.4492 346.022 66.2852 346.73 66.2852C347.437 66.2852 348.134 66.4492 348.767 66.7645L409.647 101.924C409.894 102.005 410.11 102.161 410.263 102.372C410.416 102.583 410.498 102.837 410.498 103.097C410.498 103.357 410.416 103.611 410.263 103.822C410.11 104.033 409.894 104.19 409.647 104.27L348.767 139.419C348.136 139.739 347.438 139.906 346.73 139.906C346.022 139.906 345.323 139.739 344.692 139.419L283.813 104.27C283.565 104.19 283.349 104.033 283.196 103.822C283.043 103.611 282.961 103.357 282.961 103.097C282.961 102.837 283.043 102.583 283.196 102.372C283.349 102.161 283.565 102.005 283.813 101.924Z" fill="#A57A8E" fill-opacity="0.47"/>
<path d="M347.954 131.069L395.175 103.796C395.533 103.567 395.83 103.255 396.043 102.887C396.256 102.519 396.377 102.106 396.398 101.681V100.095C396.377 99.6706 396.256 99.2572 396.043 98.8893C395.83 98.5215 395.533 98.2097 395.175 97.9802L347.954 70.6854C347.575 70.4954 347.156 70.3965 346.732 70.3965C346.307 70.3965 345.889 70.4954 345.509 70.6854L298.277 97.9802C297.922 98.2117 297.625 98.5239 297.413 98.8914C297.201 99.2588 297.078 99.6712 297.055 100.095V101.681C297.078 102.105 297.201 102.517 297.413 102.885C297.625 103.252 297.922 103.565 298.277 103.796L345.509 131.069C345.889 131.259 346.307 131.358 346.732 131.358C347.156 131.358 347.575 131.259 347.954 131.069Z" fill="white"/>
<path d="M395.175 99.3937L347.954 126.655C347.576 126.851 347.157 126.952 346.732 126.952C346.306 126.952 345.887 126.851 345.509 126.655L298.277 99.3937C298.132 99.3416 298.006 99.2459 297.918 99.1197C297.829 98.9935 297.781 98.843 297.781 98.6887C297.781 98.5345 297.829 98.384 297.918 98.2578C298.006 98.1316 298.132 98.0359 298.277 97.9838L345.509 71.6583C345.887 71.4631 346.306 71.3613 346.732 71.3613C347.157 71.3613 347.576 71.4631 347.954 71.6583L395.175 97.9838C395.325 98.0304 395.457 98.124 395.551 98.2509C395.644 98.3777 395.695 98.5312 395.695 98.6887C395.695 98.8463 395.644 98.9998 395.551 99.1266C395.457 99.2535 395.325 99.3471 395.175 99.3937Z" fill="#A57A8E" fill-opacity="0.47"/>
<path d="M346.727 126.95V131.356C347.152 131.367 347.573 131.268 347.949 131.069L395.17 103.796C395.528 103.567 395.825 103.255 396.038 102.887C396.25 102.519 396.372 102.106 396.393 101.682V100.095C396.373 99.7175 396.275 99.3478 396.105 99.0101C395.934 98.6724 395.694 98.3742 395.401 98.1348C395.842 98.5203 395.765 99.049 395.17 99.3905L347.949 126.652C347.574 126.855 347.153 126.957 346.727 126.95Z" fill="black" fill-opacity="0.25"/>
<path d="M347.947 117.828L379.89 99.3892C380.252 99.1614 380.555 98.8509 380.773 98.4832C380.991 98.1155 381.119 97.7012 381.146 97.2744V95.6772C381.12 95.254 380.996 94.8426 380.784 94.4755C380.572 94.1084 380.277 93.7958 379.923 93.5624L359.402 81.6994C358.617 81.207 357.92 80.585 357.343 79.8599L347.561 66.642C347.327 66.3349 346.99 66.1225 346.612 66.0436C346.233 65.9648 345.839 66.0247 345.502 66.2125L313.559 84.6513C313.202 84.8822 312.906 85.1942 312.693 85.5618C312.481 85.9294 312.358 86.3422 312.336 86.7662V97.1863C312.359 97.6101 312.482 98.0225 312.694 98.39C312.907 98.7574 313.203 99.0696 313.559 99.3011L345.502 117.74C345.873 117.949 346.288 118.066 346.714 118.081C347.139 118.097 347.562 118.01 347.947 117.828Z" fill="white"/>
<path d="M345.506 113.423L324.974 101.593C324.584 101.364 324.215 101.098 323.873 100.8C323.505 100.468 323.173 100.099 322.882 99.6989L313.1 86.4811C312.989 86.3405 312.91 86.1771 312.869 86.0026C312.827 85.828 312.825 85.6465 312.862 85.471C312.899 85.2954 312.974 85.1301 313.082 84.9868C313.189 84.8435 313.327 84.7256 313.486 84.6416L345.429 66.2027C345.767 66.0149 346.161 65.955 346.539 66.0339C346.917 66.1128 347.254 66.3252 347.489 66.6323L357.27 79.8501C357.783 80.5928 358.425 81.2381 359.164 81.7557L379.817 93.5085C379.963 93.5607 380.088 93.6564 380.177 93.7825C380.266 93.9087 380.313 94.0592 380.313 94.2135C380.313 94.3678 380.266 94.5183 380.177 94.6444C380.088 94.7706 379.963 94.8663 379.817 94.9185L347.874 113.368C347.509 113.555 347.106 113.656 346.696 113.666C346.286 113.675 345.88 113.593 345.506 113.423Z" fill="#A57A8E" fill-opacity="0.47"/>
<path d="M313.565 84.7392L345.508 66.3004C345.845 66.1126 346.239 66.0526 346.618 66.1315C346.996 66.2104 347.333 66.4228 347.567 66.7299L357.349 79.9478C357.648 80.3254 357.983 80.6722 358.351 80.9832C358.351 80.9832 323.974 100.81 323.963 100.81C323.589 100.481 323.253 100.111 322.96 99.7084L313.179 86.4906C313.083 86.3523 313.017 86.1956 312.984 86.0305C312.951 85.8653 312.953 85.6952 312.99 85.5308C313.026 85.3663 313.095 85.2112 313.194 85.075C313.293 84.9388 313.419 84.8245 313.565 84.7392Z" fill="black" fill-opacity="0.25"/>
<path d="M372.138 93.8938C371.695 93.6658 371.205 93.5469 370.706 93.5469C370.208 93.5469 369.717 93.6658 369.274 93.8938C368.481 94.3455 368.481 95.0835 369.274 95.5461C369.719 95.769 370.209 95.885 370.706 95.885C371.204 95.885 371.694 95.769 372.138 95.5461C372.931 95.0835 372.931 94.3455 372.138 93.8938Z" fill="#F28F8F"/>
<path d="M366.412 97.1983C365.967 96.9754 365.477 96.8594 364.98 96.8594C364.483 96.8594 363.992 96.9754 363.548 97.1983C362.755 97.6609 362.755 98.3989 363.548 98.8505C363.991 99.0786 364.482 99.1975 364.98 99.1975C365.478 99.1975 365.969 99.0786 366.412 98.8505C367.205 98.3989 367.205 97.6609 366.412 97.1983Z" fill="#F28F8F"/>
<path d="M360.683 100.501C360.237 100.278 359.745 100.162 359.246 100.162C358.747 100.162 358.255 100.278 357.809 100.501C357.636 100.562 357.487 100.674 357.381 100.823C357.276 100.972 357.219 101.15 357.219 101.333C357.219 101.515 357.276 101.694 357.381 101.843C357.487 101.992 357.636 102.104 357.809 102.164C358.255 102.387 358.747 102.504 359.246 102.504C359.745 102.504 360.237 102.387 360.683 102.164C360.856 102.104 361.005 101.992 361.111 101.843C361.216 101.694 361.273 101.515 361.273 101.333C361.273 101.15 361.216 100.972 361.111 100.823C361.005 100.674 360.856 100.562 360.683 100.501Z" fill="white"/>
<path d="M354.945 103.82C354.502 103.592 354.011 103.473 353.513 103.473C353.015 103.473 352.524 103.592 352.081 103.82C351.907 103.877 351.756 103.988 351.649 104.136C351.542 104.284 351.484 104.463 351.484 104.646C351.484 104.829 351.542 105.007 351.649 105.155C351.756 105.304 351.907 105.414 352.081 105.472C352.524 105.7 353.015 105.819 353.513 105.819C354.011 105.819 354.502 105.7 354.945 105.472C355.119 105.414 355.27 105.304 355.377 105.155C355.484 105.007 355.542 104.829 355.542 104.646C355.542 104.463 355.484 104.284 355.377 104.136C355.27 103.988 355.119 103.877 354.945 103.82Z" fill="white"/>
<path d="M367.844 91.4034C367.4 91.1805 366.91 91.0645 366.412 91.0645C365.915 91.0645 365.425 91.1805 364.98 91.4034C364.808 91.4638 364.659 91.5762 364.553 91.7252C364.447 91.8742 364.391 92.0524 364.391 92.235C364.391 92.4177 364.447 92.5958 364.553 92.7448C364.659 92.8938 364.808 93.0062 364.98 93.0666C365.425 93.2895 365.915 93.4056 366.412 93.4056C366.91 93.4056 367.4 93.2895 367.844 93.0666C368.017 93.0062 368.166 92.8938 368.272 92.7448C368.377 92.5958 368.434 92.4177 368.434 92.235C368.434 92.0524 368.377 91.8742 368.272 91.7252C368.166 91.5762 368.017 91.4638 367.844 91.4034Z" fill="#F28F8F"/>
<path d="M362.112 94.7201C361.667 94.492 361.175 94.373 360.675 94.373C360.175 94.373 359.682 94.492 359.237 94.7201C359.064 94.7776 358.913 94.8884 358.805 95.0367C358.698 95.185 358.641 95.3633 358.641 95.5462C358.641 95.7292 358.698 95.9075 358.805 96.0558C358.913 96.2041 359.064 96.3149 359.237 96.3723C359.684 96.5953 360.176 96.7114 360.675 96.7114C361.174 96.7114 361.666 96.5953 362.112 96.3723C362.286 96.3149 362.437 96.2041 362.544 96.0558C362.651 95.9075 362.709 95.7292 362.709 95.5462C362.709 95.3633 362.651 95.185 362.544 95.0367C362.437 94.8884 362.286 94.7776 362.112 94.7201Z" fill="white"/>
<path d="M354.949 100.019C356.068 100.019 356.975 99.496 356.975 98.8512C356.975 98.2063 356.068 97.6836 354.949 97.6836C353.829 97.6836 352.922 98.2063 352.922 98.8512C352.922 99.496 353.829 100.019 354.949 100.019Z" fill="#F28F8F"/>
<path d="M350.646 101.341C350.203 101.113 349.712 100.994 349.214 100.994C348.716 100.994 348.225 101.113 347.782 101.341C346.989 101.793 346.989 102.531 347.782 102.993C348.227 103.216 348.717 103.332 349.214 103.332C349.711 103.332 350.202 103.216 350.646 102.993C351.406 102.531 351.406 101.793 350.646 101.341Z" fill="white"/>
<path d="M363.529 88.9249C363.085 88.702 362.594 88.5859 362.097 88.5859C361.6 88.5859 361.11 88.702 360.665 88.9249C359.872 89.3875 359.872 90.1255 360.665 90.5771C361.108 90.8051 361.599 90.9241 362.097 90.9241C362.595 90.9241 363.086 90.8051 363.529 90.5771C364.344 90.1255 364.344 89.4095 363.529 88.9249Z" fill="white"/>
<path d="M357.805 92.2296C357.361 92.0067 356.871 91.8906 356.373 91.8906C355.876 91.8906 355.386 92.0067 354.941 92.2296C354.769 92.2899 354.62 92.4024 354.514 92.5514C354.408 92.7004 354.352 92.8785 354.352 93.0612C354.352 93.2438 354.408 93.422 354.514 93.571C354.62 93.7199 354.769 93.8324 354.941 93.8928C355.386 94.1157 355.876 94.2317 356.373 94.2317C356.871 94.2317 357.361 94.1157 357.805 93.8928C357.978 93.8324 358.127 93.7199 358.233 93.571C358.338 93.422 358.395 93.2438 358.395 93.0612C358.395 92.8785 358.338 92.7004 358.233 92.5514C358.127 92.4024 357.978 92.2899 357.805 92.2296Z" fill="#F28F8F"/>
<path d="M352.078 95.5462C351.635 95.3182 351.144 95.1992 350.646 95.1992C350.148 95.1992 349.657 95.3182 349.214 95.5462C349.04 95.6037 348.889 95.7144 348.782 95.8627C348.675 96.011 348.617 96.1893 348.617 96.3723C348.617 96.5553 348.675 96.7336 348.782 96.8819C348.889 97.0302 349.04 97.1409 349.214 97.1984C349.658 97.4213 350.149 97.5373 350.646 97.5373C351.143 97.5373 351.633 97.4213 352.078 97.1984C352.252 97.1409 352.403 97.0302 352.51 96.8819C352.617 96.7336 352.675 96.5553 352.675 96.3723C352.675 96.1893 352.617 96.011 352.51 95.8627C352.403 95.7144 352.252 95.6037 352.078 95.5462Z" fill="white"/>
<path d="M349.209 107.034C348.764 106.811 348.274 106.695 347.777 106.695C347.28 106.695 346.789 106.811 346.345 107.034C345.552 107.497 345.552 108.235 346.345 108.686C346.788 108.914 347.279 109.033 347.777 109.033C348.275 109.033 348.766 108.914 349.209 108.686C349.98 108.257 349.98 107.519 349.209 107.034Z" fill="#F28F8F"/>
<path d="M344.89 104.579C344.447 104.351 343.957 104.232 343.458 104.232C342.96 104.232 342.469 104.351 342.026 104.579C341.853 104.637 341.702 104.748 341.594 104.896C341.487 105.044 341.43 105.223 341.43 105.406C341.43 105.588 341.487 105.767 341.594 105.915C341.702 106.063 341.853 106.174 342.026 106.232C342.469 106.46 342.96 106.579 343.458 106.579C343.957 106.579 344.447 106.46 344.89 106.232C345.064 106.174 345.215 106.063 345.322 105.915C345.429 105.767 345.487 105.588 345.487 105.406C345.487 105.223 345.429 105.044 345.322 104.896C345.215 104.748 345.064 104.637 344.89 104.579Z" fill="white"/>
<path d="M346.352 98.8487C345.908 98.6258 345.417 98.5098 344.92 98.5098C344.423 98.5098 343.933 98.6258 343.488 98.8487C343.316 98.9091 343.167 99.0216 343.061 99.1705C342.955 99.3195 342.898 99.4977 342.898 99.6803C342.898 99.863 342.955 100.041 343.061 100.19C343.167 100.339 343.316 100.452 343.488 100.512C343.933 100.735 344.423 100.851 344.92 100.851C345.417 100.851 345.908 100.735 346.352 100.512C346.524 100.452 346.674 100.339 346.779 100.19C346.885 100.041 346.942 99.863 346.942 99.6803C346.942 99.4977 346.885 99.3195 346.779 99.1705C346.674 99.0216 346.524 98.9091 346.352 98.8487Z" fill="white"/>
<path d="M359.253 86.4467C358.808 86.2186 358.315 86.0996 357.815 86.0996C357.316 86.0996 356.823 86.2186 356.378 86.4467C356.204 86.5042 356.053 86.6149 355.946 86.7632C355.839 86.9115 355.781 87.0898 355.781 87.2728C355.781 87.4557 355.839 87.634 355.946 87.7824C356.053 87.9307 356.204 88.0414 356.378 88.0989C356.823 88.327 357.316 88.446 357.815 88.446C358.315 88.446 358.808 88.327 359.253 88.0989C359.427 88.0414 359.578 87.9307 359.685 87.7824C359.792 87.634 359.85 87.4557 359.85 87.2728C359.85 87.0898 359.792 86.9115 359.685 86.7632C359.578 86.6149 359.427 86.5042 359.253 86.4467Z" fill="#F28F8F"/>
<path d="M352.081 91.7453C353.201 91.7453 354.108 91.2226 354.108 90.5777C354.108 89.9329 353.201 89.4102 352.081 89.4102C350.962 89.4102 350.055 89.9329 350.055 90.5777C350.055 91.2226 350.962 91.7453 352.081 91.7453Z" fill="white"/>
<path d="M347.787 93.0696C347.344 92.8416 346.853 92.7227 346.355 92.7227C345.857 92.7227 345.366 92.8416 344.923 93.0696C344.13 93.5212 344.13 94.2592 344.923 94.7219C345.367 94.9447 345.858 95.0608 346.355 95.0608C346.852 95.0608 347.342 94.9447 347.787 94.7219C348.58 94.2592 348.58 93.5212 347.787 93.0696Z" fill="#F28F8F"/>
<path d="M342.058 96.3723C341.611 96.1493 341.119 96.0332 340.62 96.0332C340.121 96.0332 339.629 96.1493 339.183 96.3723C339.009 96.4298 338.858 96.5405 338.751 96.6888C338.644 96.8371 338.586 97.0154 338.586 97.1984C338.586 97.3814 338.644 97.5597 338.751 97.708C338.858 97.8563 339.009 97.967 339.183 98.0245C339.628 98.2526 340.12 98.3716 340.62 98.3716C341.12 98.3716 341.613 98.2526 342.058 98.0245C342.231 97.967 342.382 97.8563 342.49 97.708C342.597 97.5597 342.654 97.3814 342.654 97.1984C342.654 97.0154 342.597 96.8371 342.49 96.6888C342.382 96.5405 342.231 96.4298 342.058 96.3723Z" fill="white"/>
<path d="M340.597 102.099C340.152 101.871 339.659 101.752 339.159 101.752C338.659 101.752 338.167 101.871 337.722 102.099C337.548 102.156 337.397 102.267 337.29 102.416C337.183 102.564 337.125 102.742 337.125 102.925C337.125 103.108 337.183 103.286 337.29 103.435C337.397 103.583 337.548 103.694 337.722 103.751C338.167 103.979 338.659 104.098 339.159 104.098C339.659 104.098 340.152 103.979 340.597 103.751C340.77 103.694 340.922 103.583 341.029 103.435C341.136 103.286 341.193 103.108 341.193 102.925C341.193 102.742 341.136 102.564 341.029 102.416C340.922 102.267 340.77 102.156 340.597 102.099Z" fill="#F28F8F"/>
<path d="M336.287 99.6224C335.844 99.3943 335.353 99.2754 334.855 99.2754C334.357 99.2754 333.866 99.3943 333.423 99.6224C332.63 100.074 332.63 100.812 333.423 101.275C333.867 101.497 334.358 101.614 334.855 101.614C335.352 101.614 335.842 101.497 336.287 101.275C337.091 100.812 337.091 100.074 336.287 99.6224Z" fill="white"/>
<path d="M346.664 113.709V118.115C347.111 118.136 347.556 118.037 347.953 117.829L379.896 99.3902C380.258 99.1599 380.561 98.8473 380.779 98.4779C380.997 98.1084 381.125 97.6926 381.152 97.2643V95.6782C381.129 95.3014 381.028 94.9336 380.855 94.5979C380.683 94.2623 380.442 93.9662 380.149 93.7285C380.59 94.114 380.513 94.6317 379.929 94.9732L347.986 113.423C347.58 113.637 347.123 113.736 346.664 113.709Z" fill="black" fill-opacity="0.25"/>
<path d="M353.127 79.3541C352.967 79.1533 352.742 79.0148 352.49 78.9625C352.239 78.9102 351.977 78.9474 351.75 79.0677L323.927 95.0833C323.82 95.1383 323.728 95.2163 323.656 95.3116C323.583 95.4069 323.533 95.5171 323.509 95.6343C323.485 95.7514 323.487 95.8725 323.515 95.9887C323.544 96.1049 323.598 96.2133 323.673 96.3059C323.834 96.5067 324.059 96.6452 324.31 96.6975C324.562 96.7498 324.823 96.7126 325.05 96.5923L352.863 80.5987C352.972 80.5438 353.067 80.4651 353.142 80.3684C353.217 80.2717 353.268 80.1594 353.294 80.0399C353.319 79.9204 353.317 79.7967 353.289 79.678C353.26 79.5593 353.205 79.4486 353.127 79.3541Z" fill="white"/>
<path d="M353.128 79.3541C352.968 79.1533 352.743 79.0148 352.492 78.9625C352.24 78.9102 351.979 78.9474 351.752 79.0677L331.055 90.9637L332.211 92.5058L352.864 80.5987C352.973 80.5438 353.069 80.4651 353.143 80.3684C353.218 80.2717 353.27 80.1594 353.295 80.0399C353.321 79.9204 353.319 79.7967 353.29 79.678C353.261 79.5593 353.206 79.4486 353.128 79.3541Z" fill="#F28F8F"/>
<path d="M350.828 76.2699C350.668 76.0718 350.445 75.935 350.196 75.8828C349.947 75.8306 349.687 75.8662 349.462 75.9835L321.671 91.9881C321.566 92.0457 321.475 92.1255 321.404 92.2219C321.333 92.3183 321.283 92.429 321.259 92.5463C321.235 92.6637 321.237 92.7849 321.264 92.9015C321.292 93.0182 321.344 93.1275 321.418 93.2218C321.578 93.4225 321.803 93.561 322.055 93.6133C322.306 93.6656 322.568 93.6284 322.795 93.5082L350.585 77.4595C350.684 77.4016 350.77 77.3236 350.836 77.2304C350.903 77.1372 350.949 77.0311 350.972 76.9188C350.995 76.8066 350.994 76.6908 350.969 76.579C350.944 76.4672 350.896 76.3619 350.828 76.2699Z" fill="white"/>
<path d="M350.822 76.2699C350.663 76.0718 350.439 75.935 350.19 75.8828C349.941 75.8306 349.682 75.8662 349.456 75.9835L342.539 79.9709L343.696 81.4799L350.602 77.4926C350.704 77.4332 350.792 77.3524 350.86 77.2556C350.928 77.1589 350.974 77.0485 350.995 76.9322C351.016 76.8159 351.011 76.6964 350.981 76.5821C350.952 76.4677 350.897 76.3612 350.822 76.2699Z" fill="#F28F8F"/>
<path d="M348.52 73.188C348.36 72.9873 348.135 72.8488 347.883 72.7965C347.632 72.7442 347.37 72.7814 347.143 72.9017L319.32 88.9063C319.215 88.9639 319.123 89.0436 319.052 89.14C318.981 89.2364 318.932 89.3471 318.908 89.4645C318.883 89.5818 318.885 89.703 318.913 89.8197C318.94 89.9363 318.992 90.0456 319.066 90.1399C319.226 90.3407 319.452 90.4792 319.703 90.5314C319.954 90.5837 320.216 90.5465 320.443 90.4263L348.234 74.3776C348.336 74.3236 348.426 74.2484 348.497 74.157C348.568 74.0656 348.619 73.9601 348.646 73.8476C348.673 73.735 348.676 73.618 348.654 73.5043C348.632 73.3905 348.587 73.2828 348.52 73.188Z" fill="white"/>
<path d="M348.527 73.188C348.367 72.9873 348.141 72.8488 347.89 72.7965C347.639 72.7442 347.377 72.7814 347.15 72.9017L332.688 81.1959L333.844 82.7379L348.318 74.4107C348.419 74.3504 348.506 74.2689 348.573 74.1716C348.64 74.0744 348.684 73.9639 348.704 73.8477C348.724 73.7314 348.719 73.6122 348.688 73.4984C348.657 73.3845 348.602 73.2786 348.527 73.188Z" fill="#F28F8F"/>
<path d="M346.231 70.1021C346.071 69.9014 345.846 69.7629 345.594 69.7106C345.343 69.6583 345.081 69.6955 344.854 69.8157L317.031 85.8203C316.925 85.8779 316.834 85.9577 316.763 86.0541C316.692 86.1505 316.643 86.2612 316.618 86.3785C316.594 86.4959 316.596 86.6171 316.623 86.7337C316.651 86.8504 316.703 86.9596 316.777 87.054C316.937 87.2547 317.163 87.3932 317.414 87.4455C317.665 87.4978 317.927 87.4606 318.154 87.3404L345.945 71.2917C346.047 71.2377 346.137 71.1625 346.208 71.0711C346.279 70.9797 346.33 70.8742 346.357 70.7616C346.384 70.6491 346.386 70.5321 346.365 70.4183C346.343 70.3046 346.298 70.1968 346.231 70.1021Z" fill="white"/>
<path d="M346.231 70.1021C346.071 69.9014 345.846 69.7629 345.594 69.7106C345.343 69.6583 345.081 69.6955 344.854 69.8157L319.586 84.3443L320.743 85.8864L345.967 71.3248C346.072 71.2693 346.164 71.1914 346.237 71.0964C346.309 71.0015 346.359 70.8918 346.385 70.7752C346.41 70.6586 346.409 70.5379 346.383 70.4216C346.356 70.3053 346.304 70.1962 346.231 70.1021Z" fill="#F28F8F"/>
<path d="M292.3 275.718C292.385 275.689 292.475 275.68 292.563 275.694C292.651 275.707 292.735 275.742 292.807 275.795C293.031 275.943 293.218 276.142 293.351 276.376C293.485 276.609 293.563 276.87 293.578 277.139C293.584 277.224 293.572 277.31 293.541 277.39C293.511 277.47 293.463 277.542 293.402 277.601L293.314 277.656L260.203 296.767L258 295.511L292.3 275.718Z" fill="#A57A8E" fill-opacity="0.47"/>
<path d="M296.769 278.307C296.852 278.275 296.942 278.264 297.031 278.276C297.119 278.288 297.203 278.321 297.276 278.373C297.502 278.52 297.69 278.719 297.826 278.952C297.962 279.185 298.041 279.447 298.058 279.717C298.065 279.805 298.052 279.893 298.02 279.975C297.987 280.058 297.936 280.131 297.871 280.19L297.782 280.245L264.672 299.356L262.469 298.1L296.769 278.307Z" fill="#A57A8E" fill-opacity="0.47"/>
<path d="M301.246 280.884C301.33 280.855 301.42 280.846 301.508 280.86C301.597 280.873 301.68 280.908 301.752 280.961C301.977 281.106 302.164 281.303 302.298 281.535C302.432 281.766 302.509 282.026 302.523 282.294C302.531 282.381 302.518 282.468 302.488 282.55C302.458 282.632 302.409 282.706 302.347 282.767L302.248 282.822L269.148 301.933L266.945 300.677L301.246 280.884Z" fill="#A57A8E" fill-opacity="0.47"/>
<path d="M305.719 283.46C305.806 283.434 305.897 283.427 305.987 283.44C306.076 283.454 306.162 283.487 306.237 283.538C306.461 283.686 306.647 283.885 306.781 284.118C306.915 284.352 306.993 284.613 307.008 284.881C307.016 284.967 307.004 285.053 306.973 285.133C306.943 285.213 306.894 285.285 306.831 285.344L306.743 285.399L273.633 304.51L271.43 303.254L305.719 283.46Z" fill="#A57A8E" fill-opacity="0.47"/>
<path d="M394.746 181.977C432.992 173.216 459.891 174.569 467.398 188.144C483.739 217.691 402.031 293.95 284.898 358.474C167.765 422.997 59.5624 451.351 43.2212 421.804C35.5435 407.922 49.5103 383.727 78.6273 355.283" stroke="#B16668" stroke-width="0.669851" stroke-miterlimit="10"/>
<path d="M408.457 209.681C446.007 201.197 472.38 202.65 479.791 216.087C496.084 245.628 414.551 321.908 297.68 386.463C180.81 451.018 72.8587 479.401 56.5652 449.86C49.0552 436.244 62.3267 412.7 90.2614 384.952C90.804 384.413 92.34 382.811 92.8937 382.269" stroke="#B16668" stroke-width="0.669851" stroke-miterlimit="10"/>
<path d="M205.469 214.169L205.927 232.864C216.341 226.787 218.428 220.6 218.428 220.6C218.428 220.6 218.85 212.763 205.469 214.169Z" fill="url(#paint0_linear_538_13293)" stroke="black" stroke-width="0.67898" stroke-miterlimit="10"/>
<path d="M205.83 232.864C203.84 234.025 201.547 235.182 198.906 236.291C184.431 242.369 159.518 247.007 117 242.972V293.853C117 293.853 208.421 310.071 218.33 272.584V220.6C218.33 220.6 216.849 224.992 210.154 230.01C208.903 230.947 207.47 231.907 205.83 232.864Z" fill="url(#paint1_linear_538_13293)" stroke="black" stroke-width="0.67898" stroke-miterlimit="10"/>
<path d="M157.501 263.508C137.575 264.579 125.945 262.389 125.945 262.389V286.487C125.945 286.487 143.841 289.219 157.501 288.25V263.508Z" fill="url(#paint2_linear_538_13293)" stroke="black" stroke-width="0.67898" stroke-miterlimit="10"/>
<mask id="mask0_538_13293" style="mask-type:luminance" maskUnits="userSpaceOnUse" x="125" y="262" width="33" height="27">
<path d="M157.415 263.602C137.543 264.67 125.945 262.486 125.945 262.486V286.52C125.945 286.52 143.792 289.243 157.415 288.277V263.602Z" fill="white"/>
</mask>
<g mask="url(#mask0_538_13293)">
<path d="M157.869 281.85L148.042 273.02C147.081 272.156 145.634 272.121 144.632 272.937L139.056 277.481L135.879 274.72C134.946 273.909 133.573 273.86 132.585 274.602L125.492 279.926" fill="url(#paint3_linear_538_13293)"/>
<path d="M157.869 281.85L148.042 273.02C147.081 272.156 145.634 272.121 144.632 272.937L139.056 277.481L135.879 274.72C134.946 273.909 133.573 273.86 132.585 274.602L125.492 279.926" stroke="black" stroke-width="0.561429" stroke-miterlimit="10" stroke-linecap="round" stroke-linejoin="round"/>
<path d="M157.869 293.818L125.492 290.88V279.926C134.968 281.177 144.514 281.816 154.072 281.84L157.869 281.85V293.818Z" fill="url(#paint4_linear_538_13293)" stroke="black" stroke-width="0.561429" stroke-miterlimit="10" stroke-linecap="round" stroke-linejoin="round"/>
<path d="M130.225 271.037C131.286 271.829 132.71 271.662 133.406 270.664C134.101 269.666 133.805 268.216 132.744 267.424C131.683 266.632 130.26 266.799 129.564 267.796C128.868 268.794 129.164 270.245 130.225 271.037Z" fill="url(#paint5_linear_538_13293)" stroke="black" stroke-width="0.561429" stroke-miterlimit="10" stroke-linecap="round" stroke-linejoin="round"/>
</g>
<path d="M164.531 286.683L175.017 263.651C175.017 263.651 193.111 281.021 193.438 281.336C193.765 281.65 201.498 263.632 201.498 263.632L208.513 270.366L213.934 258.457" stroke="black" stroke-width="0.751238" stroke-miterlimit="10"/>
<path d="M175.805 263.599C175.886 264.231 175.601 264.857 175.169 264.997C174.736 265.137 174.321 264.738 174.24 264.106C174.16 263.473 174.445 262.848 174.877 262.708C175.309 262.568 175.725 262.967 175.805 263.599Z" fill="url(#paint6_linear_538_13293)" stroke="black" stroke-width="0.510757" stroke-miterlimit="10"/>
<path d="M164.919 287.552C165.018 288.324 164.67 289.088 164.143 289.259C163.615 289.429 163.107 288.942 163.009 288.17C162.91 287.399 163.258 286.634 163.786 286.464C164.313 286.293 164.821 286.78 164.919 287.552Z" fill="url(#paint7_linear_538_13293)" stroke="black" stroke-width="0.623496" stroke-miterlimit="10"/>
<path d="M194.266 281.074C194.347 281.706 194.062 282.332 193.63 282.472C193.198 282.612 192.782 282.213 192.701 281.58C192.62 280.948 192.906 280.322 193.338 280.182C193.77 280.042 194.185 280.441 194.266 281.074Z" fill="url(#paint8_linear_538_13293)" stroke="black" stroke-width="0.510757" stroke-miterlimit="10"/>
<path d="M202.305 263.447C202.386 264.079 202.101 264.705 201.669 264.845C201.237 264.985 200.821 264.585 200.74 263.953C200.66 263.321 200.945 262.695 201.377 262.555C201.809 262.415 202.225 262.814 202.305 263.447Z" fill="url(#paint9_linear_538_13293)" stroke="black" stroke-width="0.510757" stroke-miterlimit="10"/>
<path d="M209.29 270.095C209.37 270.727 209.085 271.353 208.653 271.493C208.221 271.633 207.805 271.234 207.725 270.602C207.644 269.97 207.929 269.344 208.361 269.204C208.793 269.064 209.209 269.463 209.29 270.095Z" fill="url(#paint10_linear_538_13293)" stroke="black" stroke-width="0.510757" stroke-miterlimit="10"/>
<path d="M214.719 258.24C214.8 258.872 214.515 259.498 214.083 259.638C213.651 259.778 213.235 259.379 213.154 258.746C213.074 258.114 213.359 257.488 213.791 257.348C214.223 257.208 214.639 257.607 214.719 258.24Z" fill="url(#paint11_linear_538_13293)" stroke="black" stroke-width="0.510757" stroke-miterlimit="10"/>
<path d="M213.62 248.926C212.234 249.964 210.647 251.027 208.831 252.086C206.628 253.372 204.089 254.653 201.164 255.881" stroke="black" stroke-width="1.35803" stroke-miterlimit="10" stroke-linecap="round"/>
<path d="M213.62 244.867C212.234 245.906 210.647 246.968 208.831 248.028C206.628 249.314 204.089 250.595 201.164 251.823" stroke="black" stroke-width="1.35803" stroke-miterlimit="10" stroke-linecap="round"/>
<path d="M213.62 240.811C212.234 241.849 210.647 242.912 208.831 243.971C206.628 245.257 204.089 246.538 201.164 247.766" stroke="black" stroke-width="1.35803" stroke-miterlimit="10" stroke-linecap="round"/>
</g>
<defs>
<filter id="filter0_g_538_13293" x="53" y="41" width="435" height="271" filterUnits="userSpaceOnUse" color-interpolation-filters="sRGB">
<feFlood flood-opacity="0" result="BackgroundImageFix"/>
<feBlend mode="normal" in="SourceGraphic" in2="BackgroundImageFix" result="shape"/>
<feTurbulence type="fractalNoise" baseFrequency="2 2" numOctaves="3" seed="4115" />
<feDisplacementMap in="shape" scale="8" xChannelSelector="R" yChannelSelector="G" result="displacedImage" width="100%" height="100%" />
<feMerge result="effect1_texture_538_13293">
<feMergeNode in="displacedImage"/>
</feMerge>
</filter>
<linearGradient id="paint0_linear_538_13293" x1="214.443" y1="248.176" x2="210.638" y2="211.916" gradientUnits="userSpaceOnUse">
<stop stop-color="#FD747C" stop-opacity="0.84"/>
<stop offset="0.4171" stop-color="#FD747C" stop-opacity="0.4"/>
<stop offset="0.6379" stop-color="#FD747C" stop-opacity="0.3"/>
<stop offset="1" stop-color="white" stop-opacity="0.08"/>
</linearGradient>
<linearGradient id="paint1_linear_538_13293" x1="319.914" y1="258.8" x2="62.9211" y2="259.135" gradientUnits="userSpaceOnUse">
<stop stop-color="#FD747C" stop-opacity="0.4"/>
<stop offset="0.047" stop-color="#FD747C" stop-opacity="0.84"/>
<stop offset="0.1192" stop-color="#FD747C" stop-opacity="0.3"/>
<stop offset="0.1798" stop-color="#E8C7E8" stop-opacity="0.6161"/>
<stop offset="0.4445" stop-color="#FD747C" stop-opacity="0.3"/>
<stop offset="0.511" stop-color="#FD747C" stop-opacity="0.88"/>
<stop offset="0.547" stop-color="#FD747C" stop-opacity="0.3"/>
<stop offset="0.6095" stop-color="#FD747C" stop-opacity="0.3"/>
<stop offset="0.8251" stop-color="#FAEAFC"/>
</linearGradient>
<linearGradient id="paint2_linear_538_13293" x1="117.697" y1="247.74" x2="163.299" y2="299.474" gradientUnits="userSpaceOnUse">
<stop offset="0.5408" stop-color="#FD747C" stop-opacity="0.84"/>
<stop offset="0.6227" stop-color="#FD747C" stop-opacity="0.3"/>
<stop offset="0.6741" stop-color="#FD747C" stop-opacity="0.4"/>
<stop offset="0.7264" stop-color="#FD747C" stop-opacity="0.84"/>
<stop offset="0.7788" stop-color="#FD747C" stop-opacity="0.4"/>
<stop offset="0.8316" stop-color="#FD747C" stop-opacity="0.4"/>
<stop offset="0.8848" stop-color="#FFA486"/>
</linearGradient>
<linearGradient id="paint3_linear_538_13293" x1="141.046" y1="264.16" x2="142.159" y2="293.52" gradientUnits="userSpaceOnUse">
<stop offset="0.1215" stop-color="#FFA486"/>
<stop offset="0.605" stop-color="#FD747C" stop-opacity="0.84"/>
</linearGradient>
<linearGradient id="paint4_linear_538_13293" x1="120.32" y1="309.853" x2="178.666" y2="247.081" gradientUnits="userSpaceOnUse">
<stop offset="0.3041" stop-color="#FFA486"/>
<stop offset="0.605" stop-color="#FD747C" stop-opacity="0.4"/>
</linearGradient>
<linearGradient id="paint5_linear_538_13293" x1="126.489" y1="261.398" x2="132.975" y2="271.567" gradientUnits="userSpaceOnUse">
<stop offset="0.1215" stop-color="#FAD4D6" stop-opacity="0.3"/>
<stop offset="0.2281" stop-color="#FD747C" stop-opacity="0.3"/>
<stop offset="0.3041" stop-color="#FD747C" stop-opacity="0.3"/>
<stop offset="0.3705" stop-color="#FD747C" stop-opacity="0.3"/>
<stop offset="0.4314" stop-color="#FD747C" stop-opacity="0.3"/>
<stop offset="0.4886" stop-color="#FD747C" stop-opacity="0.3"/>
<stop offset="0.5431" stop-color="#FD747C" stop-opacity="0.84"/>
<stop offset="0.5944" stop-color="#FD747C" stop-opacity="0.84"/>
<stop offset="0.605" stop-color="#FD747C" stop-opacity="0.84"/>
</linearGradient>
<linearGradient id="paint6_linear_538_13293" x1="172.549" y1="263.021" x2="183.124" y2="270.734" gradientUnits="userSpaceOnUse">
<stop offset="0.2344" stop-color="#A57A8E" stop-opacity="0.3"/>
<stop offset="0.3285" stop-color="#A57A8E" stop-opacity="0.47"/>
<stop offset="0.5408" stop-color="#FD747C" stop-opacity="0.84"/>
<stop offset="0.6741" stop-color="#FD747C" stop-opacity="0.3"/>
<stop offset="0.7264" stop-color="#FD747C" stop-opacity="0.4"/>
<stop offset="0.7788" stop-color="#FD747C" stop-opacity="0.3"/>
<stop offset="0.8316" stop-color="#FFA486"/>
</linearGradient>
<linearGradient id="paint7_linear_538_13293" x1="160.944" y1="286.847" x2="173.854" y2="296.263" gradientUnits="userSpaceOnUse">
<stop offset="0.2344" stop-color="#F9D9FC"/>
<stop offset="0.3285" stop-color="#FD747C" stop-opacity="0.3"/>
<stop offset="0.5408" stop-color="#FD747C" stop-opacity="0.84"/>
<stop offset="0.5829" stop-color="#FD747C" stop-opacity="0.84"/>
<stop offset="0.6227" stop-color="#FD747C" stop-opacity="0.84"/>
<stop offset="0.6741" stop-color="#DC74DE" stop-opacity="0.326"/>
<stop offset="0.7264" stop-color="#E697E8" stop-opacity="0.4555"/>
</linearGradient>
<linearGradient id="paint8_linear_538_13293" x1="191.01" y1="280.496" x2="201.585" y2="288.209" gradientUnits="userSpaceOnUse">
<stop offset="0.2344" stop-color="#FD747C" stop-opacity="0.84"/>
<stop offset="0.3285" stop-color="#FD747C" stop-opacity="0.4"/>
<stop offset="0.5408" stop-color="#FD747C" stop-opacity="0.3"/>
<stop offset="0.5829" stop-color="#FD747C" stop-opacity="0.3"/>
<stop offset="0.6227" stop-color="#FD747C" stop-opacity="0.88"/>
<stop offset="0.6741" stop-color="#FD747C" stop-opacity="0.4"/>
<stop offset="0.7264" stop-color="#FD747C" stop-opacity="0.84"/>
</linearGradient>
<linearGradient id="paint9_linear_538_13293" x1="199.049" y1="262.869" x2="209.624" y2="270.582" gradientUnits="userSpaceOnUse">
<stop offset="0.2344" stop-color="#FD747C" stop-opacity="0.4"/>
<stop offset="0.5408" stop-color="#FD747C" stop-opacity="0.4"/>
<stop offset="0.5829" stop-color="#FD747C" stop-opacity="0.4"/>
<stop offset="0.6227" stop-color="#FD747C" stop-opacity="0.4"/>
<stop offset="0.7264" stop-color="#FD747C" stop-opacity="0.4"/>
<stop offset="0.8848" stop-color="#FD747C" stop-opacity="0.84"/>
</linearGradient>
<linearGradient id="paint10_linear_538_13293" x1="206.033" y1="269.517" x2="216.609" y2="277.231" gradientUnits="userSpaceOnUse">
<stop offset="0.2344" stop-color="white"/>
<stop offset="0.5408" stop-color="#FD747C" stop-opacity="0.84"/>
<stop offset="0.9392" stop-color="#F8D6FB" stop-opacity="0.9831"/>
</linearGradient>
<linearGradient id="paint11_linear_538_13293" x1="211.463" y1="257.662" x2="222.039" y2="265.375" gradientUnits="userSpaceOnUse">
<stop offset="0.5829" stop-color="#FD747C" stop-opacity="0.3"/>
<stop offset="0.6227" stop-color="#FD747C" stop-opacity="0.84"/>
<stop offset="0.6741" stop-color="#FD747C" stop-opacity="0.3"/>
</linearGradient>
<clipPath id="clip0_538_13293">
<rect width="500" height="500" fill="white"/>
</clipPath>
</defs>
</svg>
